G04 #@! TF.GenerationSoftware,KiCad,Pcbnew,5.0.2-bee76a0~70~ubuntu18.04.1*
G04 #@! TF.CreationDate,2019-06-17T19:26:50-05:00*
G04 #@! TF.ProjectId,ADAPTER_BOARD,41444150-5445-4525-9f42-4f4152442e6b,rev?*
G04 #@! TF.SameCoordinates,Original*
G04 #@! TF.FileFunction,Soldermask,Bot*
G04 #@! TF.FilePolarity,Negative*
%FSLAX46Y46*%
G04 Gerber Fmt 4.6, Leading zero omitted, Abs format (unit mm)*
G04 Created by KiCad (PCBNEW 5.0.2-bee76a0~70~ubuntu18.04.1) date Mon 17 Jun 2019 07:26:50 PM CDT*
%MOMM*%
%LPD*%
G01*
G04 APERTURE LIST*
%ADD10C,0.100000*%
G04 APERTURE END LIST*
D10*
G36*
X173535786Y-126585462D02*
X173535788Y-126585463D01*
X173535789Y-126585463D01*
X174182029Y-126853144D01*
X174182030Y-126853145D01*
X174763634Y-127241760D01*
X175258240Y-127736366D01*
X175258242Y-127736369D01*
X175646856Y-128317971D01*
X175914537Y-128964211D01*
X176051000Y-129650257D01*
X176051000Y-130349743D01*
X175914537Y-131035789D01*
X175646856Y-131682029D01*
X175646855Y-131682030D01*
X175258240Y-132263634D01*
X174763634Y-132758240D01*
X174763631Y-132758242D01*
X174182029Y-133146856D01*
X173535789Y-133414537D01*
X173535788Y-133414537D01*
X173535786Y-133414538D01*
X172849744Y-133551000D01*
X172150256Y-133551000D01*
X171464214Y-133414538D01*
X171464212Y-133414537D01*
X171464211Y-133414537D01*
X170817971Y-133146856D01*
X170236369Y-132758242D01*
X170236366Y-132758240D01*
X169741760Y-132263634D01*
X169353145Y-131682030D01*
X169353144Y-131682029D01*
X169085463Y-131035789D01*
X168949000Y-130349743D01*
X168949000Y-129650257D01*
X169085463Y-128964211D01*
X169353144Y-128317971D01*
X169741758Y-127736369D01*
X169741760Y-127736366D01*
X170236366Y-127241760D01*
X170817970Y-126853145D01*
X170817971Y-126853144D01*
X171464211Y-126585463D01*
X171464212Y-126585463D01*
X171464214Y-126585462D01*
X172150256Y-126449000D01*
X172849744Y-126449000D01*
X173535786Y-126585462D01*
X173535786Y-126585462D01*
G37*
G36*
X124535786Y-126585462D02*
X124535788Y-126585463D01*
X124535789Y-126585463D01*
X125182029Y-126853144D01*
X125182030Y-126853145D01*
X125763634Y-127241760D01*
X126258240Y-127736366D01*
X126258242Y-127736369D01*
X126646856Y-128317971D01*
X126914537Y-128964211D01*
X127051000Y-129650257D01*
X127051000Y-130349743D01*
X126914537Y-131035789D01*
X126646856Y-131682029D01*
X126646855Y-131682030D01*
X126258240Y-132263634D01*
X125763634Y-132758240D01*
X125763631Y-132758242D01*
X125182029Y-133146856D01*
X124535789Y-133414537D01*
X124535788Y-133414537D01*
X124535786Y-133414538D01*
X123849744Y-133551000D01*
X123150256Y-133551000D01*
X122464214Y-133414538D01*
X122464212Y-133414537D01*
X122464211Y-133414537D01*
X121817971Y-133146856D01*
X121236369Y-132758242D01*
X121236366Y-132758240D01*
X120741760Y-132263634D01*
X120353145Y-131682030D01*
X120353144Y-131682029D01*
X120085463Y-131035789D01*
X119949000Y-130349743D01*
X119949000Y-129650257D01*
X120085463Y-128964211D01*
X120353144Y-128317971D01*
X120741758Y-127736369D01*
X120741760Y-127736366D01*
X121236366Y-127241760D01*
X121817970Y-126853145D01*
X121817971Y-126853144D01*
X122464211Y-126585463D01*
X122464212Y-126585463D01*
X122464214Y-126585462D01*
X123150256Y-126449000D01*
X123849744Y-126449000D01*
X124535786Y-126585462D01*
X124535786Y-126585462D01*
G37*
G36*
X159655734Y-120843232D02*
X159865202Y-120929996D01*
X160053723Y-121055962D01*
X160214038Y-121216277D01*
X160340004Y-121404798D01*
X160426768Y-121614266D01*
X160471000Y-121836635D01*
X160471000Y-122063365D01*
X160426768Y-122285734D01*
X160340004Y-122495202D01*
X160214038Y-122683723D01*
X160053723Y-122844038D01*
X159865202Y-122970004D01*
X159655734Y-123056768D01*
X159433365Y-123101000D01*
X159206635Y-123101000D01*
X158984266Y-123056768D01*
X158774798Y-122970004D01*
X158586277Y-122844038D01*
X158425962Y-122683723D01*
X158299996Y-122495202D01*
X158213232Y-122285734D01*
X158169000Y-122063365D01*
X158169000Y-121836635D01*
X158213232Y-121614266D01*
X158299996Y-121404798D01*
X158425962Y-121216277D01*
X158586277Y-121055962D01*
X158774798Y-120929996D01*
X158984266Y-120843232D01*
X159206635Y-120799000D01*
X159433365Y-120799000D01*
X159655734Y-120843232D01*
X159655734Y-120843232D01*
G37*
G36*
X148659999Y-121099737D02*
X148669611Y-121102653D01*
X148678469Y-121107388D01*
X148686237Y-121113763D01*
X148696446Y-121126202D01*
X148703372Y-121136568D01*
X148720698Y-121153895D01*
X148741073Y-121167510D01*
X148763711Y-121176888D01*
X148787745Y-121181669D01*
X148812249Y-121181669D01*
X148836283Y-121176889D01*
X148858922Y-121167513D01*
X148879297Y-121153899D01*
X148896624Y-121136573D01*
X148903552Y-121126204D01*
X148913763Y-121113763D01*
X148921531Y-121107388D01*
X148930389Y-121102653D01*
X148940001Y-121099737D01*
X148956140Y-121098148D01*
X149443860Y-121098148D01*
X149462198Y-121099954D01*
X149474450Y-121100556D01*
X149492869Y-121100556D01*
X149515149Y-121102750D01*
X149599236Y-121119476D01*
X149620655Y-121125974D01*
X149699871Y-121158785D01*
X149719607Y-121169335D01*
X149790897Y-121216969D01*
X149808208Y-121231176D01*
X149868824Y-121291792D01*
X149883031Y-121309103D01*
X149930665Y-121380393D01*
X149941215Y-121400129D01*
X149974026Y-121479345D01*
X149980524Y-121500764D01*
X149997250Y-121584851D01*
X149999444Y-121607131D01*
X149999444Y-121625550D01*
X150000046Y-121637802D01*
X150001852Y-121656140D01*
X150001852Y-122143861D01*
X150000046Y-122162198D01*
X149999444Y-122174450D01*
X149999444Y-122192869D01*
X149997250Y-122215149D01*
X149980524Y-122299236D01*
X149974026Y-122320655D01*
X149941215Y-122399871D01*
X149930665Y-122419607D01*
X149883031Y-122490897D01*
X149868824Y-122508208D01*
X149808208Y-122568824D01*
X149790897Y-122583031D01*
X149719607Y-122630665D01*
X149699871Y-122641215D01*
X149620655Y-122674026D01*
X149599236Y-122680524D01*
X149515149Y-122697250D01*
X149492869Y-122699444D01*
X149474450Y-122699444D01*
X149462198Y-122700046D01*
X149443861Y-122701852D01*
X148956140Y-122701852D01*
X148940001Y-122700263D01*
X148930389Y-122697347D01*
X148921531Y-122692612D01*
X148913763Y-122686237D01*
X148903554Y-122673798D01*
X148896628Y-122663432D01*
X148879302Y-122646105D01*
X148858927Y-122632490D01*
X148836289Y-122623112D01*
X148812255Y-122618331D01*
X148787751Y-122618331D01*
X148763717Y-122623111D01*
X148741078Y-122632487D01*
X148720703Y-122646101D01*
X148703376Y-122663427D01*
X148696448Y-122673796D01*
X148686237Y-122686237D01*
X148678469Y-122692612D01*
X148669611Y-122697347D01*
X148659999Y-122700263D01*
X148643860Y-122701852D01*
X148156139Y-122701852D01*
X148137802Y-122700046D01*
X148125550Y-122699444D01*
X148107131Y-122699444D01*
X148084851Y-122697250D01*
X148000764Y-122680524D01*
X147979345Y-122674026D01*
X147900129Y-122641215D01*
X147880393Y-122630665D01*
X147809103Y-122583031D01*
X147791792Y-122568824D01*
X147731176Y-122508208D01*
X147716969Y-122490897D01*
X147669335Y-122419607D01*
X147658785Y-122399871D01*
X147625974Y-122320655D01*
X147619476Y-122299236D01*
X147602750Y-122215149D01*
X147600556Y-122192869D01*
X147600556Y-122174450D01*
X147599954Y-122162198D01*
X147598148Y-122143861D01*
X147598148Y-121656140D01*
X147599954Y-121637802D01*
X147600556Y-121625550D01*
X147600556Y-121607131D01*
X147602750Y-121584851D01*
X147619476Y-121500764D01*
X147625974Y-121479345D01*
X147658785Y-121400129D01*
X147669335Y-121380393D01*
X147716969Y-121309103D01*
X147731176Y-121291792D01*
X147791792Y-121231176D01*
X147809103Y-121216969D01*
X147880393Y-121169335D01*
X147900129Y-121158785D01*
X147979345Y-121125974D01*
X148000764Y-121119476D01*
X148084851Y-121102750D01*
X148107131Y-121100556D01*
X148125550Y-121100556D01*
X148137802Y-121099954D01*
X148156140Y-121098148D01*
X148643860Y-121098148D01*
X148659999Y-121099737D01*
X148659999Y-121099737D01*
G37*
G36*
X128342831Y-118637841D02*
X128487826Y-118666682D01*
X128600974Y-118713550D01*
X128760989Y-118779830D01*
X129006835Y-118944099D01*
X129215901Y-119153165D01*
X129380170Y-119399011D01*
X129493318Y-119672175D01*
X129551000Y-119962163D01*
X129551000Y-120257837D01*
X129493318Y-120547825D01*
X129380170Y-120820989D01*
X129215901Y-121066835D01*
X129006835Y-121275901D01*
X128760989Y-121440170D01*
X128652163Y-121485247D01*
X128487826Y-121553318D01*
X128342831Y-121582159D01*
X128197837Y-121611000D01*
X127902163Y-121611000D01*
X127757169Y-121582159D01*
X127612174Y-121553318D01*
X127447837Y-121485247D01*
X127339011Y-121440170D01*
X127093165Y-121275901D01*
X126884099Y-121066835D01*
X126719830Y-120820989D01*
X126606682Y-120547825D01*
X126549000Y-120257837D01*
X126549000Y-119962163D01*
X126606682Y-119672175D01*
X126719830Y-119399011D01*
X126884099Y-119153165D01*
X127093165Y-118944099D01*
X127339011Y-118779830D01*
X127499026Y-118713550D01*
X127612174Y-118666682D01*
X127757169Y-118637841D01*
X127902163Y-118609000D01*
X128197837Y-118609000D01*
X128342831Y-118637841D01*
X128342831Y-118637841D01*
G37*
G36*
X164655734Y-118343232D02*
X164865202Y-118429996D01*
X165053723Y-118555962D01*
X165214038Y-118716277D01*
X165340004Y-118904798D01*
X165426768Y-119114266D01*
X165471000Y-119336635D01*
X165471000Y-119563365D01*
X165426768Y-119785734D01*
X165340004Y-119995202D01*
X165214038Y-120183723D01*
X165053723Y-120344038D01*
X164865202Y-120470004D01*
X164655734Y-120556768D01*
X164433365Y-120601000D01*
X164206635Y-120601000D01*
X163984266Y-120556768D01*
X163774798Y-120470004D01*
X163586277Y-120344038D01*
X163425962Y-120183723D01*
X163299996Y-119995202D01*
X163213232Y-119785734D01*
X163169000Y-119563365D01*
X163169000Y-119336635D01*
X163213232Y-119114266D01*
X163299996Y-118904798D01*
X163425962Y-118716277D01*
X163586277Y-118555962D01*
X163774798Y-118429996D01*
X163984266Y-118343232D01*
X164206635Y-118299000D01*
X164433365Y-118299000D01*
X164655734Y-118343232D01*
X164655734Y-118343232D01*
G37*
G36*
X159655734Y-115843232D02*
X159865202Y-115929996D01*
X160053723Y-116055962D01*
X160214038Y-116216277D01*
X160340004Y-116404798D01*
X160426768Y-116614266D01*
X160471000Y-116836635D01*
X160471000Y-117063365D01*
X160426768Y-117285734D01*
X160340004Y-117495202D01*
X160214038Y-117683723D01*
X160053723Y-117844038D01*
X159865202Y-117970004D01*
X159655734Y-118056768D01*
X159433365Y-118101000D01*
X159206635Y-118101000D01*
X158984266Y-118056768D01*
X158774798Y-117970004D01*
X158586277Y-117844038D01*
X158425962Y-117683723D01*
X158299996Y-117495202D01*
X158213232Y-117285734D01*
X158169000Y-117063365D01*
X158169000Y-116836635D01*
X158213232Y-116614266D01*
X158299996Y-116404798D01*
X158425962Y-116216277D01*
X158586277Y-116055962D01*
X158774798Y-115929996D01*
X158984266Y-115843232D01*
X159206635Y-115799000D01*
X159433365Y-115799000D01*
X159655734Y-115843232D01*
X159655734Y-115843232D01*
G37*
G36*
X164655734Y-113343232D02*
X164865202Y-113429996D01*
X165053723Y-113555962D01*
X165214038Y-113716277D01*
X165340004Y-113904798D01*
X165426768Y-114114266D01*
X165471000Y-114336635D01*
X165471000Y-114563365D01*
X165426768Y-114785734D01*
X165340004Y-114995202D01*
X165214038Y-115183723D01*
X165053723Y-115344038D01*
X164865202Y-115470004D01*
X164655734Y-115556768D01*
X164433365Y-115601000D01*
X164206635Y-115601000D01*
X163984266Y-115556768D01*
X163774798Y-115470004D01*
X163586277Y-115344038D01*
X163425962Y-115183723D01*
X163299996Y-114995202D01*
X163213232Y-114785734D01*
X163169000Y-114563365D01*
X163169000Y-114336635D01*
X163213232Y-114114266D01*
X163299996Y-113904798D01*
X163425962Y-113716277D01*
X163586277Y-113555962D01*
X163774798Y-113429996D01*
X163984266Y-113343232D01*
X164206635Y-113299000D01*
X164433365Y-113299000D01*
X164655734Y-113343232D01*
X164655734Y-113343232D01*
G37*
G36*
X148659999Y-113036097D02*
X148669611Y-113039013D01*
X148678469Y-113043748D01*
X148686237Y-113050123D01*
X148696446Y-113062562D01*
X148703372Y-113072928D01*
X148720698Y-113090255D01*
X148741073Y-113103870D01*
X148763711Y-113113248D01*
X148787745Y-113118029D01*
X148812249Y-113118029D01*
X148836283Y-113113249D01*
X148858922Y-113103873D01*
X148879297Y-113090259D01*
X148896624Y-113072933D01*
X148903552Y-113062564D01*
X148913763Y-113050123D01*
X148921531Y-113043748D01*
X148930389Y-113039013D01*
X148940001Y-113036097D01*
X148956140Y-113034508D01*
X149443860Y-113034508D01*
X149462198Y-113036314D01*
X149474450Y-113036916D01*
X149492869Y-113036916D01*
X149515149Y-113039110D01*
X149599236Y-113055836D01*
X149620655Y-113062334D01*
X149699871Y-113095145D01*
X149719607Y-113105695D01*
X149790897Y-113153329D01*
X149808208Y-113167536D01*
X149868824Y-113228152D01*
X149883031Y-113245463D01*
X149930665Y-113316753D01*
X149941215Y-113336489D01*
X149974026Y-113415705D01*
X149980524Y-113437124D01*
X149997250Y-113521211D01*
X149999444Y-113543491D01*
X149999444Y-113561910D01*
X150000046Y-113574162D01*
X150001852Y-113592500D01*
X150001852Y-114080221D01*
X150000046Y-114098558D01*
X149999444Y-114110810D01*
X149999444Y-114129229D01*
X149997250Y-114151509D01*
X149980524Y-114235596D01*
X149974026Y-114257015D01*
X149941215Y-114336231D01*
X149930665Y-114355967D01*
X149883031Y-114427257D01*
X149868824Y-114444568D01*
X149808208Y-114505184D01*
X149790897Y-114519391D01*
X149719607Y-114567025D01*
X149699871Y-114577575D01*
X149620655Y-114610386D01*
X149599236Y-114616884D01*
X149515149Y-114633610D01*
X149492869Y-114635804D01*
X149474450Y-114635804D01*
X149462198Y-114636406D01*
X149443861Y-114638212D01*
X148956140Y-114638212D01*
X148940001Y-114636623D01*
X148930389Y-114633707D01*
X148921531Y-114628972D01*
X148913763Y-114622597D01*
X148903554Y-114610158D01*
X148896628Y-114599792D01*
X148879302Y-114582465D01*
X148858927Y-114568850D01*
X148836289Y-114559472D01*
X148812255Y-114554691D01*
X148787751Y-114554691D01*
X148763717Y-114559471D01*
X148741078Y-114568847D01*
X148720703Y-114582461D01*
X148703376Y-114599787D01*
X148696448Y-114610156D01*
X148686237Y-114622597D01*
X148678469Y-114628972D01*
X148669611Y-114633707D01*
X148659999Y-114636623D01*
X148643860Y-114638212D01*
X148156139Y-114638212D01*
X148137802Y-114636406D01*
X148125550Y-114635804D01*
X148107131Y-114635804D01*
X148084851Y-114633610D01*
X148000764Y-114616884D01*
X147979345Y-114610386D01*
X147900129Y-114577575D01*
X147880393Y-114567025D01*
X147809103Y-114519391D01*
X147791792Y-114505184D01*
X147731176Y-114444568D01*
X147716969Y-114427257D01*
X147669335Y-114355967D01*
X147658785Y-114336231D01*
X147625974Y-114257015D01*
X147619476Y-114235596D01*
X147602750Y-114151509D01*
X147600556Y-114129229D01*
X147600556Y-114110810D01*
X147599954Y-114098558D01*
X147598148Y-114080221D01*
X147598148Y-113592500D01*
X147599954Y-113574162D01*
X147600556Y-113561910D01*
X147600556Y-113543491D01*
X147602750Y-113521211D01*
X147619476Y-113437124D01*
X147625974Y-113415705D01*
X147658785Y-113336489D01*
X147669335Y-113316753D01*
X147716969Y-113245463D01*
X147731176Y-113228152D01*
X147791792Y-113167536D01*
X147809103Y-113153329D01*
X147880393Y-113105695D01*
X147900129Y-113095145D01*
X147979345Y-113062334D01*
X148000764Y-113055836D01*
X148084851Y-113039110D01*
X148107131Y-113036916D01*
X148125550Y-113036916D01*
X148137802Y-113036314D01*
X148156140Y-113034508D01*
X148643860Y-113034508D01*
X148659999Y-113036097D01*
X148659999Y-113036097D01*
G37*
G36*
X159655734Y-110843232D02*
X159865202Y-110929996D01*
X160053723Y-111055962D01*
X160214038Y-111216277D01*
X160340004Y-111404798D01*
X160426768Y-111614266D01*
X160471000Y-111836635D01*
X160471000Y-112063365D01*
X160426768Y-112285734D01*
X160340004Y-112495202D01*
X160214038Y-112683723D01*
X160053723Y-112844038D01*
X159865202Y-112970004D01*
X159655734Y-113056768D01*
X159433365Y-113101000D01*
X159206635Y-113101000D01*
X158984266Y-113056768D01*
X158774798Y-112970004D01*
X158586277Y-112844038D01*
X158425962Y-112683723D01*
X158299996Y-112495202D01*
X158213232Y-112285734D01*
X158169000Y-112063365D01*
X158169000Y-111836635D01*
X158213232Y-111614266D01*
X158299996Y-111404798D01*
X158425962Y-111216277D01*
X158586277Y-111055962D01*
X158774798Y-110929996D01*
X158984266Y-110843232D01*
X159206635Y-110799000D01*
X159433365Y-110799000D01*
X159655734Y-110843232D01*
X159655734Y-110843232D01*
G37*
G36*
X129847396Y-110345546D02*
X130020466Y-110417234D01*
X130176230Y-110521312D01*
X130308688Y-110653770D01*
X130412766Y-110809534D01*
X130484454Y-110982604D01*
X130521000Y-111166333D01*
X130521000Y-111353667D01*
X130484454Y-111537396D01*
X130412766Y-111710466D01*
X130308688Y-111866230D01*
X130176230Y-111998688D01*
X130020466Y-112102766D01*
X129847396Y-112174454D01*
X129663667Y-112211000D01*
X129476333Y-112211000D01*
X129292604Y-112174454D01*
X129119534Y-112102766D01*
X128963770Y-111998688D01*
X128831312Y-111866230D01*
X128727234Y-111710466D01*
X128655546Y-111537396D01*
X128619000Y-111353667D01*
X128619000Y-111166333D01*
X128655546Y-110982604D01*
X128727234Y-110809534D01*
X128831312Y-110653770D01*
X128963770Y-110521312D01*
X129119534Y-110417234D01*
X129292604Y-110345546D01*
X129476333Y-110309000D01*
X129663667Y-110309000D01*
X129847396Y-110345546D01*
X129847396Y-110345546D01*
G37*
G36*
X127307396Y-110345546D02*
X127480466Y-110417234D01*
X127636230Y-110521312D01*
X127768688Y-110653770D01*
X127872766Y-110809534D01*
X127944454Y-110982604D01*
X127981000Y-111166333D01*
X127981000Y-111353667D01*
X127944454Y-111537396D01*
X127872766Y-111710466D01*
X127768688Y-111866230D01*
X127636230Y-111998688D01*
X127480466Y-112102766D01*
X127307396Y-112174454D01*
X127123667Y-112211000D01*
X126936333Y-112211000D01*
X126752604Y-112174454D01*
X126579534Y-112102766D01*
X126423770Y-111998688D01*
X126291312Y-111866230D01*
X126187234Y-111710466D01*
X126115546Y-111537396D01*
X126079000Y-111353667D01*
X126079000Y-111166333D01*
X126115546Y-110982604D01*
X126187234Y-110809534D01*
X126291312Y-110653770D01*
X126423770Y-110521312D01*
X126579534Y-110417234D01*
X126752604Y-110345546D01*
X126936333Y-110309000D01*
X127123667Y-110309000D01*
X127307396Y-110345546D01*
X127307396Y-110345546D01*
G37*
G36*
X164655734Y-108343232D02*
X164865202Y-108429996D01*
X165053723Y-108555962D01*
X165214038Y-108716277D01*
X165340004Y-108904798D01*
X165426768Y-109114266D01*
X165471000Y-109336635D01*
X165471000Y-109563365D01*
X165426768Y-109785734D01*
X165340004Y-109995202D01*
X165214038Y-110183723D01*
X165053723Y-110344038D01*
X164865202Y-110470004D01*
X164655734Y-110556768D01*
X164433365Y-110601000D01*
X164206635Y-110601000D01*
X163984266Y-110556768D01*
X163774798Y-110470004D01*
X163586277Y-110344038D01*
X163425962Y-110183723D01*
X163299996Y-109995202D01*
X163213232Y-109785734D01*
X163169000Y-109563365D01*
X163169000Y-109336635D01*
X163213232Y-109114266D01*
X163299996Y-108904798D01*
X163425962Y-108716277D01*
X163586277Y-108555962D01*
X163774798Y-108429996D01*
X163984266Y-108343232D01*
X164206635Y-108299000D01*
X164433365Y-108299000D01*
X164655734Y-108343232D01*
X164655734Y-108343232D01*
G37*
G36*
X129847396Y-107805546D02*
X130020466Y-107877234D01*
X130176230Y-107981312D01*
X130308688Y-108113770D01*
X130412766Y-108269534D01*
X130484454Y-108442604D01*
X130521000Y-108626333D01*
X130521000Y-108813667D01*
X130484454Y-108997396D01*
X130412766Y-109170466D01*
X130308688Y-109326230D01*
X130176230Y-109458688D01*
X130020466Y-109562766D01*
X129847396Y-109634454D01*
X129663667Y-109671000D01*
X129476333Y-109671000D01*
X129292604Y-109634454D01*
X129119534Y-109562766D01*
X128963770Y-109458688D01*
X128831312Y-109326230D01*
X128727234Y-109170466D01*
X128655546Y-108997396D01*
X128619000Y-108813667D01*
X128619000Y-108626333D01*
X128655546Y-108442604D01*
X128727234Y-108269534D01*
X128831312Y-108113770D01*
X128963770Y-107981312D01*
X129119534Y-107877234D01*
X129292604Y-107805546D01*
X129476333Y-107769000D01*
X129663667Y-107769000D01*
X129847396Y-107805546D01*
X129847396Y-107805546D01*
G37*
G36*
X127307396Y-107805546D02*
X127480466Y-107877234D01*
X127636230Y-107981312D01*
X127768688Y-108113770D01*
X127872766Y-108269534D01*
X127944454Y-108442604D01*
X127981000Y-108626333D01*
X127981000Y-108813667D01*
X127944454Y-108997396D01*
X127872766Y-109170466D01*
X127768688Y-109326230D01*
X127636230Y-109458688D01*
X127480466Y-109562766D01*
X127307396Y-109634454D01*
X127123667Y-109671000D01*
X126936333Y-109671000D01*
X126752604Y-109634454D01*
X126579534Y-109562766D01*
X126423770Y-109458688D01*
X126291312Y-109326230D01*
X126187234Y-109170466D01*
X126115546Y-108997396D01*
X126079000Y-108813667D01*
X126079000Y-108626333D01*
X126115546Y-108442604D01*
X126187234Y-108269534D01*
X126291312Y-108113770D01*
X126423770Y-107981312D01*
X126579534Y-107877234D01*
X126752604Y-107805546D01*
X126936333Y-107769000D01*
X127123667Y-107769000D01*
X127307396Y-107805546D01*
X127307396Y-107805546D01*
G37*
G36*
X159655734Y-105843232D02*
X159865202Y-105929996D01*
X160053723Y-106055962D01*
X160214038Y-106216277D01*
X160340004Y-106404798D01*
X160426768Y-106614266D01*
X160471000Y-106836635D01*
X160471000Y-107063365D01*
X160426768Y-107285734D01*
X160340004Y-107495202D01*
X160214038Y-107683723D01*
X160053723Y-107844038D01*
X159865202Y-107970004D01*
X159655734Y-108056768D01*
X159433365Y-108101000D01*
X159206635Y-108101000D01*
X158984266Y-108056768D01*
X158774798Y-107970004D01*
X158586277Y-107844038D01*
X158425962Y-107683723D01*
X158299996Y-107495202D01*
X158213232Y-107285734D01*
X158169000Y-107063365D01*
X158169000Y-106836635D01*
X158213232Y-106614266D01*
X158299996Y-106404798D01*
X158425962Y-106216277D01*
X158586277Y-106055962D01*
X158774798Y-105929996D01*
X158984266Y-105843232D01*
X159206635Y-105799000D01*
X159433365Y-105799000D01*
X159655734Y-105843232D01*
X159655734Y-105843232D01*
G37*
G36*
X129847396Y-105265546D02*
X130020466Y-105337234D01*
X130176230Y-105441312D01*
X130308688Y-105573770D01*
X130412766Y-105729534D01*
X130484454Y-105902604D01*
X130521000Y-106086333D01*
X130521000Y-106273667D01*
X130484454Y-106457396D01*
X130412766Y-106630466D01*
X130308688Y-106786230D01*
X130176230Y-106918688D01*
X130020466Y-107022766D01*
X129847396Y-107094454D01*
X129663667Y-107131000D01*
X129476333Y-107131000D01*
X129292604Y-107094454D01*
X129119534Y-107022766D01*
X128963770Y-106918688D01*
X128831312Y-106786230D01*
X128727234Y-106630466D01*
X128655546Y-106457396D01*
X128619000Y-106273667D01*
X128619000Y-106086333D01*
X128655546Y-105902604D01*
X128727234Y-105729534D01*
X128831312Y-105573770D01*
X128963770Y-105441312D01*
X129119534Y-105337234D01*
X129292604Y-105265546D01*
X129476333Y-105229000D01*
X129663667Y-105229000D01*
X129847396Y-105265546D01*
X129847396Y-105265546D01*
G37*
G36*
X127307396Y-105265546D02*
X127480466Y-105337234D01*
X127636230Y-105441312D01*
X127768688Y-105573770D01*
X127872766Y-105729534D01*
X127944454Y-105902604D01*
X127981000Y-106086333D01*
X127981000Y-106273667D01*
X127944454Y-106457396D01*
X127872766Y-106630466D01*
X127768688Y-106786230D01*
X127636230Y-106918688D01*
X127480466Y-107022766D01*
X127307396Y-107094454D01*
X127123667Y-107131000D01*
X126936333Y-107131000D01*
X126752604Y-107094454D01*
X126579534Y-107022766D01*
X126423770Y-106918688D01*
X126291312Y-106786230D01*
X126187234Y-106630466D01*
X126115546Y-106457396D01*
X126079000Y-106273667D01*
X126079000Y-106086333D01*
X126115546Y-105902604D01*
X126187234Y-105729534D01*
X126291312Y-105573770D01*
X126423770Y-105441312D01*
X126579534Y-105337234D01*
X126752604Y-105265546D01*
X126936333Y-105229000D01*
X127123667Y-105229000D01*
X127307396Y-105265546D01*
X127307396Y-105265546D01*
G37*
G36*
X148659999Y-104972461D02*
X148669611Y-104975377D01*
X148678469Y-104980112D01*
X148686237Y-104986487D01*
X148696446Y-104998926D01*
X148703372Y-105009292D01*
X148720698Y-105026619D01*
X148741073Y-105040234D01*
X148763711Y-105049612D01*
X148787745Y-105054393D01*
X148812249Y-105054393D01*
X148836283Y-105049613D01*
X148858922Y-105040237D01*
X148879297Y-105026623D01*
X148896624Y-105009297D01*
X148903552Y-104998928D01*
X148913763Y-104986487D01*
X148921531Y-104980112D01*
X148930389Y-104975377D01*
X148940001Y-104972461D01*
X148956140Y-104970872D01*
X149443860Y-104970872D01*
X149462198Y-104972678D01*
X149474450Y-104973280D01*
X149492869Y-104973280D01*
X149515149Y-104975474D01*
X149599236Y-104992200D01*
X149620655Y-104998698D01*
X149699871Y-105031509D01*
X149719607Y-105042059D01*
X149790897Y-105089693D01*
X149808208Y-105103900D01*
X149868824Y-105164516D01*
X149883031Y-105181827D01*
X149930665Y-105253117D01*
X149941215Y-105272853D01*
X149974026Y-105352069D01*
X149980524Y-105373488D01*
X149997250Y-105457575D01*
X149999444Y-105479855D01*
X149999444Y-105498274D01*
X150000046Y-105510526D01*
X150001852Y-105528864D01*
X150001852Y-106016585D01*
X150000046Y-106034922D01*
X149999444Y-106047174D01*
X149999444Y-106065593D01*
X149997250Y-106087873D01*
X149980524Y-106171960D01*
X149974026Y-106193379D01*
X149941215Y-106272595D01*
X149930665Y-106292331D01*
X149883031Y-106363621D01*
X149868824Y-106380932D01*
X149808208Y-106441548D01*
X149790897Y-106455755D01*
X149719607Y-106503389D01*
X149699871Y-106513939D01*
X149620655Y-106546750D01*
X149599236Y-106553248D01*
X149515149Y-106569974D01*
X149492869Y-106572168D01*
X149474450Y-106572168D01*
X149462198Y-106572770D01*
X149443861Y-106574576D01*
X148956140Y-106574576D01*
X148940001Y-106572987D01*
X148930389Y-106570071D01*
X148921531Y-106565336D01*
X148913763Y-106558961D01*
X148903554Y-106546522D01*
X148896628Y-106536156D01*
X148879302Y-106518829D01*
X148858927Y-106505214D01*
X148836289Y-106495836D01*
X148812255Y-106491055D01*
X148787751Y-106491055D01*
X148763717Y-106495835D01*
X148741078Y-106505211D01*
X148720703Y-106518825D01*
X148703376Y-106536151D01*
X148696448Y-106546520D01*
X148686237Y-106558961D01*
X148678469Y-106565336D01*
X148669611Y-106570071D01*
X148659999Y-106572987D01*
X148643860Y-106574576D01*
X148156139Y-106574576D01*
X148137802Y-106572770D01*
X148125550Y-106572168D01*
X148107131Y-106572168D01*
X148084851Y-106569974D01*
X148000764Y-106553248D01*
X147979345Y-106546750D01*
X147900129Y-106513939D01*
X147880393Y-106503389D01*
X147809103Y-106455755D01*
X147791792Y-106441548D01*
X147731176Y-106380932D01*
X147716969Y-106363621D01*
X147669335Y-106292331D01*
X147658785Y-106272595D01*
X147625974Y-106193379D01*
X147619476Y-106171960D01*
X147602750Y-106087873D01*
X147600556Y-106065593D01*
X147600556Y-106047174D01*
X147599954Y-106034922D01*
X147598148Y-106016585D01*
X147598148Y-105528864D01*
X147599954Y-105510526D01*
X147600556Y-105498274D01*
X147600556Y-105479855D01*
X147602750Y-105457575D01*
X147619476Y-105373488D01*
X147625974Y-105352069D01*
X147658785Y-105272853D01*
X147669335Y-105253117D01*
X147716969Y-105181827D01*
X147731176Y-105164516D01*
X147791792Y-105103900D01*
X147809103Y-105089693D01*
X147880393Y-105042059D01*
X147900129Y-105031509D01*
X147979345Y-104998698D01*
X148000764Y-104992200D01*
X148084851Y-104975474D01*
X148107131Y-104973280D01*
X148125550Y-104973280D01*
X148137802Y-104972678D01*
X148156140Y-104970872D01*
X148643860Y-104970872D01*
X148659999Y-104972461D01*
X148659999Y-104972461D01*
G37*
G36*
X164655734Y-103343232D02*
X164865202Y-103429996D01*
X165053723Y-103555962D01*
X165214038Y-103716277D01*
X165340004Y-103904798D01*
X165426768Y-104114266D01*
X165471000Y-104336635D01*
X165471000Y-104563365D01*
X165426768Y-104785734D01*
X165340004Y-104995202D01*
X165214038Y-105183723D01*
X165053723Y-105344038D01*
X164865202Y-105470004D01*
X164655734Y-105556768D01*
X164433365Y-105601000D01*
X164206635Y-105601000D01*
X163984266Y-105556768D01*
X163774798Y-105470004D01*
X163586277Y-105344038D01*
X163425962Y-105183723D01*
X163299996Y-104995202D01*
X163213232Y-104785734D01*
X163169000Y-104563365D01*
X163169000Y-104336635D01*
X163213232Y-104114266D01*
X163299996Y-103904798D01*
X163425962Y-103716277D01*
X163586277Y-103555962D01*
X163774798Y-103429996D01*
X163984266Y-103343232D01*
X164206635Y-103299000D01*
X164433365Y-103299000D01*
X164655734Y-103343232D01*
X164655734Y-103343232D01*
G37*
G36*
X129847396Y-102725546D02*
X130020466Y-102797234D01*
X130176230Y-102901312D01*
X130308688Y-103033770D01*
X130412766Y-103189534D01*
X130484454Y-103362604D01*
X130521000Y-103546333D01*
X130521000Y-103733667D01*
X130484454Y-103917396D01*
X130412766Y-104090466D01*
X130308688Y-104246230D01*
X130176230Y-104378688D01*
X130020466Y-104482766D01*
X129847396Y-104554454D01*
X129663667Y-104591000D01*
X129476333Y-104591000D01*
X129292604Y-104554454D01*
X129119534Y-104482766D01*
X128963770Y-104378688D01*
X128831312Y-104246230D01*
X128727234Y-104090466D01*
X128655546Y-103917396D01*
X128619000Y-103733667D01*
X128619000Y-103546333D01*
X128655546Y-103362604D01*
X128727234Y-103189534D01*
X128831312Y-103033770D01*
X128963770Y-102901312D01*
X129119534Y-102797234D01*
X129292604Y-102725546D01*
X129476333Y-102689000D01*
X129663667Y-102689000D01*
X129847396Y-102725546D01*
X129847396Y-102725546D01*
G37*
G36*
X127307396Y-102725546D02*
X127480466Y-102797234D01*
X127636230Y-102901312D01*
X127768688Y-103033770D01*
X127872766Y-103189534D01*
X127944454Y-103362604D01*
X127981000Y-103546333D01*
X127981000Y-103733667D01*
X127944454Y-103917396D01*
X127872766Y-104090466D01*
X127768688Y-104246230D01*
X127636230Y-104378688D01*
X127480466Y-104482766D01*
X127307396Y-104554454D01*
X127123667Y-104591000D01*
X126936333Y-104591000D01*
X126752604Y-104554454D01*
X126579534Y-104482766D01*
X126423770Y-104378688D01*
X126291312Y-104246230D01*
X126187234Y-104090466D01*
X126115546Y-103917396D01*
X126079000Y-103733667D01*
X126079000Y-103546333D01*
X126115546Y-103362604D01*
X126187234Y-103189534D01*
X126291312Y-103033770D01*
X126423770Y-102901312D01*
X126579534Y-102797234D01*
X126752604Y-102725546D01*
X126936333Y-102689000D01*
X127123667Y-102689000D01*
X127307396Y-102725546D01*
X127307396Y-102725546D01*
G37*
G36*
X159655734Y-100843232D02*
X159865202Y-100929996D01*
X160053723Y-101055962D01*
X160214038Y-101216277D01*
X160340004Y-101404798D01*
X160426768Y-101614266D01*
X160471000Y-101836635D01*
X160471000Y-102063365D01*
X160426768Y-102285734D01*
X160340004Y-102495202D01*
X160214038Y-102683723D01*
X160053723Y-102844038D01*
X159865202Y-102970004D01*
X159655734Y-103056768D01*
X159433365Y-103101000D01*
X159206635Y-103101000D01*
X158984266Y-103056768D01*
X158774798Y-102970004D01*
X158586277Y-102844038D01*
X158425962Y-102683723D01*
X158299996Y-102495202D01*
X158213232Y-102285734D01*
X158169000Y-102063365D01*
X158169000Y-101836635D01*
X158213232Y-101614266D01*
X158299996Y-101404798D01*
X158425962Y-101216277D01*
X158586277Y-101055962D01*
X158774798Y-100929996D01*
X158984266Y-100843232D01*
X159206635Y-100799000D01*
X159433365Y-100799000D01*
X159655734Y-100843232D01*
X159655734Y-100843232D01*
G37*
G36*
X127307396Y-100185546D02*
X127480466Y-100257234D01*
X127636230Y-100361312D01*
X127768688Y-100493770D01*
X127872766Y-100649534D01*
X127944454Y-100822604D01*
X127981000Y-101006333D01*
X127981000Y-101193667D01*
X127944454Y-101377396D01*
X127872766Y-101550466D01*
X127768688Y-101706230D01*
X127636230Y-101838688D01*
X127480466Y-101942766D01*
X127307396Y-102014454D01*
X127123667Y-102051000D01*
X126936333Y-102051000D01*
X126752604Y-102014454D01*
X126579534Y-101942766D01*
X126423770Y-101838688D01*
X126291312Y-101706230D01*
X126187234Y-101550466D01*
X126115546Y-101377396D01*
X126079000Y-101193667D01*
X126079000Y-101006333D01*
X126115546Y-100822604D01*
X126187234Y-100649534D01*
X126291312Y-100493770D01*
X126423770Y-100361312D01*
X126579534Y-100257234D01*
X126752604Y-100185546D01*
X126936333Y-100149000D01*
X127123667Y-100149000D01*
X127307396Y-100185546D01*
X127307396Y-100185546D01*
G37*
G36*
X129847396Y-100185546D02*
X130020466Y-100257234D01*
X130176230Y-100361312D01*
X130308688Y-100493770D01*
X130412766Y-100649534D01*
X130484454Y-100822604D01*
X130521000Y-101006333D01*
X130521000Y-101193667D01*
X130484454Y-101377396D01*
X130412766Y-101550466D01*
X130308688Y-101706230D01*
X130176230Y-101838688D01*
X130020466Y-101942766D01*
X129847396Y-102014454D01*
X129663667Y-102051000D01*
X129476333Y-102051000D01*
X129292604Y-102014454D01*
X129119534Y-101942766D01*
X128963770Y-101838688D01*
X128831312Y-101706230D01*
X128727234Y-101550466D01*
X128655546Y-101377396D01*
X128619000Y-101193667D01*
X128619000Y-101006333D01*
X128655546Y-100822604D01*
X128727234Y-100649534D01*
X128831312Y-100493770D01*
X128963770Y-100361312D01*
X129119534Y-100257234D01*
X129292604Y-100185546D01*
X129476333Y-100149000D01*
X129663667Y-100149000D01*
X129847396Y-100185546D01*
X129847396Y-100185546D01*
G37*
G36*
X164655734Y-98343232D02*
X164865202Y-98429996D01*
X165053723Y-98555962D01*
X165214038Y-98716277D01*
X165340004Y-98904798D01*
X165426768Y-99114266D01*
X165471000Y-99336635D01*
X165471000Y-99563365D01*
X165426768Y-99785734D01*
X165340004Y-99995202D01*
X165214038Y-100183723D01*
X165053723Y-100344038D01*
X164865202Y-100470004D01*
X164655734Y-100556768D01*
X164433365Y-100601000D01*
X164206635Y-100601000D01*
X163984266Y-100556768D01*
X163774798Y-100470004D01*
X163586277Y-100344038D01*
X163425962Y-100183723D01*
X163299996Y-99995202D01*
X163213232Y-99785734D01*
X163169000Y-99563365D01*
X163169000Y-99336635D01*
X163213232Y-99114266D01*
X163299996Y-98904798D01*
X163425962Y-98716277D01*
X163586277Y-98555962D01*
X163774798Y-98429996D01*
X163984266Y-98343232D01*
X164206635Y-98299000D01*
X164433365Y-98299000D01*
X164655734Y-98343232D01*
X164655734Y-98343232D01*
G37*
G36*
X129847396Y-97645546D02*
X130020466Y-97717234D01*
X130176230Y-97821312D01*
X130308688Y-97953770D01*
X130412766Y-98109534D01*
X130484454Y-98282604D01*
X130521000Y-98466333D01*
X130521000Y-98653667D01*
X130484454Y-98837396D01*
X130412766Y-99010466D01*
X130308688Y-99166230D01*
X130176230Y-99298688D01*
X130020466Y-99402766D01*
X129847396Y-99474454D01*
X129663667Y-99511000D01*
X129476333Y-99511000D01*
X129292604Y-99474454D01*
X129119534Y-99402766D01*
X128963770Y-99298688D01*
X128831312Y-99166230D01*
X128727234Y-99010466D01*
X128655546Y-98837396D01*
X128619000Y-98653667D01*
X128619000Y-98466333D01*
X128655546Y-98282604D01*
X128727234Y-98109534D01*
X128831312Y-97953770D01*
X128963770Y-97821312D01*
X129119534Y-97717234D01*
X129292604Y-97645546D01*
X129476333Y-97609000D01*
X129663667Y-97609000D01*
X129847396Y-97645546D01*
X129847396Y-97645546D01*
G37*
G36*
X127307396Y-97645546D02*
X127480466Y-97717234D01*
X127636230Y-97821312D01*
X127768688Y-97953770D01*
X127872766Y-98109534D01*
X127944454Y-98282604D01*
X127981000Y-98466333D01*
X127981000Y-98653667D01*
X127944454Y-98837396D01*
X127872766Y-99010466D01*
X127768688Y-99166230D01*
X127636230Y-99298688D01*
X127480466Y-99402766D01*
X127307396Y-99474454D01*
X127123667Y-99511000D01*
X126936333Y-99511000D01*
X126752604Y-99474454D01*
X126579534Y-99402766D01*
X126423770Y-99298688D01*
X126291312Y-99166230D01*
X126187234Y-99010466D01*
X126115546Y-98837396D01*
X126079000Y-98653667D01*
X126079000Y-98466333D01*
X126115546Y-98282604D01*
X126187234Y-98109534D01*
X126291312Y-97953770D01*
X126423770Y-97821312D01*
X126579534Y-97717234D01*
X126752604Y-97645546D01*
X126936333Y-97609000D01*
X127123667Y-97609000D01*
X127307396Y-97645546D01*
X127307396Y-97645546D01*
G37*
G36*
X148659999Y-96908825D02*
X148669611Y-96911741D01*
X148678469Y-96916476D01*
X148686237Y-96922851D01*
X148696446Y-96935290D01*
X148703372Y-96945656D01*
X148720698Y-96962983D01*
X148741073Y-96976598D01*
X148763711Y-96985976D01*
X148787745Y-96990757D01*
X148812249Y-96990757D01*
X148836283Y-96985977D01*
X148858922Y-96976601D01*
X148879297Y-96962987D01*
X148896624Y-96945661D01*
X148903552Y-96935292D01*
X148913763Y-96922851D01*
X148921531Y-96916476D01*
X148930389Y-96911741D01*
X148940001Y-96908825D01*
X148956140Y-96907236D01*
X149443860Y-96907236D01*
X149462198Y-96909042D01*
X149474450Y-96909644D01*
X149492869Y-96909644D01*
X149515149Y-96911838D01*
X149599236Y-96928564D01*
X149620655Y-96935062D01*
X149699871Y-96967873D01*
X149719607Y-96978423D01*
X149790897Y-97026057D01*
X149808208Y-97040264D01*
X149868824Y-97100880D01*
X149883031Y-97118191D01*
X149930665Y-97189481D01*
X149941215Y-97209217D01*
X149974026Y-97288433D01*
X149980524Y-97309852D01*
X149997250Y-97393939D01*
X149999444Y-97416219D01*
X149999444Y-97434638D01*
X150000046Y-97446890D01*
X150001852Y-97465228D01*
X150001852Y-97952949D01*
X150000046Y-97971286D01*
X149999444Y-97983538D01*
X149999444Y-98001957D01*
X149997250Y-98024237D01*
X149980524Y-98108324D01*
X149974026Y-98129743D01*
X149941215Y-98208959D01*
X149930665Y-98228695D01*
X149883031Y-98299985D01*
X149868824Y-98317296D01*
X149808208Y-98377912D01*
X149790897Y-98392119D01*
X149719607Y-98439753D01*
X149699871Y-98450303D01*
X149620655Y-98483114D01*
X149599236Y-98489612D01*
X149515149Y-98506338D01*
X149492869Y-98508532D01*
X149474450Y-98508532D01*
X149462198Y-98509134D01*
X149443861Y-98510940D01*
X148956140Y-98510940D01*
X148940001Y-98509351D01*
X148930389Y-98506435D01*
X148921531Y-98501700D01*
X148913763Y-98495325D01*
X148903554Y-98482886D01*
X148896628Y-98472520D01*
X148879302Y-98455193D01*
X148858927Y-98441578D01*
X148836289Y-98432200D01*
X148812255Y-98427419D01*
X148787751Y-98427419D01*
X148763717Y-98432199D01*
X148741078Y-98441575D01*
X148720703Y-98455189D01*
X148703376Y-98472515D01*
X148696448Y-98482884D01*
X148686237Y-98495325D01*
X148678469Y-98501700D01*
X148669611Y-98506435D01*
X148659999Y-98509351D01*
X148643860Y-98510940D01*
X148156139Y-98510940D01*
X148137802Y-98509134D01*
X148125550Y-98508532D01*
X148107131Y-98508532D01*
X148084851Y-98506338D01*
X148000764Y-98489612D01*
X147979345Y-98483114D01*
X147900129Y-98450303D01*
X147880393Y-98439753D01*
X147809103Y-98392119D01*
X147791792Y-98377912D01*
X147731176Y-98317296D01*
X147716969Y-98299985D01*
X147669335Y-98228695D01*
X147658785Y-98208959D01*
X147625974Y-98129743D01*
X147619476Y-98108324D01*
X147602750Y-98024237D01*
X147600556Y-98001957D01*
X147600556Y-97983538D01*
X147599954Y-97971286D01*
X147598148Y-97952949D01*
X147598148Y-97465228D01*
X147599954Y-97446890D01*
X147600556Y-97434638D01*
X147600556Y-97416219D01*
X147602750Y-97393939D01*
X147619476Y-97309852D01*
X147625974Y-97288433D01*
X147658785Y-97209217D01*
X147669335Y-97189481D01*
X147716969Y-97118191D01*
X147731176Y-97100880D01*
X147791792Y-97040264D01*
X147809103Y-97026057D01*
X147880393Y-96978423D01*
X147900129Y-96967873D01*
X147979345Y-96935062D01*
X148000764Y-96928564D01*
X148084851Y-96911838D01*
X148107131Y-96909644D01*
X148125550Y-96909644D01*
X148137802Y-96909042D01*
X148156140Y-96907236D01*
X148643860Y-96907236D01*
X148659999Y-96908825D01*
X148659999Y-96908825D01*
G37*
G36*
X159655734Y-95843232D02*
X159865202Y-95929996D01*
X160053723Y-96055962D01*
X160214038Y-96216277D01*
X160340004Y-96404798D01*
X160426768Y-96614266D01*
X160471000Y-96836635D01*
X160471000Y-97063365D01*
X160426768Y-97285734D01*
X160340004Y-97495202D01*
X160214038Y-97683723D01*
X160053723Y-97844038D01*
X159865202Y-97970004D01*
X159655734Y-98056768D01*
X159433365Y-98101000D01*
X159206635Y-98101000D01*
X158984266Y-98056768D01*
X158774798Y-97970004D01*
X158586277Y-97844038D01*
X158425962Y-97683723D01*
X158299996Y-97495202D01*
X158213232Y-97285734D01*
X158169000Y-97063365D01*
X158169000Y-96836635D01*
X158213232Y-96614266D01*
X158299996Y-96404798D01*
X158425962Y-96216277D01*
X158586277Y-96055962D01*
X158774798Y-95929996D01*
X158984266Y-95843232D01*
X159206635Y-95799000D01*
X159433365Y-95799000D01*
X159655734Y-95843232D01*
X159655734Y-95843232D01*
G37*
G36*
X129847396Y-95105546D02*
X130020466Y-95177234D01*
X130176230Y-95281312D01*
X130308688Y-95413770D01*
X130412766Y-95569534D01*
X130484454Y-95742604D01*
X130521000Y-95926333D01*
X130521000Y-96113667D01*
X130484454Y-96297396D01*
X130412766Y-96470466D01*
X130308688Y-96626230D01*
X130176230Y-96758688D01*
X130020466Y-96862766D01*
X129847396Y-96934454D01*
X129663667Y-96971000D01*
X129476333Y-96971000D01*
X129292604Y-96934454D01*
X129119534Y-96862766D01*
X128963770Y-96758688D01*
X128831312Y-96626230D01*
X128727234Y-96470466D01*
X128655546Y-96297396D01*
X128619000Y-96113667D01*
X128619000Y-95926333D01*
X128655546Y-95742604D01*
X128727234Y-95569534D01*
X128831312Y-95413770D01*
X128963770Y-95281312D01*
X129119534Y-95177234D01*
X129292604Y-95105546D01*
X129476333Y-95069000D01*
X129663667Y-95069000D01*
X129847396Y-95105546D01*
X129847396Y-95105546D01*
G37*
G36*
X127307396Y-95105546D02*
X127480466Y-95177234D01*
X127636230Y-95281312D01*
X127768688Y-95413770D01*
X127872766Y-95569534D01*
X127944454Y-95742604D01*
X127981000Y-95926333D01*
X127981000Y-96113667D01*
X127944454Y-96297396D01*
X127872766Y-96470466D01*
X127768688Y-96626230D01*
X127636230Y-96758688D01*
X127480466Y-96862766D01*
X127307396Y-96934454D01*
X127123667Y-96971000D01*
X126936333Y-96971000D01*
X126752604Y-96934454D01*
X126579534Y-96862766D01*
X126423770Y-96758688D01*
X126291312Y-96626230D01*
X126187234Y-96470466D01*
X126115546Y-96297396D01*
X126079000Y-96113667D01*
X126079000Y-95926333D01*
X126115546Y-95742604D01*
X126187234Y-95569534D01*
X126291312Y-95413770D01*
X126423770Y-95281312D01*
X126579534Y-95177234D01*
X126752604Y-95105546D01*
X126936333Y-95069000D01*
X127123667Y-95069000D01*
X127307396Y-95105546D01*
X127307396Y-95105546D01*
G37*
G36*
X164655734Y-93343232D02*
X164865202Y-93429996D01*
X165053723Y-93555962D01*
X165214038Y-93716277D01*
X165340004Y-93904798D01*
X165426768Y-94114266D01*
X165471000Y-94336635D01*
X165471000Y-94563365D01*
X165426768Y-94785734D01*
X165340004Y-94995202D01*
X165214038Y-95183723D01*
X165053723Y-95344038D01*
X164865202Y-95470004D01*
X164655734Y-95556768D01*
X164433365Y-95601000D01*
X164206635Y-95601000D01*
X163984266Y-95556768D01*
X163774798Y-95470004D01*
X163586277Y-95344038D01*
X163425962Y-95183723D01*
X163299996Y-94995202D01*
X163213232Y-94785734D01*
X163169000Y-94563365D01*
X163169000Y-94336635D01*
X163213232Y-94114266D01*
X163299996Y-93904798D01*
X163425962Y-93716277D01*
X163586277Y-93555962D01*
X163774798Y-93429996D01*
X163984266Y-93343232D01*
X164206635Y-93299000D01*
X164433365Y-93299000D01*
X164655734Y-93343232D01*
X164655734Y-93343232D01*
G37*
G36*
X129847396Y-92565546D02*
X130020466Y-92637234D01*
X130176230Y-92741312D01*
X130308688Y-92873770D01*
X130412766Y-93029534D01*
X130484454Y-93202604D01*
X130521000Y-93386333D01*
X130521000Y-93573667D01*
X130484454Y-93757396D01*
X130412766Y-93930466D01*
X130308688Y-94086230D01*
X130176230Y-94218688D01*
X130020466Y-94322766D01*
X129847396Y-94394454D01*
X129663667Y-94431000D01*
X129476333Y-94431000D01*
X129292604Y-94394454D01*
X129119534Y-94322766D01*
X128963770Y-94218688D01*
X128831312Y-94086230D01*
X128727234Y-93930466D01*
X128655546Y-93757396D01*
X128619000Y-93573667D01*
X128619000Y-93386333D01*
X128655546Y-93202604D01*
X128727234Y-93029534D01*
X128831312Y-92873770D01*
X128963770Y-92741312D01*
X129119534Y-92637234D01*
X129292604Y-92565546D01*
X129476333Y-92529000D01*
X129663667Y-92529000D01*
X129847396Y-92565546D01*
X129847396Y-92565546D01*
G37*
G36*
X127307396Y-92565546D02*
X127480466Y-92637234D01*
X127636230Y-92741312D01*
X127768688Y-92873770D01*
X127872766Y-93029534D01*
X127944454Y-93202604D01*
X127981000Y-93386333D01*
X127981000Y-93573667D01*
X127944454Y-93757396D01*
X127872766Y-93930466D01*
X127768688Y-94086230D01*
X127636230Y-94218688D01*
X127480466Y-94322766D01*
X127307396Y-94394454D01*
X127123667Y-94431000D01*
X126936333Y-94431000D01*
X126752604Y-94394454D01*
X126579534Y-94322766D01*
X126423770Y-94218688D01*
X126291312Y-94086230D01*
X126187234Y-93930466D01*
X126115546Y-93757396D01*
X126079000Y-93573667D01*
X126079000Y-93386333D01*
X126115546Y-93202604D01*
X126187234Y-93029534D01*
X126291312Y-92873770D01*
X126423770Y-92741312D01*
X126579534Y-92637234D01*
X126752604Y-92565546D01*
X126936333Y-92529000D01*
X127123667Y-92529000D01*
X127307396Y-92565546D01*
X127307396Y-92565546D01*
G37*
G36*
X127307396Y-90025546D02*
X127480466Y-90097234D01*
X127636230Y-90201312D01*
X127768688Y-90333770D01*
X127872766Y-90489534D01*
X127944454Y-90662604D01*
X127981000Y-90846333D01*
X127981000Y-91033667D01*
X127944454Y-91217396D01*
X127872766Y-91390466D01*
X127768688Y-91546230D01*
X127636230Y-91678688D01*
X127480466Y-91782766D01*
X127307396Y-91854454D01*
X127123667Y-91891000D01*
X126936333Y-91891000D01*
X126752604Y-91854454D01*
X126579534Y-91782766D01*
X126423770Y-91678688D01*
X126291312Y-91546230D01*
X126187234Y-91390466D01*
X126115546Y-91217396D01*
X126079000Y-91033667D01*
X126079000Y-90846333D01*
X126115546Y-90662604D01*
X126187234Y-90489534D01*
X126291312Y-90333770D01*
X126423770Y-90201312D01*
X126579534Y-90097234D01*
X126752604Y-90025546D01*
X126936333Y-89989000D01*
X127123667Y-89989000D01*
X127307396Y-90025546D01*
X127307396Y-90025546D01*
G37*
G36*
X129847396Y-90025546D02*
X130020466Y-90097234D01*
X130176230Y-90201312D01*
X130308688Y-90333770D01*
X130412766Y-90489534D01*
X130484454Y-90662604D01*
X130521000Y-90846333D01*
X130521000Y-91033667D01*
X130484454Y-91217396D01*
X130412766Y-91390466D01*
X130308688Y-91546230D01*
X130176230Y-91678688D01*
X130020466Y-91782766D01*
X129847396Y-91854454D01*
X129663667Y-91891000D01*
X129476333Y-91891000D01*
X129292604Y-91854454D01*
X129119534Y-91782766D01*
X128963770Y-91678688D01*
X128831312Y-91546230D01*
X128727234Y-91390466D01*
X128655546Y-91217396D01*
X128619000Y-91033667D01*
X128619000Y-90846333D01*
X128655546Y-90662604D01*
X128727234Y-90489534D01*
X128831312Y-90333770D01*
X128963770Y-90201312D01*
X129119534Y-90097234D01*
X129292604Y-90025546D01*
X129476333Y-89989000D01*
X129663667Y-89989000D01*
X129847396Y-90025546D01*
X129847396Y-90025546D01*
G37*
G36*
X148659999Y-88845189D02*
X148669611Y-88848105D01*
X148678469Y-88852840D01*
X148686237Y-88859215D01*
X148696446Y-88871654D01*
X148703372Y-88882020D01*
X148720698Y-88899347D01*
X148741073Y-88912962D01*
X148763711Y-88922340D01*
X148787745Y-88927121D01*
X148812249Y-88927121D01*
X148836283Y-88922341D01*
X148858922Y-88912965D01*
X148879297Y-88899351D01*
X148896624Y-88882025D01*
X148903552Y-88871656D01*
X148913763Y-88859215D01*
X148921531Y-88852840D01*
X148930389Y-88848105D01*
X148940001Y-88845189D01*
X148956140Y-88843600D01*
X149443860Y-88843600D01*
X149462198Y-88845406D01*
X149474450Y-88846008D01*
X149492869Y-88846008D01*
X149515149Y-88848202D01*
X149599236Y-88864928D01*
X149620655Y-88871426D01*
X149699871Y-88904237D01*
X149719607Y-88914787D01*
X149790897Y-88962421D01*
X149808208Y-88976628D01*
X149868824Y-89037244D01*
X149883031Y-89054555D01*
X149930665Y-89125845D01*
X149941215Y-89145581D01*
X149974026Y-89224797D01*
X149980524Y-89246216D01*
X149997250Y-89330303D01*
X149999444Y-89352583D01*
X149999444Y-89371002D01*
X150000046Y-89383254D01*
X150001852Y-89401592D01*
X150001852Y-89889313D01*
X150000046Y-89907650D01*
X149999444Y-89919902D01*
X149999444Y-89938321D01*
X149997250Y-89960601D01*
X149980524Y-90044688D01*
X149974026Y-90066107D01*
X149941215Y-90145323D01*
X149930665Y-90165059D01*
X149883031Y-90236349D01*
X149868824Y-90253660D01*
X149808208Y-90314276D01*
X149790897Y-90328483D01*
X149719607Y-90376117D01*
X149699871Y-90386667D01*
X149620655Y-90419478D01*
X149599236Y-90425976D01*
X149515149Y-90442702D01*
X149492869Y-90444896D01*
X149474450Y-90444896D01*
X149462198Y-90445498D01*
X149443861Y-90447304D01*
X148956140Y-90447304D01*
X148940001Y-90445715D01*
X148930389Y-90442799D01*
X148921531Y-90438064D01*
X148913763Y-90431689D01*
X148903554Y-90419250D01*
X148896628Y-90408884D01*
X148879302Y-90391557D01*
X148858927Y-90377942D01*
X148836289Y-90368564D01*
X148812255Y-90363783D01*
X148787751Y-90363783D01*
X148763717Y-90368563D01*
X148741078Y-90377939D01*
X148720703Y-90391553D01*
X148703376Y-90408879D01*
X148696448Y-90419248D01*
X148686237Y-90431689D01*
X148678469Y-90438064D01*
X148669611Y-90442799D01*
X148659999Y-90445715D01*
X148643860Y-90447304D01*
X148156139Y-90447304D01*
X148137802Y-90445498D01*
X148125550Y-90444896D01*
X148107131Y-90444896D01*
X148084851Y-90442702D01*
X148000764Y-90425976D01*
X147979345Y-90419478D01*
X147900129Y-90386667D01*
X147880393Y-90376117D01*
X147809103Y-90328483D01*
X147791792Y-90314276D01*
X147731176Y-90253660D01*
X147716969Y-90236349D01*
X147669335Y-90165059D01*
X147658785Y-90145323D01*
X147625974Y-90066107D01*
X147619476Y-90044688D01*
X147602750Y-89960601D01*
X147600556Y-89938321D01*
X147600556Y-89919902D01*
X147599954Y-89907650D01*
X147598148Y-89889313D01*
X147598148Y-89401592D01*
X147599954Y-89383254D01*
X147600556Y-89371002D01*
X147600556Y-89352583D01*
X147602750Y-89330303D01*
X147619476Y-89246216D01*
X147625974Y-89224797D01*
X147658785Y-89145581D01*
X147669335Y-89125845D01*
X147716969Y-89054555D01*
X147731176Y-89037244D01*
X147791792Y-88976628D01*
X147809103Y-88962421D01*
X147880393Y-88914787D01*
X147900129Y-88904237D01*
X147979345Y-88871426D01*
X148000764Y-88864928D01*
X148084851Y-88848202D01*
X148107131Y-88846008D01*
X148125550Y-88846008D01*
X148137802Y-88845406D01*
X148156140Y-88843600D01*
X148643860Y-88843600D01*
X148659999Y-88845189D01*
X148659999Y-88845189D01*
G37*
G36*
X159705734Y-87393232D02*
X159915202Y-87479996D01*
X160103723Y-87605962D01*
X160264038Y-87766277D01*
X160390004Y-87954798D01*
X160476768Y-88164266D01*
X160521000Y-88386635D01*
X160521000Y-88613365D01*
X160476768Y-88835734D01*
X160390004Y-89045202D01*
X160264038Y-89233723D01*
X160103723Y-89394038D01*
X159915202Y-89520004D01*
X159705734Y-89606768D01*
X159483365Y-89651000D01*
X159256635Y-89651000D01*
X159034266Y-89606768D01*
X158824798Y-89520004D01*
X158636277Y-89394038D01*
X158475962Y-89233723D01*
X158349996Y-89045202D01*
X158263232Y-88835734D01*
X158219000Y-88613365D01*
X158219000Y-88386635D01*
X158263232Y-88164266D01*
X158349996Y-87954798D01*
X158475962Y-87766277D01*
X158636277Y-87605962D01*
X158824798Y-87479996D01*
X159034266Y-87393232D01*
X159256635Y-87349000D01*
X159483365Y-87349000D01*
X159705734Y-87393232D01*
X159705734Y-87393232D01*
G37*
G36*
X127307396Y-87485546D02*
X127480466Y-87557234D01*
X127636230Y-87661312D01*
X127768688Y-87793770D01*
X127872766Y-87949534D01*
X127944454Y-88122604D01*
X127981000Y-88306333D01*
X127981000Y-88493667D01*
X127944454Y-88677396D01*
X127872766Y-88850466D01*
X127768688Y-89006230D01*
X127636230Y-89138688D01*
X127480466Y-89242766D01*
X127307396Y-89314454D01*
X127123667Y-89351000D01*
X126936333Y-89351000D01*
X126752604Y-89314454D01*
X126579534Y-89242766D01*
X126423770Y-89138688D01*
X126291312Y-89006230D01*
X126187234Y-88850466D01*
X126115546Y-88677396D01*
X126079000Y-88493667D01*
X126079000Y-88306333D01*
X126115546Y-88122604D01*
X126187234Y-87949534D01*
X126291312Y-87793770D01*
X126423770Y-87661312D01*
X126579534Y-87557234D01*
X126752604Y-87485546D01*
X126936333Y-87449000D01*
X127123667Y-87449000D01*
X127307396Y-87485546D01*
X127307396Y-87485546D01*
G37*
G36*
X129847396Y-87485546D02*
X130020466Y-87557234D01*
X130176230Y-87661312D01*
X130308688Y-87793770D01*
X130412766Y-87949534D01*
X130484454Y-88122604D01*
X130521000Y-88306333D01*
X130521000Y-88493667D01*
X130484454Y-88677396D01*
X130412766Y-88850466D01*
X130308688Y-89006230D01*
X130176230Y-89138688D01*
X130020466Y-89242766D01*
X129847396Y-89314454D01*
X129663667Y-89351000D01*
X129476333Y-89351000D01*
X129292604Y-89314454D01*
X129119534Y-89242766D01*
X128963770Y-89138688D01*
X128831312Y-89006230D01*
X128727234Y-88850466D01*
X128655546Y-88677396D01*
X128619000Y-88493667D01*
X128619000Y-88306333D01*
X128655546Y-88122604D01*
X128727234Y-87949534D01*
X128831312Y-87793770D01*
X128963770Y-87661312D01*
X129119534Y-87557234D01*
X129292604Y-87485546D01*
X129476333Y-87449000D01*
X129663667Y-87449000D01*
X129847396Y-87485546D01*
X129847396Y-87485546D01*
G37*
G36*
X164705734Y-84893232D02*
X164915202Y-84979996D01*
X165103723Y-85105962D01*
X165264038Y-85266277D01*
X165390004Y-85454798D01*
X165476768Y-85664266D01*
X165521000Y-85886635D01*
X165521000Y-86113365D01*
X165476768Y-86335734D01*
X165390004Y-86545202D01*
X165264038Y-86733723D01*
X165103723Y-86894038D01*
X164915202Y-87020004D01*
X164705734Y-87106768D01*
X164483365Y-87151000D01*
X164256635Y-87151000D01*
X164034266Y-87106768D01*
X163824798Y-87020004D01*
X163636277Y-86894038D01*
X163475962Y-86733723D01*
X163349996Y-86545202D01*
X163263232Y-86335734D01*
X163219000Y-86113365D01*
X163219000Y-85886635D01*
X163263232Y-85664266D01*
X163349996Y-85454798D01*
X163475962Y-85266277D01*
X163636277Y-85105962D01*
X163824798Y-84979996D01*
X164034266Y-84893232D01*
X164256635Y-84849000D01*
X164483365Y-84849000D01*
X164705734Y-84893232D01*
X164705734Y-84893232D01*
G37*
G36*
X129847396Y-84945546D02*
X130020466Y-85017234D01*
X130176230Y-85121312D01*
X130308688Y-85253770D01*
X130412766Y-85409534D01*
X130484454Y-85582604D01*
X130521000Y-85766333D01*
X130521000Y-85953667D01*
X130484454Y-86137396D01*
X130412766Y-86310466D01*
X130308688Y-86466230D01*
X130176230Y-86598688D01*
X130020466Y-86702766D01*
X129847396Y-86774454D01*
X129663667Y-86811000D01*
X129476333Y-86811000D01*
X129292604Y-86774454D01*
X129119534Y-86702766D01*
X128963770Y-86598688D01*
X128831312Y-86466230D01*
X128727234Y-86310466D01*
X128655546Y-86137396D01*
X128619000Y-85953667D01*
X128619000Y-85766333D01*
X128655546Y-85582604D01*
X128727234Y-85409534D01*
X128831312Y-85253770D01*
X128963770Y-85121312D01*
X129119534Y-85017234D01*
X129292604Y-84945546D01*
X129476333Y-84909000D01*
X129663667Y-84909000D01*
X129847396Y-84945546D01*
X129847396Y-84945546D01*
G37*
G36*
X127307396Y-84945546D02*
X127480466Y-85017234D01*
X127636230Y-85121312D01*
X127768688Y-85253770D01*
X127872766Y-85409534D01*
X127944454Y-85582604D01*
X127981000Y-85766333D01*
X127981000Y-85953667D01*
X127944454Y-86137396D01*
X127872766Y-86310466D01*
X127768688Y-86466230D01*
X127636230Y-86598688D01*
X127480466Y-86702766D01*
X127307396Y-86774454D01*
X127123667Y-86811000D01*
X126936333Y-86811000D01*
X126752604Y-86774454D01*
X126579534Y-86702766D01*
X126423770Y-86598688D01*
X126291312Y-86466230D01*
X126187234Y-86310466D01*
X126115546Y-86137396D01*
X126079000Y-85953667D01*
X126079000Y-85766333D01*
X126115546Y-85582604D01*
X126187234Y-85409534D01*
X126291312Y-85253770D01*
X126423770Y-85121312D01*
X126579534Y-85017234D01*
X126752604Y-84945546D01*
X126936333Y-84909000D01*
X127123667Y-84909000D01*
X127307396Y-84945546D01*
X127307396Y-84945546D01*
G37*
G36*
X129847396Y-82405546D02*
X130020466Y-82477234D01*
X130176230Y-82581312D01*
X130308688Y-82713770D01*
X130412766Y-82869534D01*
X130484454Y-83042604D01*
X130521000Y-83226333D01*
X130521000Y-83413667D01*
X130484454Y-83597396D01*
X130412766Y-83770466D01*
X130308688Y-83926230D01*
X130176230Y-84058688D01*
X130020466Y-84162766D01*
X129847396Y-84234454D01*
X129663667Y-84271000D01*
X129476333Y-84271000D01*
X129292604Y-84234454D01*
X129119534Y-84162766D01*
X128963770Y-84058688D01*
X128831312Y-83926230D01*
X128727234Y-83770466D01*
X128655546Y-83597396D01*
X128619000Y-83413667D01*
X128619000Y-83226333D01*
X128655546Y-83042604D01*
X128727234Y-82869534D01*
X128831312Y-82713770D01*
X128963770Y-82581312D01*
X129119534Y-82477234D01*
X129292604Y-82405546D01*
X129476333Y-82369000D01*
X129663667Y-82369000D01*
X129847396Y-82405546D01*
X129847396Y-82405546D01*
G37*
G36*
X127307396Y-82405546D02*
X127480466Y-82477234D01*
X127636230Y-82581312D01*
X127768688Y-82713770D01*
X127872766Y-82869534D01*
X127944454Y-83042604D01*
X127981000Y-83226333D01*
X127981000Y-83413667D01*
X127944454Y-83597396D01*
X127872766Y-83770466D01*
X127768688Y-83926230D01*
X127636230Y-84058688D01*
X127480466Y-84162766D01*
X127307396Y-84234454D01*
X127123667Y-84271000D01*
X126936333Y-84271000D01*
X126752604Y-84234454D01*
X126579534Y-84162766D01*
X126423770Y-84058688D01*
X126291312Y-83926230D01*
X126187234Y-83770466D01*
X126115546Y-83597396D01*
X126079000Y-83413667D01*
X126079000Y-83226333D01*
X126115546Y-83042604D01*
X126187234Y-82869534D01*
X126291312Y-82713770D01*
X126423770Y-82581312D01*
X126579534Y-82477234D01*
X126752604Y-82405546D01*
X126936333Y-82369000D01*
X127123667Y-82369000D01*
X127307396Y-82405546D01*
X127307396Y-82405546D01*
G37*
G36*
X148659999Y-80781553D02*
X148669611Y-80784469D01*
X148678469Y-80789204D01*
X148686237Y-80795579D01*
X148696446Y-80808018D01*
X148703372Y-80818384D01*
X148720698Y-80835711D01*
X148741073Y-80849326D01*
X148763711Y-80858704D01*
X148787745Y-80863485D01*
X148812249Y-80863485D01*
X148836283Y-80858705D01*
X148858922Y-80849329D01*
X148879297Y-80835715D01*
X148896624Y-80818389D01*
X148903552Y-80808020D01*
X148913763Y-80795579D01*
X148921531Y-80789204D01*
X148930389Y-80784469D01*
X148940001Y-80781553D01*
X148956140Y-80779964D01*
X149443860Y-80779964D01*
X149462198Y-80781770D01*
X149474450Y-80782372D01*
X149492869Y-80782372D01*
X149515149Y-80784566D01*
X149599236Y-80801292D01*
X149620655Y-80807790D01*
X149699871Y-80840601D01*
X149719607Y-80851151D01*
X149790897Y-80898785D01*
X149808208Y-80912992D01*
X149868824Y-80973608D01*
X149883031Y-80990919D01*
X149930665Y-81062209D01*
X149941215Y-81081945D01*
X149974026Y-81161161D01*
X149980524Y-81182580D01*
X149997250Y-81266667D01*
X149999444Y-81288947D01*
X149999444Y-81307366D01*
X150000046Y-81319618D01*
X150001852Y-81337956D01*
X150001852Y-81825677D01*
X150000046Y-81844014D01*
X149999444Y-81856266D01*
X149999444Y-81874685D01*
X149997250Y-81896965D01*
X149980524Y-81981052D01*
X149974026Y-82002471D01*
X149941215Y-82081687D01*
X149930665Y-82101423D01*
X149883031Y-82172713D01*
X149868824Y-82190024D01*
X149808208Y-82250640D01*
X149790897Y-82264847D01*
X149719607Y-82312481D01*
X149699871Y-82323031D01*
X149620655Y-82355842D01*
X149599236Y-82362340D01*
X149515149Y-82379066D01*
X149492869Y-82381260D01*
X149474450Y-82381260D01*
X149462198Y-82381862D01*
X149443861Y-82383668D01*
X148956140Y-82383668D01*
X148940001Y-82382079D01*
X148930389Y-82379163D01*
X148921531Y-82374428D01*
X148913763Y-82368053D01*
X148903554Y-82355614D01*
X148896628Y-82345248D01*
X148879302Y-82327921D01*
X148858927Y-82314306D01*
X148836289Y-82304928D01*
X148812255Y-82300147D01*
X148787751Y-82300147D01*
X148763717Y-82304927D01*
X148741078Y-82314303D01*
X148720703Y-82327917D01*
X148703376Y-82345243D01*
X148696448Y-82355612D01*
X148686237Y-82368053D01*
X148678469Y-82374428D01*
X148669611Y-82379163D01*
X148659999Y-82382079D01*
X148643860Y-82383668D01*
X148156139Y-82383668D01*
X148137802Y-82381862D01*
X148125550Y-82381260D01*
X148107131Y-82381260D01*
X148084851Y-82379066D01*
X148000764Y-82362340D01*
X147979345Y-82355842D01*
X147900129Y-82323031D01*
X147880393Y-82312481D01*
X147809103Y-82264847D01*
X147791792Y-82250640D01*
X147731176Y-82190024D01*
X147716969Y-82172713D01*
X147669335Y-82101423D01*
X147658785Y-82081687D01*
X147625974Y-82002471D01*
X147619476Y-81981052D01*
X147602750Y-81896965D01*
X147600556Y-81874685D01*
X147600556Y-81856266D01*
X147599954Y-81844014D01*
X147598148Y-81825677D01*
X147598148Y-81337956D01*
X147599954Y-81319618D01*
X147600556Y-81307366D01*
X147600556Y-81288947D01*
X147602750Y-81266667D01*
X147619476Y-81182580D01*
X147625974Y-81161161D01*
X147658785Y-81081945D01*
X147669335Y-81062209D01*
X147716969Y-80990919D01*
X147731176Y-80973608D01*
X147791792Y-80912992D01*
X147809103Y-80898785D01*
X147880393Y-80851151D01*
X147900129Y-80840601D01*
X147979345Y-80807790D01*
X148000764Y-80801292D01*
X148084851Y-80784566D01*
X148107131Y-80782372D01*
X148125550Y-80782372D01*
X148137802Y-80781770D01*
X148156140Y-80779964D01*
X148643860Y-80779964D01*
X148659999Y-80781553D01*
X148659999Y-80781553D01*
G37*
G36*
X129847396Y-79865546D02*
X130020466Y-79937234D01*
X130176230Y-80041312D01*
X130308688Y-80173770D01*
X130412766Y-80329534D01*
X130484454Y-80502604D01*
X130521000Y-80686333D01*
X130521000Y-80873667D01*
X130484454Y-81057396D01*
X130412766Y-81230466D01*
X130308688Y-81386230D01*
X130176230Y-81518688D01*
X130020466Y-81622766D01*
X129847396Y-81694454D01*
X129663667Y-81731000D01*
X129476333Y-81731000D01*
X129292604Y-81694454D01*
X129119534Y-81622766D01*
X128963770Y-81518688D01*
X128831312Y-81386230D01*
X128727234Y-81230466D01*
X128655546Y-81057396D01*
X128619000Y-80873667D01*
X128619000Y-80686333D01*
X128655546Y-80502604D01*
X128727234Y-80329534D01*
X128831312Y-80173770D01*
X128963770Y-80041312D01*
X129119534Y-79937234D01*
X129292604Y-79865546D01*
X129476333Y-79829000D01*
X129663667Y-79829000D01*
X129847396Y-79865546D01*
X129847396Y-79865546D01*
G37*
G36*
X127307396Y-79865546D02*
X127480466Y-79937234D01*
X127636230Y-80041312D01*
X127768688Y-80173770D01*
X127872766Y-80329534D01*
X127944454Y-80502604D01*
X127981000Y-80686333D01*
X127981000Y-80873667D01*
X127944454Y-81057396D01*
X127872766Y-81230466D01*
X127768688Y-81386230D01*
X127636230Y-81518688D01*
X127480466Y-81622766D01*
X127307396Y-81694454D01*
X127123667Y-81731000D01*
X126936333Y-81731000D01*
X126752604Y-81694454D01*
X126579534Y-81622766D01*
X126423770Y-81518688D01*
X126291312Y-81386230D01*
X126187234Y-81230466D01*
X126115546Y-81057396D01*
X126079000Y-80873667D01*
X126079000Y-80686333D01*
X126115546Y-80502604D01*
X126187234Y-80329534D01*
X126291312Y-80173770D01*
X126423770Y-80041312D01*
X126579534Y-79937234D01*
X126752604Y-79865546D01*
X126936333Y-79829000D01*
X127123667Y-79829000D01*
X127307396Y-79865546D01*
X127307396Y-79865546D01*
G37*
G36*
X159655734Y-78843232D02*
X159865202Y-78929996D01*
X160053723Y-79055962D01*
X160214038Y-79216277D01*
X160340004Y-79404798D01*
X160426768Y-79614266D01*
X160471000Y-79836635D01*
X160471000Y-80063365D01*
X160426768Y-80285734D01*
X160340004Y-80495202D01*
X160214038Y-80683723D01*
X160053723Y-80844038D01*
X159865202Y-80970004D01*
X159655734Y-81056768D01*
X159433365Y-81101000D01*
X159206635Y-81101000D01*
X158984266Y-81056768D01*
X158774798Y-80970004D01*
X158586277Y-80844038D01*
X158425962Y-80683723D01*
X158299996Y-80495202D01*
X158213232Y-80285734D01*
X158169000Y-80063365D01*
X158169000Y-79836635D01*
X158213232Y-79614266D01*
X158299996Y-79404798D01*
X158425962Y-79216277D01*
X158586277Y-79055962D01*
X158774798Y-78929996D01*
X158984266Y-78843232D01*
X159206635Y-78799000D01*
X159433365Y-78799000D01*
X159655734Y-78843232D01*
X159655734Y-78843232D01*
G37*
G36*
X129847396Y-77325546D02*
X130020466Y-77397234D01*
X130176230Y-77501312D01*
X130308688Y-77633770D01*
X130412766Y-77789534D01*
X130484454Y-77962604D01*
X130521000Y-78146333D01*
X130521000Y-78333667D01*
X130484454Y-78517396D01*
X130412766Y-78690466D01*
X130308688Y-78846230D01*
X130176230Y-78978688D01*
X130020466Y-79082766D01*
X129847396Y-79154454D01*
X129663667Y-79191000D01*
X129476333Y-79191000D01*
X129292604Y-79154454D01*
X129119534Y-79082766D01*
X128963770Y-78978688D01*
X128831312Y-78846230D01*
X128727234Y-78690466D01*
X128655546Y-78517396D01*
X128619000Y-78333667D01*
X128619000Y-78146333D01*
X128655546Y-77962604D01*
X128727234Y-77789534D01*
X128831312Y-77633770D01*
X128963770Y-77501312D01*
X129119534Y-77397234D01*
X129292604Y-77325546D01*
X129476333Y-77289000D01*
X129663667Y-77289000D01*
X129847396Y-77325546D01*
X129847396Y-77325546D01*
G37*
G36*
X127307396Y-77325546D02*
X127480466Y-77397234D01*
X127636230Y-77501312D01*
X127768688Y-77633770D01*
X127872766Y-77789534D01*
X127944454Y-77962604D01*
X127981000Y-78146333D01*
X127981000Y-78333667D01*
X127944454Y-78517396D01*
X127872766Y-78690466D01*
X127768688Y-78846230D01*
X127636230Y-78978688D01*
X127480466Y-79082766D01*
X127307396Y-79154454D01*
X127123667Y-79191000D01*
X126936333Y-79191000D01*
X126752604Y-79154454D01*
X126579534Y-79082766D01*
X126423770Y-78978688D01*
X126291312Y-78846230D01*
X126187234Y-78690466D01*
X126115546Y-78517396D01*
X126079000Y-78333667D01*
X126079000Y-78146333D01*
X126115546Y-77962604D01*
X126187234Y-77789534D01*
X126291312Y-77633770D01*
X126423770Y-77501312D01*
X126579534Y-77397234D01*
X126752604Y-77325546D01*
X126936333Y-77289000D01*
X127123667Y-77289000D01*
X127307396Y-77325546D01*
X127307396Y-77325546D01*
G37*
G36*
X164655734Y-76343232D02*
X164865202Y-76429996D01*
X165053723Y-76555962D01*
X165214038Y-76716277D01*
X165340004Y-76904798D01*
X165426768Y-77114266D01*
X165471000Y-77336635D01*
X165471000Y-77563365D01*
X165426768Y-77785734D01*
X165340004Y-77995202D01*
X165214038Y-78183723D01*
X165053723Y-78344038D01*
X164865202Y-78470004D01*
X164655734Y-78556768D01*
X164433365Y-78601000D01*
X164206635Y-78601000D01*
X163984266Y-78556768D01*
X163774798Y-78470004D01*
X163586277Y-78344038D01*
X163425962Y-78183723D01*
X163299996Y-77995202D01*
X163213232Y-77785734D01*
X163169000Y-77563365D01*
X163169000Y-77336635D01*
X163213232Y-77114266D01*
X163299996Y-76904798D01*
X163425962Y-76716277D01*
X163586277Y-76555962D01*
X163774798Y-76429996D01*
X163984266Y-76343232D01*
X164206635Y-76299000D01*
X164433365Y-76299000D01*
X164655734Y-76343232D01*
X164655734Y-76343232D01*
G37*
G36*
X129847396Y-74785546D02*
X130020466Y-74857234D01*
X130176230Y-74961312D01*
X130308688Y-75093770D01*
X130412766Y-75249534D01*
X130484454Y-75422604D01*
X130521000Y-75606333D01*
X130521000Y-75793667D01*
X130484454Y-75977396D01*
X130412766Y-76150466D01*
X130308688Y-76306230D01*
X130176230Y-76438688D01*
X130020466Y-76542766D01*
X129847396Y-76614454D01*
X129663667Y-76651000D01*
X129476333Y-76651000D01*
X129292604Y-76614454D01*
X129119534Y-76542766D01*
X128963770Y-76438688D01*
X128831312Y-76306230D01*
X128727234Y-76150466D01*
X128655546Y-75977396D01*
X128619000Y-75793667D01*
X128619000Y-75606333D01*
X128655546Y-75422604D01*
X128727234Y-75249534D01*
X128831312Y-75093770D01*
X128963770Y-74961312D01*
X129119534Y-74857234D01*
X129292604Y-74785546D01*
X129476333Y-74749000D01*
X129663667Y-74749000D01*
X129847396Y-74785546D01*
X129847396Y-74785546D01*
G37*
G36*
X127307396Y-74785546D02*
X127480466Y-74857234D01*
X127636230Y-74961312D01*
X127768688Y-75093770D01*
X127872766Y-75249534D01*
X127944454Y-75422604D01*
X127981000Y-75606333D01*
X127981000Y-75793667D01*
X127944454Y-75977396D01*
X127872766Y-76150466D01*
X127768688Y-76306230D01*
X127636230Y-76438688D01*
X127480466Y-76542766D01*
X127307396Y-76614454D01*
X127123667Y-76651000D01*
X126936333Y-76651000D01*
X126752604Y-76614454D01*
X126579534Y-76542766D01*
X126423770Y-76438688D01*
X126291312Y-76306230D01*
X126187234Y-76150466D01*
X126115546Y-75977396D01*
X126079000Y-75793667D01*
X126079000Y-75606333D01*
X126115546Y-75422604D01*
X126187234Y-75249534D01*
X126291312Y-75093770D01*
X126423770Y-74961312D01*
X126579534Y-74857234D01*
X126752604Y-74785546D01*
X126936333Y-74749000D01*
X127123667Y-74749000D01*
X127307396Y-74785546D01*
X127307396Y-74785546D01*
G37*
G36*
X159655734Y-73843232D02*
X159865202Y-73929996D01*
X160053723Y-74055962D01*
X160214038Y-74216277D01*
X160340004Y-74404798D01*
X160426768Y-74614266D01*
X160471000Y-74836635D01*
X160471000Y-75063365D01*
X160426768Y-75285734D01*
X160340004Y-75495202D01*
X160214038Y-75683723D01*
X160053723Y-75844038D01*
X159865202Y-75970004D01*
X159655734Y-76056768D01*
X159433365Y-76101000D01*
X159206635Y-76101000D01*
X158984266Y-76056768D01*
X158774798Y-75970004D01*
X158586277Y-75844038D01*
X158425962Y-75683723D01*
X158299996Y-75495202D01*
X158213232Y-75285734D01*
X158169000Y-75063365D01*
X158169000Y-74836635D01*
X158213232Y-74614266D01*
X158299996Y-74404798D01*
X158425962Y-74216277D01*
X158586277Y-74055962D01*
X158774798Y-73929996D01*
X158984266Y-73843232D01*
X159206635Y-73799000D01*
X159433365Y-73799000D01*
X159655734Y-73843232D01*
X159655734Y-73843232D01*
G37*
G36*
X148659999Y-72717917D02*
X148669611Y-72720833D01*
X148678469Y-72725568D01*
X148686237Y-72731943D01*
X148696446Y-72744382D01*
X148703372Y-72754748D01*
X148720698Y-72772075D01*
X148741073Y-72785690D01*
X148763711Y-72795068D01*
X148787745Y-72799849D01*
X148812249Y-72799849D01*
X148836283Y-72795069D01*
X148858922Y-72785693D01*
X148879297Y-72772079D01*
X148896624Y-72754753D01*
X148903552Y-72744384D01*
X148913763Y-72731943D01*
X148921531Y-72725568D01*
X148930389Y-72720833D01*
X148940001Y-72717917D01*
X148956140Y-72716328D01*
X149443860Y-72716328D01*
X149462198Y-72718134D01*
X149474450Y-72718736D01*
X149492869Y-72718736D01*
X149515149Y-72720930D01*
X149599236Y-72737656D01*
X149620655Y-72744154D01*
X149699871Y-72776965D01*
X149719607Y-72787515D01*
X149790897Y-72835149D01*
X149808208Y-72849356D01*
X149868824Y-72909972D01*
X149883031Y-72927283D01*
X149930665Y-72998573D01*
X149941215Y-73018309D01*
X149974026Y-73097525D01*
X149980524Y-73118944D01*
X149997250Y-73203031D01*
X149999444Y-73225311D01*
X149999444Y-73243730D01*
X150000046Y-73255982D01*
X150001852Y-73274320D01*
X150001852Y-73762041D01*
X150000046Y-73780378D01*
X149999444Y-73792630D01*
X149999444Y-73811049D01*
X149997250Y-73833329D01*
X149980524Y-73917416D01*
X149974026Y-73938835D01*
X149941215Y-74018051D01*
X149930665Y-74037787D01*
X149883031Y-74109077D01*
X149868824Y-74126388D01*
X149808208Y-74187004D01*
X149790897Y-74201211D01*
X149719607Y-74248845D01*
X149699871Y-74259395D01*
X149620655Y-74292206D01*
X149599236Y-74298704D01*
X149515149Y-74315430D01*
X149492869Y-74317624D01*
X149474450Y-74317624D01*
X149462198Y-74318226D01*
X149443861Y-74320032D01*
X148956140Y-74320032D01*
X148940001Y-74318443D01*
X148930389Y-74315527D01*
X148921531Y-74310792D01*
X148913763Y-74304417D01*
X148903554Y-74291978D01*
X148896628Y-74281612D01*
X148879302Y-74264285D01*
X148858927Y-74250670D01*
X148836289Y-74241292D01*
X148812255Y-74236511D01*
X148787751Y-74236511D01*
X148763717Y-74241291D01*
X148741078Y-74250667D01*
X148720703Y-74264281D01*
X148703376Y-74281607D01*
X148696448Y-74291976D01*
X148686237Y-74304417D01*
X148678469Y-74310792D01*
X148669611Y-74315527D01*
X148659999Y-74318443D01*
X148643860Y-74320032D01*
X148156139Y-74320032D01*
X148137802Y-74318226D01*
X148125550Y-74317624D01*
X148107131Y-74317624D01*
X148084851Y-74315430D01*
X148000764Y-74298704D01*
X147979345Y-74292206D01*
X147900129Y-74259395D01*
X147880393Y-74248845D01*
X147809103Y-74201211D01*
X147791792Y-74187004D01*
X147731176Y-74126388D01*
X147716969Y-74109077D01*
X147669335Y-74037787D01*
X147658785Y-74018051D01*
X147625974Y-73938835D01*
X147619476Y-73917416D01*
X147602750Y-73833329D01*
X147600556Y-73811049D01*
X147600556Y-73792630D01*
X147599954Y-73780378D01*
X147598148Y-73762041D01*
X147598148Y-73274320D01*
X147599954Y-73255982D01*
X147600556Y-73243730D01*
X147600556Y-73225311D01*
X147602750Y-73203031D01*
X147619476Y-73118944D01*
X147625974Y-73097525D01*
X147658785Y-73018309D01*
X147669335Y-72998573D01*
X147716969Y-72927283D01*
X147731176Y-72909972D01*
X147791792Y-72849356D01*
X147809103Y-72835149D01*
X147880393Y-72787515D01*
X147900129Y-72776965D01*
X147979345Y-72744154D01*
X148000764Y-72737656D01*
X148084851Y-72720930D01*
X148107131Y-72718736D01*
X148125550Y-72718736D01*
X148137802Y-72718134D01*
X148156140Y-72716328D01*
X148643860Y-72716328D01*
X148659999Y-72717917D01*
X148659999Y-72717917D01*
G37*
G36*
X127307396Y-72245546D02*
X127480466Y-72317234D01*
X127636230Y-72421312D01*
X127768688Y-72553770D01*
X127872766Y-72709534D01*
X127944454Y-72882604D01*
X127981000Y-73066333D01*
X127981000Y-73253667D01*
X127944454Y-73437396D01*
X127872766Y-73610466D01*
X127768688Y-73766230D01*
X127636230Y-73898688D01*
X127480466Y-74002766D01*
X127307396Y-74074454D01*
X127123667Y-74111000D01*
X126936333Y-74111000D01*
X126752604Y-74074454D01*
X126579534Y-74002766D01*
X126423770Y-73898688D01*
X126291312Y-73766230D01*
X126187234Y-73610466D01*
X126115546Y-73437396D01*
X126079000Y-73253667D01*
X126079000Y-73066333D01*
X126115546Y-72882604D01*
X126187234Y-72709534D01*
X126291312Y-72553770D01*
X126423770Y-72421312D01*
X126579534Y-72317234D01*
X126752604Y-72245546D01*
X126936333Y-72209000D01*
X127123667Y-72209000D01*
X127307396Y-72245546D01*
X127307396Y-72245546D01*
G37*
G36*
X129847396Y-72245546D02*
X130020466Y-72317234D01*
X130176230Y-72421312D01*
X130308688Y-72553770D01*
X130412766Y-72709534D01*
X130484454Y-72882604D01*
X130521000Y-73066333D01*
X130521000Y-73253667D01*
X130484454Y-73437396D01*
X130412766Y-73610466D01*
X130308688Y-73766230D01*
X130176230Y-73898688D01*
X130020466Y-74002766D01*
X129847396Y-74074454D01*
X129663667Y-74111000D01*
X129476333Y-74111000D01*
X129292604Y-74074454D01*
X129119534Y-74002766D01*
X128963770Y-73898688D01*
X128831312Y-73766230D01*
X128727234Y-73610466D01*
X128655546Y-73437396D01*
X128619000Y-73253667D01*
X128619000Y-73066333D01*
X128655546Y-72882604D01*
X128727234Y-72709534D01*
X128831312Y-72553770D01*
X128963770Y-72421312D01*
X129119534Y-72317234D01*
X129292604Y-72245546D01*
X129476333Y-72209000D01*
X129663667Y-72209000D01*
X129847396Y-72245546D01*
X129847396Y-72245546D01*
G37*
G36*
X164655734Y-71343232D02*
X164865202Y-71429996D01*
X165053723Y-71555962D01*
X165214038Y-71716277D01*
X165340004Y-71904798D01*
X165426768Y-72114266D01*
X165471000Y-72336635D01*
X165471000Y-72563365D01*
X165426768Y-72785734D01*
X165340004Y-72995202D01*
X165214038Y-73183723D01*
X165053723Y-73344038D01*
X164865202Y-73470004D01*
X164655734Y-73556768D01*
X164433365Y-73601000D01*
X164206635Y-73601000D01*
X163984266Y-73556768D01*
X163774798Y-73470004D01*
X163586277Y-73344038D01*
X163425962Y-73183723D01*
X163299996Y-72995202D01*
X163213232Y-72785734D01*
X163169000Y-72563365D01*
X163169000Y-72336635D01*
X163213232Y-72114266D01*
X163299996Y-71904798D01*
X163425962Y-71716277D01*
X163586277Y-71555962D01*
X163774798Y-71429996D01*
X163984266Y-71343232D01*
X164206635Y-71299000D01*
X164433365Y-71299000D01*
X164655734Y-71343232D01*
X164655734Y-71343232D01*
G37*
G36*
X129847396Y-69705546D02*
X130020466Y-69777234D01*
X130176230Y-69881312D01*
X130308688Y-70013770D01*
X130412766Y-70169534D01*
X130484454Y-70342604D01*
X130521000Y-70526333D01*
X130521000Y-70713667D01*
X130484454Y-70897396D01*
X130412766Y-71070466D01*
X130308688Y-71226230D01*
X130176230Y-71358688D01*
X130020466Y-71462766D01*
X129847396Y-71534454D01*
X129663667Y-71571000D01*
X129476333Y-71571000D01*
X129292604Y-71534454D01*
X129119534Y-71462766D01*
X128963770Y-71358688D01*
X128831312Y-71226230D01*
X128727234Y-71070466D01*
X128655546Y-70897396D01*
X128619000Y-70713667D01*
X128619000Y-70526333D01*
X128655546Y-70342604D01*
X128727234Y-70169534D01*
X128831312Y-70013770D01*
X128963770Y-69881312D01*
X129119534Y-69777234D01*
X129292604Y-69705546D01*
X129476333Y-69669000D01*
X129663667Y-69669000D01*
X129847396Y-69705546D01*
X129847396Y-69705546D01*
G37*
G36*
X127307396Y-69705546D02*
X127480466Y-69777234D01*
X127636230Y-69881312D01*
X127768688Y-70013770D01*
X127872766Y-70169534D01*
X127944454Y-70342604D01*
X127981000Y-70526333D01*
X127981000Y-70713667D01*
X127944454Y-70897396D01*
X127872766Y-71070466D01*
X127768688Y-71226230D01*
X127636230Y-71358688D01*
X127480466Y-71462766D01*
X127307396Y-71534454D01*
X127123667Y-71571000D01*
X126936333Y-71571000D01*
X126752604Y-71534454D01*
X126579534Y-71462766D01*
X126423770Y-71358688D01*
X126291312Y-71226230D01*
X126187234Y-71070466D01*
X126115546Y-70897396D01*
X126079000Y-70713667D01*
X126079000Y-70526333D01*
X126115546Y-70342604D01*
X126187234Y-70169534D01*
X126291312Y-70013770D01*
X126423770Y-69881312D01*
X126579534Y-69777234D01*
X126752604Y-69705546D01*
X126936333Y-69669000D01*
X127123667Y-69669000D01*
X127307396Y-69705546D01*
X127307396Y-69705546D01*
G37*
G36*
X159655734Y-68843232D02*
X159865202Y-68929996D01*
X160053723Y-69055962D01*
X160214038Y-69216277D01*
X160340004Y-69404798D01*
X160426768Y-69614266D01*
X160471000Y-69836635D01*
X160471000Y-70063365D01*
X160426768Y-70285734D01*
X160340004Y-70495202D01*
X160214038Y-70683723D01*
X160053723Y-70844038D01*
X159865202Y-70970004D01*
X159655734Y-71056768D01*
X159433365Y-71101000D01*
X159206635Y-71101000D01*
X158984266Y-71056768D01*
X158774798Y-70970004D01*
X158586277Y-70844038D01*
X158425962Y-70683723D01*
X158299996Y-70495202D01*
X158213232Y-70285734D01*
X158169000Y-70063365D01*
X158169000Y-69836635D01*
X158213232Y-69614266D01*
X158299996Y-69404798D01*
X158425962Y-69216277D01*
X158586277Y-69055962D01*
X158774798Y-68929996D01*
X158984266Y-68843232D01*
X159206635Y-68799000D01*
X159433365Y-68799000D01*
X159655734Y-68843232D01*
X159655734Y-68843232D01*
G37*
G36*
X127307396Y-67165546D02*
X127480466Y-67237234D01*
X127636230Y-67341312D01*
X127768688Y-67473770D01*
X127872766Y-67629534D01*
X127944454Y-67802604D01*
X127981000Y-67986333D01*
X127981000Y-68173667D01*
X127944454Y-68357396D01*
X127872766Y-68530466D01*
X127768688Y-68686230D01*
X127636230Y-68818688D01*
X127480466Y-68922766D01*
X127307396Y-68994454D01*
X127123667Y-69031000D01*
X126936333Y-69031000D01*
X126752604Y-68994454D01*
X126579534Y-68922766D01*
X126423770Y-68818688D01*
X126291312Y-68686230D01*
X126187234Y-68530466D01*
X126115546Y-68357396D01*
X126079000Y-68173667D01*
X126079000Y-67986333D01*
X126115546Y-67802604D01*
X126187234Y-67629534D01*
X126291312Y-67473770D01*
X126423770Y-67341312D01*
X126579534Y-67237234D01*
X126752604Y-67165546D01*
X126936333Y-67129000D01*
X127123667Y-67129000D01*
X127307396Y-67165546D01*
X127307396Y-67165546D01*
G37*
G36*
X129847396Y-67165546D02*
X130020466Y-67237234D01*
X130176230Y-67341312D01*
X130308688Y-67473770D01*
X130412766Y-67629534D01*
X130484454Y-67802604D01*
X130521000Y-67986333D01*
X130521000Y-68173667D01*
X130484454Y-68357396D01*
X130412766Y-68530466D01*
X130308688Y-68686230D01*
X130176230Y-68818688D01*
X130020466Y-68922766D01*
X129847396Y-68994454D01*
X129663667Y-69031000D01*
X129476333Y-69031000D01*
X129292604Y-68994454D01*
X129119534Y-68922766D01*
X128963770Y-68818688D01*
X128831312Y-68686230D01*
X128727234Y-68530466D01*
X128655546Y-68357396D01*
X128619000Y-68173667D01*
X128619000Y-67986333D01*
X128655546Y-67802604D01*
X128727234Y-67629534D01*
X128831312Y-67473770D01*
X128963770Y-67341312D01*
X129119534Y-67237234D01*
X129292604Y-67165546D01*
X129476333Y-67129000D01*
X129663667Y-67129000D01*
X129847396Y-67165546D01*
X129847396Y-67165546D01*
G37*
G36*
X164655734Y-66343232D02*
X164865202Y-66429996D01*
X165053723Y-66555962D01*
X165214038Y-66716277D01*
X165340004Y-66904798D01*
X165426768Y-67114266D01*
X165471000Y-67336635D01*
X165471000Y-67563365D01*
X165426768Y-67785734D01*
X165340004Y-67995202D01*
X165214038Y-68183723D01*
X165053723Y-68344038D01*
X164865202Y-68470004D01*
X164655734Y-68556768D01*
X164433365Y-68601000D01*
X164206635Y-68601000D01*
X163984266Y-68556768D01*
X163774798Y-68470004D01*
X163586277Y-68344038D01*
X163425962Y-68183723D01*
X163299996Y-67995202D01*
X163213232Y-67785734D01*
X163169000Y-67563365D01*
X163169000Y-67336635D01*
X163213232Y-67114266D01*
X163299996Y-66904798D01*
X163425962Y-66716277D01*
X163586277Y-66555962D01*
X163774798Y-66429996D01*
X163984266Y-66343232D01*
X164206635Y-66299000D01*
X164433365Y-66299000D01*
X164655734Y-66343232D01*
X164655734Y-66343232D01*
G37*
G36*
X129847396Y-64625546D02*
X130020466Y-64697234D01*
X130176230Y-64801312D01*
X130308688Y-64933770D01*
X130412766Y-65089534D01*
X130484454Y-65262604D01*
X130521000Y-65446333D01*
X130521000Y-65633667D01*
X130484454Y-65817396D01*
X130412766Y-65990466D01*
X130308688Y-66146230D01*
X130176230Y-66278688D01*
X130020466Y-66382766D01*
X129847396Y-66454454D01*
X129663667Y-66491000D01*
X129476333Y-66491000D01*
X129292604Y-66454454D01*
X129119534Y-66382766D01*
X128963770Y-66278688D01*
X128831312Y-66146230D01*
X128727234Y-65990466D01*
X128655546Y-65817396D01*
X128619000Y-65633667D01*
X128619000Y-65446333D01*
X128655546Y-65262604D01*
X128727234Y-65089534D01*
X128831312Y-64933770D01*
X128963770Y-64801312D01*
X129119534Y-64697234D01*
X129292604Y-64625546D01*
X129476333Y-64589000D01*
X129663667Y-64589000D01*
X129847396Y-64625546D01*
X129847396Y-64625546D01*
G37*
G36*
X127307396Y-64625546D02*
X127480466Y-64697234D01*
X127636230Y-64801312D01*
X127768688Y-64933770D01*
X127872766Y-65089534D01*
X127944454Y-65262604D01*
X127981000Y-65446333D01*
X127981000Y-65633667D01*
X127944454Y-65817396D01*
X127872766Y-65990466D01*
X127768688Y-66146230D01*
X127636230Y-66278688D01*
X127480466Y-66382766D01*
X127307396Y-66454454D01*
X127123667Y-66491000D01*
X126936333Y-66491000D01*
X126752604Y-66454454D01*
X126579534Y-66382766D01*
X126423770Y-66278688D01*
X126291312Y-66146230D01*
X126187234Y-65990466D01*
X126115546Y-65817396D01*
X126079000Y-65633667D01*
X126079000Y-65446333D01*
X126115546Y-65262604D01*
X126187234Y-65089534D01*
X126291312Y-64933770D01*
X126423770Y-64801312D01*
X126579534Y-64697234D01*
X126752604Y-64625546D01*
X126936333Y-64589000D01*
X127123667Y-64589000D01*
X127307396Y-64625546D01*
X127307396Y-64625546D01*
G37*
G36*
X148659999Y-64654281D02*
X148669611Y-64657197D01*
X148678469Y-64661932D01*
X148686237Y-64668307D01*
X148696446Y-64680746D01*
X148703372Y-64691112D01*
X148720698Y-64708439D01*
X148741073Y-64722054D01*
X148763711Y-64731432D01*
X148787745Y-64736213D01*
X148812249Y-64736213D01*
X148836283Y-64731433D01*
X148858922Y-64722057D01*
X148879297Y-64708443D01*
X148896624Y-64691117D01*
X148903552Y-64680748D01*
X148913763Y-64668307D01*
X148921531Y-64661932D01*
X148930389Y-64657197D01*
X148940001Y-64654281D01*
X148956140Y-64652692D01*
X149443860Y-64652692D01*
X149462198Y-64654498D01*
X149474450Y-64655100D01*
X149492869Y-64655100D01*
X149515149Y-64657294D01*
X149599236Y-64674020D01*
X149620655Y-64680518D01*
X149699871Y-64713329D01*
X149719607Y-64723879D01*
X149790897Y-64771513D01*
X149808208Y-64785720D01*
X149868824Y-64846336D01*
X149883031Y-64863647D01*
X149930665Y-64934937D01*
X149941215Y-64954673D01*
X149974026Y-65033889D01*
X149980524Y-65055308D01*
X149997250Y-65139395D01*
X149999444Y-65161675D01*
X149999444Y-65180094D01*
X150000046Y-65192346D01*
X150001852Y-65210684D01*
X150001852Y-65698405D01*
X150000046Y-65716742D01*
X149999444Y-65728994D01*
X149999444Y-65747413D01*
X149997250Y-65769693D01*
X149980524Y-65853780D01*
X149974026Y-65875199D01*
X149941215Y-65954415D01*
X149930665Y-65974151D01*
X149883031Y-66045441D01*
X149868824Y-66062752D01*
X149808208Y-66123368D01*
X149790897Y-66137575D01*
X149719607Y-66185209D01*
X149699871Y-66195759D01*
X149620655Y-66228570D01*
X149599236Y-66235068D01*
X149515149Y-66251794D01*
X149492869Y-66253988D01*
X149474450Y-66253988D01*
X149462198Y-66254590D01*
X149443861Y-66256396D01*
X148956140Y-66256396D01*
X148940001Y-66254807D01*
X148930389Y-66251891D01*
X148921531Y-66247156D01*
X148913763Y-66240781D01*
X148903554Y-66228342D01*
X148896628Y-66217976D01*
X148879302Y-66200649D01*
X148858927Y-66187034D01*
X148836289Y-66177656D01*
X148812255Y-66172875D01*
X148787751Y-66172875D01*
X148763717Y-66177655D01*
X148741078Y-66187031D01*
X148720703Y-66200645D01*
X148703376Y-66217971D01*
X148696448Y-66228340D01*
X148686237Y-66240781D01*
X148678469Y-66247156D01*
X148669611Y-66251891D01*
X148659999Y-66254807D01*
X148643860Y-66256396D01*
X148156139Y-66256396D01*
X148137802Y-66254590D01*
X148125550Y-66253988D01*
X148107131Y-66253988D01*
X148084851Y-66251794D01*
X148000764Y-66235068D01*
X147979345Y-66228570D01*
X147900129Y-66195759D01*
X147880393Y-66185209D01*
X147809103Y-66137575D01*
X147791792Y-66123368D01*
X147731176Y-66062752D01*
X147716969Y-66045441D01*
X147669335Y-65974151D01*
X147658785Y-65954415D01*
X147625974Y-65875199D01*
X147619476Y-65853780D01*
X147602750Y-65769693D01*
X147600556Y-65747413D01*
X147600556Y-65728994D01*
X147599954Y-65716742D01*
X147598148Y-65698405D01*
X147598148Y-65210684D01*
X147599954Y-65192346D01*
X147600556Y-65180094D01*
X147600556Y-65161675D01*
X147602750Y-65139395D01*
X147619476Y-65055308D01*
X147625974Y-65033889D01*
X147658785Y-64954673D01*
X147669335Y-64934937D01*
X147716969Y-64863647D01*
X147731176Y-64846336D01*
X147791792Y-64785720D01*
X147809103Y-64771513D01*
X147880393Y-64723879D01*
X147900129Y-64713329D01*
X147979345Y-64680518D01*
X148000764Y-64674020D01*
X148084851Y-64657294D01*
X148107131Y-64655100D01*
X148125550Y-64655100D01*
X148137802Y-64654498D01*
X148156140Y-64652692D01*
X148643860Y-64652692D01*
X148659999Y-64654281D01*
X148659999Y-64654281D01*
G37*
G36*
X159655734Y-63843232D02*
X159865202Y-63929996D01*
X160053723Y-64055962D01*
X160214038Y-64216277D01*
X160340004Y-64404798D01*
X160426768Y-64614266D01*
X160471000Y-64836635D01*
X160471000Y-65063365D01*
X160426768Y-65285734D01*
X160340004Y-65495202D01*
X160214038Y-65683723D01*
X160053723Y-65844038D01*
X159865202Y-65970004D01*
X159655734Y-66056768D01*
X159433365Y-66101000D01*
X159206635Y-66101000D01*
X158984266Y-66056768D01*
X158774798Y-65970004D01*
X158586277Y-65844038D01*
X158425962Y-65683723D01*
X158299996Y-65495202D01*
X158213232Y-65285734D01*
X158169000Y-65063365D01*
X158169000Y-64836635D01*
X158213232Y-64614266D01*
X158299996Y-64404798D01*
X158425962Y-64216277D01*
X158586277Y-64055962D01*
X158774798Y-63929996D01*
X158984266Y-63843232D01*
X159206635Y-63799000D01*
X159433365Y-63799000D01*
X159655734Y-63843232D01*
X159655734Y-63843232D01*
G37*
G36*
X129847396Y-62085546D02*
X130020466Y-62157234D01*
X130176230Y-62261312D01*
X130308688Y-62393770D01*
X130412766Y-62549534D01*
X130484454Y-62722604D01*
X130521000Y-62906333D01*
X130521000Y-63093667D01*
X130484454Y-63277396D01*
X130412766Y-63450466D01*
X130308688Y-63606230D01*
X130176230Y-63738688D01*
X130020466Y-63842766D01*
X129847396Y-63914454D01*
X129663667Y-63951000D01*
X129476333Y-63951000D01*
X129292604Y-63914454D01*
X129119534Y-63842766D01*
X128963770Y-63738688D01*
X128831312Y-63606230D01*
X128727234Y-63450466D01*
X128655546Y-63277396D01*
X128619000Y-63093667D01*
X128619000Y-62906333D01*
X128655546Y-62722604D01*
X128727234Y-62549534D01*
X128831312Y-62393770D01*
X128963770Y-62261312D01*
X129119534Y-62157234D01*
X129292604Y-62085546D01*
X129476333Y-62049000D01*
X129663667Y-62049000D01*
X129847396Y-62085546D01*
X129847396Y-62085546D01*
G37*
G36*
X127307396Y-62085546D02*
X127480466Y-62157234D01*
X127636230Y-62261312D01*
X127768688Y-62393770D01*
X127872766Y-62549534D01*
X127944454Y-62722604D01*
X127981000Y-62906333D01*
X127981000Y-63093667D01*
X127944454Y-63277396D01*
X127872766Y-63450466D01*
X127768688Y-63606230D01*
X127636230Y-63738688D01*
X127480466Y-63842766D01*
X127307396Y-63914454D01*
X127123667Y-63951000D01*
X126936333Y-63951000D01*
X126752604Y-63914454D01*
X126579534Y-63842766D01*
X126423770Y-63738688D01*
X126291312Y-63606230D01*
X126187234Y-63450466D01*
X126115546Y-63277396D01*
X126079000Y-63093667D01*
X126079000Y-62906333D01*
X126115546Y-62722604D01*
X126187234Y-62549534D01*
X126291312Y-62393770D01*
X126423770Y-62261312D01*
X126579534Y-62157234D01*
X126752604Y-62085546D01*
X126936333Y-62049000D01*
X127123667Y-62049000D01*
X127307396Y-62085546D01*
X127307396Y-62085546D01*
G37*
G36*
X164655734Y-61343232D02*
X164865202Y-61429996D01*
X165053723Y-61555962D01*
X165214038Y-61716277D01*
X165340004Y-61904798D01*
X165426768Y-62114266D01*
X165471000Y-62336635D01*
X165471000Y-62563365D01*
X165426768Y-62785734D01*
X165340004Y-62995202D01*
X165214038Y-63183723D01*
X165053723Y-63344038D01*
X164865202Y-63470004D01*
X164655734Y-63556768D01*
X164433365Y-63601000D01*
X164206635Y-63601000D01*
X163984266Y-63556768D01*
X163774798Y-63470004D01*
X163586277Y-63344038D01*
X163425962Y-63183723D01*
X163299996Y-62995202D01*
X163213232Y-62785734D01*
X163169000Y-62563365D01*
X163169000Y-62336635D01*
X163213232Y-62114266D01*
X163299996Y-61904798D01*
X163425962Y-61716277D01*
X163586277Y-61555962D01*
X163774798Y-61429996D01*
X163984266Y-61343232D01*
X164206635Y-61299000D01*
X164433365Y-61299000D01*
X164655734Y-61343232D01*
X164655734Y-61343232D01*
G37*
G36*
X127307396Y-59545546D02*
X127480466Y-59617234D01*
X127636230Y-59721312D01*
X127768688Y-59853770D01*
X127872766Y-60009534D01*
X127944454Y-60182604D01*
X127981000Y-60366333D01*
X127981000Y-60553667D01*
X127944454Y-60737396D01*
X127872766Y-60910466D01*
X127768688Y-61066230D01*
X127636230Y-61198688D01*
X127480466Y-61302766D01*
X127307396Y-61374454D01*
X127123667Y-61411000D01*
X126936333Y-61411000D01*
X126752604Y-61374454D01*
X126579534Y-61302766D01*
X126423770Y-61198688D01*
X126291312Y-61066230D01*
X126187234Y-60910466D01*
X126115546Y-60737396D01*
X126079000Y-60553667D01*
X126079000Y-60366333D01*
X126115546Y-60182604D01*
X126187234Y-60009534D01*
X126291312Y-59853770D01*
X126423770Y-59721312D01*
X126579534Y-59617234D01*
X126752604Y-59545546D01*
X126936333Y-59509000D01*
X127123667Y-59509000D01*
X127307396Y-59545546D01*
X127307396Y-59545546D01*
G37*
G36*
X129847396Y-59545546D02*
X130020466Y-59617234D01*
X130176230Y-59721312D01*
X130308688Y-59853770D01*
X130412766Y-60009534D01*
X130484454Y-60182604D01*
X130521000Y-60366333D01*
X130521000Y-60553667D01*
X130484454Y-60737396D01*
X130412766Y-60910466D01*
X130308688Y-61066230D01*
X130176230Y-61198688D01*
X130020466Y-61302766D01*
X129847396Y-61374454D01*
X129663667Y-61411000D01*
X129476333Y-61411000D01*
X129292604Y-61374454D01*
X129119534Y-61302766D01*
X128963770Y-61198688D01*
X128831312Y-61066230D01*
X128727234Y-60910466D01*
X128655546Y-60737396D01*
X128619000Y-60553667D01*
X128619000Y-60366333D01*
X128655546Y-60182604D01*
X128727234Y-60009534D01*
X128831312Y-59853770D01*
X128963770Y-59721312D01*
X129119534Y-59617234D01*
X129292604Y-59545546D01*
X129476333Y-59509000D01*
X129663667Y-59509000D01*
X129847396Y-59545546D01*
X129847396Y-59545546D01*
G37*
G36*
X159655734Y-58843232D02*
X159865202Y-58929996D01*
X160053723Y-59055962D01*
X160214038Y-59216277D01*
X160340004Y-59404798D01*
X160426768Y-59614266D01*
X160471000Y-59836635D01*
X160471000Y-60063365D01*
X160426768Y-60285734D01*
X160340004Y-60495202D01*
X160214038Y-60683723D01*
X160053723Y-60844038D01*
X159865202Y-60970004D01*
X159655734Y-61056768D01*
X159433365Y-61101000D01*
X159206635Y-61101000D01*
X158984266Y-61056768D01*
X158774798Y-60970004D01*
X158586277Y-60844038D01*
X158425962Y-60683723D01*
X158299996Y-60495202D01*
X158213232Y-60285734D01*
X158169000Y-60063365D01*
X158169000Y-59836635D01*
X158213232Y-59614266D01*
X158299996Y-59404798D01*
X158425962Y-59216277D01*
X158586277Y-59055962D01*
X158774798Y-58929996D01*
X158984266Y-58843232D01*
X159206635Y-58799000D01*
X159433365Y-58799000D01*
X159655734Y-58843232D01*
X159655734Y-58843232D01*
G37*
G36*
X129847396Y-57005546D02*
X130020466Y-57077234D01*
X130176230Y-57181312D01*
X130308688Y-57313770D01*
X130412766Y-57469534D01*
X130484454Y-57642604D01*
X130521000Y-57826333D01*
X130521000Y-58013667D01*
X130484454Y-58197396D01*
X130412766Y-58370466D01*
X130308688Y-58526230D01*
X130176230Y-58658688D01*
X130020466Y-58762766D01*
X129847396Y-58834454D01*
X129663667Y-58871000D01*
X129476333Y-58871000D01*
X129292604Y-58834454D01*
X129119534Y-58762766D01*
X128963770Y-58658688D01*
X128831312Y-58526230D01*
X128727234Y-58370466D01*
X128655546Y-58197396D01*
X128619000Y-58013667D01*
X128619000Y-57826333D01*
X128655546Y-57642604D01*
X128727234Y-57469534D01*
X128831312Y-57313770D01*
X128963770Y-57181312D01*
X129119534Y-57077234D01*
X129292604Y-57005546D01*
X129476333Y-56969000D01*
X129663667Y-56969000D01*
X129847396Y-57005546D01*
X129847396Y-57005546D01*
G37*
G36*
X127307396Y-57005546D02*
X127480466Y-57077234D01*
X127636230Y-57181312D01*
X127768688Y-57313770D01*
X127872766Y-57469534D01*
X127944454Y-57642604D01*
X127981000Y-57826333D01*
X127981000Y-58013667D01*
X127944454Y-58197396D01*
X127872766Y-58370466D01*
X127768688Y-58526230D01*
X127636230Y-58658688D01*
X127480466Y-58762766D01*
X127307396Y-58834454D01*
X127123667Y-58871000D01*
X126936333Y-58871000D01*
X126752604Y-58834454D01*
X126579534Y-58762766D01*
X126423770Y-58658688D01*
X126291312Y-58526230D01*
X126187234Y-58370466D01*
X126115546Y-58197396D01*
X126079000Y-58013667D01*
X126079000Y-57826333D01*
X126115546Y-57642604D01*
X126187234Y-57469534D01*
X126291312Y-57313770D01*
X126423770Y-57181312D01*
X126579534Y-57077234D01*
X126752604Y-57005546D01*
X126936333Y-56969000D01*
X127123667Y-56969000D01*
X127307396Y-57005546D01*
X127307396Y-57005546D01*
G37*
G36*
X164655734Y-56343232D02*
X164865202Y-56429996D01*
X165053723Y-56555962D01*
X165214038Y-56716277D01*
X165340004Y-56904798D01*
X165426768Y-57114266D01*
X165471000Y-57336635D01*
X165471000Y-57563365D01*
X165426768Y-57785734D01*
X165340004Y-57995202D01*
X165214038Y-58183723D01*
X165053723Y-58344038D01*
X164865202Y-58470004D01*
X164655734Y-58556768D01*
X164433365Y-58601000D01*
X164206635Y-58601000D01*
X163984266Y-58556768D01*
X163774798Y-58470004D01*
X163586277Y-58344038D01*
X163425962Y-58183723D01*
X163299996Y-57995202D01*
X163213232Y-57785734D01*
X163169000Y-57563365D01*
X163169000Y-57336635D01*
X163213232Y-57114266D01*
X163299996Y-56904798D01*
X163425962Y-56716277D01*
X163586277Y-56555962D01*
X163774798Y-56429996D01*
X163984266Y-56343232D01*
X164206635Y-56299000D01*
X164433365Y-56299000D01*
X164655734Y-56343232D01*
X164655734Y-56343232D01*
G37*
G36*
X148659999Y-56590645D02*
X148669611Y-56593561D01*
X148678469Y-56598296D01*
X148686237Y-56604671D01*
X148696446Y-56617110D01*
X148703372Y-56627476D01*
X148720698Y-56644803D01*
X148741073Y-56658418D01*
X148763711Y-56667796D01*
X148787745Y-56672577D01*
X148812249Y-56672577D01*
X148836283Y-56667797D01*
X148858922Y-56658421D01*
X148879297Y-56644807D01*
X148896624Y-56627481D01*
X148903552Y-56617112D01*
X148913763Y-56604671D01*
X148921531Y-56598296D01*
X148930389Y-56593561D01*
X148940001Y-56590645D01*
X148956140Y-56589056D01*
X149443860Y-56589056D01*
X149462198Y-56590862D01*
X149474450Y-56591464D01*
X149492869Y-56591464D01*
X149515149Y-56593658D01*
X149599236Y-56610384D01*
X149620655Y-56616882D01*
X149699871Y-56649693D01*
X149719607Y-56660243D01*
X149790897Y-56707877D01*
X149808208Y-56722084D01*
X149868824Y-56782700D01*
X149883031Y-56800011D01*
X149930665Y-56871301D01*
X149941215Y-56891037D01*
X149974026Y-56970253D01*
X149980524Y-56991672D01*
X149997250Y-57075759D01*
X149999444Y-57098039D01*
X149999444Y-57116458D01*
X150000046Y-57128710D01*
X150001852Y-57147048D01*
X150001852Y-57634769D01*
X150000046Y-57653106D01*
X149999444Y-57665358D01*
X149999444Y-57683777D01*
X149997250Y-57706057D01*
X149980524Y-57790144D01*
X149974026Y-57811563D01*
X149941215Y-57890779D01*
X149930665Y-57910515D01*
X149883031Y-57981805D01*
X149868824Y-57999116D01*
X149808208Y-58059732D01*
X149790897Y-58073939D01*
X149719607Y-58121573D01*
X149699871Y-58132123D01*
X149620655Y-58164934D01*
X149599236Y-58171432D01*
X149515149Y-58188158D01*
X149492869Y-58190352D01*
X149474450Y-58190352D01*
X149462198Y-58190954D01*
X149443861Y-58192760D01*
X148956140Y-58192760D01*
X148940001Y-58191171D01*
X148930389Y-58188255D01*
X148921531Y-58183520D01*
X148913763Y-58177145D01*
X148903554Y-58164706D01*
X148896628Y-58154340D01*
X148879302Y-58137013D01*
X148858927Y-58123398D01*
X148836289Y-58114020D01*
X148812255Y-58109239D01*
X148787751Y-58109239D01*
X148763717Y-58114019D01*
X148741078Y-58123395D01*
X148720703Y-58137009D01*
X148703376Y-58154335D01*
X148696448Y-58164704D01*
X148686237Y-58177145D01*
X148678469Y-58183520D01*
X148669611Y-58188255D01*
X148659999Y-58191171D01*
X148643860Y-58192760D01*
X148156139Y-58192760D01*
X148137802Y-58190954D01*
X148125550Y-58190352D01*
X148107131Y-58190352D01*
X148084851Y-58188158D01*
X148000764Y-58171432D01*
X147979345Y-58164934D01*
X147900129Y-58132123D01*
X147880393Y-58121573D01*
X147809103Y-58073939D01*
X147791792Y-58059732D01*
X147731176Y-57999116D01*
X147716969Y-57981805D01*
X147669335Y-57910515D01*
X147658785Y-57890779D01*
X147625974Y-57811563D01*
X147619476Y-57790144D01*
X147602750Y-57706057D01*
X147600556Y-57683777D01*
X147600556Y-57665358D01*
X147599954Y-57653106D01*
X147598148Y-57634769D01*
X147598148Y-57147048D01*
X147599954Y-57128710D01*
X147600556Y-57116458D01*
X147600556Y-57098039D01*
X147602750Y-57075759D01*
X147619476Y-56991672D01*
X147625974Y-56970253D01*
X147658785Y-56891037D01*
X147669335Y-56871301D01*
X147716969Y-56800011D01*
X147731176Y-56782700D01*
X147791792Y-56722084D01*
X147809103Y-56707877D01*
X147880393Y-56660243D01*
X147900129Y-56649693D01*
X147979345Y-56616882D01*
X148000764Y-56610384D01*
X148084851Y-56593658D01*
X148107131Y-56591464D01*
X148125550Y-56591464D01*
X148137802Y-56590862D01*
X148156140Y-56589056D01*
X148643860Y-56589056D01*
X148659999Y-56590645D01*
X148659999Y-56590645D01*
G37*
G36*
X129847396Y-54465546D02*
X130020466Y-54537234D01*
X130176230Y-54641312D01*
X130308688Y-54773770D01*
X130412766Y-54929534D01*
X130484454Y-55102604D01*
X130521000Y-55286333D01*
X130521000Y-55473667D01*
X130484454Y-55657396D01*
X130412766Y-55830466D01*
X130308688Y-55986230D01*
X130176230Y-56118688D01*
X130020466Y-56222766D01*
X129847396Y-56294454D01*
X129663667Y-56331000D01*
X129476333Y-56331000D01*
X129292604Y-56294454D01*
X129119534Y-56222766D01*
X128963770Y-56118688D01*
X128831312Y-55986230D01*
X128727234Y-55830466D01*
X128655546Y-55657396D01*
X128619000Y-55473667D01*
X128619000Y-55286333D01*
X128655546Y-55102604D01*
X128727234Y-54929534D01*
X128831312Y-54773770D01*
X128963770Y-54641312D01*
X129119534Y-54537234D01*
X129292604Y-54465546D01*
X129476333Y-54429000D01*
X129663667Y-54429000D01*
X129847396Y-54465546D01*
X129847396Y-54465546D01*
G37*
G36*
X127307396Y-54465546D02*
X127480466Y-54537234D01*
X127636230Y-54641312D01*
X127768688Y-54773770D01*
X127872766Y-54929534D01*
X127944454Y-55102604D01*
X127981000Y-55286333D01*
X127981000Y-55473667D01*
X127944454Y-55657396D01*
X127872766Y-55830466D01*
X127768688Y-55986230D01*
X127636230Y-56118688D01*
X127480466Y-56222766D01*
X127307396Y-56294454D01*
X127123667Y-56331000D01*
X126936333Y-56331000D01*
X126752604Y-56294454D01*
X126579534Y-56222766D01*
X126423770Y-56118688D01*
X126291312Y-55986230D01*
X126187234Y-55830466D01*
X126115546Y-55657396D01*
X126079000Y-55473667D01*
X126079000Y-55286333D01*
X126115546Y-55102604D01*
X126187234Y-54929534D01*
X126291312Y-54773770D01*
X126423770Y-54641312D01*
X126579534Y-54537234D01*
X126752604Y-54465546D01*
X126936333Y-54429000D01*
X127123667Y-54429000D01*
X127307396Y-54465546D01*
X127307396Y-54465546D01*
G37*
G36*
X159655734Y-53843232D02*
X159865202Y-53929996D01*
X160053723Y-54055962D01*
X160214038Y-54216277D01*
X160340004Y-54404798D01*
X160426768Y-54614266D01*
X160471000Y-54836635D01*
X160471000Y-55063365D01*
X160426768Y-55285734D01*
X160340004Y-55495202D01*
X160214038Y-55683723D01*
X160053723Y-55844038D01*
X159865202Y-55970004D01*
X159655734Y-56056768D01*
X159433365Y-56101000D01*
X159206635Y-56101000D01*
X158984266Y-56056768D01*
X158774798Y-55970004D01*
X158586277Y-55844038D01*
X158425962Y-55683723D01*
X158299996Y-55495202D01*
X158213232Y-55285734D01*
X158169000Y-55063365D01*
X158169000Y-54836635D01*
X158213232Y-54614266D01*
X158299996Y-54404798D01*
X158425962Y-54216277D01*
X158586277Y-54055962D01*
X158774798Y-53929996D01*
X158984266Y-53843232D01*
X159206635Y-53799000D01*
X159433365Y-53799000D01*
X159655734Y-53843232D01*
X159655734Y-53843232D01*
G37*
G36*
X127307396Y-51925546D02*
X127480466Y-51997234D01*
X127636230Y-52101312D01*
X127768688Y-52233770D01*
X127872766Y-52389534D01*
X127944454Y-52562604D01*
X127981000Y-52746333D01*
X127981000Y-52933667D01*
X127944454Y-53117396D01*
X127872766Y-53290466D01*
X127768688Y-53446230D01*
X127636230Y-53578688D01*
X127480466Y-53682766D01*
X127307396Y-53754454D01*
X127123667Y-53791000D01*
X126936333Y-53791000D01*
X126752604Y-53754454D01*
X126579534Y-53682766D01*
X126423770Y-53578688D01*
X126291312Y-53446230D01*
X126187234Y-53290466D01*
X126115546Y-53117396D01*
X126079000Y-52933667D01*
X126079000Y-52746333D01*
X126115546Y-52562604D01*
X126187234Y-52389534D01*
X126291312Y-52233770D01*
X126423770Y-52101312D01*
X126579534Y-51997234D01*
X126752604Y-51925546D01*
X126936333Y-51889000D01*
X127123667Y-51889000D01*
X127307396Y-51925546D01*
X127307396Y-51925546D01*
G37*
G36*
X129847396Y-51925546D02*
X130020466Y-51997234D01*
X130176230Y-52101312D01*
X130308688Y-52233770D01*
X130412766Y-52389534D01*
X130484454Y-52562604D01*
X130521000Y-52746333D01*
X130521000Y-52933667D01*
X130484454Y-53117396D01*
X130412766Y-53290466D01*
X130308688Y-53446230D01*
X130176230Y-53578688D01*
X130020466Y-53682766D01*
X129847396Y-53754454D01*
X129663667Y-53791000D01*
X129476333Y-53791000D01*
X129292604Y-53754454D01*
X129119534Y-53682766D01*
X128963770Y-53578688D01*
X128831312Y-53446230D01*
X128727234Y-53290466D01*
X128655546Y-53117396D01*
X128619000Y-52933667D01*
X128619000Y-52746333D01*
X128655546Y-52562604D01*
X128727234Y-52389534D01*
X128831312Y-52233770D01*
X128963770Y-52101312D01*
X129119534Y-51997234D01*
X129292604Y-51925546D01*
X129476333Y-51889000D01*
X129663667Y-51889000D01*
X129847396Y-51925546D01*
X129847396Y-51925546D01*
G37*
G36*
X164655734Y-51343232D02*
X164865202Y-51429996D01*
X165053723Y-51555962D01*
X165214038Y-51716277D01*
X165340004Y-51904798D01*
X165426768Y-52114266D01*
X165471000Y-52336635D01*
X165471000Y-52563365D01*
X165426768Y-52785734D01*
X165340004Y-52995202D01*
X165214038Y-53183723D01*
X165053723Y-53344038D01*
X164865202Y-53470004D01*
X164655734Y-53556768D01*
X164433365Y-53601000D01*
X164206635Y-53601000D01*
X163984266Y-53556768D01*
X163774798Y-53470004D01*
X163586277Y-53344038D01*
X163425962Y-53183723D01*
X163299996Y-52995202D01*
X163213232Y-52785734D01*
X163169000Y-52563365D01*
X163169000Y-52336635D01*
X163213232Y-52114266D01*
X163299996Y-51904798D01*
X163425962Y-51716277D01*
X163586277Y-51555962D01*
X163774798Y-51429996D01*
X163984266Y-51343232D01*
X164206635Y-51299000D01*
X164433365Y-51299000D01*
X164655734Y-51343232D01*
X164655734Y-51343232D01*
G37*
G36*
X127307396Y-49385546D02*
X127480466Y-49457234D01*
X127636230Y-49561312D01*
X127768688Y-49693770D01*
X127872766Y-49849534D01*
X127944454Y-50022604D01*
X127981000Y-50206333D01*
X127981000Y-50393667D01*
X127944454Y-50577396D01*
X127872766Y-50750466D01*
X127768688Y-50906230D01*
X127636230Y-51038688D01*
X127480466Y-51142766D01*
X127307396Y-51214454D01*
X127123667Y-51251000D01*
X126936333Y-51251000D01*
X126752604Y-51214454D01*
X126579534Y-51142766D01*
X126423770Y-51038688D01*
X126291312Y-50906230D01*
X126187234Y-50750466D01*
X126115546Y-50577396D01*
X126079000Y-50393667D01*
X126079000Y-50206333D01*
X126115546Y-50022604D01*
X126187234Y-49849534D01*
X126291312Y-49693770D01*
X126423770Y-49561312D01*
X126579534Y-49457234D01*
X126752604Y-49385546D01*
X126936333Y-49349000D01*
X127123667Y-49349000D01*
X127307396Y-49385546D01*
X127307396Y-49385546D01*
G37*
G36*
X129847396Y-49385546D02*
X130020466Y-49457234D01*
X130176230Y-49561312D01*
X130308688Y-49693770D01*
X130412766Y-49849534D01*
X130484454Y-50022604D01*
X130521000Y-50206333D01*
X130521000Y-50393667D01*
X130484454Y-50577396D01*
X130412766Y-50750466D01*
X130308688Y-50906230D01*
X130176230Y-51038688D01*
X130020466Y-51142766D01*
X129847396Y-51214454D01*
X129663667Y-51251000D01*
X129476333Y-51251000D01*
X129292604Y-51214454D01*
X129119534Y-51142766D01*
X128963770Y-51038688D01*
X128831312Y-50906230D01*
X128727234Y-50750466D01*
X128655546Y-50577396D01*
X128619000Y-50393667D01*
X128619000Y-50206333D01*
X128655546Y-50022604D01*
X128727234Y-49849534D01*
X128831312Y-49693770D01*
X128963770Y-49561312D01*
X129119534Y-49457234D01*
X129292604Y-49385546D01*
X129476333Y-49349000D01*
X129663667Y-49349000D01*
X129847396Y-49385546D01*
X129847396Y-49385546D01*
G37*
G36*
X148659999Y-48527009D02*
X148669611Y-48529925D01*
X148678469Y-48534660D01*
X148686237Y-48541035D01*
X148696446Y-48553474D01*
X148703372Y-48563840D01*
X148720698Y-48581167D01*
X148741073Y-48594782D01*
X148763711Y-48604160D01*
X148787745Y-48608941D01*
X148812249Y-48608941D01*
X148836283Y-48604161D01*
X148858922Y-48594785D01*
X148879297Y-48581171D01*
X148896624Y-48563845D01*
X148903552Y-48553476D01*
X148913763Y-48541035D01*
X148921531Y-48534660D01*
X148930389Y-48529925D01*
X148940001Y-48527009D01*
X148956140Y-48525420D01*
X149443860Y-48525420D01*
X149462198Y-48527226D01*
X149474450Y-48527828D01*
X149492869Y-48527828D01*
X149515149Y-48530022D01*
X149599236Y-48546748D01*
X149620655Y-48553246D01*
X149699871Y-48586057D01*
X149719607Y-48596607D01*
X149790897Y-48644241D01*
X149808208Y-48658448D01*
X149868824Y-48719064D01*
X149883031Y-48736375D01*
X149930665Y-48807665D01*
X149941215Y-48827401D01*
X149974026Y-48906617D01*
X149980524Y-48928036D01*
X149997250Y-49012123D01*
X149999444Y-49034403D01*
X149999444Y-49052822D01*
X150000046Y-49065074D01*
X150001852Y-49083412D01*
X150001852Y-49571133D01*
X150000046Y-49589470D01*
X149999444Y-49601722D01*
X149999444Y-49620141D01*
X149997250Y-49642421D01*
X149980524Y-49726508D01*
X149974026Y-49747927D01*
X149941215Y-49827143D01*
X149930665Y-49846879D01*
X149883031Y-49918169D01*
X149868824Y-49935480D01*
X149808208Y-49996096D01*
X149790897Y-50010303D01*
X149719607Y-50057937D01*
X149699871Y-50068487D01*
X149620655Y-50101298D01*
X149599236Y-50107796D01*
X149515149Y-50124522D01*
X149492869Y-50126716D01*
X149474450Y-50126716D01*
X149462198Y-50127318D01*
X149443861Y-50129124D01*
X148956140Y-50129124D01*
X148940001Y-50127535D01*
X148930389Y-50124619D01*
X148921531Y-50119884D01*
X148913763Y-50113509D01*
X148903554Y-50101070D01*
X148896628Y-50090704D01*
X148879302Y-50073377D01*
X148858927Y-50059762D01*
X148836289Y-50050384D01*
X148812255Y-50045603D01*
X148787751Y-50045603D01*
X148763717Y-50050383D01*
X148741078Y-50059759D01*
X148720703Y-50073373D01*
X148703376Y-50090699D01*
X148696448Y-50101068D01*
X148686237Y-50113509D01*
X148678469Y-50119884D01*
X148669611Y-50124619D01*
X148659999Y-50127535D01*
X148643860Y-50129124D01*
X148156139Y-50129124D01*
X148137802Y-50127318D01*
X148125550Y-50126716D01*
X148107131Y-50126716D01*
X148084851Y-50124522D01*
X148000764Y-50107796D01*
X147979345Y-50101298D01*
X147900129Y-50068487D01*
X147880393Y-50057937D01*
X147809103Y-50010303D01*
X147791792Y-49996096D01*
X147731176Y-49935480D01*
X147716969Y-49918169D01*
X147669335Y-49846879D01*
X147658785Y-49827143D01*
X147625974Y-49747927D01*
X147619476Y-49726508D01*
X147602750Y-49642421D01*
X147600556Y-49620141D01*
X147600556Y-49601722D01*
X147599954Y-49589470D01*
X147598148Y-49571133D01*
X147598148Y-49083412D01*
X147599954Y-49065074D01*
X147600556Y-49052822D01*
X147600556Y-49034403D01*
X147602750Y-49012123D01*
X147619476Y-48928036D01*
X147625974Y-48906617D01*
X147658785Y-48827401D01*
X147669335Y-48807665D01*
X147716969Y-48736375D01*
X147731176Y-48719064D01*
X147791792Y-48658448D01*
X147809103Y-48644241D01*
X147880393Y-48596607D01*
X147900129Y-48586057D01*
X147979345Y-48553246D01*
X148000764Y-48546748D01*
X148084851Y-48530022D01*
X148107131Y-48527828D01*
X148125550Y-48527828D01*
X148137802Y-48527226D01*
X148156140Y-48525420D01*
X148643860Y-48525420D01*
X148659999Y-48527009D01*
X148659999Y-48527009D01*
G37*
G36*
X166988252Y-45007818D02*
X166988254Y-45007819D01*
X166988255Y-45007819D01*
X167361513Y-45162427D01*
X167361514Y-45162428D01*
X167697439Y-45386886D01*
X167983114Y-45672561D01*
X167983116Y-45672564D01*
X168207573Y-46008487D01*
X168362181Y-46381745D01*
X168441000Y-46777994D01*
X168441000Y-47182006D01*
X168362181Y-47578255D01*
X168207573Y-47951513D01*
X168207572Y-47951514D01*
X167983114Y-48287439D01*
X167697439Y-48573114D01*
X167697436Y-48573116D01*
X167361513Y-48797573D01*
X166988255Y-48952181D01*
X166988254Y-48952181D01*
X166988252Y-48952182D01*
X166592007Y-49031000D01*
X166187993Y-49031000D01*
X165791748Y-48952182D01*
X165791746Y-48952181D01*
X165791745Y-48952181D01*
X165418487Y-48797573D01*
X165082564Y-48573116D01*
X165082561Y-48573114D01*
X164796886Y-48287439D01*
X164572428Y-47951514D01*
X164572427Y-47951513D01*
X164417819Y-47578255D01*
X164339000Y-47182006D01*
X164339000Y-46777994D01*
X164417819Y-46381745D01*
X164572427Y-46008487D01*
X164796884Y-45672564D01*
X164796886Y-45672561D01*
X165082561Y-45386886D01*
X165418486Y-45162428D01*
X165418487Y-45162427D01*
X165791745Y-45007819D01*
X165791746Y-45007819D01*
X165791748Y-45007818D01*
X166187993Y-44929000D01*
X166592007Y-44929000D01*
X166988252Y-45007818D01*
X166988252Y-45007818D01*
G37*
G36*
X166988252Y-40007818D02*
X166988254Y-40007819D01*
X166988255Y-40007819D01*
X167361513Y-40162427D01*
X167692905Y-40383857D01*
X167697439Y-40386886D01*
X167983114Y-40672561D01*
X167983116Y-40672564D01*
X168207573Y-41008487D01*
X168312649Y-41262164D01*
X168362182Y-41381748D01*
X168441000Y-41777993D01*
X168441000Y-42182007D01*
X168362650Y-42575901D01*
X168362181Y-42578255D01*
X168207573Y-42951513D01*
X168207572Y-42951514D01*
X167983114Y-43287439D01*
X167697439Y-43573114D01*
X167697436Y-43573116D01*
X167361513Y-43797573D01*
X166988255Y-43952181D01*
X166988254Y-43952181D01*
X166988252Y-43952182D01*
X166592007Y-44031000D01*
X166187993Y-44031000D01*
X165791748Y-43952182D01*
X165791746Y-43952181D01*
X165791745Y-43952181D01*
X165418487Y-43797573D01*
X165082564Y-43573116D01*
X165082561Y-43573114D01*
X164796886Y-43287439D01*
X164572428Y-42951514D01*
X164572427Y-42951513D01*
X164417819Y-42578255D01*
X164417351Y-42575901D01*
X164339000Y-42182007D01*
X164339000Y-41777993D01*
X164417818Y-41381748D01*
X164467351Y-41262164D01*
X164572427Y-41008487D01*
X164796884Y-40672564D01*
X164796886Y-40672561D01*
X165082561Y-40386886D01*
X165087095Y-40383857D01*
X165418487Y-40162427D01*
X165791745Y-40007819D01*
X165791746Y-40007819D01*
X165791748Y-40007818D01*
X166187993Y-39929000D01*
X166592007Y-39929000D01*
X166988252Y-40007818D01*
X166988252Y-40007818D01*
G37*
G36*
X128298384Y-39929000D02*
X128487826Y-39966682D01*
X128587136Y-40007818D01*
X128760989Y-40079830D01*
X129006835Y-40244099D01*
X129215901Y-40453165D01*
X129380170Y-40699011D01*
X129404739Y-40758327D01*
X129493318Y-40972174D01*
X129522159Y-41117169D01*
X129551000Y-41262163D01*
X129551000Y-41557837D01*
X129548055Y-41572643D01*
X129493318Y-41847826D01*
X129452376Y-41946667D01*
X129380170Y-42120989D01*
X129215901Y-42366835D01*
X129006835Y-42575901D01*
X128760989Y-42740170D01*
X128600974Y-42806450D01*
X128487826Y-42853318D01*
X128342831Y-42882159D01*
X128197837Y-42911000D01*
X127902163Y-42911000D01*
X127757169Y-42882159D01*
X127612174Y-42853318D01*
X127499026Y-42806450D01*
X127339011Y-42740170D01*
X127093165Y-42575901D01*
X126884099Y-42366835D01*
X126719830Y-42120989D01*
X126647624Y-41946667D01*
X126606682Y-41847826D01*
X126551945Y-41572643D01*
X126549000Y-41557837D01*
X126549000Y-41262163D01*
X126577841Y-41117169D01*
X126606682Y-40972174D01*
X126695261Y-40758327D01*
X126719830Y-40699011D01*
X126884099Y-40453165D01*
X127093165Y-40244099D01*
X127339011Y-40079830D01*
X127512864Y-40007818D01*
X127612174Y-39966682D01*
X127801616Y-39929000D01*
X127902163Y-39909000D01*
X128197837Y-39909000D01*
X128298384Y-39929000D01*
X128298384Y-39929000D01*
G37*
G36*
X148709999Y-40463373D02*
X148719611Y-40466289D01*
X148728469Y-40471024D01*
X148736237Y-40477399D01*
X148746446Y-40489838D01*
X148753372Y-40500204D01*
X148770698Y-40517531D01*
X148791073Y-40531146D01*
X148813711Y-40540524D01*
X148837745Y-40545305D01*
X148862249Y-40545305D01*
X148886283Y-40540525D01*
X148908922Y-40531149D01*
X148929297Y-40517535D01*
X148946624Y-40500209D01*
X148953552Y-40489840D01*
X148963763Y-40477399D01*
X148971531Y-40471024D01*
X148980389Y-40466289D01*
X148990001Y-40463373D01*
X149006140Y-40461784D01*
X149493860Y-40461784D01*
X149512198Y-40463590D01*
X149524450Y-40464192D01*
X149542869Y-40464192D01*
X149565149Y-40466386D01*
X149649236Y-40483112D01*
X149670655Y-40489610D01*
X149749871Y-40522421D01*
X149769607Y-40532971D01*
X149840897Y-40580605D01*
X149858208Y-40594812D01*
X149918824Y-40655428D01*
X149933031Y-40672739D01*
X149980665Y-40744029D01*
X149991215Y-40763765D01*
X150024026Y-40842981D01*
X150030524Y-40864400D01*
X150047250Y-40948487D01*
X150049444Y-40970767D01*
X150049444Y-40989186D01*
X150050046Y-41001438D01*
X150051852Y-41019776D01*
X150051852Y-41507497D01*
X150050046Y-41525834D01*
X150049444Y-41538086D01*
X150049444Y-41556505D01*
X150047250Y-41578785D01*
X150030524Y-41662872D01*
X150024026Y-41684291D01*
X149991215Y-41763507D01*
X149980665Y-41783243D01*
X149933031Y-41854533D01*
X149918824Y-41871844D01*
X149858208Y-41932460D01*
X149840897Y-41946667D01*
X149769607Y-41994301D01*
X149749871Y-42004851D01*
X149670655Y-42037662D01*
X149649236Y-42044160D01*
X149565149Y-42060886D01*
X149542869Y-42063080D01*
X149524450Y-42063080D01*
X149512198Y-42063682D01*
X149493861Y-42065488D01*
X149006140Y-42065488D01*
X148990001Y-42063899D01*
X148980389Y-42060983D01*
X148971531Y-42056248D01*
X148963763Y-42049873D01*
X148953554Y-42037434D01*
X148946628Y-42027068D01*
X148929302Y-42009741D01*
X148908927Y-41996126D01*
X148886289Y-41986748D01*
X148862255Y-41981967D01*
X148837751Y-41981967D01*
X148813717Y-41986747D01*
X148791078Y-41996123D01*
X148770703Y-42009737D01*
X148753376Y-42027063D01*
X148746448Y-42037432D01*
X148736237Y-42049873D01*
X148728469Y-42056248D01*
X148719611Y-42060983D01*
X148709999Y-42063899D01*
X148693860Y-42065488D01*
X148206139Y-42065488D01*
X148187802Y-42063682D01*
X148175550Y-42063080D01*
X148157131Y-42063080D01*
X148134851Y-42060886D01*
X148050764Y-42044160D01*
X148029345Y-42037662D01*
X147950129Y-42004851D01*
X147930393Y-41994301D01*
X147859103Y-41946667D01*
X147841792Y-41932460D01*
X147781176Y-41871844D01*
X147766969Y-41854533D01*
X147719335Y-41783243D01*
X147708785Y-41763507D01*
X147675974Y-41684291D01*
X147669476Y-41662872D01*
X147652750Y-41578785D01*
X147650556Y-41556505D01*
X147650556Y-41538086D01*
X147649954Y-41525834D01*
X147648148Y-41507497D01*
X147648148Y-41019776D01*
X147649954Y-41001438D01*
X147650556Y-40989186D01*
X147650556Y-40970767D01*
X147652750Y-40948487D01*
X147669476Y-40864400D01*
X147675974Y-40842981D01*
X147708785Y-40763765D01*
X147719335Y-40744029D01*
X147766969Y-40672739D01*
X147781176Y-40655428D01*
X147841792Y-40594812D01*
X147859103Y-40580605D01*
X147930393Y-40532971D01*
X147950129Y-40522421D01*
X148029345Y-40489610D01*
X148050764Y-40483112D01*
X148134851Y-40466386D01*
X148157131Y-40464192D01*
X148175550Y-40464192D01*
X148187802Y-40463590D01*
X148206140Y-40461784D01*
X148693860Y-40461784D01*
X148709999Y-40463373D01*
X148709999Y-40463373D01*
G37*
G36*
X124535786Y-28585462D02*
X124535788Y-28585463D01*
X124535789Y-28585463D01*
X125182029Y-28853144D01*
X125182030Y-28853145D01*
X125763634Y-29241760D01*
X126258240Y-29736366D01*
X126258242Y-29736369D01*
X126646856Y-30317971D01*
X126914537Y-30964211D01*
X126914538Y-30964214D01*
X127051000Y-31650256D01*
X127051000Y-32349744D01*
X126930381Y-32956140D01*
X126914537Y-33035789D01*
X126646856Y-33682029D01*
X126434219Y-34000263D01*
X126258240Y-34263634D01*
X125763634Y-34758240D01*
X125763631Y-34758242D01*
X125182029Y-35146856D01*
X124535789Y-35414537D01*
X124535788Y-35414537D01*
X124535786Y-35414538D01*
X123849744Y-35551000D01*
X123150256Y-35551000D01*
X122464214Y-35414538D01*
X122464212Y-35414537D01*
X122464211Y-35414537D01*
X121817971Y-35146856D01*
X121236369Y-34758242D01*
X121236366Y-34758240D01*
X120741760Y-34263634D01*
X120565781Y-34000263D01*
X120353144Y-33682029D01*
X120085463Y-33035789D01*
X120069620Y-32956140D01*
X119949000Y-32349744D01*
X119949000Y-31650256D01*
X120085462Y-30964214D01*
X120085463Y-30964211D01*
X120353144Y-30317971D01*
X120741758Y-29736369D01*
X120741760Y-29736366D01*
X121236366Y-29241760D01*
X121817970Y-28853145D01*
X121817971Y-28853144D01*
X122464211Y-28585463D01*
X122464212Y-28585463D01*
X122464214Y-28585462D01*
X123150256Y-28449000D01*
X123849744Y-28449000D01*
X124535786Y-28585462D01*
X124535786Y-28585462D01*
G37*
G36*
X173535786Y-28585462D02*
X173535788Y-28585463D01*
X173535789Y-28585463D01*
X174182029Y-28853144D01*
X174182030Y-28853145D01*
X174763634Y-29241760D01*
X175258240Y-29736366D01*
X175258242Y-29736369D01*
X175646856Y-30317971D01*
X175914537Y-30964211D01*
X175914538Y-30964214D01*
X176051000Y-31650256D01*
X176051000Y-32349744D01*
X175930381Y-32956140D01*
X175914537Y-33035789D01*
X175646856Y-33682029D01*
X175434219Y-34000263D01*
X175258240Y-34263634D01*
X174763634Y-34758240D01*
X174763631Y-34758242D01*
X174182029Y-35146856D01*
X173535789Y-35414537D01*
X173535788Y-35414537D01*
X173535786Y-35414538D01*
X172849744Y-35551000D01*
X172150256Y-35551000D01*
X171464214Y-35414538D01*
X171464212Y-35414537D01*
X171464211Y-35414537D01*
X170817971Y-35146856D01*
X170236369Y-34758242D01*
X170236366Y-34758240D01*
X169741760Y-34263634D01*
X169565781Y-34000263D01*
X169353144Y-33682029D01*
X169085463Y-33035789D01*
X169069620Y-32956140D01*
X168949000Y-32349744D01*
X168949000Y-31650256D01*
X169085462Y-30964214D01*
X169085463Y-30964211D01*
X169353144Y-30317971D01*
X169741758Y-29736369D01*
X169741760Y-29736366D01*
X170236366Y-29241760D01*
X170817970Y-28853145D01*
X170817971Y-28853144D01*
X171464211Y-28585463D01*
X171464212Y-28585463D01*
X171464214Y-28585462D01*
X172150256Y-28449000D01*
X172849744Y-28449000D01*
X173535786Y-28585462D01*
X173535786Y-28585462D01*
G37*
G36*
X148659999Y-32399737D02*
X148669611Y-32402653D01*
X148678469Y-32407388D01*
X148686237Y-32413763D01*
X148696446Y-32426202D01*
X148703372Y-32436568D01*
X148720698Y-32453895D01*
X148741073Y-32467510D01*
X148763711Y-32476888D01*
X148787745Y-32481669D01*
X148812249Y-32481669D01*
X148836283Y-32476889D01*
X148858922Y-32467513D01*
X148879297Y-32453899D01*
X148896624Y-32436573D01*
X148903552Y-32426204D01*
X148913763Y-32413763D01*
X148921531Y-32407388D01*
X148930389Y-32402653D01*
X148940001Y-32399737D01*
X148956140Y-32398148D01*
X149443860Y-32398148D01*
X149462198Y-32399954D01*
X149474450Y-32400556D01*
X149492869Y-32400556D01*
X149515149Y-32402750D01*
X149599236Y-32419476D01*
X149620655Y-32425974D01*
X149699871Y-32458785D01*
X149719607Y-32469335D01*
X149790897Y-32516969D01*
X149808208Y-32531176D01*
X149868824Y-32591792D01*
X149883031Y-32609103D01*
X149930665Y-32680393D01*
X149941215Y-32700129D01*
X149974026Y-32779345D01*
X149980524Y-32800764D01*
X149997250Y-32884851D01*
X149999444Y-32907131D01*
X149999444Y-32925550D01*
X150000046Y-32937802D01*
X150001852Y-32956140D01*
X150001852Y-33443861D01*
X150000046Y-33462198D01*
X149999444Y-33474450D01*
X149999444Y-33492869D01*
X149997250Y-33515149D01*
X149980524Y-33599236D01*
X149974026Y-33620655D01*
X149941215Y-33699871D01*
X149930665Y-33719607D01*
X149883031Y-33790897D01*
X149868824Y-33808208D01*
X149808208Y-33868824D01*
X149790897Y-33883031D01*
X149719607Y-33930665D01*
X149699871Y-33941215D01*
X149620655Y-33974026D01*
X149599236Y-33980524D01*
X149515149Y-33997250D01*
X149492869Y-33999444D01*
X149474450Y-33999444D01*
X149462198Y-34000046D01*
X149443861Y-34001852D01*
X148956140Y-34001852D01*
X148940001Y-34000263D01*
X148930389Y-33997347D01*
X148921531Y-33992612D01*
X148913763Y-33986237D01*
X148903554Y-33973798D01*
X148896628Y-33963432D01*
X148879302Y-33946105D01*
X148858927Y-33932490D01*
X148836289Y-33923112D01*
X148812255Y-33918331D01*
X148787751Y-33918331D01*
X148763717Y-33923111D01*
X148741078Y-33932487D01*
X148720703Y-33946101D01*
X148703376Y-33963427D01*
X148696448Y-33973796D01*
X148686237Y-33986237D01*
X148678469Y-33992612D01*
X148669611Y-33997347D01*
X148659999Y-34000263D01*
X148643860Y-34001852D01*
X148156139Y-34001852D01*
X148137802Y-34000046D01*
X148125550Y-33999444D01*
X148107131Y-33999444D01*
X148084851Y-33997250D01*
X148000764Y-33980524D01*
X147979345Y-33974026D01*
X147900129Y-33941215D01*
X147880393Y-33930665D01*
X147809103Y-33883031D01*
X147791792Y-33868824D01*
X147731176Y-33808208D01*
X147716969Y-33790897D01*
X147669335Y-33719607D01*
X147658785Y-33699871D01*
X147625974Y-33620655D01*
X147619476Y-33599236D01*
X147602750Y-33515149D01*
X147600556Y-33492869D01*
X147600556Y-33474450D01*
X147599954Y-33462198D01*
X147598148Y-33443861D01*
X147598148Y-32956140D01*
X147599954Y-32937802D01*
X147600556Y-32925550D01*
X147600556Y-32907131D01*
X147602750Y-32884851D01*
X147619476Y-32800764D01*
X147625974Y-32779345D01*
X147658785Y-32700129D01*
X147669335Y-32680393D01*
X147716969Y-32609103D01*
X147731176Y-32591792D01*
X147791792Y-32531176D01*
X147809103Y-32516969D01*
X147880393Y-32469335D01*
X147900129Y-32458785D01*
X147979345Y-32425974D01*
X148000764Y-32419476D01*
X148084851Y-32402750D01*
X148107131Y-32400556D01*
X148125550Y-32400556D01*
X148137802Y-32399954D01*
X148156140Y-32398148D01*
X148643860Y-32398148D01*
X148659999Y-32399737D01*
X148659999Y-32399737D01*
G37*
M02*
