M48
;DRILL file {KiCad 5.0.2-bee76a0~70~ubuntu18.04.1} date Mon 17 Jun 2019 07:27:11 PM CDT
;FORMAT={-:-/ absolute / metric / decimal}
FMAT,2
METRIC,TZ
T1C0.400
T2C1.000
T3C1.100
T4C1.300
T5C4.300
T6C2.900
%
G90
G05
T1
X141.1Y-30.7
X141.1Y-34.9
X141.1Y-39.2
X141.1Y-43.5
X141.1Y-47.7
X141.1Y-52.
X141.1Y-56.3
X141.1Y-60.5
X141.1Y-64.8
X141.1Y-69.1
X141.1Y-73.3
X141.1Y-77.6
X141.1Y-81.9
X141.1Y-86.1
X141.1Y-90.4
X141.1Y-94.7
X141.1Y-99.
X141.1Y-103.3
X141.1Y-107.5
X141.1Y-111.8
X141.1Y-116.1
X141.1Y-120.3
X141.1Y-124.6
X141.1Y-128.8
X145.6Y-30.6
X145.6Y-34.9
X145.6Y-39.2
X145.6Y-43.5
X145.6Y-47.7
X145.6Y-52.
X145.6Y-56.3
X145.6Y-60.5
X145.6Y-64.8
X145.6Y-69.1
X145.6Y-73.3
X145.6Y-77.6
X145.6Y-81.9
X145.6Y-90.4
X145.6Y-94.7
X145.6Y-99.
X145.6Y-111.8
X145.6Y-116.1
X145.6Y-120.3
X145.7Y-86.1
X145.7Y-103.3
X145.7Y-107.5
X145.7Y-124.6
X145.7Y-128.8
X150.975Y-67.4
X151.Y-33.2
X151.Y-37.4
X151.Y-41.7
X151.Y-46.
X151.Y-50.3
X151.Y-54.6
X151.Y-63.1
X151.Y-71.7
X151.Y-76.
X151.Y-80.2
X151.Y-84.5
X151.Y-88.8
X151.Y-93.1
X151.Y-97.4
X151.Y-101.7
X151.Y-106.
X151.Y-110.2
X151.Y-111.6
X151.Y-116.
X151.Y-120.1
X151.Y-124.5
X151.Y-128.7
X151.1Y-58.9
X152.9Y-118.7
X154.1Y-48.7
X154.1Y-61.7
X154.1Y-65.9
X154.1Y-83.1
X154.1Y-91.6
X154.1Y-95.9
X154.1Y-100.3
X154.1Y-104.5
X154.1Y-113.1
X154.1Y-125.9
X154.1Y-121.1
X154.2Y-31.6
X154.2Y-35.9
X154.2Y-40.2
X154.2Y-44.5
X154.2Y-78.8
X154.2Y-87.4
X154.2Y-108.8
X154.2Y-130.2
X154.5Y-53.5
X154.5Y-56.7
X154.6Y-69.225
X154.6Y-74.
T2
X159.37Y-88.5
X164.37Y-86.
X159.32Y-54.95
X159.32Y-59.95
X159.32Y-64.95
X159.32Y-69.95
X159.32Y-74.95
X159.32Y-79.95
X164.32Y-52.45
X164.32Y-57.45
X164.32Y-62.45
X164.32Y-67.45
X164.32Y-72.45
X164.32Y-77.45
X159.32Y-96.95
X159.32Y-101.95
X159.32Y-106.95
X159.32Y-111.95
X159.32Y-116.95
X159.32Y-121.95
X164.32Y-94.45
X164.32Y-99.45
X164.32Y-104.45
X164.32Y-109.45
X164.32Y-114.45
X164.32Y-119.45
T3
X127.03Y-50.3
X127.03Y-52.84
X127.03Y-55.38
X127.03Y-57.92
X127.03Y-60.46
X127.03Y-63.
X127.03Y-65.54
X127.03Y-68.08
X127.03Y-70.62
X127.03Y-73.16
X127.03Y-75.7
X127.03Y-78.24
X127.03Y-80.78
X127.03Y-83.32
X127.03Y-85.86
X127.03Y-88.4
X127.03Y-90.94
X127.03Y-93.48
X127.03Y-96.02
X127.03Y-98.56
X127.03Y-101.1
X127.03Y-103.64
X127.03Y-106.18
X127.03Y-108.72
X127.03Y-111.26
X129.57Y-50.3
X129.57Y-52.84
X129.57Y-55.38
X129.57Y-57.92
X129.57Y-60.46
X129.57Y-63.
X129.57Y-65.54
X129.57Y-68.08
X129.57Y-70.62
X129.57Y-73.16
X129.57Y-75.7
X129.57Y-78.24
X129.57Y-80.78
X129.57Y-83.32
X129.57Y-85.86
X129.57Y-88.4
X129.57Y-90.94
X129.57Y-93.48
X129.57Y-96.02
X129.57Y-98.56
X129.57Y-101.1
X129.57Y-103.64
X129.57Y-106.18
X129.57Y-108.72
X129.57Y-111.26
T4
X166.39Y-41.98
X166.39Y-46.98
T5
X123.5Y-130.
X172.5Y-32.
X123.5Y-32.
X172.5Y-130.
T6
X128.05Y-41.41
X128.05Y-120.11
T0
M30
