G04 #@! TF.GenerationSoftware,KiCad,Pcbnew,5.0.2-bee76a0~70~ubuntu18.04.1*
G04 #@! TF.CreationDate,2019-06-11T19:18:52-05:00*
G04 #@! TF.ProjectId,ADAPTER_BOARD,41444150-5445-4525-9f42-4f4152442e6b,rev?*
G04 #@! TF.SameCoordinates,Original*
G04 #@! TF.FileFunction,Paste,Top*
G04 #@! TF.FilePolarity,Positive*
%FSLAX46Y46*%
G04 Gerber Fmt 4.6, Leading zero omitted, Abs format (unit mm)*
G04 Created by KiCad (PCBNEW 5.0.2-bee76a0~70~ubuntu18.04.1) date Tue 11 Jun 2019 07:18:52 PM CDT*
%MOMM*%
%LPD*%
G01*
G04 APERTURE LIST*
%ADD10C,0.100000*%
%ADD11C,0.975000*%
%ADD12R,0.900000X0.800000*%
G04 APERTURE END LIST*
D10*
G04 #@! TO.C,R18*
G36*
X73685142Y-80901174D02*
X73708803Y-80904684D01*
X73732007Y-80910496D01*
X73754529Y-80918554D01*
X73776153Y-80928782D01*
X73796670Y-80941079D01*
X73815883Y-80955329D01*
X73833607Y-80971393D01*
X73849671Y-80989117D01*
X73863921Y-81008330D01*
X73876218Y-81028847D01*
X73886446Y-81050471D01*
X73894504Y-81072993D01*
X73900316Y-81096197D01*
X73903826Y-81119858D01*
X73905000Y-81143750D01*
X73905000Y-82056250D01*
X73903826Y-82080142D01*
X73900316Y-82103803D01*
X73894504Y-82127007D01*
X73886446Y-82149529D01*
X73876218Y-82171153D01*
X73863921Y-82191670D01*
X73849671Y-82210883D01*
X73833607Y-82228607D01*
X73815883Y-82244671D01*
X73796670Y-82258921D01*
X73776153Y-82271218D01*
X73754529Y-82281446D01*
X73732007Y-82289504D01*
X73708803Y-82295316D01*
X73685142Y-82298826D01*
X73661250Y-82300000D01*
X73173750Y-82300000D01*
X73149858Y-82298826D01*
X73126197Y-82295316D01*
X73102993Y-82289504D01*
X73080471Y-82281446D01*
X73058847Y-82271218D01*
X73038330Y-82258921D01*
X73019117Y-82244671D01*
X73001393Y-82228607D01*
X72985329Y-82210883D01*
X72971079Y-82191670D01*
X72958782Y-82171153D01*
X72948554Y-82149529D01*
X72940496Y-82127007D01*
X72934684Y-82103803D01*
X72931174Y-82080142D01*
X72930000Y-82056250D01*
X72930000Y-81143750D01*
X72931174Y-81119858D01*
X72934684Y-81096197D01*
X72940496Y-81072993D01*
X72948554Y-81050471D01*
X72958782Y-81028847D01*
X72971079Y-81008330D01*
X72985329Y-80989117D01*
X73001393Y-80971393D01*
X73019117Y-80955329D01*
X73038330Y-80941079D01*
X73058847Y-80928782D01*
X73080471Y-80918554D01*
X73102993Y-80910496D01*
X73126197Y-80904684D01*
X73149858Y-80901174D01*
X73173750Y-80900000D01*
X73661250Y-80900000D01*
X73685142Y-80901174D01*
X73685142Y-80901174D01*
G37*
D11*
X73417500Y-81600000D03*
D10*
G36*
X71810142Y-80901174D02*
X71833803Y-80904684D01*
X71857007Y-80910496D01*
X71879529Y-80918554D01*
X71901153Y-80928782D01*
X71921670Y-80941079D01*
X71940883Y-80955329D01*
X71958607Y-80971393D01*
X71974671Y-80989117D01*
X71988921Y-81008330D01*
X72001218Y-81028847D01*
X72011446Y-81050471D01*
X72019504Y-81072993D01*
X72025316Y-81096197D01*
X72028826Y-81119858D01*
X72030000Y-81143750D01*
X72030000Y-82056250D01*
X72028826Y-82080142D01*
X72025316Y-82103803D01*
X72019504Y-82127007D01*
X72011446Y-82149529D01*
X72001218Y-82171153D01*
X71988921Y-82191670D01*
X71974671Y-82210883D01*
X71958607Y-82228607D01*
X71940883Y-82244671D01*
X71921670Y-82258921D01*
X71901153Y-82271218D01*
X71879529Y-82281446D01*
X71857007Y-82289504D01*
X71833803Y-82295316D01*
X71810142Y-82298826D01*
X71786250Y-82300000D01*
X71298750Y-82300000D01*
X71274858Y-82298826D01*
X71251197Y-82295316D01*
X71227993Y-82289504D01*
X71205471Y-82281446D01*
X71183847Y-82271218D01*
X71163330Y-82258921D01*
X71144117Y-82244671D01*
X71126393Y-82228607D01*
X71110329Y-82210883D01*
X71096079Y-82191670D01*
X71083782Y-82171153D01*
X71073554Y-82149529D01*
X71065496Y-82127007D01*
X71059684Y-82103803D01*
X71056174Y-82080142D01*
X71055000Y-82056250D01*
X71055000Y-81143750D01*
X71056174Y-81119858D01*
X71059684Y-81096197D01*
X71065496Y-81072993D01*
X71073554Y-81050471D01*
X71083782Y-81028847D01*
X71096079Y-81008330D01*
X71110329Y-80989117D01*
X71126393Y-80971393D01*
X71144117Y-80955329D01*
X71163330Y-80941079D01*
X71183847Y-80928782D01*
X71205471Y-80918554D01*
X71227993Y-80910496D01*
X71251197Y-80904684D01*
X71274858Y-80901174D01*
X71298750Y-80900000D01*
X71786250Y-80900000D01*
X71810142Y-80901174D01*
X71810142Y-80901174D01*
G37*
D11*
X71542500Y-81600000D03*
G04 #@! TD*
D12*
G04 #@! TO.C,Q5*
X71500000Y-56300000D03*
X73500000Y-55350000D03*
X73500000Y-57250000D03*
G04 #@! TD*
G04 #@! TO.C,Q1*
X71500000Y-33750000D03*
X73500000Y-32800000D03*
X73500000Y-34700000D03*
G04 #@! TD*
G04 #@! TO.C,Q2*
X73500000Y-40313042D03*
X73500000Y-38413042D03*
X71500000Y-39363042D03*
G04 #@! TD*
G04 #@! TO.C,Q3*
X71500000Y-44976084D03*
X73500000Y-44026084D03*
X73500000Y-45926084D03*
G04 #@! TD*
G04 #@! TO.C,Q4*
X73500000Y-51539126D03*
X73500000Y-49639126D03*
X71500000Y-50589126D03*
G04 #@! TD*
G04 #@! TO.C,Q6*
X73500000Y-62850000D03*
X73500000Y-60950000D03*
X71500000Y-61900000D03*
G04 #@! TD*
G04 #@! TO.C,Q7*
X71500000Y-67500000D03*
X73500000Y-66550000D03*
X73500000Y-68450000D03*
G04 #@! TD*
G04 #@! TO.C,Q8*
X73500000Y-74050000D03*
X73500000Y-72150000D03*
X71500000Y-73100000D03*
G04 #@! TD*
G04 #@! TO.C,Q9*
X71500000Y-78754336D03*
X73500000Y-77804336D03*
X73500000Y-79704336D03*
G04 #@! TD*
G04 #@! TO.C,Q10*
X73500000Y-85417378D03*
X73500000Y-83517378D03*
X71500000Y-84467378D03*
G04 #@! TD*
G04 #@! TO.C,Q11*
X71500000Y-90100000D03*
X73500000Y-89150000D03*
X73500000Y-91050000D03*
G04 #@! TD*
G04 #@! TO.C,Q12*
X71500000Y-95693462D03*
X73500000Y-94743462D03*
X73500000Y-96643462D03*
G04 #@! TD*
G04 #@! TO.C,Q13*
X83050000Y-55100000D03*
X83050000Y-53200000D03*
X81050000Y-54150000D03*
G04 #@! TD*
G04 #@! TO.C,Q14*
X81050000Y-59805764D03*
X83050000Y-58855764D03*
X83050000Y-60755764D03*
G04 #@! TD*
G04 #@! TO.C,Q15*
X83050000Y-66411528D03*
X83050000Y-64511528D03*
X81050000Y-65461528D03*
G04 #@! TD*
G04 #@! TO.C,Q16*
X83050000Y-72067292D03*
X83050000Y-70167292D03*
X81050000Y-71117292D03*
G04 #@! TD*
G04 #@! TO.C,Q17*
X81050000Y-76673056D03*
X83050000Y-75723056D03*
X83050000Y-77623056D03*
G04 #@! TD*
G04 #@! TO.C,Q18*
X83050000Y-83278820D03*
X83050000Y-81378820D03*
X81050000Y-82328820D03*
G04 #@! TD*
G04 #@! TO.C,Q19*
X83050000Y-88834584D03*
X83050000Y-86934584D03*
X81050000Y-87884584D03*
G04 #@! TD*
G04 #@! TO.C,Q20*
X81050000Y-93540348D03*
X83050000Y-92590348D03*
X83050000Y-94490348D03*
G04 #@! TD*
G04 #@! TO.C,Q21*
X83050000Y-100146112D03*
X83050000Y-98246112D03*
X81050000Y-99196112D03*
G04 #@! TD*
G04 #@! TO.C,Q22*
X81050000Y-104851876D03*
X83050000Y-103901876D03*
X83050000Y-105801876D03*
G04 #@! TD*
G04 #@! TO.C,Q23*
X83050000Y-111457640D03*
X83050000Y-109557640D03*
X81050000Y-110507640D03*
G04 #@! TD*
G04 #@! TO.C,Q24*
X81050000Y-116163404D03*
X83050000Y-115213404D03*
X83050000Y-117113404D03*
G04 #@! TD*
D10*
G04 #@! TO.C,R1*
G36*
X102030142Y-45961174D02*
X102053803Y-45964684D01*
X102077007Y-45970496D01*
X102099529Y-45978554D01*
X102121153Y-45988782D01*
X102141670Y-46001079D01*
X102160883Y-46015329D01*
X102178607Y-46031393D01*
X102194671Y-46049117D01*
X102208921Y-46068330D01*
X102221218Y-46088847D01*
X102231446Y-46110471D01*
X102239504Y-46132993D01*
X102245316Y-46156197D01*
X102248826Y-46179858D01*
X102250000Y-46203750D01*
X102250000Y-47116250D01*
X102248826Y-47140142D01*
X102245316Y-47163803D01*
X102239504Y-47187007D01*
X102231446Y-47209529D01*
X102221218Y-47231153D01*
X102208921Y-47251670D01*
X102194671Y-47270883D01*
X102178607Y-47288607D01*
X102160883Y-47304671D01*
X102141670Y-47318921D01*
X102121153Y-47331218D01*
X102099529Y-47341446D01*
X102077007Y-47349504D01*
X102053803Y-47355316D01*
X102030142Y-47358826D01*
X102006250Y-47360000D01*
X101518750Y-47360000D01*
X101494858Y-47358826D01*
X101471197Y-47355316D01*
X101447993Y-47349504D01*
X101425471Y-47341446D01*
X101403847Y-47331218D01*
X101383330Y-47318921D01*
X101364117Y-47304671D01*
X101346393Y-47288607D01*
X101330329Y-47270883D01*
X101316079Y-47251670D01*
X101303782Y-47231153D01*
X101293554Y-47209529D01*
X101285496Y-47187007D01*
X101279684Y-47163803D01*
X101276174Y-47140142D01*
X101275000Y-47116250D01*
X101275000Y-46203750D01*
X101276174Y-46179858D01*
X101279684Y-46156197D01*
X101285496Y-46132993D01*
X101293554Y-46110471D01*
X101303782Y-46088847D01*
X101316079Y-46068330D01*
X101330329Y-46049117D01*
X101346393Y-46031393D01*
X101364117Y-46015329D01*
X101383330Y-46001079D01*
X101403847Y-45988782D01*
X101425471Y-45978554D01*
X101447993Y-45970496D01*
X101471197Y-45964684D01*
X101494858Y-45961174D01*
X101518750Y-45960000D01*
X102006250Y-45960000D01*
X102030142Y-45961174D01*
X102030142Y-45961174D01*
G37*
D11*
X101762500Y-46660000D03*
D10*
G36*
X103905142Y-45961174D02*
X103928803Y-45964684D01*
X103952007Y-45970496D01*
X103974529Y-45978554D01*
X103996153Y-45988782D01*
X104016670Y-46001079D01*
X104035883Y-46015329D01*
X104053607Y-46031393D01*
X104069671Y-46049117D01*
X104083921Y-46068330D01*
X104096218Y-46088847D01*
X104106446Y-46110471D01*
X104114504Y-46132993D01*
X104120316Y-46156197D01*
X104123826Y-46179858D01*
X104125000Y-46203750D01*
X104125000Y-47116250D01*
X104123826Y-47140142D01*
X104120316Y-47163803D01*
X104114504Y-47187007D01*
X104106446Y-47209529D01*
X104096218Y-47231153D01*
X104083921Y-47251670D01*
X104069671Y-47270883D01*
X104053607Y-47288607D01*
X104035883Y-47304671D01*
X104016670Y-47318921D01*
X103996153Y-47331218D01*
X103974529Y-47341446D01*
X103952007Y-47349504D01*
X103928803Y-47355316D01*
X103905142Y-47358826D01*
X103881250Y-47360000D01*
X103393750Y-47360000D01*
X103369858Y-47358826D01*
X103346197Y-47355316D01*
X103322993Y-47349504D01*
X103300471Y-47341446D01*
X103278847Y-47331218D01*
X103258330Y-47318921D01*
X103239117Y-47304671D01*
X103221393Y-47288607D01*
X103205329Y-47270883D01*
X103191079Y-47251670D01*
X103178782Y-47231153D01*
X103168554Y-47209529D01*
X103160496Y-47187007D01*
X103154684Y-47163803D01*
X103151174Y-47140142D01*
X103150000Y-47116250D01*
X103150000Y-46203750D01*
X103151174Y-46179858D01*
X103154684Y-46156197D01*
X103160496Y-46132993D01*
X103168554Y-46110471D01*
X103178782Y-46088847D01*
X103191079Y-46068330D01*
X103205329Y-46049117D01*
X103221393Y-46031393D01*
X103239117Y-46015329D01*
X103258330Y-46001079D01*
X103278847Y-45988782D01*
X103300471Y-45978554D01*
X103322993Y-45970496D01*
X103346197Y-45964684D01*
X103369858Y-45961174D01*
X103393750Y-45960000D01*
X103881250Y-45960000D01*
X103905142Y-45961174D01*
X103905142Y-45961174D01*
G37*
D11*
X103637500Y-46660000D03*
G04 #@! TD*
D10*
G04 #@! TO.C,R2*
G36*
X73685142Y-35901174D02*
X73708803Y-35904684D01*
X73732007Y-35910496D01*
X73754529Y-35918554D01*
X73776153Y-35928782D01*
X73796670Y-35941079D01*
X73815883Y-35955329D01*
X73833607Y-35971393D01*
X73849671Y-35989117D01*
X73863921Y-36008330D01*
X73876218Y-36028847D01*
X73886446Y-36050471D01*
X73894504Y-36072993D01*
X73900316Y-36096197D01*
X73903826Y-36119858D01*
X73905000Y-36143750D01*
X73905000Y-37056250D01*
X73903826Y-37080142D01*
X73900316Y-37103803D01*
X73894504Y-37127007D01*
X73886446Y-37149529D01*
X73876218Y-37171153D01*
X73863921Y-37191670D01*
X73849671Y-37210883D01*
X73833607Y-37228607D01*
X73815883Y-37244671D01*
X73796670Y-37258921D01*
X73776153Y-37271218D01*
X73754529Y-37281446D01*
X73732007Y-37289504D01*
X73708803Y-37295316D01*
X73685142Y-37298826D01*
X73661250Y-37300000D01*
X73173750Y-37300000D01*
X73149858Y-37298826D01*
X73126197Y-37295316D01*
X73102993Y-37289504D01*
X73080471Y-37281446D01*
X73058847Y-37271218D01*
X73038330Y-37258921D01*
X73019117Y-37244671D01*
X73001393Y-37228607D01*
X72985329Y-37210883D01*
X72971079Y-37191670D01*
X72958782Y-37171153D01*
X72948554Y-37149529D01*
X72940496Y-37127007D01*
X72934684Y-37103803D01*
X72931174Y-37080142D01*
X72930000Y-37056250D01*
X72930000Y-36143750D01*
X72931174Y-36119858D01*
X72934684Y-36096197D01*
X72940496Y-36072993D01*
X72948554Y-36050471D01*
X72958782Y-36028847D01*
X72971079Y-36008330D01*
X72985329Y-35989117D01*
X73001393Y-35971393D01*
X73019117Y-35955329D01*
X73038330Y-35941079D01*
X73058847Y-35928782D01*
X73080471Y-35918554D01*
X73102993Y-35910496D01*
X73126197Y-35904684D01*
X73149858Y-35901174D01*
X73173750Y-35900000D01*
X73661250Y-35900000D01*
X73685142Y-35901174D01*
X73685142Y-35901174D01*
G37*
D11*
X73417500Y-36600000D03*
D10*
G36*
X71810142Y-35901174D02*
X71833803Y-35904684D01*
X71857007Y-35910496D01*
X71879529Y-35918554D01*
X71901153Y-35928782D01*
X71921670Y-35941079D01*
X71940883Y-35955329D01*
X71958607Y-35971393D01*
X71974671Y-35989117D01*
X71988921Y-36008330D01*
X72001218Y-36028847D01*
X72011446Y-36050471D01*
X72019504Y-36072993D01*
X72025316Y-36096197D01*
X72028826Y-36119858D01*
X72030000Y-36143750D01*
X72030000Y-37056250D01*
X72028826Y-37080142D01*
X72025316Y-37103803D01*
X72019504Y-37127007D01*
X72011446Y-37149529D01*
X72001218Y-37171153D01*
X71988921Y-37191670D01*
X71974671Y-37210883D01*
X71958607Y-37228607D01*
X71940883Y-37244671D01*
X71921670Y-37258921D01*
X71901153Y-37271218D01*
X71879529Y-37281446D01*
X71857007Y-37289504D01*
X71833803Y-37295316D01*
X71810142Y-37298826D01*
X71786250Y-37300000D01*
X71298750Y-37300000D01*
X71274858Y-37298826D01*
X71251197Y-37295316D01*
X71227993Y-37289504D01*
X71205471Y-37281446D01*
X71183847Y-37271218D01*
X71163330Y-37258921D01*
X71144117Y-37244671D01*
X71126393Y-37228607D01*
X71110329Y-37210883D01*
X71096079Y-37191670D01*
X71083782Y-37171153D01*
X71073554Y-37149529D01*
X71065496Y-37127007D01*
X71059684Y-37103803D01*
X71056174Y-37080142D01*
X71055000Y-37056250D01*
X71055000Y-36143750D01*
X71056174Y-36119858D01*
X71059684Y-36096197D01*
X71065496Y-36072993D01*
X71073554Y-36050471D01*
X71083782Y-36028847D01*
X71096079Y-36008330D01*
X71110329Y-35989117D01*
X71126393Y-35971393D01*
X71144117Y-35955329D01*
X71163330Y-35941079D01*
X71183847Y-35928782D01*
X71205471Y-35918554D01*
X71227993Y-35910496D01*
X71251197Y-35904684D01*
X71274858Y-35901174D01*
X71298750Y-35900000D01*
X71786250Y-35900000D01*
X71810142Y-35901174D01*
X71810142Y-35901174D01*
G37*
D11*
X71542500Y-36600000D03*
G04 #@! TD*
D10*
G04 #@! TO.C,R3*
G36*
X102030142Y-48733901D02*
X102053803Y-48737411D01*
X102077007Y-48743223D01*
X102099529Y-48751281D01*
X102121153Y-48761509D01*
X102141670Y-48773806D01*
X102160883Y-48788056D01*
X102178607Y-48804120D01*
X102194671Y-48821844D01*
X102208921Y-48841057D01*
X102221218Y-48861574D01*
X102231446Y-48883198D01*
X102239504Y-48905720D01*
X102245316Y-48928924D01*
X102248826Y-48952585D01*
X102250000Y-48976477D01*
X102250000Y-49888977D01*
X102248826Y-49912869D01*
X102245316Y-49936530D01*
X102239504Y-49959734D01*
X102231446Y-49982256D01*
X102221218Y-50003880D01*
X102208921Y-50024397D01*
X102194671Y-50043610D01*
X102178607Y-50061334D01*
X102160883Y-50077398D01*
X102141670Y-50091648D01*
X102121153Y-50103945D01*
X102099529Y-50114173D01*
X102077007Y-50122231D01*
X102053803Y-50128043D01*
X102030142Y-50131553D01*
X102006250Y-50132727D01*
X101518750Y-50132727D01*
X101494858Y-50131553D01*
X101471197Y-50128043D01*
X101447993Y-50122231D01*
X101425471Y-50114173D01*
X101403847Y-50103945D01*
X101383330Y-50091648D01*
X101364117Y-50077398D01*
X101346393Y-50061334D01*
X101330329Y-50043610D01*
X101316079Y-50024397D01*
X101303782Y-50003880D01*
X101293554Y-49982256D01*
X101285496Y-49959734D01*
X101279684Y-49936530D01*
X101276174Y-49912869D01*
X101275000Y-49888977D01*
X101275000Y-48976477D01*
X101276174Y-48952585D01*
X101279684Y-48928924D01*
X101285496Y-48905720D01*
X101293554Y-48883198D01*
X101303782Y-48861574D01*
X101316079Y-48841057D01*
X101330329Y-48821844D01*
X101346393Y-48804120D01*
X101364117Y-48788056D01*
X101383330Y-48773806D01*
X101403847Y-48761509D01*
X101425471Y-48751281D01*
X101447993Y-48743223D01*
X101471197Y-48737411D01*
X101494858Y-48733901D01*
X101518750Y-48732727D01*
X102006250Y-48732727D01*
X102030142Y-48733901D01*
X102030142Y-48733901D01*
G37*
D11*
X101762500Y-49432727D03*
D10*
G36*
X103905142Y-48733901D02*
X103928803Y-48737411D01*
X103952007Y-48743223D01*
X103974529Y-48751281D01*
X103996153Y-48761509D01*
X104016670Y-48773806D01*
X104035883Y-48788056D01*
X104053607Y-48804120D01*
X104069671Y-48821844D01*
X104083921Y-48841057D01*
X104096218Y-48861574D01*
X104106446Y-48883198D01*
X104114504Y-48905720D01*
X104120316Y-48928924D01*
X104123826Y-48952585D01*
X104125000Y-48976477D01*
X104125000Y-49888977D01*
X104123826Y-49912869D01*
X104120316Y-49936530D01*
X104114504Y-49959734D01*
X104106446Y-49982256D01*
X104096218Y-50003880D01*
X104083921Y-50024397D01*
X104069671Y-50043610D01*
X104053607Y-50061334D01*
X104035883Y-50077398D01*
X104016670Y-50091648D01*
X103996153Y-50103945D01*
X103974529Y-50114173D01*
X103952007Y-50122231D01*
X103928803Y-50128043D01*
X103905142Y-50131553D01*
X103881250Y-50132727D01*
X103393750Y-50132727D01*
X103369858Y-50131553D01*
X103346197Y-50128043D01*
X103322993Y-50122231D01*
X103300471Y-50114173D01*
X103278847Y-50103945D01*
X103258330Y-50091648D01*
X103239117Y-50077398D01*
X103221393Y-50061334D01*
X103205329Y-50043610D01*
X103191079Y-50024397D01*
X103178782Y-50003880D01*
X103168554Y-49982256D01*
X103160496Y-49959734D01*
X103154684Y-49936530D01*
X103151174Y-49912869D01*
X103150000Y-49888977D01*
X103150000Y-48976477D01*
X103151174Y-48952585D01*
X103154684Y-48928924D01*
X103160496Y-48905720D01*
X103168554Y-48883198D01*
X103178782Y-48861574D01*
X103191079Y-48841057D01*
X103205329Y-48821844D01*
X103221393Y-48804120D01*
X103239117Y-48788056D01*
X103258330Y-48773806D01*
X103278847Y-48761509D01*
X103300471Y-48751281D01*
X103322993Y-48743223D01*
X103346197Y-48737411D01*
X103369858Y-48733901D01*
X103393750Y-48732727D01*
X103881250Y-48732727D01*
X103905142Y-48733901D01*
X103905142Y-48733901D01*
G37*
D11*
X103637500Y-49432727D03*
G04 #@! TD*
D10*
G04 #@! TO.C,R4*
G36*
X73685142Y-41501174D02*
X73708803Y-41504684D01*
X73732007Y-41510496D01*
X73754529Y-41518554D01*
X73776153Y-41528782D01*
X73796670Y-41541079D01*
X73815883Y-41555329D01*
X73833607Y-41571393D01*
X73849671Y-41589117D01*
X73863921Y-41608330D01*
X73876218Y-41628847D01*
X73886446Y-41650471D01*
X73894504Y-41672993D01*
X73900316Y-41696197D01*
X73903826Y-41719858D01*
X73905000Y-41743750D01*
X73905000Y-42656250D01*
X73903826Y-42680142D01*
X73900316Y-42703803D01*
X73894504Y-42727007D01*
X73886446Y-42749529D01*
X73876218Y-42771153D01*
X73863921Y-42791670D01*
X73849671Y-42810883D01*
X73833607Y-42828607D01*
X73815883Y-42844671D01*
X73796670Y-42858921D01*
X73776153Y-42871218D01*
X73754529Y-42881446D01*
X73732007Y-42889504D01*
X73708803Y-42895316D01*
X73685142Y-42898826D01*
X73661250Y-42900000D01*
X73173750Y-42900000D01*
X73149858Y-42898826D01*
X73126197Y-42895316D01*
X73102993Y-42889504D01*
X73080471Y-42881446D01*
X73058847Y-42871218D01*
X73038330Y-42858921D01*
X73019117Y-42844671D01*
X73001393Y-42828607D01*
X72985329Y-42810883D01*
X72971079Y-42791670D01*
X72958782Y-42771153D01*
X72948554Y-42749529D01*
X72940496Y-42727007D01*
X72934684Y-42703803D01*
X72931174Y-42680142D01*
X72930000Y-42656250D01*
X72930000Y-41743750D01*
X72931174Y-41719858D01*
X72934684Y-41696197D01*
X72940496Y-41672993D01*
X72948554Y-41650471D01*
X72958782Y-41628847D01*
X72971079Y-41608330D01*
X72985329Y-41589117D01*
X73001393Y-41571393D01*
X73019117Y-41555329D01*
X73038330Y-41541079D01*
X73058847Y-41528782D01*
X73080471Y-41518554D01*
X73102993Y-41510496D01*
X73126197Y-41504684D01*
X73149858Y-41501174D01*
X73173750Y-41500000D01*
X73661250Y-41500000D01*
X73685142Y-41501174D01*
X73685142Y-41501174D01*
G37*
D11*
X73417500Y-42200000D03*
D10*
G36*
X71810142Y-41501174D02*
X71833803Y-41504684D01*
X71857007Y-41510496D01*
X71879529Y-41518554D01*
X71901153Y-41528782D01*
X71921670Y-41541079D01*
X71940883Y-41555329D01*
X71958607Y-41571393D01*
X71974671Y-41589117D01*
X71988921Y-41608330D01*
X72001218Y-41628847D01*
X72011446Y-41650471D01*
X72019504Y-41672993D01*
X72025316Y-41696197D01*
X72028826Y-41719858D01*
X72030000Y-41743750D01*
X72030000Y-42656250D01*
X72028826Y-42680142D01*
X72025316Y-42703803D01*
X72019504Y-42727007D01*
X72011446Y-42749529D01*
X72001218Y-42771153D01*
X71988921Y-42791670D01*
X71974671Y-42810883D01*
X71958607Y-42828607D01*
X71940883Y-42844671D01*
X71921670Y-42858921D01*
X71901153Y-42871218D01*
X71879529Y-42881446D01*
X71857007Y-42889504D01*
X71833803Y-42895316D01*
X71810142Y-42898826D01*
X71786250Y-42900000D01*
X71298750Y-42900000D01*
X71274858Y-42898826D01*
X71251197Y-42895316D01*
X71227993Y-42889504D01*
X71205471Y-42881446D01*
X71183847Y-42871218D01*
X71163330Y-42858921D01*
X71144117Y-42844671D01*
X71126393Y-42828607D01*
X71110329Y-42810883D01*
X71096079Y-42791670D01*
X71083782Y-42771153D01*
X71073554Y-42749529D01*
X71065496Y-42727007D01*
X71059684Y-42703803D01*
X71056174Y-42680142D01*
X71055000Y-42656250D01*
X71055000Y-41743750D01*
X71056174Y-41719858D01*
X71059684Y-41696197D01*
X71065496Y-41672993D01*
X71073554Y-41650471D01*
X71083782Y-41628847D01*
X71096079Y-41608330D01*
X71110329Y-41589117D01*
X71126393Y-41571393D01*
X71144117Y-41555329D01*
X71163330Y-41541079D01*
X71183847Y-41528782D01*
X71205471Y-41518554D01*
X71227993Y-41510496D01*
X71251197Y-41504684D01*
X71274858Y-41501174D01*
X71298750Y-41500000D01*
X71786250Y-41500000D01*
X71810142Y-41501174D01*
X71810142Y-41501174D01*
G37*
D11*
X71542500Y-42200000D03*
G04 #@! TD*
D10*
G04 #@! TO.C,R5*
G36*
X102030142Y-51506628D02*
X102053803Y-51510138D01*
X102077007Y-51515950D01*
X102099529Y-51524008D01*
X102121153Y-51534236D01*
X102141670Y-51546533D01*
X102160883Y-51560783D01*
X102178607Y-51576847D01*
X102194671Y-51594571D01*
X102208921Y-51613784D01*
X102221218Y-51634301D01*
X102231446Y-51655925D01*
X102239504Y-51678447D01*
X102245316Y-51701651D01*
X102248826Y-51725312D01*
X102250000Y-51749204D01*
X102250000Y-52661704D01*
X102248826Y-52685596D01*
X102245316Y-52709257D01*
X102239504Y-52732461D01*
X102231446Y-52754983D01*
X102221218Y-52776607D01*
X102208921Y-52797124D01*
X102194671Y-52816337D01*
X102178607Y-52834061D01*
X102160883Y-52850125D01*
X102141670Y-52864375D01*
X102121153Y-52876672D01*
X102099529Y-52886900D01*
X102077007Y-52894958D01*
X102053803Y-52900770D01*
X102030142Y-52904280D01*
X102006250Y-52905454D01*
X101518750Y-52905454D01*
X101494858Y-52904280D01*
X101471197Y-52900770D01*
X101447993Y-52894958D01*
X101425471Y-52886900D01*
X101403847Y-52876672D01*
X101383330Y-52864375D01*
X101364117Y-52850125D01*
X101346393Y-52834061D01*
X101330329Y-52816337D01*
X101316079Y-52797124D01*
X101303782Y-52776607D01*
X101293554Y-52754983D01*
X101285496Y-52732461D01*
X101279684Y-52709257D01*
X101276174Y-52685596D01*
X101275000Y-52661704D01*
X101275000Y-51749204D01*
X101276174Y-51725312D01*
X101279684Y-51701651D01*
X101285496Y-51678447D01*
X101293554Y-51655925D01*
X101303782Y-51634301D01*
X101316079Y-51613784D01*
X101330329Y-51594571D01*
X101346393Y-51576847D01*
X101364117Y-51560783D01*
X101383330Y-51546533D01*
X101403847Y-51534236D01*
X101425471Y-51524008D01*
X101447993Y-51515950D01*
X101471197Y-51510138D01*
X101494858Y-51506628D01*
X101518750Y-51505454D01*
X102006250Y-51505454D01*
X102030142Y-51506628D01*
X102030142Y-51506628D01*
G37*
D11*
X101762500Y-52205454D03*
D10*
G36*
X103905142Y-51506628D02*
X103928803Y-51510138D01*
X103952007Y-51515950D01*
X103974529Y-51524008D01*
X103996153Y-51534236D01*
X104016670Y-51546533D01*
X104035883Y-51560783D01*
X104053607Y-51576847D01*
X104069671Y-51594571D01*
X104083921Y-51613784D01*
X104096218Y-51634301D01*
X104106446Y-51655925D01*
X104114504Y-51678447D01*
X104120316Y-51701651D01*
X104123826Y-51725312D01*
X104125000Y-51749204D01*
X104125000Y-52661704D01*
X104123826Y-52685596D01*
X104120316Y-52709257D01*
X104114504Y-52732461D01*
X104106446Y-52754983D01*
X104096218Y-52776607D01*
X104083921Y-52797124D01*
X104069671Y-52816337D01*
X104053607Y-52834061D01*
X104035883Y-52850125D01*
X104016670Y-52864375D01*
X103996153Y-52876672D01*
X103974529Y-52886900D01*
X103952007Y-52894958D01*
X103928803Y-52900770D01*
X103905142Y-52904280D01*
X103881250Y-52905454D01*
X103393750Y-52905454D01*
X103369858Y-52904280D01*
X103346197Y-52900770D01*
X103322993Y-52894958D01*
X103300471Y-52886900D01*
X103278847Y-52876672D01*
X103258330Y-52864375D01*
X103239117Y-52850125D01*
X103221393Y-52834061D01*
X103205329Y-52816337D01*
X103191079Y-52797124D01*
X103178782Y-52776607D01*
X103168554Y-52754983D01*
X103160496Y-52732461D01*
X103154684Y-52709257D01*
X103151174Y-52685596D01*
X103150000Y-52661704D01*
X103150000Y-51749204D01*
X103151174Y-51725312D01*
X103154684Y-51701651D01*
X103160496Y-51678447D01*
X103168554Y-51655925D01*
X103178782Y-51634301D01*
X103191079Y-51613784D01*
X103205329Y-51594571D01*
X103221393Y-51576847D01*
X103239117Y-51560783D01*
X103258330Y-51546533D01*
X103278847Y-51534236D01*
X103300471Y-51524008D01*
X103322993Y-51515950D01*
X103346197Y-51510138D01*
X103369858Y-51506628D01*
X103393750Y-51505454D01*
X103881250Y-51505454D01*
X103905142Y-51506628D01*
X103905142Y-51506628D01*
G37*
D11*
X103637500Y-52205454D03*
G04 #@! TD*
D10*
G04 #@! TO.C,R6*
G36*
X71810142Y-47101174D02*
X71833803Y-47104684D01*
X71857007Y-47110496D01*
X71879529Y-47118554D01*
X71901153Y-47128782D01*
X71921670Y-47141079D01*
X71940883Y-47155329D01*
X71958607Y-47171393D01*
X71974671Y-47189117D01*
X71988921Y-47208330D01*
X72001218Y-47228847D01*
X72011446Y-47250471D01*
X72019504Y-47272993D01*
X72025316Y-47296197D01*
X72028826Y-47319858D01*
X72030000Y-47343750D01*
X72030000Y-48256250D01*
X72028826Y-48280142D01*
X72025316Y-48303803D01*
X72019504Y-48327007D01*
X72011446Y-48349529D01*
X72001218Y-48371153D01*
X71988921Y-48391670D01*
X71974671Y-48410883D01*
X71958607Y-48428607D01*
X71940883Y-48444671D01*
X71921670Y-48458921D01*
X71901153Y-48471218D01*
X71879529Y-48481446D01*
X71857007Y-48489504D01*
X71833803Y-48495316D01*
X71810142Y-48498826D01*
X71786250Y-48500000D01*
X71298750Y-48500000D01*
X71274858Y-48498826D01*
X71251197Y-48495316D01*
X71227993Y-48489504D01*
X71205471Y-48481446D01*
X71183847Y-48471218D01*
X71163330Y-48458921D01*
X71144117Y-48444671D01*
X71126393Y-48428607D01*
X71110329Y-48410883D01*
X71096079Y-48391670D01*
X71083782Y-48371153D01*
X71073554Y-48349529D01*
X71065496Y-48327007D01*
X71059684Y-48303803D01*
X71056174Y-48280142D01*
X71055000Y-48256250D01*
X71055000Y-47343750D01*
X71056174Y-47319858D01*
X71059684Y-47296197D01*
X71065496Y-47272993D01*
X71073554Y-47250471D01*
X71083782Y-47228847D01*
X71096079Y-47208330D01*
X71110329Y-47189117D01*
X71126393Y-47171393D01*
X71144117Y-47155329D01*
X71163330Y-47141079D01*
X71183847Y-47128782D01*
X71205471Y-47118554D01*
X71227993Y-47110496D01*
X71251197Y-47104684D01*
X71274858Y-47101174D01*
X71298750Y-47100000D01*
X71786250Y-47100000D01*
X71810142Y-47101174D01*
X71810142Y-47101174D01*
G37*
D11*
X71542500Y-47800000D03*
D10*
G36*
X73685142Y-47101174D02*
X73708803Y-47104684D01*
X73732007Y-47110496D01*
X73754529Y-47118554D01*
X73776153Y-47128782D01*
X73796670Y-47141079D01*
X73815883Y-47155329D01*
X73833607Y-47171393D01*
X73849671Y-47189117D01*
X73863921Y-47208330D01*
X73876218Y-47228847D01*
X73886446Y-47250471D01*
X73894504Y-47272993D01*
X73900316Y-47296197D01*
X73903826Y-47319858D01*
X73905000Y-47343750D01*
X73905000Y-48256250D01*
X73903826Y-48280142D01*
X73900316Y-48303803D01*
X73894504Y-48327007D01*
X73886446Y-48349529D01*
X73876218Y-48371153D01*
X73863921Y-48391670D01*
X73849671Y-48410883D01*
X73833607Y-48428607D01*
X73815883Y-48444671D01*
X73796670Y-48458921D01*
X73776153Y-48471218D01*
X73754529Y-48481446D01*
X73732007Y-48489504D01*
X73708803Y-48495316D01*
X73685142Y-48498826D01*
X73661250Y-48500000D01*
X73173750Y-48500000D01*
X73149858Y-48498826D01*
X73126197Y-48495316D01*
X73102993Y-48489504D01*
X73080471Y-48481446D01*
X73058847Y-48471218D01*
X73038330Y-48458921D01*
X73019117Y-48444671D01*
X73001393Y-48428607D01*
X72985329Y-48410883D01*
X72971079Y-48391670D01*
X72958782Y-48371153D01*
X72948554Y-48349529D01*
X72940496Y-48327007D01*
X72934684Y-48303803D01*
X72931174Y-48280142D01*
X72930000Y-48256250D01*
X72930000Y-47343750D01*
X72931174Y-47319858D01*
X72934684Y-47296197D01*
X72940496Y-47272993D01*
X72948554Y-47250471D01*
X72958782Y-47228847D01*
X72971079Y-47208330D01*
X72985329Y-47189117D01*
X73001393Y-47171393D01*
X73019117Y-47155329D01*
X73038330Y-47141079D01*
X73058847Y-47128782D01*
X73080471Y-47118554D01*
X73102993Y-47110496D01*
X73126197Y-47104684D01*
X73149858Y-47101174D01*
X73173750Y-47100000D01*
X73661250Y-47100000D01*
X73685142Y-47101174D01*
X73685142Y-47101174D01*
G37*
D11*
X73417500Y-47800000D03*
G04 #@! TD*
D10*
G04 #@! TO.C,R7*
G36*
X103905142Y-54279355D02*
X103928803Y-54282865D01*
X103952007Y-54288677D01*
X103974529Y-54296735D01*
X103996153Y-54306963D01*
X104016670Y-54319260D01*
X104035883Y-54333510D01*
X104053607Y-54349574D01*
X104069671Y-54367298D01*
X104083921Y-54386511D01*
X104096218Y-54407028D01*
X104106446Y-54428652D01*
X104114504Y-54451174D01*
X104120316Y-54474378D01*
X104123826Y-54498039D01*
X104125000Y-54521931D01*
X104125000Y-55434431D01*
X104123826Y-55458323D01*
X104120316Y-55481984D01*
X104114504Y-55505188D01*
X104106446Y-55527710D01*
X104096218Y-55549334D01*
X104083921Y-55569851D01*
X104069671Y-55589064D01*
X104053607Y-55606788D01*
X104035883Y-55622852D01*
X104016670Y-55637102D01*
X103996153Y-55649399D01*
X103974529Y-55659627D01*
X103952007Y-55667685D01*
X103928803Y-55673497D01*
X103905142Y-55677007D01*
X103881250Y-55678181D01*
X103393750Y-55678181D01*
X103369858Y-55677007D01*
X103346197Y-55673497D01*
X103322993Y-55667685D01*
X103300471Y-55659627D01*
X103278847Y-55649399D01*
X103258330Y-55637102D01*
X103239117Y-55622852D01*
X103221393Y-55606788D01*
X103205329Y-55589064D01*
X103191079Y-55569851D01*
X103178782Y-55549334D01*
X103168554Y-55527710D01*
X103160496Y-55505188D01*
X103154684Y-55481984D01*
X103151174Y-55458323D01*
X103150000Y-55434431D01*
X103150000Y-54521931D01*
X103151174Y-54498039D01*
X103154684Y-54474378D01*
X103160496Y-54451174D01*
X103168554Y-54428652D01*
X103178782Y-54407028D01*
X103191079Y-54386511D01*
X103205329Y-54367298D01*
X103221393Y-54349574D01*
X103239117Y-54333510D01*
X103258330Y-54319260D01*
X103278847Y-54306963D01*
X103300471Y-54296735D01*
X103322993Y-54288677D01*
X103346197Y-54282865D01*
X103369858Y-54279355D01*
X103393750Y-54278181D01*
X103881250Y-54278181D01*
X103905142Y-54279355D01*
X103905142Y-54279355D01*
G37*
D11*
X103637500Y-54978181D03*
D10*
G36*
X102030142Y-54279355D02*
X102053803Y-54282865D01*
X102077007Y-54288677D01*
X102099529Y-54296735D01*
X102121153Y-54306963D01*
X102141670Y-54319260D01*
X102160883Y-54333510D01*
X102178607Y-54349574D01*
X102194671Y-54367298D01*
X102208921Y-54386511D01*
X102221218Y-54407028D01*
X102231446Y-54428652D01*
X102239504Y-54451174D01*
X102245316Y-54474378D01*
X102248826Y-54498039D01*
X102250000Y-54521931D01*
X102250000Y-55434431D01*
X102248826Y-55458323D01*
X102245316Y-55481984D01*
X102239504Y-55505188D01*
X102231446Y-55527710D01*
X102221218Y-55549334D01*
X102208921Y-55569851D01*
X102194671Y-55589064D01*
X102178607Y-55606788D01*
X102160883Y-55622852D01*
X102141670Y-55637102D01*
X102121153Y-55649399D01*
X102099529Y-55659627D01*
X102077007Y-55667685D01*
X102053803Y-55673497D01*
X102030142Y-55677007D01*
X102006250Y-55678181D01*
X101518750Y-55678181D01*
X101494858Y-55677007D01*
X101471197Y-55673497D01*
X101447993Y-55667685D01*
X101425471Y-55659627D01*
X101403847Y-55649399D01*
X101383330Y-55637102D01*
X101364117Y-55622852D01*
X101346393Y-55606788D01*
X101330329Y-55589064D01*
X101316079Y-55569851D01*
X101303782Y-55549334D01*
X101293554Y-55527710D01*
X101285496Y-55505188D01*
X101279684Y-55481984D01*
X101276174Y-55458323D01*
X101275000Y-55434431D01*
X101275000Y-54521931D01*
X101276174Y-54498039D01*
X101279684Y-54474378D01*
X101285496Y-54451174D01*
X101293554Y-54428652D01*
X101303782Y-54407028D01*
X101316079Y-54386511D01*
X101330329Y-54367298D01*
X101346393Y-54349574D01*
X101364117Y-54333510D01*
X101383330Y-54319260D01*
X101403847Y-54306963D01*
X101425471Y-54296735D01*
X101447993Y-54288677D01*
X101471197Y-54282865D01*
X101494858Y-54279355D01*
X101518750Y-54278181D01*
X102006250Y-54278181D01*
X102030142Y-54279355D01*
X102030142Y-54279355D01*
G37*
D11*
X101762500Y-54978181D03*
G04 #@! TD*
D10*
G04 #@! TO.C,R8*
G36*
X71810142Y-52701174D02*
X71833803Y-52704684D01*
X71857007Y-52710496D01*
X71879529Y-52718554D01*
X71901153Y-52728782D01*
X71921670Y-52741079D01*
X71940883Y-52755329D01*
X71958607Y-52771393D01*
X71974671Y-52789117D01*
X71988921Y-52808330D01*
X72001218Y-52828847D01*
X72011446Y-52850471D01*
X72019504Y-52872993D01*
X72025316Y-52896197D01*
X72028826Y-52919858D01*
X72030000Y-52943750D01*
X72030000Y-53856250D01*
X72028826Y-53880142D01*
X72025316Y-53903803D01*
X72019504Y-53927007D01*
X72011446Y-53949529D01*
X72001218Y-53971153D01*
X71988921Y-53991670D01*
X71974671Y-54010883D01*
X71958607Y-54028607D01*
X71940883Y-54044671D01*
X71921670Y-54058921D01*
X71901153Y-54071218D01*
X71879529Y-54081446D01*
X71857007Y-54089504D01*
X71833803Y-54095316D01*
X71810142Y-54098826D01*
X71786250Y-54100000D01*
X71298750Y-54100000D01*
X71274858Y-54098826D01*
X71251197Y-54095316D01*
X71227993Y-54089504D01*
X71205471Y-54081446D01*
X71183847Y-54071218D01*
X71163330Y-54058921D01*
X71144117Y-54044671D01*
X71126393Y-54028607D01*
X71110329Y-54010883D01*
X71096079Y-53991670D01*
X71083782Y-53971153D01*
X71073554Y-53949529D01*
X71065496Y-53927007D01*
X71059684Y-53903803D01*
X71056174Y-53880142D01*
X71055000Y-53856250D01*
X71055000Y-52943750D01*
X71056174Y-52919858D01*
X71059684Y-52896197D01*
X71065496Y-52872993D01*
X71073554Y-52850471D01*
X71083782Y-52828847D01*
X71096079Y-52808330D01*
X71110329Y-52789117D01*
X71126393Y-52771393D01*
X71144117Y-52755329D01*
X71163330Y-52741079D01*
X71183847Y-52728782D01*
X71205471Y-52718554D01*
X71227993Y-52710496D01*
X71251197Y-52704684D01*
X71274858Y-52701174D01*
X71298750Y-52700000D01*
X71786250Y-52700000D01*
X71810142Y-52701174D01*
X71810142Y-52701174D01*
G37*
D11*
X71542500Y-53400000D03*
D10*
G36*
X73685142Y-52701174D02*
X73708803Y-52704684D01*
X73732007Y-52710496D01*
X73754529Y-52718554D01*
X73776153Y-52728782D01*
X73796670Y-52741079D01*
X73815883Y-52755329D01*
X73833607Y-52771393D01*
X73849671Y-52789117D01*
X73863921Y-52808330D01*
X73876218Y-52828847D01*
X73886446Y-52850471D01*
X73894504Y-52872993D01*
X73900316Y-52896197D01*
X73903826Y-52919858D01*
X73905000Y-52943750D01*
X73905000Y-53856250D01*
X73903826Y-53880142D01*
X73900316Y-53903803D01*
X73894504Y-53927007D01*
X73886446Y-53949529D01*
X73876218Y-53971153D01*
X73863921Y-53991670D01*
X73849671Y-54010883D01*
X73833607Y-54028607D01*
X73815883Y-54044671D01*
X73796670Y-54058921D01*
X73776153Y-54071218D01*
X73754529Y-54081446D01*
X73732007Y-54089504D01*
X73708803Y-54095316D01*
X73685142Y-54098826D01*
X73661250Y-54100000D01*
X73173750Y-54100000D01*
X73149858Y-54098826D01*
X73126197Y-54095316D01*
X73102993Y-54089504D01*
X73080471Y-54081446D01*
X73058847Y-54071218D01*
X73038330Y-54058921D01*
X73019117Y-54044671D01*
X73001393Y-54028607D01*
X72985329Y-54010883D01*
X72971079Y-53991670D01*
X72958782Y-53971153D01*
X72948554Y-53949529D01*
X72940496Y-53927007D01*
X72934684Y-53903803D01*
X72931174Y-53880142D01*
X72930000Y-53856250D01*
X72930000Y-52943750D01*
X72931174Y-52919858D01*
X72934684Y-52896197D01*
X72940496Y-52872993D01*
X72948554Y-52850471D01*
X72958782Y-52828847D01*
X72971079Y-52808330D01*
X72985329Y-52789117D01*
X73001393Y-52771393D01*
X73019117Y-52755329D01*
X73038330Y-52741079D01*
X73058847Y-52728782D01*
X73080471Y-52718554D01*
X73102993Y-52710496D01*
X73126197Y-52704684D01*
X73149858Y-52701174D01*
X73173750Y-52700000D01*
X73661250Y-52700000D01*
X73685142Y-52701174D01*
X73685142Y-52701174D01*
G37*
D11*
X73417500Y-53400000D03*
G04 #@! TD*
D10*
G04 #@! TO.C,R9*
G36*
X103905142Y-57052082D02*
X103928803Y-57055592D01*
X103952007Y-57061404D01*
X103974529Y-57069462D01*
X103996153Y-57079690D01*
X104016670Y-57091987D01*
X104035883Y-57106237D01*
X104053607Y-57122301D01*
X104069671Y-57140025D01*
X104083921Y-57159238D01*
X104096218Y-57179755D01*
X104106446Y-57201379D01*
X104114504Y-57223901D01*
X104120316Y-57247105D01*
X104123826Y-57270766D01*
X104125000Y-57294658D01*
X104125000Y-58207158D01*
X104123826Y-58231050D01*
X104120316Y-58254711D01*
X104114504Y-58277915D01*
X104106446Y-58300437D01*
X104096218Y-58322061D01*
X104083921Y-58342578D01*
X104069671Y-58361791D01*
X104053607Y-58379515D01*
X104035883Y-58395579D01*
X104016670Y-58409829D01*
X103996153Y-58422126D01*
X103974529Y-58432354D01*
X103952007Y-58440412D01*
X103928803Y-58446224D01*
X103905142Y-58449734D01*
X103881250Y-58450908D01*
X103393750Y-58450908D01*
X103369858Y-58449734D01*
X103346197Y-58446224D01*
X103322993Y-58440412D01*
X103300471Y-58432354D01*
X103278847Y-58422126D01*
X103258330Y-58409829D01*
X103239117Y-58395579D01*
X103221393Y-58379515D01*
X103205329Y-58361791D01*
X103191079Y-58342578D01*
X103178782Y-58322061D01*
X103168554Y-58300437D01*
X103160496Y-58277915D01*
X103154684Y-58254711D01*
X103151174Y-58231050D01*
X103150000Y-58207158D01*
X103150000Y-57294658D01*
X103151174Y-57270766D01*
X103154684Y-57247105D01*
X103160496Y-57223901D01*
X103168554Y-57201379D01*
X103178782Y-57179755D01*
X103191079Y-57159238D01*
X103205329Y-57140025D01*
X103221393Y-57122301D01*
X103239117Y-57106237D01*
X103258330Y-57091987D01*
X103278847Y-57079690D01*
X103300471Y-57069462D01*
X103322993Y-57061404D01*
X103346197Y-57055592D01*
X103369858Y-57052082D01*
X103393750Y-57050908D01*
X103881250Y-57050908D01*
X103905142Y-57052082D01*
X103905142Y-57052082D01*
G37*
D11*
X103637500Y-57750908D03*
D10*
G36*
X102030142Y-57052082D02*
X102053803Y-57055592D01*
X102077007Y-57061404D01*
X102099529Y-57069462D01*
X102121153Y-57079690D01*
X102141670Y-57091987D01*
X102160883Y-57106237D01*
X102178607Y-57122301D01*
X102194671Y-57140025D01*
X102208921Y-57159238D01*
X102221218Y-57179755D01*
X102231446Y-57201379D01*
X102239504Y-57223901D01*
X102245316Y-57247105D01*
X102248826Y-57270766D01*
X102250000Y-57294658D01*
X102250000Y-58207158D01*
X102248826Y-58231050D01*
X102245316Y-58254711D01*
X102239504Y-58277915D01*
X102231446Y-58300437D01*
X102221218Y-58322061D01*
X102208921Y-58342578D01*
X102194671Y-58361791D01*
X102178607Y-58379515D01*
X102160883Y-58395579D01*
X102141670Y-58409829D01*
X102121153Y-58422126D01*
X102099529Y-58432354D01*
X102077007Y-58440412D01*
X102053803Y-58446224D01*
X102030142Y-58449734D01*
X102006250Y-58450908D01*
X101518750Y-58450908D01*
X101494858Y-58449734D01*
X101471197Y-58446224D01*
X101447993Y-58440412D01*
X101425471Y-58432354D01*
X101403847Y-58422126D01*
X101383330Y-58409829D01*
X101364117Y-58395579D01*
X101346393Y-58379515D01*
X101330329Y-58361791D01*
X101316079Y-58342578D01*
X101303782Y-58322061D01*
X101293554Y-58300437D01*
X101285496Y-58277915D01*
X101279684Y-58254711D01*
X101276174Y-58231050D01*
X101275000Y-58207158D01*
X101275000Y-57294658D01*
X101276174Y-57270766D01*
X101279684Y-57247105D01*
X101285496Y-57223901D01*
X101293554Y-57201379D01*
X101303782Y-57179755D01*
X101316079Y-57159238D01*
X101330329Y-57140025D01*
X101346393Y-57122301D01*
X101364117Y-57106237D01*
X101383330Y-57091987D01*
X101403847Y-57079690D01*
X101425471Y-57069462D01*
X101447993Y-57061404D01*
X101471197Y-57055592D01*
X101494858Y-57052082D01*
X101518750Y-57050908D01*
X102006250Y-57050908D01*
X102030142Y-57052082D01*
X102030142Y-57052082D01*
G37*
D11*
X101762500Y-57750908D03*
G04 #@! TD*
D10*
G04 #@! TO.C,R10*
G36*
X71830142Y-58401174D02*
X71853803Y-58404684D01*
X71877007Y-58410496D01*
X71899529Y-58418554D01*
X71921153Y-58428782D01*
X71941670Y-58441079D01*
X71960883Y-58455329D01*
X71978607Y-58471393D01*
X71994671Y-58489117D01*
X72008921Y-58508330D01*
X72021218Y-58528847D01*
X72031446Y-58550471D01*
X72039504Y-58572993D01*
X72045316Y-58596197D01*
X72048826Y-58619858D01*
X72050000Y-58643750D01*
X72050000Y-59556250D01*
X72048826Y-59580142D01*
X72045316Y-59603803D01*
X72039504Y-59627007D01*
X72031446Y-59649529D01*
X72021218Y-59671153D01*
X72008921Y-59691670D01*
X71994671Y-59710883D01*
X71978607Y-59728607D01*
X71960883Y-59744671D01*
X71941670Y-59758921D01*
X71921153Y-59771218D01*
X71899529Y-59781446D01*
X71877007Y-59789504D01*
X71853803Y-59795316D01*
X71830142Y-59798826D01*
X71806250Y-59800000D01*
X71318750Y-59800000D01*
X71294858Y-59798826D01*
X71271197Y-59795316D01*
X71247993Y-59789504D01*
X71225471Y-59781446D01*
X71203847Y-59771218D01*
X71183330Y-59758921D01*
X71164117Y-59744671D01*
X71146393Y-59728607D01*
X71130329Y-59710883D01*
X71116079Y-59691670D01*
X71103782Y-59671153D01*
X71093554Y-59649529D01*
X71085496Y-59627007D01*
X71079684Y-59603803D01*
X71076174Y-59580142D01*
X71075000Y-59556250D01*
X71075000Y-58643750D01*
X71076174Y-58619858D01*
X71079684Y-58596197D01*
X71085496Y-58572993D01*
X71093554Y-58550471D01*
X71103782Y-58528847D01*
X71116079Y-58508330D01*
X71130329Y-58489117D01*
X71146393Y-58471393D01*
X71164117Y-58455329D01*
X71183330Y-58441079D01*
X71203847Y-58428782D01*
X71225471Y-58418554D01*
X71247993Y-58410496D01*
X71271197Y-58404684D01*
X71294858Y-58401174D01*
X71318750Y-58400000D01*
X71806250Y-58400000D01*
X71830142Y-58401174D01*
X71830142Y-58401174D01*
G37*
D11*
X71562500Y-59100000D03*
D10*
G36*
X73705142Y-58401174D02*
X73728803Y-58404684D01*
X73752007Y-58410496D01*
X73774529Y-58418554D01*
X73796153Y-58428782D01*
X73816670Y-58441079D01*
X73835883Y-58455329D01*
X73853607Y-58471393D01*
X73869671Y-58489117D01*
X73883921Y-58508330D01*
X73896218Y-58528847D01*
X73906446Y-58550471D01*
X73914504Y-58572993D01*
X73920316Y-58596197D01*
X73923826Y-58619858D01*
X73925000Y-58643750D01*
X73925000Y-59556250D01*
X73923826Y-59580142D01*
X73920316Y-59603803D01*
X73914504Y-59627007D01*
X73906446Y-59649529D01*
X73896218Y-59671153D01*
X73883921Y-59691670D01*
X73869671Y-59710883D01*
X73853607Y-59728607D01*
X73835883Y-59744671D01*
X73816670Y-59758921D01*
X73796153Y-59771218D01*
X73774529Y-59781446D01*
X73752007Y-59789504D01*
X73728803Y-59795316D01*
X73705142Y-59798826D01*
X73681250Y-59800000D01*
X73193750Y-59800000D01*
X73169858Y-59798826D01*
X73146197Y-59795316D01*
X73122993Y-59789504D01*
X73100471Y-59781446D01*
X73078847Y-59771218D01*
X73058330Y-59758921D01*
X73039117Y-59744671D01*
X73021393Y-59728607D01*
X73005329Y-59710883D01*
X72991079Y-59691670D01*
X72978782Y-59671153D01*
X72968554Y-59649529D01*
X72960496Y-59627007D01*
X72954684Y-59603803D01*
X72951174Y-59580142D01*
X72950000Y-59556250D01*
X72950000Y-58643750D01*
X72951174Y-58619858D01*
X72954684Y-58596197D01*
X72960496Y-58572993D01*
X72968554Y-58550471D01*
X72978782Y-58528847D01*
X72991079Y-58508330D01*
X73005329Y-58489117D01*
X73021393Y-58471393D01*
X73039117Y-58455329D01*
X73058330Y-58441079D01*
X73078847Y-58428782D01*
X73100471Y-58418554D01*
X73122993Y-58410496D01*
X73146197Y-58404684D01*
X73169858Y-58401174D01*
X73193750Y-58400000D01*
X73681250Y-58400000D01*
X73705142Y-58401174D01*
X73705142Y-58401174D01*
G37*
D11*
X73437500Y-59100000D03*
G04 #@! TD*
D10*
G04 #@! TO.C,R11*
G36*
X103905142Y-59824809D02*
X103928803Y-59828319D01*
X103952007Y-59834131D01*
X103974529Y-59842189D01*
X103996153Y-59852417D01*
X104016670Y-59864714D01*
X104035883Y-59878964D01*
X104053607Y-59895028D01*
X104069671Y-59912752D01*
X104083921Y-59931965D01*
X104096218Y-59952482D01*
X104106446Y-59974106D01*
X104114504Y-59996628D01*
X104120316Y-60019832D01*
X104123826Y-60043493D01*
X104125000Y-60067385D01*
X104125000Y-60979885D01*
X104123826Y-61003777D01*
X104120316Y-61027438D01*
X104114504Y-61050642D01*
X104106446Y-61073164D01*
X104096218Y-61094788D01*
X104083921Y-61115305D01*
X104069671Y-61134518D01*
X104053607Y-61152242D01*
X104035883Y-61168306D01*
X104016670Y-61182556D01*
X103996153Y-61194853D01*
X103974529Y-61205081D01*
X103952007Y-61213139D01*
X103928803Y-61218951D01*
X103905142Y-61222461D01*
X103881250Y-61223635D01*
X103393750Y-61223635D01*
X103369858Y-61222461D01*
X103346197Y-61218951D01*
X103322993Y-61213139D01*
X103300471Y-61205081D01*
X103278847Y-61194853D01*
X103258330Y-61182556D01*
X103239117Y-61168306D01*
X103221393Y-61152242D01*
X103205329Y-61134518D01*
X103191079Y-61115305D01*
X103178782Y-61094788D01*
X103168554Y-61073164D01*
X103160496Y-61050642D01*
X103154684Y-61027438D01*
X103151174Y-61003777D01*
X103150000Y-60979885D01*
X103150000Y-60067385D01*
X103151174Y-60043493D01*
X103154684Y-60019832D01*
X103160496Y-59996628D01*
X103168554Y-59974106D01*
X103178782Y-59952482D01*
X103191079Y-59931965D01*
X103205329Y-59912752D01*
X103221393Y-59895028D01*
X103239117Y-59878964D01*
X103258330Y-59864714D01*
X103278847Y-59852417D01*
X103300471Y-59842189D01*
X103322993Y-59834131D01*
X103346197Y-59828319D01*
X103369858Y-59824809D01*
X103393750Y-59823635D01*
X103881250Y-59823635D01*
X103905142Y-59824809D01*
X103905142Y-59824809D01*
G37*
D11*
X103637500Y-60523635D03*
D10*
G36*
X102030142Y-59824809D02*
X102053803Y-59828319D01*
X102077007Y-59834131D01*
X102099529Y-59842189D01*
X102121153Y-59852417D01*
X102141670Y-59864714D01*
X102160883Y-59878964D01*
X102178607Y-59895028D01*
X102194671Y-59912752D01*
X102208921Y-59931965D01*
X102221218Y-59952482D01*
X102231446Y-59974106D01*
X102239504Y-59996628D01*
X102245316Y-60019832D01*
X102248826Y-60043493D01*
X102250000Y-60067385D01*
X102250000Y-60979885D01*
X102248826Y-61003777D01*
X102245316Y-61027438D01*
X102239504Y-61050642D01*
X102231446Y-61073164D01*
X102221218Y-61094788D01*
X102208921Y-61115305D01*
X102194671Y-61134518D01*
X102178607Y-61152242D01*
X102160883Y-61168306D01*
X102141670Y-61182556D01*
X102121153Y-61194853D01*
X102099529Y-61205081D01*
X102077007Y-61213139D01*
X102053803Y-61218951D01*
X102030142Y-61222461D01*
X102006250Y-61223635D01*
X101518750Y-61223635D01*
X101494858Y-61222461D01*
X101471197Y-61218951D01*
X101447993Y-61213139D01*
X101425471Y-61205081D01*
X101403847Y-61194853D01*
X101383330Y-61182556D01*
X101364117Y-61168306D01*
X101346393Y-61152242D01*
X101330329Y-61134518D01*
X101316079Y-61115305D01*
X101303782Y-61094788D01*
X101293554Y-61073164D01*
X101285496Y-61050642D01*
X101279684Y-61027438D01*
X101276174Y-61003777D01*
X101275000Y-60979885D01*
X101275000Y-60067385D01*
X101276174Y-60043493D01*
X101279684Y-60019832D01*
X101285496Y-59996628D01*
X101293554Y-59974106D01*
X101303782Y-59952482D01*
X101316079Y-59931965D01*
X101330329Y-59912752D01*
X101346393Y-59895028D01*
X101364117Y-59878964D01*
X101383330Y-59864714D01*
X101403847Y-59852417D01*
X101425471Y-59842189D01*
X101447993Y-59834131D01*
X101471197Y-59828319D01*
X101494858Y-59824809D01*
X101518750Y-59823635D01*
X102006250Y-59823635D01*
X102030142Y-59824809D01*
X102030142Y-59824809D01*
G37*
D11*
X101762500Y-60523635D03*
G04 #@! TD*
D10*
G04 #@! TO.C,R12*
G36*
X71810142Y-64022905D02*
X71833803Y-64026415D01*
X71857007Y-64032227D01*
X71879529Y-64040285D01*
X71901153Y-64050513D01*
X71921670Y-64062810D01*
X71940883Y-64077060D01*
X71958607Y-64093124D01*
X71974671Y-64110848D01*
X71988921Y-64130061D01*
X72001218Y-64150578D01*
X72011446Y-64172202D01*
X72019504Y-64194724D01*
X72025316Y-64217928D01*
X72028826Y-64241589D01*
X72030000Y-64265481D01*
X72030000Y-65177981D01*
X72028826Y-65201873D01*
X72025316Y-65225534D01*
X72019504Y-65248738D01*
X72011446Y-65271260D01*
X72001218Y-65292884D01*
X71988921Y-65313401D01*
X71974671Y-65332614D01*
X71958607Y-65350338D01*
X71940883Y-65366402D01*
X71921670Y-65380652D01*
X71901153Y-65392949D01*
X71879529Y-65403177D01*
X71857007Y-65411235D01*
X71833803Y-65417047D01*
X71810142Y-65420557D01*
X71786250Y-65421731D01*
X71298750Y-65421731D01*
X71274858Y-65420557D01*
X71251197Y-65417047D01*
X71227993Y-65411235D01*
X71205471Y-65403177D01*
X71183847Y-65392949D01*
X71163330Y-65380652D01*
X71144117Y-65366402D01*
X71126393Y-65350338D01*
X71110329Y-65332614D01*
X71096079Y-65313401D01*
X71083782Y-65292884D01*
X71073554Y-65271260D01*
X71065496Y-65248738D01*
X71059684Y-65225534D01*
X71056174Y-65201873D01*
X71055000Y-65177981D01*
X71055000Y-64265481D01*
X71056174Y-64241589D01*
X71059684Y-64217928D01*
X71065496Y-64194724D01*
X71073554Y-64172202D01*
X71083782Y-64150578D01*
X71096079Y-64130061D01*
X71110329Y-64110848D01*
X71126393Y-64093124D01*
X71144117Y-64077060D01*
X71163330Y-64062810D01*
X71183847Y-64050513D01*
X71205471Y-64040285D01*
X71227993Y-64032227D01*
X71251197Y-64026415D01*
X71274858Y-64022905D01*
X71298750Y-64021731D01*
X71786250Y-64021731D01*
X71810142Y-64022905D01*
X71810142Y-64022905D01*
G37*
D11*
X71542500Y-64721731D03*
D10*
G36*
X73685142Y-64022905D02*
X73708803Y-64026415D01*
X73732007Y-64032227D01*
X73754529Y-64040285D01*
X73776153Y-64050513D01*
X73796670Y-64062810D01*
X73815883Y-64077060D01*
X73833607Y-64093124D01*
X73849671Y-64110848D01*
X73863921Y-64130061D01*
X73876218Y-64150578D01*
X73886446Y-64172202D01*
X73894504Y-64194724D01*
X73900316Y-64217928D01*
X73903826Y-64241589D01*
X73905000Y-64265481D01*
X73905000Y-65177981D01*
X73903826Y-65201873D01*
X73900316Y-65225534D01*
X73894504Y-65248738D01*
X73886446Y-65271260D01*
X73876218Y-65292884D01*
X73863921Y-65313401D01*
X73849671Y-65332614D01*
X73833607Y-65350338D01*
X73815883Y-65366402D01*
X73796670Y-65380652D01*
X73776153Y-65392949D01*
X73754529Y-65403177D01*
X73732007Y-65411235D01*
X73708803Y-65417047D01*
X73685142Y-65420557D01*
X73661250Y-65421731D01*
X73173750Y-65421731D01*
X73149858Y-65420557D01*
X73126197Y-65417047D01*
X73102993Y-65411235D01*
X73080471Y-65403177D01*
X73058847Y-65392949D01*
X73038330Y-65380652D01*
X73019117Y-65366402D01*
X73001393Y-65350338D01*
X72985329Y-65332614D01*
X72971079Y-65313401D01*
X72958782Y-65292884D01*
X72948554Y-65271260D01*
X72940496Y-65248738D01*
X72934684Y-65225534D01*
X72931174Y-65201873D01*
X72930000Y-65177981D01*
X72930000Y-64265481D01*
X72931174Y-64241589D01*
X72934684Y-64217928D01*
X72940496Y-64194724D01*
X72948554Y-64172202D01*
X72958782Y-64150578D01*
X72971079Y-64130061D01*
X72985329Y-64110848D01*
X73001393Y-64093124D01*
X73019117Y-64077060D01*
X73038330Y-64062810D01*
X73058847Y-64050513D01*
X73080471Y-64040285D01*
X73102993Y-64032227D01*
X73126197Y-64026415D01*
X73149858Y-64022905D01*
X73173750Y-64021731D01*
X73661250Y-64021731D01*
X73685142Y-64022905D01*
X73685142Y-64022905D01*
G37*
D11*
X73417500Y-64721731D03*
G04 #@! TD*
D10*
G04 #@! TO.C,R13*
G36*
X103905142Y-62597536D02*
X103928803Y-62601046D01*
X103952007Y-62606858D01*
X103974529Y-62614916D01*
X103996153Y-62625144D01*
X104016670Y-62637441D01*
X104035883Y-62651691D01*
X104053607Y-62667755D01*
X104069671Y-62685479D01*
X104083921Y-62704692D01*
X104096218Y-62725209D01*
X104106446Y-62746833D01*
X104114504Y-62769355D01*
X104120316Y-62792559D01*
X104123826Y-62816220D01*
X104125000Y-62840112D01*
X104125000Y-63752612D01*
X104123826Y-63776504D01*
X104120316Y-63800165D01*
X104114504Y-63823369D01*
X104106446Y-63845891D01*
X104096218Y-63867515D01*
X104083921Y-63888032D01*
X104069671Y-63907245D01*
X104053607Y-63924969D01*
X104035883Y-63941033D01*
X104016670Y-63955283D01*
X103996153Y-63967580D01*
X103974529Y-63977808D01*
X103952007Y-63985866D01*
X103928803Y-63991678D01*
X103905142Y-63995188D01*
X103881250Y-63996362D01*
X103393750Y-63996362D01*
X103369858Y-63995188D01*
X103346197Y-63991678D01*
X103322993Y-63985866D01*
X103300471Y-63977808D01*
X103278847Y-63967580D01*
X103258330Y-63955283D01*
X103239117Y-63941033D01*
X103221393Y-63924969D01*
X103205329Y-63907245D01*
X103191079Y-63888032D01*
X103178782Y-63867515D01*
X103168554Y-63845891D01*
X103160496Y-63823369D01*
X103154684Y-63800165D01*
X103151174Y-63776504D01*
X103150000Y-63752612D01*
X103150000Y-62840112D01*
X103151174Y-62816220D01*
X103154684Y-62792559D01*
X103160496Y-62769355D01*
X103168554Y-62746833D01*
X103178782Y-62725209D01*
X103191079Y-62704692D01*
X103205329Y-62685479D01*
X103221393Y-62667755D01*
X103239117Y-62651691D01*
X103258330Y-62637441D01*
X103278847Y-62625144D01*
X103300471Y-62614916D01*
X103322993Y-62606858D01*
X103346197Y-62601046D01*
X103369858Y-62597536D01*
X103393750Y-62596362D01*
X103881250Y-62596362D01*
X103905142Y-62597536D01*
X103905142Y-62597536D01*
G37*
D11*
X103637500Y-63296362D03*
D10*
G36*
X102030142Y-62597536D02*
X102053803Y-62601046D01*
X102077007Y-62606858D01*
X102099529Y-62614916D01*
X102121153Y-62625144D01*
X102141670Y-62637441D01*
X102160883Y-62651691D01*
X102178607Y-62667755D01*
X102194671Y-62685479D01*
X102208921Y-62704692D01*
X102221218Y-62725209D01*
X102231446Y-62746833D01*
X102239504Y-62769355D01*
X102245316Y-62792559D01*
X102248826Y-62816220D01*
X102250000Y-62840112D01*
X102250000Y-63752612D01*
X102248826Y-63776504D01*
X102245316Y-63800165D01*
X102239504Y-63823369D01*
X102231446Y-63845891D01*
X102221218Y-63867515D01*
X102208921Y-63888032D01*
X102194671Y-63907245D01*
X102178607Y-63924969D01*
X102160883Y-63941033D01*
X102141670Y-63955283D01*
X102121153Y-63967580D01*
X102099529Y-63977808D01*
X102077007Y-63985866D01*
X102053803Y-63991678D01*
X102030142Y-63995188D01*
X102006250Y-63996362D01*
X101518750Y-63996362D01*
X101494858Y-63995188D01*
X101471197Y-63991678D01*
X101447993Y-63985866D01*
X101425471Y-63977808D01*
X101403847Y-63967580D01*
X101383330Y-63955283D01*
X101364117Y-63941033D01*
X101346393Y-63924969D01*
X101330329Y-63907245D01*
X101316079Y-63888032D01*
X101303782Y-63867515D01*
X101293554Y-63845891D01*
X101285496Y-63823369D01*
X101279684Y-63800165D01*
X101276174Y-63776504D01*
X101275000Y-63752612D01*
X101275000Y-62840112D01*
X101276174Y-62816220D01*
X101279684Y-62792559D01*
X101285496Y-62769355D01*
X101293554Y-62746833D01*
X101303782Y-62725209D01*
X101316079Y-62704692D01*
X101330329Y-62685479D01*
X101346393Y-62667755D01*
X101364117Y-62651691D01*
X101383330Y-62637441D01*
X101403847Y-62625144D01*
X101425471Y-62614916D01*
X101447993Y-62606858D01*
X101471197Y-62601046D01*
X101494858Y-62597536D01*
X101518750Y-62596362D01*
X102006250Y-62596362D01*
X102030142Y-62597536D01*
X102030142Y-62597536D01*
G37*
D11*
X101762500Y-63296362D03*
G04 #@! TD*
D10*
G04 #@! TO.C,R14*
G36*
X73685142Y-69601174D02*
X73708803Y-69604684D01*
X73732007Y-69610496D01*
X73754529Y-69618554D01*
X73776153Y-69628782D01*
X73796670Y-69641079D01*
X73815883Y-69655329D01*
X73833607Y-69671393D01*
X73849671Y-69689117D01*
X73863921Y-69708330D01*
X73876218Y-69728847D01*
X73886446Y-69750471D01*
X73894504Y-69772993D01*
X73900316Y-69796197D01*
X73903826Y-69819858D01*
X73905000Y-69843750D01*
X73905000Y-70756250D01*
X73903826Y-70780142D01*
X73900316Y-70803803D01*
X73894504Y-70827007D01*
X73886446Y-70849529D01*
X73876218Y-70871153D01*
X73863921Y-70891670D01*
X73849671Y-70910883D01*
X73833607Y-70928607D01*
X73815883Y-70944671D01*
X73796670Y-70958921D01*
X73776153Y-70971218D01*
X73754529Y-70981446D01*
X73732007Y-70989504D01*
X73708803Y-70995316D01*
X73685142Y-70998826D01*
X73661250Y-71000000D01*
X73173750Y-71000000D01*
X73149858Y-70998826D01*
X73126197Y-70995316D01*
X73102993Y-70989504D01*
X73080471Y-70981446D01*
X73058847Y-70971218D01*
X73038330Y-70958921D01*
X73019117Y-70944671D01*
X73001393Y-70928607D01*
X72985329Y-70910883D01*
X72971079Y-70891670D01*
X72958782Y-70871153D01*
X72948554Y-70849529D01*
X72940496Y-70827007D01*
X72934684Y-70803803D01*
X72931174Y-70780142D01*
X72930000Y-70756250D01*
X72930000Y-69843750D01*
X72931174Y-69819858D01*
X72934684Y-69796197D01*
X72940496Y-69772993D01*
X72948554Y-69750471D01*
X72958782Y-69728847D01*
X72971079Y-69708330D01*
X72985329Y-69689117D01*
X73001393Y-69671393D01*
X73019117Y-69655329D01*
X73038330Y-69641079D01*
X73058847Y-69628782D01*
X73080471Y-69618554D01*
X73102993Y-69610496D01*
X73126197Y-69604684D01*
X73149858Y-69601174D01*
X73173750Y-69600000D01*
X73661250Y-69600000D01*
X73685142Y-69601174D01*
X73685142Y-69601174D01*
G37*
D11*
X73417500Y-70300000D03*
D10*
G36*
X71810142Y-69601174D02*
X71833803Y-69604684D01*
X71857007Y-69610496D01*
X71879529Y-69618554D01*
X71901153Y-69628782D01*
X71921670Y-69641079D01*
X71940883Y-69655329D01*
X71958607Y-69671393D01*
X71974671Y-69689117D01*
X71988921Y-69708330D01*
X72001218Y-69728847D01*
X72011446Y-69750471D01*
X72019504Y-69772993D01*
X72025316Y-69796197D01*
X72028826Y-69819858D01*
X72030000Y-69843750D01*
X72030000Y-70756250D01*
X72028826Y-70780142D01*
X72025316Y-70803803D01*
X72019504Y-70827007D01*
X72011446Y-70849529D01*
X72001218Y-70871153D01*
X71988921Y-70891670D01*
X71974671Y-70910883D01*
X71958607Y-70928607D01*
X71940883Y-70944671D01*
X71921670Y-70958921D01*
X71901153Y-70971218D01*
X71879529Y-70981446D01*
X71857007Y-70989504D01*
X71833803Y-70995316D01*
X71810142Y-70998826D01*
X71786250Y-71000000D01*
X71298750Y-71000000D01*
X71274858Y-70998826D01*
X71251197Y-70995316D01*
X71227993Y-70989504D01*
X71205471Y-70981446D01*
X71183847Y-70971218D01*
X71163330Y-70958921D01*
X71144117Y-70944671D01*
X71126393Y-70928607D01*
X71110329Y-70910883D01*
X71096079Y-70891670D01*
X71083782Y-70871153D01*
X71073554Y-70849529D01*
X71065496Y-70827007D01*
X71059684Y-70803803D01*
X71056174Y-70780142D01*
X71055000Y-70756250D01*
X71055000Y-69843750D01*
X71056174Y-69819858D01*
X71059684Y-69796197D01*
X71065496Y-69772993D01*
X71073554Y-69750471D01*
X71083782Y-69728847D01*
X71096079Y-69708330D01*
X71110329Y-69689117D01*
X71126393Y-69671393D01*
X71144117Y-69655329D01*
X71163330Y-69641079D01*
X71183847Y-69628782D01*
X71205471Y-69618554D01*
X71227993Y-69610496D01*
X71251197Y-69604684D01*
X71274858Y-69601174D01*
X71298750Y-69600000D01*
X71786250Y-69600000D01*
X71810142Y-69601174D01*
X71810142Y-69601174D01*
G37*
D11*
X71542500Y-70300000D03*
G04 #@! TD*
D10*
G04 #@! TO.C,R15*
G36*
X103905142Y-65370263D02*
X103928803Y-65373773D01*
X103952007Y-65379585D01*
X103974529Y-65387643D01*
X103996153Y-65397871D01*
X104016670Y-65410168D01*
X104035883Y-65424418D01*
X104053607Y-65440482D01*
X104069671Y-65458206D01*
X104083921Y-65477419D01*
X104096218Y-65497936D01*
X104106446Y-65519560D01*
X104114504Y-65542082D01*
X104120316Y-65565286D01*
X104123826Y-65588947D01*
X104125000Y-65612839D01*
X104125000Y-66525339D01*
X104123826Y-66549231D01*
X104120316Y-66572892D01*
X104114504Y-66596096D01*
X104106446Y-66618618D01*
X104096218Y-66640242D01*
X104083921Y-66660759D01*
X104069671Y-66679972D01*
X104053607Y-66697696D01*
X104035883Y-66713760D01*
X104016670Y-66728010D01*
X103996153Y-66740307D01*
X103974529Y-66750535D01*
X103952007Y-66758593D01*
X103928803Y-66764405D01*
X103905142Y-66767915D01*
X103881250Y-66769089D01*
X103393750Y-66769089D01*
X103369858Y-66767915D01*
X103346197Y-66764405D01*
X103322993Y-66758593D01*
X103300471Y-66750535D01*
X103278847Y-66740307D01*
X103258330Y-66728010D01*
X103239117Y-66713760D01*
X103221393Y-66697696D01*
X103205329Y-66679972D01*
X103191079Y-66660759D01*
X103178782Y-66640242D01*
X103168554Y-66618618D01*
X103160496Y-66596096D01*
X103154684Y-66572892D01*
X103151174Y-66549231D01*
X103150000Y-66525339D01*
X103150000Y-65612839D01*
X103151174Y-65588947D01*
X103154684Y-65565286D01*
X103160496Y-65542082D01*
X103168554Y-65519560D01*
X103178782Y-65497936D01*
X103191079Y-65477419D01*
X103205329Y-65458206D01*
X103221393Y-65440482D01*
X103239117Y-65424418D01*
X103258330Y-65410168D01*
X103278847Y-65397871D01*
X103300471Y-65387643D01*
X103322993Y-65379585D01*
X103346197Y-65373773D01*
X103369858Y-65370263D01*
X103393750Y-65369089D01*
X103881250Y-65369089D01*
X103905142Y-65370263D01*
X103905142Y-65370263D01*
G37*
D11*
X103637500Y-66069089D03*
D10*
G36*
X102030142Y-65370263D02*
X102053803Y-65373773D01*
X102077007Y-65379585D01*
X102099529Y-65387643D01*
X102121153Y-65397871D01*
X102141670Y-65410168D01*
X102160883Y-65424418D01*
X102178607Y-65440482D01*
X102194671Y-65458206D01*
X102208921Y-65477419D01*
X102221218Y-65497936D01*
X102231446Y-65519560D01*
X102239504Y-65542082D01*
X102245316Y-65565286D01*
X102248826Y-65588947D01*
X102250000Y-65612839D01*
X102250000Y-66525339D01*
X102248826Y-66549231D01*
X102245316Y-66572892D01*
X102239504Y-66596096D01*
X102231446Y-66618618D01*
X102221218Y-66640242D01*
X102208921Y-66660759D01*
X102194671Y-66679972D01*
X102178607Y-66697696D01*
X102160883Y-66713760D01*
X102141670Y-66728010D01*
X102121153Y-66740307D01*
X102099529Y-66750535D01*
X102077007Y-66758593D01*
X102053803Y-66764405D01*
X102030142Y-66767915D01*
X102006250Y-66769089D01*
X101518750Y-66769089D01*
X101494858Y-66767915D01*
X101471197Y-66764405D01*
X101447993Y-66758593D01*
X101425471Y-66750535D01*
X101403847Y-66740307D01*
X101383330Y-66728010D01*
X101364117Y-66713760D01*
X101346393Y-66697696D01*
X101330329Y-66679972D01*
X101316079Y-66660759D01*
X101303782Y-66640242D01*
X101293554Y-66618618D01*
X101285496Y-66596096D01*
X101279684Y-66572892D01*
X101276174Y-66549231D01*
X101275000Y-66525339D01*
X101275000Y-65612839D01*
X101276174Y-65588947D01*
X101279684Y-65565286D01*
X101285496Y-65542082D01*
X101293554Y-65519560D01*
X101303782Y-65497936D01*
X101316079Y-65477419D01*
X101330329Y-65458206D01*
X101346393Y-65440482D01*
X101364117Y-65424418D01*
X101383330Y-65410168D01*
X101403847Y-65397871D01*
X101425471Y-65387643D01*
X101447993Y-65379585D01*
X101471197Y-65373773D01*
X101494858Y-65370263D01*
X101518750Y-65369089D01*
X102006250Y-65369089D01*
X102030142Y-65370263D01*
X102030142Y-65370263D01*
G37*
D11*
X101762500Y-66069089D03*
G04 #@! TD*
D10*
G04 #@! TO.C,R16*
G36*
X73705142Y-75201174D02*
X73728803Y-75204684D01*
X73752007Y-75210496D01*
X73774529Y-75218554D01*
X73796153Y-75228782D01*
X73816670Y-75241079D01*
X73835883Y-75255329D01*
X73853607Y-75271393D01*
X73869671Y-75289117D01*
X73883921Y-75308330D01*
X73896218Y-75328847D01*
X73906446Y-75350471D01*
X73914504Y-75372993D01*
X73920316Y-75396197D01*
X73923826Y-75419858D01*
X73925000Y-75443750D01*
X73925000Y-76356250D01*
X73923826Y-76380142D01*
X73920316Y-76403803D01*
X73914504Y-76427007D01*
X73906446Y-76449529D01*
X73896218Y-76471153D01*
X73883921Y-76491670D01*
X73869671Y-76510883D01*
X73853607Y-76528607D01*
X73835883Y-76544671D01*
X73816670Y-76558921D01*
X73796153Y-76571218D01*
X73774529Y-76581446D01*
X73752007Y-76589504D01*
X73728803Y-76595316D01*
X73705142Y-76598826D01*
X73681250Y-76600000D01*
X73193750Y-76600000D01*
X73169858Y-76598826D01*
X73146197Y-76595316D01*
X73122993Y-76589504D01*
X73100471Y-76581446D01*
X73078847Y-76571218D01*
X73058330Y-76558921D01*
X73039117Y-76544671D01*
X73021393Y-76528607D01*
X73005329Y-76510883D01*
X72991079Y-76491670D01*
X72978782Y-76471153D01*
X72968554Y-76449529D01*
X72960496Y-76427007D01*
X72954684Y-76403803D01*
X72951174Y-76380142D01*
X72950000Y-76356250D01*
X72950000Y-75443750D01*
X72951174Y-75419858D01*
X72954684Y-75396197D01*
X72960496Y-75372993D01*
X72968554Y-75350471D01*
X72978782Y-75328847D01*
X72991079Y-75308330D01*
X73005329Y-75289117D01*
X73021393Y-75271393D01*
X73039117Y-75255329D01*
X73058330Y-75241079D01*
X73078847Y-75228782D01*
X73100471Y-75218554D01*
X73122993Y-75210496D01*
X73146197Y-75204684D01*
X73169858Y-75201174D01*
X73193750Y-75200000D01*
X73681250Y-75200000D01*
X73705142Y-75201174D01*
X73705142Y-75201174D01*
G37*
D11*
X73437500Y-75900000D03*
D10*
G36*
X71830142Y-75201174D02*
X71853803Y-75204684D01*
X71877007Y-75210496D01*
X71899529Y-75218554D01*
X71921153Y-75228782D01*
X71941670Y-75241079D01*
X71960883Y-75255329D01*
X71978607Y-75271393D01*
X71994671Y-75289117D01*
X72008921Y-75308330D01*
X72021218Y-75328847D01*
X72031446Y-75350471D01*
X72039504Y-75372993D01*
X72045316Y-75396197D01*
X72048826Y-75419858D01*
X72050000Y-75443750D01*
X72050000Y-76356250D01*
X72048826Y-76380142D01*
X72045316Y-76403803D01*
X72039504Y-76427007D01*
X72031446Y-76449529D01*
X72021218Y-76471153D01*
X72008921Y-76491670D01*
X71994671Y-76510883D01*
X71978607Y-76528607D01*
X71960883Y-76544671D01*
X71941670Y-76558921D01*
X71921153Y-76571218D01*
X71899529Y-76581446D01*
X71877007Y-76589504D01*
X71853803Y-76595316D01*
X71830142Y-76598826D01*
X71806250Y-76600000D01*
X71318750Y-76600000D01*
X71294858Y-76598826D01*
X71271197Y-76595316D01*
X71247993Y-76589504D01*
X71225471Y-76581446D01*
X71203847Y-76571218D01*
X71183330Y-76558921D01*
X71164117Y-76544671D01*
X71146393Y-76528607D01*
X71130329Y-76510883D01*
X71116079Y-76491670D01*
X71103782Y-76471153D01*
X71093554Y-76449529D01*
X71085496Y-76427007D01*
X71079684Y-76403803D01*
X71076174Y-76380142D01*
X71075000Y-76356250D01*
X71075000Y-75443750D01*
X71076174Y-75419858D01*
X71079684Y-75396197D01*
X71085496Y-75372993D01*
X71093554Y-75350471D01*
X71103782Y-75328847D01*
X71116079Y-75308330D01*
X71130329Y-75289117D01*
X71146393Y-75271393D01*
X71164117Y-75255329D01*
X71183330Y-75241079D01*
X71203847Y-75228782D01*
X71225471Y-75218554D01*
X71247993Y-75210496D01*
X71271197Y-75204684D01*
X71294858Y-75201174D01*
X71318750Y-75200000D01*
X71806250Y-75200000D01*
X71830142Y-75201174D01*
X71830142Y-75201174D01*
G37*
D11*
X71562500Y-75900000D03*
G04 #@! TD*
D10*
G04 #@! TO.C,R17*
G36*
X102030142Y-68142990D02*
X102053803Y-68146500D01*
X102077007Y-68152312D01*
X102099529Y-68160370D01*
X102121153Y-68170598D01*
X102141670Y-68182895D01*
X102160883Y-68197145D01*
X102178607Y-68213209D01*
X102194671Y-68230933D01*
X102208921Y-68250146D01*
X102221218Y-68270663D01*
X102231446Y-68292287D01*
X102239504Y-68314809D01*
X102245316Y-68338013D01*
X102248826Y-68361674D01*
X102250000Y-68385566D01*
X102250000Y-69298066D01*
X102248826Y-69321958D01*
X102245316Y-69345619D01*
X102239504Y-69368823D01*
X102231446Y-69391345D01*
X102221218Y-69412969D01*
X102208921Y-69433486D01*
X102194671Y-69452699D01*
X102178607Y-69470423D01*
X102160883Y-69486487D01*
X102141670Y-69500737D01*
X102121153Y-69513034D01*
X102099529Y-69523262D01*
X102077007Y-69531320D01*
X102053803Y-69537132D01*
X102030142Y-69540642D01*
X102006250Y-69541816D01*
X101518750Y-69541816D01*
X101494858Y-69540642D01*
X101471197Y-69537132D01*
X101447993Y-69531320D01*
X101425471Y-69523262D01*
X101403847Y-69513034D01*
X101383330Y-69500737D01*
X101364117Y-69486487D01*
X101346393Y-69470423D01*
X101330329Y-69452699D01*
X101316079Y-69433486D01*
X101303782Y-69412969D01*
X101293554Y-69391345D01*
X101285496Y-69368823D01*
X101279684Y-69345619D01*
X101276174Y-69321958D01*
X101275000Y-69298066D01*
X101275000Y-68385566D01*
X101276174Y-68361674D01*
X101279684Y-68338013D01*
X101285496Y-68314809D01*
X101293554Y-68292287D01*
X101303782Y-68270663D01*
X101316079Y-68250146D01*
X101330329Y-68230933D01*
X101346393Y-68213209D01*
X101364117Y-68197145D01*
X101383330Y-68182895D01*
X101403847Y-68170598D01*
X101425471Y-68160370D01*
X101447993Y-68152312D01*
X101471197Y-68146500D01*
X101494858Y-68142990D01*
X101518750Y-68141816D01*
X102006250Y-68141816D01*
X102030142Y-68142990D01*
X102030142Y-68142990D01*
G37*
D11*
X101762500Y-68841816D03*
D10*
G36*
X103905142Y-68142990D02*
X103928803Y-68146500D01*
X103952007Y-68152312D01*
X103974529Y-68160370D01*
X103996153Y-68170598D01*
X104016670Y-68182895D01*
X104035883Y-68197145D01*
X104053607Y-68213209D01*
X104069671Y-68230933D01*
X104083921Y-68250146D01*
X104096218Y-68270663D01*
X104106446Y-68292287D01*
X104114504Y-68314809D01*
X104120316Y-68338013D01*
X104123826Y-68361674D01*
X104125000Y-68385566D01*
X104125000Y-69298066D01*
X104123826Y-69321958D01*
X104120316Y-69345619D01*
X104114504Y-69368823D01*
X104106446Y-69391345D01*
X104096218Y-69412969D01*
X104083921Y-69433486D01*
X104069671Y-69452699D01*
X104053607Y-69470423D01*
X104035883Y-69486487D01*
X104016670Y-69500737D01*
X103996153Y-69513034D01*
X103974529Y-69523262D01*
X103952007Y-69531320D01*
X103928803Y-69537132D01*
X103905142Y-69540642D01*
X103881250Y-69541816D01*
X103393750Y-69541816D01*
X103369858Y-69540642D01*
X103346197Y-69537132D01*
X103322993Y-69531320D01*
X103300471Y-69523262D01*
X103278847Y-69513034D01*
X103258330Y-69500737D01*
X103239117Y-69486487D01*
X103221393Y-69470423D01*
X103205329Y-69452699D01*
X103191079Y-69433486D01*
X103178782Y-69412969D01*
X103168554Y-69391345D01*
X103160496Y-69368823D01*
X103154684Y-69345619D01*
X103151174Y-69321958D01*
X103150000Y-69298066D01*
X103150000Y-68385566D01*
X103151174Y-68361674D01*
X103154684Y-68338013D01*
X103160496Y-68314809D01*
X103168554Y-68292287D01*
X103178782Y-68270663D01*
X103191079Y-68250146D01*
X103205329Y-68230933D01*
X103221393Y-68213209D01*
X103239117Y-68197145D01*
X103258330Y-68182895D01*
X103278847Y-68170598D01*
X103300471Y-68160370D01*
X103322993Y-68152312D01*
X103346197Y-68146500D01*
X103369858Y-68142990D01*
X103393750Y-68141816D01*
X103881250Y-68141816D01*
X103905142Y-68142990D01*
X103905142Y-68142990D01*
G37*
D11*
X103637500Y-68841816D03*
G04 #@! TD*
D10*
G04 #@! TO.C,R19*
G36*
X103905142Y-70915717D02*
X103928803Y-70919227D01*
X103952007Y-70925039D01*
X103974529Y-70933097D01*
X103996153Y-70943325D01*
X104016670Y-70955622D01*
X104035883Y-70969872D01*
X104053607Y-70985936D01*
X104069671Y-71003660D01*
X104083921Y-71022873D01*
X104096218Y-71043390D01*
X104106446Y-71065014D01*
X104114504Y-71087536D01*
X104120316Y-71110740D01*
X104123826Y-71134401D01*
X104125000Y-71158293D01*
X104125000Y-72070793D01*
X104123826Y-72094685D01*
X104120316Y-72118346D01*
X104114504Y-72141550D01*
X104106446Y-72164072D01*
X104096218Y-72185696D01*
X104083921Y-72206213D01*
X104069671Y-72225426D01*
X104053607Y-72243150D01*
X104035883Y-72259214D01*
X104016670Y-72273464D01*
X103996153Y-72285761D01*
X103974529Y-72295989D01*
X103952007Y-72304047D01*
X103928803Y-72309859D01*
X103905142Y-72313369D01*
X103881250Y-72314543D01*
X103393750Y-72314543D01*
X103369858Y-72313369D01*
X103346197Y-72309859D01*
X103322993Y-72304047D01*
X103300471Y-72295989D01*
X103278847Y-72285761D01*
X103258330Y-72273464D01*
X103239117Y-72259214D01*
X103221393Y-72243150D01*
X103205329Y-72225426D01*
X103191079Y-72206213D01*
X103178782Y-72185696D01*
X103168554Y-72164072D01*
X103160496Y-72141550D01*
X103154684Y-72118346D01*
X103151174Y-72094685D01*
X103150000Y-72070793D01*
X103150000Y-71158293D01*
X103151174Y-71134401D01*
X103154684Y-71110740D01*
X103160496Y-71087536D01*
X103168554Y-71065014D01*
X103178782Y-71043390D01*
X103191079Y-71022873D01*
X103205329Y-71003660D01*
X103221393Y-70985936D01*
X103239117Y-70969872D01*
X103258330Y-70955622D01*
X103278847Y-70943325D01*
X103300471Y-70933097D01*
X103322993Y-70925039D01*
X103346197Y-70919227D01*
X103369858Y-70915717D01*
X103393750Y-70914543D01*
X103881250Y-70914543D01*
X103905142Y-70915717D01*
X103905142Y-70915717D01*
G37*
D11*
X103637500Y-71614543D03*
D10*
G36*
X102030142Y-70915717D02*
X102053803Y-70919227D01*
X102077007Y-70925039D01*
X102099529Y-70933097D01*
X102121153Y-70943325D01*
X102141670Y-70955622D01*
X102160883Y-70969872D01*
X102178607Y-70985936D01*
X102194671Y-71003660D01*
X102208921Y-71022873D01*
X102221218Y-71043390D01*
X102231446Y-71065014D01*
X102239504Y-71087536D01*
X102245316Y-71110740D01*
X102248826Y-71134401D01*
X102250000Y-71158293D01*
X102250000Y-72070793D01*
X102248826Y-72094685D01*
X102245316Y-72118346D01*
X102239504Y-72141550D01*
X102231446Y-72164072D01*
X102221218Y-72185696D01*
X102208921Y-72206213D01*
X102194671Y-72225426D01*
X102178607Y-72243150D01*
X102160883Y-72259214D01*
X102141670Y-72273464D01*
X102121153Y-72285761D01*
X102099529Y-72295989D01*
X102077007Y-72304047D01*
X102053803Y-72309859D01*
X102030142Y-72313369D01*
X102006250Y-72314543D01*
X101518750Y-72314543D01*
X101494858Y-72313369D01*
X101471197Y-72309859D01*
X101447993Y-72304047D01*
X101425471Y-72295989D01*
X101403847Y-72285761D01*
X101383330Y-72273464D01*
X101364117Y-72259214D01*
X101346393Y-72243150D01*
X101330329Y-72225426D01*
X101316079Y-72206213D01*
X101303782Y-72185696D01*
X101293554Y-72164072D01*
X101285496Y-72141550D01*
X101279684Y-72118346D01*
X101276174Y-72094685D01*
X101275000Y-72070793D01*
X101275000Y-71158293D01*
X101276174Y-71134401D01*
X101279684Y-71110740D01*
X101285496Y-71087536D01*
X101293554Y-71065014D01*
X101303782Y-71043390D01*
X101316079Y-71022873D01*
X101330329Y-71003660D01*
X101346393Y-70985936D01*
X101364117Y-70969872D01*
X101383330Y-70955622D01*
X101403847Y-70943325D01*
X101425471Y-70933097D01*
X101447993Y-70925039D01*
X101471197Y-70919227D01*
X101494858Y-70915717D01*
X101518750Y-70914543D01*
X102006250Y-70914543D01*
X102030142Y-70915717D01*
X102030142Y-70915717D01*
G37*
D11*
X101762500Y-71614543D03*
G04 #@! TD*
D10*
G04 #@! TO.C,R20*
G36*
X71810142Y-86601174D02*
X71833803Y-86604684D01*
X71857007Y-86610496D01*
X71879529Y-86618554D01*
X71901153Y-86628782D01*
X71921670Y-86641079D01*
X71940883Y-86655329D01*
X71958607Y-86671393D01*
X71974671Y-86689117D01*
X71988921Y-86708330D01*
X72001218Y-86728847D01*
X72011446Y-86750471D01*
X72019504Y-86772993D01*
X72025316Y-86796197D01*
X72028826Y-86819858D01*
X72030000Y-86843750D01*
X72030000Y-87756250D01*
X72028826Y-87780142D01*
X72025316Y-87803803D01*
X72019504Y-87827007D01*
X72011446Y-87849529D01*
X72001218Y-87871153D01*
X71988921Y-87891670D01*
X71974671Y-87910883D01*
X71958607Y-87928607D01*
X71940883Y-87944671D01*
X71921670Y-87958921D01*
X71901153Y-87971218D01*
X71879529Y-87981446D01*
X71857007Y-87989504D01*
X71833803Y-87995316D01*
X71810142Y-87998826D01*
X71786250Y-88000000D01*
X71298750Y-88000000D01*
X71274858Y-87998826D01*
X71251197Y-87995316D01*
X71227993Y-87989504D01*
X71205471Y-87981446D01*
X71183847Y-87971218D01*
X71163330Y-87958921D01*
X71144117Y-87944671D01*
X71126393Y-87928607D01*
X71110329Y-87910883D01*
X71096079Y-87891670D01*
X71083782Y-87871153D01*
X71073554Y-87849529D01*
X71065496Y-87827007D01*
X71059684Y-87803803D01*
X71056174Y-87780142D01*
X71055000Y-87756250D01*
X71055000Y-86843750D01*
X71056174Y-86819858D01*
X71059684Y-86796197D01*
X71065496Y-86772993D01*
X71073554Y-86750471D01*
X71083782Y-86728847D01*
X71096079Y-86708330D01*
X71110329Y-86689117D01*
X71126393Y-86671393D01*
X71144117Y-86655329D01*
X71163330Y-86641079D01*
X71183847Y-86628782D01*
X71205471Y-86618554D01*
X71227993Y-86610496D01*
X71251197Y-86604684D01*
X71274858Y-86601174D01*
X71298750Y-86600000D01*
X71786250Y-86600000D01*
X71810142Y-86601174D01*
X71810142Y-86601174D01*
G37*
D11*
X71542500Y-87300000D03*
D10*
G36*
X73685142Y-86601174D02*
X73708803Y-86604684D01*
X73732007Y-86610496D01*
X73754529Y-86618554D01*
X73776153Y-86628782D01*
X73796670Y-86641079D01*
X73815883Y-86655329D01*
X73833607Y-86671393D01*
X73849671Y-86689117D01*
X73863921Y-86708330D01*
X73876218Y-86728847D01*
X73886446Y-86750471D01*
X73894504Y-86772993D01*
X73900316Y-86796197D01*
X73903826Y-86819858D01*
X73905000Y-86843750D01*
X73905000Y-87756250D01*
X73903826Y-87780142D01*
X73900316Y-87803803D01*
X73894504Y-87827007D01*
X73886446Y-87849529D01*
X73876218Y-87871153D01*
X73863921Y-87891670D01*
X73849671Y-87910883D01*
X73833607Y-87928607D01*
X73815883Y-87944671D01*
X73796670Y-87958921D01*
X73776153Y-87971218D01*
X73754529Y-87981446D01*
X73732007Y-87989504D01*
X73708803Y-87995316D01*
X73685142Y-87998826D01*
X73661250Y-88000000D01*
X73173750Y-88000000D01*
X73149858Y-87998826D01*
X73126197Y-87995316D01*
X73102993Y-87989504D01*
X73080471Y-87981446D01*
X73058847Y-87971218D01*
X73038330Y-87958921D01*
X73019117Y-87944671D01*
X73001393Y-87928607D01*
X72985329Y-87910883D01*
X72971079Y-87891670D01*
X72958782Y-87871153D01*
X72948554Y-87849529D01*
X72940496Y-87827007D01*
X72934684Y-87803803D01*
X72931174Y-87780142D01*
X72930000Y-87756250D01*
X72930000Y-86843750D01*
X72931174Y-86819858D01*
X72934684Y-86796197D01*
X72940496Y-86772993D01*
X72948554Y-86750471D01*
X72958782Y-86728847D01*
X72971079Y-86708330D01*
X72985329Y-86689117D01*
X73001393Y-86671393D01*
X73019117Y-86655329D01*
X73038330Y-86641079D01*
X73058847Y-86628782D01*
X73080471Y-86618554D01*
X73102993Y-86610496D01*
X73126197Y-86604684D01*
X73149858Y-86601174D01*
X73173750Y-86600000D01*
X73661250Y-86600000D01*
X73685142Y-86601174D01*
X73685142Y-86601174D01*
G37*
D11*
X73417500Y-87300000D03*
G04 #@! TD*
D10*
G04 #@! TO.C,R21*
G36*
X103905142Y-73688444D02*
X103928803Y-73691954D01*
X103952007Y-73697766D01*
X103974529Y-73705824D01*
X103996153Y-73716052D01*
X104016670Y-73728349D01*
X104035883Y-73742599D01*
X104053607Y-73758663D01*
X104069671Y-73776387D01*
X104083921Y-73795600D01*
X104096218Y-73816117D01*
X104106446Y-73837741D01*
X104114504Y-73860263D01*
X104120316Y-73883467D01*
X104123826Y-73907128D01*
X104125000Y-73931020D01*
X104125000Y-74843520D01*
X104123826Y-74867412D01*
X104120316Y-74891073D01*
X104114504Y-74914277D01*
X104106446Y-74936799D01*
X104096218Y-74958423D01*
X104083921Y-74978940D01*
X104069671Y-74998153D01*
X104053607Y-75015877D01*
X104035883Y-75031941D01*
X104016670Y-75046191D01*
X103996153Y-75058488D01*
X103974529Y-75068716D01*
X103952007Y-75076774D01*
X103928803Y-75082586D01*
X103905142Y-75086096D01*
X103881250Y-75087270D01*
X103393750Y-75087270D01*
X103369858Y-75086096D01*
X103346197Y-75082586D01*
X103322993Y-75076774D01*
X103300471Y-75068716D01*
X103278847Y-75058488D01*
X103258330Y-75046191D01*
X103239117Y-75031941D01*
X103221393Y-75015877D01*
X103205329Y-74998153D01*
X103191079Y-74978940D01*
X103178782Y-74958423D01*
X103168554Y-74936799D01*
X103160496Y-74914277D01*
X103154684Y-74891073D01*
X103151174Y-74867412D01*
X103150000Y-74843520D01*
X103150000Y-73931020D01*
X103151174Y-73907128D01*
X103154684Y-73883467D01*
X103160496Y-73860263D01*
X103168554Y-73837741D01*
X103178782Y-73816117D01*
X103191079Y-73795600D01*
X103205329Y-73776387D01*
X103221393Y-73758663D01*
X103239117Y-73742599D01*
X103258330Y-73728349D01*
X103278847Y-73716052D01*
X103300471Y-73705824D01*
X103322993Y-73697766D01*
X103346197Y-73691954D01*
X103369858Y-73688444D01*
X103393750Y-73687270D01*
X103881250Y-73687270D01*
X103905142Y-73688444D01*
X103905142Y-73688444D01*
G37*
D11*
X103637500Y-74387270D03*
D10*
G36*
X102030142Y-73688444D02*
X102053803Y-73691954D01*
X102077007Y-73697766D01*
X102099529Y-73705824D01*
X102121153Y-73716052D01*
X102141670Y-73728349D01*
X102160883Y-73742599D01*
X102178607Y-73758663D01*
X102194671Y-73776387D01*
X102208921Y-73795600D01*
X102221218Y-73816117D01*
X102231446Y-73837741D01*
X102239504Y-73860263D01*
X102245316Y-73883467D01*
X102248826Y-73907128D01*
X102250000Y-73931020D01*
X102250000Y-74843520D01*
X102248826Y-74867412D01*
X102245316Y-74891073D01*
X102239504Y-74914277D01*
X102231446Y-74936799D01*
X102221218Y-74958423D01*
X102208921Y-74978940D01*
X102194671Y-74998153D01*
X102178607Y-75015877D01*
X102160883Y-75031941D01*
X102141670Y-75046191D01*
X102121153Y-75058488D01*
X102099529Y-75068716D01*
X102077007Y-75076774D01*
X102053803Y-75082586D01*
X102030142Y-75086096D01*
X102006250Y-75087270D01*
X101518750Y-75087270D01*
X101494858Y-75086096D01*
X101471197Y-75082586D01*
X101447993Y-75076774D01*
X101425471Y-75068716D01*
X101403847Y-75058488D01*
X101383330Y-75046191D01*
X101364117Y-75031941D01*
X101346393Y-75015877D01*
X101330329Y-74998153D01*
X101316079Y-74978940D01*
X101303782Y-74958423D01*
X101293554Y-74936799D01*
X101285496Y-74914277D01*
X101279684Y-74891073D01*
X101276174Y-74867412D01*
X101275000Y-74843520D01*
X101275000Y-73931020D01*
X101276174Y-73907128D01*
X101279684Y-73883467D01*
X101285496Y-73860263D01*
X101293554Y-73837741D01*
X101303782Y-73816117D01*
X101316079Y-73795600D01*
X101330329Y-73776387D01*
X101346393Y-73758663D01*
X101364117Y-73742599D01*
X101383330Y-73728349D01*
X101403847Y-73716052D01*
X101425471Y-73705824D01*
X101447993Y-73697766D01*
X101471197Y-73691954D01*
X101494858Y-73688444D01*
X101518750Y-73687270D01*
X102006250Y-73687270D01*
X102030142Y-73688444D01*
X102030142Y-73688444D01*
G37*
D11*
X101762500Y-74387270D03*
G04 #@! TD*
D10*
G04 #@! TO.C,R22*
G36*
X71810142Y-92201174D02*
X71833803Y-92204684D01*
X71857007Y-92210496D01*
X71879529Y-92218554D01*
X71901153Y-92228782D01*
X71921670Y-92241079D01*
X71940883Y-92255329D01*
X71958607Y-92271393D01*
X71974671Y-92289117D01*
X71988921Y-92308330D01*
X72001218Y-92328847D01*
X72011446Y-92350471D01*
X72019504Y-92372993D01*
X72025316Y-92396197D01*
X72028826Y-92419858D01*
X72030000Y-92443750D01*
X72030000Y-93356250D01*
X72028826Y-93380142D01*
X72025316Y-93403803D01*
X72019504Y-93427007D01*
X72011446Y-93449529D01*
X72001218Y-93471153D01*
X71988921Y-93491670D01*
X71974671Y-93510883D01*
X71958607Y-93528607D01*
X71940883Y-93544671D01*
X71921670Y-93558921D01*
X71901153Y-93571218D01*
X71879529Y-93581446D01*
X71857007Y-93589504D01*
X71833803Y-93595316D01*
X71810142Y-93598826D01*
X71786250Y-93600000D01*
X71298750Y-93600000D01*
X71274858Y-93598826D01*
X71251197Y-93595316D01*
X71227993Y-93589504D01*
X71205471Y-93581446D01*
X71183847Y-93571218D01*
X71163330Y-93558921D01*
X71144117Y-93544671D01*
X71126393Y-93528607D01*
X71110329Y-93510883D01*
X71096079Y-93491670D01*
X71083782Y-93471153D01*
X71073554Y-93449529D01*
X71065496Y-93427007D01*
X71059684Y-93403803D01*
X71056174Y-93380142D01*
X71055000Y-93356250D01*
X71055000Y-92443750D01*
X71056174Y-92419858D01*
X71059684Y-92396197D01*
X71065496Y-92372993D01*
X71073554Y-92350471D01*
X71083782Y-92328847D01*
X71096079Y-92308330D01*
X71110329Y-92289117D01*
X71126393Y-92271393D01*
X71144117Y-92255329D01*
X71163330Y-92241079D01*
X71183847Y-92228782D01*
X71205471Y-92218554D01*
X71227993Y-92210496D01*
X71251197Y-92204684D01*
X71274858Y-92201174D01*
X71298750Y-92200000D01*
X71786250Y-92200000D01*
X71810142Y-92201174D01*
X71810142Y-92201174D01*
G37*
D11*
X71542500Y-92900000D03*
D10*
G36*
X73685142Y-92201174D02*
X73708803Y-92204684D01*
X73732007Y-92210496D01*
X73754529Y-92218554D01*
X73776153Y-92228782D01*
X73796670Y-92241079D01*
X73815883Y-92255329D01*
X73833607Y-92271393D01*
X73849671Y-92289117D01*
X73863921Y-92308330D01*
X73876218Y-92328847D01*
X73886446Y-92350471D01*
X73894504Y-92372993D01*
X73900316Y-92396197D01*
X73903826Y-92419858D01*
X73905000Y-92443750D01*
X73905000Y-93356250D01*
X73903826Y-93380142D01*
X73900316Y-93403803D01*
X73894504Y-93427007D01*
X73886446Y-93449529D01*
X73876218Y-93471153D01*
X73863921Y-93491670D01*
X73849671Y-93510883D01*
X73833607Y-93528607D01*
X73815883Y-93544671D01*
X73796670Y-93558921D01*
X73776153Y-93571218D01*
X73754529Y-93581446D01*
X73732007Y-93589504D01*
X73708803Y-93595316D01*
X73685142Y-93598826D01*
X73661250Y-93600000D01*
X73173750Y-93600000D01*
X73149858Y-93598826D01*
X73126197Y-93595316D01*
X73102993Y-93589504D01*
X73080471Y-93581446D01*
X73058847Y-93571218D01*
X73038330Y-93558921D01*
X73019117Y-93544671D01*
X73001393Y-93528607D01*
X72985329Y-93510883D01*
X72971079Y-93491670D01*
X72958782Y-93471153D01*
X72948554Y-93449529D01*
X72940496Y-93427007D01*
X72934684Y-93403803D01*
X72931174Y-93380142D01*
X72930000Y-93356250D01*
X72930000Y-92443750D01*
X72931174Y-92419858D01*
X72934684Y-92396197D01*
X72940496Y-92372993D01*
X72948554Y-92350471D01*
X72958782Y-92328847D01*
X72971079Y-92308330D01*
X72985329Y-92289117D01*
X73001393Y-92271393D01*
X73019117Y-92255329D01*
X73038330Y-92241079D01*
X73058847Y-92228782D01*
X73080471Y-92218554D01*
X73102993Y-92210496D01*
X73126197Y-92204684D01*
X73149858Y-92201174D01*
X73173750Y-92200000D01*
X73661250Y-92200000D01*
X73685142Y-92201174D01*
X73685142Y-92201174D01*
G37*
D11*
X73417500Y-92900000D03*
G04 #@! TD*
D10*
G04 #@! TO.C,R23*
G36*
X102030142Y-76461174D02*
X102053803Y-76464684D01*
X102077007Y-76470496D01*
X102099529Y-76478554D01*
X102121153Y-76488782D01*
X102141670Y-76501079D01*
X102160883Y-76515329D01*
X102178607Y-76531393D01*
X102194671Y-76549117D01*
X102208921Y-76568330D01*
X102221218Y-76588847D01*
X102231446Y-76610471D01*
X102239504Y-76632993D01*
X102245316Y-76656197D01*
X102248826Y-76679858D01*
X102250000Y-76703750D01*
X102250000Y-77616250D01*
X102248826Y-77640142D01*
X102245316Y-77663803D01*
X102239504Y-77687007D01*
X102231446Y-77709529D01*
X102221218Y-77731153D01*
X102208921Y-77751670D01*
X102194671Y-77770883D01*
X102178607Y-77788607D01*
X102160883Y-77804671D01*
X102141670Y-77818921D01*
X102121153Y-77831218D01*
X102099529Y-77841446D01*
X102077007Y-77849504D01*
X102053803Y-77855316D01*
X102030142Y-77858826D01*
X102006250Y-77860000D01*
X101518750Y-77860000D01*
X101494858Y-77858826D01*
X101471197Y-77855316D01*
X101447993Y-77849504D01*
X101425471Y-77841446D01*
X101403847Y-77831218D01*
X101383330Y-77818921D01*
X101364117Y-77804671D01*
X101346393Y-77788607D01*
X101330329Y-77770883D01*
X101316079Y-77751670D01*
X101303782Y-77731153D01*
X101293554Y-77709529D01*
X101285496Y-77687007D01*
X101279684Y-77663803D01*
X101276174Y-77640142D01*
X101275000Y-77616250D01*
X101275000Y-76703750D01*
X101276174Y-76679858D01*
X101279684Y-76656197D01*
X101285496Y-76632993D01*
X101293554Y-76610471D01*
X101303782Y-76588847D01*
X101316079Y-76568330D01*
X101330329Y-76549117D01*
X101346393Y-76531393D01*
X101364117Y-76515329D01*
X101383330Y-76501079D01*
X101403847Y-76488782D01*
X101425471Y-76478554D01*
X101447993Y-76470496D01*
X101471197Y-76464684D01*
X101494858Y-76461174D01*
X101518750Y-76460000D01*
X102006250Y-76460000D01*
X102030142Y-76461174D01*
X102030142Y-76461174D01*
G37*
D11*
X101762500Y-77160000D03*
D10*
G36*
X103905142Y-76461174D02*
X103928803Y-76464684D01*
X103952007Y-76470496D01*
X103974529Y-76478554D01*
X103996153Y-76488782D01*
X104016670Y-76501079D01*
X104035883Y-76515329D01*
X104053607Y-76531393D01*
X104069671Y-76549117D01*
X104083921Y-76568330D01*
X104096218Y-76588847D01*
X104106446Y-76610471D01*
X104114504Y-76632993D01*
X104120316Y-76656197D01*
X104123826Y-76679858D01*
X104125000Y-76703750D01*
X104125000Y-77616250D01*
X104123826Y-77640142D01*
X104120316Y-77663803D01*
X104114504Y-77687007D01*
X104106446Y-77709529D01*
X104096218Y-77731153D01*
X104083921Y-77751670D01*
X104069671Y-77770883D01*
X104053607Y-77788607D01*
X104035883Y-77804671D01*
X104016670Y-77818921D01*
X103996153Y-77831218D01*
X103974529Y-77841446D01*
X103952007Y-77849504D01*
X103928803Y-77855316D01*
X103905142Y-77858826D01*
X103881250Y-77860000D01*
X103393750Y-77860000D01*
X103369858Y-77858826D01*
X103346197Y-77855316D01*
X103322993Y-77849504D01*
X103300471Y-77841446D01*
X103278847Y-77831218D01*
X103258330Y-77818921D01*
X103239117Y-77804671D01*
X103221393Y-77788607D01*
X103205329Y-77770883D01*
X103191079Y-77751670D01*
X103178782Y-77731153D01*
X103168554Y-77709529D01*
X103160496Y-77687007D01*
X103154684Y-77663803D01*
X103151174Y-77640142D01*
X103150000Y-77616250D01*
X103150000Y-76703750D01*
X103151174Y-76679858D01*
X103154684Y-76656197D01*
X103160496Y-76632993D01*
X103168554Y-76610471D01*
X103178782Y-76588847D01*
X103191079Y-76568330D01*
X103205329Y-76549117D01*
X103221393Y-76531393D01*
X103239117Y-76515329D01*
X103258330Y-76501079D01*
X103278847Y-76488782D01*
X103300471Y-76478554D01*
X103322993Y-76470496D01*
X103346197Y-76464684D01*
X103369858Y-76461174D01*
X103393750Y-76460000D01*
X103881250Y-76460000D01*
X103905142Y-76461174D01*
X103905142Y-76461174D01*
G37*
D11*
X103637500Y-77160000D03*
G04 #@! TD*
D10*
G04 #@! TO.C,R24*
G36*
X73685142Y-97801174D02*
X73708803Y-97804684D01*
X73732007Y-97810496D01*
X73754529Y-97818554D01*
X73776153Y-97828782D01*
X73796670Y-97841079D01*
X73815883Y-97855329D01*
X73833607Y-97871393D01*
X73849671Y-97889117D01*
X73863921Y-97908330D01*
X73876218Y-97928847D01*
X73886446Y-97950471D01*
X73894504Y-97972993D01*
X73900316Y-97996197D01*
X73903826Y-98019858D01*
X73905000Y-98043750D01*
X73905000Y-98956250D01*
X73903826Y-98980142D01*
X73900316Y-99003803D01*
X73894504Y-99027007D01*
X73886446Y-99049529D01*
X73876218Y-99071153D01*
X73863921Y-99091670D01*
X73849671Y-99110883D01*
X73833607Y-99128607D01*
X73815883Y-99144671D01*
X73796670Y-99158921D01*
X73776153Y-99171218D01*
X73754529Y-99181446D01*
X73732007Y-99189504D01*
X73708803Y-99195316D01*
X73685142Y-99198826D01*
X73661250Y-99200000D01*
X73173750Y-99200000D01*
X73149858Y-99198826D01*
X73126197Y-99195316D01*
X73102993Y-99189504D01*
X73080471Y-99181446D01*
X73058847Y-99171218D01*
X73038330Y-99158921D01*
X73019117Y-99144671D01*
X73001393Y-99128607D01*
X72985329Y-99110883D01*
X72971079Y-99091670D01*
X72958782Y-99071153D01*
X72948554Y-99049529D01*
X72940496Y-99027007D01*
X72934684Y-99003803D01*
X72931174Y-98980142D01*
X72930000Y-98956250D01*
X72930000Y-98043750D01*
X72931174Y-98019858D01*
X72934684Y-97996197D01*
X72940496Y-97972993D01*
X72948554Y-97950471D01*
X72958782Y-97928847D01*
X72971079Y-97908330D01*
X72985329Y-97889117D01*
X73001393Y-97871393D01*
X73019117Y-97855329D01*
X73038330Y-97841079D01*
X73058847Y-97828782D01*
X73080471Y-97818554D01*
X73102993Y-97810496D01*
X73126197Y-97804684D01*
X73149858Y-97801174D01*
X73173750Y-97800000D01*
X73661250Y-97800000D01*
X73685142Y-97801174D01*
X73685142Y-97801174D01*
G37*
D11*
X73417500Y-98500000D03*
D10*
G36*
X71810142Y-97801174D02*
X71833803Y-97804684D01*
X71857007Y-97810496D01*
X71879529Y-97818554D01*
X71901153Y-97828782D01*
X71921670Y-97841079D01*
X71940883Y-97855329D01*
X71958607Y-97871393D01*
X71974671Y-97889117D01*
X71988921Y-97908330D01*
X72001218Y-97928847D01*
X72011446Y-97950471D01*
X72019504Y-97972993D01*
X72025316Y-97996197D01*
X72028826Y-98019858D01*
X72030000Y-98043750D01*
X72030000Y-98956250D01*
X72028826Y-98980142D01*
X72025316Y-99003803D01*
X72019504Y-99027007D01*
X72011446Y-99049529D01*
X72001218Y-99071153D01*
X71988921Y-99091670D01*
X71974671Y-99110883D01*
X71958607Y-99128607D01*
X71940883Y-99144671D01*
X71921670Y-99158921D01*
X71901153Y-99171218D01*
X71879529Y-99181446D01*
X71857007Y-99189504D01*
X71833803Y-99195316D01*
X71810142Y-99198826D01*
X71786250Y-99200000D01*
X71298750Y-99200000D01*
X71274858Y-99198826D01*
X71251197Y-99195316D01*
X71227993Y-99189504D01*
X71205471Y-99181446D01*
X71183847Y-99171218D01*
X71163330Y-99158921D01*
X71144117Y-99144671D01*
X71126393Y-99128607D01*
X71110329Y-99110883D01*
X71096079Y-99091670D01*
X71083782Y-99071153D01*
X71073554Y-99049529D01*
X71065496Y-99027007D01*
X71059684Y-99003803D01*
X71056174Y-98980142D01*
X71055000Y-98956250D01*
X71055000Y-98043750D01*
X71056174Y-98019858D01*
X71059684Y-97996197D01*
X71065496Y-97972993D01*
X71073554Y-97950471D01*
X71083782Y-97928847D01*
X71096079Y-97908330D01*
X71110329Y-97889117D01*
X71126393Y-97871393D01*
X71144117Y-97855329D01*
X71163330Y-97841079D01*
X71183847Y-97828782D01*
X71205471Y-97818554D01*
X71227993Y-97810496D01*
X71251197Y-97804684D01*
X71274858Y-97801174D01*
X71298750Y-97800000D01*
X71786250Y-97800000D01*
X71810142Y-97801174D01*
X71810142Y-97801174D01*
G37*
D11*
X71542500Y-98500000D03*
G04 #@! TD*
D10*
G04 #@! TO.C,R25*
G36*
X103955142Y-88051174D02*
X103978803Y-88054684D01*
X104002007Y-88060496D01*
X104024529Y-88068554D01*
X104046153Y-88078782D01*
X104066670Y-88091079D01*
X104085883Y-88105329D01*
X104103607Y-88121393D01*
X104119671Y-88139117D01*
X104133921Y-88158330D01*
X104146218Y-88178847D01*
X104156446Y-88200471D01*
X104164504Y-88222993D01*
X104170316Y-88246197D01*
X104173826Y-88269858D01*
X104175000Y-88293750D01*
X104175000Y-89206250D01*
X104173826Y-89230142D01*
X104170316Y-89253803D01*
X104164504Y-89277007D01*
X104156446Y-89299529D01*
X104146218Y-89321153D01*
X104133921Y-89341670D01*
X104119671Y-89360883D01*
X104103607Y-89378607D01*
X104085883Y-89394671D01*
X104066670Y-89408921D01*
X104046153Y-89421218D01*
X104024529Y-89431446D01*
X104002007Y-89439504D01*
X103978803Y-89445316D01*
X103955142Y-89448826D01*
X103931250Y-89450000D01*
X103443750Y-89450000D01*
X103419858Y-89448826D01*
X103396197Y-89445316D01*
X103372993Y-89439504D01*
X103350471Y-89431446D01*
X103328847Y-89421218D01*
X103308330Y-89408921D01*
X103289117Y-89394671D01*
X103271393Y-89378607D01*
X103255329Y-89360883D01*
X103241079Y-89341670D01*
X103228782Y-89321153D01*
X103218554Y-89299529D01*
X103210496Y-89277007D01*
X103204684Y-89253803D01*
X103201174Y-89230142D01*
X103200000Y-89206250D01*
X103200000Y-88293750D01*
X103201174Y-88269858D01*
X103204684Y-88246197D01*
X103210496Y-88222993D01*
X103218554Y-88200471D01*
X103228782Y-88178847D01*
X103241079Y-88158330D01*
X103255329Y-88139117D01*
X103271393Y-88121393D01*
X103289117Y-88105329D01*
X103308330Y-88091079D01*
X103328847Y-88078782D01*
X103350471Y-88068554D01*
X103372993Y-88060496D01*
X103396197Y-88054684D01*
X103419858Y-88051174D01*
X103443750Y-88050000D01*
X103931250Y-88050000D01*
X103955142Y-88051174D01*
X103955142Y-88051174D01*
G37*
D11*
X103687500Y-88750000D03*
D10*
G36*
X102080142Y-88051174D02*
X102103803Y-88054684D01*
X102127007Y-88060496D01*
X102149529Y-88068554D01*
X102171153Y-88078782D01*
X102191670Y-88091079D01*
X102210883Y-88105329D01*
X102228607Y-88121393D01*
X102244671Y-88139117D01*
X102258921Y-88158330D01*
X102271218Y-88178847D01*
X102281446Y-88200471D01*
X102289504Y-88222993D01*
X102295316Y-88246197D01*
X102298826Y-88269858D01*
X102300000Y-88293750D01*
X102300000Y-89206250D01*
X102298826Y-89230142D01*
X102295316Y-89253803D01*
X102289504Y-89277007D01*
X102281446Y-89299529D01*
X102271218Y-89321153D01*
X102258921Y-89341670D01*
X102244671Y-89360883D01*
X102228607Y-89378607D01*
X102210883Y-89394671D01*
X102191670Y-89408921D01*
X102171153Y-89421218D01*
X102149529Y-89431446D01*
X102127007Y-89439504D01*
X102103803Y-89445316D01*
X102080142Y-89448826D01*
X102056250Y-89450000D01*
X101568750Y-89450000D01*
X101544858Y-89448826D01*
X101521197Y-89445316D01*
X101497993Y-89439504D01*
X101475471Y-89431446D01*
X101453847Y-89421218D01*
X101433330Y-89408921D01*
X101414117Y-89394671D01*
X101396393Y-89378607D01*
X101380329Y-89360883D01*
X101366079Y-89341670D01*
X101353782Y-89321153D01*
X101343554Y-89299529D01*
X101335496Y-89277007D01*
X101329684Y-89253803D01*
X101326174Y-89230142D01*
X101325000Y-89206250D01*
X101325000Y-88293750D01*
X101326174Y-88269858D01*
X101329684Y-88246197D01*
X101335496Y-88222993D01*
X101343554Y-88200471D01*
X101353782Y-88178847D01*
X101366079Y-88158330D01*
X101380329Y-88139117D01*
X101396393Y-88121393D01*
X101414117Y-88105329D01*
X101433330Y-88091079D01*
X101453847Y-88078782D01*
X101475471Y-88068554D01*
X101497993Y-88060496D01*
X101521197Y-88054684D01*
X101544858Y-88051174D01*
X101568750Y-88050000D01*
X102056250Y-88050000D01*
X102080142Y-88051174D01*
X102080142Y-88051174D01*
G37*
D11*
X101812500Y-88750000D03*
G04 #@! TD*
D10*
G04 #@! TO.C,R26*
G36*
X81360142Y-56301174D02*
X81383803Y-56304684D01*
X81407007Y-56310496D01*
X81429529Y-56318554D01*
X81451153Y-56328782D01*
X81471670Y-56341079D01*
X81490883Y-56355329D01*
X81508607Y-56371393D01*
X81524671Y-56389117D01*
X81538921Y-56408330D01*
X81551218Y-56428847D01*
X81561446Y-56450471D01*
X81569504Y-56472993D01*
X81575316Y-56496197D01*
X81578826Y-56519858D01*
X81580000Y-56543750D01*
X81580000Y-57456250D01*
X81578826Y-57480142D01*
X81575316Y-57503803D01*
X81569504Y-57527007D01*
X81561446Y-57549529D01*
X81551218Y-57571153D01*
X81538921Y-57591670D01*
X81524671Y-57610883D01*
X81508607Y-57628607D01*
X81490883Y-57644671D01*
X81471670Y-57658921D01*
X81451153Y-57671218D01*
X81429529Y-57681446D01*
X81407007Y-57689504D01*
X81383803Y-57695316D01*
X81360142Y-57698826D01*
X81336250Y-57700000D01*
X80848750Y-57700000D01*
X80824858Y-57698826D01*
X80801197Y-57695316D01*
X80777993Y-57689504D01*
X80755471Y-57681446D01*
X80733847Y-57671218D01*
X80713330Y-57658921D01*
X80694117Y-57644671D01*
X80676393Y-57628607D01*
X80660329Y-57610883D01*
X80646079Y-57591670D01*
X80633782Y-57571153D01*
X80623554Y-57549529D01*
X80615496Y-57527007D01*
X80609684Y-57503803D01*
X80606174Y-57480142D01*
X80605000Y-57456250D01*
X80605000Y-56543750D01*
X80606174Y-56519858D01*
X80609684Y-56496197D01*
X80615496Y-56472993D01*
X80623554Y-56450471D01*
X80633782Y-56428847D01*
X80646079Y-56408330D01*
X80660329Y-56389117D01*
X80676393Y-56371393D01*
X80694117Y-56355329D01*
X80713330Y-56341079D01*
X80733847Y-56328782D01*
X80755471Y-56318554D01*
X80777993Y-56310496D01*
X80801197Y-56304684D01*
X80824858Y-56301174D01*
X80848750Y-56300000D01*
X81336250Y-56300000D01*
X81360142Y-56301174D01*
X81360142Y-56301174D01*
G37*
D11*
X81092500Y-57000000D03*
D10*
G36*
X83235142Y-56301174D02*
X83258803Y-56304684D01*
X83282007Y-56310496D01*
X83304529Y-56318554D01*
X83326153Y-56328782D01*
X83346670Y-56341079D01*
X83365883Y-56355329D01*
X83383607Y-56371393D01*
X83399671Y-56389117D01*
X83413921Y-56408330D01*
X83426218Y-56428847D01*
X83436446Y-56450471D01*
X83444504Y-56472993D01*
X83450316Y-56496197D01*
X83453826Y-56519858D01*
X83455000Y-56543750D01*
X83455000Y-57456250D01*
X83453826Y-57480142D01*
X83450316Y-57503803D01*
X83444504Y-57527007D01*
X83436446Y-57549529D01*
X83426218Y-57571153D01*
X83413921Y-57591670D01*
X83399671Y-57610883D01*
X83383607Y-57628607D01*
X83365883Y-57644671D01*
X83346670Y-57658921D01*
X83326153Y-57671218D01*
X83304529Y-57681446D01*
X83282007Y-57689504D01*
X83258803Y-57695316D01*
X83235142Y-57698826D01*
X83211250Y-57700000D01*
X82723750Y-57700000D01*
X82699858Y-57698826D01*
X82676197Y-57695316D01*
X82652993Y-57689504D01*
X82630471Y-57681446D01*
X82608847Y-57671218D01*
X82588330Y-57658921D01*
X82569117Y-57644671D01*
X82551393Y-57628607D01*
X82535329Y-57610883D01*
X82521079Y-57591670D01*
X82508782Y-57571153D01*
X82498554Y-57549529D01*
X82490496Y-57527007D01*
X82484684Y-57503803D01*
X82481174Y-57480142D01*
X82480000Y-57456250D01*
X82480000Y-56543750D01*
X82481174Y-56519858D01*
X82484684Y-56496197D01*
X82490496Y-56472993D01*
X82498554Y-56450471D01*
X82508782Y-56428847D01*
X82521079Y-56408330D01*
X82535329Y-56389117D01*
X82551393Y-56371393D01*
X82569117Y-56355329D01*
X82588330Y-56341079D01*
X82608847Y-56328782D01*
X82630471Y-56318554D01*
X82652993Y-56310496D01*
X82676197Y-56304684D01*
X82699858Y-56301174D01*
X82723750Y-56300000D01*
X83211250Y-56300000D01*
X83235142Y-56301174D01*
X83235142Y-56301174D01*
G37*
D11*
X82967500Y-57000000D03*
G04 #@! TD*
D10*
G04 #@! TO.C,R27*
G36*
X103955142Y-90823901D02*
X103978803Y-90827411D01*
X104002007Y-90833223D01*
X104024529Y-90841281D01*
X104046153Y-90851509D01*
X104066670Y-90863806D01*
X104085883Y-90878056D01*
X104103607Y-90894120D01*
X104119671Y-90911844D01*
X104133921Y-90931057D01*
X104146218Y-90951574D01*
X104156446Y-90973198D01*
X104164504Y-90995720D01*
X104170316Y-91018924D01*
X104173826Y-91042585D01*
X104175000Y-91066477D01*
X104175000Y-91978977D01*
X104173826Y-92002869D01*
X104170316Y-92026530D01*
X104164504Y-92049734D01*
X104156446Y-92072256D01*
X104146218Y-92093880D01*
X104133921Y-92114397D01*
X104119671Y-92133610D01*
X104103607Y-92151334D01*
X104085883Y-92167398D01*
X104066670Y-92181648D01*
X104046153Y-92193945D01*
X104024529Y-92204173D01*
X104002007Y-92212231D01*
X103978803Y-92218043D01*
X103955142Y-92221553D01*
X103931250Y-92222727D01*
X103443750Y-92222727D01*
X103419858Y-92221553D01*
X103396197Y-92218043D01*
X103372993Y-92212231D01*
X103350471Y-92204173D01*
X103328847Y-92193945D01*
X103308330Y-92181648D01*
X103289117Y-92167398D01*
X103271393Y-92151334D01*
X103255329Y-92133610D01*
X103241079Y-92114397D01*
X103228782Y-92093880D01*
X103218554Y-92072256D01*
X103210496Y-92049734D01*
X103204684Y-92026530D01*
X103201174Y-92002869D01*
X103200000Y-91978977D01*
X103200000Y-91066477D01*
X103201174Y-91042585D01*
X103204684Y-91018924D01*
X103210496Y-90995720D01*
X103218554Y-90973198D01*
X103228782Y-90951574D01*
X103241079Y-90931057D01*
X103255329Y-90911844D01*
X103271393Y-90894120D01*
X103289117Y-90878056D01*
X103308330Y-90863806D01*
X103328847Y-90851509D01*
X103350471Y-90841281D01*
X103372993Y-90833223D01*
X103396197Y-90827411D01*
X103419858Y-90823901D01*
X103443750Y-90822727D01*
X103931250Y-90822727D01*
X103955142Y-90823901D01*
X103955142Y-90823901D01*
G37*
D11*
X103687500Y-91522727D03*
D10*
G36*
X102080142Y-90823901D02*
X102103803Y-90827411D01*
X102127007Y-90833223D01*
X102149529Y-90841281D01*
X102171153Y-90851509D01*
X102191670Y-90863806D01*
X102210883Y-90878056D01*
X102228607Y-90894120D01*
X102244671Y-90911844D01*
X102258921Y-90931057D01*
X102271218Y-90951574D01*
X102281446Y-90973198D01*
X102289504Y-90995720D01*
X102295316Y-91018924D01*
X102298826Y-91042585D01*
X102300000Y-91066477D01*
X102300000Y-91978977D01*
X102298826Y-92002869D01*
X102295316Y-92026530D01*
X102289504Y-92049734D01*
X102281446Y-92072256D01*
X102271218Y-92093880D01*
X102258921Y-92114397D01*
X102244671Y-92133610D01*
X102228607Y-92151334D01*
X102210883Y-92167398D01*
X102191670Y-92181648D01*
X102171153Y-92193945D01*
X102149529Y-92204173D01*
X102127007Y-92212231D01*
X102103803Y-92218043D01*
X102080142Y-92221553D01*
X102056250Y-92222727D01*
X101568750Y-92222727D01*
X101544858Y-92221553D01*
X101521197Y-92218043D01*
X101497993Y-92212231D01*
X101475471Y-92204173D01*
X101453847Y-92193945D01*
X101433330Y-92181648D01*
X101414117Y-92167398D01*
X101396393Y-92151334D01*
X101380329Y-92133610D01*
X101366079Y-92114397D01*
X101353782Y-92093880D01*
X101343554Y-92072256D01*
X101335496Y-92049734D01*
X101329684Y-92026530D01*
X101326174Y-92002869D01*
X101325000Y-91978977D01*
X101325000Y-91066477D01*
X101326174Y-91042585D01*
X101329684Y-91018924D01*
X101335496Y-90995720D01*
X101343554Y-90973198D01*
X101353782Y-90951574D01*
X101366079Y-90931057D01*
X101380329Y-90911844D01*
X101396393Y-90894120D01*
X101414117Y-90878056D01*
X101433330Y-90863806D01*
X101453847Y-90851509D01*
X101475471Y-90841281D01*
X101497993Y-90833223D01*
X101521197Y-90827411D01*
X101544858Y-90823901D01*
X101568750Y-90822727D01*
X102056250Y-90822727D01*
X102080142Y-90823901D01*
X102080142Y-90823901D01*
G37*
D11*
X101812500Y-91522727D03*
G04 #@! TD*
D10*
G04 #@! TO.C,R28*
G36*
X81360142Y-61901174D02*
X81383803Y-61904684D01*
X81407007Y-61910496D01*
X81429529Y-61918554D01*
X81451153Y-61928782D01*
X81471670Y-61941079D01*
X81490883Y-61955329D01*
X81508607Y-61971393D01*
X81524671Y-61989117D01*
X81538921Y-62008330D01*
X81551218Y-62028847D01*
X81561446Y-62050471D01*
X81569504Y-62072993D01*
X81575316Y-62096197D01*
X81578826Y-62119858D01*
X81580000Y-62143750D01*
X81580000Y-63056250D01*
X81578826Y-63080142D01*
X81575316Y-63103803D01*
X81569504Y-63127007D01*
X81561446Y-63149529D01*
X81551218Y-63171153D01*
X81538921Y-63191670D01*
X81524671Y-63210883D01*
X81508607Y-63228607D01*
X81490883Y-63244671D01*
X81471670Y-63258921D01*
X81451153Y-63271218D01*
X81429529Y-63281446D01*
X81407007Y-63289504D01*
X81383803Y-63295316D01*
X81360142Y-63298826D01*
X81336250Y-63300000D01*
X80848750Y-63300000D01*
X80824858Y-63298826D01*
X80801197Y-63295316D01*
X80777993Y-63289504D01*
X80755471Y-63281446D01*
X80733847Y-63271218D01*
X80713330Y-63258921D01*
X80694117Y-63244671D01*
X80676393Y-63228607D01*
X80660329Y-63210883D01*
X80646079Y-63191670D01*
X80633782Y-63171153D01*
X80623554Y-63149529D01*
X80615496Y-63127007D01*
X80609684Y-63103803D01*
X80606174Y-63080142D01*
X80605000Y-63056250D01*
X80605000Y-62143750D01*
X80606174Y-62119858D01*
X80609684Y-62096197D01*
X80615496Y-62072993D01*
X80623554Y-62050471D01*
X80633782Y-62028847D01*
X80646079Y-62008330D01*
X80660329Y-61989117D01*
X80676393Y-61971393D01*
X80694117Y-61955329D01*
X80713330Y-61941079D01*
X80733847Y-61928782D01*
X80755471Y-61918554D01*
X80777993Y-61910496D01*
X80801197Y-61904684D01*
X80824858Y-61901174D01*
X80848750Y-61900000D01*
X81336250Y-61900000D01*
X81360142Y-61901174D01*
X81360142Y-61901174D01*
G37*
D11*
X81092500Y-62600000D03*
D10*
G36*
X83235142Y-61901174D02*
X83258803Y-61904684D01*
X83282007Y-61910496D01*
X83304529Y-61918554D01*
X83326153Y-61928782D01*
X83346670Y-61941079D01*
X83365883Y-61955329D01*
X83383607Y-61971393D01*
X83399671Y-61989117D01*
X83413921Y-62008330D01*
X83426218Y-62028847D01*
X83436446Y-62050471D01*
X83444504Y-62072993D01*
X83450316Y-62096197D01*
X83453826Y-62119858D01*
X83455000Y-62143750D01*
X83455000Y-63056250D01*
X83453826Y-63080142D01*
X83450316Y-63103803D01*
X83444504Y-63127007D01*
X83436446Y-63149529D01*
X83426218Y-63171153D01*
X83413921Y-63191670D01*
X83399671Y-63210883D01*
X83383607Y-63228607D01*
X83365883Y-63244671D01*
X83346670Y-63258921D01*
X83326153Y-63271218D01*
X83304529Y-63281446D01*
X83282007Y-63289504D01*
X83258803Y-63295316D01*
X83235142Y-63298826D01*
X83211250Y-63300000D01*
X82723750Y-63300000D01*
X82699858Y-63298826D01*
X82676197Y-63295316D01*
X82652993Y-63289504D01*
X82630471Y-63281446D01*
X82608847Y-63271218D01*
X82588330Y-63258921D01*
X82569117Y-63244671D01*
X82551393Y-63228607D01*
X82535329Y-63210883D01*
X82521079Y-63191670D01*
X82508782Y-63171153D01*
X82498554Y-63149529D01*
X82490496Y-63127007D01*
X82484684Y-63103803D01*
X82481174Y-63080142D01*
X82480000Y-63056250D01*
X82480000Y-62143750D01*
X82481174Y-62119858D01*
X82484684Y-62096197D01*
X82490496Y-62072993D01*
X82498554Y-62050471D01*
X82508782Y-62028847D01*
X82521079Y-62008330D01*
X82535329Y-61989117D01*
X82551393Y-61971393D01*
X82569117Y-61955329D01*
X82588330Y-61941079D01*
X82608847Y-61928782D01*
X82630471Y-61918554D01*
X82652993Y-61910496D01*
X82676197Y-61904684D01*
X82699858Y-61901174D01*
X82723750Y-61900000D01*
X83211250Y-61900000D01*
X83235142Y-61901174D01*
X83235142Y-61901174D01*
G37*
D11*
X82967500Y-62600000D03*
G04 #@! TD*
D10*
G04 #@! TO.C,R29*
G36*
X102080142Y-93596628D02*
X102103803Y-93600138D01*
X102127007Y-93605950D01*
X102149529Y-93614008D01*
X102171153Y-93624236D01*
X102191670Y-93636533D01*
X102210883Y-93650783D01*
X102228607Y-93666847D01*
X102244671Y-93684571D01*
X102258921Y-93703784D01*
X102271218Y-93724301D01*
X102281446Y-93745925D01*
X102289504Y-93768447D01*
X102295316Y-93791651D01*
X102298826Y-93815312D01*
X102300000Y-93839204D01*
X102300000Y-94751704D01*
X102298826Y-94775596D01*
X102295316Y-94799257D01*
X102289504Y-94822461D01*
X102281446Y-94844983D01*
X102271218Y-94866607D01*
X102258921Y-94887124D01*
X102244671Y-94906337D01*
X102228607Y-94924061D01*
X102210883Y-94940125D01*
X102191670Y-94954375D01*
X102171153Y-94966672D01*
X102149529Y-94976900D01*
X102127007Y-94984958D01*
X102103803Y-94990770D01*
X102080142Y-94994280D01*
X102056250Y-94995454D01*
X101568750Y-94995454D01*
X101544858Y-94994280D01*
X101521197Y-94990770D01*
X101497993Y-94984958D01*
X101475471Y-94976900D01*
X101453847Y-94966672D01*
X101433330Y-94954375D01*
X101414117Y-94940125D01*
X101396393Y-94924061D01*
X101380329Y-94906337D01*
X101366079Y-94887124D01*
X101353782Y-94866607D01*
X101343554Y-94844983D01*
X101335496Y-94822461D01*
X101329684Y-94799257D01*
X101326174Y-94775596D01*
X101325000Y-94751704D01*
X101325000Y-93839204D01*
X101326174Y-93815312D01*
X101329684Y-93791651D01*
X101335496Y-93768447D01*
X101343554Y-93745925D01*
X101353782Y-93724301D01*
X101366079Y-93703784D01*
X101380329Y-93684571D01*
X101396393Y-93666847D01*
X101414117Y-93650783D01*
X101433330Y-93636533D01*
X101453847Y-93624236D01*
X101475471Y-93614008D01*
X101497993Y-93605950D01*
X101521197Y-93600138D01*
X101544858Y-93596628D01*
X101568750Y-93595454D01*
X102056250Y-93595454D01*
X102080142Y-93596628D01*
X102080142Y-93596628D01*
G37*
D11*
X101812500Y-94295454D03*
D10*
G36*
X103955142Y-93596628D02*
X103978803Y-93600138D01*
X104002007Y-93605950D01*
X104024529Y-93614008D01*
X104046153Y-93624236D01*
X104066670Y-93636533D01*
X104085883Y-93650783D01*
X104103607Y-93666847D01*
X104119671Y-93684571D01*
X104133921Y-93703784D01*
X104146218Y-93724301D01*
X104156446Y-93745925D01*
X104164504Y-93768447D01*
X104170316Y-93791651D01*
X104173826Y-93815312D01*
X104175000Y-93839204D01*
X104175000Y-94751704D01*
X104173826Y-94775596D01*
X104170316Y-94799257D01*
X104164504Y-94822461D01*
X104156446Y-94844983D01*
X104146218Y-94866607D01*
X104133921Y-94887124D01*
X104119671Y-94906337D01*
X104103607Y-94924061D01*
X104085883Y-94940125D01*
X104066670Y-94954375D01*
X104046153Y-94966672D01*
X104024529Y-94976900D01*
X104002007Y-94984958D01*
X103978803Y-94990770D01*
X103955142Y-94994280D01*
X103931250Y-94995454D01*
X103443750Y-94995454D01*
X103419858Y-94994280D01*
X103396197Y-94990770D01*
X103372993Y-94984958D01*
X103350471Y-94976900D01*
X103328847Y-94966672D01*
X103308330Y-94954375D01*
X103289117Y-94940125D01*
X103271393Y-94924061D01*
X103255329Y-94906337D01*
X103241079Y-94887124D01*
X103228782Y-94866607D01*
X103218554Y-94844983D01*
X103210496Y-94822461D01*
X103204684Y-94799257D01*
X103201174Y-94775596D01*
X103200000Y-94751704D01*
X103200000Y-93839204D01*
X103201174Y-93815312D01*
X103204684Y-93791651D01*
X103210496Y-93768447D01*
X103218554Y-93745925D01*
X103228782Y-93724301D01*
X103241079Y-93703784D01*
X103255329Y-93684571D01*
X103271393Y-93666847D01*
X103289117Y-93650783D01*
X103308330Y-93636533D01*
X103328847Y-93624236D01*
X103350471Y-93614008D01*
X103372993Y-93605950D01*
X103396197Y-93600138D01*
X103419858Y-93596628D01*
X103443750Y-93595454D01*
X103931250Y-93595454D01*
X103955142Y-93596628D01*
X103955142Y-93596628D01*
G37*
D11*
X103687500Y-94295454D03*
G04 #@! TD*
D10*
G04 #@! TO.C,R30*
G36*
X83235142Y-67601174D02*
X83258803Y-67604684D01*
X83282007Y-67610496D01*
X83304529Y-67618554D01*
X83326153Y-67628782D01*
X83346670Y-67641079D01*
X83365883Y-67655329D01*
X83383607Y-67671393D01*
X83399671Y-67689117D01*
X83413921Y-67708330D01*
X83426218Y-67728847D01*
X83436446Y-67750471D01*
X83444504Y-67772993D01*
X83450316Y-67796197D01*
X83453826Y-67819858D01*
X83455000Y-67843750D01*
X83455000Y-68756250D01*
X83453826Y-68780142D01*
X83450316Y-68803803D01*
X83444504Y-68827007D01*
X83436446Y-68849529D01*
X83426218Y-68871153D01*
X83413921Y-68891670D01*
X83399671Y-68910883D01*
X83383607Y-68928607D01*
X83365883Y-68944671D01*
X83346670Y-68958921D01*
X83326153Y-68971218D01*
X83304529Y-68981446D01*
X83282007Y-68989504D01*
X83258803Y-68995316D01*
X83235142Y-68998826D01*
X83211250Y-69000000D01*
X82723750Y-69000000D01*
X82699858Y-68998826D01*
X82676197Y-68995316D01*
X82652993Y-68989504D01*
X82630471Y-68981446D01*
X82608847Y-68971218D01*
X82588330Y-68958921D01*
X82569117Y-68944671D01*
X82551393Y-68928607D01*
X82535329Y-68910883D01*
X82521079Y-68891670D01*
X82508782Y-68871153D01*
X82498554Y-68849529D01*
X82490496Y-68827007D01*
X82484684Y-68803803D01*
X82481174Y-68780142D01*
X82480000Y-68756250D01*
X82480000Y-67843750D01*
X82481174Y-67819858D01*
X82484684Y-67796197D01*
X82490496Y-67772993D01*
X82498554Y-67750471D01*
X82508782Y-67728847D01*
X82521079Y-67708330D01*
X82535329Y-67689117D01*
X82551393Y-67671393D01*
X82569117Y-67655329D01*
X82588330Y-67641079D01*
X82608847Y-67628782D01*
X82630471Y-67618554D01*
X82652993Y-67610496D01*
X82676197Y-67604684D01*
X82699858Y-67601174D01*
X82723750Y-67600000D01*
X83211250Y-67600000D01*
X83235142Y-67601174D01*
X83235142Y-67601174D01*
G37*
D11*
X82967500Y-68300000D03*
D10*
G36*
X81360142Y-67601174D02*
X81383803Y-67604684D01*
X81407007Y-67610496D01*
X81429529Y-67618554D01*
X81451153Y-67628782D01*
X81471670Y-67641079D01*
X81490883Y-67655329D01*
X81508607Y-67671393D01*
X81524671Y-67689117D01*
X81538921Y-67708330D01*
X81551218Y-67728847D01*
X81561446Y-67750471D01*
X81569504Y-67772993D01*
X81575316Y-67796197D01*
X81578826Y-67819858D01*
X81580000Y-67843750D01*
X81580000Y-68756250D01*
X81578826Y-68780142D01*
X81575316Y-68803803D01*
X81569504Y-68827007D01*
X81561446Y-68849529D01*
X81551218Y-68871153D01*
X81538921Y-68891670D01*
X81524671Y-68910883D01*
X81508607Y-68928607D01*
X81490883Y-68944671D01*
X81471670Y-68958921D01*
X81451153Y-68971218D01*
X81429529Y-68981446D01*
X81407007Y-68989504D01*
X81383803Y-68995316D01*
X81360142Y-68998826D01*
X81336250Y-69000000D01*
X80848750Y-69000000D01*
X80824858Y-68998826D01*
X80801197Y-68995316D01*
X80777993Y-68989504D01*
X80755471Y-68981446D01*
X80733847Y-68971218D01*
X80713330Y-68958921D01*
X80694117Y-68944671D01*
X80676393Y-68928607D01*
X80660329Y-68910883D01*
X80646079Y-68891670D01*
X80633782Y-68871153D01*
X80623554Y-68849529D01*
X80615496Y-68827007D01*
X80609684Y-68803803D01*
X80606174Y-68780142D01*
X80605000Y-68756250D01*
X80605000Y-67843750D01*
X80606174Y-67819858D01*
X80609684Y-67796197D01*
X80615496Y-67772993D01*
X80623554Y-67750471D01*
X80633782Y-67728847D01*
X80646079Y-67708330D01*
X80660329Y-67689117D01*
X80676393Y-67671393D01*
X80694117Y-67655329D01*
X80713330Y-67641079D01*
X80733847Y-67628782D01*
X80755471Y-67618554D01*
X80777993Y-67610496D01*
X80801197Y-67604684D01*
X80824858Y-67601174D01*
X80848750Y-67600000D01*
X81336250Y-67600000D01*
X81360142Y-67601174D01*
X81360142Y-67601174D01*
G37*
D11*
X81092500Y-68300000D03*
G04 #@! TD*
D10*
G04 #@! TO.C,R31*
G36*
X103955142Y-96369355D02*
X103978803Y-96372865D01*
X104002007Y-96378677D01*
X104024529Y-96386735D01*
X104046153Y-96396963D01*
X104066670Y-96409260D01*
X104085883Y-96423510D01*
X104103607Y-96439574D01*
X104119671Y-96457298D01*
X104133921Y-96476511D01*
X104146218Y-96497028D01*
X104156446Y-96518652D01*
X104164504Y-96541174D01*
X104170316Y-96564378D01*
X104173826Y-96588039D01*
X104175000Y-96611931D01*
X104175000Y-97524431D01*
X104173826Y-97548323D01*
X104170316Y-97571984D01*
X104164504Y-97595188D01*
X104156446Y-97617710D01*
X104146218Y-97639334D01*
X104133921Y-97659851D01*
X104119671Y-97679064D01*
X104103607Y-97696788D01*
X104085883Y-97712852D01*
X104066670Y-97727102D01*
X104046153Y-97739399D01*
X104024529Y-97749627D01*
X104002007Y-97757685D01*
X103978803Y-97763497D01*
X103955142Y-97767007D01*
X103931250Y-97768181D01*
X103443750Y-97768181D01*
X103419858Y-97767007D01*
X103396197Y-97763497D01*
X103372993Y-97757685D01*
X103350471Y-97749627D01*
X103328847Y-97739399D01*
X103308330Y-97727102D01*
X103289117Y-97712852D01*
X103271393Y-97696788D01*
X103255329Y-97679064D01*
X103241079Y-97659851D01*
X103228782Y-97639334D01*
X103218554Y-97617710D01*
X103210496Y-97595188D01*
X103204684Y-97571984D01*
X103201174Y-97548323D01*
X103200000Y-97524431D01*
X103200000Y-96611931D01*
X103201174Y-96588039D01*
X103204684Y-96564378D01*
X103210496Y-96541174D01*
X103218554Y-96518652D01*
X103228782Y-96497028D01*
X103241079Y-96476511D01*
X103255329Y-96457298D01*
X103271393Y-96439574D01*
X103289117Y-96423510D01*
X103308330Y-96409260D01*
X103328847Y-96396963D01*
X103350471Y-96386735D01*
X103372993Y-96378677D01*
X103396197Y-96372865D01*
X103419858Y-96369355D01*
X103443750Y-96368181D01*
X103931250Y-96368181D01*
X103955142Y-96369355D01*
X103955142Y-96369355D01*
G37*
D11*
X103687500Y-97068181D03*
D10*
G36*
X102080142Y-96369355D02*
X102103803Y-96372865D01*
X102127007Y-96378677D01*
X102149529Y-96386735D01*
X102171153Y-96396963D01*
X102191670Y-96409260D01*
X102210883Y-96423510D01*
X102228607Y-96439574D01*
X102244671Y-96457298D01*
X102258921Y-96476511D01*
X102271218Y-96497028D01*
X102281446Y-96518652D01*
X102289504Y-96541174D01*
X102295316Y-96564378D01*
X102298826Y-96588039D01*
X102300000Y-96611931D01*
X102300000Y-97524431D01*
X102298826Y-97548323D01*
X102295316Y-97571984D01*
X102289504Y-97595188D01*
X102281446Y-97617710D01*
X102271218Y-97639334D01*
X102258921Y-97659851D01*
X102244671Y-97679064D01*
X102228607Y-97696788D01*
X102210883Y-97712852D01*
X102191670Y-97727102D01*
X102171153Y-97739399D01*
X102149529Y-97749627D01*
X102127007Y-97757685D01*
X102103803Y-97763497D01*
X102080142Y-97767007D01*
X102056250Y-97768181D01*
X101568750Y-97768181D01*
X101544858Y-97767007D01*
X101521197Y-97763497D01*
X101497993Y-97757685D01*
X101475471Y-97749627D01*
X101453847Y-97739399D01*
X101433330Y-97727102D01*
X101414117Y-97712852D01*
X101396393Y-97696788D01*
X101380329Y-97679064D01*
X101366079Y-97659851D01*
X101353782Y-97639334D01*
X101343554Y-97617710D01*
X101335496Y-97595188D01*
X101329684Y-97571984D01*
X101326174Y-97548323D01*
X101325000Y-97524431D01*
X101325000Y-96611931D01*
X101326174Y-96588039D01*
X101329684Y-96564378D01*
X101335496Y-96541174D01*
X101343554Y-96518652D01*
X101353782Y-96497028D01*
X101366079Y-96476511D01*
X101380329Y-96457298D01*
X101396393Y-96439574D01*
X101414117Y-96423510D01*
X101433330Y-96409260D01*
X101453847Y-96396963D01*
X101475471Y-96386735D01*
X101497993Y-96378677D01*
X101521197Y-96372865D01*
X101544858Y-96369355D01*
X101568750Y-96368181D01*
X102056250Y-96368181D01*
X102080142Y-96369355D01*
X102080142Y-96369355D01*
G37*
D11*
X101812500Y-97068181D03*
G04 #@! TD*
D10*
G04 #@! TO.C,R32*
G36*
X81360142Y-73201174D02*
X81383803Y-73204684D01*
X81407007Y-73210496D01*
X81429529Y-73218554D01*
X81451153Y-73228782D01*
X81471670Y-73241079D01*
X81490883Y-73255329D01*
X81508607Y-73271393D01*
X81524671Y-73289117D01*
X81538921Y-73308330D01*
X81551218Y-73328847D01*
X81561446Y-73350471D01*
X81569504Y-73372993D01*
X81575316Y-73396197D01*
X81578826Y-73419858D01*
X81580000Y-73443750D01*
X81580000Y-74356250D01*
X81578826Y-74380142D01*
X81575316Y-74403803D01*
X81569504Y-74427007D01*
X81561446Y-74449529D01*
X81551218Y-74471153D01*
X81538921Y-74491670D01*
X81524671Y-74510883D01*
X81508607Y-74528607D01*
X81490883Y-74544671D01*
X81471670Y-74558921D01*
X81451153Y-74571218D01*
X81429529Y-74581446D01*
X81407007Y-74589504D01*
X81383803Y-74595316D01*
X81360142Y-74598826D01*
X81336250Y-74600000D01*
X80848750Y-74600000D01*
X80824858Y-74598826D01*
X80801197Y-74595316D01*
X80777993Y-74589504D01*
X80755471Y-74581446D01*
X80733847Y-74571218D01*
X80713330Y-74558921D01*
X80694117Y-74544671D01*
X80676393Y-74528607D01*
X80660329Y-74510883D01*
X80646079Y-74491670D01*
X80633782Y-74471153D01*
X80623554Y-74449529D01*
X80615496Y-74427007D01*
X80609684Y-74403803D01*
X80606174Y-74380142D01*
X80605000Y-74356250D01*
X80605000Y-73443750D01*
X80606174Y-73419858D01*
X80609684Y-73396197D01*
X80615496Y-73372993D01*
X80623554Y-73350471D01*
X80633782Y-73328847D01*
X80646079Y-73308330D01*
X80660329Y-73289117D01*
X80676393Y-73271393D01*
X80694117Y-73255329D01*
X80713330Y-73241079D01*
X80733847Y-73228782D01*
X80755471Y-73218554D01*
X80777993Y-73210496D01*
X80801197Y-73204684D01*
X80824858Y-73201174D01*
X80848750Y-73200000D01*
X81336250Y-73200000D01*
X81360142Y-73201174D01*
X81360142Y-73201174D01*
G37*
D11*
X81092500Y-73900000D03*
D10*
G36*
X83235142Y-73201174D02*
X83258803Y-73204684D01*
X83282007Y-73210496D01*
X83304529Y-73218554D01*
X83326153Y-73228782D01*
X83346670Y-73241079D01*
X83365883Y-73255329D01*
X83383607Y-73271393D01*
X83399671Y-73289117D01*
X83413921Y-73308330D01*
X83426218Y-73328847D01*
X83436446Y-73350471D01*
X83444504Y-73372993D01*
X83450316Y-73396197D01*
X83453826Y-73419858D01*
X83455000Y-73443750D01*
X83455000Y-74356250D01*
X83453826Y-74380142D01*
X83450316Y-74403803D01*
X83444504Y-74427007D01*
X83436446Y-74449529D01*
X83426218Y-74471153D01*
X83413921Y-74491670D01*
X83399671Y-74510883D01*
X83383607Y-74528607D01*
X83365883Y-74544671D01*
X83346670Y-74558921D01*
X83326153Y-74571218D01*
X83304529Y-74581446D01*
X83282007Y-74589504D01*
X83258803Y-74595316D01*
X83235142Y-74598826D01*
X83211250Y-74600000D01*
X82723750Y-74600000D01*
X82699858Y-74598826D01*
X82676197Y-74595316D01*
X82652993Y-74589504D01*
X82630471Y-74581446D01*
X82608847Y-74571218D01*
X82588330Y-74558921D01*
X82569117Y-74544671D01*
X82551393Y-74528607D01*
X82535329Y-74510883D01*
X82521079Y-74491670D01*
X82508782Y-74471153D01*
X82498554Y-74449529D01*
X82490496Y-74427007D01*
X82484684Y-74403803D01*
X82481174Y-74380142D01*
X82480000Y-74356250D01*
X82480000Y-73443750D01*
X82481174Y-73419858D01*
X82484684Y-73396197D01*
X82490496Y-73372993D01*
X82498554Y-73350471D01*
X82508782Y-73328847D01*
X82521079Y-73308330D01*
X82535329Y-73289117D01*
X82551393Y-73271393D01*
X82569117Y-73255329D01*
X82588330Y-73241079D01*
X82608847Y-73228782D01*
X82630471Y-73218554D01*
X82652993Y-73210496D01*
X82676197Y-73204684D01*
X82699858Y-73201174D01*
X82723750Y-73200000D01*
X83211250Y-73200000D01*
X83235142Y-73201174D01*
X83235142Y-73201174D01*
G37*
D11*
X82967500Y-73900000D03*
G04 #@! TD*
D10*
G04 #@! TO.C,R33*
G36*
X103955142Y-99142082D02*
X103978803Y-99145592D01*
X104002007Y-99151404D01*
X104024529Y-99159462D01*
X104046153Y-99169690D01*
X104066670Y-99181987D01*
X104085883Y-99196237D01*
X104103607Y-99212301D01*
X104119671Y-99230025D01*
X104133921Y-99249238D01*
X104146218Y-99269755D01*
X104156446Y-99291379D01*
X104164504Y-99313901D01*
X104170316Y-99337105D01*
X104173826Y-99360766D01*
X104175000Y-99384658D01*
X104175000Y-100297158D01*
X104173826Y-100321050D01*
X104170316Y-100344711D01*
X104164504Y-100367915D01*
X104156446Y-100390437D01*
X104146218Y-100412061D01*
X104133921Y-100432578D01*
X104119671Y-100451791D01*
X104103607Y-100469515D01*
X104085883Y-100485579D01*
X104066670Y-100499829D01*
X104046153Y-100512126D01*
X104024529Y-100522354D01*
X104002007Y-100530412D01*
X103978803Y-100536224D01*
X103955142Y-100539734D01*
X103931250Y-100540908D01*
X103443750Y-100540908D01*
X103419858Y-100539734D01*
X103396197Y-100536224D01*
X103372993Y-100530412D01*
X103350471Y-100522354D01*
X103328847Y-100512126D01*
X103308330Y-100499829D01*
X103289117Y-100485579D01*
X103271393Y-100469515D01*
X103255329Y-100451791D01*
X103241079Y-100432578D01*
X103228782Y-100412061D01*
X103218554Y-100390437D01*
X103210496Y-100367915D01*
X103204684Y-100344711D01*
X103201174Y-100321050D01*
X103200000Y-100297158D01*
X103200000Y-99384658D01*
X103201174Y-99360766D01*
X103204684Y-99337105D01*
X103210496Y-99313901D01*
X103218554Y-99291379D01*
X103228782Y-99269755D01*
X103241079Y-99249238D01*
X103255329Y-99230025D01*
X103271393Y-99212301D01*
X103289117Y-99196237D01*
X103308330Y-99181987D01*
X103328847Y-99169690D01*
X103350471Y-99159462D01*
X103372993Y-99151404D01*
X103396197Y-99145592D01*
X103419858Y-99142082D01*
X103443750Y-99140908D01*
X103931250Y-99140908D01*
X103955142Y-99142082D01*
X103955142Y-99142082D01*
G37*
D11*
X103687500Y-99840908D03*
D10*
G36*
X102080142Y-99142082D02*
X102103803Y-99145592D01*
X102127007Y-99151404D01*
X102149529Y-99159462D01*
X102171153Y-99169690D01*
X102191670Y-99181987D01*
X102210883Y-99196237D01*
X102228607Y-99212301D01*
X102244671Y-99230025D01*
X102258921Y-99249238D01*
X102271218Y-99269755D01*
X102281446Y-99291379D01*
X102289504Y-99313901D01*
X102295316Y-99337105D01*
X102298826Y-99360766D01*
X102300000Y-99384658D01*
X102300000Y-100297158D01*
X102298826Y-100321050D01*
X102295316Y-100344711D01*
X102289504Y-100367915D01*
X102281446Y-100390437D01*
X102271218Y-100412061D01*
X102258921Y-100432578D01*
X102244671Y-100451791D01*
X102228607Y-100469515D01*
X102210883Y-100485579D01*
X102191670Y-100499829D01*
X102171153Y-100512126D01*
X102149529Y-100522354D01*
X102127007Y-100530412D01*
X102103803Y-100536224D01*
X102080142Y-100539734D01*
X102056250Y-100540908D01*
X101568750Y-100540908D01*
X101544858Y-100539734D01*
X101521197Y-100536224D01*
X101497993Y-100530412D01*
X101475471Y-100522354D01*
X101453847Y-100512126D01*
X101433330Y-100499829D01*
X101414117Y-100485579D01*
X101396393Y-100469515D01*
X101380329Y-100451791D01*
X101366079Y-100432578D01*
X101353782Y-100412061D01*
X101343554Y-100390437D01*
X101335496Y-100367915D01*
X101329684Y-100344711D01*
X101326174Y-100321050D01*
X101325000Y-100297158D01*
X101325000Y-99384658D01*
X101326174Y-99360766D01*
X101329684Y-99337105D01*
X101335496Y-99313901D01*
X101343554Y-99291379D01*
X101353782Y-99269755D01*
X101366079Y-99249238D01*
X101380329Y-99230025D01*
X101396393Y-99212301D01*
X101414117Y-99196237D01*
X101433330Y-99181987D01*
X101453847Y-99169690D01*
X101475471Y-99159462D01*
X101497993Y-99151404D01*
X101521197Y-99145592D01*
X101544858Y-99142082D01*
X101568750Y-99140908D01*
X102056250Y-99140908D01*
X102080142Y-99142082D01*
X102080142Y-99142082D01*
G37*
D11*
X101812500Y-99840908D03*
G04 #@! TD*
D10*
G04 #@! TO.C,R34*
G36*
X81360142Y-78801174D02*
X81383803Y-78804684D01*
X81407007Y-78810496D01*
X81429529Y-78818554D01*
X81451153Y-78828782D01*
X81471670Y-78841079D01*
X81490883Y-78855329D01*
X81508607Y-78871393D01*
X81524671Y-78889117D01*
X81538921Y-78908330D01*
X81551218Y-78928847D01*
X81561446Y-78950471D01*
X81569504Y-78972993D01*
X81575316Y-78996197D01*
X81578826Y-79019858D01*
X81580000Y-79043750D01*
X81580000Y-79956250D01*
X81578826Y-79980142D01*
X81575316Y-80003803D01*
X81569504Y-80027007D01*
X81561446Y-80049529D01*
X81551218Y-80071153D01*
X81538921Y-80091670D01*
X81524671Y-80110883D01*
X81508607Y-80128607D01*
X81490883Y-80144671D01*
X81471670Y-80158921D01*
X81451153Y-80171218D01*
X81429529Y-80181446D01*
X81407007Y-80189504D01*
X81383803Y-80195316D01*
X81360142Y-80198826D01*
X81336250Y-80200000D01*
X80848750Y-80200000D01*
X80824858Y-80198826D01*
X80801197Y-80195316D01*
X80777993Y-80189504D01*
X80755471Y-80181446D01*
X80733847Y-80171218D01*
X80713330Y-80158921D01*
X80694117Y-80144671D01*
X80676393Y-80128607D01*
X80660329Y-80110883D01*
X80646079Y-80091670D01*
X80633782Y-80071153D01*
X80623554Y-80049529D01*
X80615496Y-80027007D01*
X80609684Y-80003803D01*
X80606174Y-79980142D01*
X80605000Y-79956250D01*
X80605000Y-79043750D01*
X80606174Y-79019858D01*
X80609684Y-78996197D01*
X80615496Y-78972993D01*
X80623554Y-78950471D01*
X80633782Y-78928847D01*
X80646079Y-78908330D01*
X80660329Y-78889117D01*
X80676393Y-78871393D01*
X80694117Y-78855329D01*
X80713330Y-78841079D01*
X80733847Y-78828782D01*
X80755471Y-78818554D01*
X80777993Y-78810496D01*
X80801197Y-78804684D01*
X80824858Y-78801174D01*
X80848750Y-78800000D01*
X81336250Y-78800000D01*
X81360142Y-78801174D01*
X81360142Y-78801174D01*
G37*
D11*
X81092500Y-79500000D03*
D10*
G36*
X83235142Y-78801174D02*
X83258803Y-78804684D01*
X83282007Y-78810496D01*
X83304529Y-78818554D01*
X83326153Y-78828782D01*
X83346670Y-78841079D01*
X83365883Y-78855329D01*
X83383607Y-78871393D01*
X83399671Y-78889117D01*
X83413921Y-78908330D01*
X83426218Y-78928847D01*
X83436446Y-78950471D01*
X83444504Y-78972993D01*
X83450316Y-78996197D01*
X83453826Y-79019858D01*
X83455000Y-79043750D01*
X83455000Y-79956250D01*
X83453826Y-79980142D01*
X83450316Y-80003803D01*
X83444504Y-80027007D01*
X83436446Y-80049529D01*
X83426218Y-80071153D01*
X83413921Y-80091670D01*
X83399671Y-80110883D01*
X83383607Y-80128607D01*
X83365883Y-80144671D01*
X83346670Y-80158921D01*
X83326153Y-80171218D01*
X83304529Y-80181446D01*
X83282007Y-80189504D01*
X83258803Y-80195316D01*
X83235142Y-80198826D01*
X83211250Y-80200000D01*
X82723750Y-80200000D01*
X82699858Y-80198826D01*
X82676197Y-80195316D01*
X82652993Y-80189504D01*
X82630471Y-80181446D01*
X82608847Y-80171218D01*
X82588330Y-80158921D01*
X82569117Y-80144671D01*
X82551393Y-80128607D01*
X82535329Y-80110883D01*
X82521079Y-80091670D01*
X82508782Y-80071153D01*
X82498554Y-80049529D01*
X82490496Y-80027007D01*
X82484684Y-80003803D01*
X82481174Y-79980142D01*
X82480000Y-79956250D01*
X82480000Y-79043750D01*
X82481174Y-79019858D01*
X82484684Y-78996197D01*
X82490496Y-78972993D01*
X82498554Y-78950471D01*
X82508782Y-78928847D01*
X82521079Y-78908330D01*
X82535329Y-78889117D01*
X82551393Y-78871393D01*
X82569117Y-78855329D01*
X82588330Y-78841079D01*
X82608847Y-78828782D01*
X82630471Y-78818554D01*
X82652993Y-78810496D01*
X82676197Y-78804684D01*
X82699858Y-78801174D01*
X82723750Y-78800000D01*
X83211250Y-78800000D01*
X83235142Y-78801174D01*
X83235142Y-78801174D01*
G37*
D11*
X82967500Y-79500000D03*
G04 #@! TD*
D10*
G04 #@! TO.C,R35*
G36*
X102080142Y-101914809D02*
X102103803Y-101918319D01*
X102127007Y-101924131D01*
X102149529Y-101932189D01*
X102171153Y-101942417D01*
X102191670Y-101954714D01*
X102210883Y-101968964D01*
X102228607Y-101985028D01*
X102244671Y-102002752D01*
X102258921Y-102021965D01*
X102271218Y-102042482D01*
X102281446Y-102064106D01*
X102289504Y-102086628D01*
X102295316Y-102109832D01*
X102298826Y-102133493D01*
X102300000Y-102157385D01*
X102300000Y-103069885D01*
X102298826Y-103093777D01*
X102295316Y-103117438D01*
X102289504Y-103140642D01*
X102281446Y-103163164D01*
X102271218Y-103184788D01*
X102258921Y-103205305D01*
X102244671Y-103224518D01*
X102228607Y-103242242D01*
X102210883Y-103258306D01*
X102191670Y-103272556D01*
X102171153Y-103284853D01*
X102149529Y-103295081D01*
X102127007Y-103303139D01*
X102103803Y-103308951D01*
X102080142Y-103312461D01*
X102056250Y-103313635D01*
X101568750Y-103313635D01*
X101544858Y-103312461D01*
X101521197Y-103308951D01*
X101497993Y-103303139D01*
X101475471Y-103295081D01*
X101453847Y-103284853D01*
X101433330Y-103272556D01*
X101414117Y-103258306D01*
X101396393Y-103242242D01*
X101380329Y-103224518D01*
X101366079Y-103205305D01*
X101353782Y-103184788D01*
X101343554Y-103163164D01*
X101335496Y-103140642D01*
X101329684Y-103117438D01*
X101326174Y-103093777D01*
X101325000Y-103069885D01*
X101325000Y-102157385D01*
X101326174Y-102133493D01*
X101329684Y-102109832D01*
X101335496Y-102086628D01*
X101343554Y-102064106D01*
X101353782Y-102042482D01*
X101366079Y-102021965D01*
X101380329Y-102002752D01*
X101396393Y-101985028D01*
X101414117Y-101968964D01*
X101433330Y-101954714D01*
X101453847Y-101942417D01*
X101475471Y-101932189D01*
X101497993Y-101924131D01*
X101521197Y-101918319D01*
X101544858Y-101914809D01*
X101568750Y-101913635D01*
X102056250Y-101913635D01*
X102080142Y-101914809D01*
X102080142Y-101914809D01*
G37*
D11*
X101812500Y-102613635D03*
D10*
G36*
X103955142Y-101914809D02*
X103978803Y-101918319D01*
X104002007Y-101924131D01*
X104024529Y-101932189D01*
X104046153Y-101942417D01*
X104066670Y-101954714D01*
X104085883Y-101968964D01*
X104103607Y-101985028D01*
X104119671Y-102002752D01*
X104133921Y-102021965D01*
X104146218Y-102042482D01*
X104156446Y-102064106D01*
X104164504Y-102086628D01*
X104170316Y-102109832D01*
X104173826Y-102133493D01*
X104175000Y-102157385D01*
X104175000Y-103069885D01*
X104173826Y-103093777D01*
X104170316Y-103117438D01*
X104164504Y-103140642D01*
X104156446Y-103163164D01*
X104146218Y-103184788D01*
X104133921Y-103205305D01*
X104119671Y-103224518D01*
X104103607Y-103242242D01*
X104085883Y-103258306D01*
X104066670Y-103272556D01*
X104046153Y-103284853D01*
X104024529Y-103295081D01*
X104002007Y-103303139D01*
X103978803Y-103308951D01*
X103955142Y-103312461D01*
X103931250Y-103313635D01*
X103443750Y-103313635D01*
X103419858Y-103312461D01*
X103396197Y-103308951D01*
X103372993Y-103303139D01*
X103350471Y-103295081D01*
X103328847Y-103284853D01*
X103308330Y-103272556D01*
X103289117Y-103258306D01*
X103271393Y-103242242D01*
X103255329Y-103224518D01*
X103241079Y-103205305D01*
X103228782Y-103184788D01*
X103218554Y-103163164D01*
X103210496Y-103140642D01*
X103204684Y-103117438D01*
X103201174Y-103093777D01*
X103200000Y-103069885D01*
X103200000Y-102157385D01*
X103201174Y-102133493D01*
X103204684Y-102109832D01*
X103210496Y-102086628D01*
X103218554Y-102064106D01*
X103228782Y-102042482D01*
X103241079Y-102021965D01*
X103255329Y-102002752D01*
X103271393Y-101985028D01*
X103289117Y-101968964D01*
X103308330Y-101954714D01*
X103328847Y-101942417D01*
X103350471Y-101932189D01*
X103372993Y-101924131D01*
X103396197Y-101918319D01*
X103419858Y-101914809D01*
X103443750Y-101913635D01*
X103931250Y-101913635D01*
X103955142Y-101914809D01*
X103955142Y-101914809D01*
G37*
D11*
X103687500Y-102613635D03*
G04 #@! TD*
D10*
G04 #@! TO.C,R36*
G36*
X83235142Y-84401174D02*
X83258803Y-84404684D01*
X83282007Y-84410496D01*
X83304529Y-84418554D01*
X83326153Y-84428782D01*
X83346670Y-84441079D01*
X83365883Y-84455329D01*
X83383607Y-84471393D01*
X83399671Y-84489117D01*
X83413921Y-84508330D01*
X83426218Y-84528847D01*
X83436446Y-84550471D01*
X83444504Y-84572993D01*
X83450316Y-84596197D01*
X83453826Y-84619858D01*
X83455000Y-84643750D01*
X83455000Y-85556250D01*
X83453826Y-85580142D01*
X83450316Y-85603803D01*
X83444504Y-85627007D01*
X83436446Y-85649529D01*
X83426218Y-85671153D01*
X83413921Y-85691670D01*
X83399671Y-85710883D01*
X83383607Y-85728607D01*
X83365883Y-85744671D01*
X83346670Y-85758921D01*
X83326153Y-85771218D01*
X83304529Y-85781446D01*
X83282007Y-85789504D01*
X83258803Y-85795316D01*
X83235142Y-85798826D01*
X83211250Y-85800000D01*
X82723750Y-85800000D01*
X82699858Y-85798826D01*
X82676197Y-85795316D01*
X82652993Y-85789504D01*
X82630471Y-85781446D01*
X82608847Y-85771218D01*
X82588330Y-85758921D01*
X82569117Y-85744671D01*
X82551393Y-85728607D01*
X82535329Y-85710883D01*
X82521079Y-85691670D01*
X82508782Y-85671153D01*
X82498554Y-85649529D01*
X82490496Y-85627007D01*
X82484684Y-85603803D01*
X82481174Y-85580142D01*
X82480000Y-85556250D01*
X82480000Y-84643750D01*
X82481174Y-84619858D01*
X82484684Y-84596197D01*
X82490496Y-84572993D01*
X82498554Y-84550471D01*
X82508782Y-84528847D01*
X82521079Y-84508330D01*
X82535329Y-84489117D01*
X82551393Y-84471393D01*
X82569117Y-84455329D01*
X82588330Y-84441079D01*
X82608847Y-84428782D01*
X82630471Y-84418554D01*
X82652993Y-84410496D01*
X82676197Y-84404684D01*
X82699858Y-84401174D01*
X82723750Y-84400000D01*
X83211250Y-84400000D01*
X83235142Y-84401174D01*
X83235142Y-84401174D01*
G37*
D11*
X82967500Y-85100000D03*
D10*
G36*
X81360142Y-84401174D02*
X81383803Y-84404684D01*
X81407007Y-84410496D01*
X81429529Y-84418554D01*
X81451153Y-84428782D01*
X81471670Y-84441079D01*
X81490883Y-84455329D01*
X81508607Y-84471393D01*
X81524671Y-84489117D01*
X81538921Y-84508330D01*
X81551218Y-84528847D01*
X81561446Y-84550471D01*
X81569504Y-84572993D01*
X81575316Y-84596197D01*
X81578826Y-84619858D01*
X81580000Y-84643750D01*
X81580000Y-85556250D01*
X81578826Y-85580142D01*
X81575316Y-85603803D01*
X81569504Y-85627007D01*
X81561446Y-85649529D01*
X81551218Y-85671153D01*
X81538921Y-85691670D01*
X81524671Y-85710883D01*
X81508607Y-85728607D01*
X81490883Y-85744671D01*
X81471670Y-85758921D01*
X81451153Y-85771218D01*
X81429529Y-85781446D01*
X81407007Y-85789504D01*
X81383803Y-85795316D01*
X81360142Y-85798826D01*
X81336250Y-85800000D01*
X80848750Y-85800000D01*
X80824858Y-85798826D01*
X80801197Y-85795316D01*
X80777993Y-85789504D01*
X80755471Y-85781446D01*
X80733847Y-85771218D01*
X80713330Y-85758921D01*
X80694117Y-85744671D01*
X80676393Y-85728607D01*
X80660329Y-85710883D01*
X80646079Y-85691670D01*
X80633782Y-85671153D01*
X80623554Y-85649529D01*
X80615496Y-85627007D01*
X80609684Y-85603803D01*
X80606174Y-85580142D01*
X80605000Y-85556250D01*
X80605000Y-84643750D01*
X80606174Y-84619858D01*
X80609684Y-84596197D01*
X80615496Y-84572993D01*
X80623554Y-84550471D01*
X80633782Y-84528847D01*
X80646079Y-84508330D01*
X80660329Y-84489117D01*
X80676393Y-84471393D01*
X80694117Y-84455329D01*
X80713330Y-84441079D01*
X80733847Y-84428782D01*
X80755471Y-84418554D01*
X80777993Y-84410496D01*
X80801197Y-84404684D01*
X80824858Y-84401174D01*
X80848750Y-84400000D01*
X81336250Y-84400000D01*
X81360142Y-84401174D01*
X81360142Y-84401174D01*
G37*
D11*
X81092500Y-85100000D03*
G04 #@! TD*
D10*
G04 #@! TO.C,R37*
G36*
X102080142Y-104687536D02*
X102103803Y-104691046D01*
X102127007Y-104696858D01*
X102149529Y-104704916D01*
X102171153Y-104715144D01*
X102191670Y-104727441D01*
X102210883Y-104741691D01*
X102228607Y-104757755D01*
X102244671Y-104775479D01*
X102258921Y-104794692D01*
X102271218Y-104815209D01*
X102281446Y-104836833D01*
X102289504Y-104859355D01*
X102295316Y-104882559D01*
X102298826Y-104906220D01*
X102300000Y-104930112D01*
X102300000Y-105842612D01*
X102298826Y-105866504D01*
X102295316Y-105890165D01*
X102289504Y-105913369D01*
X102281446Y-105935891D01*
X102271218Y-105957515D01*
X102258921Y-105978032D01*
X102244671Y-105997245D01*
X102228607Y-106014969D01*
X102210883Y-106031033D01*
X102191670Y-106045283D01*
X102171153Y-106057580D01*
X102149529Y-106067808D01*
X102127007Y-106075866D01*
X102103803Y-106081678D01*
X102080142Y-106085188D01*
X102056250Y-106086362D01*
X101568750Y-106086362D01*
X101544858Y-106085188D01*
X101521197Y-106081678D01*
X101497993Y-106075866D01*
X101475471Y-106067808D01*
X101453847Y-106057580D01*
X101433330Y-106045283D01*
X101414117Y-106031033D01*
X101396393Y-106014969D01*
X101380329Y-105997245D01*
X101366079Y-105978032D01*
X101353782Y-105957515D01*
X101343554Y-105935891D01*
X101335496Y-105913369D01*
X101329684Y-105890165D01*
X101326174Y-105866504D01*
X101325000Y-105842612D01*
X101325000Y-104930112D01*
X101326174Y-104906220D01*
X101329684Y-104882559D01*
X101335496Y-104859355D01*
X101343554Y-104836833D01*
X101353782Y-104815209D01*
X101366079Y-104794692D01*
X101380329Y-104775479D01*
X101396393Y-104757755D01*
X101414117Y-104741691D01*
X101433330Y-104727441D01*
X101453847Y-104715144D01*
X101475471Y-104704916D01*
X101497993Y-104696858D01*
X101521197Y-104691046D01*
X101544858Y-104687536D01*
X101568750Y-104686362D01*
X102056250Y-104686362D01*
X102080142Y-104687536D01*
X102080142Y-104687536D01*
G37*
D11*
X101812500Y-105386362D03*
D10*
G36*
X103955142Y-104687536D02*
X103978803Y-104691046D01*
X104002007Y-104696858D01*
X104024529Y-104704916D01*
X104046153Y-104715144D01*
X104066670Y-104727441D01*
X104085883Y-104741691D01*
X104103607Y-104757755D01*
X104119671Y-104775479D01*
X104133921Y-104794692D01*
X104146218Y-104815209D01*
X104156446Y-104836833D01*
X104164504Y-104859355D01*
X104170316Y-104882559D01*
X104173826Y-104906220D01*
X104175000Y-104930112D01*
X104175000Y-105842612D01*
X104173826Y-105866504D01*
X104170316Y-105890165D01*
X104164504Y-105913369D01*
X104156446Y-105935891D01*
X104146218Y-105957515D01*
X104133921Y-105978032D01*
X104119671Y-105997245D01*
X104103607Y-106014969D01*
X104085883Y-106031033D01*
X104066670Y-106045283D01*
X104046153Y-106057580D01*
X104024529Y-106067808D01*
X104002007Y-106075866D01*
X103978803Y-106081678D01*
X103955142Y-106085188D01*
X103931250Y-106086362D01*
X103443750Y-106086362D01*
X103419858Y-106085188D01*
X103396197Y-106081678D01*
X103372993Y-106075866D01*
X103350471Y-106067808D01*
X103328847Y-106057580D01*
X103308330Y-106045283D01*
X103289117Y-106031033D01*
X103271393Y-106014969D01*
X103255329Y-105997245D01*
X103241079Y-105978032D01*
X103228782Y-105957515D01*
X103218554Y-105935891D01*
X103210496Y-105913369D01*
X103204684Y-105890165D01*
X103201174Y-105866504D01*
X103200000Y-105842612D01*
X103200000Y-104930112D01*
X103201174Y-104906220D01*
X103204684Y-104882559D01*
X103210496Y-104859355D01*
X103218554Y-104836833D01*
X103228782Y-104815209D01*
X103241079Y-104794692D01*
X103255329Y-104775479D01*
X103271393Y-104757755D01*
X103289117Y-104741691D01*
X103308330Y-104727441D01*
X103328847Y-104715144D01*
X103350471Y-104704916D01*
X103372993Y-104696858D01*
X103396197Y-104691046D01*
X103419858Y-104687536D01*
X103443750Y-104686362D01*
X103931250Y-104686362D01*
X103955142Y-104687536D01*
X103955142Y-104687536D01*
G37*
D11*
X103687500Y-105386362D03*
G04 #@! TD*
D10*
G04 #@! TO.C,R38*
G36*
X81360142Y-90001174D02*
X81383803Y-90004684D01*
X81407007Y-90010496D01*
X81429529Y-90018554D01*
X81451153Y-90028782D01*
X81471670Y-90041079D01*
X81490883Y-90055329D01*
X81508607Y-90071393D01*
X81524671Y-90089117D01*
X81538921Y-90108330D01*
X81551218Y-90128847D01*
X81561446Y-90150471D01*
X81569504Y-90172993D01*
X81575316Y-90196197D01*
X81578826Y-90219858D01*
X81580000Y-90243750D01*
X81580000Y-91156250D01*
X81578826Y-91180142D01*
X81575316Y-91203803D01*
X81569504Y-91227007D01*
X81561446Y-91249529D01*
X81551218Y-91271153D01*
X81538921Y-91291670D01*
X81524671Y-91310883D01*
X81508607Y-91328607D01*
X81490883Y-91344671D01*
X81471670Y-91358921D01*
X81451153Y-91371218D01*
X81429529Y-91381446D01*
X81407007Y-91389504D01*
X81383803Y-91395316D01*
X81360142Y-91398826D01*
X81336250Y-91400000D01*
X80848750Y-91400000D01*
X80824858Y-91398826D01*
X80801197Y-91395316D01*
X80777993Y-91389504D01*
X80755471Y-91381446D01*
X80733847Y-91371218D01*
X80713330Y-91358921D01*
X80694117Y-91344671D01*
X80676393Y-91328607D01*
X80660329Y-91310883D01*
X80646079Y-91291670D01*
X80633782Y-91271153D01*
X80623554Y-91249529D01*
X80615496Y-91227007D01*
X80609684Y-91203803D01*
X80606174Y-91180142D01*
X80605000Y-91156250D01*
X80605000Y-90243750D01*
X80606174Y-90219858D01*
X80609684Y-90196197D01*
X80615496Y-90172993D01*
X80623554Y-90150471D01*
X80633782Y-90128847D01*
X80646079Y-90108330D01*
X80660329Y-90089117D01*
X80676393Y-90071393D01*
X80694117Y-90055329D01*
X80713330Y-90041079D01*
X80733847Y-90028782D01*
X80755471Y-90018554D01*
X80777993Y-90010496D01*
X80801197Y-90004684D01*
X80824858Y-90001174D01*
X80848750Y-90000000D01*
X81336250Y-90000000D01*
X81360142Y-90001174D01*
X81360142Y-90001174D01*
G37*
D11*
X81092500Y-90700000D03*
D10*
G36*
X83235142Y-90001174D02*
X83258803Y-90004684D01*
X83282007Y-90010496D01*
X83304529Y-90018554D01*
X83326153Y-90028782D01*
X83346670Y-90041079D01*
X83365883Y-90055329D01*
X83383607Y-90071393D01*
X83399671Y-90089117D01*
X83413921Y-90108330D01*
X83426218Y-90128847D01*
X83436446Y-90150471D01*
X83444504Y-90172993D01*
X83450316Y-90196197D01*
X83453826Y-90219858D01*
X83455000Y-90243750D01*
X83455000Y-91156250D01*
X83453826Y-91180142D01*
X83450316Y-91203803D01*
X83444504Y-91227007D01*
X83436446Y-91249529D01*
X83426218Y-91271153D01*
X83413921Y-91291670D01*
X83399671Y-91310883D01*
X83383607Y-91328607D01*
X83365883Y-91344671D01*
X83346670Y-91358921D01*
X83326153Y-91371218D01*
X83304529Y-91381446D01*
X83282007Y-91389504D01*
X83258803Y-91395316D01*
X83235142Y-91398826D01*
X83211250Y-91400000D01*
X82723750Y-91400000D01*
X82699858Y-91398826D01*
X82676197Y-91395316D01*
X82652993Y-91389504D01*
X82630471Y-91381446D01*
X82608847Y-91371218D01*
X82588330Y-91358921D01*
X82569117Y-91344671D01*
X82551393Y-91328607D01*
X82535329Y-91310883D01*
X82521079Y-91291670D01*
X82508782Y-91271153D01*
X82498554Y-91249529D01*
X82490496Y-91227007D01*
X82484684Y-91203803D01*
X82481174Y-91180142D01*
X82480000Y-91156250D01*
X82480000Y-90243750D01*
X82481174Y-90219858D01*
X82484684Y-90196197D01*
X82490496Y-90172993D01*
X82498554Y-90150471D01*
X82508782Y-90128847D01*
X82521079Y-90108330D01*
X82535329Y-90089117D01*
X82551393Y-90071393D01*
X82569117Y-90055329D01*
X82588330Y-90041079D01*
X82608847Y-90028782D01*
X82630471Y-90018554D01*
X82652993Y-90010496D01*
X82676197Y-90004684D01*
X82699858Y-90001174D01*
X82723750Y-90000000D01*
X83211250Y-90000000D01*
X83235142Y-90001174D01*
X83235142Y-90001174D01*
G37*
D11*
X82967500Y-90700000D03*
G04 #@! TD*
D10*
G04 #@! TO.C,R39*
G36*
X102080142Y-107460263D02*
X102103803Y-107463773D01*
X102127007Y-107469585D01*
X102149529Y-107477643D01*
X102171153Y-107487871D01*
X102191670Y-107500168D01*
X102210883Y-107514418D01*
X102228607Y-107530482D01*
X102244671Y-107548206D01*
X102258921Y-107567419D01*
X102271218Y-107587936D01*
X102281446Y-107609560D01*
X102289504Y-107632082D01*
X102295316Y-107655286D01*
X102298826Y-107678947D01*
X102300000Y-107702839D01*
X102300000Y-108615339D01*
X102298826Y-108639231D01*
X102295316Y-108662892D01*
X102289504Y-108686096D01*
X102281446Y-108708618D01*
X102271218Y-108730242D01*
X102258921Y-108750759D01*
X102244671Y-108769972D01*
X102228607Y-108787696D01*
X102210883Y-108803760D01*
X102191670Y-108818010D01*
X102171153Y-108830307D01*
X102149529Y-108840535D01*
X102127007Y-108848593D01*
X102103803Y-108854405D01*
X102080142Y-108857915D01*
X102056250Y-108859089D01*
X101568750Y-108859089D01*
X101544858Y-108857915D01*
X101521197Y-108854405D01*
X101497993Y-108848593D01*
X101475471Y-108840535D01*
X101453847Y-108830307D01*
X101433330Y-108818010D01*
X101414117Y-108803760D01*
X101396393Y-108787696D01*
X101380329Y-108769972D01*
X101366079Y-108750759D01*
X101353782Y-108730242D01*
X101343554Y-108708618D01*
X101335496Y-108686096D01*
X101329684Y-108662892D01*
X101326174Y-108639231D01*
X101325000Y-108615339D01*
X101325000Y-107702839D01*
X101326174Y-107678947D01*
X101329684Y-107655286D01*
X101335496Y-107632082D01*
X101343554Y-107609560D01*
X101353782Y-107587936D01*
X101366079Y-107567419D01*
X101380329Y-107548206D01*
X101396393Y-107530482D01*
X101414117Y-107514418D01*
X101433330Y-107500168D01*
X101453847Y-107487871D01*
X101475471Y-107477643D01*
X101497993Y-107469585D01*
X101521197Y-107463773D01*
X101544858Y-107460263D01*
X101568750Y-107459089D01*
X102056250Y-107459089D01*
X102080142Y-107460263D01*
X102080142Y-107460263D01*
G37*
D11*
X101812500Y-108159089D03*
D10*
G36*
X103955142Y-107460263D02*
X103978803Y-107463773D01*
X104002007Y-107469585D01*
X104024529Y-107477643D01*
X104046153Y-107487871D01*
X104066670Y-107500168D01*
X104085883Y-107514418D01*
X104103607Y-107530482D01*
X104119671Y-107548206D01*
X104133921Y-107567419D01*
X104146218Y-107587936D01*
X104156446Y-107609560D01*
X104164504Y-107632082D01*
X104170316Y-107655286D01*
X104173826Y-107678947D01*
X104175000Y-107702839D01*
X104175000Y-108615339D01*
X104173826Y-108639231D01*
X104170316Y-108662892D01*
X104164504Y-108686096D01*
X104156446Y-108708618D01*
X104146218Y-108730242D01*
X104133921Y-108750759D01*
X104119671Y-108769972D01*
X104103607Y-108787696D01*
X104085883Y-108803760D01*
X104066670Y-108818010D01*
X104046153Y-108830307D01*
X104024529Y-108840535D01*
X104002007Y-108848593D01*
X103978803Y-108854405D01*
X103955142Y-108857915D01*
X103931250Y-108859089D01*
X103443750Y-108859089D01*
X103419858Y-108857915D01*
X103396197Y-108854405D01*
X103372993Y-108848593D01*
X103350471Y-108840535D01*
X103328847Y-108830307D01*
X103308330Y-108818010D01*
X103289117Y-108803760D01*
X103271393Y-108787696D01*
X103255329Y-108769972D01*
X103241079Y-108750759D01*
X103228782Y-108730242D01*
X103218554Y-108708618D01*
X103210496Y-108686096D01*
X103204684Y-108662892D01*
X103201174Y-108639231D01*
X103200000Y-108615339D01*
X103200000Y-107702839D01*
X103201174Y-107678947D01*
X103204684Y-107655286D01*
X103210496Y-107632082D01*
X103218554Y-107609560D01*
X103228782Y-107587936D01*
X103241079Y-107567419D01*
X103255329Y-107548206D01*
X103271393Y-107530482D01*
X103289117Y-107514418D01*
X103308330Y-107500168D01*
X103328847Y-107487871D01*
X103350471Y-107477643D01*
X103372993Y-107469585D01*
X103396197Y-107463773D01*
X103419858Y-107460263D01*
X103443750Y-107459089D01*
X103931250Y-107459089D01*
X103955142Y-107460263D01*
X103955142Y-107460263D01*
G37*
D11*
X103687500Y-108159089D03*
G04 #@! TD*
D10*
G04 #@! TO.C,R40*
G36*
X83235142Y-95701174D02*
X83258803Y-95704684D01*
X83282007Y-95710496D01*
X83304529Y-95718554D01*
X83326153Y-95728782D01*
X83346670Y-95741079D01*
X83365883Y-95755329D01*
X83383607Y-95771393D01*
X83399671Y-95789117D01*
X83413921Y-95808330D01*
X83426218Y-95828847D01*
X83436446Y-95850471D01*
X83444504Y-95872993D01*
X83450316Y-95896197D01*
X83453826Y-95919858D01*
X83455000Y-95943750D01*
X83455000Y-96856250D01*
X83453826Y-96880142D01*
X83450316Y-96903803D01*
X83444504Y-96927007D01*
X83436446Y-96949529D01*
X83426218Y-96971153D01*
X83413921Y-96991670D01*
X83399671Y-97010883D01*
X83383607Y-97028607D01*
X83365883Y-97044671D01*
X83346670Y-97058921D01*
X83326153Y-97071218D01*
X83304529Y-97081446D01*
X83282007Y-97089504D01*
X83258803Y-97095316D01*
X83235142Y-97098826D01*
X83211250Y-97100000D01*
X82723750Y-97100000D01*
X82699858Y-97098826D01*
X82676197Y-97095316D01*
X82652993Y-97089504D01*
X82630471Y-97081446D01*
X82608847Y-97071218D01*
X82588330Y-97058921D01*
X82569117Y-97044671D01*
X82551393Y-97028607D01*
X82535329Y-97010883D01*
X82521079Y-96991670D01*
X82508782Y-96971153D01*
X82498554Y-96949529D01*
X82490496Y-96927007D01*
X82484684Y-96903803D01*
X82481174Y-96880142D01*
X82480000Y-96856250D01*
X82480000Y-95943750D01*
X82481174Y-95919858D01*
X82484684Y-95896197D01*
X82490496Y-95872993D01*
X82498554Y-95850471D01*
X82508782Y-95828847D01*
X82521079Y-95808330D01*
X82535329Y-95789117D01*
X82551393Y-95771393D01*
X82569117Y-95755329D01*
X82588330Y-95741079D01*
X82608847Y-95728782D01*
X82630471Y-95718554D01*
X82652993Y-95710496D01*
X82676197Y-95704684D01*
X82699858Y-95701174D01*
X82723750Y-95700000D01*
X83211250Y-95700000D01*
X83235142Y-95701174D01*
X83235142Y-95701174D01*
G37*
D11*
X82967500Y-96400000D03*
D10*
G36*
X81360142Y-95701174D02*
X81383803Y-95704684D01*
X81407007Y-95710496D01*
X81429529Y-95718554D01*
X81451153Y-95728782D01*
X81471670Y-95741079D01*
X81490883Y-95755329D01*
X81508607Y-95771393D01*
X81524671Y-95789117D01*
X81538921Y-95808330D01*
X81551218Y-95828847D01*
X81561446Y-95850471D01*
X81569504Y-95872993D01*
X81575316Y-95896197D01*
X81578826Y-95919858D01*
X81580000Y-95943750D01*
X81580000Y-96856250D01*
X81578826Y-96880142D01*
X81575316Y-96903803D01*
X81569504Y-96927007D01*
X81561446Y-96949529D01*
X81551218Y-96971153D01*
X81538921Y-96991670D01*
X81524671Y-97010883D01*
X81508607Y-97028607D01*
X81490883Y-97044671D01*
X81471670Y-97058921D01*
X81451153Y-97071218D01*
X81429529Y-97081446D01*
X81407007Y-97089504D01*
X81383803Y-97095316D01*
X81360142Y-97098826D01*
X81336250Y-97100000D01*
X80848750Y-97100000D01*
X80824858Y-97098826D01*
X80801197Y-97095316D01*
X80777993Y-97089504D01*
X80755471Y-97081446D01*
X80733847Y-97071218D01*
X80713330Y-97058921D01*
X80694117Y-97044671D01*
X80676393Y-97028607D01*
X80660329Y-97010883D01*
X80646079Y-96991670D01*
X80633782Y-96971153D01*
X80623554Y-96949529D01*
X80615496Y-96927007D01*
X80609684Y-96903803D01*
X80606174Y-96880142D01*
X80605000Y-96856250D01*
X80605000Y-95943750D01*
X80606174Y-95919858D01*
X80609684Y-95896197D01*
X80615496Y-95872993D01*
X80623554Y-95850471D01*
X80633782Y-95828847D01*
X80646079Y-95808330D01*
X80660329Y-95789117D01*
X80676393Y-95771393D01*
X80694117Y-95755329D01*
X80713330Y-95741079D01*
X80733847Y-95728782D01*
X80755471Y-95718554D01*
X80777993Y-95710496D01*
X80801197Y-95704684D01*
X80824858Y-95701174D01*
X80848750Y-95700000D01*
X81336250Y-95700000D01*
X81360142Y-95701174D01*
X81360142Y-95701174D01*
G37*
D11*
X81092500Y-96400000D03*
G04 #@! TD*
D10*
G04 #@! TO.C,R41*
G36*
X102080142Y-110232990D02*
X102103803Y-110236500D01*
X102127007Y-110242312D01*
X102149529Y-110250370D01*
X102171153Y-110260598D01*
X102191670Y-110272895D01*
X102210883Y-110287145D01*
X102228607Y-110303209D01*
X102244671Y-110320933D01*
X102258921Y-110340146D01*
X102271218Y-110360663D01*
X102281446Y-110382287D01*
X102289504Y-110404809D01*
X102295316Y-110428013D01*
X102298826Y-110451674D01*
X102300000Y-110475566D01*
X102300000Y-111388066D01*
X102298826Y-111411958D01*
X102295316Y-111435619D01*
X102289504Y-111458823D01*
X102281446Y-111481345D01*
X102271218Y-111502969D01*
X102258921Y-111523486D01*
X102244671Y-111542699D01*
X102228607Y-111560423D01*
X102210883Y-111576487D01*
X102191670Y-111590737D01*
X102171153Y-111603034D01*
X102149529Y-111613262D01*
X102127007Y-111621320D01*
X102103803Y-111627132D01*
X102080142Y-111630642D01*
X102056250Y-111631816D01*
X101568750Y-111631816D01*
X101544858Y-111630642D01*
X101521197Y-111627132D01*
X101497993Y-111621320D01*
X101475471Y-111613262D01*
X101453847Y-111603034D01*
X101433330Y-111590737D01*
X101414117Y-111576487D01*
X101396393Y-111560423D01*
X101380329Y-111542699D01*
X101366079Y-111523486D01*
X101353782Y-111502969D01*
X101343554Y-111481345D01*
X101335496Y-111458823D01*
X101329684Y-111435619D01*
X101326174Y-111411958D01*
X101325000Y-111388066D01*
X101325000Y-110475566D01*
X101326174Y-110451674D01*
X101329684Y-110428013D01*
X101335496Y-110404809D01*
X101343554Y-110382287D01*
X101353782Y-110360663D01*
X101366079Y-110340146D01*
X101380329Y-110320933D01*
X101396393Y-110303209D01*
X101414117Y-110287145D01*
X101433330Y-110272895D01*
X101453847Y-110260598D01*
X101475471Y-110250370D01*
X101497993Y-110242312D01*
X101521197Y-110236500D01*
X101544858Y-110232990D01*
X101568750Y-110231816D01*
X102056250Y-110231816D01*
X102080142Y-110232990D01*
X102080142Y-110232990D01*
G37*
D11*
X101812500Y-110931816D03*
D10*
G36*
X103955142Y-110232990D02*
X103978803Y-110236500D01*
X104002007Y-110242312D01*
X104024529Y-110250370D01*
X104046153Y-110260598D01*
X104066670Y-110272895D01*
X104085883Y-110287145D01*
X104103607Y-110303209D01*
X104119671Y-110320933D01*
X104133921Y-110340146D01*
X104146218Y-110360663D01*
X104156446Y-110382287D01*
X104164504Y-110404809D01*
X104170316Y-110428013D01*
X104173826Y-110451674D01*
X104175000Y-110475566D01*
X104175000Y-111388066D01*
X104173826Y-111411958D01*
X104170316Y-111435619D01*
X104164504Y-111458823D01*
X104156446Y-111481345D01*
X104146218Y-111502969D01*
X104133921Y-111523486D01*
X104119671Y-111542699D01*
X104103607Y-111560423D01*
X104085883Y-111576487D01*
X104066670Y-111590737D01*
X104046153Y-111603034D01*
X104024529Y-111613262D01*
X104002007Y-111621320D01*
X103978803Y-111627132D01*
X103955142Y-111630642D01*
X103931250Y-111631816D01*
X103443750Y-111631816D01*
X103419858Y-111630642D01*
X103396197Y-111627132D01*
X103372993Y-111621320D01*
X103350471Y-111613262D01*
X103328847Y-111603034D01*
X103308330Y-111590737D01*
X103289117Y-111576487D01*
X103271393Y-111560423D01*
X103255329Y-111542699D01*
X103241079Y-111523486D01*
X103228782Y-111502969D01*
X103218554Y-111481345D01*
X103210496Y-111458823D01*
X103204684Y-111435619D01*
X103201174Y-111411958D01*
X103200000Y-111388066D01*
X103200000Y-110475566D01*
X103201174Y-110451674D01*
X103204684Y-110428013D01*
X103210496Y-110404809D01*
X103218554Y-110382287D01*
X103228782Y-110360663D01*
X103241079Y-110340146D01*
X103255329Y-110320933D01*
X103271393Y-110303209D01*
X103289117Y-110287145D01*
X103308330Y-110272895D01*
X103328847Y-110260598D01*
X103350471Y-110250370D01*
X103372993Y-110242312D01*
X103396197Y-110236500D01*
X103419858Y-110232990D01*
X103443750Y-110231816D01*
X103931250Y-110231816D01*
X103955142Y-110232990D01*
X103955142Y-110232990D01*
G37*
D11*
X103687500Y-110931816D03*
G04 #@! TD*
D10*
G04 #@! TO.C,R42*
G36*
X81360142Y-101301174D02*
X81383803Y-101304684D01*
X81407007Y-101310496D01*
X81429529Y-101318554D01*
X81451153Y-101328782D01*
X81471670Y-101341079D01*
X81490883Y-101355329D01*
X81508607Y-101371393D01*
X81524671Y-101389117D01*
X81538921Y-101408330D01*
X81551218Y-101428847D01*
X81561446Y-101450471D01*
X81569504Y-101472993D01*
X81575316Y-101496197D01*
X81578826Y-101519858D01*
X81580000Y-101543750D01*
X81580000Y-102456250D01*
X81578826Y-102480142D01*
X81575316Y-102503803D01*
X81569504Y-102527007D01*
X81561446Y-102549529D01*
X81551218Y-102571153D01*
X81538921Y-102591670D01*
X81524671Y-102610883D01*
X81508607Y-102628607D01*
X81490883Y-102644671D01*
X81471670Y-102658921D01*
X81451153Y-102671218D01*
X81429529Y-102681446D01*
X81407007Y-102689504D01*
X81383803Y-102695316D01*
X81360142Y-102698826D01*
X81336250Y-102700000D01*
X80848750Y-102700000D01*
X80824858Y-102698826D01*
X80801197Y-102695316D01*
X80777993Y-102689504D01*
X80755471Y-102681446D01*
X80733847Y-102671218D01*
X80713330Y-102658921D01*
X80694117Y-102644671D01*
X80676393Y-102628607D01*
X80660329Y-102610883D01*
X80646079Y-102591670D01*
X80633782Y-102571153D01*
X80623554Y-102549529D01*
X80615496Y-102527007D01*
X80609684Y-102503803D01*
X80606174Y-102480142D01*
X80605000Y-102456250D01*
X80605000Y-101543750D01*
X80606174Y-101519858D01*
X80609684Y-101496197D01*
X80615496Y-101472993D01*
X80623554Y-101450471D01*
X80633782Y-101428847D01*
X80646079Y-101408330D01*
X80660329Y-101389117D01*
X80676393Y-101371393D01*
X80694117Y-101355329D01*
X80713330Y-101341079D01*
X80733847Y-101328782D01*
X80755471Y-101318554D01*
X80777993Y-101310496D01*
X80801197Y-101304684D01*
X80824858Y-101301174D01*
X80848750Y-101300000D01*
X81336250Y-101300000D01*
X81360142Y-101301174D01*
X81360142Y-101301174D01*
G37*
D11*
X81092500Y-102000000D03*
D10*
G36*
X83235142Y-101301174D02*
X83258803Y-101304684D01*
X83282007Y-101310496D01*
X83304529Y-101318554D01*
X83326153Y-101328782D01*
X83346670Y-101341079D01*
X83365883Y-101355329D01*
X83383607Y-101371393D01*
X83399671Y-101389117D01*
X83413921Y-101408330D01*
X83426218Y-101428847D01*
X83436446Y-101450471D01*
X83444504Y-101472993D01*
X83450316Y-101496197D01*
X83453826Y-101519858D01*
X83455000Y-101543750D01*
X83455000Y-102456250D01*
X83453826Y-102480142D01*
X83450316Y-102503803D01*
X83444504Y-102527007D01*
X83436446Y-102549529D01*
X83426218Y-102571153D01*
X83413921Y-102591670D01*
X83399671Y-102610883D01*
X83383607Y-102628607D01*
X83365883Y-102644671D01*
X83346670Y-102658921D01*
X83326153Y-102671218D01*
X83304529Y-102681446D01*
X83282007Y-102689504D01*
X83258803Y-102695316D01*
X83235142Y-102698826D01*
X83211250Y-102700000D01*
X82723750Y-102700000D01*
X82699858Y-102698826D01*
X82676197Y-102695316D01*
X82652993Y-102689504D01*
X82630471Y-102681446D01*
X82608847Y-102671218D01*
X82588330Y-102658921D01*
X82569117Y-102644671D01*
X82551393Y-102628607D01*
X82535329Y-102610883D01*
X82521079Y-102591670D01*
X82508782Y-102571153D01*
X82498554Y-102549529D01*
X82490496Y-102527007D01*
X82484684Y-102503803D01*
X82481174Y-102480142D01*
X82480000Y-102456250D01*
X82480000Y-101543750D01*
X82481174Y-101519858D01*
X82484684Y-101496197D01*
X82490496Y-101472993D01*
X82498554Y-101450471D01*
X82508782Y-101428847D01*
X82521079Y-101408330D01*
X82535329Y-101389117D01*
X82551393Y-101371393D01*
X82569117Y-101355329D01*
X82588330Y-101341079D01*
X82608847Y-101328782D01*
X82630471Y-101318554D01*
X82652993Y-101310496D01*
X82676197Y-101304684D01*
X82699858Y-101301174D01*
X82723750Y-101300000D01*
X83211250Y-101300000D01*
X83235142Y-101301174D01*
X83235142Y-101301174D01*
G37*
D11*
X82967500Y-102000000D03*
G04 #@! TD*
D10*
G04 #@! TO.C,R43*
G36*
X103955142Y-113005717D02*
X103978803Y-113009227D01*
X104002007Y-113015039D01*
X104024529Y-113023097D01*
X104046153Y-113033325D01*
X104066670Y-113045622D01*
X104085883Y-113059872D01*
X104103607Y-113075936D01*
X104119671Y-113093660D01*
X104133921Y-113112873D01*
X104146218Y-113133390D01*
X104156446Y-113155014D01*
X104164504Y-113177536D01*
X104170316Y-113200740D01*
X104173826Y-113224401D01*
X104175000Y-113248293D01*
X104175000Y-114160793D01*
X104173826Y-114184685D01*
X104170316Y-114208346D01*
X104164504Y-114231550D01*
X104156446Y-114254072D01*
X104146218Y-114275696D01*
X104133921Y-114296213D01*
X104119671Y-114315426D01*
X104103607Y-114333150D01*
X104085883Y-114349214D01*
X104066670Y-114363464D01*
X104046153Y-114375761D01*
X104024529Y-114385989D01*
X104002007Y-114394047D01*
X103978803Y-114399859D01*
X103955142Y-114403369D01*
X103931250Y-114404543D01*
X103443750Y-114404543D01*
X103419858Y-114403369D01*
X103396197Y-114399859D01*
X103372993Y-114394047D01*
X103350471Y-114385989D01*
X103328847Y-114375761D01*
X103308330Y-114363464D01*
X103289117Y-114349214D01*
X103271393Y-114333150D01*
X103255329Y-114315426D01*
X103241079Y-114296213D01*
X103228782Y-114275696D01*
X103218554Y-114254072D01*
X103210496Y-114231550D01*
X103204684Y-114208346D01*
X103201174Y-114184685D01*
X103200000Y-114160793D01*
X103200000Y-113248293D01*
X103201174Y-113224401D01*
X103204684Y-113200740D01*
X103210496Y-113177536D01*
X103218554Y-113155014D01*
X103228782Y-113133390D01*
X103241079Y-113112873D01*
X103255329Y-113093660D01*
X103271393Y-113075936D01*
X103289117Y-113059872D01*
X103308330Y-113045622D01*
X103328847Y-113033325D01*
X103350471Y-113023097D01*
X103372993Y-113015039D01*
X103396197Y-113009227D01*
X103419858Y-113005717D01*
X103443750Y-113004543D01*
X103931250Y-113004543D01*
X103955142Y-113005717D01*
X103955142Y-113005717D01*
G37*
D11*
X103687500Y-113704543D03*
D10*
G36*
X102080142Y-113005717D02*
X102103803Y-113009227D01*
X102127007Y-113015039D01*
X102149529Y-113023097D01*
X102171153Y-113033325D01*
X102191670Y-113045622D01*
X102210883Y-113059872D01*
X102228607Y-113075936D01*
X102244671Y-113093660D01*
X102258921Y-113112873D01*
X102271218Y-113133390D01*
X102281446Y-113155014D01*
X102289504Y-113177536D01*
X102295316Y-113200740D01*
X102298826Y-113224401D01*
X102300000Y-113248293D01*
X102300000Y-114160793D01*
X102298826Y-114184685D01*
X102295316Y-114208346D01*
X102289504Y-114231550D01*
X102281446Y-114254072D01*
X102271218Y-114275696D01*
X102258921Y-114296213D01*
X102244671Y-114315426D01*
X102228607Y-114333150D01*
X102210883Y-114349214D01*
X102191670Y-114363464D01*
X102171153Y-114375761D01*
X102149529Y-114385989D01*
X102127007Y-114394047D01*
X102103803Y-114399859D01*
X102080142Y-114403369D01*
X102056250Y-114404543D01*
X101568750Y-114404543D01*
X101544858Y-114403369D01*
X101521197Y-114399859D01*
X101497993Y-114394047D01*
X101475471Y-114385989D01*
X101453847Y-114375761D01*
X101433330Y-114363464D01*
X101414117Y-114349214D01*
X101396393Y-114333150D01*
X101380329Y-114315426D01*
X101366079Y-114296213D01*
X101353782Y-114275696D01*
X101343554Y-114254072D01*
X101335496Y-114231550D01*
X101329684Y-114208346D01*
X101326174Y-114184685D01*
X101325000Y-114160793D01*
X101325000Y-113248293D01*
X101326174Y-113224401D01*
X101329684Y-113200740D01*
X101335496Y-113177536D01*
X101343554Y-113155014D01*
X101353782Y-113133390D01*
X101366079Y-113112873D01*
X101380329Y-113093660D01*
X101396393Y-113075936D01*
X101414117Y-113059872D01*
X101433330Y-113045622D01*
X101453847Y-113033325D01*
X101475471Y-113023097D01*
X101497993Y-113015039D01*
X101521197Y-113009227D01*
X101544858Y-113005717D01*
X101568750Y-113004543D01*
X102056250Y-113004543D01*
X102080142Y-113005717D01*
X102080142Y-113005717D01*
G37*
D11*
X101812500Y-113704543D03*
G04 #@! TD*
D10*
G04 #@! TO.C,R44*
G36*
X83235142Y-107001174D02*
X83258803Y-107004684D01*
X83282007Y-107010496D01*
X83304529Y-107018554D01*
X83326153Y-107028782D01*
X83346670Y-107041079D01*
X83365883Y-107055329D01*
X83383607Y-107071393D01*
X83399671Y-107089117D01*
X83413921Y-107108330D01*
X83426218Y-107128847D01*
X83436446Y-107150471D01*
X83444504Y-107172993D01*
X83450316Y-107196197D01*
X83453826Y-107219858D01*
X83455000Y-107243750D01*
X83455000Y-108156250D01*
X83453826Y-108180142D01*
X83450316Y-108203803D01*
X83444504Y-108227007D01*
X83436446Y-108249529D01*
X83426218Y-108271153D01*
X83413921Y-108291670D01*
X83399671Y-108310883D01*
X83383607Y-108328607D01*
X83365883Y-108344671D01*
X83346670Y-108358921D01*
X83326153Y-108371218D01*
X83304529Y-108381446D01*
X83282007Y-108389504D01*
X83258803Y-108395316D01*
X83235142Y-108398826D01*
X83211250Y-108400000D01*
X82723750Y-108400000D01*
X82699858Y-108398826D01*
X82676197Y-108395316D01*
X82652993Y-108389504D01*
X82630471Y-108381446D01*
X82608847Y-108371218D01*
X82588330Y-108358921D01*
X82569117Y-108344671D01*
X82551393Y-108328607D01*
X82535329Y-108310883D01*
X82521079Y-108291670D01*
X82508782Y-108271153D01*
X82498554Y-108249529D01*
X82490496Y-108227007D01*
X82484684Y-108203803D01*
X82481174Y-108180142D01*
X82480000Y-108156250D01*
X82480000Y-107243750D01*
X82481174Y-107219858D01*
X82484684Y-107196197D01*
X82490496Y-107172993D01*
X82498554Y-107150471D01*
X82508782Y-107128847D01*
X82521079Y-107108330D01*
X82535329Y-107089117D01*
X82551393Y-107071393D01*
X82569117Y-107055329D01*
X82588330Y-107041079D01*
X82608847Y-107028782D01*
X82630471Y-107018554D01*
X82652993Y-107010496D01*
X82676197Y-107004684D01*
X82699858Y-107001174D01*
X82723750Y-107000000D01*
X83211250Y-107000000D01*
X83235142Y-107001174D01*
X83235142Y-107001174D01*
G37*
D11*
X82967500Y-107700000D03*
D10*
G36*
X81360142Y-107001174D02*
X81383803Y-107004684D01*
X81407007Y-107010496D01*
X81429529Y-107018554D01*
X81451153Y-107028782D01*
X81471670Y-107041079D01*
X81490883Y-107055329D01*
X81508607Y-107071393D01*
X81524671Y-107089117D01*
X81538921Y-107108330D01*
X81551218Y-107128847D01*
X81561446Y-107150471D01*
X81569504Y-107172993D01*
X81575316Y-107196197D01*
X81578826Y-107219858D01*
X81580000Y-107243750D01*
X81580000Y-108156250D01*
X81578826Y-108180142D01*
X81575316Y-108203803D01*
X81569504Y-108227007D01*
X81561446Y-108249529D01*
X81551218Y-108271153D01*
X81538921Y-108291670D01*
X81524671Y-108310883D01*
X81508607Y-108328607D01*
X81490883Y-108344671D01*
X81471670Y-108358921D01*
X81451153Y-108371218D01*
X81429529Y-108381446D01*
X81407007Y-108389504D01*
X81383803Y-108395316D01*
X81360142Y-108398826D01*
X81336250Y-108400000D01*
X80848750Y-108400000D01*
X80824858Y-108398826D01*
X80801197Y-108395316D01*
X80777993Y-108389504D01*
X80755471Y-108381446D01*
X80733847Y-108371218D01*
X80713330Y-108358921D01*
X80694117Y-108344671D01*
X80676393Y-108328607D01*
X80660329Y-108310883D01*
X80646079Y-108291670D01*
X80633782Y-108271153D01*
X80623554Y-108249529D01*
X80615496Y-108227007D01*
X80609684Y-108203803D01*
X80606174Y-108180142D01*
X80605000Y-108156250D01*
X80605000Y-107243750D01*
X80606174Y-107219858D01*
X80609684Y-107196197D01*
X80615496Y-107172993D01*
X80623554Y-107150471D01*
X80633782Y-107128847D01*
X80646079Y-107108330D01*
X80660329Y-107089117D01*
X80676393Y-107071393D01*
X80694117Y-107055329D01*
X80713330Y-107041079D01*
X80733847Y-107028782D01*
X80755471Y-107018554D01*
X80777993Y-107010496D01*
X80801197Y-107004684D01*
X80824858Y-107001174D01*
X80848750Y-107000000D01*
X81336250Y-107000000D01*
X81360142Y-107001174D01*
X81360142Y-107001174D01*
G37*
D11*
X81092500Y-107700000D03*
G04 #@! TD*
D10*
G04 #@! TO.C,R45*
G36*
X103955142Y-115778444D02*
X103978803Y-115781954D01*
X104002007Y-115787766D01*
X104024529Y-115795824D01*
X104046153Y-115806052D01*
X104066670Y-115818349D01*
X104085883Y-115832599D01*
X104103607Y-115848663D01*
X104119671Y-115866387D01*
X104133921Y-115885600D01*
X104146218Y-115906117D01*
X104156446Y-115927741D01*
X104164504Y-115950263D01*
X104170316Y-115973467D01*
X104173826Y-115997128D01*
X104175000Y-116021020D01*
X104175000Y-116933520D01*
X104173826Y-116957412D01*
X104170316Y-116981073D01*
X104164504Y-117004277D01*
X104156446Y-117026799D01*
X104146218Y-117048423D01*
X104133921Y-117068940D01*
X104119671Y-117088153D01*
X104103607Y-117105877D01*
X104085883Y-117121941D01*
X104066670Y-117136191D01*
X104046153Y-117148488D01*
X104024529Y-117158716D01*
X104002007Y-117166774D01*
X103978803Y-117172586D01*
X103955142Y-117176096D01*
X103931250Y-117177270D01*
X103443750Y-117177270D01*
X103419858Y-117176096D01*
X103396197Y-117172586D01*
X103372993Y-117166774D01*
X103350471Y-117158716D01*
X103328847Y-117148488D01*
X103308330Y-117136191D01*
X103289117Y-117121941D01*
X103271393Y-117105877D01*
X103255329Y-117088153D01*
X103241079Y-117068940D01*
X103228782Y-117048423D01*
X103218554Y-117026799D01*
X103210496Y-117004277D01*
X103204684Y-116981073D01*
X103201174Y-116957412D01*
X103200000Y-116933520D01*
X103200000Y-116021020D01*
X103201174Y-115997128D01*
X103204684Y-115973467D01*
X103210496Y-115950263D01*
X103218554Y-115927741D01*
X103228782Y-115906117D01*
X103241079Y-115885600D01*
X103255329Y-115866387D01*
X103271393Y-115848663D01*
X103289117Y-115832599D01*
X103308330Y-115818349D01*
X103328847Y-115806052D01*
X103350471Y-115795824D01*
X103372993Y-115787766D01*
X103396197Y-115781954D01*
X103419858Y-115778444D01*
X103443750Y-115777270D01*
X103931250Y-115777270D01*
X103955142Y-115778444D01*
X103955142Y-115778444D01*
G37*
D11*
X103687500Y-116477270D03*
D10*
G36*
X102080142Y-115778444D02*
X102103803Y-115781954D01*
X102127007Y-115787766D01*
X102149529Y-115795824D01*
X102171153Y-115806052D01*
X102191670Y-115818349D01*
X102210883Y-115832599D01*
X102228607Y-115848663D01*
X102244671Y-115866387D01*
X102258921Y-115885600D01*
X102271218Y-115906117D01*
X102281446Y-115927741D01*
X102289504Y-115950263D01*
X102295316Y-115973467D01*
X102298826Y-115997128D01*
X102300000Y-116021020D01*
X102300000Y-116933520D01*
X102298826Y-116957412D01*
X102295316Y-116981073D01*
X102289504Y-117004277D01*
X102281446Y-117026799D01*
X102271218Y-117048423D01*
X102258921Y-117068940D01*
X102244671Y-117088153D01*
X102228607Y-117105877D01*
X102210883Y-117121941D01*
X102191670Y-117136191D01*
X102171153Y-117148488D01*
X102149529Y-117158716D01*
X102127007Y-117166774D01*
X102103803Y-117172586D01*
X102080142Y-117176096D01*
X102056250Y-117177270D01*
X101568750Y-117177270D01*
X101544858Y-117176096D01*
X101521197Y-117172586D01*
X101497993Y-117166774D01*
X101475471Y-117158716D01*
X101453847Y-117148488D01*
X101433330Y-117136191D01*
X101414117Y-117121941D01*
X101396393Y-117105877D01*
X101380329Y-117088153D01*
X101366079Y-117068940D01*
X101353782Y-117048423D01*
X101343554Y-117026799D01*
X101335496Y-117004277D01*
X101329684Y-116981073D01*
X101326174Y-116957412D01*
X101325000Y-116933520D01*
X101325000Y-116021020D01*
X101326174Y-115997128D01*
X101329684Y-115973467D01*
X101335496Y-115950263D01*
X101343554Y-115927741D01*
X101353782Y-115906117D01*
X101366079Y-115885600D01*
X101380329Y-115866387D01*
X101396393Y-115848663D01*
X101414117Y-115832599D01*
X101433330Y-115818349D01*
X101453847Y-115806052D01*
X101475471Y-115795824D01*
X101497993Y-115787766D01*
X101521197Y-115781954D01*
X101544858Y-115778444D01*
X101568750Y-115777270D01*
X102056250Y-115777270D01*
X102080142Y-115778444D01*
X102080142Y-115778444D01*
G37*
D11*
X101812500Y-116477270D03*
G04 #@! TD*
D10*
G04 #@! TO.C,R46*
G36*
X81360142Y-112601174D02*
X81383803Y-112604684D01*
X81407007Y-112610496D01*
X81429529Y-112618554D01*
X81451153Y-112628782D01*
X81471670Y-112641079D01*
X81490883Y-112655329D01*
X81508607Y-112671393D01*
X81524671Y-112689117D01*
X81538921Y-112708330D01*
X81551218Y-112728847D01*
X81561446Y-112750471D01*
X81569504Y-112772993D01*
X81575316Y-112796197D01*
X81578826Y-112819858D01*
X81580000Y-112843750D01*
X81580000Y-113756250D01*
X81578826Y-113780142D01*
X81575316Y-113803803D01*
X81569504Y-113827007D01*
X81561446Y-113849529D01*
X81551218Y-113871153D01*
X81538921Y-113891670D01*
X81524671Y-113910883D01*
X81508607Y-113928607D01*
X81490883Y-113944671D01*
X81471670Y-113958921D01*
X81451153Y-113971218D01*
X81429529Y-113981446D01*
X81407007Y-113989504D01*
X81383803Y-113995316D01*
X81360142Y-113998826D01*
X81336250Y-114000000D01*
X80848750Y-114000000D01*
X80824858Y-113998826D01*
X80801197Y-113995316D01*
X80777993Y-113989504D01*
X80755471Y-113981446D01*
X80733847Y-113971218D01*
X80713330Y-113958921D01*
X80694117Y-113944671D01*
X80676393Y-113928607D01*
X80660329Y-113910883D01*
X80646079Y-113891670D01*
X80633782Y-113871153D01*
X80623554Y-113849529D01*
X80615496Y-113827007D01*
X80609684Y-113803803D01*
X80606174Y-113780142D01*
X80605000Y-113756250D01*
X80605000Y-112843750D01*
X80606174Y-112819858D01*
X80609684Y-112796197D01*
X80615496Y-112772993D01*
X80623554Y-112750471D01*
X80633782Y-112728847D01*
X80646079Y-112708330D01*
X80660329Y-112689117D01*
X80676393Y-112671393D01*
X80694117Y-112655329D01*
X80713330Y-112641079D01*
X80733847Y-112628782D01*
X80755471Y-112618554D01*
X80777993Y-112610496D01*
X80801197Y-112604684D01*
X80824858Y-112601174D01*
X80848750Y-112600000D01*
X81336250Y-112600000D01*
X81360142Y-112601174D01*
X81360142Y-112601174D01*
G37*
D11*
X81092500Y-113300000D03*
D10*
G36*
X83235142Y-112601174D02*
X83258803Y-112604684D01*
X83282007Y-112610496D01*
X83304529Y-112618554D01*
X83326153Y-112628782D01*
X83346670Y-112641079D01*
X83365883Y-112655329D01*
X83383607Y-112671393D01*
X83399671Y-112689117D01*
X83413921Y-112708330D01*
X83426218Y-112728847D01*
X83436446Y-112750471D01*
X83444504Y-112772993D01*
X83450316Y-112796197D01*
X83453826Y-112819858D01*
X83455000Y-112843750D01*
X83455000Y-113756250D01*
X83453826Y-113780142D01*
X83450316Y-113803803D01*
X83444504Y-113827007D01*
X83436446Y-113849529D01*
X83426218Y-113871153D01*
X83413921Y-113891670D01*
X83399671Y-113910883D01*
X83383607Y-113928607D01*
X83365883Y-113944671D01*
X83346670Y-113958921D01*
X83326153Y-113971218D01*
X83304529Y-113981446D01*
X83282007Y-113989504D01*
X83258803Y-113995316D01*
X83235142Y-113998826D01*
X83211250Y-114000000D01*
X82723750Y-114000000D01*
X82699858Y-113998826D01*
X82676197Y-113995316D01*
X82652993Y-113989504D01*
X82630471Y-113981446D01*
X82608847Y-113971218D01*
X82588330Y-113958921D01*
X82569117Y-113944671D01*
X82551393Y-113928607D01*
X82535329Y-113910883D01*
X82521079Y-113891670D01*
X82508782Y-113871153D01*
X82498554Y-113849529D01*
X82490496Y-113827007D01*
X82484684Y-113803803D01*
X82481174Y-113780142D01*
X82480000Y-113756250D01*
X82480000Y-112843750D01*
X82481174Y-112819858D01*
X82484684Y-112796197D01*
X82490496Y-112772993D01*
X82498554Y-112750471D01*
X82508782Y-112728847D01*
X82521079Y-112708330D01*
X82535329Y-112689117D01*
X82551393Y-112671393D01*
X82569117Y-112655329D01*
X82588330Y-112641079D01*
X82608847Y-112628782D01*
X82630471Y-112618554D01*
X82652993Y-112610496D01*
X82676197Y-112604684D01*
X82699858Y-112601174D01*
X82723750Y-112600000D01*
X83211250Y-112600000D01*
X83235142Y-112601174D01*
X83235142Y-112601174D01*
G37*
D11*
X82967500Y-113300000D03*
G04 #@! TD*
D10*
G04 #@! TO.C,R47*
G36*
X103955142Y-118551174D02*
X103978803Y-118554684D01*
X104002007Y-118560496D01*
X104024529Y-118568554D01*
X104046153Y-118578782D01*
X104066670Y-118591079D01*
X104085883Y-118605329D01*
X104103607Y-118621393D01*
X104119671Y-118639117D01*
X104133921Y-118658330D01*
X104146218Y-118678847D01*
X104156446Y-118700471D01*
X104164504Y-118722993D01*
X104170316Y-118746197D01*
X104173826Y-118769858D01*
X104175000Y-118793750D01*
X104175000Y-119706250D01*
X104173826Y-119730142D01*
X104170316Y-119753803D01*
X104164504Y-119777007D01*
X104156446Y-119799529D01*
X104146218Y-119821153D01*
X104133921Y-119841670D01*
X104119671Y-119860883D01*
X104103607Y-119878607D01*
X104085883Y-119894671D01*
X104066670Y-119908921D01*
X104046153Y-119921218D01*
X104024529Y-119931446D01*
X104002007Y-119939504D01*
X103978803Y-119945316D01*
X103955142Y-119948826D01*
X103931250Y-119950000D01*
X103443750Y-119950000D01*
X103419858Y-119948826D01*
X103396197Y-119945316D01*
X103372993Y-119939504D01*
X103350471Y-119931446D01*
X103328847Y-119921218D01*
X103308330Y-119908921D01*
X103289117Y-119894671D01*
X103271393Y-119878607D01*
X103255329Y-119860883D01*
X103241079Y-119841670D01*
X103228782Y-119821153D01*
X103218554Y-119799529D01*
X103210496Y-119777007D01*
X103204684Y-119753803D01*
X103201174Y-119730142D01*
X103200000Y-119706250D01*
X103200000Y-118793750D01*
X103201174Y-118769858D01*
X103204684Y-118746197D01*
X103210496Y-118722993D01*
X103218554Y-118700471D01*
X103228782Y-118678847D01*
X103241079Y-118658330D01*
X103255329Y-118639117D01*
X103271393Y-118621393D01*
X103289117Y-118605329D01*
X103308330Y-118591079D01*
X103328847Y-118578782D01*
X103350471Y-118568554D01*
X103372993Y-118560496D01*
X103396197Y-118554684D01*
X103419858Y-118551174D01*
X103443750Y-118550000D01*
X103931250Y-118550000D01*
X103955142Y-118551174D01*
X103955142Y-118551174D01*
G37*
D11*
X103687500Y-119250000D03*
D10*
G36*
X102080142Y-118551174D02*
X102103803Y-118554684D01*
X102127007Y-118560496D01*
X102149529Y-118568554D01*
X102171153Y-118578782D01*
X102191670Y-118591079D01*
X102210883Y-118605329D01*
X102228607Y-118621393D01*
X102244671Y-118639117D01*
X102258921Y-118658330D01*
X102271218Y-118678847D01*
X102281446Y-118700471D01*
X102289504Y-118722993D01*
X102295316Y-118746197D01*
X102298826Y-118769858D01*
X102300000Y-118793750D01*
X102300000Y-119706250D01*
X102298826Y-119730142D01*
X102295316Y-119753803D01*
X102289504Y-119777007D01*
X102281446Y-119799529D01*
X102271218Y-119821153D01*
X102258921Y-119841670D01*
X102244671Y-119860883D01*
X102228607Y-119878607D01*
X102210883Y-119894671D01*
X102191670Y-119908921D01*
X102171153Y-119921218D01*
X102149529Y-119931446D01*
X102127007Y-119939504D01*
X102103803Y-119945316D01*
X102080142Y-119948826D01*
X102056250Y-119950000D01*
X101568750Y-119950000D01*
X101544858Y-119948826D01*
X101521197Y-119945316D01*
X101497993Y-119939504D01*
X101475471Y-119931446D01*
X101453847Y-119921218D01*
X101433330Y-119908921D01*
X101414117Y-119894671D01*
X101396393Y-119878607D01*
X101380329Y-119860883D01*
X101366079Y-119841670D01*
X101353782Y-119821153D01*
X101343554Y-119799529D01*
X101335496Y-119777007D01*
X101329684Y-119753803D01*
X101326174Y-119730142D01*
X101325000Y-119706250D01*
X101325000Y-118793750D01*
X101326174Y-118769858D01*
X101329684Y-118746197D01*
X101335496Y-118722993D01*
X101343554Y-118700471D01*
X101353782Y-118678847D01*
X101366079Y-118658330D01*
X101380329Y-118639117D01*
X101396393Y-118621393D01*
X101414117Y-118605329D01*
X101433330Y-118591079D01*
X101453847Y-118578782D01*
X101475471Y-118568554D01*
X101497993Y-118560496D01*
X101521197Y-118554684D01*
X101544858Y-118551174D01*
X101568750Y-118550000D01*
X102056250Y-118550000D01*
X102080142Y-118551174D01*
X102080142Y-118551174D01*
G37*
D11*
X101812500Y-119250000D03*
G04 #@! TD*
D10*
G04 #@! TO.C,R48*
G36*
X81360142Y-118301174D02*
X81383803Y-118304684D01*
X81407007Y-118310496D01*
X81429529Y-118318554D01*
X81451153Y-118328782D01*
X81471670Y-118341079D01*
X81490883Y-118355329D01*
X81508607Y-118371393D01*
X81524671Y-118389117D01*
X81538921Y-118408330D01*
X81551218Y-118428847D01*
X81561446Y-118450471D01*
X81569504Y-118472993D01*
X81575316Y-118496197D01*
X81578826Y-118519858D01*
X81580000Y-118543750D01*
X81580000Y-119456250D01*
X81578826Y-119480142D01*
X81575316Y-119503803D01*
X81569504Y-119527007D01*
X81561446Y-119549529D01*
X81551218Y-119571153D01*
X81538921Y-119591670D01*
X81524671Y-119610883D01*
X81508607Y-119628607D01*
X81490883Y-119644671D01*
X81471670Y-119658921D01*
X81451153Y-119671218D01*
X81429529Y-119681446D01*
X81407007Y-119689504D01*
X81383803Y-119695316D01*
X81360142Y-119698826D01*
X81336250Y-119700000D01*
X80848750Y-119700000D01*
X80824858Y-119698826D01*
X80801197Y-119695316D01*
X80777993Y-119689504D01*
X80755471Y-119681446D01*
X80733847Y-119671218D01*
X80713330Y-119658921D01*
X80694117Y-119644671D01*
X80676393Y-119628607D01*
X80660329Y-119610883D01*
X80646079Y-119591670D01*
X80633782Y-119571153D01*
X80623554Y-119549529D01*
X80615496Y-119527007D01*
X80609684Y-119503803D01*
X80606174Y-119480142D01*
X80605000Y-119456250D01*
X80605000Y-118543750D01*
X80606174Y-118519858D01*
X80609684Y-118496197D01*
X80615496Y-118472993D01*
X80623554Y-118450471D01*
X80633782Y-118428847D01*
X80646079Y-118408330D01*
X80660329Y-118389117D01*
X80676393Y-118371393D01*
X80694117Y-118355329D01*
X80713330Y-118341079D01*
X80733847Y-118328782D01*
X80755471Y-118318554D01*
X80777993Y-118310496D01*
X80801197Y-118304684D01*
X80824858Y-118301174D01*
X80848750Y-118300000D01*
X81336250Y-118300000D01*
X81360142Y-118301174D01*
X81360142Y-118301174D01*
G37*
D11*
X81092500Y-119000000D03*
D10*
G36*
X83235142Y-118301174D02*
X83258803Y-118304684D01*
X83282007Y-118310496D01*
X83304529Y-118318554D01*
X83326153Y-118328782D01*
X83346670Y-118341079D01*
X83365883Y-118355329D01*
X83383607Y-118371393D01*
X83399671Y-118389117D01*
X83413921Y-118408330D01*
X83426218Y-118428847D01*
X83436446Y-118450471D01*
X83444504Y-118472993D01*
X83450316Y-118496197D01*
X83453826Y-118519858D01*
X83455000Y-118543750D01*
X83455000Y-119456250D01*
X83453826Y-119480142D01*
X83450316Y-119503803D01*
X83444504Y-119527007D01*
X83436446Y-119549529D01*
X83426218Y-119571153D01*
X83413921Y-119591670D01*
X83399671Y-119610883D01*
X83383607Y-119628607D01*
X83365883Y-119644671D01*
X83346670Y-119658921D01*
X83326153Y-119671218D01*
X83304529Y-119681446D01*
X83282007Y-119689504D01*
X83258803Y-119695316D01*
X83235142Y-119698826D01*
X83211250Y-119700000D01*
X82723750Y-119700000D01*
X82699858Y-119698826D01*
X82676197Y-119695316D01*
X82652993Y-119689504D01*
X82630471Y-119681446D01*
X82608847Y-119671218D01*
X82588330Y-119658921D01*
X82569117Y-119644671D01*
X82551393Y-119628607D01*
X82535329Y-119610883D01*
X82521079Y-119591670D01*
X82508782Y-119571153D01*
X82498554Y-119549529D01*
X82490496Y-119527007D01*
X82484684Y-119503803D01*
X82481174Y-119480142D01*
X82480000Y-119456250D01*
X82480000Y-118543750D01*
X82481174Y-118519858D01*
X82484684Y-118496197D01*
X82490496Y-118472993D01*
X82498554Y-118450471D01*
X82508782Y-118428847D01*
X82521079Y-118408330D01*
X82535329Y-118389117D01*
X82551393Y-118371393D01*
X82569117Y-118355329D01*
X82588330Y-118341079D01*
X82608847Y-118328782D01*
X82630471Y-118318554D01*
X82652993Y-118310496D01*
X82676197Y-118304684D01*
X82699858Y-118301174D01*
X82723750Y-118300000D01*
X83211250Y-118300000D01*
X83235142Y-118301174D01*
X83235142Y-118301174D01*
G37*
D11*
X82967500Y-119000000D03*
G04 #@! TD*
M02*
