G04 #@! TF.GenerationSoftware,KiCad,Pcbnew,5.0.2-bee76a0~70~ubuntu18.04.1*
G04 #@! TF.CreationDate,2019-06-11T19:18:52-05:00*
G04 #@! TF.ProjectId,ADAPTER_BOARD,41444150-5445-4525-9f42-4f4152442e6b,rev?*
G04 #@! TF.SameCoordinates,Original*
G04 #@! TF.FileFunction,Legend,Bot*
G04 #@! TF.FilePolarity,Positive*
%FSLAX46Y46*%
G04 Gerber Fmt 4.6, Leading zero omitted, Abs format (unit mm)*
G04 Created by KiCad (PCBNEW 5.0.2-bee76a0~70~ubuntu18.04.1) date Tue 11 Jun 2019 07:18:52 PM CDT*
%MOMM*%
%LPD*%
G01*
G04 APERTURE LIST*
%ADD10C,0.300000*%
%ADD11C,0.150000*%
%ADD12C,0.200000*%
G04 APERTURE END LIST*
D10*
X101321428Y-99000000D02*
X102821428Y-99000000D01*
X102821428Y-98428571D01*
X102750000Y-98285714D01*
X102678571Y-98214285D01*
X102535714Y-98142857D01*
X102321428Y-98142857D01*
X102178571Y-98214285D01*
X102107142Y-98285714D01*
X102035714Y-98428571D01*
X102035714Y-99000000D01*
X101321428Y-97500000D02*
X102821428Y-97500000D01*
X101321428Y-96642857D01*
X102821428Y-96642857D01*
X101464285Y-95928571D02*
X101392857Y-95857142D01*
X101321428Y-95928571D01*
X101392857Y-96000000D01*
X101464285Y-95928571D01*
X101321428Y-95928571D01*
X102250000Y-95928571D02*
X102178571Y-95857142D01*
X102107142Y-95928571D01*
X102178571Y-96000000D01*
X102250000Y-95928571D01*
X102107142Y-95928571D01*
X102750000Y-93285714D02*
X102821428Y-93428571D01*
X102821428Y-93642857D01*
X102750000Y-93857142D01*
X102607142Y-94000000D01*
X102464285Y-94071428D01*
X102178571Y-94142857D01*
X101964285Y-94142857D01*
X101678571Y-94071428D01*
X101535714Y-94000000D01*
X101392857Y-93857142D01*
X101321428Y-93642857D01*
X101321428Y-93500000D01*
X101392857Y-93285714D01*
X101464285Y-93214285D01*
X101964285Y-93214285D01*
X101964285Y-93500000D01*
X102821428Y-92285714D02*
X102821428Y-92000000D01*
X102750000Y-91857142D01*
X102607142Y-91714285D01*
X102321428Y-91642857D01*
X101821428Y-91642857D01*
X101535714Y-91714285D01*
X101392857Y-91857142D01*
X101321428Y-92000000D01*
X101321428Y-92285714D01*
X101392857Y-92428571D01*
X101535714Y-92571428D01*
X101821428Y-92642857D01*
X102321428Y-92642857D01*
X102607142Y-92571428D01*
X102750000Y-92428571D01*
X102821428Y-92285714D01*
X102821428Y-91000000D02*
X101607142Y-91000000D01*
X101464285Y-90928571D01*
X101392857Y-90857142D01*
X101321428Y-90714285D01*
X101321428Y-90428571D01*
X101392857Y-90285714D01*
X101464285Y-90214285D01*
X101607142Y-90142857D01*
X102821428Y-90142857D01*
X102821428Y-89642857D02*
X102821428Y-88785714D01*
X101321428Y-89214285D02*
X102821428Y-89214285D01*
X55095238Y-108476190D02*
X53095238Y-107809523D01*
X55095238Y-107142857D01*
X53095238Y-106476190D02*
X54428571Y-106476190D01*
X55095238Y-106476190D02*
X54999999Y-106571428D01*
X54904761Y-106476190D01*
X54999999Y-106380952D01*
X55095238Y-106476190D01*
X54904761Y-106476190D01*
X53095238Y-104666666D02*
X55095238Y-104666666D01*
X53190476Y-104666666D02*
X53095238Y-104857142D01*
X53095238Y-105238095D01*
X53190476Y-105428571D01*
X53285714Y-105523809D01*
X53476190Y-105619047D01*
X54047619Y-105619047D01*
X54238095Y-105523809D01*
X54333333Y-105428571D01*
X54428571Y-105238095D01*
X54428571Y-104857142D01*
X54333333Y-104666666D01*
X53095238Y-102857142D02*
X54142857Y-102857142D01*
X54333333Y-102952380D01*
X54428571Y-103142857D01*
X54428571Y-103523809D01*
X54333333Y-103714285D01*
X53190476Y-102857142D02*
X53095238Y-103047619D01*
X53095238Y-103523809D01*
X53190476Y-103714285D01*
X53380952Y-103809523D01*
X53571428Y-103809523D01*
X53761904Y-103714285D01*
X53857142Y-103523809D01*
X53857142Y-103047619D01*
X53952380Y-102857142D01*
X53190476Y-102000000D02*
X53095238Y-101809523D01*
X53095238Y-101428571D01*
X53190476Y-101238095D01*
X53380952Y-101142857D01*
X53476190Y-101142857D01*
X53666666Y-101238095D01*
X53761904Y-101428571D01*
X53761904Y-101714285D01*
X53857142Y-101904761D01*
X54047619Y-102000000D01*
X54142857Y-102000000D01*
X54333333Y-101904761D01*
X54428571Y-101714285D01*
X54428571Y-101428571D01*
X54333333Y-101238095D01*
X53190476Y-98857142D02*
X53095238Y-98571428D01*
X53095238Y-98095238D01*
X53190476Y-97904761D01*
X53285714Y-97809523D01*
X53476190Y-97714285D01*
X53666666Y-97714285D01*
X53857142Y-97809523D01*
X53952380Y-97904761D01*
X54047619Y-98095238D01*
X54142857Y-98476190D01*
X54238095Y-98666666D01*
X54333333Y-98761904D01*
X54523809Y-98857142D01*
X54714285Y-98857142D01*
X54904761Y-98761904D01*
X54999999Y-98666666D01*
X55095238Y-98476190D01*
X55095238Y-98000000D01*
X54999999Y-97714285D01*
X53095238Y-96857142D02*
X54428571Y-96857142D01*
X55095238Y-96857142D02*
X54999999Y-96952380D01*
X54904761Y-96857142D01*
X54999999Y-96761904D01*
X55095238Y-96857142D01*
X54904761Y-96857142D01*
X53095238Y-95904761D02*
X54428571Y-95904761D01*
X54238095Y-95904761D02*
X54333333Y-95809523D01*
X54428571Y-95619047D01*
X54428571Y-95333333D01*
X54333333Y-95142857D01*
X54142857Y-95047619D01*
X53095238Y-95047619D01*
X54142857Y-95047619D02*
X54333333Y-94952380D01*
X54428571Y-94761904D01*
X54428571Y-94476190D01*
X54333333Y-94285714D01*
X54142857Y-94190476D01*
X53095238Y-94190476D01*
X53095238Y-93238095D02*
X55095238Y-93238095D01*
X53857142Y-93047619D02*
X53095238Y-92476190D01*
X54428571Y-92476190D02*
X53666666Y-93238095D01*
X54428571Y-90761904D02*
X53095238Y-90761904D01*
X54428571Y-91619047D02*
X53380952Y-91619047D01*
X53190476Y-91523809D01*
X53095238Y-91333333D01*
X53095238Y-91047619D01*
X53190476Y-90857142D01*
X53285714Y-90761904D01*
X53190476Y-89904761D02*
X53095238Y-89714285D01*
X53095238Y-89333333D01*
X53190476Y-89142857D01*
X53380952Y-89047619D01*
X53476190Y-89047619D01*
X53666666Y-89142857D01*
X53761904Y-89333333D01*
X53761904Y-89619047D01*
X53857142Y-89809523D01*
X54047619Y-89904761D01*
X54142857Y-89904761D01*
X54333333Y-89809523D01*
X54428571Y-89619047D01*
X54428571Y-89333333D01*
X54333333Y-89142857D01*
X53857142Y-86666666D02*
X53857142Y-85142857D01*
X53857142Y-84190476D02*
X53857142Y-82666666D01*
X53095238Y-80190476D02*
X55095238Y-80190476D01*
X53095238Y-79333333D02*
X54142857Y-79333333D01*
X54333333Y-79428571D01*
X54428571Y-79619047D01*
X54428571Y-79904761D01*
X54333333Y-80095238D01*
X54238095Y-80190476D01*
X54428571Y-78666666D02*
X54428571Y-77904761D01*
X55095238Y-78380952D02*
X53380952Y-78380952D01*
X53190476Y-78285714D01*
X53095238Y-78095238D01*
X53095238Y-77904761D01*
X54428571Y-77523809D02*
X54428571Y-76761904D01*
X55095238Y-77238095D02*
X53380952Y-77238095D01*
X53190476Y-77142857D01*
X53095238Y-76952380D01*
X53095238Y-76761904D01*
X54428571Y-76095238D02*
X52428571Y-76095238D01*
X54333333Y-76095238D02*
X54428571Y-75904761D01*
X54428571Y-75523809D01*
X54333333Y-75333333D01*
X54238095Y-75238095D01*
X54047619Y-75142857D01*
X53476190Y-75142857D01*
X53285714Y-75238095D01*
X53190476Y-75333333D01*
X53095238Y-75523809D01*
X53095238Y-75904761D01*
X53190476Y-76095238D01*
X53190476Y-74380952D02*
X53095238Y-74190476D01*
X53095238Y-73809523D01*
X53190476Y-73619047D01*
X53380952Y-73523809D01*
X53476190Y-73523809D01*
X53666666Y-73619047D01*
X53761904Y-73809523D01*
X53761904Y-74095238D01*
X53857142Y-74285714D01*
X54047619Y-74380952D01*
X54142857Y-74380952D01*
X54333333Y-74285714D01*
X54428571Y-74095238D01*
X54428571Y-73809523D01*
X54333333Y-73619047D01*
X53285714Y-72666666D02*
X53190476Y-72571428D01*
X53095238Y-72666666D01*
X53190476Y-72761904D01*
X53285714Y-72666666D01*
X53095238Y-72666666D01*
X54333333Y-72666666D02*
X54238095Y-72571428D01*
X54142857Y-72666666D01*
X54238095Y-72761904D01*
X54333333Y-72666666D01*
X54142857Y-72666666D01*
X55190476Y-70285714D02*
X52619047Y-72000000D01*
X55190476Y-68190476D02*
X52619047Y-69904761D01*
X54428571Y-67714285D02*
X53095238Y-67333333D01*
X54047619Y-66952380D01*
X53095238Y-66571428D01*
X54428571Y-66190476D01*
X54428571Y-65619047D02*
X53095238Y-65238095D01*
X54047619Y-64857142D01*
X53095238Y-64476190D01*
X54428571Y-64095238D01*
X54428571Y-63523809D02*
X53095238Y-63142857D01*
X54047619Y-62761904D01*
X53095238Y-62380952D01*
X54428571Y-62000000D01*
X53285714Y-61238095D02*
X53190476Y-61142857D01*
X53095238Y-61238095D01*
X53190476Y-61333333D01*
X53285714Y-61238095D01*
X53095238Y-61238095D01*
X53190476Y-60380952D02*
X53095238Y-60190476D01*
X53095238Y-59809523D01*
X53190476Y-59619047D01*
X53380952Y-59523809D01*
X53476190Y-59523809D01*
X53666666Y-59619047D01*
X53761904Y-59809523D01*
X53761904Y-60095238D01*
X53857142Y-60285714D01*
X54047619Y-60380952D01*
X54142857Y-60380952D01*
X54333333Y-60285714D01*
X54428571Y-60095238D01*
X54428571Y-59809523D01*
X54333333Y-59619047D01*
X53095238Y-58666666D02*
X54428571Y-58666666D01*
X55095238Y-58666666D02*
X55000000Y-58761904D01*
X54904761Y-58666666D01*
X55000000Y-58571428D01*
X55095238Y-58666666D01*
X54904761Y-58666666D01*
X53095238Y-57714285D02*
X54428571Y-57714285D01*
X54238095Y-57714285D02*
X54333333Y-57619047D01*
X54428571Y-57428571D01*
X54428571Y-57142857D01*
X54333333Y-56952380D01*
X54142857Y-56857142D01*
X53095238Y-56857142D01*
X54142857Y-56857142D02*
X54333333Y-56761904D01*
X54428571Y-56571428D01*
X54428571Y-56285714D01*
X54333333Y-56095238D01*
X54142857Y-56000000D01*
X53095238Y-56000000D01*
X53095238Y-55047619D02*
X55095238Y-55047619D01*
X53857142Y-54857142D02*
X53095238Y-54285714D01*
X54428571Y-54285714D02*
X53666666Y-55047619D01*
X54428571Y-52571428D02*
X53095238Y-52571428D01*
X54428571Y-53428571D02*
X53380952Y-53428571D01*
X53190476Y-53333333D01*
X53095238Y-53142857D01*
X53095238Y-52857142D01*
X53190476Y-52666666D01*
X53285714Y-52571428D01*
X53190476Y-51714285D02*
X53095238Y-51523809D01*
X53095238Y-51142857D01*
X53190476Y-50952380D01*
X53380952Y-50857142D01*
X53476190Y-50857142D01*
X53666666Y-50952380D01*
X53761904Y-51142857D01*
X53761904Y-51428571D01*
X53857142Y-51619047D01*
X54047619Y-51714285D01*
X54142857Y-51714285D01*
X54333333Y-51619047D01*
X54428571Y-51428571D01*
X54428571Y-51142857D01*
X54333333Y-50952380D01*
X53285714Y-50000000D02*
X53190476Y-49904761D01*
X53095238Y-50000000D01*
X53190476Y-50095238D01*
X53285714Y-50000000D01*
X53095238Y-50000000D01*
X53190476Y-48190476D02*
X53095238Y-48380952D01*
X53095238Y-48761904D01*
X53190476Y-48952380D01*
X53285714Y-49047619D01*
X53476190Y-49142857D01*
X54047619Y-49142857D01*
X54238095Y-49047619D01*
X54333333Y-48952380D01*
X54428571Y-48761904D01*
X54428571Y-48380952D01*
X54333333Y-48190476D01*
X53095238Y-47047619D02*
X53190476Y-47238095D01*
X53285714Y-47333333D01*
X53476190Y-47428571D01*
X54047619Y-47428571D01*
X54238095Y-47333333D01*
X54333333Y-47238095D01*
X54428571Y-47047619D01*
X54428571Y-46761904D01*
X54333333Y-46571428D01*
X54238095Y-46476190D01*
X54047619Y-46380952D01*
X53476190Y-46380952D01*
X53285714Y-46476190D01*
X53190476Y-46571428D01*
X53095238Y-46761904D01*
X53095238Y-47047619D01*
X53095238Y-45523809D02*
X54428571Y-45523809D01*
X54238095Y-45523809D02*
X54333333Y-45428571D01*
X54428571Y-45238095D01*
X54428571Y-44952380D01*
X54333333Y-44761904D01*
X54142857Y-44666666D01*
X53095238Y-44666666D01*
X54142857Y-44666666D02*
X54333333Y-44571428D01*
X54428571Y-44380952D01*
X54428571Y-44095238D01*
X54333333Y-43904761D01*
X54142857Y-43809523D01*
X53095238Y-43809523D01*
D11*
G04 #@! TO.C,BOARD1*
X60500000Y-44100000D02*
X61700000Y-44100000D01*
X61700000Y-44100000D02*
X61700000Y-46500000D01*
X61700000Y-46500000D02*
X59400000Y-46500000D01*
X59400000Y-46500000D02*
X59400000Y-44100000D01*
X59400000Y-44100000D02*
X60500000Y-44100000D01*
G04 #@! TO.C,PLC1-12*
X94450000Y-73750000D02*
X94450000Y-71150000D01*
X94450000Y-71150000D02*
X97050000Y-71150000D01*
X97050000Y-71150000D02*
X97050000Y-73750000D01*
X97050000Y-73750000D02*
X94450000Y-73750000D01*
G04 #@! TO.C,PLC13-14*
X94400000Y-115750000D02*
X94400000Y-113150000D01*
X94400000Y-113150000D02*
X97000000Y-113150000D01*
X97000000Y-113150000D02*
X97000000Y-115750000D01*
X97000000Y-115750000D02*
X94400000Y-115750000D01*
G04 #@! TO.C,PLC24*
X96870000Y-82350000D02*
X94070000Y-82350000D01*
X96870000Y-79650000D02*
X96870000Y-82350000D01*
X94070000Y-79650000D02*
X96870000Y-79650000D01*
X94070000Y-82350000D02*
X94070000Y-79650000D01*
G04 #@! TO.C,VDC24*
X95690000Y-44180000D02*
X100090000Y-44180000D01*
X95690000Y-39780000D02*
X95690000Y-44180000D01*
X100090000Y-39780000D02*
X95690000Y-39780000D01*
X100090000Y-44180000D02*
X100090000Y-39780000D01*
G04 #@! TO.C,BOARD1*
D12*
X65647619Y-107858571D02*
X65647619Y-107439523D01*
X66171428Y-107397619D01*
X66119047Y-107439523D01*
X66066666Y-107523333D01*
X66066666Y-107732857D01*
X66119047Y-107816666D01*
X66171428Y-107858571D01*
X66276190Y-107900476D01*
X66538095Y-107900476D01*
X66642857Y-107858571D01*
X66695238Y-107816666D01*
X66747619Y-107732857D01*
X66747619Y-107523333D01*
X66695238Y-107439523D01*
X66642857Y-107397619D01*
X65647619Y-108445238D02*
X65647619Y-108529047D01*
X65700000Y-108612857D01*
X65752380Y-108654761D01*
X65857142Y-108696666D01*
X66066666Y-108738571D01*
X66328571Y-108738571D01*
X66538095Y-108696666D01*
X66642857Y-108654761D01*
X66695238Y-108612857D01*
X66747619Y-108529047D01*
X66747619Y-108445238D01*
X66695238Y-108361428D01*
X66642857Y-108319523D01*
X66538095Y-108277619D01*
X66328571Y-108235714D01*
X66066666Y-108235714D01*
X65857142Y-108277619D01*
X65752380Y-108319523D01*
X65700000Y-108361428D01*
X65647619Y-108445238D01*
X65852380Y-46197619D02*
X65800000Y-46239523D01*
X65747619Y-46323333D01*
X65747619Y-46532857D01*
X65800000Y-46616666D01*
X65852380Y-46658571D01*
X65957142Y-46700476D01*
X66061904Y-46700476D01*
X66219047Y-46658571D01*
X66847619Y-46155714D01*
X66847619Y-46700476D01*
X58914285Y-107816666D02*
X59647619Y-107816666D01*
X58495238Y-107607142D02*
X59280952Y-107397619D01*
X59280952Y-107942380D01*
X59647619Y-108319523D02*
X59647619Y-108487142D01*
X59595238Y-108570952D01*
X59542857Y-108612857D01*
X59385714Y-108696666D01*
X59176190Y-108738571D01*
X58757142Y-108738571D01*
X58652380Y-108696666D01*
X58600000Y-108654761D01*
X58547619Y-108570952D01*
X58547619Y-108403333D01*
X58600000Y-108319523D01*
X58652380Y-108277619D01*
X58757142Y-108235714D01*
X59019047Y-108235714D01*
X59123809Y-108277619D01*
X59176190Y-108319523D01*
X59228571Y-108403333D01*
X59228571Y-108570952D01*
X59176190Y-108654761D01*
X59123809Y-108696666D01*
X59019047Y-108738571D01*
X58647619Y-46400476D02*
X58647619Y-45897619D01*
X58647619Y-46149047D02*
X57547619Y-46149047D01*
X57704761Y-46065238D01*
X57809523Y-45981428D01*
X57861904Y-45897619D01*
G04 #@! TO.C,PLC1-12*
D11*
X89202380Y-49659523D02*
X89202380Y-49088095D01*
X89202380Y-49373809D02*
X88202380Y-49373809D01*
X88345238Y-49278571D01*
X88440476Y-49183333D01*
X88488095Y-49088095D01*
X88297619Y-50040476D02*
X88250000Y-50088095D01*
X88202380Y-50183333D01*
X88202380Y-50421428D01*
X88250000Y-50516666D01*
X88297619Y-50564285D01*
X88392857Y-50611904D01*
X88488095Y-50611904D01*
X88630952Y-50564285D01*
X89202380Y-49992857D01*
X89202380Y-50611904D01*
X94202380Y-47259523D02*
X94202380Y-46688095D01*
X94202380Y-46973809D02*
X93202380Y-46973809D01*
X93345238Y-46878571D01*
X93440476Y-46783333D01*
X93488095Y-46688095D01*
X94202380Y-48211904D02*
X94202380Y-47640476D01*
X94202380Y-47926190D02*
X93202380Y-47926190D01*
X93345238Y-47830952D01*
X93440476Y-47735714D01*
X93488095Y-47640476D01*
X88497619Y-74764285D02*
X88450000Y-74811904D01*
X88402380Y-74907142D01*
X88402380Y-75145238D01*
X88450000Y-75240476D01*
X88497619Y-75288095D01*
X88592857Y-75335714D01*
X88688095Y-75335714D01*
X88830952Y-75288095D01*
X89402380Y-74716666D01*
X89402380Y-75335714D01*
G04 #@! TO.C,PLC13-14*
X89152380Y-91659523D02*
X89152380Y-91088095D01*
X89152380Y-91373809D02*
X88152380Y-91373809D01*
X88295238Y-91278571D01*
X88390476Y-91183333D01*
X88438095Y-91088095D01*
X88247619Y-92040476D02*
X88200000Y-92088095D01*
X88152380Y-92183333D01*
X88152380Y-92421428D01*
X88200000Y-92516666D01*
X88247619Y-92564285D01*
X88342857Y-92611904D01*
X88438095Y-92611904D01*
X88580952Y-92564285D01*
X89152380Y-91992857D01*
X89152380Y-92611904D01*
X94152380Y-89259523D02*
X94152380Y-88688095D01*
X94152380Y-88973809D02*
X93152380Y-88973809D01*
X93295238Y-88878571D01*
X93390476Y-88783333D01*
X93438095Y-88688095D01*
X94152380Y-90211904D02*
X94152380Y-89640476D01*
X94152380Y-89926190D02*
X93152380Y-89926190D01*
X93295238Y-89830952D01*
X93390476Y-89735714D01*
X93438095Y-89640476D01*
X88447619Y-116764285D02*
X88400000Y-116811904D01*
X88352380Y-116907142D01*
X88352380Y-117145238D01*
X88400000Y-117240476D01*
X88447619Y-117288095D01*
X88542857Y-117335714D01*
X88638095Y-117335714D01*
X88780952Y-117288095D01*
X89352380Y-116716666D01*
X89352380Y-117335714D01*
G04 #@! TD*
M02*
