G04 #@! TF.GenerationSoftware,KiCad,Pcbnew,5.0.2-bee76a0~70~ubuntu18.04.1*
G04 #@! TF.CreationDate,2019-06-11T19:18:52-05:00*
G04 #@! TF.ProjectId,ADAPTER_BOARD,41444150-5445-4525-9f42-4f4152442e6b,rev?*
G04 #@! TF.SameCoordinates,Original*
G04 #@! TF.FileFunction,Soldermask,Bot*
G04 #@! TF.FilePolarity,Negative*
%FSLAX46Y46*%
G04 Gerber Fmt 4.6, Leading zero omitted, Abs format (unit mm)*
G04 Created by KiCad (PCBNEW 5.0.2-bee76a0~70~ubuntu18.04.1) date Tue 11 Jun 2019 07:18:52 PM CDT*
%MOMM*%
%LPD*%
G01*
G04 APERTURE LIST*
%ADD10C,0.100000*%
G04 APERTURE END LIST*
D10*
G36*
X105035786Y-121585462D02*
X105035788Y-121585463D01*
X105035789Y-121585463D01*
X105682029Y-121853144D01*
X105682030Y-121853145D01*
X106263634Y-122241760D01*
X106758240Y-122736366D01*
X106758242Y-122736369D01*
X107146856Y-123317971D01*
X107414537Y-123964211D01*
X107551000Y-124650257D01*
X107551000Y-125349743D01*
X107414537Y-126035789D01*
X107146856Y-126682029D01*
X107146855Y-126682030D01*
X106758240Y-127263634D01*
X106263634Y-127758240D01*
X106263631Y-127758242D01*
X105682029Y-128146856D01*
X105035789Y-128414537D01*
X105035788Y-128414537D01*
X105035786Y-128414538D01*
X104349744Y-128551000D01*
X103650256Y-128551000D01*
X102964214Y-128414538D01*
X102964212Y-128414537D01*
X102964211Y-128414537D01*
X102317971Y-128146856D01*
X101736369Y-127758242D01*
X101736366Y-127758240D01*
X101241760Y-127263634D01*
X100853145Y-126682030D01*
X100853144Y-126682029D01*
X100585463Y-126035789D01*
X100449000Y-125349743D01*
X100449000Y-124650257D01*
X100585463Y-123964211D01*
X100853144Y-123317971D01*
X101241758Y-122736369D01*
X101241760Y-122736366D01*
X101736366Y-122241760D01*
X102317970Y-121853145D01*
X102317971Y-121853144D01*
X102964211Y-121585463D01*
X102964212Y-121585463D01*
X102964214Y-121585462D01*
X103650256Y-121449000D01*
X104349744Y-121449000D01*
X105035786Y-121585462D01*
X105035786Y-121585462D01*
G37*
G36*
X56035786Y-121585462D02*
X56035788Y-121585463D01*
X56035789Y-121585463D01*
X56682029Y-121853144D01*
X56682030Y-121853145D01*
X57263634Y-122241760D01*
X57758240Y-122736366D01*
X57758242Y-122736369D01*
X58146856Y-123317971D01*
X58414537Y-123964211D01*
X58551000Y-124650257D01*
X58551000Y-125349743D01*
X58414537Y-126035789D01*
X58146856Y-126682029D01*
X58146855Y-126682030D01*
X57758240Y-127263634D01*
X57263634Y-127758240D01*
X57263631Y-127758242D01*
X56682029Y-128146856D01*
X56035789Y-128414537D01*
X56035788Y-128414537D01*
X56035786Y-128414538D01*
X55349744Y-128551000D01*
X54650256Y-128551000D01*
X53964214Y-128414538D01*
X53964212Y-128414537D01*
X53964211Y-128414537D01*
X53317971Y-128146856D01*
X52736369Y-127758242D01*
X52736366Y-127758240D01*
X52241760Y-127263634D01*
X51853145Y-126682030D01*
X51853144Y-126682029D01*
X51585463Y-126035789D01*
X51449000Y-125349743D01*
X51449000Y-124650257D01*
X51585463Y-123964211D01*
X51853144Y-123317971D01*
X52241758Y-122736369D01*
X52241760Y-122736366D01*
X52736366Y-122241760D01*
X53317970Y-121853145D01*
X53317971Y-121853144D01*
X53964211Y-121585463D01*
X53964212Y-121585463D01*
X53964214Y-121585462D01*
X54650256Y-121449000D01*
X55349744Y-121449000D01*
X56035786Y-121585462D01*
X56035786Y-121585462D01*
G37*
G36*
X91035734Y-115843232D02*
X91245202Y-115929996D01*
X91433723Y-116055962D01*
X91594038Y-116216277D01*
X91720004Y-116404798D01*
X91806768Y-116614266D01*
X91851000Y-116836635D01*
X91851000Y-117063365D01*
X91806768Y-117285734D01*
X91720004Y-117495202D01*
X91594038Y-117683723D01*
X91433723Y-117844038D01*
X91245202Y-117970004D01*
X91035734Y-118056768D01*
X90813365Y-118101000D01*
X90586635Y-118101000D01*
X90364266Y-118056768D01*
X90154798Y-117970004D01*
X89966277Y-117844038D01*
X89805962Y-117683723D01*
X89679996Y-117495202D01*
X89593232Y-117285734D01*
X89549000Y-117063365D01*
X89549000Y-116836635D01*
X89593232Y-116614266D01*
X89679996Y-116404798D01*
X89805962Y-116216277D01*
X89966277Y-116055962D01*
X90154798Y-115929996D01*
X90364266Y-115843232D01*
X90586635Y-115799000D01*
X90813365Y-115799000D01*
X91035734Y-115843232D01*
X91035734Y-115843232D01*
G37*
G36*
X61842831Y-113637841D02*
X61987826Y-113666682D01*
X62100974Y-113713550D01*
X62260989Y-113779830D01*
X62506835Y-113944099D01*
X62715901Y-114153165D01*
X62880170Y-114399011D01*
X62993318Y-114672175D01*
X63051000Y-114962163D01*
X63051000Y-115257837D01*
X62993318Y-115547825D01*
X62880170Y-115820989D01*
X62715901Y-116066835D01*
X62506835Y-116275901D01*
X62260989Y-116440170D01*
X62100974Y-116506450D01*
X61987826Y-116553318D01*
X61842831Y-116582159D01*
X61697837Y-116611000D01*
X61402163Y-116611000D01*
X61257169Y-116582159D01*
X61112174Y-116553318D01*
X60999026Y-116506450D01*
X60839011Y-116440170D01*
X60593165Y-116275901D01*
X60384099Y-116066835D01*
X60219830Y-115820989D01*
X60106682Y-115547825D01*
X60049000Y-115257837D01*
X60049000Y-114962163D01*
X60106682Y-114672175D01*
X60219830Y-114399011D01*
X60384099Y-114153165D01*
X60593165Y-113944099D01*
X60839011Y-113779830D01*
X60999026Y-113713550D01*
X61112174Y-113666682D01*
X61257169Y-113637841D01*
X61402163Y-113609000D01*
X61697837Y-113609000D01*
X61842831Y-113637841D01*
X61842831Y-113637841D01*
G37*
G36*
X96035734Y-113343232D02*
X96245202Y-113429996D01*
X96433723Y-113555962D01*
X96594038Y-113716277D01*
X96720004Y-113904798D01*
X96806768Y-114114266D01*
X96851000Y-114336635D01*
X96851000Y-114563365D01*
X96806768Y-114785734D01*
X96720004Y-114995202D01*
X96594038Y-115183723D01*
X96433723Y-115344038D01*
X96245202Y-115470004D01*
X96035734Y-115556768D01*
X95813365Y-115601000D01*
X95586635Y-115601000D01*
X95364266Y-115556768D01*
X95154798Y-115470004D01*
X94966277Y-115344038D01*
X94805962Y-115183723D01*
X94679996Y-114995202D01*
X94593232Y-114785734D01*
X94549000Y-114563365D01*
X94549000Y-114336635D01*
X94593232Y-114114266D01*
X94679996Y-113904798D01*
X94805962Y-113716277D01*
X94966277Y-113555962D01*
X95154798Y-113429996D01*
X95364266Y-113343232D01*
X95586635Y-113299000D01*
X95813365Y-113299000D01*
X96035734Y-113343232D01*
X96035734Y-113343232D01*
G37*
G36*
X91035734Y-110843232D02*
X91245202Y-110929996D01*
X91433723Y-111055962D01*
X91594038Y-111216277D01*
X91720004Y-111404798D01*
X91806768Y-111614266D01*
X91851000Y-111836635D01*
X91851000Y-112063365D01*
X91806768Y-112285734D01*
X91720004Y-112495202D01*
X91594038Y-112683723D01*
X91433723Y-112844038D01*
X91245202Y-112970004D01*
X91035734Y-113056768D01*
X90813365Y-113101000D01*
X90586635Y-113101000D01*
X90364266Y-113056768D01*
X90154798Y-112970004D01*
X89966277Y-112844038D01*
X89805962Y-112683723D01*
X89679996Y-112495202D01*
X89593232Y-112285734D01*
X89549000Y-112063365D01*
X89549000Y-111836635D01*
X89593232Y-111614266D01*
X89679996Y-111404798D01*
X89805962Y-111216277D01*
X89966277Y-111055962D01*
X90154798Y-110929996D01*
X90364266Y-110843232D01*
X90586635Y-110799000D01*
X90813365Y-110799000D01*
X91035734Y-110843232D01*
X91035734Y-110843232D01*
G37*
G36*
X96035734Y-108343232D02*
X96245202Y-108429996D01*
X96433723Y-108555962D01*
X96594038Y-108716277D01*
X96720004Y-108904798D01*
X96806768Y-109114266D01*
X96851000Y-109336635D01*
X96851000Y-109563365D01*
X96806768Y-109785734D01*
X96720004Y-109995202D01*
X96594038Y-110183723D01*
X96433723Y-110344038D01*
X96245202Y-110470004D01*
X96035734Y-110556768D01*
X95813365Y-110601000D01*
X95586635Y-110601000D01*
X95364266Y-110556768D01*
X95154798Y-110470004D01*
X94966277Y-110344038D01*
X94805962Y-110183723D01*
X94679996Y-109995202D01*
X94593232Y-109785734D01*
X94549000Y-109563365D01*
X94549000Y-109336635D01*
X94593232Y-109114266D01*
X94679996Y-108904798D01*
X94805962Y-108716277D01*
X94966277Y-108555962D01*
X95154798Y-108429996D01*
X95364266Y-108343232D01*
X95586635Y-108299000D01*
X95813365Y-108299000D01*
X96035734Y-108343232D01*
X96035734Y-108343232D01*
G37*
G36*
X91035734Y-105843232D02*
X91245202Y-105929996D01*
X91433723Y-106055962D01*
X91594038Y-106216277D01*
X91720004Y-106404798D01*
X91806768Y-106614266D01*
X91851000Y-106836635D01*
X91851000Y-107063365D01*
X91806768Y-107285734D01*
X91720004Y-107495202D01*
X91594038Y-107683723D01*
X91433723Y-107844038D01*
X91245202Y-107970004D01*
X91035734Y-108056768D01*
X90813365Y-108101000D01*
X90586635Y-108101000D01*
X90364266Y-108056768D01*
X90154798Y-107970004D01*
X89966277Y-107844038D01*
X89805962Y-107683723D01*
X89679996Y-107495202D01*
X89593232Y-107285734D01*
X89549000Y-107063365D01*
X89549000Y-106836635D01*
X89593232Y-106614266D01*
X89679996Y-106404798D01*
X89805962Y-106216277D01*
X89966277Y-106055962D01*
X90154798Y-105929996D01*
X90364266Y-105843232D01*
X90586635Y-105799000D01*
X90813365Y-105799000D01*
X91035734Y-105843232D01*
X91035734Y-105843232D01*
G37*
G36*
X63347396Y-105345546D02*
X63520466Y-105417234D01*
X63676230Y-105521312D01*
X63808688Y-105653770D01*
X63912766Y-105809534D01*
X63984454Y-105982604D01*
X64021000Y-106166333D01*
X64021000Y-106353667D01*
X63984454Y-106537396D01*
X63912766Y-106710466D01*
X63808688Y-106866230D01*
X63676230Y-106998688D01*
X63520466Y-107102766D01*
X63347396Y-107174454D01*
X63163667Y-107211000D01*
X62976333Y-107211000D01*
X62792604Y-107174454D01*
X62619534Y-107102766D01*
X62463770Y-106998688D01*
X62331312Y-106866230D01*
X62227234Y-106710466D01*
X62155546Y-106537396D01*
X62119000Y-106353667D01*
X62119000Y-106166333D01*
X62155546Y-105982604D01*
X62227234Y-105809534D01*
X62331312Y-105653770D01*
X62463770Y-105521312D01*
X62619534Y-105417234D01*
X62792604Y-105345546D01*
X62976333Y-105309000D01*
X63163667Y-105309000D01*
X63347396Y-105345546D01*
X63347396Y-105345546D01*
G37*
G36*
X60807396Y-105345546D02*
X60980466Y-105417234D01*
X61136230Y-105521312D01*
X61268688Y-105653770D01*
X61372766Y-105809534D01*
X61444454Y-105982604D01*
X61481000Y-106166333D01*
X61481000Y-106353667D01*
X61444454Y-106537396D01*
X61372766Y-106710466D01*
X61268688Y-106866230D01*
X61136230Y-106998688D01*
X60980466Y-107102766D01*
X60807396Y-107174454D01*
X60623667Y-107211000D01*
X60436333Y-107211000D01*
X60252604Y-107174454D01*
X60079534Y-107102766D01*
X59923770Y-106998688D01*
X59791312Y-106866230D01*
X59687234Y-106710466D01*
X59615546Y-106537396D01*
X59579000Y-106353667D01*
X59579000Y-106166333D01*
X59615546Y-105982604D01*
X59687234Y-105809534D01*
X59791312Y-105653770D01*
X59923770Y-105521312D01*
X60079534Y-105417234D01*
X60252604Y-105345546D01*
X60436333Y-105309000D01*
X60623667Y-105309000D01*
X60807396Y-105345546D01*
X60807396Y-105345546D01*
G37*
G36*
X96035734Y-103343232D02*
X96245202Y-103429996D01*
X96433723Y-103555962D01*
X96594038Y-103716277D01*
X96720004Y-103904798D01*
X96806768Y-104114266D01*
X96851000Y-104336635D01*
X96851000Y-104563365D01*
X96806768Y-104785734D01*
X96720004Y-104995202D01*
X96594038Y-105183723D01*
X96433723Y-105344038D01*
X96245202Y-105470004D01*
X96035734Y-105556768D01*
X95813365Y-105601000D01*
X95586635Y-105601000D01*
X95364266Y-105556768D01*
X95154798Y-105470004D01*
X94966277Y-105344038D01*
X94805962Y-105183723D01*
X94679996Y-104995202D01*
X94593232Y-104785734D01*
X94549000Y-104563365D01*
X94549000Y-104336635D01*
X94593232Y-104114266D01*
X94679996Y-103904798D01*
X94805962Y-103716277D01*
X94966277Y-103555962D01*
X95154798Y-103429996D01*
X95364266Y-103343232D01*
X95586635Y-103299000D01*
X95813365Y-103299000D01*
X96035734Y-103343232D01*
X96035734Y-103343232D01*
G37*
G36*
X60807396Y-102805546D02*
X60980466Y-102877234D01*
X61136230Y-102981312D01*
X61268688Y-103113770D01*
X61372766Y-103269534D01*
X61444454Y-103442604D01*
X61481000Y-103626333D01*
X61481000Y-103813667D01*
X61444454Y-103997396D01*
X61372766Y-104170466D01*
X61268688Y-104326230D01*
X61136230Y-104458688D01*
X60980466Y-104562766D01*
X60807396Y-104634454D01*
X60623667Y-104671000D01*
X60436333Y-104671000D01*
X60252604Y-104634454D01*
X60079534Y-104562766D01*
X59923770Y-104458688D01*
X59791312Y-104326230D01*
X59687234Y-104170466D01*
X59615546Y-103997396D01*
X59579000Y-103813667D01*
X59579000Y-103626333D01*
X59615546Y-103442604D01*
X59687234Y-103269534D01*
X59791312Y-103113770D01*
X59923770Y-102981312D01*
X60079534Y-102877234D01*
X60252604Y-102805546D01*
X60436333Y-102769000D01*
X60623667Y-102769000D01*
X60807396Y-102805546D01*
X60807396Y-102805546D01*
G37*
G36*
X63347396Y-102805546D02*
X63520466Y-102877234D01*
X63676230Y-102981312D01*
X63808688Y-103113770D01*
X63912766Y-103269534D01*
X63984454Y-103442604D01*
X64021000Y-103626333D01*
X64021000Y-103813667D01*
X63984454Y-103997396D01*
X63912766Y-104170466D01*
X63808688Y-104326230D01*
X63676230Y-104458688D01*
X63520466Y-104562766D01*
X63347396Y-104634454D01*
X63163667Y-104671000D01*
X62976333Y-104671000D01*
X62792604Y-104634454D01*
X62619534Y-104562766D01*
X62463770Y-104458688D01*
X62331312Y-104326230D01*
X62227234Y-104170466D01*
X62155546Y-103997396D01*
X62119000Y-103813667D01*
X62119000Y-103626333D01*
X62155546Y-103442604D01*
X62227234Y-103269534D01*
X62331312Y-103113770D01*
X62463770Y-102981312D01*
X62619534Y-102877234D01*
X62792604Y-102805546D01*
X62976333Y-102769000D01*
X63163667Y-102769000D01*
X63347396Y-102805546D01*
X63347396Y-102805546D01*
G37*
G36*
X91035734Y-100843232D02*
X91245202Y-100929996D01*
X91433723Y-101055962D01*
X91594038Y-101216277D01*
X91720004Y-101404798D01*
X91806768Y-101614266D01*
X91851000Y-101836635D01*
X91851000Y-102063365D01*
X91806768Y-102285734D01*
X91720004Y-102495202D01*
X91594038Y-102683723D01*
X91433723Y-102844038D01*
X91245202Y-102970004D01*
X91035734Y-103056768D01*
X90813365Y-103101000D01*
X90586635Y-103101000D01*
X90364266Y-103056768D01*
X90154798Y-102970004D01*
X89966277Y-102844038D01*
X89805962Y-102683723D01*
X89679996Y-102495202D01*
X89593232Y-102285734D01*
X89549000Y-102063365D01*
X89549000Y-101836635D01*
X89593232Y-101614266D01*
X89679996Y-101404798D01*
X89805962Y-101216277D01*
X89966277Y-101055962D01*
X90154798Y-100929996D01*
X90364266Y-100843232D01*
X90586635Y-100799000D01*
X90813365Y-100799000D01*
X91035734Y-100843232D01*
X91035734Y-100843232D01*
G37*
G36*
X63347396Y-100265546D02*
X63520466Y-100337234D01*
X63676230Y-100441312D01*
X63808688Y-100573770D01*
X63912766Y-100729534D01*
X63984454Y-100902604D01*
X64021000Y-101086333D01*
X64021000Y-101273667D01*
X63984454Y-101457396D01*
X63912766Y-101630466D01*
X63808688Y-101786230D01*
X63676230Y-101918688D01*
X63520466Y-102022766D01*
X63347396Y-102094454D01*
X63163667Y-102131000D01*
X62976333Y-102131000D01*
X62792604Y-102094454D01*
X62619534Y-102022766D01*
X62463770Y-101918688D01*
X62331312Y-101786230D01*
X62227234Y-101630466D01*
X62155546Y-101457396D01*
X62119000Y-101273667D01*
X62119000Y-101086333D01*
X62155546Y-100902604D01*
X62227234Y-100729534D01*
X62331312Y-100573770D01*
X62463770Y-100441312D01*
X62619534Y-100337234D01*
X62792604Y-100265546D01*
X62976333Y-100229000D01*
X63163667Y-100229000D01*
X63347396Y-100265546D01*
X63347396Y-100265546D01*
G37*
G36*
X60807396Y-100265546D02*
X60980466Y-100337234D01*
X61136230Y-100441312D01*
X61268688Y-100573770D01*
X61372766Y-100729534D01*
X61444454Y-100902604D01*
X61481000Y-101086333D01*
X61481000Y-101273667D01*
X61444454Y-101457396D01*
X61372766Y-101630466D01*
X61268688Y-101786230D01*
X61136230Y-101918688D01*
X60980466Y-102022766D01*
X60807396Y-102094454D01*
X60623667Y-102131000D01*
X60436333Y-102131000D01*
X60252604Y-102094454D01*
X60079534Y-102022766D01*
X59923770Y-101918688D01*
X59791312Y-101786230D01*
X59687234Y-101630466D01*
X59615546Y-101457396D01*
X59579000Y-101273667D01*
X59579000Y-101086333D01*
X59615546Y-100902604D01*
X59687234Y-100729534D01*
X59791312Y-100573770D01*
X59923770Y-100441312D01*
X60079534Y-100337234D01*
X60252604Y-100265546D01*
X60436333Y-100229000D01*
X60623667Y-100229000D01*
X60807396Y-100265546D01*
X60807396Y-100265546D01*
G37*
G36*
X96035734Y-98343232D02*
X96245202Y-98429996D01*
X96433723Y-98555962D01*
X96594038Y-98716277D01*
X96720004Y-98904798D01*
X96806768Y-99114266D01*
X96851000Y-99336635D01*
X96851000Y-99563365D01*
X96806768Y-99785734D01*
X96720004Y-99995202D01*
X96594038Y-100183723D01*
X96433723Y-100344038D01*
X96245202Y-100470004D01*
X96035734Y-100556768D01*
X95813365Y-100601000D01*
X95586635Y-100601000D01*
X95364266Y-100556768D01*
X95154798Y-100470004D01*
X94966277Y-100344038D01*
X94805962Y-100183723D01*
X94679996Y-99995202D01*
X94593232Y-99785734D01*
X94549000Y-99563365D01*
X94549000Y-99336635D01*
X94593232Y-99114266D01*
X94679996Y-98904798D01*
X94805962Y-98716277D01*
X94966277Y-98555962D01*
X95154798Y-98429996D01*
X95364266Y-98343232D01*
X95586635Y-98299000D01*
X95813365Y-98299000D01*
X96035734Y-98343232D01*
X96035734Y-98343232D01*
G37*
G36*
X63347396Y-97725546D02*
X63520466Y-97797234D01*
X63676230Y-97901312D01*
X63808688Y-98033770D01*
X63912766Y-98189534D01*
X63984454Y-98362604D01*
X64021000Y-98546333D01*
X64021000Y-98733667D01*
X63984454Y-98917396D01*
X63912766Y-99090466D01*
X63808688Y-99246230D01*
X63676230Y-99378688D01*
X63520466Y-99482766D01*
X63347396Y-99554454D01*
X63163667Y-99591000D01*
X62976333Y-99591000D01*
X62792604Y-99554454D01*
X62619534Y-99482766D01*
X62463770Y-99378688D01*
X62331312Y-99246230D01*
X62227234Y-99090466D01*
X62155546Y-98917396D01*
X62119000Y-98733667D01*
X62119000Y-98546333D01*
X62155546Y-98362604D01*
X62227234Y-98189534D01*
X62331312Y-98033770D01*
X62463770Y-97901312D01*
X62619534Y-97797234D01*
X62792604Y-97725546D01*
X62976333Y-97689000D01*
X63163667Y-97689000D01*
X63347396Y-97725546D01*
X63347396Y-97725546D01*
G37*
G36*
X60807396Y-97725546D02*
X60980466Y-97797234D01*
X61136230Y-97901312D01*
X61268688Y-98033770D01*
X61372766Y-98189534D01*
X61444454Y-98362604D01*
X61481000Y-98546333D01*
X61481000Y-98733667D01*
X61444454Y-98917396D01*
X61372766Y-99090466D01*
X61268688Y-99246230D01*
X61136230Y-99378688D01*
X60980466Y-99482766D01*
X60807396Y-99554454D01*
X60623667Y-99591000D01*
X60436333Y-99591000D01*
X60252604Y-99554454D01*
X60079534Y-99482766D01*
X59923770Y-99378688D01*
X59791312Y-99246230D01*
X59687234Y-99090466D01*
X59615546Y-98917396D01*
X59579000Y-98733667D01*
X59579000Y-98546333D01*
X59615546Y-98362604D01*
X59687234Y-98189534D01*
X59791312Y-98033770D01*
X59923770Y-97901312D01*
X60079534Y-97797234D01*
X60252604Y-97725546D01*
X60436333Y-97689000D01*
X60623667Y-97689000D01*
X60807396Y-97725546D01*
X60807396Y-97725546D01*
G37*
G36*
X91035734Y-95843232D02*
X91245202Y-95929996D01*
X91433723Y-96055962D01*
X91594038Y-96216277D01*
X91720004Y-96404798D01*
X91806768Y-96614266D01*
X91851000Y-96836635D01*
X91851000Y-97063365D01*
X91806768Y-97285734D01*
X91720004Y-97495202D01*
X91594038Y-97683723D01*
X91433723Y-97844038D01*
X91245202Y-97970004D01*
X91035734Y-98056768D01*
X90813365Y-98101000D01*
X90586635Y-98101000D01*
X90364266Y-98056768D01*
X90154798Y-97970004D01*
X89966277Y-97844038D01*
X89805962Y-97683723D01*
X89679996Y-97495202D01*
X89593232Y-97285734D01*
X89549000Y-97063365D01*
X89549000Y-96836635D01*
X89593232Y-96614266D01*
X89679996Y-96404798D01*
X89805962Y-96216277D01*
X89966277Y-96055962D01*
X90154798Y-95929996D01*
X90364266Y-95843232D01*
X90586635Y-95799000D01*
X90813365Y-95799000D01*
X91035734Y-95843232D01*
X91035734Y-95843232D01*
G37*
G36*
X60807396Y-95185546D02*
X60980466Y-95257234D01*
X61136230Y-95361312D01*
X61268688Y-95493770D01*
X61372766Y-95649534D01*
X61444454Y-95822604D01*
X61481000Y-96006333D01*
X61481000Y-96193667D01*
X61444454Y-96377396D01*
X61372766Y-96550466D01*
X61268688Y-96706230D01*
X61136230Y-96838688D01*
X60980466Y-96942766D01*
X60807396Y-97014454D01*
X60623667Y-97051000D01*
X60436333Y-97051000D01*
X60252604Y-97014454D01*
X60079534Y-96942766D01*
X59923770Y-96838688D01*
X59791312Y-96706230D01*
X59687234Y-96550466D01*
X59615546Y-96377396D01*
X59579000Y-96193667D01*
X59579000Y-96006333D01*
X59615546Y-95822604D01*
X59687234Y-95649534D01*
X59791312Y-95493770D01*
X59923770Y-95361312D01*
X60079534Y-95257234D01*
X60252604Y-95185546D01*
X60436333Y-95149000D01*
X60623667Y-95149000D01*
X60807396Y-95185546D01*
X60807396Y-95185546D01*
G37*
G36*
X63347396Y-95185546D02*
X63520466Y-95257234D01*
X63676230Y-95361312D01*
X63808688Y-95493770D01*
X63912766Y-95649534D01*
X63984454Y-95822604D01*
X64021000Y-96006333D01*
X64021000Y-96193667D01*
X63984454Y-96377396D01*
X63912766Y-96550466D01*
X63808688Y-96706230D01*
X63676230Y-96838688D01*
X63520466Y-96942766D01*
X63347396Y-97014454D01*
X63163667Y-97051000D01*
X62976333Y-97051000D01*
X62792604Y-97014454D01*
X62619534Y-96942766D01*
X62463770Y-96838688D01*
X62331312Y-96706230D01*
X62227234Y-96550466D01*
X62155546Y-96377396D01*
X62119000Y-96193667D01*
X62119000Y-96006333D01*
X62155546Y-95822604D01*
X62227234Y-95649534D01*
X62331312Y-95493770D01*
X62463770Y-95361312D01*
X62619534Y-95257234D01*
X62792604Y-95185546D01*
X62976333Y-95149000D01*
X63163667Y-95149000D01*
X63347396Y-95185546D01*
X63347396Y-95185546D01*
G37*
G36*
X96035734Y-93343232D02*
X96245202Y-93429996D01*
X96433723Y-93555962D01*
X96594038Y-93716277D01*
X96720004Y-93904798D01*
X96806768Y-94114266D01*
X96851000Y-94336635D01*
X96851000Y-94563365D01*
X96806768Y-94785734D01*
X96720004Y-94995202D01*
X96594038Y-95183723D01*
X96433723Y-95344038D01*
X96245202Y-95470004D01*
X96035734Y-95556768D01*
X95813365Y-95601000D01*
X95586635Y-95601000D01*
X95364266Y-95556768D01*
X95154798Y-95470004D01*
X94966277Y-95344038D01*
X94805962Y-95183723D01*
X94679996Y-94995202D01*
X94593232Y-94785734D01*
X94549000Y-94563365D01*
X94549000Y-94336635D01*
X94593232Y-94114266D01*
X94679996Y-93904798D01*
X94805962Y-93716277D01*
X94966277Y-93555962D01*
X95154798Y-93429996D01*
X95364266Y-93343232D01*
X95586635Y-93299000D01*
X95813365Y-93299000D01*
X96035734Y-93343232D01*
X96035734Y-93343232D01*
G37*
G36*
X63347396Y-92645546D02*
X63520466Y-92717234D01*
X63676230Y-92821312D01*
X63808688Y-92953770D01*
X63912766Y-93109534D01*
X63984454Y-93282604D01*
X64021000Y-93466333D01*
X64021000Y-93653667D01*
X63984454Y-93837396D01*
X63912766Y-94010466D01*
X63808688Y-94166230D01*
X63676230Y-94298688D01*
X63520466Y-94402766D01*
X63347396Y-94474454D01*
X63163667Y-94511000D01*
X62976333Y-94511000D01*
X62792604Y-94474454D01*
X62619534Y-94402766D01*
X62463770Y-94298688D01*
X62331312Y-94166230D01*
X62227234Y-94010466D01*
X62155546Y-93837396D01*
X62119000Y-93653667D01*
X62119000Y-93466333D01*
X62155546Y-93282604D01*
X62227234Y-93109534D01*
X62331312Y-92953770D01*
X62463770Y-92821312D01*
X62619534Y-92717234D01*
X62792604Y-92645546D01*
X62976333Y-92609000D01*
X63163667Y-92609000D01*
X63347396Y-92645546D01*
X63347396Y-92645546D01*
G37*
G36*
X60807396Y-92645546D02*
X60980466Y-92717234D01*
X61136230Y-92821312D01*
X61268688Y-92953770D01*
X61372766Y-93109534D01*
X61444454Y-93282604D01*
X61481000Y-93466333D01*
X61481000Y-93653667D01*
X61444454Y-93837396D01*
X61372766Y-94010466D01*
X61268688Y-94166230D01*
X61136230Y-94298688D01*
X60980466Y-94402766D01*
X60807396Y-94474454D01*
X60623667Y-94511000D01*
X60436333Y-94511000D01*
X60252604Y-94474454D01*
X60079534Y-94402766D01*
X59923770Y-94298688D01*
X59791312Y-94166230D01*
X59687234Y-94010466D01*
X59615546Y-93837396D01*
X59579000Y-93653667D01*
X59579000Y-93466333D01*
X59615546Y-93282604D01*
X59687234Y-93109534D01*
X59791312Y-92953770D01*
X59923770Y-92821312D01*
X60079534Y-92717234D01*
X60252604Y-92645546D01*
X60436333Y-92609000D01*
X60623667Y-92609000D01*
X60807396Y-92645546D01*
X60807396Y-92645546D01*
G37*
G36*
X91035734Y-90843232D02*
X91245202Y-90929996D01*
X91433723Y-91055962D01*
X91594038Y-91216277D01*
X91720004Y-91404798D01*
X91806768Y-91614266D01*
X91851000Y-91836635D01*
X91851000Y-92063365D01*
X91806768Y-92285734D01*
X91720004Y-92495202D01*
X91594038Y-92683723D01*
X91433723Y-92844038D01*
X91245202Y-92970004D01*
X91035734Y-93056768D01*
X90813365Y-93101000D01*
X90586635Y-93101000D01*
X90364266Y-93056768D01*
X90154798Y-92970004D01*
X89966277Y-92844038D01*
X89805962Y-92683723D01*
X89679996Y-92495202D01*
X89593232Y-92285734D01*
X89549000Y-92063365D01*
X89549000Y-91836635D01*
X89593232Y-91614266D01*
X89679996Y-91404798D01*
X89805962Y-91216277D01*
X89966277Y-91055962D01*
X90154798Y-90929996D01*
X90364266Y-90843232D01*
X90586635Y-90799000D01*
X90813365Y-90799000D01*
X91035734Y-90843232D01*
X91035734Y-90843232D01*
G37*
G36*
X63347396Y-90105546D02*
X63520466Y-90177234D01*
X63676230Y-90281312D01*
X63808688Y-90413770D01*
X63912766Y-90569534D01*
X63984454Y-90742604D01*
X64021000Y-90926333D01*
X64021000Y-91113667D01*
X63984454Y-91297396D01*
X63912766Y-91470466D01*
X63808688Y-91626230D01*
X63676230Y-91758688D01*
X63520466Y-91862766D01*
X63347396Y-91934454D01*
X63163667Y-91971000D01*
X62976333Y-91971000D01*
X62792604Y-91934454D01*
X62619534Y-91862766D01*
X62463770Y-91758688D01*
X62331312Y-91626230D01*
X62227234Y-91470466D01*
X62155546Y-91297396D01*
X62119000Y-91113667D01*
X62119000Y-90926333D01*
X62155546Y-90742604D01*
X62227234Y-90569534D01*
X62331312Y-90413770D01*
X62463770Y-90281312D01*
X62619534Y-90177234D01*
X62792604Y-90105546D01*
X62976333Y-90069000D01*
X63163667Y-90069000D01*
X63347396Y-90105546D01*
X63347396Y-90105546D01*
G37*
G36*
X60807396Y-90105546D02*
X60980466Y-90177234D01*
X61136230Y-90281312D01*
X61268688Y-90413770D01*
X61372766Y-90569534D01*
X61444454Y-90742604D01*
X61481000Y-90926333D01*
X61481000Y-91113667D01*
X61444454Y-91297396D01*
X61372766Y-91470466D01*
X61268688Y-91626230D01*
X61136230Y-91758688D01*
X60980466Y-91862766D01*
X60807396Y-91934454D01*
X60623667Y-91971000D01*
X60436333Y-91971000D01*
X60252604Y-91934454D01*
X60079534Y-91862766D01*
X59923770Y-91758688D01*
X59791312Y-91626230D01*
X59687234Y-91470466D01*
X59615546Y-91297396D01*
X59579000Y-91113667D01*
X59579000Y-90926333D01*
X59615546Y-90742604D01*
X59687234Y-90569534D01*
X59791312Y-90413770D01*
X59923770Y-90281312D01*
X60079534Y-90177234D01*
X60252604Y-90105546D01*
X60436333Y-90069000D01*
X60623667Y-90069000D01*
X60807396Y-90105546D01*
X60807396Y-90105546D01*
G37*
G36*
X96035734Y-88343232D02*
X96245202Y-88429996D01*
X96433723Y-88555962D01*
X96594038Y-88716277D01*
X96720004Y-88904798D01*
X96806768Y-89114266D01*
X96851000Y-89336635D01*
X96851000Y-89563365D01*
X96806768Y-89785734D01*
X96720004Y-89995202D01*
X96594038Y-90183723D01*
X96433723Y-90344038D01*
X96245202Y-90470004D01*
X96035734Y-90556768D01*
X95813365Y-90601000D01*
X95586635Y-90601000D01*
X95364266Y-90556768D01*
X95154798Y-90470004D01*
X94966277Y-90344038D01*
X94805962Y-90183723D01*
X94679996Y-89995202D01*
X94593232Y-89785734D01*
X94549000Y-89563365D01*
X94549000Y-89336635D01*
X94593232Y-89114266D01*
X94679996Y-88904798D01*
X94805962Y-88716277D01*
X94966277Y-88555962D01*
X95154798Y-88429996D01*
X95364266Y-88343232D01*
X95586635Y-88299000D01*
X95813365Y-88299000D01*
X96035734Y-88343232D01*
X96035734Y-88343232D01*
G37*
G36*
X63347396Y-87565546D02*
X63520466Y-87637234D01*
X63676230Y-87741312D01*
X63808688Y-87873770D01*
X63912766Y-88029534D01*
X63984454Y-88202604D01*
X64021000Y-88386333D01*
X64021000Y-88573667D01*
X63984454Y-88757396D01*
X63912766Y-88930466D01*
X63808688Y-89086230D01*
X63676230Y-89218688D01*
X63520466Y-89322766D01*
X63347396Y-89394454D01*
X63163667Y-89431000D01*
X62976333Y-89431000D01*
X62792604Y-89394454D01*
X62619534Y-89322766D01*
X62463770Y-89218688D01*
X62331312Y-89086230D01*
X62227234Y-88930466D01*
X62155546Y-88757396D01*
X62119000Y-88573667D01*
X62119000Y-88386333D01*
X62155546Y-88202604D01*
X62227234Y-88029534D01*
X62331312Y-87873770D01*
X62463770Y-87741312D01*
X62619534Y-87637234D01*
X62792604Y-87565546D01*
X62976333Y-87529000D01*
X63163667Y-87529000D01*
X63347396Y-87565546D01*
X63347396Y-87565546D01*
G37*
G36*
X60807396Y-87565546D02*
X60980466Y-87637234D01*
X61136230Y-87741312D01*
X61268688Y-87873770D01*
X61372766Y-88029534D01*
X61444454Y-88202604D01*
X61481000Y-88386333D01*
X61481000Y-88573667D01*
X61444454Y-88757396D01*
X61372766Y-88930466D01*
X61268688Y-89086230D01*
X61136230Y-89218688D01*
X60980466Y-89322766D01*
X60807396Y-89394454D01*
X60623667Y-89431000D01*
X60436333Y-89431000D01*
X60252604Y-89394454D01*
X60079534Y-89322766D01*
X59923770Y-89218688D01*
X59791312Y-89086230D01*
X59687234Y-88930466D01*
X59615546Y-88757396D01*
X59579000Y-88573667D01*
X59579000Y-88386333D01*
X59615546Y-88202604D01*
X59687234Y-88029534D01*
X59791312Y-87873770D01*
X59923770Y-87741312D01*
X60079534Y-87637234D01*
X60252604Y-87565546D01*
X60436333Y-87529000D01*
X60623667Y-87529000D01*
X60807396Y-87565546D01*
X60807396Y-87565546D01*
G37*
G36*
X60807396Y-85025546D02*
X60980466Y-85097234D01*
X61136230Y-85201312D01*
X61268688Y-85333770D01*
X61372766Y-85489534D01*
X61444454Y-85662604D01*
X61481000Y-85846333D01*
X61481000Y-86033667D01*
X61444454Y-86217396D01*
X61372766Y-86390466D01*
X61268688Y-86546230D01*
X61136230Y-86678688D01*
X60980466Y-86782766D01*
X60807396Y-86854454D01*
X60623667Y-86891000D01*
X60436333Y-86891000D01*
X60252604Y-86854454D01*
X60079534Y-86782766D01*
X59923770Y-86678688D01*
X59791312Y-86546230D01*
X59687234Y-86390466D01*
X59615546Y-86217396D01*
X59579000Y-86033667D01*
X59579000Y-85846333D01*
X59615546Y-85662604D01*
X59687234Y-85489534D01*
X59791312Y-85333770D01*
X59923770Y-85201312D01*
X60079534Y-85097234D01*
X60252604Y-85025546D01*
X60436333Y-84989000D01*
X60623667Y-84989000D01*
X60807396Y-85025546D01*
X60807396Y-85025546D01*
G37*
G36*
X63347396Y-85025546D02*
X63520466Y-85097234D01*
X63676230Y-85201312D01*
X63808688Y-85333770D01*
X63912766Y-85489534D01*
X63984454Y-85662604D01*
X64021000Y-85846333D01*
X64021000Y-86033667D01*
X63984454Y-86217396D01*
X63912766Y-86390466D01*
X63808688Y-86546230D01*
X63676230Y-86678688D01*
X63520466Y-86782766D01*
X63347396Y-86854454D01*
X63163667Y-86891000D01*
X62976333Y-86891000D01*
X62792604Y-86854454D01*
X62619534Y-86782766D01*
X62463770Y-86678688D01*
X62331312Y-86546230D01*
X62227234Y-86390466D01*
X62155546Y-86217396D01*
X62119000Y-86033667D01*
X62119000Y-85846333D01*
X62155546Y-85662604D01*
X62227234Y-85489534D01*
X62331312Y-85333770D01*
X62463770Y-85201312D01*
X62619534Y-85097234D01*
X62792604Y-85025546D01*
X62976333Y-84989000D01*
X63163667Y-84989000D01*
X63347396Y-85025546D01*
X63347396Y-85025546D01*
G37*
G36*
X90805734Y-82393232D02*
X91015202Y-82479996D01*
X91203723Y-82605962D01*
X91364038Y-82766277D01*
X91490004Y-82954798D01*
X91576768Y-83164266D01*
X91621000Y-83386635D01*
X91621000Y-83613365D01*
X91576768Y-83835734D01*
X91490004Y-84045202D01*
X91364038Y-84233723D01*
X91203723Y-84394038D01*
X91015202Y-84520004D01*
X90805734Y-84606768D01*
X90583365Y-84651000D01*
X90356635Y-84651000D01*
X90134266Y-84606768D01*
X89924798Y-84520004D01*
X89736277Y-84394038D01*
X89575962Y-84233723D01*
X89449996Y-84045202D01*
X89363232Y-83835734D01*
X89319000Y-83613365D01*
X89319000Y-83386635D01*
X89363232Y-83164266D01*
X89449996Y-82954798D01*
X89575962Y-82766277D01*
X89736277Y-82605962D01*
X89924798Y-82479996D01*
X90134266Y-82393232D01*
X90356635Y-82349000D01*
X90583365Y-82349000D01*
X90805734Y-82393232D01*
X90805734Y-82393232D01*
G37*
G36*
X63347396Y-82485546D02*
X63520466Y-82557234D01*
X63676230Y-82661312D01*
X63808688Y-82793770D01*
X63912766Y-82949534D01*
X63984454Y-83122604D01*
X64021000Y-83306333D01*
X64021000Y-83493667D01*
X63984454Y-83677396D01*
X63912766Y-83850466D01*
X63808688Y-84006230D01*
X63676230Y-84138688D01*
X63520466Y-84242766D01*
X63347396Y-84314454D01*
X63163667Y-84351000D01*
X62976333Y-84351000D01*
X62792604Y-84314454D01*
X62619534Y-84242766D01*
X62463770Y-84138688D01*
X62331312Y-84006230D01*
X62227234Y-83850466D01*
X62155546Y-83677396D01*
X62119000Y-83493667D01*
X62119000Y-83306333D01*
X62155546Y-83122604D01*
X62227234Y-82949534D01*
X62331312Y-82793770D01*
X62463770Y-82661312D01*
X62619534Y-82557234D01*
X62792604Y-82485546D01*
X62976333Y-82449000D01*
X63163667Y-82449000D01*
X63347396Y-82485546D01*
X63347396Y-82485546D01*
G37*
G36*
X60807396Y-82485546D02*
X60980466Y-82557234D01*
X61136230Y-82661312D01*
X61268688Y-82793770D01*
X61372766Y-82949534D01*
X61444454Y-83122604D01*
X61481000Y-83306333D01*
X61481000Y-83493667D01*
X61444454Y-83677396D01*
X61372766Y-83850466D01*
X61268688Y-84006230D01*
X61136230Y-84138688D01*
X60980466Y-84242766D01*
X60807396Y-84314454D01*
X60623667Y-84351000D01*
X60436333Y-84351000D01*
X60252604Y-84314454D01*
X60079534Y-84242766D01*
X59923770Y-84138688D01*
X59791312Y-84006230D01*
X59687234Y-83850466D01*
X59615546Y-83677396D01*
X59579000Y-83493667D01*
X59579000Y-83306333D01*
X59615546Y-83122604D01*
X59687234Y-82949534D01*
X59791312Y-82793770D01*
X59923770Y-82661312D01*
X60079534Y-82557234D01*
X60252604Y-82485546D01*
X60436333Y-82449000D01*
X60623667Y-82449000D01*
X60807396Y-82485546D01*
X60807396Y-82485546D01*
G37*
G36*
X95805734Y-79893232D02*
X96015202Y-79979996D01*
X96203723Y-80105962D01*
X96364038Y-80266277D01*
X96490004Y-80454798D01*
X96576768Y-80664266D01*
X96621000Y-80886635D01*
X96621000Y-81113365D01*
X96576768Y-81335734D01*
X96490004Y-81545202D01*
X96364038Y-81733723D01*
X96203723Y-81894038D01*
X96015202Y-82020004D01*
X95805734Y-82106768D01*
X95583365Y-82151000D01*
X95356635Y-82151000D01*
X95134266Y-82106768D01*
X94924798Y-82020004D01*
X94736277Y-81894038D01*
X94575962Y-81733723D01*
X94449996Y-81545202D01*
X94363232Y-81335734D01*
X94319000Y-81113365D01*
X94319000Y-80886635D01*
X94363232Y-80664266D01*
X94449996Y-80454798D01*
X94575962Y-80266277D01*
X94736277Y-80105962D01*
X94924798Y-79979996D01*
X95134266Y-79893232D01*
X95356635Y-79849000D01*
X95583365Y-79849000D01*
X95805734Y-79893232D01*
X95805734Y-79893232D01*
G37*
G36*
X60807396Y-79945546D02*
X60980466Y-80017234D01*
X61136230Y-80121312D01*
X61268688Y-80253770D01*
X61372766Y-80409534D01*
X61444454Y-80582604D01*
X61481000Y-80766333D01*
X61481000Y-80953667D01*
X61444454Y-81137396D01*
X61372766Y-81310466D01*
X61268688Y-81466230D01*
X61136230Y-81598688D01*
X60980466Y-81702766D01*
X60807396Y-81774454D01*
X60623667Y-81811000D01*
X60436333Y-81811000D01*
X60252604Y-81774454D01*
X60079534Y-81702766D01*
X59923770Y-81598688D01*
X59791312Y-81466230D01*
X59687234Y-81310466D01*
X59615546Y-81137396D01*
X59579000Y-80953667D01*
X59579000Y-80766333D01*
X59615546Y-80582604D01*
X59687234Y-80409534D01*
X59791312Y-80253770D01*
X59923770Y-80121312D01*
X60079534Y-80017234D01*
X60252604Y-79945546D01*
X60436333Y-79909000D01*
X60623667Y-79909000D01*
X60807396Y-79945546D01*
X60807396Y-79945546D01*
G37*
G36*
X63347396Y-79945546D02*
X63520466Y-80017234D01*
X63676230Y-80121312D01*
X63808688Y-80253770D01*
X63912766Y-80409534D01*
X63984454Y-80582604D01*
X64021000Y-80766333D01*
X64021000Y-80953667D01*
X63984454Y-81137396D01*
X63912766Y-81310466D01*
X63808688Y-81466230D01*
X63676230Y-81598688D01*
X63520466Y-81702766D01*
X63347396Y-81774454D01*
X63163667Y-81811000D01*
X62976333Y-81811000D01*
X62792604Y-81774454D01*
X62619534Y-81702766D01*
X62463770Y-81598688D01*
X62331312Y-81466230D01*
X62227234Y-81310466D01*
X62155546Y-81137396D01*
X62119000Y-80953667D01*
X62119000Y-80766333D01*
X62155546Y-80582604D01*
X62227234Y-80409534D01*
X62331312Y-80253770D01*
X62463770Y-80121312D01*
X62619534Y-80017234D01*
X62792604Y-79945546D01*
X62976333Y-79909000D01*
X63163667Y-79909000D01*
X63347396Y-79945546D01*
X63347396Y-79945546D01*
G37*
G36*
X60807396Y-77405546D02*
X60980466Y-77477234D01*
X61136230Y-77581312D01*
X61268688Y-77713770D01*
X61372766Y-77869534D01*
X61444454Y-78042604D01*
X61481000Y-78226333D01*
X61481000Y-78413667D01*
X61444454Y-78597396D01*
X61372766Y-78770466D01*
X61268688Y-78926230D01*
X61136230Y-79058688D01*
X60980466Y-79162766D01*
X60807396Y-79234454D01*
X60623667Y-79271000D01*
X60436333Y-79271000D01*
X60252604Y-79234454D01*
X60079534Y-79162766D01*
X59923770Y-79058688D01*
X59791312Y-78926230D01*
X59687234Y-78770466D01*
X59615546Y-78597396D01*
X59579000Y-78413667D01*
X59579000Y-78226333D01*
X59615546Y-78042604D01*
X59687234Y-77869534D01*
X59791312Y-77713770D01*
X59923770Y-77581312D01*
X60079534Y-77477234D01*
X60252604Y-77405546D01*
X60436333Y-77369000D01*
X60623667Y-77369000D01*
X60807396Y-77405546D01*
X60807396Y-77405546D01*
G37*
G36*
X63347396Y-77405546D02*
X63520466Y-77477234D01*
X63676230Y-77581312D01*
X63808688Y-77713770D01*
X63912766Y-77869534D01*
X63984454Y-78042604D01*
X64021000Y-78226333D01*
X64021000Y-78413667D01*
X63984454Y-78597396D01*
X63912766Y-78770466D01*
X63808688Y-78926230D01*
X63676230Y-79058688D01*
X63520466Y-79162766D01*
X63347396Y-79234454D01*
X63163667Y-79271000D01*
X62976333Y-79271000D01*
X62792604Y-79234454D01*
X62619534Y-79162766D01*
X62463770Y-79058688D01*
X62331312Y-78926230D01*
X62227234Y-78770466D01*
X62155546Y-78597396D01*
X62119000Y-78413667D01*
X62119000Y-78226333D01*
X62155546Y-78042604D01*
X62227234Y-77869534D01*
X62331312Y-77713770D01*
X62463770Y-77581312D01*
X62619534Y-77477234D01*
X62792604Y-77405546D01*
X62976333Y-77369000D01*
X63163667Y-77369000D01*
X63347396Y-77405546D01*
X63347396Y-77405546D01*
G37*
G36*
X60807396Y-74865546D02*
X60980466Y-74937234D01*
X61136230Y-75041312D01*
X61268688Y-75173770D01*
X61372766Y-75329534D01*
X61444454Y-75502604D01*
X61481000Y-75686333D01*
X61481000Y-75873667D01*
X61444454Y-76057396D01*
X61372766Y-76230466D01*
X61268688Y-76386230D01*
X61136230Y-76518688D01*
X60980466Y-76622766D01*
X60807396Y-76694454D01*
X60623667Y-76731000D01*
X60436333Y-76731000D01*
X60252604Y-76694454D01*
X60079534Y-76622766D01*
X59923770Y-76518688D01*
X59791312Y-76386230D01*
X59687234Y-76230466D01*
X59615546Y-76057396D01*
X59579000Y-75873667D01*
X59579000Y-75686333D01*
X59615546Y-75502604D01*
X59687234Y-75329534D01*
X59791312Y-75173770D01*
X59923770Y-75041312D01*
X60079534Y-74937234D01*
X60252604Y-74865546D01*
X60436333Y-74829000D01*
X60623667Y-74829000D01*
X60807396Y-74865546D01*
X60807396Y-74865546D01*
G37*
G36*
X63347396Y-74865546D02*
X63520466Y-74937234D01*
X63676230Y-75041312D01*
X63808688Y-75173770D01*
X63912766Y-75329534D01*
X63984454Y-75502604D01*
X64021000Y-75686333D01*
X64021000Y-75873667D01*
X63984454Y-76057396D01*
X63912766Y-76230466D01*
X63808688Y-76386230D01*
X63676230Y-76518688D01*
X63520466Y-76622766D01*
X63347396Y-76694454D01*
X63163667Y-76731000D01*
X62976333Y-76731000D01*
X62792604Y-76694454D01*
X62619534Y-76622766D01*
X62463770Y-76518688D01*
X62331312Y-76386230D01*
X62227234Y-76230466D01*
X62155546Y-76057396D01*
X62119000Y-75873667D01*
X62119000Y-75686333D01*
X62155546Y-75502604D01*
X62227234Y-75329534D01*
X62331312Y-75173770D01*
X62463770Y-75041312D01*
X62619534Y-74937234D01*
X62792604Y-74865546D01*
X62976333Y-74829000D01*
X63163667Y-74829000D01*
X63347396Y-74865546D01*
X63347396Y-74865546D01*
G37*
G36*
X91085734Y-73843232D02*
X91295202Y-73929996D01*
X91483723Y-74055962D01*
X91644038Y-74216277D01*
X91770004Y-74404798D01*
X91856768Y-74614266D01*
X91901000Y-74836635D01*
X91901000Y-75063365D01*
X91856768Y-75285734D01*
X91770004Y-75495202D01*
X91644038Y-75683723D01*
X91483723Y-75844038D01*
X91295202Y-75970004D01*
X91085734Y-76056768D01*
X90863365Y-76101000D01*
X90636635Y-76101000D01*
X90414266Y-76056768D01*
X90204798Y-75970004D01*
X90016277Y-75844038D01*
X89855962Y-75683723D01*
X89729996Y-75495202D01*
X89643232Y-75285734D01*
X89599000Y-75063365D01*
X89599000Y-74836635D01*
X89643232Y-74614266D01*
X89729996Y-74404798D01*
X89855962Y-74216277D01*
X90016277Y-74055962D01*
X90204798Y-73929996D01*
X90414266Y-73843232D01*
X90636635Y-73799000D01*
X90863365Y-73799000D01*
X91085734Y-73843232D01*
X91085734Y-73843232D01*
G37*
G36*
X63347396Y-72325546D02*
X63520466Y-72397234D01*
X63676230Y-72501312D01*
X63808688Y-72633770D01*
X63912766Y-72789534D01*
X63984454Y-72962604D01*
X64021000Y-73146333D01*
X64021000Y-73333667D01*
X63984454Y-73517396D01*
X63912766Y-73690466D01*
X63808688Y-73846230D01*
X63676230Y-73978688D01*
X63520466Y-74082766D01*
X63347396Y-74154454D01*
X63163667Y-74191000D01*
X62976333Y-74191000D01*
X62792604Y-74154454D01*
X62619534Y-74082766D01*
X62463770Y-73978688D01*
X62331312Y-73846230D01*
X62227234Y-73690466D01*
X62155546Y-73517396D01*
X62119000Y-73333667D01*
X62119000Y-73146333D01*
X62155546Y-72962604D01*
X62227234Y-72789534D01*
X62331312Y-72633770D01*
X62463770Y-72501312D01*
X62619534Y-72397234D01*
X62792604Y-72325546D01*
X62976333Y-72289000D01*
X63163667Y-72289000D01*
X63347396Y-72325546D01*
X63347396Y-72325546D01*
G37*
G36*
X60807396Y-72325546D02*
X60980466Y-72397234D01*
X61136230Y-72501312D01*
X61268688Y-72633770D01*
X61372766Y-72789534D01*
X61444454Y-72962604D01*
X61481000Y-73146333D01*
X61481000Y-73333667D01*
X61444454Y-73517396D01*
X61372766Y-73690466D01*
X61268688Y-73846230D01*
X61136230Y-73978688D01*
X60980466Y-74082766D01*
X60807396Y-74154454D01*
X60623667Y-74191000D01*
X60436333Y-74191000D01*
X60252604Y-74154454D01*
X60079534Y-74082766D01*
X59923770Y-73978688D01*
X59791312Y-73846230D01*
X59687234Y-73690466D01*
X59615546Y-73517396D01*
X59579000Y-73333667D01*
X59579000Y-73146333D01*
X59615546Y-72962604D01*
X59687234Y-72789534D01*
X59791312Y-72633770D01*
X59923770Y-72501312D01*
X60079534Y-72397234D01*
X60252604Y-72325546D01*
X60436333Y-72289000D01*
X60623667Y-72289000D01*
X60807396Y-72325546D01*
X60807396Y-72325546D01*
G37*
G36*
X96085734Y-71343232D02*
X96295202Y-71429996D01*
X96483723Y-71555962D01*
X96644038Y-71716277D01*
X96770004Y-71904798D01*
X96856768Y-72114266D01*
X96901000Y-72336635D01*
X96901000Y-72563365D01*
X96856768Y-72785734D01*
X96770004Y-72995202D01*
X96644038Y-73183723D01*
X96483723Y-73344038D01*
X96295202Y-73470004D01*
X96085734Y-73556768D01*
X95863365Y-73601000D01*
X95636635Y-73601000D01*
X95414266Y-73556768D01*
X95204798Y-73470004D01*
X95016277Y-73344038D01*
X94855962Y-73183723D01*
X94729996Y-72995202D01*
X94643232Y-72785734D01*
X94599000Y-72563365D01*
X94599000Y-72336635D01*
X94643232Y-72114266D01*
X94729996Y-71904798D01*
X94855962Y-71716277D01*
X95016277Y-71555962D01*
X95204798Y-71429996D01*
X95414266Y-71343232D01*
X95636635Y-71299000D01*
X95863365Y-71299000D01*
X96085734Y-71343232D01*
X96085734Y-71343232D01*
G37*
G36*
X63347396Y-69785546D02*
X63520466Y-69857234D01*
X63676230Y-69961312D01*
X63808688Y-70093770D01*
X63912766Y-70249534D01*
X63984454Y-70422604D01*
X64021000Y-70606333D01*
X64021000Y-70793667D01*
X63984454Y-70977396D01*
X63912766Y-71150466D01*
X63808688Y-71306230D01*
X63676230Y-71438688D01*
X63520466Y-71542766D01*
X63347396Y-71614454D01*
X63163667Y-71651000D01*
X62976333Y-71651000D01*
X62792604Y-71614454D01*
X62619534Y-71542766D01*
X62463770Y-71438688D01*
X62331312Y-71306230D01*
X62227234Y-71150466D01*
X62155546Y-70977396D01*
X62119000Y-70793667D01*
X62119000Y-70606333D01*
X62155546Y-70422604D01*
X62227234Y-70249534D01*
X62331312Y-70093770D01*
X62463770Y-69961312D01*
X62619534Y-69857234D01*
X62792604Y-69785546D01*
X62976333Y-69749000D01*
X63163667Y-69749000D01*
X63347396Y-69785546D01*
X63347396Y-69785546D01*
G37*
G36*
X60807396Y-69785546D02*
X60980466Y-69857234D01*
X61136230Y-69961312D01*
X61268688Y-70093770D01*
X61372766Y-70249534D01*
X61444454Y-70422604D01*
X61481000Y-70606333D01*
X61481000Y-70793667D01*
X61444454Y-70977396D01*
X61372766Y-71150466D01*
X61268688Y-71306230D01*
X61136230Y-71438688D01*
X60980466Y-71542766D01*
X60807396Y-71614454D01*
X60623667Y-71651000D01*
X60436333Y-71651000D01*
X60252604Y-71614454D01*
X60079534Y-71542766D01*
X59923770Y-71438688D01*
X59791312Y-71306230D01*
X59687234Y-71150466D01*
X59615546Y-70977396D01*
X59579000Y-70793667D01*
X59579000Y-70606333D01*
X59615546Y-70422604D01*
X59687234Y-70249534D01*
X59791312Y-70093770D01*
X59923770Y-69961312D01*
X60079534Y-69857234D01*
X60252604Y-69785546D01*
X60436333Y-69749000D01*
X60623667Y-69749000D01*
X60807396Y-69785546D01*
X60807396Y-69785546D01*
G37*
G36*
X91085734Y-68843232D02*
X91295202Y-68929996D01*
X91483723Y-69055962D01*
X91644038Y-69216277D01*
X91770004Y-69404798D01*
X91856768Y-69614266D01*
X91901000Y-69836635D01*
X91901000Y-70063365D01*
X91856768Y-70285734D01*
X91770004Y-70495202D01*
X91644038Y-70683723D01*
X91483723Y-70844038D01*
X91295202Y-70970004D01*
X91085734Y-71056768D01*
X90863365Y-71101000D01*
X90636635Y-71101000D01*
X90414266Y-71056768D01*
X90204798Y-70970004D01*
X90016277Y-70844038D01*
X89855962Y-70683723D01*
X89729996Y-70495202D01*
X89643232Y-70285734D01*
X89599000Y-70063365D01*
X89599000Y-69836635D01*
X89643232Y-69614266D01*
X89729996Y-69404798D01*
X89855962Y-69216277D01*
X90016277Y-69055962D01*
X90204798Y-68929996D01*
X90414266Y-68843232D01*
X90636635Y-68799000D01*
X90863365Y-68799000D01*
X91085734Y-68843232D01*
X91085734Y-68843232D01*
G37*
G36*
X63347396Y-67245546D02*
X63520466Y-67317234D01*
X63676230Y-67421312D01*
X63808688Y-67553770D01*
X63912766Y-67709534D01*
X63984454Y-67882604D01*
X64021000Y-68066333D01*
X64021000Y-68253667D01*
X63984454Y-68437396D01*
X63912766Y-68610466D01*
X63808688Y-68766230D01*
X63676230Y-68898688D01*
X63520466Y-69002766D01*
X63347396Y-69074454D01*
X63163667Y-69111000D01*
X62976333Y-69111000D01*
X62792604Y-69074454D01*
X62619534Y-69002766D01*
X62463770Y-68898688D01*
X62331312Y-68766230D01*
X62227234Y-68610466D01*
X62155546Y-68437396D01*
X62119000Y-68253667D01*
X62119000Y-68066333D01*
X62155546Y-67882604D01*
X62227234Y-67709534D01*
X62331312Y-67553770D01*
X62463770Y-67421312D01*
X62619534Y-67317234D01*
X62792604Y-67245546D01*
X62976333Y-67209000D01*
X63163667Y-67209000D01*
X63347396Y-67245546D01*
X63347396Y-67245546D01*
G37*
G36*
X60807396Y-67245546D02*
X60980466Y-67317234D01*
X61136230Y-67421312D01*
X61268688Y-67553770D01*
X61372766Y-67709534D01*
X61444454Y-67882604D01*
X61481000Y-68066333D01*
X61481000Y-68253667D01*
X61444454Y-68437396D01*
X61372766Y-68610466D01*
X61268688Y-68766230D01*
X61136230Y-68898688D01*
X60980466Y-69002766D01*
X60807396Y-69074454D01*
X60623667Y-69111000D01*
X60436333Y-69111000D01*
X60252604Y-69074454D01*
X60079534Y-69002766D01*
X59923770Y-68898688D01*
X59791312Y-68766230D01*
X59687234Y-68610466D01*
X59615546Y-68437396D01*
X59579000Y-68253667D01*
X59579000Y-68066333D01*
X59615546Y-67882604D01*
X59687234Y-67709534D01*
X59791312Y-67553770D01*
X59923770Y-67421312D01*
X60079534Y-67317234D01*
X60252604Y-67245546D01*
X60436333Y-67209000D01*
X60623667Y-67209000D01*
X60807396Y-67245546D01*
X60807396Y-67245546D01*
G37*
G36*
X96085734Y-66343232D02*
X96295202Y-66429996D01*
X96483723Y-66555962D01*
X96644038Y-66716277D01*
X96770004Y-66904798D01*
X96856768Y-67114266D01*
X96901000Y-67336635D01*
X96901000Y-67563365D01*
X96856768Y-67785734D01*
X96770004Y-67995202D01*
X96644038Y-68183723D01*
X96483723Y-68344038D01*
X96295202Y-68470004D01*
X96085734Y-68556768D01*
X95863365Y-68601000D01*
X95636635Y-68601000D01*
X95414266Y-68556768D01*
X95204798Y-68470004D01*
X95016277Y-68344038D01*
X94855962Y-68183723D01*
X94729996Y-67995202D01*
X94643232Y-67785734D01*
X94599000Y-67563365D01*
X94599000Y-67336635D01*
X94643232Y-67114266D01*
X94729996Y-66904798D01*
X94855962Y-66716277D01*
X95016277Y-66555962D01*
X95204798Y-66429996D01*
X95414266Y-66343232D01*
X95636635Y-66299000D01*
X95863365Y-66299000D01*
X96085734Y-66343232D01*
X96085734Y-66343232D01*
G37*
G36*
X63347396Y-64705546D02*
X63520466Y-64777234D01*
X63676230Y-64881312D01*
X63808688Y-65013770D01*
X63912766Y-65169534D01*
X63984454Y-65342604D01*
X64021000Y-65526333D01*
X64021000Y-65713667D01*
X63984454Y-65897396D01*
X63912766Y-66070466D01*
X63808688Y-66226230D01*
X63676230Y-66358688D01*
X63520466Y-66462766D01*
X63347396Y-66534454D01*
X63163667Y-66571000D01*
X62976333Y-66571000D01*
X62792604Y-66534454D01*
X62619534Y-66462766D01*
X62463770Y-66358688D01*
X62331312Y-66226230D01*
X62227234Y-66070466D01*
X62155546Y-65897396D01*
X62119000Y-65713667D01*
X62119000Y-65526333D01*
X62155546Y-65342604D01*
X62227234Y-65169534D01*
X62331312Y-65013770D01*
X62463770Y-64881312D01*
X62619534Y-64777234D01*
X62792604Y-64705546D01*
X62976333Y-64669000D01*
X63163667Y-64669000D01*
X63347396Y-64705546D01*
X63347396Y-64705546D01*
G37*
G36*
X60807396Y-64705546D02*
X60980466Y-64777234D01*
X61136230Y-64881312D01*
X61268688Y-65013770D01*
X61372766Y-65169534D01*
X61444454Y-65342604D01*
X61481000Y-65526333D01*
X61481000Y-65713667D01*
X61444454Y-65897396D01*
X61372766Y-66070466D01*
X61268688Y-66226230D01*
X61136230Y-66358688D01*
X60980466Y-66462766D01*
X60807396Y-66534454D01*
X60623667Y-66571000D01*
X60436333Y-66571000D01*
X60252604Y-66534454D01*
X60079534Y-66462766D01*
X59923770Y-66358688D01*
X59791312Y-66226230D01*
X59687234Y-66070466D01*
X59615546Y-65897396D01*
X59579000Y-65713667D01*
X59579000Y-65526333D01*
X59615546Y-65342604D01*
X59687234Y-65169534D01*
X59791312Y-65013770D01*
X59923770Y-64881312D01*
X60079534Y-64777234D01*
X60252604Y-64705546D01*
X60436333Y-64669000D01*
X60623667Y-64669000D01*
X60807396Y-64705546D01*
X60807396Y-64705546D01*
G37*
G36*
X91085734Y-63843232D02*
X91295202Y-63929996D01*
X91483723Y-64055962D01*
X91644038Y-64216277D01*
X91770004Y-64404798D01*
X91856768Y-64614266D01*
X91901000Y-64836635D01*
X91901000Y-65063365D01*
X91856768Y-65285734D01*
X91770004Y-65495202D01*
X91644038Y-65683723D01*
X91483723Y-65844038D01*
X91295202Y-65970004D01*
X91085734Y-66056768D01*
X90863365Y-66101000D01*
X90636635Y-66101000D01*
X90414266Y-66056768D01*
X90204798Y-65970004D01*
X90016277Y-65844038D01*
X89855962Y-65683723D01*
X89729996Y-65495202D01*
X89643232Y-65285734D01*
X89599000Y-65063365D01*
X89599000Y-64836635D01*
X89643232Y-64614266D01*
X89729996Y-64404798D01*
X89855962Y-64216277D01*
X90016277Y-64055962D01*
X90204798Y-63929996D01*
X90414266Y-63843232D01*
X90636635Y-63799000D01*
X90863365Y-63799000D01*
X91085734Y-63843232D01*
X91085734Y-63843232D01*
G37*
G36*
X60807396Y-62165546D02*
X60980466Y-62237234D01*
X61136230Y-62341312D01*
X61268688Y-62473770D01*
X61372766Y-62629534D01*
X61444454Y-62802604D01*
X61481000Y-62986333D01*
X61481000Y-63173667D01*
X61444454Y-63357396D01*
X61372766Y-63530466D01*
X61268688Y-63686230D01*
X61136230Y-63818688D01*
X60980466Y-63922766D01*
X60807396Y-63994454D01*
X60623667Y-64031000D01*
X60436333Y-64031000D01*
X60252604Y-63994454D01*
X60079534Y-63922766D01*
X59923770Y-63818688D01*
X59791312Y-63686230D01*
X59687234Y-63530466D01*
X59615546Y-63357396D01*
X59579000Y-63173667D01*
X59579000Y-62986333D01*
X59615546Y-62802604D01*
X59687234Y-62629534D01*
X59791312Y-62473770D01*
X59923770Y-62341312D01*
X60079534Y-62237234D01*
X60252604Y-62165546D01*
X60436333Y-62129000D01*
X60623667Y-62129000D01*
X60807396Y-62165546D01*
X60807396Y-62165546D01*
G37*
G36*
X63347396Y-62165546D02*
X63520466Y-62237234D01*
X63676230Y-62341312D01*
X63808688Y-62473770D01*
X63912766Y-62629534D01*
X63984454Y-62802604D01*
X64021000Y-62986333D01*
X64021000Y-63173667D01*
X63984454Y-63357396D01*
X63912766Y-63530466D01*
X63808688Y-63686230D01*
X63676230Y-63818688D01*
X63520466Y-63922766D01*
X63347396Y-63994454D01*
X63163667Y-64031000D01*
X62976333Y-64031000D01*
X62792604Y-63994454D01*
X62619534Y-63922766D01*
X62463770Y-63818688D01*
X62331312Y-63686230D01*
X62227234Y-63530466D01*
X62155546Y-63357396D01*
X62119000Y-63173667D01*
X62119000Y-62986333D01*
X62155546Y-62802604D01*
X62227234Y-62629534D01*
X62331312Y-62473770D01*
X62463770Y-62341312D01*
X62619534Y-62237234D01*
X62792604Y-62165546D01*
X62976333Y-62129000D01*
X63163667Y-62129000D01*
X63347396Y-62165546D01*
X63347396Y-62165546D01*
G37*
G36*
X96085734Y-61343232D02*
X96295202Y-61429996D01*
X96483723Y-61555962D01*
X96644038Y-61716277D01*
X96770004Y-61904798D01*
X96856768Y-62114266D01*
X96901000Y-62336635D01*
X96901000Y-62563365D01*
X96856768Y-62785734D01*
X96770004Y-62995202D01*
X96644038Y-63183723D01*
X96483723Y-63344038D01*
X96295202Y-63470004D01*
X96085734Y-63556768D01*
X95863365Y-63601000D01*
X95636635Y-63601000D01*
X95414266Y-63556768D01*
X95204798Y-63470004D01*
X95016277Y-63344038D01*
X94855962Y-63183723D01*
X94729996Y-62995202D01*
X94643232Y-62785734D01*
X94599000Y-62563365D01*
X94599000Y-62336635D01*
X94643232Y-62114266D01*
X94729996Y-61904798D01*
X94855962Y-61716277D01*
X95016277Y-61555962D01*
X95204798Y-61429996D01*
X95414266Y-61343232D01*
X95636635Y-61299000D01*
X95863365Y-61299000D01*
X96085734Y-61343232D01*
X96085734Y-61343232D01*
G37*
G36*
X63347396Y-59625546D02*
X63520466Y-59697234D01*
X63676230Y-59801312D01*
X63808688Y-59933770D01*
X63912766Y-60089534D01*
X63984454Y-60262604D01*
X64021000Y-60446333D01*
X64021000Y-60633667D01*
X63984454Y-60817396D01*
X63912766Y-60990466D01*
X63808688Y-61146230D01*
X63676230Y-61278688D01*
X63520466Y-61382766D01*
X63347396Y-61454454D01*
X63163667Y-61491000D01*
X62976333Y-61491000D01*
X62792604Y-61454454D01*
X62619534Y-61382766D01*
X62463770Y-61278688D01*
X62331312Y-61146230D01*
X62227234Y-60990466D01*
X62155546Y-60817396D01*
X62119000Y-60633667D01*
X62119000Y-60446333D01*
X62155546Y-60262604D01*
X62227234Y-60089534D01*
X62331312Y-59933770D01*
X62463770Y-59801312D01*
X62619534Y-59697234D01*
X62792604Y-59625546D01*
X62976333Y-59589000D01*
X63163667Y-59589000D01*
X63347396Y-59625546D01*
X63347396Y-59625546D01*
G37*
G36*
X60807396Y-59625546D02*
X60980466Y-59697234D01*
X61136230Y-59801312D01*
X61268688Y-59933770D01*
X61372766Y-60089534D01*
X61444454Y-60262604D01*
X61481000Y-60446333D01*
X61481000Y-60633667D01*
X61444454Y-60817396D01*
X61372766Y-60990466D01*
X61268688Y-61146230D01*
X61136230Y-61278688D01*
X60980466Y-61382766D01*
X60807396Y-61454454D01*
X60623667Y-61491000D01*
X60436333Y-61491000D01*
X60252604Y-61454454D01*
X60079534Y-61382766D01*
X59923770Y-61278688D01*
X59791312Y-61146230D01*
X59687234Y-60990466D01*
X59615546Y-60817396D01*
X59579000Y-60633667D01*
X59579000Y-60446333D01*
X59615546Y-60262604D01*
X59687234Y-60089534D01*
X59791312Y-59933770D01*
X59923770Y-59801312D01*
X60079534Y-59697234D01*
X60252604Y-59625546D01*
X60436333Y-59589000D01*
X60623667Y-59589000D01*
X60807396Y-59625546D01*
X60807396Y-59625546D01*
G37*
G36*
X91085734Y-58843232D02*
X91295202Y-58929996D01*
X91483723Y-59055962D01*
X91644038Y-59216277D01*
X91770004Y-59404798D01*
X91856768Y-59614266D01*
X91901000Y-59836635D01*
X91901000Y-60063365D01*
X91856768Y-60285734D01*
X91770004Y-60495202D01*
X91644038Y-60683723D01*
X91483723Y-60844038D01*
X91295202Y-60970004D01*
X91085734Y-61056768D01*
X90863365Y-61101000D01*
X90636635Y-61101000D01*
X90414266Y-61056768D01*
X90204798Y-60970004D01*
X90016277Y-60844038D01*
X89855962Y-60683723D01*
X89729996Y-60495202D01*
X89643232Y-60285734D01*
X89599000Y-60063365D01*
X89599000Y-59836635D01*
X89643232Y-59614266D01*
X89729996Y-59404798D01*
X89855962Y-59216277D01*
X90016277Y-59055962D01*
X90204798Y-58929996D01*
X90414266Y-58843232D01*
X90636635Y-58799000D01*
X90863365Y-58799000D01*
X91085734Y-58843232D01*
X91085734Y-58843232D01*
G37*
G36*
X63347396Y-57085546D02*
X63520466Y-57157234D01*
X63676230Y-57261312D01*
X63808688Y-57393770D01*
X63912766Y-57549534D01*
X63984454Y-57722604D01*
X64021000Y-57906333D01*
X64021000Y-58093667D01*
X63984454Y-58277396D01*
X63912766Y-58450466D01*
X63808688Y-58606230D01*
X63676230Y-58738688D01*
X63520466Y-58842766D01*
X63347396Y-58914454D01*
X63163667Y-58951000D01*
X62976333Y-58951000D01*
X62792604Y-58914454D01*
X62619534Y-58842766D01*
X62463770Y-58738688D01*
X62331312Y-58606230D01*
X62227234Y-58450466D01*
X62155546Y-58277396D01*
X62119000Y-58093667D01*
X62119000Y-57906333D01*
X62155546Y-57722604D01*
X62227234Y-57549534D01*
X62331312Y-57393770D01*
X62463770Y-57261312D01*
X62619534Y-57157234D01*
X62792604Y-57085546D01*
X62976333Y-57049000D01*
X63163667Y-57049000D01*
X63347396Y-57085546D01*
X63347396Y-57085546D01*
G37*
G36*
X60807396Y-57085546D02*
X60980466Y-57157234D01*
X61136230Y-57261312D01*
X61268688Y-57393770D01*
X61372766Y-57549534D01*
X61444454Y-57722604D01*
X61481000Y-57906333D01*
X61481000Y-58093667D01*
X61444454Y-58277396D01*
X61372766Y-58450466D01*
X61268688Y-58606230D01*
X61136230Y-58738688D01*
X60980466Y-58842766D01*
X60807396Y-58914454D01*
X60623667Y-58951000D01*
X60436333Y-58951000D01*
X60252604Y-58914454D01*
X60079534Y-58842766D01*
X59923770Y-58738688D01*
X59791312Y-58606230D01*
X59687234Y-58450466D01*
X59615546Y-58277396D01*
X59579000Y-58093667D01*
X59579000Y-57906333D01*
X59615546Y-57722604D01*
X59687234Y-57549534D01*
X59791312Y-57393770D01*
X59923770Y-57261312D01*
X60079534Y-57157234D01*
X60252604Y-57085546D01*
X60436333Y-57049000D01*
X60623667Y-57049000D01*
X60807396Y-57085546D01*
X60807396Y-57085546D01*
G37*
G36*
X96085734Y-56343232D02*
X96295202Y-56429996D01*
X96483723Y-56555962D01*
X96644038Y-56716277D01*
X96770004Y-56904798D01*
X96856768Y-57114266D01*
X96901000Y-57336635D01*
X96901000Y-57563365D01*
X96856768Y-57785734D01*
X96770004Y-57995202D01*
X96644038Y-58183723D01*
X96483723Y-58344038D01*
X96295202Y-58470004D01*
X96085734Y-58556768D01*
X95863365Y-58601000D01*
X95636635Y-58601000D01*
X95414266Y-58556768D01*
X95204798Y-58470004D01*
X95016277Y-58344038D01*
X94855962Y-58183723D01*
X94729996Y-57995202D01*
X94643232Y-57785734D01*
X94599000Y-57563365D01*
X94599000Y-57336635D01*
X94643232Y-57114266D01*
X94729996Y-56904798D01*
X94855962Y-56716277D01*
X95016277Y-56555962D01*
X95204798Y-56429996D01*
X95414266Y-56343232D01*
X95636635Y-56299000D01*
X95863365Y-56299000D01*
X96085734Y-56343232D01*
X96085734Y-56343232D01*
G37*
G36*
X63347396Y-54545546D02*
X63520466Y-54617234D01*
X63676230Y-54721312D01*
X63808688Y-54853770D01*
X63912766Y-55009534D01*
X63984454Y-55182604D01*
X64021000Y-55366333D01*
X64021000Y-55553667D01*
X63984454Y-55737396D01*
X63912766Y-55910466D01*
X63808688Y-56066230D01*
X63676230Y-56198688D01*
X63520466Y-56302766D01*
X63347396Y-56374454D01*
X63163667Y-56411000D01*
X62976333Y-56411000D01*
X62792604Y-56374454D01*
X62619534Y-56302766D01*
X62463770Y-56198688D01*
X62331312Y-56066230D01*
X62227234Y-55910466D01*
X62155546Y-55737396D01*
X62119000Y-55553667D01*
X62119000Y-55366333D01*
X62155546Y-55182604D01*
X62227234Y-55009534D01*
X62331312Y-54853770D01*
X62463770Y-54721312D01*
X62619534Y-54617234D01*
X62792604Y-54545546D01*
X62976333Y-54509000D01*
X63163667Y-54509000D01*
X63347396Y-54545546D01*
X63347396Y-54545546D01*
G37*
G36*
X60807396Y-54545546D02*
X60980466Y-54617234D01*
X61136230Y-54721312D01*
X61268688Y-54853770D01*
X61372766Y-55009534D01*
X61444454Y-55182604D01*
X61481000Y-55366333D01*
X61481000Y-55553667D01*
X61444454Y-55737396D01*
X61372766Y-55910466D01*
X61268688Y-56066230D01*
X61136230Y-56198688D01*
X60980466Y-56302766D01*
X60807396Y-56374454D01*
X60623667Y-56411000D01*
X60436333Y-56411000D01*
X60252604Y-56374454D01*
X60079534Y-56302766D01*
X59923770Y-56198688D01*
X59791312Y-56066230D01*
X59687234Y-55910466D01*
X59615546Y-55737396D01*
X59579000Y-55553667D01*
X59579000Y-55366333D01*
X59615546Y-55182604D01*
X59687234Y-55009534D01*
X59791312Y-54853770D01*
X59923770Y-54721312D01*
X60079534Y-54617234D01*
X60252604Y-54545546D01*
X60436333Y-54509000D01*
X60623667Y-54509000D01*
X60807396Y-54545546D01*
X60807396Y-54545546D01*
G37*
G36*
X91085734Y-53843232D02*
X91295202Y-53929996D01*
X91483723Y-54055962D01*
X91644038Y-54216277D01*
X91770004Y-54404798D01*
X91856768Y-54614266D01*
X91901000Y-54836635D01*
X91901000Y-55063365D01*
X91856768Y-55285734D01*
X91770004Y-55495202D01*
X91644038Y-55683723D01*
X91483723Y-55844038D01*
X91295202Y-55970004D01*
X91085734Y-56056768D01*
X90863365Y-56101000D01*
X90636635Y-56101000D01*
X90414266Y-56056768D01*
X90204798Y-55970004D01*
X90016277Y-55844038D01*
X89855962Y-55683723D01*
X89729996Y-55495202D01*
X89643232Y-55285734D01*
X89599000Y-55063365D01*
X89599000Y-54836635D01*
X89643232Y-54614266D01*
X89729996Y-54404798D01*
X89855962Y-54216277D01*
X90016277Y-54055962D01*
X90204798Y-53929996D01*
X90414266Y-53843232D01*
X90636635Y-53799000D01*
X90863365Y-53799000D01*
X91085734Y-53843232D01*
X91085734Y-53843232D01*
G37*
G36*
X60807396Y-52005546D02*
X60980466Y-52077234D01*
X61136230Y-52181312D01*
X61268688Y-52313770D01*
X61372766Y-52469534D01*
X61444454Y-52642604D01*
X61481000Y-52826333D01*
X61481000Y-53013667D01*
X61444454Y-53197396D01*
X61372766Y-53370466D01*
X61268688Y-53526230D01*
X61136230Y-53658688D01*
X60980466Y-53762766D01*
X60807396Y-53834454D01*
X60623667Y-53871000D01*
X60436333Y-53871000D01*
X60252604Y-53834454D01*
X60079534Y-53762766D01*
X59923770Y-53658688D01*
X59791312Y-53526230D01*
X59687234Y-53370466D01*
X59615546Y-53197396D01*
X59579000Y-53013667D01*
X59579000Y-52826333D01*
X59615546Y-52642604D01*
X59687234Y-52469534D01*
X59791312Y-52313770D01*
X59923770Y-52181312D01*
X60079534Y-52077234D01*
X60252604Y-52005546D01*
X60436333Y-51969000D01*
X60623667Y-51969000D01*
X60807396Y-52005546D01*
X60807396Y-52005546D01*
G37*
G36*
X63347396Y-52005546D02*
X63520466Y-52077234D01*
X63676230Y-52181312D01*
X63808688Y-52313770D01*
X63912766Y-52469534D01*
X63984454Y-52642604D01*
X64021000Y-52826333D01*
X64021000Y-53013667D01*
X63984454Y-53197396D01*
X63912766Y-53370466D01*
X63808688Y-53526230D01*
X63676230Y-53658688D01*
X63520466Y-53762766D01*
X63347396Y-53834454D01*
X63163667Y-53871000D01*
X62976333Y-53871000D01*
X62792604Y-53834454D01*
X62619534Y-53762766D01*
X62463770Y-53658688D01*
X62331312Y-53526230D01*
X62227234Y-53370466D01*
X62155546Y-53197396D01*
X62119000Y-53013667D01*
X62119000Y-52826333D01*
X62155546Y-52642604D01*
X62227234Y-52469534D01*
X62331312Y-52313770D01*
X62463770Y-52181312D01*
X62619534Y-52077234D01*
X62792604Y-52005546D01*
X62976333Y-51969000D01*
X63163667Y-51969000D01*
X63347396Y-52005546D01*
X63347396Y-52005546D01*
G37*
G36*
X96085734Y-51343232D02*
X96295202Y-51429996D01*
X96483723Y-51555962D01*
X96644038Y-51716277D01*
X96770004Y-51904798D01*
X96856768Y-52114266D01*
X96901000Y-52336635D01*
X96901000Y-52563365D01*
X96856768Y-52785734D01*
X96770004Y-52995202D01*
X96644038Y-53183723D01*
X96483723Y-53344038D01*
X96295202Y-53470004D01*
X96085734Y-53556768D01*
X95863365Y-53601000D01*
X95636635Y-53601000D01*
X95414266Y-53556768D01*
X95204798Y-53470004D01*
X95016277Y-53344038D01*
X94855962Y-53183723D01*
X94729996Y-52995202D01*
X94643232Y-52785734D01*
X94599000Y-52563365D01*
X94599000Y-52336635D01*
X94643232Y-52114266D01*
X94729996Y-51904798D01*
X94855962Y-51716277D01*
X95016277Y-51555962D01*
X95204798Y-51429996D01*
X95414266Y-51343232D01*
X95636635Y-51299000D01*
X95863365Y-51299000D01*
X96085734Y-51343232D01*
X96085734Y-51343232D01*
G37*
G36*
X60807396Y-49465546D02*
X60980466Y-49537234D01*
X61136230Y-49641312D01*
X61268688Y-49773770D01*
X61372766Y-49929534D01*
X61444454Y-50102604D01*
X61481000Y-50286333D01*
X61481000Y-50473667D01*
X61444454Y-50657396D01*
X61372766Y-50830466D01*
X61268688Y-50986230D01*
X61136230Y-51118688D01*
X60980466Y-51222766D01*
X60807396Y-51294454D01*
X60623667Y-51331000D01*
X60436333Y-51331000D01*
X60252604Y-51294454D01*
X60079534Y-51222766D01*
X59923770Y-51118688D01*
X59791312Y-50986230D01*
X59687234Y-50830466D01*
X59615546Y-50657396D01*
X59579000Y-50473667D01*
X59579000Y-50286333D01*
X59615546Y-50102604D01*
X59687234Y-49929534D01*
X59791312Y-49773770D01*
X59923770Y-49641312D01*
X60079534Y-49537234D01*
X60252604Y-49465546D01*
X60436333Y-49429000D01*
X60623667Y-49429000D01*
X60807396Y-49465546D01*
X60807396Y-49465546D01*
G37*
G36*
X63347396Y-49465546D02*
X63520466Y-49537234D01*
X63676230Y-49641312D01*
X63808688Y-49773770D01*
X63912766Y-49929534D01*
X63984454Y-50102604D01*
X64021000Y-50286333D01*
X64021000Y-50473667D01*
X63984454Y-50657396D01*
X63912766Y-50830466D01*
X63808688Y-50986230D01*
X63676230Y-51118688D01*
X63520466Y-51222766D01*
X63347396Y-51294454D01*
X63163667Y-51331000D01*
X62976333Y-51331000D01*
X62792604Y-51294454D01*
X62619534Y-51222766D01*
X62463770Y-51118688D01*
X62331312Y-50986230D01*
X62227234Y-50830466D01*
X62155546Y-50657396D01*
X62119000Y-50473667D01*
X62119000Y-50286333D01*
X62155546Y-50102604D01*
X62227234Y-49929534D01*
X62331312Y-49773770D01*
X62463770Y-49641312D01*
X62619534Y-49537234D01*
X62792604Y-49465546D01*
X62976333Y-49429000D01*
X63163667Y-49429000D01*
X63347396Y-49465546D01*
X63347396Y-49465546D01*
G37*
G36*
X91085734Y-48843232D02*
X91295202Y-48929996D01*
X91483723Y-49055962D01*
X91644038Y-49216277D01*
X91770004Y-49404798D01*
X91856768Y-49614266D01*
X91901000Y-49836635D01*
X91901000Y-50063365D01*
X91856768Y-50285734D01*
X91770004Y-50495202D01*
X91644038Y-50683723D01*
X91483723Y-50844038D01*
X91295202Y-50970004D01*
X91085734Y-51056768D01*
X90863365Y-51101000D01*
X90636635Y-51101000D01*
X90414266Y-51056768D01*
X90204798Y-50970004D01*
X90016277Y-50844038D01*
X89855962Y-50683723D01*
X89729996Y-50495202D01*
X89643232Y-50285734D01*
X89599000Y-50063365D01*
X89599000Y-49836635D01*
X89643232Y-49614266D01*
X89729996Y-49404798D01*
X89855962Y-49216277D01*
X90016277Y-49055962D01*
X90204798Y-48929996D01*
X90414266Y-48843232D01*
X90636635Y-48799000D01*
X90863365Y-48799000D01*
X91085734Y-48843232D01*
X91085734Y-48843232D01*
G37*
G36*
X63347396Y-46925546D02*
X63520466Y-46997234D01*
X63676230Y-47101312D01*
X63808688Y-47233770D01*
X63912766Y-47389534D01*
X63984454Y-47562604D01*
X64021000Y-47746333D01*
X64021000Y-47933667D01*
X63984454Y-48117396D01*
X63912766Y-48290466D01*
X63808688Y-48446230D01*
X63676230Y-48578688D01*
X63520466Y-48682766D01*
X63347396Y-48754454D01*
X63163667Y-48791000D01*
X62976333Y-48791000D01*
X62792604Y-48754454D01*
X62619534Y-48682766D01*
X62463770Y-48578688D01*
X62331312Y-48446230D01*
X62227234Y-48290466D01*
X62155546Y-48117396D01*
X62119000Y-47933667D01*
X62119000Y-47746333D01*
X62155546Y-47562604D01*
X62227234Y-47389534D01*
X62331312Y-47233770D01*
X62463770Y-47101312D01*
X62619534Y-46997234D01*
X62792604Y-46925546D01*
X62976333Y-46889000D01*
X63163667Y-46889000D01*
X63347396Y-46925546D01*
X63347396Y-46925546D01*
G37*
G36*
X60807396Y-46925546D02*
X60980466Y-46997234D01*
X61136230Y-47101312D01*
X61268688Y-47233770D01*
X61372766Y-47389534D01*
X61444454Y-47562604D01*
X61481000Y-47746333D01*
X61481000Y-47933667D01*
X61444454Y-48117396D01*
X61372766Y-48290466D01*
X61268688Y-48446230D01*
X61136230Y-48578688D01*
X60980466Y-48682766D01*
X60807396Y-48754454D01*
X60623667Y-48791000D01*
X60436333Y-48791000D01*
X60252604Y-48754454D01*
X60079534Y-48682766D01*
X59923770Y-48578688D01*
X59791312Y-48446230D01*
X59687234Y-48290466D01*
X59615546Y-48117396D01*
X59579000Y-47933667D01*
X59579000Y-47746333D01*
X59615546Y-47562604D01*
X59687234Y-47389534D01*
X59791312Y-47233770D01*
X59923770Y-47101312D01*
X60079534Y-46997234D01*
X60252604Y-46925546D01*
X60436333Y-46889000D01*
X60623667Y-46889000D01*
X60807396Y-46925546D01*
X60807396Y-46925546D01*
G37*
G36*
X96085734Y-46343232D02*
X96295202Y-46429996D01*
X96483723Y-46555962D01*
X96644038Y-46716277D01*
X96770004Y-46904798D01*
X96856768Y-47114266D01*
X96901000Y-47336635D01*
X96901000Y-47563365D01*
X96856768Y-47785734D01*
X96770004Y-47995202D01*
X96644038Y-48183723D01*
X96483723Y-48344038D01*
X96295202Y-48470004D01*
X96085734Y-48556768D01*
X95863365Y-48601000D01*
X95636635Y-48601000D01*
X95414266Y-48556768D01*
X95204798Y-48470004D01*
X95016277Y-48344038D01*
X94855962Y-48183723D01*
X94729996Y-47995202D01*
X94643232Y-47785734D01*
X94599000Y-47563365D01*
X94599000Y-47336635D01*
X94643232Y-47114266D01*
X94729996Y-46904798D01*
X94855962Y-46716277D01*
X95016277Y-46555962D01*
X95204798Y-46429996D01*
X95414266Y-46343232D01*
X95636635Y-46299000D01*
X95863365Y-46299000D01*
X96085734Y-46343232D01*
X96085734Y-46343232D01*
G37*
G36*
X63347396Y-44385546D02*
X63520466Y-44457234D01*
X63676230Y-44561312D01*
X63808688Y-44693770D01*
X63912766Y-44849534D01*
X63984454Y-45022604D01*
X64021000Y-45206333D01*
X64021000Y-45393667D01*
X63984454Y-45577396D01*
X63912766Y-45750466D01*
X63808688Y-45906230D01*
X63676230Y-46038688D01*
X63520466Y-46142766D01*
X63347396Y-46214454D01*
X63163667Y-46251000D01*
X62976333Y-46251000D01*
X62792604Y-46214454D01*
X62619534Y-46142766D01*
X62463770Y-46038688D01*
X62331312Y-45906230D01*
X62227234Y-45750466D01*
X62155546Y-45577396D01*
X62119000Y-45393667D01*
X62119000Y-45206333D01*
X62155546Y-45022604D01*
X62227234Y-44849534D01*
X62331312Y-44693770D01*
X62463770Y-44561312D01*
X62619534Y-44457234D01*
X62792604Y-44385546D01*
X62976333Y-44349000D01*
X63163667Y-44349000D01*
X63347396Y-44385546D01*
X63347396Y-44385546D01*
G37*
G36*
X60807396Y-44385546D02*
X60980466Y-44457234D01*
X61136230Y-44561312D01*
X61268688Y-44693770D01*
X61372766Y-44849534D01*
X61444454Y-45022604D01*
X61481000Y-45206333D01*
X61481000Y-45393667D01*
X61444454Y-45577396D01*
X61372766Y-45750466D01*
X61268688Y-45906230D01*
X61136230Y-46038688D01*
X60980466Y-46142766D01*
X60807396Y-46214454D01*
X60623667Y-46251000D01*
X60436333Y-46251000D01*
X60252604Y-46214454D01*
X60079534Y-46142766D01*
X59923770Y-46038688D01*
X59791312Y-45906230D01*
X59687234Y-45750466D01*
X59615546Y-45577396D01*
X59579000Y-45393667D01*
X59579000Y-45206333D01*
X59615546Y-45022604D01*
X59687234Y-44849534D01*
X59791312Y-44693770D01*
X59923770Y-44561312D01*
X60079534Y-44457234D01*
X60252604Y-44385546D01*
X60436333Y-44349000D01*
X60623667Y-44349000D01*
X60807396Y-44385546D01*
X60807396Y-44385546D01*
G37*
G36*
X98488252Y-40007818D02*
X98488254Y-40007819D01*
X98488255Y-40007819D01*
X98861513Y-40162427D01*
X98861514Y-40162428D01*
X99197439Y-40386886D01*
X99483114Y-40672561D01*
X99483116Y-40672564D01*
X99707573Y-41008487D01*
X99862181Y-41381745D01*
X99941000Y-41777994D01*
X99941000Y-42182006D01*
X99862181Y-42578255D01*
X99707573Y-42951513D01*
X99707572Y-42951514D01*
X99483114Y-43287439D01*
X99197439Y-43573114D01*
X99197436Y-43573116D01*
X98861513Y-43797573D01*
X98488255Y-43952181D01*
X98488254Y-43952181D01*
X98488252Y-43952182D01*
X98092007Y-44031000D01*
X97687993Y-44031000D01*
X97291748Y-43952182D01*
X97291746Y-43952181D01*
X97291745Y-43952181D01*
X96918487Y-43797573D01*
X96582564Y-43573116D01*
X96582561Y-43573114D01*
X96296886Y-43287439D01*
X96072428Y-42951514D01*
X96072427Y-42951513D01*
X95917819Y-42578255D01*
X95839000Y-42182006D01*
X95839000Y-41777994D01*
X95917819Y-41381745D01*
X96072427Y-41008487D01*
X96296884Y-40672564D01*
X96296886Y-40672561D01*
X96582561Y-40386886D01*
X96918486Y-40162428D01*
X96918487Y-40162427D01*
X97291745Y-40007819D01*
X97291746Y-40007819D01*
X97291748Y-40007818D01*
X97687993Y-39929000D01*
X98092007Y-39929000D01*
X98488252Y-40007818D01*
X98488252Y-40007818D01*
G37*
G36*
X98488252Y-35007818D02*
X98488254Y-35007819D01*
X98488255Y-35007819D01*
X98861513Y-35162427D01*
X99192905Y-35383857D01*
X99197439Y-35386886D01*
X99483114Y-35672561D01*
X99483116Y-35672564D01*
X99707573Y-36008487D01*
X99812649Y-36262164D01*
X99862182Y-36381748D01*
X99941000Y-36777993D01*
X99941000Y-37182007D01*
X99862650Y-37575901D01*
X99862181Y-37578255D01*
X99707573Y-37951513D01*
X99707572Y-37951514D01*
X99483114Y-38287439D01*
X99197439Y-38573114D01*
X99197436Y-38573116D01*
X98861513Y-38797573D01*
X98488255Y-38952181D01*
X98488254Y-38952181D01*
X98488252Y-38952182D01*
X98092007Y-39031000D01*
X97687993Y-39031000D01*
X97291748Y-38952182D01*
X97291746Y-38952181D01*
X97291745Y-38952181D01*
X96918487Y-38797573D01*
X96582564Y-38573116D01*
X96582561Y-38573114D01*
X96296886Y-38287439D01*
X96072428Y-37951514D01*
X96072427Y-37951513D01*
X95917819Y-37578255D01*
X95917351Y-37575901D01*
X95839000Y-37182007D01*
X95839000Y-36777993D01*
X95917818Y-36381748D01*
X95967351Y-36262164D01*
X96072427Y-36008487D01*
X96296884Y-35672564D01*
X96296886Y-35672561D01*
X96582561Y-35386886D01*
X96587095Y-35383857D01*
X96918487Y-35162427D01*
X97291745Y-35007819D01*
X97291746Y-35007819D01*
X97291748Y-35007818D01*
X97687993Y-34929000D01*
X98092007Y-34929000D01*
X98488252Y-35007818D01*
X98488252Y-35007818D01*
G37*
G36*
X61798384Y-34929000D02*
X61987826Y-34966682D01*
X62087136Y-35007818D01*
X62260989Y-35079830D01*
X62506835Y-35244099D01*
X62715901Y-35453165D01*
X62880170Y-35699011D01*
X62946450Y-35859026D01*
X62993318Y-35972174D01*
X63051000Y-36262164D01*
X63051000Y-36557836D01*
X63007209Y-36777993D01*
X62993318Y-36847825D01*
X62880170Y-37120989D01*
X62715901Y-37366835D01*
X62506835Y-37575901D01*
X62260989Y-37740170D01*
X62100974Y-37806450D01*
X61987826Y-37853318D01*
X61842831Y-37882159D01*
X61697837Y-37911000D01*
X61402163Y-37911000D01*
X61257169Y-37882159D01*
X61112174Y-37853318D01*
X60999026Y-37806450D01*
X60839011Y-37740170D01*
X60593165Y-37575901D01*
X60384099Y-37366835D01*
X60219830Y-37120989D01*
X60106682Y-36847825D01*
X60092792Y-36777993D01*
X60049000Y-36557836D01*
X60049000Y-36262164D01*
X60106682Y-35972174D01*
X60153550Y-35859026D01*
X60219830Y-35699011D01*
X60384099Y-35453165D01*
X60593165Y-35244099D01*
X60839011Y-35079830D01*
X61012864Y-35007818D01*
X61112174Y-34966682D01*
X61301616Y-34929000D01*
X61402163Y-34909000D01*
X61697837Y-34909000D01*
X61798384Y-34929000D01*
X61798384Y-34929000D01*
G37*
G36*
X56035786Y-23585462D02*
X56035788Y-23585463D01*
X56035789Y-23585463D01*
X56682029Y-23853144D01*
X56682030Y-23853145D01*
X57263634Y-24241760D01*
X57758240Y-24736366D01*
X57758242Y-24736369D01*
X58146856Y-25317971D01*
X58414537Y-25964211D01*
X58551000Y-26650257D01*
X58551000Y-27349743D01*
X58414537Y-28035789D01*
X58146856Y-28682029D01*
X58146855Y-28682030D01*
X57758240Y-29263634D01*
X57263634Y-29758240D01*
X57263631Y-29758242D01*
X56682029Y-30146856D01*
X56035789Y-30414537D01*
X56035788Y-30414537D01*
X56035786Y-30414538D01*
X55349744Y-30551000D01*
X54650256Y-30551000D01*
X53964214Y-30414538D01*
X53964212Y-30414537D01*
X53964211Y-30414537D01*
X53317971Y-30146856D01*
X52736369Y-29758242D01*
X52736366Y-29758240D01*
X52241760Y-29263634D01*
X51853145Y-28682030D01*
X51853144Y-28682029D01*
X51585463Y-28035789D01*
X51449000Y-27349743D01*
X51449000Y-26650257D01*
X51585463Y-25964211D01*
X51853144Y-25317971D01*
X52241758Y-24736369D01*
X52241760Y-24736366D01*
X52736366Y-24241760D01*
X53317970Y-23853145D01*
X53317971Y-23853144D01*
X53964211Y-23585463D01*
X53964212Y-23585463D01*
X53964214Y-23585462D01*
X54650256Y-23449000D01*
X55349744Y-23449000D01*
X56035786Y-23585462D01*
X56035786Y-23585462D01*
G37*
G36*
X105035786Y-23585462D02*
X105035788Y-23585463D01*
X105035789Y-23585463D01*
X105682029Y-23853144D01*
X105682030Y-23853145D01*
X106263634Y-24241760D01*
X106758240Y-24736366D01*
X106758242Y-24736369D01*
X107146856Y-25317971D01*
X107414537Y-25964211D01*
X107551000Y-26650257D01*
X107551000Y-27349743D01*
X107414537Y-28035789D01*
X107146856Y-28682029D01*
X107146855Y-28682030D01*
X106758240Y-29263634D01*
X106263634Y-29758240D01*
X106263631Y-29758242D01*
X105682029Y-30146856D01*
X105035789Y-30414537D01*
X105035788Y-30414537D01*
X105035786Y-30414538D01*
X104349744Y-30551000D01*
X103650256Y-30551000D01*
X102964214Y-30414538D01*
X102964212Y-30414537D01*
X102964211Y-30414537D01*
X102317971Y-30146856D01*
X101736369Y-29758242D01*
X101736366Y-29758240D01*
X101241760Y-29263634D01*
X100853145Y-28682030D01*
X100853144Y-28682029D01*
X100585463Y-28035789D01*
X100449000Y-27349743D01*
X100449000Y-26650257D01*
X100585463Y-25964211D01*
X100853144Y-25317971D01*
X101241758Y-24736369D01*
X101241760Y-24736366D01*
X101736366Y-24241760D01*
X102317970Y-23853145D01*
X102317971Y-23853144D01*
X102964211Y-23585463D01*
X102964212Y-23585463D01*
X102964214Y-23585462D01*
X103650256Y-23449000D01*
X104349744Y-23449000D01*
X105035786Y-23585462D01*
X105035786Y-23585462D01*
G37*
M02*
