G04 #@! TF.GenerationSoftware,KiCad,Pcbnew,5.0.2-bee76a0~70~ubuntu18.04.1*
G04 #@! TF.CreationDate,2019-06-11T19:18:52-05:00*
G04 #@! TF.ProjectId,ADAPTER_BOARD,41444150-5445-4525-9f42-4f4152442e6b,rev?*
G04 #@! TF.SameCoordinates,Original*
G04 #@! TF.FileFunction,Soldermask,Top*
G04 #@! TF.FilePolarity,Negative*
%FSLAX46Y46*%
G04 Gerber Fmt 4.6, Leading zero omitted, Abs format (unit mm)*
G04 Created by KiCad (PCBNEW 5.0.2-bee76a0~70~ubuntu18.04.1) date Tue 11 Jun 2019 07:18:52 PM CDT*
%MOMM*%
%LPD*%
G01*
G04 APERTURE LIST*
%ADD10C,0.100000*%
G04 APERTURE END LIST*
D10*
G36*
X105035786Y-121585462D02*
X105035788Y-121585463D01*
X105035789Y-121585463D01*
X105682029Y-121853144D01*
X105682030Y-121853145D01*
X106263634Y-122241760D01*
X106758240Y-122736366D01*
X106758242Y-122736369D01*
X107146856Y-123317971D01*
X107414537Y-123964211D01*
X107551000Y-124650257D01*
X107551000Y-125349743D01*
X107414537Y-126035789D01*
X107146856Y-126682029D01*
X107146855Y-126682030D01*
X106758240Y-127263634D01*
X106263634Y-127758240D01*
X106263631Y-127758242D01*
X105682029Y-128146856D01*
X105035789Y-128414537D01*
X105035788Y-128414537D01*
X105035786Y-128414538D01*
X104349744Y-128551000D01*
X103650256Y-128551000D01*
X102964214Y-128414538D01*
X102964212Y-128414537D01*
X102964211Y-128414537D01*
X102317971Y-128146856D01*
X101736369Y-127758242D01*
X101736366Y-127758240D01*
X101241760Y-127263634D01*
X100853145Y-126682030D01*
X100853144Y-126682029D01*
X100585463Y-126035789D01*
X100449000Y-125349743D01*
X100449000Y-124650257D01*
X100585463Y-123964211D01*
X100853144Y-123317971D01*
X101241758Y-122736369D01*
X101241760Y-122736366D01*
X101736366Y-122241760D01*
X102317970Y-121853145D01*
X102317971Y-121853144D01*
X102964211Y-121585463D01*
X102964212Y-121585463D01*
X102964214Y-121585462D01*
X103650256Y-121449000D01*
X104349744Y-121449000D01*
X105035786Y-121585462D01*
X105035786Y-121585462D01*
G37*
G36*
X56035786Y-121585462D02*
X56035788Y-121585463D01*
X56035789Y-121585463D01*
X56682029Y-121853144D01*
X56682030Y-121853145D01*
X57263634Y-122241760D01*
X57758240Y-122736366D01*
X57758242Y-122736369D01*
X58146856Y-123317971D01*
X58414537Y-123964211D01*
X58551000Y-124650257D01*
X58551000Y-125349743D01*
X58414537Y-126035789D01*
X58146856Y-126682029D01*
X58146855Y-126682030D01*
X57758240Y-127263634D01*
X57263634Y-127758240D01*
X57263631Y-127758242D01*
X56682029Y-128146856D01*
X56035789Y-128414537D01*
X56035788Y-128414537D01*
X56035786Y-128414538D01*
X55349744Y-128551000D01*
X54650256Y-128551000D01*
X53964214Y-128414538D01*
X53964212Y-128414537D01*
X53964211Y-128414537D01*
X53317971Y-128146856D01*
X52736369Y-127758242D01*
X52736366Y-127758240D01*
X52241760Y-127263634D01*
X51853145Y-126682030D01*
X51853144Y-126682029D01*
X51585463Y-126035789D01*
X51449000Y-125349743D01*
X51449000Y-124650257D01*
X51585463Y-123964211D01*
X51853144Y-123317971D01*
X52241758Y-122736369D01*
X52241760Y-122736366D01*
X52736366Y-122241760D01*
X53317970Y-121853145D01*
X53317971Y-121853144D01*
X53964211Y-121585463D01*
X53964212Y-121585463D01*
X53964214Y-121585462D01*
X54650256Y-121449000D01*
X55349744Y-121449000D01*
X56035786Y-121585462D01*
X56035786Y-121585462D01*
G37*
G36*
X102184466Y-118503565D02*
X102223137Y-118515296D01*
X102258779Y-118534348D01*
X102290017Y-118559983D01*
X102315652Y-118591221D01*
X102334704Y-118626863D01*
X102346435Y-118665534D01*
X102351000Y-118711888D01*
X102351000Y-119788112D01*
X102346435Y-119834466D01*
X102334704Y-119873137D01*
X102315652Y-119908779D01*
X102290017Y-119940017D01*
X102258779Y-119965652D01*
X102223137Y-119984704D01*
X102184466Y-119996435D01*
X102138112Y-120001000D01*
X101486888Y-120001000D01*
X101440534Y-119996435D01*
X101401863Y-119984704D01*
X101366221Y-119965652D01*
X101334983Y-119940017D01*
X101309348Y-119908779D01*
X101290296Y-119873137D01*
X101278565Y-119834466D01*
X101274000Y-119788112D01*
X101274000Y-118711888D01*
X101278565Y-118665534D01*
X101290296Y-118626863D01*
X101309348Y-118591221D01*
X101334983Y-118559983D01*
X101366221Y-118534348D01*
X101401863Y-118515296D01*
X101440534Y-118503565D01*
X101486888Y-118499000D01*
X102138112Y-118499000D01*
X102184466Y-118503565D01*
X102184466Y-118503565D01*
G37*
G36*
X104059466Y-118503565D02*
X104098137Y-118515296D01*
X104133779Y-118534348D01*
X104165017Y-118559983D01*
X104190652Y-118591221D01*
X104209704Y-118626863D01*
X104221435Y-118665534D01*
X104226000Y-118711888D01*
X104226000Y-119788112D01*
X104221435Y-119834466D01*
X104209704Y-119873137D01*
X104190652Y-119908779D01*
X104165017Y-119940017D01*
X104133779Y-119965652D01*
X104098137Y-119984704D01*
X104059466Y-119996435D01*
X104013112Y-120001000D01*
X103361888Y-120001000D01*
X103315534Y-119996435D01*
X103276863Y-119984704D01*
X103241221Y-119965652D01*
X103209983Y-119940017D01*
X103184348Y-119908779D01*
X103165296Y-119873137D01*
X103153565Y-119834466D01*
X103149000Y-119788112D01*
X103149000Y-118711888D01*
X103153565Y-118665534D01*
X103165296Y-118626863D01*
X103184348Y-118591221D01*
X103209983Y-118559983D01*
X103241221Y-118534348D01*
X103276863Y-118515296D01*
X103315534Y-118503565D01*
X103361888Y-118499000D01*
X104013112Y-118499000D01*
X104059466Y-118503565D01*
X104059466Y-118503565D01*
G37*
G36*
X81464466Y-118253565D02*
X81503137Y-118265296D01*
X81538779Y-118284348D01*
X81570017Y-118309983D01*
X81595652Y-118341221D01*
X81614704Y-118376863D01*
X81626435Y-118415534D01*
X81631000Y-118461888D01*
X81631000Y-119538112D01*
X81626435Y-119584466D01*
X81614704Y-119623137D01*
X81595652Y-119658779D01*
X81570017Y-119690017D01*
X81538779Y-119715652D01*
X81503137Y-119734704D01*
X81464466Y-119746435D01*
X81418112Y-119751000D01*
X80766888Y-119751000D01*
X80720534Y-119746435D01*
X80681863Y-119734704D01*
X80646221Y-119715652D01*
X80614983Y-119690017D01*
X80589348Y-119658779D01*
X80570296Y-119623137D01*
X80558565Y-119584466D01*
X80554000Y-119538112D01*
X80554000Y-118461888D01*
X80558565Y-118415534D01*
X80570296Y-118376863D01*
X80589348Y-118341221D01*
X80614983Y-118309983D01*
X80646221Y-118284348D01*
X80681863Y-118265296D01*
X80720534Y-118253565D01*
X80766888Y-118249000D01*
X81418112Y-118249000D01*
X81464466Y-118253565D01*
X81464466Y-118253565D01*
G37*
G36*
X83339466Y-118253565D02*
X83378137Y-118265296D01*
X83413779Y-118284348D01*
X83445017Y-118309983D01*
X83470652Y-118341221D01*
X83489704Y-118376863D01*
X83501435Y-118415534D01*
X83506000Y-118461888D01*
X83506000Y-119538112D01*
X83501435Y-119584466D01*
X83489704Y-119623137D01*
X83470652Y-119658779D01*
X83445017Y-119690017D01*
X83413779Y-119715652D01*
X83378137Y-119734704D01*
X83339466Y-119746435D01*
X83293112Y-119751000D01*
X82641888Y-119751000D01*
X82595534Y-119746435D01*
X82556863Y-119734704D01*
X82521221Y-119715652D01*
X82489983Y-119690017D01*
X82464348Y-119658779D01*
X82445296Y-119623137D01*
X82433565Y-119584466D01*
X82429000Y-119538112D01*
X82429000Y-118461888D01*
X82433565Y-118415534D01*
X82445296Y-118376863D01*
X82464348Y-118341221D01*
X82489983Y-118309983D01*
X82521221Y-118284348D01*
X82556863Y-118265296D01*
X82595534Y-118253565D01*
X82641888Y-118249000D01*
X83293112Y-118249000D01*
X83339466Y-118253565D01*
X83339466Y-118253565D01*
G37*
G36*
X91035734Y-115843232D02*
X91245202Y-115929996D01*
X91433723Y-116055962D01*
X91594038Y-116216277D01*
X91720004Y-116404798D01*
X91806768Y-116614266D01*
X91851000Y-116836635D01*
X91851000Y-117063365D01*
X91806768Y-117285734D01*
X91720004Y-117495202D01*
X91594038Y-117683723D01*
X91433723Y-117844038D01*
X91245202Y-117970004D01*
X91035734Y-118056768D01*
X90813365Y-118101000D01*
X90586635Y-118101000D01*
X90364266Y-118056768D01*
X90154798Y-117970004D01*
X89966277Y-117844038D01*
X89805962Y-117683723D01*
X89679996Y-117495202D01*
X89593232Y-117285734D01*
X89549000Y-117063365D01*
X89549000Y-116836635D01*
X89593232Y-116614266D01*
X89679996Y-116404798D01*
X89805962Y-116216277D01*
X89966277Y-116055962D01*
X90154798Y-115929996D01*
X90364266Y-115843232D01*
X90586635Y-115799000D01*
X90813365Y-115799000D01*
X91035734Y-115843232D01*
X91035734Y-115843232D01*
G37*
G36*
X83551000Y-117564404D02*
X82549000Y-117564404D01*
X82549000Y-116662404D01*
X83551000Y-116662404D01*
X83551000Y-117564404D01*
X83551000Y-117564404D01*
G37*
G36*
X102184466Y-115730835D02*
X102223137Y-115742566D01*
X102258779Y-115761618D01*
X102290017Y-115787253D01*
X102315652Y-115818491D01*
X102334704Y-115854133D01*
X102346435Y-115892804D01*
X102351000Y-115939158D01*
X102351000Y-117015382D01*
X102346435Y-117061736D01*
X102334704Y-117100407D01*
X102315652Y-117136049D01*
X102290017Y-117167287D01*
X102258779Y-117192922D01*
X102223137Y-117211974D01*
X102184466Y-117223705D01*
X102138112Y-117228270D01*
X101486888Y-117228270D01*
X101440534Y-117223705D01*
X101401863Y-117211974D01*
X101366221Y-117192922D01*
X101334983Y-117167287D01*
X101309348Y-117136049D01*
X101290296Y-117100407D01*
X101278565Y-117061736D01*
X101274000Y-117015382D01*
X101274000Y-115939158D01*
X101278565Y-115892804D01*
X101290296Y-115854133D01*
X101309348Y-115818491D01*
X101334983Y-115787253D01*
X101366221Y-115761618D01*
X101401863Y-115742566D01*
X101440534Y-115730835D01*
X101486888Y-115726270D01*
X102138112Y-115726270D01*
X102184466Y-115730835D01*
X102184466Y-115730835D01*
G37*
G36*
X104059466Y-115730835D02*
X104098137Y-115742566D01*
X104133779Y-115761618D01*
X104165017Y-115787253D01*
X104190652Y-115818491D01*
X104209704Y-115854133D01*
X104221435Y-115892804D01*
X104226000Y-115939158D01*
X104226000Y-117015382D01*
X104221435Y-117061736D01*
X104209704Y-117100407D01*
X104190652Y-117136049D01*
X104165017Y-117167287D01*
X104133779Y-117192922D01*
X104098137Y-117211974D01*
X104059466Y-117223705D01*
X104013112Y-117228270D01*
X103361888Y-117228270D01*
X103315534Y-117223705D01*
X103276863Y-117211974D01*
X103241221Y-117192922D01*
X103209983Y-117167287D01*
X103184348Y-117136049D01*
X103165296Y-117100407D01*
X103153565Y-117061736D01*
X103149000Y-117015382D01*
X103149000Y-115939158D01*
X103153565Y-115892804D01*
X103165296Y-115854133D01*
X103184348Y-115818491D01*
X103209983Y-115787253D01*
X103241221Y-115761618D01*
X103276863Y-115742566D01*
X103315534Y-115730835D01*
X103361888Y-115726270D01*
X104013112Y-115726270D01*
X104059466Y-115730835D01*
X104059466Y-115730835D01*
G37*
G36*
X81551000Y-116614404D02*
X80549000Y-116614404D01*
X80549000Y-115712404D01*
X81551000Y-115712404D01*
X81551000Y-116614404D01*
X81551000Y-116614404D01*
G37*
G36*
X61842831Y-113637841D02*
X61987826Y-113666682D01*
X62100974Y-113713550D01*
X62260989Y-113779830D01*
X62506835Y-113944099D01*
X62715901Y-114153165D01*
X62880170Y-114399011D01*
X62993318Y-114672175D01*
X63051000Y-114962163D01*
X63051000Y-115257837D01*
X62993318Y-115547825D01*
X62880170Y-115820989D01*
X62715901Y-116066835D01*
X62506835Y-116275901D01*
X62260989Y-116440170D01*
X62100974Y-116506450D01*
X61987826Y-116553318D01*
X61842831Y-116582159D01*
X61697837Y-116611000D01*
X61402163Y-116611000D01*
X61257169Y-116582159D01*
X61112174Y-116553318D01*
X60999026Y-116506450D01*
X60839011Y-116440170D01*
X60593165Y-116275901D01*
X60384099Y-116066835D01*
X60219830Y-115820989D01*
X60106682Y-115547825D01*
X60049000Y-115257837D01*
X60049000Y-114962163D01*
X60106682Y-114672175D01*
X60219830Y-114399011D01*
X60384099Y-114153165D01*
X60593165Y-113944099D01*
X60839011Y-113779830D01*
X60999026Y-113713550D01*
X61112174Y-113666682D01*
X61257169Y-113637841D01*
X61402163Y-113609000D01*
X61697837Y-113609000D01*
X61842831Y-113637841D01*
X61842831Y-113637841D01*
G37*
G36*
X83551000Y-115664404D02*
X82549000Y-115664404D01*
X82549000Y-114762404D01*
X83551000Y-114762404D01*
X83551000Y-115664404D01*
X83551000Y-115664404D01*
G37*
G36*
X96035734Y-113343232D02*
X96245202Y-113429996D01*
X96433723Y-113555962D01*
X96594038Y-113716277D01*
X96720004Y-113904798D01*
X96806768Y-114114266D01*
X96851000Y-114336635D01*
X96851000Y-114563365D01*
X96806768Y-114785734D01*
X96720004Y-114995202D01*
X96594038Y-115183723D01*
X96433723Y-115344038D01*
X96245202Y-115470004D01*
X96035734Y-115556768D01*
X95813365Y-115601000D01*
X95586635Y-115601000D01*
X95364266Y-115556768D01*
X95154798Y-115470004D01*
X94966277Y-115344038D01*
X94805962Y-115183723D01*
X94679996Y-114995202D01*
X94593232Y-114785734D01*
X94549000Y-114563365D01*
X94549000Y-114336635D01*
X94593232Y-114114266D01*
X94679996Y-113904798D01*
X94805962Y-113716277D01*
X94966277Y-113555962D01*
X95154798Y-113429996D01*
X95364266Y-113343232D01*
X95586635Y-113299000D01*
X95813365Y-113299000D01*
X96035734Y-113343232D01*
X96035734Y-113343232D01*
G37*
G36*
X102184466Y-112958108D02*
X102223137Y-112969839D01*
X102258779Y-112988891D01*
X102290017Y-113014526D01*
X102315652Y-113045764D01*
X102334704Y-113081406D01*
X102346435Y-113120077D01*
X102351000Y-113166431D01*
X102351000Y-114242655D01*
X102346435Y-114289009D01*
X102334704Y-114327680D01*
X102315652Y-114363322D01*
X102290017Y-114394560D01*
X102258779Y-114420195D01*
X102223137Y-114439247D01*
X102184466Y-114450978D01*
X102138112Y-114455543D01*
X101486888Y-114455543D01*
X101440534Y-114450978D01*
X101401863Y-114439247D01*
X101366221Y-114420195D01*
X101334983Y-114394560D01*
X101309348Y-114363322D01*
X101290296Y-114327680D01*
X101278565Y-114289009D01*
X101274000Y-114242655D01*
X101274000Y-113166431D01*
X101278565Y-113120077D01*
X101290296Y-113081406D01*
X101309348Y-113045764D01*
X101334983Y-113014526D01*
X101366221Y-112988891D01*
X101401863Y-112969839D01*
X101440534Y-112958108D01*
X101486888Y-112953543D01*
X102138112Y-112953543D01*
X102184466Y-112958108D01*
X102184466Y-112958108D01*
G37*
G36*
X104059466Y-112958108D02*
X104098137Y-112969839D01*
X104133779Y-112988891D01*
X104165017Y-113014526D01*
X104190652Y-113045764D01*
X104209704Y-113081406D01*
X104221435Y-113120077D01*
X104226000Y-113166431D01*
X104226000Y-114242655D01*
X104221435Y-114289009D01*
X104209704Y-114327680D01*
X104190652Y-114363322D01*
X104165017Y-114394560D01*
X104133779Y-114420195D01*
X104098137Y-114439247D01*
X104059466Y-114450978D01*
X104013112Y-114455543D01*
X103361888Y-114455543D01*
X103315534Y-114450978D01*
X103276863Y-114439247D01*
X103241221Y-114420195D01*
X103209983Y-114394560D01*
X103184348Y-114363322D01*
X103165296Y-114327680D01*
X103153565Y-114289009D01*
X103149000Y-114242655D01*
X103149000Y-113166431D01*
X103153565Y-113120077D01*
X103165296Y-113081406D01*
X103184348Y-113045764D01*
X103209983Y-113014526D01*
X103241221Y-112988891D01*
X103276863Y-112969839D01*
X103315534Y-112958108D01*
X103361888Y-112953543D01*
X104013112Y-112953543D01*
X104059466Y-112958108D01*
X104059466Y-112958108D01*
G37*
G36*
X83339466Y-112553565D02*
X83378137Y-112565296D01*
X83413779Y-112584348D01*
X83445017Y-112609983D01*
X83470652Y-112641221D01*
X83489704Y-112676863D01*
X83501435Y-112715534D01*
X83506000Y-112761888D01*
X83506000Y-113838112D01*
X83501435Y-113884466D01*
X83489704Y-113923137D01*
X83470652Y-113958779D01*
X83445017Y-113990017D01*
X83413779Y-114015652D01*
X83378137Y-114034704D01*
X83339466Y-114046435D01*
X83293112Y-114051000D01*
X82641888Y-114051000D01*
X82595534Y-114046435D01*
X82556863Y-114034704D01*
X82521221Y-114015652D01*
X82489983Y-113990017D01*
X82464348Y-113958779D01*
X82445296Y-113923137D01*
X82433565Y-113884466D01*
X82429000Y-113838112D01*
X82429000Y-112761888D01*
X82433565Y-112715534D01*
X82445296Y-112676863D01*
X82464348Y-112641221D01*
X82489983Y-112609983D01*
X82521221Y-112584348D01*
X82556863Y-112565296D01*
X82595534Y-112553565D01*
X82641888Y-112549000D01*
X83293112Y-112549000D01*
X83339466Y-112553565D01*
X83339466Y-112553565D01*
G37*
G36*
X81464466Y-112553565D02*
X81503137Y-112565296D01*
X81538779Y-112584348D01*
X81570017Y-112609983D01*
X81595652Y-112641221D01*
X81614704Y-112676863D01*
X81626435Y-112715534D01*
X81631000Y-112761888D01*
X81631000Y-113838112D01*
X81626435Y-113884466D01*
X81614704Y-113923137D01*
X81595652Y-113958779D01*
X81570017Y-113990017D01*
X81538779Y-114015652D01*
X81503137Y-114034704D01*
X81464466Y-114046435D01*
X81418112Y-114051000D01*
X80766888Y-114051000D01*
X80720534Y-114046435D01*
X80681863Y-114034704D01*
X80646221Y-114015652D01*
X80614983Y-113990017D01*
X80589348Y-113958779D01*
X80570296Y-113923137D01*
X80558565Y-113884466D01*
X80554000Y-113838112D01*
X80554000Y-112761888D01*
X80558565Y-112715534D01*
X80570296Y-112676863D01*
X80589348Y-112641221D01*
X80614983Y-112609983D01*
X80646221Y-112584348D01*
X80681863Y-112565296D01*
X80720534Y-112553565D01*
X80766888Y-112549000D01*
X81418112Y-112549000D01*
X81464466Y-112553565D01*
X81464466Y-112553565D01*
G37*
G36*
X91035734Y-110843232D02*
X91245202Y-110929996D01*
X91433723Y-111055962D01*
X91594038Y-111216277D01*
X91720004Y-111404798D01*
X91806768Y-111614266D01*
X91851000Y-111836635D01*
X91851000Y-112063365D01*
X91806768Y-112285734D01*
X91720004Y-112495202D01*
X91594038Y-112683723D01*
X91433723Y-112844038D01*
X91245202Y-112970004D01*
X91035734Y-113056768D01*
X90813365Y-113101000D01*
X90586635Y-113101000D01*
X90364266Y-113056768D01*
X90154798Y-112970004D01*
X89966277Y-112844038D01*
X89805962Y-112683723D01*
X89679996Y-112495202D01*
X89593232Y-112285734D01*
X89549000Y-112063365D01*
X89549000Y-111836635D01*
X89593232Y-111614266D01*
X89679996Y-111404798D01*
X89805962Y-111216277D01*
X89966277Y-111055962D01*
X90154798Y-110929996D01*
X90364266Y-110843232D01*
X90586635Y-110799000D01*
X90813365Y-110799000D01*
X91035734Y-110843232D01*
X91035734Y-110843232D01*
G37*
G36*
X83551000Y-111908640D02*
X82549000Y-111908640D01*
X82549000Y-111006640D01*
X83551000Y-111006640D01*
X83551000Y-111908640D01*
X83551000Y-111908640D01*
G37*
G36*
X104059466Y-110185381D02*
X104098137Y-110197112D01*
X104133779Y-110216164D01*
X104165017Y-110241799D01*
X104190652Y-110273037D01*
X104209704Y-110308679D01*
X104221435Y-110347350D01*
X104226000Y-110393704D01*
X104226000Y-111469928D01*
X104221435Y-111516282D01*
X104209704Y-111554953D01*
X104190652Y-111590595D01*
X104165017Y-111621833D01*
X104133779Y-111647468D01*
X104098137Y-111666520D01*
X104059466Y-111678251D01*
X104013112Y-111682816D01*
X103361888Y-111682816D01*
X103315534Y-111678251D01*
X103276863Y-111666520D01*
X103241221Y-111647468D01*
X103209983Y-111621833D01*
X103184348Y-111590595D01*
X103165296Y-111554953D01*
X103153565Y-111516282D01*
X103149000Y-111469928D01*
X103149000Y-110393704D01*
X103153565Y-110347350D01*
X103165296Y-110308679D01*
X103184348Y-110273037D01*
X103209983Y-110241799D01*
X103241221Y-110216164D01*
X103276863Y-110197112D01*
X103315534Y-110185381D01*
X103361888Y-110180816D01*
X104013112Y-110180816D01*
X104059466Y-110185381D01*
X104059466Y-110185381D01*
G37*
G36*
X102184466Y-110185381D02*
X102223137Y-110197112D01*
X102258779Y-110216164D01*
X102290017Y-110241799D01*
X102315652Y-110273037D01*
X102334704Y-110308679D01*
X102346435Y-110347350D01*
X102351000Y-110393704D01*
X102351000Y-111469928D01*
X102346435Y-111516282D01*
X102334704Y-111554953D01*
X102315652Y-111590595D01*
X102290017Y-111621833D01*
X102258779Y-111647468D01*
X102223137Y-111666520D01*
X102184466Y-111678251D01*
X102138112Y-111682816D01*
X101486888Y-111682816D01*
X101440534Y-111678251D01*
X101401863Y-111666520D01*
X101366221Y-111647468D01*
X101334983Y-111621833D01*
X101309348Y-111590595D01*
X101290296Y-111554953D01*
X101278565Y-111516282D01*
X101274000Y-111469928D01*
X101274000Y-110393704D01*
X101278565Y-110347350D01*
X101290296Y-110308679D01*
X101309348Y-110273037D01*
X101334983Y-110241799D01*
X101366221Y-110216164D01*
X101401863Y-110197112D01*
X101440534Y-110185381D01*
X101486888Y-110180816D01*
X102138112Y-110180816D01*
X102184466Y-110185381D01*
X102184466Y-110185381D01*
G37*
G36*
X81551000Y-110958640D02*
X80549000Y-110958640D01*
X80549000Y-110056640D01*
X81551000Y-110056640D01*
X81551000Y-110958640D01*
X81551000Y-110958640D01*
G37*
G36*
X96035734Y-108343232D02*
X96245202Y-108429996D01*
X96433723Y-108555962D01*
X96594038Y-108716277D01*
X96720004Y-108904798D01*
X96806768Y-109114266D01*
X96851000Y-109336635D01*
X96851000Y-109563365D01*
X96806768Y-109785734D01*
X96720004Y-109995202D01*
X96594038Y-110183723D01*
X96433723Y-110344038D01*
X96245202Y-110470004D01*
X96035734Y-110556768D01*
X95813365Y-110601000D01*
X95586635Y-110601000D01*
X95364266Y-110556768D01*
X95154798Y-110470004D01*
X94966277Y-110344038D01*
X94805962Y-110183723D01*
X94679996Y-109995202D01*
X94593232Y-109785734D01*
X94549000Y-109563365D01*
X94549000Y-109336635D01*
X94593232Y-109114266D01*
X94679996Y-108904798D01*
X94805962Y-108716277D01*
X94966277Y-108555962D01*
X95154798Y-108429996D01*
X95364266Y-108343232D01*
X95586635Y-108299000D01*
X95813365Y-108299000D01*
X96035734Y-108343232D01*
X96035734Y-108343232D01*
G37*
G36*
X83551000Y-110008640D02*
X82549000Y-110008640D01*
X82549000Y-109106640D01*
X83551000Y-109106640D01*
X83551000Y-110008640D01*
X83551000Y-110008640D01*
G37*
G36*
X102184466Y-107412654D02*
X102223137Y-107424385D01*
X102258779Y-107443437D01*
X102290017Y-107469072D01*
X102315652Y-107500310D01*
X102334704Y-107535952D01*
X102346435Y-107574623D01*
X102351000Y-107620977D01*
X102351000Y-108697201D01*
X102346435Y-108743555D01*
X102334704Y-108782226D01*
X102315652Y-108817868D01*
X102290017Y-108849106D01*
X102258779Y-108874741D01*
X102223137Y-108893793D01*
X102184466Y-108905524D01*
X102138112Y-108910089D01*
X101486888Y-108910089D01*
X101440534Y-108905524D01*
X101401863Y-108893793D01*
X101366221Y-108874741D01*
X101334983Y-108849106D01*
X101309348Y-108817868D01*
X101290296Y-108782226D01*
X101278565Y-108743555D01*
X101274000Y-108697201D01*
X101274000Y-107620977D01*
X101278565Y-107574623D01*
X101290296Y-107535952D01*
X101309348Y-107500310D01*
X101334983Y-107469072D01*
X101366221Y-107443437D01*
X101401863Y-107424385D01*
X101440534Y-107412654D01*
X101486888Y-107408089D01*
X102138112Y-107408089D01*
X102184466Y-107412654D01*
X102184466Y-107412654D01*
G37*
G36*
X104059466Y-107412654D02*
X104098137Y-107424385D01*
X104133779Y-107443437D01*
X104165017Y-107469072D01*
X104190652Y-107500310D01*
X104209704Y-107535952D01*
X104221435Y-107574623D01*
X104226000Y-107620977D01*
X104226000Y-108697201D01*
X104221435Y-108743555D01*
X104209704Y-108782226D01*
X104190652Y-108817868D01*
X104165017Y-108849106D01*
X104133779Y-108874741D01*
X104098137Y-108893793D01*
X104059466Y-108905524D01*
X104013112Y-108910089D01*
X103361888Y-108910089D01*
X103315534Y-108905524D01*
X103276863Y-108893793D01*
X103241221Y-108874741D01*
X103209983Y-108849106D01*
X103184348Y-108817868D01*
X103165296Y-108782226D01*
X103153565Y-108743555D01*
X103149000Y-108697201D01*
X103149000Y-107620977D01*
X103153565Y-107574623D01*
X103165296Y-107535952D01*
X103184348Y-107500310D01*
X103209983Y-107469072D01*
X103241221Y-107443437D01*
X103276863Y-107424385D01*
X103315534Y-107412654D01*
X103361888Y-107408089D01*
X104013112Y-107408089D01*
X104059466Y-107412654D01*
X104059466Y-107412654D01*
G37*
G36*
X83339466Y-106953565D02*
X83378137Y-106965296D01*
X83413779Y-106984348D01*
X83445017Y-107009983D01*
X83470652Y-107041221D01*
X83489704Y-107076863D01*
X83501435Y-107115534D01*
X83506000Y-107161888D01*
X83506000Y-108238112D01*
X83501435Y-108284466D01*
X83489704Y-108323137D01*
X83470652Y-108358779D01*
X83445017Y-108390017D01*
X83413779Y-108415652D01*
X83378137Y-108434704D01*
X83339466Y-108446435D01*
X83293112Y-108451000D01*
X82641888Y-108451000D01*
X82595534Y-108446435D01*
X82556863Y-108434704D01*
X82521221Y-108415652D01*
X82489983Y-108390017D01*
X82464348Y-108358779D01*
X82445296Y-108323137D01*
X82433565Y-108284466D01*
X82429000Y-108238112D01*
X82429000Y-107161888D01*
X82433565Y-107115534D01*
X82445296Y-107076863D01*
X82464348Y-107041221D01*
X82489983Y-107009983D01*
X82521221Y-106984348D01*
X82556863Y-106965296D01*
X82595534Y-106953565D01*
X82641888Y-106949000D01*
X83293112Y-106949000D01*
X83339466Y-106953565D01*
X83339466Y-106953565D01*
G37*
G36*
X81464466Y-106953565D02*
X81503137Y-106965296D01*
X81538779Y-106984348D01*
X81570017Y-107009983D01*
X81595652Y-107041221D01*
X81614704Y-107076863D01*
X81626435Y-107115534D01*
X81631000Y-107161888D01*
X81631000Y-108238112D01*
X81626435Y-108284466D01*
X81614704Y-108323137D01*
X81595652Y-108358779D01*
X81570017Y-108390017D01*
X81538779Y-108415652D01*
X81503137Y-108434704D01*
X81464466Y-108446435D01*
X81418112Y-108451000D01*
X80766888Y-108451000D01*
X80720534Y-108446435D01*
X80681863Y-108434704D01*
X80646221Y-108415652D01*
X80614983Y-108390017D01*
X80589348Y-108358779D01*
X80570296Y-108323137D01*
X80558565Y-108284466D01*
X80554000Y-108238112D01*
X80554000Y-107161888D01*
X80558565Y-107115534D01*
X80570296Y-107076863D01*
X80589348Y-107041221D01*
X80614983Y-107009983D01*
X80646221Y-106984348D01*
X80681863Y-106965296D01*
X80720534Y-106953565D01*
X80766888Y-106949000D01*
X81418112Y-106949000D01*
X81464466Y-106953565D01*
X81464466Y-106953565D01*
G37*
G36*
X91035734Y-105843232D02*
X91245202Y-105929996D01*
X91433723Y-106055962D01*
X91594038Y-106216277D01*
X91720004Y-106404798D01*
X91806768Y-106614266D01*
X91851000Y-106836635D01*
X91851000Y-107063365D01*
X91806768Y-107285734D01*
X91720004Y-107495202D01*
X91594038Y-107683723D01*
X91433723Y-107844038D01*
X91245202Y-107970004D01*
X91035734Y-108056768D01*
X90813365Y-108101000D01*
X90586635Y-108101000D01*
X90364266Y-108056768D01*
X90154798Y-107970004D01*
X89966277Y-107844038D01*
X89805962Y-107683723D01*
X89679996Y-107495202D01*
X89593232Y-107285734D01*
X89549000Y-107063365D01*
X89549000Y-106836635D01*
X89593232Y-106614266D01*
X89679996Y-106404798D01*
X89805962Y-106216277D01*
X89966277Y-106055962D01*
X90154798Y-105929996D01*
X90364266Y-105843232D01*
X90586635Y-105799000D01*
X90813365Y-105799000D01*
X91035734Y-105843232D01*
X91035734Y-105843232D01*
G37*
G36*
X60807396Y-105345546D02*
X60980466Y-105417234D01*
X61136230Y-105521312D01*
X61268688Y-105653770D01*
X61372766Y-105809534D01*
X61444454Y-105982604D01*
X61481000Y-106166333D01*
X61481000Y-106353667D01*
X61444454Y-106537396D01*
X61372766Y-106710466D01*
X61268688Y-106866230D01*
X61136230Y-106998688D01*
X60980466Y-107102766D01*
X60807396Y-107174454D01*
X60623667Y-107211000D01*
X60436333Y-107211000D01*
X60252604Y-107174454D01*
X60079534Y-107102766D01*
X59923770Y-106998688D01*
X59791312Y-106866230D01*
X59687234Y-106710466D01*
X59615546Y-106537396D01*
X59579000Y-106353667D01*
X59579000Y-106166333D01*
X59615546Y-105982604D01*
X59687234Y-105809534D01*
X59791312Y-105653770D01*
X59923770Y-105521312D01*
X60079534Y-105417234D01*
X60252604Y-105345546D01*
X60436333Y-105309000D01*
X60623667Y-105309000D01*
X60807396Y-105345546D01*
X60807396Y-105345546D01*
G37*
G36*
X63347396Y-105345546D02*
X63520466Y-105417234D01*
X63676230Y-105521312D01*
X63808688Y-105653770D01*
X63912766Y-105809534D01*
X63984454Y-105982604D01*
X64021000Y-106166333D01*
X64021000Y-106353667D01*
X63984454Y-106537396D01*
X63912766Y-106710466D01*
X63808688Y-106866230D01*
X63676230Y-106998688D01*
X63520466Y-107102766D01*
X63347396Y-107174454D01*
X63163667Y-107211000D01*
X62976333Y-107211000D01*
X62792604Y-107174454D01*
X62619534Y-107102766D01*
X62463770Y-106998688D01*
X62331312Y-106866230D01*
X62227234Y-106710466D01*
X62155546Y-106537396D01*
X62119000Y-106353667D01*
X62119000Y-106166333D01*
X62155546Y-105982604D01*
X62227234Y-105809534D01*
X62331312Y-105653770D01*
X62463770Y-105521312D01*
X62619534Y-105417234D01*
X62792604Y-105345546D01*
X62976333Y-105309000D01*
X63163667Y-105309000D01*
X63347396Y-105345546D01*
X63347396Y-105345546D01*
G37*
G36*
X83551000Y-106252876D02*
X82549000Y-106252876D01*
X82549000Y-105350876D01*
X83551000Y-105350876D01*
X83551000Y-106252876D01*
X83551000Y-106252876D01*
G37*
G36*
X104059466Y-104639927D02*
X104098137Y-104651658D01*
X104133779Y-104670710D01*
X104165017Y-104696345D01*
X104190652Y-104727583D01*
X104209704Y-104763225D01*
X104221435Y-104801896D01*
X104226000Y-104848250D01*
X104226000Y-105924474D01*
X104221435Y-105970828D01*
X104209704Y-106009499D01*
X104190652Y-106045141D01*
X104165017Y-106076379D01*
X104133779Y-106102014D01*
X104098137Y-106121066D01*
X104059466Y-106132797D01*
X104013112Y-106137362D01*
X103361888Y-106137362D01*
X103315534Y-106132797D01*
X103276863Y-106121066D01*
X103241221Y-106102014D01*
X103209983Y-106076379D01*
X103184348Y-106045141D01*
X103165296Y-106009499D01*
X103153565Y-105970828D01*
X103149000Y-105924474D01*
X103149000Y-104848250D01*
X103153565Y-104801896D01*
X103165296Y-104763225D01*
X103184348Y-104727583D01*
X103209983Y-104696345D01*
X103241221Y-104670710D01*
X103276863Y-104651658D01*
X103315534Y-104639927D01*
X103361888Y-104635362D01*
X104013112Y-104635362D01*
X104059466Y-104639927D01*
X104059466Y-104639927D01*
G37*
G36*
X102184466Y-104639927D02*
X102223137Y-104651658D01*
X102258779Y-104670710D01*
X102290017Y-104696345D01*
X102315652Y-104727583D01*
X102334704Y-104763225D01*
X102346435Y-104801896D01*
X102351000Y-104848250D01*
X102351000Y-105924474D01*
X102346435Y-105970828D01*
X102334704Y-106009499D01*
X102315652Y-106045141D01*
X102290017Y-106076379D01*
X102258779Y-106102014D01*
X102223137Y-106121066D01*
X102184466Y-106132797D01*
X102138112Y-106137362D01*
X101486888Y-106137362D01*
X101440534Y-106132797D01*
X101401863Y-106121066D01*
X101366221Y-106102014D01*
X101334983Y-106076379D01*
X101309348Y-106045141D01*
X101290296Y-106009499D01*
X101278565Y-105970828D01*
X101274000Y-105924474D01*
X101274000Y-104848250D01*
X101278565Y-104801896D01*
X101290296Y-104763225D01*
X101309348Y-104727583D01*
X101334983Y-104696345D01*
X101366221Y-104670710D01*
X101401863Y-104651658D01*
X101440534Y-104639927D01*
X101486888Y-104635362D01*
X102138112Y-104635362D01*
X102184466Y-104639927D01*
X102184466Y-104639927D01*
G37*
G36*
X96035734Y-103343232D02*
X96245202Y-103429996D01*
X96433723Y-103555962D01*
X96594038Y-103716277D01*
X96720004Y-103904798D01*
X96806768Y-104114266D01*
X96851000Y-104336635D01*
X96851000Y-104563365D01*
X96806768Y-104785734D01*
X96720004Y-104995202D01*
X96594038Y-105183723D01*
X96433723Y-105344038D01*
X96245202Y-105470004D01*
X96035734Y-105556768D01*
X95813365Y-105601000D01*
X95586635Y-105601000D01*
X95364266Y-105556768D01*
X95154798Y-105470004D01*
X94966277Y-105344038D01*
X94805962Y-105183723D01*
X94679996Y-104995202D01*
X94593232Y-104785734D01*
X94549000Y-104563365D01*
X94549000Y-104336635D01*
X94593232Y-104114266D01*
X94679996Y-103904798D01*
X94805962Y-103716277D01*
X94966277Y-103555962D01*
X95154798Y-103429996D01*
X95364266Y-103343232D01*
X95586635Y-103299000D01*
X95813365Y-103299000D01*
X96035734Y-103343232D01*
X96035734Y-103343232D01*
G37*
G36*
X81551000Y-105302876D02*
X80549000Y-105302876D01*
X80549000Y-104400876D01*
X81551000Y-104400876D01*
X81551000Y-105302876D01*
X81551000Y-105302876D01*
G37*
G36*
X63347396Y-102805546D02*
X63520466Y-102877234D01*
X63676230Y-102981312D01*
X63808688Y-103113770D01*
X63912766Y-103269534D01*
X63984454Y-103442604D01*
X64021000Y-103626333D01*
X64021000Y-103813667D01*
X63984454Y-103997396D01*
X63912766Y-104170466D01*
X63808688Y-104326230D01*
X63676230Y-104458688D01*
X63520466Y-104562766D01*
X63347396Y-104634454D01*
X63163667Y-104671000D01*
X62976333Y-104671000D01*
X62792604Y-104634454D01*
X62619534Y-104562766D01*
X62463770Y-104458688D01*
X62331312Y-104326230D01*
X62227234Y-104170466D01*
X62155546Y-103997396D01*
X62119000Y-103813667D01*
X62119000Y-103626333D01*
X62155546Y-103442604D01*
X62227234Y-103269534D01*
X62331312Y-103113770D01*
X62463770Y-102981312D01*
X62619534Y-102877234D01*
X62792604Y-102805546D01*
X62976333Y-102769000D01*
X63163667Y-102769000D01*
X63347396Y-102805546D01*
X63347396Y-102805546D01*
G37*
G36*
X60807396Y-102805546D02*
X60980466Y-102877234D01*
X61136230Y-102981312D01*
X61268688Y-103113770D01*
X61372766Y-103269534D01*
X61444454Y-103442604D01*
X61481000Y-103626333D01*
X61481000Y-103813667D01*
X61444454Y-103997396D01*
X61372766Y-104170466D01*
X61268688Y-104326230D01*
X61136230Y-104458688D01*
X60980466Y-104562766D01*
X60807396Y-104634454D01*
X60623667Y-104671000D01*
X60436333Y-104671000D01*
X60252604Y-104634454D01*
X60079534Y-104562766D01*
X59923770Y-104458688D01*
X59791312Y-104326230D01*
X59687234Y-104170466D01*
X59615546Y-103997396D01*
X59579000Y-103813667D01*
X59579000Y-103626333D01*
X59615546Y-103442604D01*
X59687234Y-103269534D01*
X59791312Y-103113770D01*
X59923770Y-102981312D01*
X60079534Y-102877234D01*
X60252604Y-102805546D01*
X60436333Y-102769000D01*
X60623667Y-102769000D01*
X60807396Y-102805546D01*
X60807396Y-102805546D01*
G37*
G36*
X83551000Y-104352876D02*
X82549000Y-104352876D01*
X82549000Y-103450876D01*
X83551000Y-103450876D01*
X83551000Y-104352876D01*
X83551000Y-104352876D01*
G37*
G36*
X102184466Y-101867200D02*
X102223137Y-101878931D01*
X102258779Y-101897983D01*
X102290017Y-101923618D01*
X102315652Y-101954856D01*
X102334704Y-101990498D01*
X102346435Y-102029169D01*
X102351000Y-102075523D01*
X102351000Y-103151747D01*
X102346435Y-103198101D01*
X102334704Y-103236772D01*
X102315652Y-103272414D01*
X102290017Y-103303652D01*
X102258779Y-103329287D01*
X102223137Y-103348339D01*
X102184466Y-103360070D01*
X102138112Y-103364635D01*
X101486888Y-103364635D01*
X101440534Y-103360070D01*
X101401863Y-103348339D01*
X101366221Y-103329287D01*
X101334983Y-103303652D01*
X101309348Y-103272414D01*
X101290296Y-103236772D01*
X101278565Y-103198101D01*
X101274000Y-103151747D01*
X101274000Y-102075523D01*
X101278565Y-102029169D01*
X101290296Y-101990498D01*
X101309348Y-101954856D01*
X101334983Y-101923618D01*
X101366221Y-101897983D01*
X101401863Y-101878931D01*
X101440534Y-101867200D01*
X101486888Y-101862635D01*
X102138112Y-101862635D01*
X102184466Y-101867200D01*
X102184466Y-101867200D01*
G37*
G36*
X104059466Y-101867200D02*
X104098137Y-101878931D01*
X104133779Y-101897983D01*
X104165017Y-101923618D01*
X104190652Y-101954856D01*
X104209704Y-101990498D01*
X104221435Y-102029169D01*
X104226000Y-102075523D01*
X104226000Y-103151747D01*
X104221435Y-103198101D01*
X104209704Y-103236772D01*
X104190652Y-103272414D01*
X104165017Y-103303652D01*
X104133779Y-103329287D01*
X104098137Y-103348339D01*
X104059466Y-103360070D01*
X104013112Y-103364635D01*
X103361888Y-103364635D01*
X103315534Y-103360070D01*
X103276863Y-103348339D01*
X103241221Y-103329287D01*
X103209983Y-103303652D01*
X103184348Y-103272414D01*
X103165296Y-103236772D01*
X103153565Y-103198101D01*
X103149000Y-103151747D01*
X103149000Y-102075523D01*
X103153565Y-102029169D01*
X103165296Y-101990498D01*
X103184348Y-101954856D01*
X103209983Y-101923618D01*
X103241221Y-101897983D01*
X103276863Y-101878931D01*
X103315534Y-101867200D01*
X103361888Y-101862635D01*
X104013112Y-101862635D01*
X104059466Y-101867200D01*
X104059466Y-101867200D01*
G37*
G36*
X91035734Y-100843232D02*
X91245202Y-100929996D01*
X91433723Y-101055962D01*
X91594038Y-101216277D01*
X91720004Y-101404798D01*
X91806768Y-101614266D01*
X91851000Y-101836635D01*
X91851000Y-102063365D01*
X91806768Y-102285734D01*
X91720004Y-102495202D01*
X91594038Y-102683723D01*
X91433723Y-102844038D01*
X91245202Y-102970004D01*
X91035734Y-103056768D01*
X90813365Y-103101000D01*
X90586635Y-103101000D01*
X90364266Y-103056768D01*
X90154798Y-102970004D01*
X89966277Y-102844038D01*
X89805962Y-102683723D01*
X89679996Y-102495202D01*
X89593232Y-102285734D01*
X89549000Y-102063365D01*
X89549000Y-101836635D01*
X89593232Y-101614266D01*
X89679996Y-101404798D01*
X89805962Y-101216277D01*
X89966277Y-101055962D01*
X90154798Y-100929996D01*
X90364266Y-100843232D01*
X90586635Y-100799000D01*
X90813365Y-100799000D01*
X91035734Y-100843232D01*
X91035734Y-100843232D01*
G37*
G36*
X83339466Y-101253565D02*
X83378137Y-101265296D01*
X83413779Y-101284348D01*
X83445017Y-101309983D01*
X83470652Y-101341221D01*
X83489704Y-101376863D01*
X83501435Y-101415534D01*
X83506000Y-101461888D01*
X83506000Y-102538112D01*
X83501435Y-102584466D01*
X83489704Y-102623137D01*
X83470652Y-102658779D01*
X83445017Y-102690017D01*
X83413779Y-102715652D01*
X83378137Y-102734704D01*
X83339466Y-102746435D01*
X83293112Y-102751000D01*
X82641888Y-102751000D01*
X82595534Y-102746435D01*
X82556863Y-102734704D01*
X82521221Y-102715652D01*
X82489983Y-102690017D01*
X82464348Y-102658779D01*
X82445296Y-102623137D01*
X82433565Y-102584466D01*
X82429000Y-102538112D01*
X82429000Y-101461888D01*
X82433565Y-101415534D01*
X82445296Y-101376863D01*
X82464348Y-101341221D01*
X82489983Y-101309983D01*
X82521221Y-101284348D01*
X82556863Y-101265296D01*
X82595534Y-101253565D01*
X82641888Y-101249000D01*
X83293112Y-101249000D01*
X83339466Y-101253565D01*
X83339466Y-101253565D01*
G37*
G36*
X81464466Y-101253565D02*
X81503137Y-101265296D01*
X81538779Y-101284348D01*
X81570017Y-101309983D01*
X81595652Y-101341221D01*
X81614704Y-101376863D01*
X81626435Y-101415534D01*
X81631000Y-101461888D01*
X81631000Y-102538112D01*
X81626435Y-102584466D01*
X81614704Y-102623137D01*
X81595652Y-102658779D01*
X81570017Y-102690017D01*
X81538779Y-102715652D01*
X81503137Y-102734704D01*
X81464466Y-102746435D01*
X81418112Y-102751000D01*
X80766888Y-102751000D01*
X80720534Y-102746435D01*
X80681863Y-102734704D01*
X80646221Y-102715652D01*
X80614983Y-102690017D01*
X80589348Y-102658779D01*
X80570296Y-102623137D01*
X80558565Y-102584466D01*
X80554000Y-102538112D01*
X80554000Y-101461888D01*
X80558565Y-101415534D01*
X80570296Y-101376863D01*
X80589348Y-101341221D01*
X80614983Y-101309983D01*
X80646221Y-101284348D01*
X80681863Y-101265296D01*
X80720534Y-101253565D01*
X80766888Y-101249000D01*
X81418112Y-101249000D01*
X81464466Y-101253565D01*
X81464466Y-101253565D01*
G37*
G36*
X63347396Y-100265546D02*
X63520466Y-100337234D01*
X63676230Y-100441312D01*
X63808688Y-100573770D01*
X63912766Y-100729534D01*
X63984454Y-100902604D01*
X64021000Y-101086333D01*
X64021000Y-101273667D01*
X63984454Y-101457396D01*
X63912766Y-101630466D01*
X63808688Y-101786230D01*
X63676230Y-101918688D01*
X63520466Y-102022766D01*
X63347396Y-102094454D01*
X63163667Y-102131000D01*
X62976333Y-102131000D01*
X62792604Y-102094454D01*
X62619534Y-102022766D01*
X62463770Y-101918688D01*
X62331312Y-101786230D01*
X62227234Y-101630466D01*
X62155546Y-101457396D01*
X62119000Y-101273667D01*
X62119000Y-101086333D01*
X62155546Y-100902604D01*
X62227234Y-100729534D01*
X62331312Y-100573770D01*
X62463770Y-100441312D01*
X62619534Y-100337234D01*
X62792604Y-100265546D01*
X62976333Y-100229000D01*
X63163667Y-100229000D01*
X63347396Y-100265546D01*
X63347396Y-100265546D01*
G37*
G36*
X60807396Y-100265546D02*
X60980466Y-100337234D01*
X61136230Y-100441312D01*
X61268688Y-100573770D01*
X61372766Y-100729534D01*
X61444454Y-100902604D01*
X61481000Y-101086333D01*
X61481000Y-101273667D01*
X61444454Y-101457396D01*
X61372766Y-101630466D01*
X61268688Y-101786230D01*
X61136230Y-101918688D01*
X60980466Y-102022766D01*
X60807396Y-102094454D01*
X60623667Y-102131000D01*
X60436333Y-102131000D01*
X60252604Y-102094454D01*
X60079534Y-102022766D01*
X59923770Y-101918688D01*
X59791312Y-101786230D01*
X59687234Y-101630466D01*
X59615546Y-101457396D01*
X59579000Y-101273667D01*
X59579000Y-101086333D01*
X59615546Y-100902604D01*
X59687234Y-100729534D01*
X59791312Y-100573770D01*
X59923770Y-100441312D01*
X60079534Y-100337234D01*
X60252604Y-100265546D01*
X60436333Y-100229000D01*
X60623667Y-100229000D01*
X60807396Y-100265546D01*
X60807396Y-100265546D01*
G37*
G36*
X96035734Y-98343232D02*
X96245202Y-98429996D01*
X96433723Y-98555962D01*
X96594038Y-98716277D01*
X96720004Y-98904798D01*
X96806768Y-99114266D01*
X96851000Y-99336635D01*
X96851000Y-99563365D01*
X96806768Y-99785734D01*
X96720004Y-99995202D01*
X96594038Y-100183723D01*
X96433723Y-100344038D01*
X96245202Y-100470004D01*
X96035734Y-100556768D01*
X95813365Y-100601000D01*
X95586635Y-100601000D01*
X95364266Y-100556768D01*
X95154798Y-100470004D01*
X94966277Y-100344038D01*
X94805962Y-100183723D01*
X94679996Y-99995202D01*
X94593232Y-99785734D01*
X94549000Y-99563365D01*
X94549000Y-99336635D01*
X94593232Y-99114266D01*
X94679996Y-98904798D01*
X94805962Y-98716277D01*
X94966277Y-98555962D01*
X95154798Y-98429996D01*
X95364266Y-98343232D01*
X95586635Y-98299000D01*
X95813365Y-98299000D01*
X96035734Y-98343232D01*
X96035734Y-98343232D01*
G37*
G36*
X83551000Y-100597112D02*
X82549000Y-100597112D01*
X82549000Y-99695112D01*
X83551000Y-99695112D01*
X83551000Y-100597112D01*
X83551000Y-100597112D01*
G37*
G36*
X102184466Y-99094473D02*
X102223137Y-99106204D01*
X102258779Y-99125256D01*
X102290017Y-99150891D01*
X102315652Y-99182129D01*
X102334704Y-99217771D01*
X102346435Y-99256442D01*
X102351000Y-99302796D01*
X102351000Y-100379020D01*
X102346435Y-100425374D01*
X102334704Y-100464045D01*
X102315652Y-100499687D01*
X102290017Y-100530925D01*
X102258779Y-100556560D01*
X102223137Y-100575612D01*
X102184466Y-100587343D01*
X102138112Y-100591908D01*
X101486888Y-100591908D01*
X101440534Y-100587343D01*
X101401863Y-100575612D01*
X101366221Y-100556560D01*
X101334983Y-100530925D01*
X101309348Y-100499687D01*
X101290296Y-100464045D01*
X101278565Y-100425374D01*
X101274000Y-100379020D01*
X101274000Y-99302796D01*
X101278565Y-99256442D01*
X101290296Y-99217771D01*
X101309348Y-99182129D01*
X101334983Y-99150891D01*
X101366221Y-99125256D01*
X101401863Y-99106204D01*
X101440534Y-99094473D01*
X101486888Y-99089908D01*
X102138112Y-99089908D01*
X102184466Y-99094473D01*
X102184466Y-99094473D01*
G37*
G36*
X104059466Y-99094473D02*
X104098137Y-99106204D01*
X104133779Y-99125256D01*
X104165017Y-99150891D01*
X104190652Y-99182129D01*
X104209704Y-99217771D01*
X104221435Y-99256442D01*
X104226000Y-99302796D01*
X104226000Y-100379020D01*
X104221435Y-100425374D01*
X104209704Y-100464045D01*
X104190652Y-100499687D01*
X104165017Y-100530925D01*
X104133779Y-100556560D01*
X104098137Y-100575612D01*
X104059466Y-100587343D01*
X104013112Y-100591908D01*
X103361888Y-100591908D01*
X103315534Y-100587343D01*
X103276863Y-100575612D01*
X103241221Y-100556560D01*
X103209983Y-100530925D01*
X103184348Y-100499687D01*
X103165296Y-100464045D01*
X103153565Y-100425374D01*
X103149000Y-100379020D01*
X103149000Y-99302796D01*
X103153565Y-99256442D01*
X103165296Y-99217771D01*
X103184348Y-99182129D01*
X103209983Y-99150891D01*
X103241221Y-99125256D01*
X103276863Y-99106204D01*
X103315534Y-99094473D01*
X103361888Y-99089908D01*
X104013112Y-99089908D01*
X104059466Y-99094473D01*
X104059466Y-99094473D01*
G37*
G36*
X81551000Y-99647112D02*
X80549000Y-99647112D01*
X80549000Y-98745112D01*
X81551000Y-98745112D01*
X81551000Y-99647112D01*
X81551000Y-99647112D01*
G37*
G36*
X63347396Y-97725546D02*
X63520466Y-97797234D01*
X63676230Y-97901312D01*
X63808688Y-98033770D01*
X63912766Y-98189534D01*
X63984454Y-98362604D01*
X64021000Y-98546333D01*
X64021000Y-98733667D01*
X63984454Y-98917396D01*
X63912766Y-99090466D01*
X63808688Y-99246230D01*
X63676230Y-99378688D01*
X63520466Y-99482766D01*
X63347396Y-99554454D01*
X63163667Y-99591000D01*
X62976333Y-99591000D01*
X62792604Y-99554454D01*
X62619534Y-99482766D01*
X62463770Y-99378688D01*
X62331312Y-99246230D01*
X62227234Y-99090466D01*
X62155546Y-98917396D01*
X62119000Y-98733667D01*
X62119000Y-98546333D01*
X62155546Y-98362604D01*
X62227234Y-98189534D01*
X62331312Y-98033770D01*
X62463770Y-97901312D01*
X62619534Y-97797234D01*
X62792604Y-97725546D01*
X62976333Y-97689000D01*
X63163667Y-97689000D01*
X63347396Y-97725546D01*
X63347396Y-97725546D01*
G37*
G36*
X60807396Y-97725546D02*
X60980466Y-97797234D01*
X61136230Y-97901312D01*
X61268688Y-98033770D01*
X61372766Y-98189534D01*
X61444454Y-98362604D01*
X61481000Y-98546333D01*
X61481000Y-98733667D01*
X61444454Y-98917396D01*
X61372766Y-99090466D01*
X61268688Y-99246230D01*
X61136230Y-99378688D01*
X60980466Y-99482766D01*
X60807396Y-99554454D01*
X60623667Y-99591000D01*
X60436333Y-99591000D01*
X60252604Y-99554454D01*
X60079534Y-99482766D01*
X59923770Y-99378688D01*
X59791312Y-99246230D01*
X59687234Y-99090466D01*
X59615546Y-98917396D01*
X59579000Y-98733667D01*
X59579000Y-98546333D01*
X59615546Y-98362604D01*
X59687234Y-98189534D01*
X59791312Y-98033770D01*
X59923770Y-97901312D01*
X60079534Y-97797234D01*
X60252604Y-97725546D01*
X60436333Y-97689000D01*
X60623667Y-97689000D01*
X60807396Y-97725546D01*
X60807396Y-97725546D01*
G37*
G36*
X73789466Y-97753565D02*
X73828137Y-97765296D01*
X73863779Y-97784348D01*
X73895017Y-97809983D01*
X73920652Y-97841221D01*
X73939704Y-97876863D01*
X73951435Y-97915534D01*
X73956000Y-97961888D01*
X73956000Y-99038112D01*
X73951435Y-99084466D01*
X73939704Y-99123137D01*
X73920652Y-99158779D01*
X73895017Y-99190017D01*
X73863779Y-99215652D01*
X73828137Y-99234704D01*
X73789466Y-99246435D01*
X73743112Y-99251000D01*
X73091888Y-99251000D01*
X73045534Y-99246435D01*
X73006863Y-99234704D01*
X72971221Y-99215652D01*
X72939983Y-99190017D01*
X72914348Y-99158779D01*
X72895296Y-99123137D01*
X72883565Y-99084466D01*
X72879000Y-99038112D01*
X72879000Y-97961888D01*
X72883565Y-97915534D01*
X72895296Y-97876863D01*
X72914348Y-97841221D01*
X72939983Y-97809983D01*
X72971221Y-97784348D01*
X73006863Y-97765296D01*
X73045534Y-97753565D01*
X73091888Y-97749000D01*
X73743112Y-97749000D01*
X73789466Y-97753565D01*
X73789466Y-97753565D01*
G37*
G36*
X71914466Y-97753565D02*
X71953137Y-97765296D01*
X71988779Y-97784348D01*
X72020017Y-97809983D01*
X72045652Y-97841221D01*
X72064704Y-97876863D01*
X72076435Y-97915534D01*
X72081000Y-97961888D01*
X72081000Y-99038112D01*
X72076435Y-99084466D01*
X72064704Y-99123137D01*
X72045652Y-99158779D01*
X72020017Y-99190017D01*
X71988779Y-99215652D01*
X71953137Y-99234704D01*
X71914466Y-99246435D01*
X71868112Y-99251000D01*
X71216888Y-99251000D01*
X71170534Y-99246435D01*
X71131863Y-99234704D01*
X71096221Y-99215652D01*
X71064983Y-99190017D01*
X71039348Y-99158779D01*
X71020296Y-99123137D01*
X71008565Y-99084466D01*
X71004000Y-99038112D01*
X71004000Y-97961888D01*
X71008565Y-97915534D01*
X71020296Y-97876863D01*
X71039348Y-97841221D01*
X71064983Y-97809983D01*
X71096221Y-97784348D01*
X71131863Y-97765296D01*
X71170534Y-97753565D01*
X71216888Y-97749000D01*
X71868112Y-97749000D01*
X71914466Y-97753565D01*
X71914466Y-97753565D01*
G37*
G36*
X83551000Y-98697112D02*
X82549000Y-98697112D01*
X82549000Y-97795112D01*
X83551000Y-97795112D01*
X83551000Y-98697112D01*
X83551000Y-98697112D01*
G37*
G36*
X91035734Y-95843232D02*
X91245202Y-95929996D01*
X91433723Y-96055962D01*
X91594038Y-96216277D01*
X91720004Y-96404798D01*
X91806768Y-96614266D01*
X91851000Y-96836635D01*
X91851000Y-97063365D01*
X91806768Y-97285734D01*
X91720004Y-97495202D01*
X91594038Y-97683723D01*
X91433723Y-97844038D01*
X91245202Y-97970004D01*
X91035734Y-98056768D01*
X90813365Y-98101000D01*
X90586635Y-98101000D01*
X90364266Y-98056768D01*
X90154798Y-97970004D01*
X89966277Y-97844038D01*
X89805962Y-97683723D01*
X89679996Y-97495202D01*
X89593232Y-97285734D01*
X89549000Y-97063365D01*
X89549000Y-96836635D01*
X89593232Y-96614266D01*
X89679996Y-96404798D01*
X89805962Y-96216277D01*
X89966277Y-96055962D01*
X90154798Y-95929996D01*
X90364266Y-95843232D01*
X90586635Y-95799000D01*
X90813365Y-95799000D01*
X91035734Y-95843232D01*
X91035734Y-95843232D01*
G37*
G36*
X102184466Y-96321746D02*
X102223137Y-96333477D01*
X102258779Y-96352529D01*
X102290017Y-96378164D01*
X102315652Y-96409402D01*
X102334704Y-96445044D01*
X102346435Y-96483715D01*
X102351000Y-96530069D01*
X102351000Y-97606293D01*
X102346435Y-97652647D01*
X102334704Y-97691318D01*
X102315652Y-97726960D01*
X102290017Y-97758198D01*
X102258779Y-97783833D01*
X102223137Y-97802885D01*
X102184466Y-97814616D01*
X102138112Y-97819181D01*
X101486888Y-97819181D01*
X101440534Y-97814616D01*
X101401863Y-97802885D01*
X101366221Y-97783833D01*
X101334983Y-97758198D01*
X101309348Y-97726960D01*
X101290296Y-97691318D01*
X101278565Y-97652647D01*
X101274000Y-97606293D01*
X101274000Y-96530069D01*
X101278565Y-96483715D01*
X101290296Y-96445044D01*
X101309348Y-96409402D01*
X101334983Y-96378164D01*
X101366221Y-96352529D01*
X101401863Y-96333477D01*
X101440534Y-96321746D01*
X101486888Y-96317181D01*
X102138112Y-96317181D01*
X102184466Y-96321746D01*
X102184466Y-96321746D01*
G37*
G36*
X104059466Y-96321746D02*
X104098137Y-96333477D01*
X104133779Y-96352529D01*
X104165017Y-96378164D01*
X104190652Y-96409402D01*
X104209704Y-96445044D01*
X104221435Y-96483715D01*
X104226000Y-96530069D01*
X104226000Y-97606293D01*
X104221435Y-97652647D01*
X104209704Y-97691318D01*
X104190652Y-97726960D01*
X104165017Y-97758198D01*
X104133779Y-97783833D01*
X104098137Y-97802885D01*
X104059466Y-97814616D01*
X104013112Y-97819181D01*
X103361888Y-97819181D01*
X103315534Y-97814616D01*
X103276863Y-97802885D01*
X103241221Y-97783833D01*
X103209983Y-97758198D01*
X103184348Y-97726960D01*
X103165296Y-97691318D01*
X103153565Y-97652647D01*
X103149000Y-97606293D01*
X103149000Y-96530069D01*
X103153565Y-96483715D01*
X103165296Y-96445044D01*
X103184348Y-96409402D01*
X103209983Y-96378164D01*
X103241221Y-96352529D01*
X103276863Y-96333477D01*
X103315534Y-96321746D01*
X103361888Y-96317181D01*
X104013112Y-96317181D01*
X104059466Y-96321746D01*
X104059466Y-96321746D01*
G37*
G36*
X81464466Y-95653565D02*
X81503137Y-95665296D01*
X81538779Y-95684348D01*
X81570017Y-95709983D01*
X81595652Y-95741221D01*
X81614704Y-95776863D01*
X81626435Y-95815534D01*
X81631000Y-95861888D01*
X81631000Y-96938112D01*
X81626435Y-96984466D01*
X81614704Y-97023137D01*
X81595652Y-97058779D01*
X81570017Y-97090017D01*
X81538779Y-97115652D01*
X81503137Y-97134704D01*
X81464466Y-97146435D01*
X81418112Y-97151000D01*
X80766888Y-97151000D01*
X80720534Y-97146435D01*
X80681863Y-97134704D01*
X80646221Y-97115652D01*
X80614983Y-97090017D01*
X80589348Y-97058779D01*
X80570296Y-97023137D01*
X80558565Y-96984466D01*
X80554000Y-96938112D01*
X80554000Y-95861888D01*
X80558565Y-95815534D01*
X80570296Y-95776863D01*
X80589348Y-95741221D01*
X80614983Y-95709983D01*
X80646221Y-95684348D01*
X80681863Y-95665296D01*
X80720534Y-95653565D01*
X80766888Y-95649000D01*
X81418112Y-95649000D01*
X81464466Y-95653565D01*
X81464466Y-95653565D01*
G37*
G36*
X83339466Y-95653565D02*
X83378137Y-95665296D01*
X83413779Y-95684348D01*
X83445017Y-95709983D01*
X83470652Y-95741221D01*
X83489704Y-95776863D01*
X83501435Y-95815534D01*
X83506000Y-95861888D01*
X83506000Y-96938112D01*
X83501435Y-96984466D01*
X83489704Y-97023137D01*
X83470652Y-97058779D01*
X83445017Y-97090017D01*
X83413779Y-97115652D01*
X83378137Y-97134704D01*
X83339466Y-97146435D01*
X83293112Y-97151000D01*
X82641888Y-97151000D01*
X82595534Y-97146435D01*
X82556863Y-97134704D01*
X82521221Y-97115652D01*
X82489983Y-97090017D01*
X82464348Y-97058779D01*
X82445296Y-97023137D01*
X82433565Y-96984466D01*
X82429000Y-96938112D01*
X82429000Y-95861888D01*
X82433565Y-95815534D01*
X82445296Y-95776863D01*
X82464348Y-95741221D01*
X82489983Y-95709983D01*
X82521221Y-95684348D01*
X82556863Y-95665296D01*
X82595534Y-95653565D01*
X82641888Y-95649000D01*
X83293112Y-95649000D01*
X83339466Y-95653565D01*
X83339466Y-95653565D01*
G37*
G36*
X74001000Y-97094462D02*
X72999000Y-97094462D01*
X72999000Y-96192462D01*
X74001000Y-96192462D01*
X74001000Y-97094462D01*
X74001000Y-97094462D01*
G37*
G36*
X60807396Y-95185546D02*
X60980466Y-95257234D01*
X61136230Y-95361312D01*
X61268688Y-95493770D01*
X61372766Y-95649534D01*
X61444454Y-95822604D01*
X61481000Y-96006333D01*
X61481000Y-96193667D01*
X61444454Y-96377396D01*
X61372766Y-96550466D01*
X61268688Y-96706230D01*
X61136230Y-96838688D01*
X60980466Y-96942766D01*
X60807396Y-97014454D01*
X60623667Y-97051000D01*
X60436333Y-97051000D01*
X60252604Y-97014454D01*
X60079534Y-96942766D01*
X59923770Y-96838688D01*
X59791312Y-96706230D01*
X59687234Y-96550466D01*
X59615546Y-96377396D01*
X59579000Y-96193667D01*
X59579000Y-96006333D01*
X59615546Y-95822604D01*
X59687234Y-95649534D01*
X59791312Y-95493770D01*
X59923770Y-95361312D01*
X60079534Y-95257234D01*
X60252604Y-95185546D01*
X60436333Y-95149000D01*
X60623667Y-95149000D01*
X60807396Y-95185546D01*
X60807396Y-95185546D01*
G37*
G36*
X63347396Y-95185546D02*
X63520466Y-95257234D01*
X63676230Y-95361312D01*
X63808688Y-95493770D01*
X63912766Y-95649534D01*
X63984454Y-95822604D01*
X64021000Y-96006333D01*
X64021000Y-96193667D01*
X63984454Y-96377396D01*
X63912766Y-96550466D01*
X63808688Y-96706230D01*
X63676230Y-96838688D01*
X63520466Y-96942766D01*
X63347396Y-97014454D01*
X63163667Y-97051000D01*
X62976333Y-97051000D01*
X62792604Y-97014454D01*
X62619534Y-96942766D01*
X62463770Y-96838688D01*
X62331312Y-96706230D01*
X62227234Y-96550466D01*
X62155546Y-96377396D01*
X62119000Y-96193667D01*
X62119000Y-96006333D01*
X62155546Y-95822604D01*
X62227234Y-95649534D01*
X62331312Y-95493770D01*
X62463770Y-95361312D01*
X62619534Y-95257234D01*
X62792604Y-95185546D01*
X62976333Y-95149000D01*
X63163667Y-95149000D01*
X63347396Y-95185546D01*
X63347396Y-95185546D01*
G37*
G36*
X72001000Y-96144462D02*
X70999000Y-96144462D01*
X70999000Y-95242462D01*
X72001000Y-95242462D01*
X72001000Y-96144462D01*
X72001000Y-96144462D01*
G37*
G36*
X96035734Y-93343232D02*
X96245202Y-93429996D01*
X96433723Y-93555962D01*
X96594038Y-93716277D01*
X96720004Y-93904798D01*
X96806768Y-94114266D01*
X96851000Y-94336635D01*
X96851000Y-94563365D01*
X96806768Y-94785734D01*
X96720004Y-94995202D01*
X96594038Y-95183723D01*
X96433723Y-95344038D01*
X96245202Y-95470004D01*
X96035734Y-95556768D01*
X95813365Y-95601000D01*
X95586635Y-95601000D01*
X95364266Y-95556768D01*
X95154798Y-95470004D01*
X94966277Y-95344038D01*
X94805962Y-95183723D01*
X94679996Y-94995202D01*
X94593232Y-94785734D01*
X94549000Y-94563365D01*
X94549000Y-94336635D01*
X94593232Y-94114266D01*
X94679996Y-93904798D01*
X94805962Y-93716277D01*
X94966277Y-93555962D01*
X95154798Y-93429996D01*
X95364266Y-93343232D01*
X95586635Y-93299000D01*
X95813365Y-93299000D01*
X96035734Y-93343232D01*
X96035734Y-93343232D01*
G37*
G36*
X74001000Y-95194462D02*
X72999000Y-95194462D01*
X72999000Y-94292462D01*
X74001000Y-94292462D01*
X74001000Y-95194462D01*
X74001000Y-95194462D01*
G37*
G36*
X102184466Y-93549019D02*
X102223137Y-93560750D01*
X102258779Y-93579802D01*
X102290017Y-93605437D01*
X102315652Y-93636675D01*
X102334704Y-93672317D01*
X102346435Y-93710988D01*
X102351000Y-93757342D01*
X102351000Y-94833566D01*
X102346435Y-94879920D01*
X102334704Y-94918591D01*
X102315652Y-94954233D01*
X102290017Y-94985471D01*
X102258779Y-95011106D01*
X102223137Y-95030158D01*
X102184466Y-95041889D01*
X102138112Y-95046454D01*
X101486888Y-95046454D01*
X101440534Y-95041889D01*
X101401863Y-95030158D01*
X101366221Y-95011106D01*
X101334983Y-94985471D01*
X101309348Y-94954233D01*
X101290296Y-94918591D01*
X101278565Y-94879920D01*
X101274000Y-94833566D01*
X101274000Y-93757342D01*
X101278565Y-93710988D01*
X101290296Y-93672317D01*
X101309348Y-93636675D01*
X101334983Y-93605437D01*
X101366221Y-93579802D01*
X101401863Y-93560750D01*
X101440534Y-93549019D01*
X101486888Y-93544454D01*
X102138112Y-93544454D01*
X102184466Y-93549019D01*
X102184466Y-93549019D01*
G37*
G36*
X104059466Y-93549019D02*
X104098137Y-93560750D01*
X104133779Y-93579802D01*
X104165017Y-93605437D01*
X104190652Y-93636675D01*
X104209704Y-93672317D01*
X104221435Y-93710988D01*
X104226000Y-93757342D01*
X104226000Y-94833566D01*
X104221435Y-94879920D01*
X104209704Y-94918591D01*
X104190652Y-94954233D01*
X104165017Y-94985471D01*
X104133779Y-95011106D01*
X104098137Y-95030158D01*
X104059466Y-95041889D01*
X104013112Y-95046454D01*
X103361888Y-95046454D01*
X103315534Y-95041889D01*
X103276863Y-95030158D01*
X103241221Y-95011106D01*
X103209983Y-94985471D01*
X103184348Y-94954233D01*
X103165296Y-94918591D01*
X103153565Y-94879920D01*
X103149000Y-94833566D01*
X103149000Y-93757342D01*
X103153565Y-93710988D01*
X103165296Y-93672317D01*
X103184348Y-93636675D01*
X103209983Y-93605437D01*
X103241221Y-93579802D01*
X103276863Y-93560750D01*
X103315534Y-93549019D01*
X103361888Y-93544454D01*
X104013112Y-93544454D01*
X104059466Y-93549019D01*
X104059466Y-93549019D01*
G37*
G36*
X83551000Y-94941348D02*
X82549000Y-94941348D01*
X82549000Y-94039348D01*
X83551000Y-94039348D01*
X83551000Y-94941348D01*
X83551000Y-94941348D01*
G37*
G36*
X60807396Y-92645546D02*
X60980466Y-92717234D01*
X61136230Y-92821312D01*
X61268688Y-92953770D01*
X61372766Y-93109534D01*
X61444454Y-93282604D01*
X61481000Y-93466333D01*
X61481000Y-93653667D01*
X61444454Y-93837396D01*
X61372766Y-94010466D01*
X61268688Y-94166230D01*
X61136230Y-94298688D01*
X60980466Y-94402766D01*
X60807396Y-94474454D01*
X60623667Y-94511000D01*
X60436333Y-94511000D01*
X60252604Y-94474454D01*
X60079534Y-94402766D01*
X59923770Y-94298688D01*
X59791312Y-94166230D01*
X59687234Y-94010466D01*
X59615546Y-93837396D01*
X59579000Y-93653667D01*
X59579000Y-93466333D01*
X59615546Y-93282604D01*
X59687234Y-93109534D01*
X59791312Y-92953770D01*
X59923770Y-92821312D01*
X60079534Y-92717234D01*
X60252604Y-92645546D01*
X60436333Y-92609000D01*
X60623667Y-92609000D01*
X60807396Y-92645546D01*
X60807396Y-92645546D01*
G37*
G36*
X63347396Y-92645546D02*
X63520466Y-92717234D01*
X63676230Y-92821312D01*
X63808688Y-92953770D01*
X63912766Y-93109534D01*
X63984454Y-93282604D01*
X64021000Y-93466333D01*
X64021000Y-93653667D01*
X63984454Y-93837396D01*
X63912766Y-94010466D01*
X63808688Y-94166230D01*
X63676230Y-94298688D01*
X63520466Y-94402766D01*
X63347396Y-94474454D01*
X63163667Y-94511000D01*
X62976333Y-94511000D01*
X62792604Y-94474454D01*
X62619534Y-94402766D01*
X62463770Y-94298688D01*
X62331312Y-94166230D01*
X62227234Y-94010466D01*
X62155546Y-93837396D01*
X62119000Y-93653667D01*
X62119000Y-93466333D01*
X62155546Y-93282604D01*
X62227234Y-93109534D01*
X62331312Y-92953770D01*
X62463770Y-92821312D01*
X62619534Y-92717234D01*
X62792604Y-92645546D01*
X62976333Y-92609000D01*
X63163667Y-92609000D01*
X63347396Y-92645546D01*
X63347396Y-92645546D01*
G37*
G36*
X81551000Y-93991348D02*
X80549000Y-93991348D01*
X80549000Y-93089348D01*
X81551000Y-93089348D01*
X81551000Y-93991348D01*
X81551000Y-93991348D01*
G37*
G36*
X73789466Y-92153565D02*
X73828137Y-92165296D01*
X73863779Y-92184348D01*
X73895017Y-92209983D01*
X73920652Y-92241221D01*
X73939704Y-92276863D01*
X73951435Y-92315534D01*
X73956000Y-92361888D01*
X73956000Y-93438112D01*
X73951435Y-93484466D01*
X73939704Y-93523137D01*
X73920652Y-93558779D01*
X73895017Y-93590017D01*
X73863779Y-93615652D01*
X73828137Y-93634704D01*
X73789466Y-93646435D01*
X73743112Y-93651000D01*
X73091888Y-93651000D01*
X73045534Y-93646435D01*
X73006863Y-93634704D01*
X72971221Y-93615652D01*
X72939983Y-93590017D01*
X72914348Y-93558779D01*
X72895296Y-93523137D01*
X72883565Y-93484466D01*
X72879000Y-93438112D01*
X72879000Y-92361888D01*
X72883565Y-92315534D01*
X72895296Y-92276863D01*
X72914348Y-92241221D01*
X72939983Y-92209983D01*
X72971221Y-92184348D01*
X73006863Y-92165296D01*
X73045534Y-92153565D01*
X73091888Y-92149000D01*
X73743112Y-92149000D01*
X73789466Y-92153565D01*
X73789466Y-92153565D01*
G37*
G36*
X71914466Y-92153565D02*
X71953137Y-92165296D01*
X71988779Y-92184348D01*
X72020017Y-92209983D01*
X72045652Y-92241221D01*
X72064704Y-92276863D01*
X72076435Y-92315534D01*
X72081000Y-92361888D01*
X72081000Y-93438112D01*
X72076435Y-93484466D01*
X72064704Y-93523137D01*
X72045652Y-93558779D01*
X72020017Y-93590017D01*
X71988779Y-93615652D01*
X71953137Y-93634704D01*
X71914466Y-93646435D01*
X71868112Y-93651000D01*
X71216888Y-93651000D01*
X71170534Y-93646435D01*
X71131863Y-93634704D01*
X71096221Y-93615652D01*
X71064983Y-93590017D01*
X71039348Y-93558779D01*
X71020296Y-93523137D01*
X71008565Y-93484466D01*
X71004000Y-93438112D01*
X71004000Y-92361888D01*
X71008565Y-92315534D01*
X71020296Y-92276863D01*
X71039348Y-92241221D01*
X71064983Y-92209983D01*
X71096221Y-92184348D01*
X71131863Y-92165296D01*
X71170534Y-92153565D01*
X71216888Y-92149000D01*
X71868112Y-92149000D01*
X71914466Y-92153565D01*
X71914466Y-92153565D01*
G37*
G36*
X91035734Y-90843232D02*
X91245202Y-90929996D01*
X91433723Y-91055962D01*
X91594038Y-91216277D01*
X91720004Y-91404798D01*
X91806768Y-91614266D01*
X91851000Y-91836635D01*
X91851000Y-92063365D01*
X91806768Y-92285734D01*
X91720004Y-92495202D01*
X91594038Y-92683723D01*
X91433723Y-92844038D01*
X91245202Y-92970004D01*
X91035734Y-93056768D01*
X90813365Y-93101000D01*
X90586635Y-93101000D01*
X90364266Y-93056768D01*
X90154798Y-92970004D01*
X89966277Y-92844038D01*
X89805962Y-92683723D01*
X89679996Y-92495202D01*
X89593232Y-92285734D01*
X89549000Y-92063365D01*
X89549000Y-91836635D01*
X89593232Y-91614266D01*
X89679996Y-91404798D01*
X89805962Y-91216277D01*
X89966277Y-91055962D01*
X90154798Y-90929996D01*
X90364266Y-90843232D01*
X90586635Y-90799000D01*
X90813365Y-90799000D01*
X91035734Y-90843232D01*
X91035734Y-90843232D01*
G37*
G36*
X83551000Y-93041348D02*
X82549000Y-93041348D01*
X82549000Y-92139348D01*
X83551000Y-92139348D01*
X83551000Y-93041348D01*
X83551000Y-93041348D01*
G37*
G36*
X104059466Y-90776292D02*
X104098137Y-90788023D01*
X104133779Y-90807075D01*
X104165017Y-90832710D01*
X104190652Y-90863948D01*
X104209704Y-90899590D01*
X104221435Y-90938261D01*
X104226000Y-90984615D01*
X104226000Y-92060839D01*
X104221435Y-92107193D01*
X104209704Y-92145864D01*
X104190652Y-92181506D01*
X104165017Y-92212744D01*
X104133779Y-92238379D01*
X104098137Y-92257431D01*
X104059466Y-92269162D01*
X104013112Y-92273727D01*
X103361888Y-92273727D01*
X103315534Y-92269162D01*
X103276863Y-92257431D01*
X103241221Y-92238379D01*
X103209983Y-92212744D01*
X103184348Y-92181506D01*
X103165296Y-92145864D01*
X103153565Y-92107193D01*
X103149000Y-92060839D01*
X103149000Y-90984615D01*
X103153565Y-90938261D01*
X103165296Y-90899590D01*
X103184348Y-90863948D01*
X103209983Y-90832710D01*
X103241221Y-90807075D01*
X103276863Y-90788023D01*
X103315534Y-90776292D01*
X103361888Y-90771727D01*
X104013112Y-90771727D01*
X104059466Y-90776292D01*
X104059466Y-90776292D01*
G37*
G36*
X102184466Y-90776292D02*
X102223137Y-90788023D01*
X102258779Y-90807075D01*
X102290017Y-90832710D01*
X102315652Y-90863948D01*
X102334704Y-90899590D01*
X102346435Y-90938261D01*
X102351000Y-90984615D01*
X102351000Y-92060839D01*
X102346435Y-92107193D01*
X102334704Y-92145864D01*
X102315652Y-92181506D01*
X102290017Y-92212744D01*
X102258779Y-92238379D01*
X102223137Y-92257431D01*
X102184466Y-92269162D01*
X102138112Y-92273727D01*
X101486888Y-92273727D01*
X101440534Y-92269162D01*
X101401863Y-92257431D01*
X101366221Y-92238379D01*
X101334983Y-92212744D01*
X101309348Y-92181506D01*
X101290296Y-92145864D01*
X101278565Y-92107193D01*
X101274000Y-92060839D01*
X101274000Y-90984615D01*
X101278565Y-90938261D01*
X101290296Y-90899590D01*
X101309348Y-90863948D01*
X101334983Y-90832710D01*
X101366221Y-90807075D01*
X101401863Y-90788023D01*
X101440534Y-90776292D01*
X101486888Y-90771727D01*
X102138112Y-90771727D01*
X102184466Y-90776292D01*
X102184466Y-90776292D01*
G37*
G36*
X63347396Y-90105546D02*
X63520466Y-90177234D01*
X63676230Y-90281312D01*
X63808688Y-90413770D01*
X63912766Y-90569534D01*
X63984454Y-90742604D01*
X64021000Y-90926333D01*
X64021000Y-91113667D01*
X63984454Y-91297396D01*
X63912766Y-91470466D01*
X63808688Y-91626230D01*
X63676230Y-91758688D01*
X63520466Y-91862766D01*
X63347396Y-91934454D01*
X63163667Y-91971000D01*
X62976333Y-91971000D01*
X62792604Y-91934454D01*
X62619534Y-91862766D01*
X62463770Y-91758688D01*
X62331312Y-91626230D01*
X62227234Y-91470466D01*
X62155546Y-91297396D01*
X62119000Y-91113667D01*
X62119000Y-90926333D01*
X62155546Y-90742604D01*
X62227234Y-90569534D01*
X62331312Y-90413770D01*
X62463770Y-90281312D01*
X62619534Y-90177234D01*
X62792604Y-90105546D01*
X62976333Y-90069000D01*
X63163667Y-90069000D01*
X63347396Y-90105546D01*
X63347396Y-90105546D01*
G37*
G36*
X60807396Y-90105546D02*
X60980466Y-90177234D01*
X61136230Y-90281312D01*
X61268688Y-90413770D01*
X61372766Y-90569534D01*
X61444454Y-90742604D01*
X61481000Y-90926333D01*
X61481000Y-91113667D01*
X61444454Y-91297396D01*
X61372766Y-91470466D01*
X61268688Y-91626230D01*
X61136230Y-91758688D01*
X60980466Y-91862766D01*
X60807396Y-91934454D01*
X60623667Y-91971000D01*
X60436333Y-91971000D01*
X60252604Y-91934454D01*
X60079534Y-91862766D01*
X59923770Y-91758688D01*
X59791312Y-91626230D01*
X59687234Y-91470466D01*
X59615546Y-91297396D01*
X59579000Y-91113667D01*
X59579000Y-90926333D01*
X59615546Y-90742604D01*
X59687234Y-90569534D01*
X59791312Y-90413770D01*
X59923770Y-90281312D01*
X60079534Y-90177234D01*
X60252604Y-90105546D01*
X60436333Y-90069000D01*
X60623667Y-90069000D01*
X60807396Y-90105546D01*
X60807396Y-90105546D01*
G37*
G36*
X74001000Y-91501000D02*
X72999000Y-91501000D01*
X72999000Y-90599000D01*
X74001000Y-90599000D01*
X74001000Y-91501000D01*
X74001000Y-91501000D01*
G37*
G36*
X81464466Y-89953565D02*
X81503137Y-89965296D01*
X81538779Y-89984348D01*
X81570017Y-90009983D01*
X81595652Y-90041221D01*
X81614704Y-90076863D01*
X81626435Y-90115534D01*
X81631000Y-90161888D01*
X81631000Y-91238112D01*
X81626435Y-91284466D01*
X81614704Y-91323137D01*
X81595652Y-91358779D01*
X81570017Y-91390017D01*
X81538779Y-91415652D01*
X81503137Y-91434704D01*
X81464466Y-91446435D01*
X81418112Y-91451000D01*
X80766888Y-91451000D01*
X80720534Y-91446435D01*
X80681863Y-91434704D01*
X80646221Y-91415652D01*
X80614983Y-91390017D01*
X80589348Y-91358779D01*
X80570296Y-91323137D01*
X80558565Y-91284466D01*
X80554000Y-91238112D01*
X80554000Y-90161888D01*
X80558565Y-90115534D01*
X80570296Y-90076863D01*
X80589348Y-90041221D01*
X80614983Y-90009983D01*
X80646221Y-89984348D01*
X80681863Y-89965296D01*
X80720534Y-89953565D01*
X80766888Y-89949000D01*
X81418112Y-89949000D01*
X81464466Y-89953565D01*
X81464466Y-89953565D01*
G37*
G36*
X83339466Y-89953565D02*
X83378137Y-89965296D01*
X83413779Y-89984348D01*
X83445017Y-90009983D01*
X83470652Y-90041221D01*
X83489704Y-90076863D01*
X83501435Y-90115534D01*
X83506000Y-90161888D01*
X83506000Y-91238112D01*
X83501435Y-91284466D01*
X83489704Y-91323137D01*
X83470652Y-91358779D01*
X83445017Y-91390017D01*
X83413779Y-91415652D01*
X83378137Y-91434704D01*
X83339466Y-91446435D01*
X83293112Y-91451000D01*
X82641888Y-91451000D01*
X82595534Y-91446435D01*
X82556863Y-91434704D01*
X82521221Y-91415652D01*
X82489983Y-91390017D01*
X82464348Y-91358779D01*
X82445296Y-91323137D01*
X82433565Y-91284466D01*
X82429000Y-91238112D01*
X82429000Y-90161888D01*
X82433565Y-90115534D01*
X82445296Y-90076863D01*
X82464348Y-90041221D01*
X82489983Y-90009983D01*
X82521221Y-89984348D01*
X82556863Y-89965296D01*
X82595534Y-89953565D01*
X82641888Y-89949000D01*
X83293112Y-89949000D01*
X83339466Y-89953565D01*
X83339466Y-89953565D01*
G37*
G36*
X96035734Y-88343232D02*
X96245202Y-88429996D01*
X96433723Y-88555962D01*
X96594038Y-88716277D01*
X96720004Y-88904798D01*
X96806768Y-89114266D01*
X96851000Y-89336635D01*
X96851000Y-89563365D01*
X96806768Y-89785734D01*
X96720004Y-89995202D01*
X96594038Y-90183723D01*
X96433723Y-90344038D01*
X96245202Y-90470004D01*
X96035734Y-90556768D01*
X95813365Y-90601000D01*
X95586635Y-90601000D01*
X95364266Y-90556768D01*
X95154798Y-90470004D01*
X94966277Y-90344038D01*
X94805962Y-90183723D01*
X94679996Y-89995202D01*
X94593232Y-89785734D01*
X94549000Y-89563365D01*
X94549000Y-89336635D01*
X94593232Y-89114266D01*
X94679996Y-88904798D01*
X94805962Y-88716277D01*
X94966277Y-88555962D01*
X95154798Y-88429996D01*
X95364266Y-88343232D01*
X95586635Y-88299000D01*
X95813365Y-88299000D01*
X96035734Y-88343232D01*
X96035734Y-88343232D01*
G37*
G36*
X72001000Y-90551000D02*
X70999000Y-90551000D01*
X70999000Y-89649000D01*
X72001000Y-89649000D01*
X72001000Y-90551000D01*
X72001000Y-90551000D01*
G37*
G36*
X74001000Y-89601000D02*
X72999000Y-89601000D01*
X72999000Y-88699000D01*
X74001000Y-88699000D01*
X74001000Y-89601000D01*
X74001000Y-89601000D01*
G37*
G36*
X102184466Y-88003565D02*
X102223137Y-88015296D01*
X102258779Y-88034348D01*
X102290017Y-88059983D01*
X102315652Y-88091221D01*
X102334704Y-88126863D01*
X102346435Y-88165534D01*
X102351000Y-88211888D01*
X102351000Y-89288112D01*
X102346435Y-89334466D01*
X102334704Y-89373137D01*
X102315652Y-89408779D01*
X102290017Y-89440017D01*
X102258779Y-89465652D01*
X102223137Y-89484704D01*
X102184466Y-89496435D01*
X102138112Y-89501000D01*
X101486888Y-89501000D01*
X101440534Y-89496435D01*
X101401863Y-89484704D01*
X101366221Y-89465652D01*
X101334983Y-89440017D01*
X101309348Y-89408779D01*
X101290296Y-89373137D01*
X101278565Y-89334466D01*
X101274000Y-89288112D01*
X101274000Y-88211888D01*
X101278565Y-88165534D01*
X101290296Y-88126863D01*
X101309348Y-88091221D01*
X101334983Y-88059983D01*
X101366221Y-88034348D01*
X101401863Y-88015296D01*
X101440534Y-88003565D01*
X101486888Y-87999000D01*
X102138112Y-87999000D01*
X102184466Y-88003565D01*
X102184466Y-88003565D01*
G37*
G36*
X104059466Y-88003565D02*
X104098137Y-88015296D01*
X104133779Y-88034348D01*
X104165017Y-88059983D01*
X104190652Y-88091221D01*
X104209704Y-88126863D01*
X104221435Y-88165534D01*
X104226000Y-88211888D01*
X104226000Y-89288112D01*
X104221435Y-89334466D01*
X104209704Y-89373137D01*
X104190652Y-89408779D01*
X104165017Y-89440017D01*
X104133779Y-89465652D01*
X104098137Y-89484704D01*
X104059466Y-89496435D01*
X104013112Y-89501000D01*
X103361888Y-89501000D01*
X103315534Y-89496435D01*
X103276863Y-89484704D01*
X103241221Y-89465652D01*
X103209983Y-89440017D01*
X103184348Y-89408779D01*
X103165296Y-89373137D01*
X103153565Y-89334466D01*
X103149000Y-89288112D01*
X103149000Y-88211888D01*
X103153565Y-88165534D01*
X103165296Y-88126863D01*
X103184348Y-88091221D01*
X103209983Y-88059983D01*
X103241221Y-88034348D01*
X103276863Y-88015296D01*
X103315534Y-88003565D01*
X103361888Y-87999000D01*
X104013112Y-87999000D01*
X104059466Y-88003565D01*
X104059466Y-88003565D01*
G37*
G36*
X60807396Y-87565546D02*
X60980466Y-87637234D01*
X61136230Y-87741312D01*
X61268688Y-87873770D01*
X61372766Y-88029534D01*
X61444454Y-88202604D01*
X61481000Y-88386333D01*
X61481000Y-88573667D01*
X61444454Y-88757396D01*
X61372766Y-88930466D01*
X61268688Y-89086230D01*
X61136230Y-89218688D01*
X60980466Y-89322766D01*
X60807396Y-89394454D01*
X60623667Y-89431000D01*
X60436333Y-89431000D01*
X60252604Y-89394454D01*
X60079534Y-89322766D01*
X59923770Y-89218688D01*
X59791312Y-89086230D01*
X59687234Y-88930466D01*
X59615546Y-88757396D01*
X59579000Y-88573667D01*
X59579000Y-88386333D01*
X59615546Y-88202604D01*
X59687234Y-88029534D01*
X59791312Y-87873770D01*
X59923770Y-87741312D01*
X60079534Y-87637234D01*
X60252604Y-87565546D01*
X60436333Y-87529000D01*
X60623667Y-87529000D01*
X60807396Y-87565546D01*
X60807396Y-87565546D01*
G37*
G36*
X63347396Y-87565546D02*
X63520466Y-87637234D01*
X63676230Y-87741312D01*
X63808688Y-87873770D01*
X63912766Y-88029534D01*
X63984454Y-88202604D01*
X64021000Y-88386333D01*
X64021000Y-88573667D01*
X63984454Y-88757396D01*
X63912766Y-88930466D01*
X63808688Y-89086230D01*
X63676230Y-89218688D01*
X63520466Y-89322766D01*
X63347396Y-89394454D01*
X63163667Y-89431000D01*
X62976333Y-89431000D01*
X62792604Y-89394454D01*
X62619534Y-89322766D01*
X62463770Y-89218688D01*
X62331312Y-89086230D01*
X62227234Y-88930466D01*
X62155546Y-88757396D01*
X62119000Y-88573667D01*
X62119000Y-88386333D01*
X62155546Y-88202604D01*
X62227234Y-88029534D01*
X62331312Y-87873770D01*
X62463770Y-87741312D01*
X62619534Y-87637234D01*
X62792604Y-87565546D01*
X62976333Y-87529000D01*
X63163667Y-87529000D01*
X63347396Y-87565546D01*
X63347396Y-87565546D01*
G37*
G36*
X83551000Y-89285584D02*
X82549000Y-89285584D01*
X82549000Y-88383584D01*
X83551000Y-88383584D01*
X83551000Y-89285584D01*
X83551000Y-89285584D01*
G37*
G36*
X81551000Y-88335584D02*
X80549000Y-88335584D01*
X80549000Y-87433584D01*
X81551000Y-87433584D01*
X81551000Y-88335584D01*
X81551000Y-88335584D01*
G37*
G36*
X73789466Y-86553565D02*
X73828137Y-86565296D01*
X73863779Y-86584348D01*
X73895017Y-86609983D01*
X73920652Y-86641221D01*
X73939704Y-86676863D01*
X73951435Y-86715534D01*
X73956000Y-86761888D01*
X73956000Y-87838112D01*
X73951435Y-87884466D01*
X73939704Y-87923137D01*
X73920652Y-87958779D01*
X73895017Y-87990017D01*
X73863779Y-88015652D01*
X73828137Y-88034704D01*
X73789466Y-88046435D01*
X73743112Y-88051000D01*
X73091888Y-88051000D01*
X73045534Y-88046435D01*
X73006863Y-88034704D01*
X72971221Y-88015652D01*
X72939983Y-87990017D01*
X72914348Y-87958779D01*
X72895296Y-87923137D01*
X72883565Y-87884466D01*
X72879000Y-87838112D01*
X72879000Y-86761888D01*
X72883565Y-86715534D01*
X72895296Y-86676863D01*
X72914348Y-86641221D01*
X72939983Y-86609983D01*
X72971221Y-86584348D01*
X73006863Y-86565296D01*
X73045534Y-86553565D01*
X73091888Y-86549000D01*
X73743112Y-86549000D01*
X73789466Y-86553565D01*
X73789466Y-86553565D01*
G37*
G36*
X71914466Y-86553565D02*
X71953137Y-86565296D01*
X71988779Y-86584348D01*
X72020017Y-86609983D01*
X72045652Y-86641221D01*
X72064704Y-86676863D01*
X72076435Y-86715534D01*
X72081000Y-86761888D01*
X72081000Y-87838112D01*
X72076435Y-87884466D01*
X72064704Y-87923137D01*
X72045652Y-87958779D01*
X72020017Y-87990017D01*
X71988779Y-88015652D01*
X71953137Y-88034704D01*
X71914466Y-88046435D01*
X71868112Y-88051000D01*
X71216888Y-88051000D01*
X71170534Y-88046435D01*
X71131863Y-88034704D01*
X71096221Y-88015652D01*
X71064983Y-87990017D01*
X71039348Y-87958779D01*
X71020296Y-87923137D01*
X71008565Y-87884466D01*
X71004000Y-87838112D01*
X71004000Y-86761888D01*
X71008565Y-86715534D01*
X71020296Y-86676863D01*
X71039348Y-86641221D01*
X71064983Y-86609983D01*
X71096221Y-86584348D01*
X71131863Y-86565296D01*
X71170534Y-86553565D01*
X71216888Y-86549000D01*
X71868112Y-86549000D01*
X71914466Y-86553565D01*
X71914466Y-86553565D01*
G37*
G36*
X83551000Y-87385584D02*
X82549000Y-87385584D01*
X82549000Y-86483584D01*
X83551000Y-86483584D01*
X83551000Y-87385584D01*
X83551000Y-87385584D01*
G37*
G36*
X60807396Y-85025546D02*
X60980466Y-85097234D01*
X61136230Y-85201312D01*
X61268688Y-85333770D01*
X61372766Y-85489534D01*
X61444454Y-85662604D01*
X61481000Y-85846333D01*
X61481000Y-86033667D01*
X61444454Y-86217396D01*
X61372766Y-86390466D01*
X61268688Y-86546230D01*
X61136230Y-86678688D01*
X60980466Y-86782766D01*
X60807396Y-86854454D01*
X60623667Y-86891000D01*
X60436333Y-86891000D01*
X60252604Y-86854454D01*
X60079534Y-86782766D01*
X59923770Y-86678688D01*
X59791312Y-86546230D01*
X59687234Y-86390466D01*
X59615546Y-86217396D01*
X59579000Y-86033667D01*
X59579000Y-85846333D01*
X59615546Y-85662604D01*
X59687234Y-85489534D01*
X59791312Y-85333770D01*
X59923770Y-85201312D01*
X60079534Y-85097234D01*
X60252604Y-85025546D01*
X60436333Y-84989000D01*
X60623667Y-84989000D01*
X60807396Y-85025546D01*
X60807396Y-85025546D01*
G37*
G36*
X63347396Y-85025546D02*
X63520466Y-85097234D01*
X63676230Y-85201312D01*
X63808688Y-85333770D01*
X63912766Y-85489534D01*
X63984454Y-85662604D01*
X64021000Y-85846333D01*
X64021000Y-86033667D01*
X63984454Y-86217396D01*
X63912766Y-86390466D01*
X63808688Y-86546230D01*
X63676230Y-86678688D01*
X63520466Y-86782766D01*
X63347396Y-86854454D01*
X63163667Y-86891000D01*
X62976333Y-86891000D01*
X62792604Y-86854454D01*
X62619534Y-86782766D01*
X62463770Y-86678688D01*
X62331312Y-86546230D01*
X62227234Y-86390466D01*
X62155546Y-86217396D01*
X62119000Y-86033667D01*
X62119000Y-85846333D01*
X62155546Y-85662604D01*
X62227234Y-85489534D01*
X62331312Y-85333770D01*
X62463770Y-85201312D01*
X62619534Y-85097234D01*
X62792604Y-85025546D01*
X62976333Y-84989000D01*
X63163667Y-84989000D01*
X63347396Y-85025546D01*
X63347396Y-85025546D01*
G37*
G36*
X74001000Y-85868378D02*
X72999000Y-85868378D01*
X72999000Y-84966378D01*
X74001000Y-84966378D01*
X74001000Y-85868378D01*
X74001000Y-85868378D01*
G37*
G36*
X81464466Y-84353565D02*
X81503137Y-84365296D01*
X81538779Y-84384348D01*
X81570017Y-84409983D01*
X81595652Y-84441221D01*
X81614704Y-84476863D01*
X81626435Y-84515534D01*
X81631000Y-84561888D01*
X81631000Y-85638112D01*
X81626435Y-85684466D01*
X81614704Y-85723137D01*
X81595652Y-85758779D01*
X81570017Y-85790017D01*
X81538779Y-85815652D01*
X81503137Y-85834704D01*
X81464466Y-85846435D01*
X81418112Y-85851000D01*
X80766888Y-85851000D01*
X80720534Y-85846435D01*
X80681863Y-85834704D01*
X80646221Y-85815652D01*
X80614983Y-85790017D01*
X80589348Y-85758779D01*
X80570296Y-85723137D01*
X80558565Y-85684466D01*
X80554000Y-85638112D01*
X80554000Y-84561888D01*
X80558565Y-84515534D01*
X80570296Y-84476863D01*
X80589348Y-84441221D01*
X80614983Y-84409983D01*
X80646221Y-84384348D01*
X80681863Y-84365296D01*
X80720534Y-84353565D01*
X80766888Y-84349000D01*
X81418112Y-84349000D01*
X81464466Y-84353565D01*
X81464466Y-84353565D01*
G37*
G36*
X83339466Y-84353565D02*
X83378137Y-84365296D01*
X83413779Y-84384348D01*
X83445017Y-84409983D01*
X83470652Y-84441221D01*
X83489704Y-84476863D01*
X83501435Y-84515534D01*
X83506000Y-84561888D01*
X83506000Y-85638112D01*
X83501435Y-85684466D01*
X83489704Y-85723137D01*
X83470652Y-85758779D01*
X83445017Y-85790017D01*
X83413779Y-85815652D01*
X83378137Y-85834704D01*
X83339466Y-85846435D01*
X83293112Y-85851000D01*
X82641888Y-85851000D01*
X82595534Y-85846435D01*
X82556863Y-85834704D01*
X82521221Y-85815652D01*
X82489983Y-85790017D01*
X82464348Y-85758779D01*
X82445296Y-85723137D01*
X82433565Y-85684466D01*
X82429000Y-85638112D01*
X82429000Y-84561888D01*
X82433565Y-84515534D01*
X82445296Y-84476863D01*
X82464348Y-84441221D01*
X82489983Y-84409983D01*
X82521221Y-84384348D01*
X82556863Y-84365296D01*
X82595534Y-84353565D01*
X82641888Y-84349000D01*
X83293112Y-84349000D01*
X83339466Y-84353565D01*
X83339466Y-84353565D01*
G37*
G36*
X72001000Y-84918378D02*
X70999000Y-84918378D01*
X70999000Y-84016378D01*
X72001000Y-84016378D01*
X72001000Y-84918378D01*
X72001000Y-84918378D01*
G37*
G36*
X90805734Y-82393232D02*
X91015202Y-82479996D01*
X91203723Y-82605962D01*
X91364038Y-82766277D01*
X91490004Y-82954798D01*
X91576768Y-83164266D01*
X91621000Y-83386635D01*
X91621000Y-83613365D01*
X91576768Y-83835734D01*
X91490004Y-84045202D01*
X91364038Y-84233723D01*
X91203723Y-84394038D01*
X91015202Y-84520004D01*
X90805734Y-84606768D01*
X90583365Y-84651000D01*
X90356635Y-84651000D01*
X90134266Y-84606768D01*
X89924798Y-84520004D01*
X89736277Y-84394038D01*
X89575962Y-84233723D01*
X89449996Y-84045202D01*
X89363232Y-83835734D01*
X89319000Y-83613365D01*
X89319000Y-83386635D01*
X89363232Y-83164266D01*
X89449996Y-82954798D01*
X89575962Y-82766277D01*
X89736277Y-82605962D01*
X89924798Y-82479996D01*
X90134266Y-82393232D01*
X90356635Y-82349000D01*
X90583365Y-82349000D01*
X90805734Y-82393232D01*
X90805734Y-82393232D01*
G37*
G36*
X60807396Y-82485546D02*
X60980466Y-82557234D01*
X61136230Y-82661312D01*
X61268688Y-82793770D01*
X61372766Y-82949534D01*
X61444454Y-83122604D01*
X61481000Y-83306333D01*
X61481000Y-83493667D01*
X61444454Y-83677396D01*
X61372766Y-83850466D01*
X61268688Y-84006230D01*
X61136230Y-84138688D01*
X60980466Y-84242766D01*
X60807396Y-84314454D01*
X60623667Y-84351000D01*
X60436333Y-84351000D01*
X60252604Y-84314454D01*
X60079534Y-84242766D01*
X59923770Y-84138688D01*
X59791312Y-84006230D01*
X59687234Y-83850466D01*
X59615546Y-83677396D01*
X59579000Y-83493667D01*
X59579000Y-83306333D01*
X59615546Y-83122604D01*
X59687234Y-82949534D01*
X59791312Y-82793770D01*
X59923770Y-82661312D01*
X60079534Y-82557234D01*
X60252604Y-82485546D01*
X60436333Y-82449000D01*
X60623667Y-82449000D01*
X60807396Y-82485546D01*
X60807396Y-82485546D01*
G37*
G36*
X63347396Y-82485546D02*
X63520466Y-82557234D01*
X63676230Y-82661312D01*
X63808688Y-82793770D01*
X63912766Y-82949534D01*
X63984454Y-83122604D01*
X64021000Y-83306333D01*
X64021000Y-83493667D01*
X63984454Y-83677396D01*
X63912766Y-83850466D01*
X63808688Y-84006230D01*
X63676230Y-84138688D01*
X63520466Y-84242766D01*
X63347396Y-84314454D01*
X63163667Y-84351000D01*
X62976333Y-84351000D01*
X62792604Y-84314454D01*
X62619534Y-84242766D01*
X62463770Y-84138688D01*
X62331312Y-84006230D01*
X62227234Y-83850466D01*
X62155546Y-83677396D01*
X62119000Y-83493667D01*
X62119000Y-83306333D01*
X62155546Y-83122604D01*
X62227234Y-82949534D01*
X62331312Y-82793770D01*
X62463770Y-82661312D01*
X62619534Y-82557234D01*
X62792604Y-82485546D01*
X62976333Y-82449000D01*
X63163667Y-82449000D01*
X63347396Y-82485546D01*
X63347396Y-82485546D01*
G37*
G36*
X74001000Y-83968378D02*
X72999000Y-83968378D01*
X72999000Y-83066378D01*
X74001000Y-83066378D01*
X74001000Y-83968378D01*
X74001000Y-83968378D01*
G37*
G36*
X83551000Y-83729820D02*
X82549000Y-83729820D01*
X82549000Y-82827820D01*
X83551000Y-82827820D01*
X83551000Y-83729820D01*
X83551000Y-83729820D01*
G37*
G36*
X81551000Y-82779820D02*
X80549000Y-82779820D01*
X80549000Y-81877820D01*
X81551000Y-81877820D01*
X81551000Y-82779820D01*
X81551000Y-82779820D01*
G37*
G36*
X73789466Y-80853565D02*
X73828137Y-80865296D01*
X73863779Y-80884348D01*
X73895017Y-80909983D01*
X73920652Y-80941221D01*
X73939704Y-80976863D01*
X73951435Y-81015534D01*
X73956000Y-81061888D01*
X73956000Y-82138112D01*
X73951435Y-82184466D01*
X73939704Y-82223137D01*
X73920652Y-82258779D01*
X73895017Y-82290017D01*
X73863779Y-82315652D01*
X73828137Y-82334704D01*
X73789466Y-82346435D01*
X73743112Y-82351000D01*
X73091888Y-82351000D01*
X73045534Y-82346435D01*
X73006863Y-82334704D01*
X72971221Y-82315652D01*
X72939983Y-82290017D01*
X72914348Y-82258779D01*
X72895296Y-82223137D01*
X72883565Y-82184466D01*
X72879000Y-82138112D01*
X72879000Y-81061888D01*
X72883565Y-81015534D01*
X72895296Y-80976863D01*
X72914348Y-80941221D01*
X72939983Y-80909983D01*
X72971221Y-80884348D01*
X73006863Y-80865296D01*
X73045534Y-80853565D01*
X73091888Y-80849000D01*
X73743112Y-80849000D01*
X73789466Y-80853565D01*
X73789466Y-80853565D01*
G37*
G36*
X71914466Y-80853565D02*
X71953137Y-80865296D01*
X71988779Y-80884348D01*
X72020017Y-80909983D01*
X72045652Y-80941221D01*
X72064704Y-80976863D01*
X72076435Y-81015534D01*
X72081000Y-81061888D01*
X72081000Y-82138112D01*
X72076435Y-82184466D01*
X72064704Y-82223137D01*
X72045652Y-82258779D01*
X72020017Y-82290017D01*
X71988779Y-82315652D01*
X71953137Y-82334704D01*
X71914466Y-82346435D01*
X71868112Y-82351000D01*
X71216888Y-82351000D01*
X71170534Y-82346435D01*
X71131863Y-82334704D01*
X71096221Y-82315652D01*
X71064983Y-82290017D01*
X71039348Y-82258779D01*
X71020296Y-82223137D01*
X71008565Y-82184466D01*
X71004000Y-82138112D01*
X71004000Y-81061888D01*
X71008565Y-81015534D01*
X71020296Y-80976863D01*
X71039348Y-80941221D01*
X71064983Y-80909983D01*
X71096221Y-80884348D01*
X71131863Y-80865296D01*
X71170534Y-80853565D01*
X71216888Y-80849000D01*
X71868112Y-80849000D01*
X71914466Y-80853565D01*
X71914466Y-80853565D01*
G37*
G36*
X95805734Y-79893232D02*
X96015202Y-79979996D01*
X96203723Y-80105962D01*
X96364038Y-80266277D01*
X96490004Y-80454798D01*
X96576768Y-80664266D01*
X96621000Y-80886635D01*
X96621000Y-81113365D01*
X96576768Y-81335734D01*
X96490004Y-81545202D01*
X96364038Y-81733723D01*
X96203723Y-81894038D01*
X96015202Y-82020004D01*
X95805734Y-82106768D01*
X95583365Y-82151000D01*
X95356635Y-82151000D01*
X95134266Y-82106768D01*
X94924798Y-82020004D01*
X94736277Y-81894038D01*
X94575962Y-81733723D01*
X94449996Y-81545202D01*
X94363232Y-81335734D01*
X94319000Y-81113365D01*
X94319000Y-80886635D01*
X94363232Y-80664266D01*
X94449996Y-80454798D01*
X94575962Y-80266277D01*
X94736277Y-80105962D01*
X94924798Y-79979996D01*
X95134266Y-79893232D01*
X95356635Y-79849000D01*
X95583365Y-79849000D01*
X95805734Y-79893232D01*
X95805734Y-79893232D01*
G37*
G36*
X83551000Y-81829820D02*
X82549000Y-81829820D01*
X82549000Y-80927820D01*
X83551000Y-80927820D01*
X83551000Y-81829820D01*
X83551000Y-81829820D01*
G37*
G36*
X63347396Y-79945546D02*
X63520466Y-80017234D01*
X63676230Y-80121312D01*
X63808688Y-80253770D01*
X63912766Y-80409534D01*
X63984454Y-80582604D01*
X64021000Y-80766333D01*
X64021000Y-80953667D01*
X63984454Y-81137396D01*
X63912766Y-81310466D01*
X63808688Y-81466230D01*
X63676230Y-81598688D01*
X63520466Y-81702766D01*
X63347396Y-81774454D01*
X63163667Y-81811000D01*
X62976333Y-81811000D01*
X62792604Y-81774454D01*
X62619534Y-81702766D01*
X62463770Y-81598688D01*
X62331312Y-81466230D01*
X62227234Y-81310466D01*
X62155546Y-81137396D01*
X62119000Y-80953667D01*
X62119000Y-80766333D01*
X62155546Y-80582604D01*
X62227234Y-80409534D01*
X62331312Y-80253770D01*
X62463770Y-80121312D01*
X62619534Y-80017234D01*
X62792604Y-79945546D01*
X62976333Y-79909000D01*
X63163667Y-79909000D01*
X63347396Y-79945546D01*
X63347396Y-79945546D01*
G37*
G36*
X60807396Y-79945546D02*
X60980466Y-80017234D01*
X61136230Y-80121312D01*
X61268688Y-80253770D01*
X61372766Y-80409534D01*
X61444454Y-80582604D01*
X61481000Y-80766333D01*
X61481000Y-80953667D01*
X61444454Y-81137396D01*
X61372766Y-81310466D01*
X61268688Y-81466230D01*
X61136230Y-81598688D01*
X60980466Y-81702766D01*
X60807396Y-81774454D01*
X60623667Y-81811000D01*
X60436333Y-81811000D01*
X60252604Y-81774454D01*
X60079534Y-81702766D01*
X59923770Y-81598688D01*
X59791312Y-81466230D01*
X59687234Y-81310466D01*
X59615546Y-81137396D01*
X59579000Y-80953667D01*
X59579000Y-80766333D01*
X59615546Y-80582604D01*
X59687234Y-80409534D01*
X59791312Y-80253770D01*
X59923770Y-80121312D01*
X60079534Y-80017234D01*
X60252604Y-79945546D01*
X60436333Y-79909000D01*
X60623667Y-79909000D01*
X60807396Y-79945546D01*
X60807396Y-79945546D01*
G37*
G36*
X83339466Y-78753565D02*
X83378137Y-78765296D01*
X83413779Y-78784348D01*
X83445017Y-78809983D01*
X83470652Y-78841221D01*
X83489704Y-78876863D01*
X83501435Y-78915534D01*
X83506000Y-78961888D01*
X83506000Y-80038112D01*
X83501435Y-80084466D01*
X83489704Y-80123137D01*
X83470652Y-80158779D01*
X83445017Y-80190017D01*
X83413779Y-80215652D01*
X83378137Y-80234704D01*
X83339466Y-80246435D01*
X83293112Y-80251000D01*
X82641888Y-80251000D01*
X82595534Y-80246435D01*
X82556863Y-80234704D01*
X82521221Y-80215652D01*
X82489983Y-80190017D01*
X82464348Y-80158779D01*
X82445296Y-80123137D01*
X82433565Y-80084466D01*
X82429000Y-80038112D01*
X82429000Y-78961888D01*
X82433565Y-78915534D01*
X82445296Y-78876863D01*
X82464348Y-78841221D01*
X82489983Y-78809983D01*
X82521221Y-78784348D01*
X82556863Y-78765296D01*
X82595534Y-78753565D01*
X82641888Y-78749000D01*
X83293112Y-78749000D01*
X83339466Y-78753565D01*
X83339466Y-78753565D01*
G37*
G36*
X81464466Y-78753565D02*
X81503137Y-78765296D01*
X81538779Y-78784348D01*
X81570017Y-78809983D01*
X81595652Y-78841221D01*
X81614704Y-78876863D01*
X81626435Y-78915534D01*
X81631000Y-78961888D01*
X81631000Y-80038112D01*
X81626435Y-80084466D01*
X81614704Y-80123137D01*
X81595652Y-80158779D01*
X81570017Y-80190017D01*
X81538779Y-80215652D01*
X81503137Y-80234704D01*
X81464466Y-80246435D01*
X81418112Y-80251000D01*
X80766888Y-80251000D01*
X80720534Y-80246435D01*
X80681863Y-80234704D01*
X80646221Y-80215652D01*
X80614983Y-80190017D01*
X80589348Y-80158779D01*
X80570296Y-80123137D01*
X80558565Y-80084466D01*
X80554000Y-80038112D01*
X80554000Y-78961888D01*
X80558565Y-78915534D01*
X80570296Y-78876863D01*
X80589348Y-78841221D01*
X80614983Y-78809983D01*
X80646221Y-78784348D01*
X80681863Y-78765296D01*
X80720534Y-78753565D01*
X80766888Y-78749000D01*
X81418112Y-78749000D01*
X81464466Y-78753565D01*
X81464466Y-78753565D01*
G37*
G36*
X74001000Y-80155336D02*
X72999000Y-80155336D01*
X72999000Y-79253336D01*
X74001000Y-79253336D01*
X74001000Y-80155336D01*
X74001000Y-80155336D01*
G37*
G36*
X60807396Y-77405546D02*
X60980466Y-77477234D01*
X61136230Y-77581312D01*
X61268688Y-77713770D01*
X61372766Y-77869534D01*
X61444454Y-78042604D01*
X61481000Y-78226333D01*
X61481000Y-78413667D01*
X61444454Y-78597396D01*
X61372766Y-78770466D01*
X61268688Y-78926230D01*
X61136230Y-79058688D01*
X60980466Y-79162766D01*
X60807396Y-79234454D01*
X60623667Y-79271000D01*
X60436333Y-79271000D01*
X60252604Y-79234454D01*
X60079534Y-79162766D01*
X59923770Y-79058688D01*
X59791312Y-78926230D01*
X59687234Y-78770466D01*
X59615546Y-78597396D01*
X59579000Y-78413667D01*
X59579000Y-78226333D01*
X59615546Y-78042604D01*
X59687234Y-77869534D01*
X59791312Y-77713770D01*
X59923770Y-77581312D01*
X60079534Y-77477234D01*
X60252604Y-77405546D01*
X60436333Y-77369000D01*
X60623667Y-77369000D01*
X60807396Y-77405546D01*
X60807396Y-77405546D01*
G37*
G36*
X63347396Y-77405546D02*
X63520466Y-77477234D01*
X63676230Y-77581312D01*
X63808688Y-77713770D01*
X63912766Y-77869534D01*
X63984454Y-78042604D01*
X64021000Y-78226333D01*
X64021000Y-78413667D01*
X63984454Y-78597396D01*
X63912766Y-78770466D01*
X63808688Y-78926230D01*
X63676230Y-79058688D01*
X63520466Y-79162766D01*
X63347396Y-79234454D01*
X63163667Y-79271000D01*
X62976333Y-79271000D01*
X62792604Y-79234454D01*
X62619534Y-79162766D01*
X62463770Y-79058688D01*
X62331312Y-78926230D01*
X62227234Y-78770466D01*
X62155546Y-78597396D01*
X62119000Y-78413667D01*
X62119000Y-78226333D01*
X62155546Y-78042604D01*
X62227234Y-77869534D01*
X62331312Y-77713770D01*
X62463770Y-77581312D01*
X62619534Y-77477234D01*
X62792604Y-77405546D01*
X62976333Y-77369000D01*
X63163667Y-77369000D01*
X63347396Y-77405546D01*
X63347396Y-77405546D01*
G37*
G36*
X72001000Y-79205336D02*
X70999000Y-79205336D01*
X70999000Y-78303336D01*
X72001000Y-78303336D01*
X72001000Y-79205336D01*
X72001000Y-79205336D01*
G37*
G36*
X74001000Y-78255336D02*
X72999000Y-78255336D01*
X72999000Y-77353336D01*
X74001000Y-77353336D01*
X74001000Y-78255336D01*
X74001000Y-78255336D01*
G37*
G36*
X83551000Y-78074056D02*
X82549000Y-78074056D01*
X82549000Y-77172056D01*
X83551000Y-77172056D01*
X83551000Y-78074056D01*
X83551000Y-78074056D01*
G37*
G36*
X104009466Y-76413565D02*
X104048137Y-76425296D01*
X104083779Y-76444348D01*
X104115017Y-76469983D01*
X104140652Y-76501221D01*
X104159704Y-76536863D01*
X104171435Y-76575534D01*
X104176000Y-76621888D01*
X104176000Y-77698112D01*
X104171435Y-77744466D01*
X104159704Y-77783137D01*
X104140652Y-77818779D01*
X104115017Y-77850017D01*
X104083779Y-77875652D01*
X104048137Y-77894704D01*
X104009466Y-77906435D01*
X103963112Y-77911000D01*
X103311888Y-77911000D01*
X103265534Y-77906435D01*
X103226863Y-77894704D01*
X103191221Y-77875652D01*
X103159983Y-77850017D01*
X103134348Y-77818779D01*
X103115296Y-77783137D01*
X103103565Y-77744466D01*
X103099000Y-77698112D01*
X103099000Y-76621888D01*
X103103565Y-76575534D01*
X103115296Y-76536863D01*
X103134348Y-76501221D01*
X103159983Y-76469983D01*
X103191221Y-76444348D01*
X103226863Y-76425296D01*
X103265534Y-76413565D01*
X103311888Y-76409000D01*
X103963112Y-76409000D01*
X104009466Y-76413565D01*
X104009466Y-76413565D01*
G37*
G36*
X102134466Y-76413565D02*
X102173137Y-76425296D01*
X102208779Y-76444348D01*
X102240017Y-76469983D01*
X102265652Y-76501221D01*
X102284704Y-76536863D01*
X102296435Y-76575534D01*
X102301000Y-76621888D01*
X102301000Y-77698112D01*
X102296435Y-77744466D01*
X102284704Y-77783137D01*
X102265652Y-77818779D01*
X102240017Y-77850017D01*
X102208779Y-77875652D01*
X102173137Y-77894704D01*
X102134466Y-77906435D01*
X102088112Y-77911000D01*
X101436888Y-77911000D01*
X101390534Y-77906435D01*
X101351863Y-77894704D01*
X101316221Y-77875652D01*
X101284983Y-77850017D01*
X101259348Y-77818779D01*
X101240296Y-77783137D01*
X101228565Y-77744466D01*
X101224000Y-77698112D01*
X101224000Y-76621888D01*
X101228565Y-76575534D01*
X101240296Y-76536863D01*
X101259348Y-76501221D01*
X101284983Y-76469983D01*
X101316221Y-76444348D01*
X101351863Y-76425296D01*
X101390534Y-76413565D01*
X101436888Y-76409000D01*
X102088112Y-76409000D01*
X102134466Y-76413565D01*
X102134466Y-76413565D01*
G37*
G36*
X81551000Y-77124056D02*
X80549000Y-77124056D01*
X80549000Y-76222056D01*
X81551000Y-76222056D01*
X81551000Y-77124056D01*
X81551000Y-77124056D01*
G37*
G36*
X63347396Y-74865546D02*
X63520466Y-74937234D01*
X63676230Y-75041312D01*
X63808688Y-75173770D01*
X63912766Y-75329534D01*
X63984454Y-75502604D01*
X64021000Y-75686333D01*
X64021000Y-75873667D01*
X63984454Y-76057396D01*
X63912766Y-76230466D01*
X63808688Y-76386230D01*
X63676230Y-76518688D01*
X63520466Y-76622766D01*
X63347396Y-76694454D01*
X63163667Y-76731000D01*
X62976333Y-76731000D01*
X62792604Y-76694454D01*
X62619534Y-76622766D01*
X62463770Y-76518688D01*
X62331312Y-76386230D01*
X62227234Y-76230466D01*
X62155546Y-76057396D01*
X62119000Y-75873667D01*
X62119000Y-75686333D01*
X62155546Y-75502604D01*
X62227234Y-75329534D01*
X62331312Y-75173770D01*
X62463770Y-75041312D01*
X62619534Y-74937234D01*
X62792604Y-74865546D01*
X62976333Y-74829000D01*
X63163667Y-74829000D01*
X63347396Y-74865546D01*
X63347396Y-74865546D01*
G37*
G36*
X60807396Y-74865546D02*
X60980466Y-74937234D01*
X61136230Y-75041312D01*
X61268688Y-75173770D01*
X61372766Y-75329534D01*
X61444454Y-75502604D01*
X61481000Y-75686333D01*
X61481000Y-75873667D01*
X61444454Y-76057396D01*
X61372766Y-76230466D01*
X61268688Y-76386230D01*
X61136230Y-76518688D01*
X60980466Y-76622766D01*
X60807396Y-76694454D01*
X60623667Y-76731000D01*
X60436333Y-76731000D01*
X60252604Y-76694454D01*
X60079534Y-76622766D01*
X59923770Y-76518688D01*
X59791312Y-76386230D01*
X59687234Y-76230466D01*
X59615546Y-76057396D01*
X59579000Y-75873667D01*
X59579000Y-75686333D01*
X59615546Y-75502604D01*
X59687234Y-75329534D01*
X59791312Y-75173770D01*
X59923770Y-75041312D01*
X60079534Y-74937234D01*
X60252604Y-74865546D01*
X60436333Y-74829000D01*
X60623667Y-74829000D01*
X60807396Y-74865546D01*
X60807396Y-74865546D01*
G37*
G36*
X73809466Y-75153565D02*
X73848137Y-75165296D01*
X73883779Y-75184348D01*
X73915017Y-75209983D01*
X73940652Y-75241221D01*
X73959704Y-75276863D01*
X73971435Y-75315534D01*
X73976000Y-75361888D01*
X73976000Y-76438112D01*
X73971435Y-76484466D01*
X73959704Y-76523137D01*
X73940652Y-76558779D01*
X73915017Y-76590017D01*
X73883779Y-76615652D01*
X73848137Y-76634704D01*
X73809466Y-76646435D01*
X73763112Y-76651000D01*
X73111888Y-76651000D01*
X73065534Y-76646435D01*
X73026863Y-76634704D01*
X72991221Y-76615652D01*
X72959983Y-76590017D01*
X72934348Y-76558779D01*
X72915296Y-76523137D01*
X72903565Y-76484466D01*
X72899000Y-76438112D01*
X72899000Y-75361888D01*
X72903565Y-75315534D01*
X72915296Y-75276863D01*
X72934348Y-75241221D01*
X72959983Y-75209983D01*
X72991221Y-75184348D01*
X73026863Y-75165296D01*
X73065534Y-75153565D01*
X73111888Y-75149000D01*
X73763112Y-75149000D01*
X73809466Y-75153565D01*
X73809466Y-75153565D01*
G37*
G36*
X71934466Y-75153565D02*
X71973137Y-75165296D01*
X72008779Y-75184348D01*
X72040017Y-75209983D01*
X72065652Y-75241221D01*
X72084704Y-75276863D01*
X72096435Y-75315534D01*
X72101000Y-75361888D01*
X72101000Y-76438112D01*
X72096435Y-76484466D01*
X72084704Y-76523137D01*
X72065652Y-76558779D01*
X72040017Y-76590017D01*
X72008779Y-76615652D01*
X71973137Y-76634704D01*
X71934466Y-76646435D01*
X71888112Y-76651000D01*
X71236888Y-76651000D01*
X71190534Y-76646435D01*
X71151863Y-76634704D01*
X71116221Y-76615652D01*
X71084983Y-76590017D01*
X71059348Y-76558779D01*
X71040296Y-76523137D01*
X71028565Y-76484466D01*
X71024000Y-76438112D01*
X71024000Y-75361888D01*
X71028565Y-75315534D01*
X71040296Y-75276863D01*
X71059348Y-75241221D01*
X71084983Y-75209983D01*
X71116221Y-75184348D01*
X71151863Y-75165296D01*
X71190534Y-75153565D01*
X71236888Y-75149000D01*
X71888112Y-75149000D01*
X71934466Y-75153565D01*
X71934466Y-75153565D01*
G37*
G36*
X83551000Y-76174056D02*
X82549000Y-76174056D01*
X82549000Y-75272056D01*
X83551000Y-75272056D01*
X83551000Y-76174056D01*
X83551000Y-76174056D01*
G37*
G36*
X91085734Y-73843232D02*
X91295202Y-73929996D01*
X91483723Y-74055962D01*
X91644038Y-74216277D01*
X91770004Y-74404798D01*
X91856768Y-74614266D01*
X91901000Y-74836635D01*
X91901000Y-75063365D01*
X91856768Y-75285734D01*
X91770004Y-75495202D01*
X91644038Y-75683723D01*
X91483723Y-75844038D01*
X91295202Y-75970004D01*
X91085734Y-76056768D01*
X90863365Y-76101000D01*
X90636635Y-76101000D01*
X90414266Y-76056768D01*
X90204798Y-75970004D01*
X90016277Y-75844038D01*
X89855962Y-75683723D01*
X89729996Y-75495202D01*
X89643232Y-75285734D01*
X89599000Y-75063365D01*
X89599000Y-74836635D01*
X89643232Y-74614266D01*
X89729996Y-74404798D01*
X89855962Y-74216277D01*
X90016277Y-74055962D01*
X90204798Y-73929996D01*
X90414266Y-73843232D01*
X90636635Y-73799000D01*
X90863365Y-73799000D01*
X91085734Y-73843232D01*
X91085734Y-73843232D01*
G37*
G36*
X102134466Y-73640835D02*
X102173137Y-73652566D01*
X102208779Y-73671618D01*
X102240017Y-73697253D01*
X102265652Y-73728491D01*
X102284704Y-73764133D01*
X102296435Y-73802804D01*
X102301000Y-73849158D01*
X102301000Y-74925382D01*
X102296435Y-74971736D01*
X102284704Y-75010407D01*
X102265652Y-75046049D01*
X102240017Y-75077287D01*
X102208779Y-75102922D01*
X102173137Y-75121974D01*
X102134466Y-75133705D01*
X102088112Y-75138270D01*
X101436888Y-75138270D01*
X101390534Y-75133705D01*
X101351863Y-75121974D01*
X101316221Y-75102922D01*
X101284983Y-75077287D01*
X101259348Y-75046049D01*
X101240296Y-75010407D01*
X101228565Y-74971736D01*
X101224000Y-74925382D01*
X101224000Y-73849158D01*
X101228565Y-73802804D01*
X101240296Y-73764133D01*
X101259348Y-73728491D01*
X101284983Y-73697253D01*
X101316221Y-73671618D01*
X101351863Y-73652566D01*
X101390534Y-73640835D01*
X101436888Y-73636270D01*
X102088112Y-73636270D01*
X102134466Y-73640835D01*
X102134466Y-73640835D01*
G37*
G36*
X104009466Y-73640835D02*
X104048137Y-73652566D01*
X104083779Y-73671618D01*
X104115017Y-73697253D01*
X104140652Y-73728491D01*
X104159704Y-73764133D01*
X104171435Y-73802804D01*
X104176000Y-73849158D01*
X104176000Y-74925382D01*
X104171435Y-74971736D01*
X104159704Y-75010407D01*
X104140652Y-75046049D01*
X104115017Y-75077287D01*
X104083779Y-75102922D01*
X104048137Y-75121974D01*
X104009466Y-75133705D01*
X103963112Y-75138270D01*
X103311888Y-75138270D01*
X103265534Y-75133705D01*
X103226863Y-75121974D01*
X103191221Y-75102922D01*
X103159983Y-75077287D01*
X103134348Y-75046049D01*
X103115296Y-75010407D01*
X103103565Y-74971736D01*
X103099000Y-74925382D01*
X103099000Y-73849158D01*
X103103565Y-73802804D01*
X103115296Y-73764133D01*
X103134348Y-73728491D01*
X103159983Y-73697253D01*
X103191221Y-73671618D01*
X103226863Y-73652566D01*
X103265534Y-73640835D01*
X103311888Y-73636270D01*
X103963112Y-73636270D01*
X104009466Y-73640835D01*
X104009466Y-73640835D01*
G37*
G36*
X81464466Y-73153565D02*
X81503137Y-73165296D01*
X81538779Y-73184348D01*
X81570017Y-73209983D01*
X81595652Y-73241221D01*
X81614704Y-73276863D01*
X81626435Y-73315534D01*
X81631000Y-73361888D01*
X81631000Y-74438112D01*
X81626435Y-74484466D01*
X81614704Y-74523137D01*
X81595652Y-74558779D01*
X81570017Y-74590017D01*
X81538779Y-74615652D01*
X81503137Y-74634704D01*
X81464466Y-74646435D01*
X81418112Y-74651000D01*
X80766888Y-74651000D01*
X80720534Y-74646435D01*
X80681863Y-74634704D01*
X80646221Y-74615652D01*
X80614983Y-74590017D01*
X80589348Y-74558779D01*
X80570296Y-74523137D01*
X80558565Y-74484466D01*
X80554000Y-74438112D01*
X80554000Y-73361888D01*
X80558565Y-73315534D01*
X80570296Y-73276863D01*
X80589348Y-73241221D01*
X80614983Y-73209983D01*
X80646221Y-73184348D01*
X80681863Y-73165296D01*
X80720534Y-73153565D01*
X80766888Y-73149000D01*
X81418112Y-73149000D01*
X81464466Y-73153565D01*
X81464466Y-73153565D01*
G37*
G36*
X83339466Y-73153565D02*
X83378137Y-73165296D01*
X83413779Y-73184348D01*
X83445017Y-73209983D01*
X83470652Y-73241221D01*
X83489704Y-73276863D01*
X83501435Y-73315534D01*
X83506000Y-73361888D01*
X83506000Y-74438112D01*
X83501435Y-74484466D01*
X83489704Y-74523137D01*
X83470652Y-74558779D01*
X83445017Y-74590017D01*
X83413779Y-74615652D01*
X83378137Y-74634704D01*
X83339466Y-74646435D01*
X83293112Y-74651000D01*
X82641888Y-74651000D01*
X82595534Y-74646435D01*
X82556863Y-74634704D01*
X82521221Y-74615652D01*
X82489983Y-74590017D01*
X82464348Y-74558779D01*
X82445296Y-74523137D01*
X82433565Y-74484466D01*
X82429000Y-74438112D01*
X82429000Y-73361888D01*
X82433565Y-73315534D01*
X82445296Y-73276863D01*
X82464348Y-73241221D01*
X82489983Y-73209983D01*
X82521221Y-73184348D01*
X82556863Y-73165296D01*
X82595534Y-73153565D01*
X82641888Y-73149000D01*
X83293112Y-73149000D01*
X83339466Y-73153565D01*
X83339466Y-73153565D01*
G37*
G36*
X74001000Y-74501000D02*
X72999000Y-74501000D01*
X72999000Y-73599000D01*
X74001000Y-73599000D01*
X74001000Y-74501000D01*
X74001000Y-74501000D01*
G37*
G36*
X63347396Y-72325546D02*
X63520466Y-72397234D01*
X63676230Y-72501312D01*
X63808688Y-72633770D01*
X63912766Y-72789534D01*
X63984454Y-72962604D01*
X64021000Y-73146333D01*
X64021000Y-73333667D01*
X63984454Y-73517396D01*
X63912766Y-73690466D01*
X63808688Y-73846230D01*
X63676230Y-73978688D01*
X63520466Y-74082766D01*
X63347396Y-74154454D01*
X63163667Y-74191000D01*
X62976333Y-74191000D01*
X62792604Y-74154454D01*
X62619534Y-74082766D01*
X62463770Y-73978688D01*
X62331312Y-73846230D01*
X62227234Y-73690466D01*
X62155546Y-73517396D01*
X62119000Y-73333667D01*
X62119000Y-73146333D01*
X62155546Y-72962604D01*
X62227234Y-72789534D01*
X62331312Y-72633770D01*
X62463770Y-72501312D01*
X62619534Y-72397234D01*
X62792604Y-72325546D01*
X62976333Y-72289000D01*
X63163667Y-72289000D01*
X63347396Y-72325546D01*
X63347396Y-72325546D01*
G37*
G36*
X60807396Y-72325546D02*
X60980466Y-72397234D01*
X61136230Y-72501312D01*
X61268688Y-72633770D01*
X61372766Y-72789534D01*
X61444454Y-72962604D01*
X61481000Y-73146333D01*
X61481000Y-73333667D01*
X61444454Y-73517396D01*
X61372766Y-73690466D01*
X61268688Y-73846230D01*
X61136230Y-73978688D01*
X60980466Y-74082766D01*
X60807396Y-74154454D01*
X60623667Y-74191000D01*
X60436333Y-74191000D01*
X60252604Y-74154454D01*
X60079534Y-74082766D01*
X59923770Y-73978688D01*
X59791312Y-73846230D01*
X59687234Y-73690466D01*
X59615546Y-73517396D01*
X59579000Y-73333667D01*
X59579000Y-73146333D01*
X59615546Y-72962604D01*
X59687234Y-72789534D01*
X59791312Y-72633770D01*
X59923770Y-72501312D01*
X60079534Y-72397234D01*
X60252604Y-72325546D01*
X60436333Y-72289000D01*
X60623667Y-72289000D01*
X60807396Y-72325546D01*
X60807396Y-72325546D01*
G37*
G36*
X96085734Y-71343232D02*
X96295202Y-71429996D01*
X96483723Y-71555962D01*
X96644038Y-71716277D01*
X96770004Y-71904798D01*
X96856768Y-72114266D01*
X96901000Y-72336635D01*
X96901000Y-72563365D01*
X96856768Y-72785734D01*
X96770004Y-72995202D01*
X96644038Y-73183723D01*
X96483723Y-73344038D01*
X96295202Y-73470004D01*
X96085734Y-73556768D01*
X95863365Y-73601000D01*
X95636635Y-73601000D01*
X95414266Y-73556768D01*
X95204798Y-73470004D01*
X95016277Y-73344038D01*
X94855962Y-73183723D01*
X94729996Y-72995202D01*
X94643232Y-72785734D01*
X94599000Y-72563365D01*
X94599000Y-72336635D01*
X94643232Y-72114266D01*
X94729996Y-71904798D01*
X94855962Y-71716277D01*
X95016277Y-71555962D01*
X95204798Y-71429996D01*
X95414266Y-71343232D01*
X95636635Y-71299000D01*
X95863365Y-71299000D01*
X96085734Y-71343232D01*
X96085734Y-71343232D01*
G37*
G36*
X72001000Y-73551000D02*
X70999000Y-73551000D01*
X70999000Y-72649000D01*
X72001000Y-72649000D01*
X72001000Y-73551000D01*
X72001000Y-73551000D01*
G37*
G36*
X74001000Y-72601000D02*
X72999000Y-72601000D01*
X72999000Y-71699000D01*
X74001000Y-71699000D01*
X74001000Y-72601000D01*
X74001000Y-72601000D01*
G37*
G36*
X83551000Y-72518292D02*
X82549000Y-72518292D01*
X82549000Y-71616292D01*
X83551000Y-71616292D01*
X83551000Y-72518292D01*
X83551000Y-72518292D01*
G37*
G36*
X104009466Y-70868108D02*
X104048137Y-70879839D01*
X104083779Y-70898891D01*
X104115017Y-70924526D01*
X104140652Y-70955764D01*
X104159704Y-70991406D01*
X104171435Y-71030077D01*
X104176000Y-71076431D01*
X104176000Y-72152655D01*
X104171435Y-72199009D01*
X104159704Y-72237680D01*
X104140652Y-72273322D01*
X104115017Y-72304560D01*
X104083779Y-72330195D01*
X104048137Y-72349247D01*
X104009466Y-72360978D01*
X103963112Y-72365543D01*
X103311888Y-72365543D01*
X103265534Y-72360978D01*
X103226863Y-72349247D01*
X103191221Y-72330195D01*
X103159983Y-72304560D01*
X103134348Y-72273322D01*
X103115296Y-72237680D01*
X103103565Y-72199009D01*
X103099000Y-72152655D01*
X103099000Y-71076431D01*
X103103565Y-71030077D01*
X103115296Y-70991406D01*
X103134348Y-70955764D01*
X103159983Y-70924526D01*
X103191221Y-70898891D01*
X103226863Y-70879839D01*
X103265534Y-70868108D01*
X103311888Y-70863543D01*
X103963112Y-70863543D01*
X104009466Y-70868108D01*
X104009466Y-70868108D01*
G37*
G36*
X102134466Y-70868108D02*
X102173137Y-70879839D01*
X102208779Y-70898891D01*
X102240017Y-70924526D01*
X102265652Y-70955764D01*
X102284704Y-70991406D01*
X102296435Y-71030077D01*
X102301000Y-71076431D01*
X102301000Y-72152655D01*
X102296435Y-72199009D01*
X102284704Y-72237680D01*
X102265652Y-72273322D01*
X102240017Y-72304560D01*
X102208779Y-72330195D01*
X102173137Y-72349247D01*
X102134466Y-72360978D01*
X102088112Y-72365543D01*
X101436888Y-72365543D01*
X101390534Y-72360978D01*
X101351863Y-72349247D01*
X101316221Y-72330195D01*
X101284983Y-72304560D01*
X101259348Y-72273322D01*
X101240296Y-72237680D01*
X101228565Y-72199009D01*
X101224000Y-72152655D01*
X101224000Y-71076431D01*
X101228565Y-71030077D01*
X101240296Y-70991406D01*
X101259348Y-70955764D01*
X101284983Y-70924526D01*
X101316221Y-70898891D01*
X101351863Y-70879839D01*
X101390534Y-70868108D01*
X101436888Y-70863543D01*
X102088112Y-70863543D01*
X102134466Y-70868108D01*
X102134466Y-70868108D01*
G37*
G36*
X63347396Y-69785546D02*
X63520466Y-69857234D01*
X63676230Y-69961312D01*
X63808688Y-70093770D01*
X63912766Y-70249534D01*
X63984454Y-70422604D01*
X64021000Y-70606333D01*
X64021000Y-70793667D01*
X63984454Y-70977396D01*
X63912766Y-71150466D01*
X63808688Y-71306230D01*
X63676230Y-71438688D01*
X63520466Y-71542766D01*
X63347396Y-71614454D01*
X63163667Y-71651000D01*
X62976333Y-71651000D01*
X62792604Y-71614454D01*
X62619534Y-71542766D01*
X62463770Y-71438688D01*
X62331312Y-71306230D01*
X62227234Y-71150466D01*
X62155546Y-70977396D01*
X62119000Y-70793667D01*
X62119000Y-70606333D01*
X62155546Y-70422604D01*
X62227234Y-70249534D01*
X62331312Y-70093770D01*
X62463770Y-69961312D01*
X62619534Y-69857234D01*
X62792604Y-69785546D01*
X62976333Y-69749000D01*
X63163667Y-69749000D01*
X63347396Y-69785546D01*
X63347396Y-69785546D01*
G37*
G36*
X60807396Y-69785546D02*
X60980466Y-69857234D01*
X61136230Y-69961312D01*
X61268688Y-70093770D01*
X61372766Y-70249534D01*
X61444454Y-70422604D01*
X61481000Y-70606333D01*
X61481000Y-70793667D01*
X61444454Y-70977396D01*
X61372766Y-71150466D01*
X61268688Y-71306230D01*
X61136230Y-71438688D01*
X60980466Y-71542766D01*
X60807396Y-71614454D01*
X60623667Y-71651000D01*
X60436333Y-71651000D01*
X60252604Y-71614454D01*
X60079534Y-71542766D01*
X59923770Y-71438688D01*
X59791312Y-71306230D01*
X59687234Y-71150466D01*
X59615546Y-70977396D01*
X59579000Y-70793667D01*
X59579000Y-70606333D01*
X59615546Y-70422604D01*
X59687234Y-70249534D01*
X59791312Y-70093770D01*
X59923770Y-69961312D01*
X60079534Y-69857234D01*
X60252604Y-69785546D01*
X60436333Y-69749000D01*
X60623667Y-69749000D01*
X60807396Y-69785546D01*
X60807396Y-69785546D01*
G37*
G36*
X81551000Y-71568292D02*
X80549000Y-71568292D01*
X80549000Y-70666292D01*
X81551000Y-70666292D01*
X81551000Y-71568292D01*
X81551000Y-71568292D01*
G37*
G36*
X91085734Y-68843232D02*
X91295202Y-68929996D01*
X91483723Y-69055962D01*
X91644038Y-69216277D01*
X91770004Y-69404798D01*
X91856768Y-69614266D01*
X91901000Y-69836635D01*
X91901000Y-70063365D01*
X91856768Y-70285734D01*
X91770004Y-70495202D01*
X91644038Y-70683723D01*
X91483723Y-70844038D01*
X91295202Y-70970004D01*
X91085734Y-71056768D01*
X90863365Y-71101000D01*
X90636635Y-71101000D01*
X90414266Y-71056768D01*
X90204798Y-70970004D01*
X90016277Y-70844038D01*
X89855962Y-70683723D01*
X89729996Y-70495202D01*
X89643232Y-70285734D01*
X89599000Y-70063365D01*
X89599000Y-69836635D01*
X89643232Y-69614266D01*
X89729996Y-69404798D01*
X89855962Y-69216277D01*
X90016277Y-69055962D01*
X90204798Y-68929996D01*
X90414266Y-68843232D01*
X90636635Y-68799000D01*
X90863365Y-68799000D01*
X91085734Y-68843232D01*
X91085734Y-68843232D01*
G37*
G36*
X73789466Y-69553565D02*
X73828137Y-69565296D01*
X73863779Y-69584348D01*
X73895017Y-69609983D01*
X73920652Y-69641221D01*
X73939704Y-69676863D01*
X73951435Y-69715534D01*
X73956000Y-69761888D01*
X73956000Y-70838112D01*
X73951435Y-70884466D01*
X73939704Y-70923137D01*
X73920652Y-70958779D01*
X73895017Y-70990017D01*
X73863779Y-71015652D01*
X73828137Y-71034704D01*
X73789466Y-71046435D01*
X73743112Y-71051000D01*
X73091888Y-71051000D01*
X73045534Y-71046435D01*
X73006863Y-71034704D01*
X72971221Y-71015652D01*
X72939983Y-70990017D01*
X72914348Y-70958779D01*
X72895296Y-70923137D01*
X72883565Y-70884466D01*
X72879000Y-70838112D01*
X72879000Y-69761888D01*
X72883565Y-69715534D01*
X72895296Y-69676863D01*
X72914348Y-69641221D01*
X72939983Y-69609983D01*
X72971221Y-69584348D01*
X73006863Y-69565296D01*
X73045534Y-69553565D01*
X73091888Y-69549000D01*
X73743112Y-69549000D01*
X73789466Y-69553565D01*
X73789466Y-69553565D01*
G37*
G36*
X71914466Y-69553565D02*
X71953137Y-69565296D01*
X71988779Y-69584348D01*
X72020017Y-69609983D01*
X72045652Y-69641221D01*
X72064704Y-69676863D01*
X72076435Y-69715534D01*
X72081000Y-69761888D01*
X72081000Y-70838112D01*
X72076435Y-70884466D01*
X72064704Y-70923137D01*
X72045652Y-70958779D01*
X72020017Y-70990017D01*
X71988779Y-71015652D01*
X71953137Y-71034704D01*
X71914466Y-71046435D01*
X71868112Y-71051000D01*
X71216888Y-71051000D01*
X71170534Y-71046435D01*
X71131863Y-71034704D01*
X71096221Y-71015652D01*
X71064983Y-70990017D01*
X71039348Y-70958779D01*
X71020296Y-70923137D01*
X71008565Y-70884466D01*
X71004000Y-70838112D01*
X71004000Y-69761888D01*
X71008565Y-69715534D01*
X71020296Y-69676863D01*
X71039348Y-69641221D01*
X71064983Y-69609983D01*
X71096221Y-69584348D01*
X71131863Y-69565296D01*
X71170534Y-69553565D01*
X71216888Y-69549000D01*
X71868112Y-69549000D01*
X71914466Y-69553565D01*
X71914466Y-69553565D01*
G37*
G36*
X83551000Y-70618292D02*
X82549000Y-70618292D01*
X82549000Y-69716292D01*
X83551000Y-69716292D01*
X83551000Y-70618292D01*
X83551000Y-70618292D01*
G37*
G36*
X102134466Y-68095381D02*
X102173137Y-68107112D01*
X102208779Y-68126164D01*
X102240017Y-68151799D01*
X102265652Y-68183037D01*
X102284704Y-68218679D01*
X102296435Y-68257350D01*
X102301000Y-68303704D01*
X102301000Y-69379928D01*
X102296435Y-69426282D01*
X102284704Y-69464953D01*
X102265652Y-69500595D01*
X102240017Y-69531833D01*
X102208779Y-69557468D01*
X102173137Y-69576520D01*
X102134466Y-69588251D01*
X102088112Y-69592816D01*
X101436888Y-69592816D01*
X101390534Y-69588251D01*
X101351863Y-69576520D01*
X101316221Y-69557468D01*
X101284983Y-69531833D01*
X101259348Y-69500595D01*
X101240296Y-69464953D01*
X101228565Y-69426282D01*
X101224000Y-69379928D01*
X101224000Y-68303704D01*
X101228565Y-68257350D01*
X101240296Y-68218679D01*
X101259348Y-68183037D01*
X101284983Y-68151799D01*
X101316221Y-68126164D01*
X101351863Y-68107112D01*
X101390534Y-68095381D01*
X101436888Y-68090816D01*
X102088112Y-68090816D01*
X102134466Y-68095381D01*
X102134466Y-68095381D01*
G37*
G36*
X104009466Y-68095381D02*
X104048137Y-68107112D01*
X104083779Y-68126164D01*
X104115017Y-68151799D01*
X104140652Y-68183037D01*
X104159704Y-68218679D01*
X104171435Y-68257350D01*
X104176000Y-68303704D01*
X104176000Y-69379928D01*
X104171435Y-69426282D01*
X104159704Y-69464953D01*
X104140652Y-69500595D01*
X104115017Y-69531833D01*
X104083779Y-69557468D01*
X104048137Y-69576520D01*
X104009466Y-69588251D01*
X103963112Y-69592816D01*
X103311888Y-69592816D01*
X103265534Y-69588251D01*
X103226863Y-69576520D01*
X103191221Y-69557468D01*
X103159983Y-69531833D01*
X103134348Y-69500595D01*
X103115296Y-69464953D01*
X103103565Y-69426282D01*
X103099000Y-69379928D01*
X103099000Y-68303704D01*
X103103565Y-68257350D01*
X103115296Y-68218679D01*
X103134348Y-68183037D01*
X103159983Y-68151799D01*
X103191221Y-68126164D01*
X103226863Y-68107112D01*
X103265534Y-68095381D01*
X103311888Y-68090816D01*
X103963112Y-68090816D01*
X104009466Y-68095381D01*
X104009466Y-68095381D01*
G37*
G36*
X60807396Y-67245546D02*
X60980466Y-67317234D01*
X61136230Y-67421312D01*
X61268688Y-67553770D01*
X61372766Y-67709534D01*
X61444454Y-67882604D01*
X61481000Y-68066333D01*
X61481000Y-68253667D01*
X61444454Y-68437396D01*
X61372766Y-68610466D01*
X61268688Y-68766230D01*
X61136230Y-68898688D01*
X60980466Y-69002766D01*
X60807396Y-69074454D01*
X60623667Y-69111000D01*
X60436333Y-69111000D01*
X60252604Y-69074454D01*
X60079534Y-69002766D01*
X59923770Y-68898688D01*
X59791312Y-68766230D01*
X59687234Y-68610466D01*
X59615546Y-68437396D01*
X59579000Y-68253667D01*
X59579000Y-68066333D01*
X59615546Y-67882604D01*
X59687234Y-67709534D01*
X59791312Y-67553770D01*
X59923770Y-67421312D01*
X60079534Y-67317234D01*
X60252604Y-67245546D01*
X60436333Y-67209000D01*
X60623667Y-67209000D01*
X60807396Y-67245546D01*
X60807396Y-67245546D01*
G37*
G36*
X63347396Y-67245546D02*
X63520466Y-67317234D01*
X63676230Y-67421312D01*
X63808688Y-67553770D01*
X63912766Y-67709534D01*
X63984454Y-67882604D01*
X64021000Y-68066333D01*
X64021000Y-68253667D01*
X63984454Y-68437396D01*
X63912766Y-68610466D01*
X63808688Y-68766230D01*
X63676230Y-68898688D01*
X63520466Y-69002766D01*
X63347396Y-69074454D01*
X63163667Y-69111000D01*
X62976333Y-69111000D01*
X62792604Y-69074454D01*
X62619534Y-69002766D01*
X62463770Y-68898688D01*
X62331312Y-68766230D01*
X62227234Y-68610466D01*
X62155546Y-68437396D01*
X62119000Y-68253667D01*
X62119000Y-68066333D01*
X62155546Y-67882604D01*
X62227234Y-67709534D01*
X62331312Y-67553770D01*
X62463770Y-67421312D01*
X62619534Y-67317234D01*
X62792604Y-67245546D01*
X62976333Y-67209000D01*
X63163667Y-67209000D01*
X63347396Y-67245546D01*
X63347396Y-67245546D01*
G37*
G36*
X81464466Y-67553565D02*
X81503137Y-67565296D01*
X81538779Y-67584348D01*
X81570017Y-67609983D01*
X81595652Y-67641221D01*
X81614704Y-67676863D01*
X81626435Y-67715534D01*
X81631000Y-67761888D01*
X81631000Y-68838112D01*
X81626435Y-68884466D01*
X81614704Y-68923137D01*
X81595652Y-68958779D01*
X81570017Y-68990017D01*
X81538779Y-69015652D01*
X81503137Y-69034704D01*
X81464466Y-69046435D01*
X81418112Y-69051000D01*
X80766888Y-69051000D01*
X80720534Y-69046435D01*
X80681863Y-69034704D01*
X80646221Y-69015652D01*
X80614983Y-68990017D01*
X80589348Y-68958779D01*
X80570296Y-68923137D01*
X80558565Y-68884466D01*
X80554000Y-68838112D01*
X80554000Y-67761888D01*
X80558565Y-67715534D01*
X80570296Y-67676863D01*
X80589348Y-67641221D01*
X80614983Y-67609983D01*
X80646221Y-67584348D01*
X80681863Y-67565296D01*
X80720534Y-67553565D01*
X80766888Y-67549000D01*
X81418112Y-67549000D01*
X81464466Y-67553565D01*
X81464466Y-67553565D01*
G37*
G36*
X83339466Y-67553565D02*
X83378137Y-67565296D01*
X83413779Y-67584348D01*
X83445017Y-67609983D01*
X83470652Y-67641221D01*
X83489704Y-67676863D01*
X83501435Y-67715534D01*
X83506000Y-67761888D01*
X83506000Y-68838112D01*
X83501435Y-68884466D01*
X83489704Y-68923137D01*
X83470652Y-68958779D01*
X83445017Y-68990017D01*
X83413779Y-69015652D01*
X83378137Y-69034704D01*
X83339466Y-69046435D01*
X83293112Y-69051000D01*
X82641888Y-69051000D01*
X82595534Y-69046435D01*
X82556863Y-69034704D01*
X82521221Y-69015652D01*
X82489983Y-68990017D01*
X82464348Y-68958779D01*
X82445296Y-68923137D01*
X82433565Y-68884466D01*
X82429000Y-68838112D01*
X82429000Y-67761888D01*
X82433565Y-67715534D01*
X82445296Y-67676863D01*
X82464348Y-67641221D01*
X82489983Y-67609983D01*
X82521221Y-67584348D01*
X82556863Y-67565296D01*
X82595534Y-67553565D01*
X82641888Y-67549000D01*
X83293112Y-67549000D01*
X83339466Y-67553565D01*
X83339466Y-67553565D01*
G37*
G36*
X74001000Y-68901000D02*
X72999000Y-68901000D01*
X72999000Y-67999000D01*
X74001000Y-67999000D01*
X74001000Y-68901000D01*
X74001000Y-68901000D01*
G37*
G36*
X96085734Y-66343232D02*
X96295202Y-66429996D01*
X96483723Y-66555962D01*
X96644038Y-66716277D01*
X96770004Y-66904798D01*
X96856768Y-67114266D01*
X96901000Y-67336635D01*
X96901000Y-67563365D01*
X96856768Y-67785734D01*
X96770004Y-67995202D01*
X96644038Y-68183723D01*
X96483723Y-68344038D01*
X96295202Y-68470004D01*
X96085734Y-68556768D01*
X95863365Y-68601000D01*
X95636635Y-68601000D01*
X95414266Y-68556768D01*
X95204798Y-68470004D01*
X95016277Y-68344038D01*
X94855962Y-68183723D01*
X94729996Y-67995202D01*
X94643232Y-67785734D01*
X94599000Y-67563365D01*
X94599000Y-67336635D01*
X94643232Y-67114266D01*
X94729996Y-66904798D01*
X94855962Y-66716277D01*
X95016277Y-66555962D01*
X95204798Y-66429996D01*
X95414266Y-66343232D01*
X95636635Y-66299000D01*
X95863365Y-66299000D01*
X96085734Y-66343232D01*
X96085734Y-66343232D01*
G37*
G36*
X72001000Y-67951000D02*
X70999000Y-67951000D01*
X70999000Y-67049000D01*
X72001000Y-67049000D01*
X72001000Y-67951000D01*
X72001000Y-67951000D01*
G37*
G36*
X74001000Y-67001000D02*
X72999000Y-67001000D01*
X72999000Y-66099000D01*
X74001000Y-66099000D01*
X74001000Y-67001000D01*
X74001000Y-67001000D01*
G37*
G36*
X83551000Y-66862528D02*
X82549000Y-66862528D01*
X82549000Y-65960528D01*
X83551000Y-65960528D01*
X83551000Y-66862528D01*
X83551000Y-66862528D01*
G37*
G36*
X104009466Y-65322654D02*
X104048137Y-65334385D01*
X104083779Y-65353437D01*
X104115017Y-65379072D01*
X104140652Y-65410310D01*
X104159704Y-65445952D01*
X104171435Y-65484623D01*
X104176000Y-65530977D01*
X104176000Y-66607201D01*
X104171435Y-66653555D01*
X104159704Y-66692226D01*
X104140652Y-66727868D01*
X104115017Y-66759106D01*
X104083779Y-66784741D01*
X104048137Y-66803793D01*
X104009466Y-66815524D01*
X103963112Y-66820089D01*
X103311888Y-66820089D01*
X103265534Y-66815524D01*
X103226863Y-66803793D01*
X103191221Y-66784741D01*
X103159983Y-66759106D01*
X103134348Y-66727868D01*
X103115296Y-66692226D01*
X103103565Y-66653555D01*
X103099000Y-66607201D01*
X103099000Y-65530977D01*
X103103565Y-65484623D01*
X103115296Y-65445952D01*
X103134348Y-65410310D01*
X103159983Y-65379072D01*
X103191221Y-65353437D01*
X103226863Y-65334385D01*
X103265534Y-65322654D01*
X103311888Y-65318089D01*
X103963112Y-65318089D01*
X104009466Y-65322654D01*
X104009466Y-65322654D01*
G37*
G36*
X102134466Y-65322654D02*
X102173137Y-65334385D01*
X102208779Y-65353437D01*
X102240017Y-65379072D01*
X102265652Y-65410310D01*
X102284704Y-65445952D01*
X102296435Y-65484623D01*
X102301000Y-65530977D01*
X102301000Y-66607201D01*
X102296435Y-66653555D01*
X102284704Y-66692226D01*
X102265652Y-66727868D01*
X102240017Y-66759106D01*
X102208779Y-66784741D01*
X102173137Y-66803793D01*
X102134466Y-66815524D01*
X102088112Y-66820089D01*
X101436888Y-66820089D01*
X101390534Y-66815524D01*
X101351863Y-66803793D01*
X101316221Y-66784741D01*
X101284983Y-66759106D01*
X101259348Y-66727868D01*
X101240296Y-66692226D01*
X101228565Y-66653555D01*
X101224000Y-66607201D01*
X101224000Y-65530977D01*
X101228565Y-65484623D01*
X101240296Y-65445952D01*
X101259348Y-65410310D01*
X101284983Y-65379072D01*
X101316221Y-65353437D01*
X101351863Y-65334385D01*
X101390534Y-65322654D01*
X101436888Y-65318089D01*
X102088112Y-65318089D01*
X102134466Y-65322654D01*
X102134466Y-65322654D01*
G37*
G36*
X60807396Y-64705546D02*
X60980466Y-64777234D01*
X61136230Y-64881312D01*
X61268688Y-65013770D01*
X61372766Y-65169534D01*
X61444454Y-65342604D01*
X61481000Y-65526333D01*
X61481000Y-65713667D01*
X61444454Y-65897396D01*
X61372766Y-66070466D01*
X61268688Y-66226230D01*
X61136230Y-66358688D01*
X60980466Y-66462766D01*
X60807396Y-66534454D01*
X60623667Y-66571000D01*
X60436333Y-66571000D01*
X60252604Y-66534454D01*
X60079534Y-66462766D01*
X59923770Y-66358688D01*
X59791312Y-66226230D01*
X59687234Y-66070466D01*
X59615546Y-65897396D01*
X59579000Y-65713667D01*
X59579000Y-65526333D01*
X59615546Y-65342604D01*
X59687234Y-65169534D01*
X59791312Y-65013770D01*
X59923770Y-64881312D01*
X60079534Y-64777234D01*
X60252604Y-64705546D01*
X60436333Y-64669000D01*
X60623667Y-64669000D01*
X60807396Y-64705546D01*
X60807396Y-64705546D01*
G37*
G36*
X63347396Y-64705546D02*
X63520466Y-64777234D01*
X63676230Y-64881312D01*
X63808688Y-65013770D01*
X63912766Y-65169534D01*
X63984454Y-65342604D01*
X64021000Y-65526333D01*
X64021000Y-65713667D01*
X63984454Y-65897396D01*
X63912766Y-66070466D01*
X63808688Y-66226230D01*
X63676230Y-66358688D01*
X63520466Y-66462766D01*
X63347396Y-66534454D01*
X63163667Y-66571000D01*
X62976333Y-66571000D01*
X62792604Y-66534454D01*
X62619534Y-66462766D01*
X62463770Y-66358688D01*
X62331312Y-66226230D01*
X62227234Y-66070466D01*
X62155546Y-65897396D01*
X62119000Y-65713667D01*
X62119000Y-65526333D01*
X62155546Y-65342604D01*
X62227234Y-65169534D01*
X62331312Y-65013770D01*
X62463770Y-64881312D01*
X62619534Y-64777234D01*
X62792604Y-64705546D01*
X62976333Y-64669000D01*
X63163667Y-64669000D01*
X63347396Y-64705546D01*
X63347396Y-64705546D01*
G37*
G36*
X91085734Y-63843232D02*
X91295202Y-63929996D01*
X91483723Y-64055962D01*
X91644038Y-64216277D01*
X91770004Y-64404798D01*
X91856768Y-64614266D01*
X91901000Y-64836635D01*
X91901000Y-65063365D01*
X91856768Y-65285734D01*
X91770004Y-65495202D01*
X91644038Y-65683723D01*
X91483723Y-65844038D01*
X91295202Y-65970004D01*
X91085734Y-66056768D01*
X90863365Y-66101000D01*
X90636635Y-66101000D01*
X90414266Y-66056768D01*
X90204798Y-65970004D01*
X90016277Y-65844038D01*
X89855962Y-65683723D01*
X89729996Y-65495202D01*
X89643232Y-65285734D01*
X89599000Y-65063365D01*
X89599000Y-64836635D01*
X89643232Y-64614266D01*
X89729996Y-64404798D01*
X89855962Y-64216277D01*
X90016277Y-64055962D01*
X90204798Y-63929996D01*
X90414266Y-63843232D01*
X90636635Y-63799000D01*
X90863365Y-63799000D01*
X91085734Y-63843232D01*
X91085734Y-63843232D01*
G37*
G36*
X81551000Y-65912528D02*
X80549000Y-65912528D01*
X80549000Y-65010528D01*
X81551000Y-65010528D01*
X81551000Y-65912528D01*
X81551000Y-65912528D01*
G37*
G36*
X73789466Y-63975296D02*
X73828137Y-63987027D01*
X73863779Y-64006079D01*
X73895017Y-64031714D01*
X73920652Y-64062952D01*
X73939704Y-64098594D01*
X73951435Y-64137265D01*
X73956000Y-64183619D01*
X73956000Y-65259843D01*
X73951435Y-65306197D01*
X73939704Y-65344868D01*
X73920652Y-65380510D01*
X73895017Y-65411748D01*
X73863779Y-65437383D01*
X73828137Y-65456435D01*
X73789466Y-65468166D01*
X73743112Y-65472731D01*
X73091888Y-65472731D01*
X73045534Y-65468166D01*
X73006863Y-65456435D01*
X72971221Y-65437383D01*
X72939983Y-65411748D01*
X72914348Y-65380510D01*
X72895296Y-65344868D01*
X72883565Y-65306197D01*
X72879000Y-65259843D01*
X72879000Y-64183619D01*
X72883565Y-64137265D01*
X72895296Y-64098594D01*
X72914348Y-64062952D01*
X72939983Y-64031714D01*
X72971221Y-64006079D01*
X73006863Y-63987027D01*
X73045534Y-63975296D01*
X73091888Y-63970731D01*
X73743112Y-63970731D01*
X73789466Y-63975296D01*
X73789466Y-63975296D01*
G37*
G36*
X71914466Y-63975296D02*
X71953137Y-63987027D01*
X71988779Y-64006079D01*
X72020017Y-64031714D01*
X72045652Y-64062952D01*
X72064704Y-64098594D01*
X72076435Y-64137265D01*
X72081000Y-64183619D01*
X72081000Y-65259843D01*
X72076435Y-65306197D01*
X72064704Y-65344868D01*
X72045652Y-65380510D01*
X72020017Y-65411748D01*
X71988779Y-65437383D01*
X71953137Y-65456435D01*
X71914466Y-65468166D01*
X71868112Y-65472731D01*
X71216888Y-65472731D01*
X71170534Y-65468166D01*
X71131863Y-65456435D01*
X71096221Y-65437383D01*
X71064983Y-65411748D01*
X71039348Y-65380510D01*
X71020296Y-65344868D01*
X71008565Y-65306197D01*
X71004000Y-65259843D01*
X71004000Y-64183619D01*
X71008565Y-64137265D01*
X71020296Y-64098594D01*
X71039348Y-64062952D01*
X71064983Y-64031714D01*
X71096221Y-64006079D01*
X71131863Y-63987027D01*
X71170534Y-63975296D01*
X71216888Y-63970731D01*
X71868112Y-63970731D01*
X71914466Y-63975296D01*
X71914466Y-63975296D01*
G37*
G36*
X83551000Y-64962528D02*
X82549000Y-64962528D01*
X82549000Y-64060528D01*
X83551000Y-64060528D01*
X83551000Y-64962528D01*
X83551000Y-64962528D01*
G37*
G36*
X104009466Y-62549927D02*
X104048137Y-62561658D01*
X104083779Y-62580710D01*
X104115017Y-62606345D01*
X104140652Y-62637583D01*
X104159704Y-62673225D01*
X104171435Y-62711896D01*
X104176000Y-62758250D01*
X104176000Y-63834474D01*
X104171435Y-63880828D01*
X104159704Y-63919499D01*
X104140652Y-63955141D01*
X104115017Y-63986379D01*
X104083779Y-64012014D01*
X104048137Y-64031066D01*
X104009466Y-64042797D01*
X103963112Y-64047362D01*
X103311888Y-64047362D01*
X103265534Y-64042797D01*
X103226863Y-64031066D01*
X103191221Y-64012014D01*
X103159983Y-63986379D01*
X103134348Y-63955141D01*
X103115296Y-63919499D01*
X103103565Y-63880828D01*
X103099000Y-63834474D01*
X103099000Y-62758250D01*
X103103565Y-62711896D01*
X103115296Y-62673225D01*
X103134348Y-62637583D01*
X103159983Y-62606345D01*
X103191221Y-62580710D01*
X103226863Y-62561658D01*
X103265534Y-62549927D01*
X103311888Y-62545362D01*
X103963112Y-62545362D01*
X104009466Y-62549927D01*
X104009466Y-62549927D01*
G37*
G36*
X102134466Y-62549927D02*
X102173137Y-62561658D01*
X102208779Y-62580710D01*
X102240017Y-62606345D01*
X102265652Y-62637583D01*
X102284704Y-62673225D01*
X102296435Y-62711896D01*
X102301000Y-62758250D01*
X102301000Y-63834474D01*
X102296435Y-63880828D01*
X102284704Y-63919499D01*
X102265652Y-63955141D01*
X102240017Y-63986379D01*
X102208779Y-64012014D01*
X102173137Y-64031066D01*
X102134466Y-64042797D01*
X102088112Y-64047362D01*
X101436888Y-64047362D01*
X101390534Y-64042797D01*
X101351863Y-64031066D01*
X101316221Y-64012014D01*
X101284983Y-63986379D01*
X101259348Y-63955141D01*
X101240296Y-63919499D01*
X101228565Y-63880828D01*
X101224000Y-63834474D01*
X101224000Y-62758250D01*
X101228565Y-62711896D01*
X101240296Y-62673225D01*
X101259348Y-62637583D01*
X101284983Y-62606345D01*
X101316221Y-62580710D01*
X101351863Y-62561658D01*
X101390534Y-62549927D01*
X101436888Y-62545362D01*
X102088112Y-62545362D01*
X102134466Y-62549927D01*
X102134466Y-62549927D01*
G37*
G36*
X63347396Y-62165546D02*
X63520466Y-62237234D01*
X63676230Y-62341312D01*
X63808688Y-62473770D01*
X63912766Y-62629534D01*
X63984454Y-62802604D01*
X64021000Y-62986333D01*
X64021000Y-63173667D01*
X63984454Y-63357396D01*
X63912766Y-63530466D01*
X63808688Y-63686230D01*
X63676230Y-63818688D01*
X63520466Y-63922766D01*
X63347396Y-63994454D01*
X63163667Y-64031000D01*
X62976333Y-64031000D01*
X62792604Y-63994454D01*
X62619534Y-63922766D01*
X62463770Y-63818688D01*
X62331312Y-63686230D01*
X62227234Y-63530466D01*
X62155546Y-63357396D01*
X62119000Y-63173667D01*
X62119000Y-62986333D01*
X62155546Y-62802604D01*
X62227234Y-62629534D01*
X62331312Y-62473770D01*
X62463770Y-62341312D01*
X62619534Y-62237234D01*
X62792604Y-62165546D01*
X62976333Y-62129000D01*
X63163667Y-62129000D01*
X63347396Y-62165546D01*
X63347396Y-62165546D01*
G37*
G36*
X60807396Y-62165546D02*
X60980466Y-62237234D01*
X61136230Y-62341312D01*
X61268688Y-62473770D01*
X61372766Y-62629534D01*
X61444454Y-62802604D01*
X61481000Y-62986333D01*
X61481000Y-63173667D01*
X61444454Y-63357396D01*
X61372766Y-63530466D01*
X61268688Y-63686230D01*
X61136230Y-63818688D01*
X60980466Y-63922766D01*
X60807396Y-63994454D01*
X60623667Y-64031000D01*
X60436333Y-64031000D01*
X60252604Y-63994454D01*
X60079534Y-63922766D01*
X59923770Y-63818688D01*
X59791312Y-63686230D01*
X59687234Y-63530466D01*
X59615546Y-63357396D01*
X59579000Y-63173667D01*
X59579000Y-62986333D01*
X59615546Y-62802604D01*
X59687234Y-62629534D01*
X59791312Y-62473770D01*
X59923770Y-62341312D01*
X60079534Y-62237234D01*
X60252604Y-62165546D01*
X60436333Y-62129000D01*
X60623667Y-62129000D01*
X60807396Y-62165546D01*
X60807396Y-62165546D01*
G37*
G36*
X96085734Y-61343232D02*
X96295202Y-61429996D01*
X96483723Y-61555962D01*
X96644038Y-61716277D01*
X96770004Y-61904798D01*
X96856768Y-62114266D01*
X96901000Y-62336635D01*
X96901000Y-62563365D01*
X96856768Y-62785734D01*
X96770004Y-62995202D01*
X96644038Y-63183723D01*
X96483723Y-63344038D01*
X96295202Y-63470004D01*
X96085734Y-63556768D01*
X95863365Y-63601000D01*
X95636635Y-63601000D01*
X95414266Y-63556768D01*
X95204798Y-63470004D01*
X95016277Y-63344038D01*
X94855962Y-63183723D01*
X94729996Y-62995202D01*
X94643232Y-62785734D01*
X94599000Y-62563365D01*
X94599000Y-62336635D01*
X94643232Y-62114266D01*
X94729996Y-61904798D01*
X94855962Y-61716277D01*
X95016277Y-61555962D01*
X95204798Y-61429996D01*
X95414266Y-61343232D01*
X95636635Y-61299000D01*
X95863365Y-61299000D01*
X96085734Y-61343232D01*
X96085734Y-61343232D01*
G37*
G36*
X83339466Y-61853565D02*
X83378137Y-61865296D01*
X83413779Y-61884348D01*
X83445017Y-61909983D01*
X83470652Y-61941221D01*
X83489704Y-61976863D01*
X83501435Y-62015534D01*
X83506000Y-62061888D01*
X83506000Y-63138112D01*
X83501435Y-63184466D01*
X83489704Y-63223137D01*
X83470652Y-63258779D01*
X83445017Y-63290017D01*
X83413779Y-63315652D01*
X83378137Y-63334704D01*
X83339466Y-63346435D01*
X83293112Y-63351000D01*
X82641888Y-63351000D01*
X82595534Y-63346435D01*
X82556863Y-63334704D01*
X82521221Y-63315652D01*
X82489983Y-63290017D01*
X82464348Y-63258779D01*
X82445296Y-63223137D01*
X82433565Y-63184466D01*
X82429000Y-63138112D01*
X82429000Y-62061888D01*
X82433565Y-62015534D01*
X82445296Y-61976863D01*
X82464348Y-61941221D01*
X82489983Y-61909983D01*
X82521221Y-61884348D01*
X82556863Y-61865296D01*
X82595534Y-61853565D01*
X82641888Y-61849000D01*
X83293112Y-61849000D01*
X83339466Y-61853565D01*
X83339466Y-61853565D01*
G37*
G36*
X81464466Y-61853565D02*
X81503137Y-61865296D01*
X81538779Y-61884348D01*
X81570017Y-61909983D01*
X81595652Y-61941221D01*
X81614704Y-61976863D01*
X81626435Y-62015534D01*
X81631000Y-62061888D01*
X81631000Y-63138112D01*
X81626435Y-63184466D01*
X81614704Y-63223137D01*
X81595652Y-63258779D01*
X81570017Y-63290017D01*
X81538779Y-63315652D01*
X81503137Y-63334704D01*
X81464466Y-63346435D01*
X81418112Y-63351000D01*
X80766888Y-63351000D01*
X80720534Y-63346435D01*
X80681863Y-63334704D01*
X80646221Y-63315652D01*
X80614983Y-63290017D01*
X80589348Y-63258779D01*
X80570296Y-63223137D01*
X80558565Y-63184466D01*
X80554000Y-63138112D01*
X80554000Y-62061888D01*
X80558565Y-62015534D01*
X80570296Y-61976863D01*
X80589348Y-61941221D01*
X80614983Y-61909983D01*
X80646221Y-61884348D01*
X80681863Y-61865296D01*
X80720534Y-61853565D01*
X80766888Y-61849000D01*
X81418112Y-61849000D01*
X81464466Y-61853565D01*
X81464466Y-61853565D01*
G37*
G36*
X74001000Y-63301000D02*
X72999000Y-63301000D01*
X72999000Y-62399000D01*
X74001000Y-62399000D01*
X74001000Y-63301000D01*
X74001000Y-63301000D01*
G37*
G36*
X72001000Y-62351000D02*
X70999000Y-62351000D01*
X70999000Y-61449000D01*
X72001000Y-61449000D01*
X72001000Y-62351000D01*
X72001000Y-62351000D01*
G37*
G36*
X60807396Y-59625546D02*
X60980466Y-59697234D01*
X61136230Y-59801312D01*
X61268688Y-59933770D01*
X61372766Y-60089534D01*
X61444454Y-60262604D01*
X61481000Y-60446333D01*
X61481000Y-60633667D01*
X61444454Y-60817396D01*
X61372766Y-60990466D01*
X61268688Y-61146230D01*
X61136230Y-61278688D01*
X60980466Y-61382766D01*
X60807396Y-61454454D01*
X60623667Y-61491000D01*
X60436333Y-61491000D01*
X60252604Y-61454454D01*
X60079534Y-61382766D01*
X59923770Y-61278688D01*
X59791312Y-61146230D01*
X59687234Y-60990466D01*
X59615546Y-60817396D01*
X59579000Y-60633667D01*
X59579000Y-60446333D01*
X59615546Y-60262604D01*
X59687234Y-60089534D01*
X59791312Y-59933770D01*
X59923770Y-59801312D01*
X60079534Y-59697234D01*
X60252604Y-59625546D01*
X60436333Y-59589000D01*
X60623667Y-59589000D01*
X60807396Y-59625546D01*
X60807396Y-59625546D01*
G37*
G36*
X63347396Y-59625546D02*
X63520466Y-59697234D01*
X63676230Y-59801312D01*
X63808688Y-59933770D01*
X63912766Y-60089534D01*
X63984454Y-60262604D01*
X64021000Y-60446333D01*
X64021000Y-60633667D01*
X63984454Y-60817396D01*
X63912766Y-60990466D01*
X63808688Y-61146230D01*
X63676230Y-61278688D01*
X63520466Y-61382766D01*
X63347396Y-61454454D01*
X63163667Y-61491000D01*
X62976333Y-61491000D01*
X62792604Y-61454454D01*
X62619534Y-61382766D01*
X62463770Y-61278688D01*
X62331312Y-61146230D01*
X62227234Y-60990466D01*
X62155546Y-60817396D01*
X62119000Y-60633667D01*
X62119000Y-60446333D01*
X62155546Y-60262604D01*
X62227234Y-60089534D01*
X62331312Y-59933770D01*
X62463770Y-59801312D01*
X62619534Y-59697234D01*
X62792604Y-59625546D01*
X62976333Y-59589000D01*
X63163667Y-59589000D01*
X63347396Y-59625546D01*
X63347396Y-59625546D01*
G37*
G36*
X74001000Y-61401000D02*
X72999000Y-61401000D01*
X72999000Y-60499000D01*
X74001000Y-60499000D01*
X74001000Y-61401000D01*
X74001000Y-61401000D01*
G37*
G36*
X104009466Y-59777200D02*
X104048137Y-59788931D01*
X104083779Y-59807983D01*
X104115017Y-59833618D01*
X104140652Y-59864856D01*
X104159704Y-59900498D01*
X104171435Y-59939169D01*
X104176000Y-59985523D01*
X104176000Y-61061747D01*
X104171435Y-61108101D01*
X104159704Y-61146772D01*
X104140652Y-61182414D01*
X104115017Y-61213652D01*
X104083779Y-61239287D01*
X104048137Y-61258339D01*
X104009466Y-61270070D01*
X103963112Y-61274635D01*
X103311888Y-61274635D01*
X103265534Y-61270070D01*
X103226863Y-61258339D01*
X103191221Y-61239287D01*
X103159983Y-61213652D01*
X103134348Y-61182414D01*
X103115296Y-61146772D01*
X103103565Y-61108101D01*
X103099000Y-61061747D01*
X103099000Y-59985523D01*
X103103565Y-59939169D01*
X103115296Y-59900498D01*
X103134348Y-59864856D01*
X103159983Y-59833618D01*
X103191221Y-59807983D01*
X103226863Y-59788931D01*
X103265534Y-59777200D01*
X103311888Y-59772635D01*
X103963112Y-59772635D01*
X104009466Y-59777200D01*
X104009466Y-59777200D01*
G37*
G36*
X102134466Y-59777200D02*
X102173137Y-59788931D01*
X102208779Y-59807983D01*
X102240017Y-59833618D01*
X102265652Y-59864856D01*
X102284704Y-59900498D01*
X102296435Y-59939169D01*
X102301000Y-59985523D01*
X102301000Y-61061747D01*
X102296435Y-61108101D01*
X102284704Y-61146772D01*
X102265652Y-61182414D01*
X102240017Y-61213652D01*
X102208779Y-61239287D01*
X102173137Y-61258339D01*
X102134466Y-61270070D01*
X102088112Y-61274635D01*
X101436888Y-61274635D01*
X101390534Y-61270070D01*
X101351863Y-61258339D01*
X101316221Y-61239287D01*
X101284983Y-61213652D01*
X101259348Y-61182414D01*
X101240296Y-61146772D01*
X101228565Y-61108101D01*
X101224000Y-61061747D01*
X101224000Y-59985523D01*
X101228565Y-59939169D01*
X101240296Y-59900498D01*
X101259348Y-59864856D01*
X101284983Y-59833618D01*
X101316221Y-59807983D01*
X101351863Y-59788931D01*
X101390534Y-59777200D01*
X101436888Y-59772635D01*
X102088112Y-59772635D01*
X102134466Y-59777200D01*
X102134466Y-59777200D01*
G37*
G36*
X83551000Y-61206764D02*
X82549000Y-61206764D01*
X82549000Y-60304764D01*
X83551000Y-60304764D01*
X83551000Y-61206764D01*
X83551000Y-61206764D01*
G37*
G36*
X91085734Y-58843232D02*
X91295202Y-58929996D01*
X91483723Y-59055962D01*
X91644038Y-59216277D01*
X91770004Y-59404798D01*
X91856768Y-59614266D01*
X91901000Y-59836635D01*
X91901000Y-60063365D01*
X91856768Y-60285734D01*
X91770004Y-60495202D01*
X91644038Y-60683723D01*
X91483723Y-60844038D01*
X91295202Y-60970004D01*
X91085734Y-61056768D01*
X90863365Y-61101000D01*
X90636635Y-61101000D01*
X90414266Y-61056768D01*
X90204798Y-60970004D01*
X90016277Y-60844038D01*
X89855962Y-60683723D01*
X89729996Y-60495202D01*
X89643232Y-60285734D01*
X89599000Y-60063365D01*
X89599000Y-59836635D01*
X89643232Y-59614266D01*
X89729996Y-59404798D01*
X89855962Y-59216277D01*
X90016277Y-59055962D01*
X90204798Y-58929996D01*
X90414266Y-58843232D01*
X90636635Y-58799000D01*
X90863365Y-58799000D01*
X91085734Y-58843232D01*
X91085734Y-58843232D01*
G37*
G36*
X81551000Y-60256764D02*
X80549000Y-60256764D01*
X80549000Y-59354764D01*
X81551000Y-59354764D01*
X81551000Y-60256764D01*
X81551000Y-60256764D01*
G37*
G36*
X71934466Y-58353565D02*
X71973137Y-58365296D01*
X72008779Y-58384348D01*
X72040017Y-58409983D01*
X72065652Y-58441221D01*
X72084704Y-58476863D01*
X72096435Y-58515534D01*
X72101000Y-58561888D01*
X72101000Y-59638112D01*
X72096435Y-59684466D01*
X72084704Y-59723137D01*
X72065652Y-59758779D01*
X72040017Y-59790017D01*
X72008779Y-59815652D01*
X71973137Y-59834704D01*
X71934466Y-59846435D01*
X71888112Y-59851000D01*
X71236888Y-59851000D01*
X71190534Y-59846435D01*
X71151863Y-59834704D01*
X71116221Y-59815652D01*
X71084983Y-59790017D01*
X71059348Y-59758779D01*
X71040296Y-59723137D01*
X71028565Y-59684466D01*
X71024000Y-59638112D01*
X71024000Y-58561888D01*
X71028565Y-58515534D01*
X71040296Y-58476863D01*
X71059348Y-58441221D01*
X71084983Y-58409983D01*
X71116221Y-58384348D01*
X71151863Y-58365296D01*
X71190534Y-58353565D01*
X71236888Y-58349000D01*
X71888112Y-58349000D01*
X71934466Y-58353565D01*
X71934466Y-58353565D01*
G37*
G36*
X73809466Y-58353565D02*
X73848137Y-58365296D01*
X73883779Y-58384348D01*
X73915017Y-58409983D01*
X73940652Y-58441221D01*
X73959704Y-58476863D01*
X73971435Y-58515534D01*
X73976000Y-58561888D01*
X73976000Y-59638112D01*
X73971435Y-59684466D01*
X73959704Y-59723137D01*
X73940652Y-59758779D01*
X73915017Y-59790017D01*
X73883779Y-59815652D01*
X73848137Y-59834704D01*
X73809466Y-59846435D01*
X73763112Y-59851000D01*
X73111888Y-59851000D01*
X73065534Y-59846435D01*
X73026863Y-59834704D01*
X72991221Y-59815652D01*
X72959983Y-59790017D01*
X72934348Y-59758779D01*
X72915296Y-59723137D01*
X72903565Y-59684466D01*
X72899000Y-59638112D01*
X72899000Y-58561888D01*
X72903565Y-58515534D01*
X72915296Y-58476863D01*
X72934348Y-58441221D01*
X72959983Y-58409983D01*
X72991221Y-58384348D01*
X73026863Y-58365296D01*
X73065534Y-58353565D01*
X73111888Y-58349000D01*
X73763112Y-58349000D01*
X73809466Y-58353565D01*
X73809466Y-58353565D01*
G37*
G36*
X83551000Y-59306764D02*
X82549000Y-59306764D01*
X82549000Y-58404764D01*
X83551000Y-58404764D01*
X83551000Y-59306764D01*
X83551000Y-59306764D01*
G37*
G36*
X60807396Y-57085546D02*
X60980466Y-57157234D01*
X61136230Y-57261312D01*
X61268688Y-57393770D01*
X61372766Y-57549534D01*
X61444454Y-57722604D01*
X61481000Y-57906333D01*
X61481000Y-58093667D01*
X61444454Y-58277396D01*
X61372766Y-58450466D01*
X61268688Y-58606230D01*
X61136230Y-58738688D01*
X60980466Y-58842766D01*
X60807396Y-58914454D01*
X60623667Y-58951000D01*
X60436333Y-58951000D01*
X60252604Y-58914454D01*
X60079534Y-58842766D01*
X59923770Y-58738688D01*
X59791312Y-58606230D01*
X59687234Y-58450466D01*
X59615546Y-58277396D01*
X59579000Y-58093667D01*
X59579000Y-57906333D01*
X59615546Y-57722604D01*
X59687234Y-57549534D01*
X59791312Y-57393770D01*
X59923770Y-57261312D01*
X60079534Y-57157234D01*
X60252604Y-57085546D01*
X60436333Y-57049000D01*
X60623667Y-57049000D01*
X60807396Y-57085546D01*
X60807396Y-57085546D01*
G37*
G36*
X63347396Y-57085546D02*
X63520466Y-57157234D01*
X63676230Y-57261312D01*
X63808688Y-57393770D01*
X63912766Y-57549534D01*
X63984454Y-57722604D01*
X64021000Y-57906333D01*
X64021000Y-58093667D01*
X63984454Y-58277396D01*
X63912766Y-58450466D01*
X63808688Y-58606230D01*
X63676230Y-58738688D01*
X63520466Y-58842766D01*
X63347396Y-58914454D01*
X63163667Y-58951000D01*
X62976333Y-58951000D01*
X62792604Y-58914454D01*
X62619534Y-58842766D01*
X62463770Y-58738688D01*
X62331312Y-58606230D01*
X62227234Y-58450466D01*
X62155546Y-58277396D01*
X62119000Y-58093667D01*
X62119000Y-57906333D01*
X62155546Y-57722604D01*
X62227234Y-57549534D01*
X62331312Y-57393770D01*
X62463770Y-57261312D01*
X62619534Y-57157234D01*
X62792604Y-57085546D01*
X62976333Y-57049000D01*
X63163667Y-57049000D01*
X63347396Y-57085546D01*
X63347396Y-57085546D01*
G37*
G36*
X96085734Y-56343232D02*
X96295202Y-56429996D01*
X96483723Y-56555962D01*
X96644038Y-56716277D01*
X96770004Y-56904798D01*
X96856768Y-57114266D01*
X96901000Y-57336635D01*
X96901000Y-57563365D01*
X96856768Y-57785734D01*
X96770004Y-57995202D01*
X96644038Y-58183723D01*
X96483723Y-58344038D01*
X96295202Y-58470004D01*
X96085734Y-58556768D01*
X95863365Y-58601000D01*
X95636635Y-58601000D01*
X95414266Y-58556768D01*
X95204798Y-58470004D01*
X95016277Y-58344038D01*
X94855962Y-58183723D01*
X94729996Y-57995202D01*
X94643232Y-57785734D01*
X94599000Y-57563365D01*
X94599000Y-57336635D01*
X94643232Y-57114266D01*
X94729996Y-56904798D01*
X94855962Y-56716277D01*
X95016277Y-56555962D01*
X95204798Y-56429996D01*
X95414266Y-56343232D01*
X95636635Y-56299000D01*
X95863365Y-56299000D01*
X96085734Y-56343232D01*
X96085734Y-56343232D01*
G37*
G36*
X104009466Y-57004473D02*
X104048137Y-57016204D01*
X104083779Y-57035256D01*
X104115017Y-57060891D01*
X104140652Y-57092129D01*
X104159704Y-57127771D01*
X104171435Y-57166442D01*
X104176000Y-57212796D01*
X104176000Y-58289020D01*
X104171435Y-58335374D01*
X104159704Y-58374045D01*
X104140652Y-58409687D01*
X104115017Y-58440925D01*
X104083779Y-58466560D01*
X104048137Y-58485612D01*
X104009466Y-58497343D01*
X103963112Y-58501908D01*
X103311888Y-58501908D01*
X103265534Y-58497343D01*
X103226863Y-58485612D01*
X103191221Y-58466560D01*
X103159983Y-58440925D01*
X103134348Y-58409687D01*
X103115296Y-58374045D01*
X103103565Y-58335374D01*
X103099000Y-58289020D01*
X103099000Y-57212796D01*
X103103565Y-57166442D01*
X103115296Y-57127771D01*
X103134348Y-57092129D01*
X103159983Y-57060891D01*
X103191221Y-57035256D01*
X103226863Y-57016204D01*
X103265534Y-57004473D01*
X103311888Y-56999908D01*
X103963112Y-56999908D01*
X104009466Y-57004473D01*
X104009466Y-57004473D01*
G37*
G36*
X102134466Y-57004473D02*
X102173137Y-57016204D01*
X102208779Y-57035256D01*
X102240017Y-57060891D01*
X102265652Y-57092129D01*
X102284704Y-57127771D01*
X102296435Y-57166442D01*
X102301000Y-57212796D01*
X102301000Y-58289020D01*
X102296435Y-58335374D01*
X102284704Y-58374045D01*
X102265652Y-58409687D01*
X102240017Y-58440925D01*
X102208779Y-58466560D01*
X102173137Y-58485612D01*
X102134466Y-58497343D01*
X102088112Y-58501908D01*
X101436888Y-58501908D01*
X101390534Y-58497343D01*
X101351863Y-58485612D01*
X101316221Y-58466560D01*
X101284983Y-58440925D01*
X101259348Y-58409687D01*
X101240296Y-58374045D01*
X101228565Y-58335374D01*
X101224000Y-58289020D01*
X101224000Y-57212796D01*
X101228565Y-57166442D01*
X101240296Y-57127771D01*
X101259348Y-57092129D01*
X101284983Y-57060891D01*
X101316221Y-57035256D01*
X101351863Y-57016204D01*
X101390534Y-57004473D01*
X101436888Y-56999908D01*
X102088112Y-56999908D01*
X102134466Y-57004473D01*
X102134466Y-57004473D01*
G37*
G36*
X81464466Y-56253565D02*
X81503137Y-56265296D01*
X81538779Y-56284348D01*
X81570017Y-56309983D01*
X81595652Y-56341221D01*
X81614704Y-56376863D01*
X81626435Y-56415534D01*
X81631000Y-56461888D01*
X81631000Y-57538112D01*
X81626435Y-57584466D01*
X81614704Y-57623137D01*
X81595652Y-57658779D01*
X81570017Y-57690017D01*
X81538779Y-57715652D01*
X81503137Y-57734704D01*
X81464466Y-57746435D01*
X81418112Y-57751000D01*
X80766888Y-57751000D01*
X80720534Y-57746435D01*
X80681863Y-57734704D01*
X80646221Y-57715652D01*
X80614983Y-57690017D01*
X80589348Y-57658779D01*
X80570296Y-57623137D01*
X80558565Y-57584466D01*
X80554000Y-57538112D01*
X80554000Y-56461888D01*
X80558565Y-56415534D01*
X80570296Y-56376863D01*
X80589348Y-56341221D01*
X80614983Y-56309983D01*
X80646221Y-56284348D01*
X80681863Y-56265296D01*
X80720534Y-56253565D01*
X80766888Y-56249000D01*
X81418112Y-56249000D01*
X81464466Y-56253565D01*
X81464466Y-56253565D01*
G37*
G36*
X83339466Y-56253565D02*
X83378137Y-56265296D01*
X83413779Y-56284348D01*
X83445017Y-56309983D01*
X83470652Y-56341221D01*
X83489704Y-56376863D01*
X83501435Y-56415534D01*
X83506000Y-56461888D01*
X83506000Y-57538112D01*
X83501435Y-57584466D01*
X83489704Y-57623137D01*
X83470652Y-57658779D01*
X83445017Y-57690017D01*
X83413779Y-57715652D01*
X83378137Y-57734704D01*
X83339466Y-57746435D01*
X83293112Y-57751000D01*
X82641888Y-57751000D01*
X82595534Y-57746435D01*
X82556863Y-57734704D01*
X82521221Y-57715652D01*
X82489983Y-57690017D01*
X82464348Y-57658779D01*
X82445296Y-57623137D01*
X82433565Y-57584466D01*
X82429000Y-57538112D01*
X82429000Y-56461888D01*
X82433565Y-56415534D01*
X82445296Y-56376863D01*
X82464348Y-56341221D01*
X82489983Y-56309983D01*
X82521221Y-56284348D01*
X82556863Y-56265296D01*
X82595534Y-56253565D01*
X82641888Y-56249000D01*
X83293112Y-56249000D01*
X83339466Y-56253565D01*
X83339466Y-56253565D01*
G37*
G36*
X74001000Y-57701000D02*
X72999000Y-57701000D01*
X72999000Y-56799000D01*
X74001000Y-56799000D01*
X74001000Y-57701000D01*
X74001000Y-57701000D01*
G37*
G36*
X72001000Y-56751000D02*
X70999000Y-56751000D01*
X70999000Y-55849000D01*
X72001000Y-55849000D01*
X72001000Y-56751000D01*
X72001000Y-56751000D01*
G37*
G36*
X63347396Y-54545546D02*
X63520466Y-54617234D01*
X63676230Y-54721312D01*
X63808688Y-54853770D01*
X63912766Y-55009534D01*
X63984454Y-55182604D01*
X64021000Y-55366333D01*
X64021000Y-55553667D01*
X63984454Y-55737396D01*
X63912766Y-55910466D01*
X63808688Y-56066230D01*
X63676230Y-56198688D01*
X63520466Y-56302766D01*
X63347396Y-56374454D01*
X63163667Y-56411000D01*
X62976333Y-56411000D01*
X62792604Y-56374454D01*
X62619534Y-56302766D01*
X62463770Y-56198688D01*
X62331312Y-56066230D01*
X62227234Y-55910466D01*
X62155546Y-55737396D01*
X62119000Y-55553667D01*
X62119000Y-55366333D01*
X62155546Y-55182604D01*
X62227234Y-55009534D01*
X62331312Y-54853770D01*
X62463770Y-54721312D01*
X62619534Y-54617234D01*
X62792604Y-54545546D01*
X62976333Y-54509000D01*
X63163667Y-54509000D01*
X63347396Y-54545546D01*
X63347396Y-54545546D01*
G37*
G36*
X60807396Y-54545546D02*
X60980466Y-54617234D01*
X61136230Y-54721312D01*
X61268688Y-54853770D01*
X61372766Y-55009534D01*
X61444454Y-55182604D01*
X61481000Y-55366333D01*
X61481000Y-55553667D01*
X61444454Y-55737396D01*
X61372766Y-55910466D01*
X61268688Y-56066230D01*
X61136230Y-56198688D01*
X60980466Y-56302766D01*
X60807396Y-56374454D01*
X60623667Y-56411000D01*
X60436333Y-56411000D01*
X60252604Y-56374454D01*
X60079534Y-56302766D01*
X59923770Y-56198688D01*
X59791312Y-56066230D01*
X59687234Y-55910466D01*
X59615546Y-55737396D01*
X59579000Y-55553667D01*
X59579000Y-55366333D01*
X59615546Y-55182604D01*
X59687234Y-55009534D01*
X59791312Y-54853770D01*
X59923770Y-54721312D01*
X60079534Y-54617234D01*
X60252604Y-54545546D01*
X60436333Y-54509000D01*
X60623667Y-54509000D01*
X60807396Y-54545546D01*
X60807396Y-54545546D01*
G37*
G36*
X91085734Y-53843232D02*
X91295202Y-53929996D01*
X91483723Y-54055962D01*
X91644038Y-54216277D01*
X91770004Y-54404798D01*
X91856768Y-54614266D01*
X91901000Y-54836635D01*
X91901000Y-55063365D01*
X91856768Y-55285734D01*
X91770004Y-55495202D01*
X91644038Y-55683723D01*
X91483723Y-55844038D01*
X91295202Y-55970004D01*
X91085734Y-56056768D01*
X90863365Y-56101000D01*
X90636635Y-56101000D01*
X90414266Y-56056768D01*
X90204798Y-55970004D01*
X90016277Y-55844038D01*
X89855962Y-55683723D01*
X89729996Y-55495202D01*
X89643232Y-55285734D01*
X89599000Y-55063365D01*
X89599000Y-54836635D01*
X89643232Y-54614266D01*
X89729996Y-54404798D01*
X89855962Y-54216277D01*
X90016277Y-54055962D01*
X90204798Y-53929996D01*
X90414266Y-53843232D01*
X90636635Y-53799000D01*
X90863365Y-53799000D01*
X91085734Y-53843232D01*
X91085734Y-53843232D01*
G37*
G36*
X74001000Y-55801000D02*
X72999000Y-55801000D01*
X72999000Y-54899000D01*
X74001000Y-54899000D01*
X74001000Y-55801000D01*
X74001000Y-55801000D01*
G37*
G36*
X102134466Y-54231746D02*
X102173137Y-54243477D01*
X102208779Y-54262529D01*
X102240017Y-54288164D01*
X102265652Y-54319402D01*
X102284704Y-54355044D01*
X102296435Y-54393715D01*
X102301000Y-54440069D01*
X102301000Y-55516293D01*
X102296435Y-55562647D01*
X102284704Y-55601318D01*
X102265652Y-55636960D01*
X102240017Y-55668198D01*
X102208779Y-55693833D01*
X102173137Y-55712885D01*
X102134466Y-55724616D01*
X102088112Y-55729181D01*
X101436888Y-55729181D01*
X101390534Y-55724616D01*
X101351863Y-55712885D01*
X101316221Y-55693833D01*
X101284983Y-55668198D01*
X101259348Y-55636960D01*
X101240296Y-55601318D01*
X101228565Y-55562647D01*
X101224000Y-55516293D01*
X101224000Y-54440069D01*
X101228565Y-54393715D01*
X101240296Y-54355044D01*
X101259348Y-54319402D01*
X101284983Y-54288164D01*
X101316221Y-54262529D01*
X101351863Y-54243477D01*
X101390534Y-54231746D01*
X101436888Y-54227181D01*
X102088112Y-54227181D01*
X102134466Y-54231746D01*
X102134466Y-54231746D01*
G37*
G36*
X104009466Y-54231746D02*
X104048137Y-54243477D01*
X104083779Y-54262529D01*
X104115017Y-54288164D01*
X104140652Y-54319402D01*
X104159704Y-54355044D01*
X104171435Y-54393715D01*
X104176000Y-54440069D01*
X104176000Y-55516293D01*
X104171435Y-55562647D01*
X104159704Y-55601318D01*
X104140652Y-55636960D01*
X104115017Y-55668198D01*
X104083779Y-55693833D01*
X104048137Y-55712885D01*
X104009466Y-55724616D01*
X103963112Y-55729181D01*
X103311888Y-55729181D01*
X103265534Y-55724616D01*
X103226863Y-55712885D01*
X103191221Y-55693833D01*
X103159983Y-55668198D01*
X103134348Y-55636960D01*
X103115296Y-55601318D01*
X103103565Y-55562647D01*
X103099000Y-55516293D01*
X103099000Y-54440069D01*
X103103565Y-54393715D01*
X103115296Y-54355044D01*
X103134348Y-54319402D01*
X103159983Y-54288164D01*
X103191221Y-54262529D01*
X103226863Y-54243477D01*
X103265534Y-54231746D01*
X103311888Y-54227181D01*
X103963112Y-54227181D01*
X104009466Y-54231746D01*
X104009466Y-54231746D01*
G37*
G36*
X83551000Y-55551000D02*
X82549000Y-55551000D01*
X82549000Y-54649000D01*
X83551000Y-54649000D01*
X83551000Y-55551000D01*
X83551000Y-55551000D01*
G37*
G36*
X81551000Y-54601000D02*
X80549000Y-54601000D01*
X80549000Y-53699000D01*
X81551000Y-53699000D01*
X81551000Y-54601000D01*
X81551000Y-54601000D01*
G37*
G36*
X71914466Y-52653565D02*
X71953137Y-52665296D01*
X71988779Y-52684348D01*
X72020017Y-52709983D01*
X72045652Y-52741221D01*
X72064704Y-52776863D01*
X72076435Y-52815534D01*
X72081000Y-52861888D01*
X72081000Y-53938112D01*
X72076435Y-53984466D01*
X72064704Y-54023137D01*
X72045652Y-54058779D01*
X72020017Y-54090017D01*
X71988779Y-54115652D01*
X71953137Y-54134704D01*
X71914466Y-54146435D01*
X71868112Y-54151000D01*
X71216888Y-54151000D01*
X71170534Y-54146435D01*
X71131863Y-54134704D01*
X71096221Y-54115652D01*
X71064983Y-54090017D01*
X71039348Y-54058779D01*
X71020296Y-54023137D01*
X71008565Y-53984466D01*
X71004000Y-53938112D01*
X71004000Y-52861888D01*
X71008565Y-52815534D01*
X71020296Y-52776863D01*
X71039348Y-52741221D01*
X71064983Y-52709983D01*
X71096221Y-52684348D01*
X71131863Y-52665296D01*
X71170534Y-52653565D01*
X71216888Y-52649000D01*
X71868112Y-52649000D01*
X71914466Y-52653565D01*
X71914466Y-52653565D01*
G37*
G36*
X73789466Y-52653565D02*
X73828137Y-52665296D01*
X73863779Y-52684348D01*
X73895017Y-52709983D01*
X73920652Y-52741221D01*
X73939704Y-52776863D01*
X73951435Y-52815534D01*
X73956000Y-52861888D01*
X73956000Y-53938112D01*
X73951435Y-53984466D01*
X73939704Y-54023137D01*
X73920652Y-54058779D01*
X73895017Y-54090017D01*
X73863779Y-54115652D01*
X73828137Y-54134704D01*
X73789466Y-54146435D01*
X73743112Y-54151000D01*
X73091888Y-54151000D01*
X73045534Y-54146435D01*
X73006863Y-54134704D01*
X72971221Y-54115652D01*
X72939983Y-54090017D01*
X72914348Y-54058779D01*
X72895296Y-54023137D01*
X72883565Y-53984466D01*
X72879000Y-53938112D01*
X72879000Y-52861888D01*
X72883565Y-52815534D01*
X72895296Y-52776863D01*
X72914348Y-52741221D01*
X72939983Y-52709983D01*
X72971221Y-52684348D01*
X73006863Y-52665296D01*
X73045534Y-52653565D01*
X73091888Y-52649000D01*
X73743112Y-52649000D01*
X73789466Y-52653565D01*
X73789466Y-52653565D01*
G37*
G36*
X63347396Y-52005546D02*
X63520466Y-52077234D01*
X63676230Y-52181312D01*
X63808688Y-52313770D01*
X63912766Y-52469534D01*
X63984454Y-52642604D01*
X64021000Y-52826333D01*
X64021000Y-53013667D01*
X63984454Y-53197396D01*
X63912766Y-53370466D01*
X63808688Y-53526230D01*
X63676230Y-53658688D01*
X63520466Y-53762766D01*
X63347396Y-53834454D01*
X63163667Y-53871000D01*
X62976333Y-53871000D01*
X62792604Y-53834454D01*
X62619534Y-53762766D01*
X62463770Y-53658688D01*
X62331312Y-53526230D01*
X62227234Y-53370466D01*
X62155546Y-53197396D01*
X62119000Y-53013667D01*
X62119000Y-52826333D01*
X62155546Y-52642604D01*
X62227234Y-52469534D01*
X62331312Y-52313770D01*
X62463770Y-52181312D01*
X62619534Y-52077234D01*
X62792604Y-52005546D01*
X62976333Y-51969000D01*
X63163667Y-51969000D01*
X63347396Y-52005546D01*
X63347396Y-52005546D01*
G37*
G36*
X60807396Y-52005546D02*
X60980466Y-52077234D01*
X61136230Y-52181312D01*
X61268688Y-52313770D01*
X61372766Y-52469534D01*
X61444454Y-52642604D01*
X61481000Y-52826333D01*
X61481000Y-53013667D01*
X61444454Y-53197396D01*
X61372766Y-53370466D01*
X61268688Y-53526230D01*
X61136230Y-53658688D01*
X60980466Y-53762766D01*
X60807396Y-53834454D01*
X60623667Y-53871000D01*
X60436333Y-53871000D01*
X60252604Y-53834454D01*
X60079534Y-53762766D01*
X59923770Y-53658688D01*
X59791312Y-53526230D01*
X59687234Y-53370466D01*
X59615546Y-53197396D01*
X59579000Y-53013667D01*
X59579000Y-52826333D01*
X59615546Y-52642604D01*
X59687234Y-52469534D01*
X59791312Y-52313770D01*
X59923770Y-52181312D01*
X60079534Y-52077234D01*
X60252604Y-52005546D01*
X60436333Y-51969000D01*
X60623667Y-51969000D01*
X60807396Y-52005546D01*
X60807396Y-52005546D01*
G37*
G36*
X83551000Y-53651000D02*
X82549000Y-53651000D01*
X82549000Y-52749000D01*
X83551000Y-52749000D01*
X83551000Y-53651000D01*
X83551000Y-53651000D01*
G37*
G36*
X96085734Y-51343232D02*
X96295202Y-51429996D01*
X96483723Y-51555962D01*
X96644038Y-51716277D01*
X96770004Y-51904798D01*
X96856768Y-52114266D01*
X96901000Y-52336635D01*
X96901000Y-52563365D01*
X96856768Y-52785734D01*
X96770004Y-52995202D01*
X96644038Y-53183723D01*
X96483723Y-53344038D01*
X96295202Y-53470004D01*
X96085734Y-53556768D01*
X95863365Y-53601000D01*
X95636635Y-53601000D01*
X95414266Y-53556768D01*
X95204798Y-53470004D01*
X95016277Y-53344038D01*
X94855962Y-53183723D01*
X94729996Y-52995202D01*
X94643232Y-52785734D01*
X94599000Y-52563365D01*
X94599000Y-52336635D01*
X94643232Y-52114266D01*
X94729996Y-51904798D01*
X94855962Y-51716277D01*
X95016277Y-51555962D01*
X95204798Y-51429996D01*
X95414266Y-51343232D01*
X95636635Y-51299000D01*
X95863365Y-51299000D01*
X96085734Y-51343232D01*
X96085734Y-51343232D01*
G37*
G36*
X104009466Y-51459019D02*
X104048137Y-51470750D01*
X104083779Y-51489802D01*
X104115017Y-51515437D01*
X104140652Y-51546675D01*
X104159704Y-51582317D01*
X104171435Y-51620988D01*
X104176000Y-51667342D01*
X104176000Y-52743566D01*
X104171435Y-52789920D01*
X104159704Y-52828591D01*
X104140652Y-52864233D01*
X104115017Y-52895471D01*
X104083779Y-52921106D01*
X104048137Y-52940158D01*
X104009466Y-52951889D01*
X103963112Y-52956454D01*
X103311888Y-52956454D01*
X103265534Y-52951889D01*
X103226863Y-52940158D01*
X103191221Y-52921106D01*
X103159983Y-52895471D01*
X103134348Y-52864233D01*
X103115296Y-52828591D01*
X103103565Y-52789920D01*
X103099000Y-52743566D01*
X103099000Y-51667342D01*
X103103565Y-51620988D01*
X103115296Y-51582317D01*
X103134348Y-51546675D01*
X103159983Y-51515437D01*
X103191221Y-51489802D01*
X103226863Y-51470750D01*
X103265534Y-51459019D01*
X103311888Y-51454454D01*
X103963112Y-51454454D01*
X104009466Y-51459019D01*
X104009466Y-51459019D01*
G37*
G36*
X102134466Y-51459019D02*
X102173137Y-51470750D01*
X102208779Y-51489802D01*
X102240017Y-51515437D01*
X102265652Y-51546675D01*
X102284704Y-51582317D01*
X102296435Y-51620988D01*
X102301000Y-51667342D01*
X102301000Y-52743566D01*
X102296435Y-52789920D01*
X102284704Y-52828591D01*
X102265652Y-52864233D01*
X102240017Y-52895471D01*
X102208779Y-52921106D01*
X102173137Y-52940158D01*
X102134466Y-52951889D01*
X102088112Y-52956454D01*
X101436888Y-52956454D01*
X101390534Y-52951889D01*
X101351863Y-52940158D01*
X101316221Y-52921106D01*
X101284983Y-52895471D01*
X101259348Y-52864233D01*
X101240296Y-52828591D01*
X101228565Y-52789920D01*
X101224000Y-52743566D01*
X101224000Y-51667342D01*
X101228565Y-51620988D01*
X101240296Y-51582317D01*
X101259348Y-51546675D01*
X101284983Y-51515437D01*
X101316221Y-51489802D01*
X101351863Y-51470750D01*
X101390534Y-51459019D01*
X101436888Y-51454454D01*
X102088112Y-51454454D01*
X102134466Y-51459019D01*
X102134466Y-51459019D01*
G37*
G36*
X74001000Y-51990126D02*
X72999000Y-51990126D01*
X72999000Y-51088126D01*
X74001000Y-51088126D01*
X74001000Y-51990126D01*
X74001000Y-51990126D01*
G37*
G36*
X63347396Y-49465546D02*
X63520466Y-49537234D01*
X63676230Y-49641312D01*
X63808688Y-49773770D01*
X63912766Y-49929534D01*
X63984454Y-50102604D01*
X64021000Y-50286333D01*
X64021000Y-50473667D01*
X63984454Y-50657396D01*
X63912766Y-50830466D01*
X63808688Y-50986230D01*
X63676230Y-51118688D01*
X63520466Y-51222766D01*
X63347396Y-51294454D01*
X63163667Y-51331000D01*
X62976333Y-51331000D01*
X62792604Y-51294454D01*
X62619534Y-51222766D01*
X62463770Y-51118688D01*
X62331312Y-50986230D01*
X62227234Y-50830466D01*
X62155546Y-50657396D01*
X62119000Y-50473667D01*
X62119000Y-50286333D01*
X62155546Y-50102604D01*
X62227234Y-49929534D01*
X62331312Y-49773770D01*
X62463770Y-49641312D01*
X62619534Y-49537234D01*
X62792604Y-49465546D01*
X62976333Y-49429000D01*
X63163667Y-49429000D01*
X63347396Y-49465546D01*
X63347396Y-49465546D01*
G37*
G36*
X60807396Y-49465546D02*
X60980466Y-49537234D01*
X61136230Y-49641312D01*
X61268688Y-49773770D01*
X61372766Y-49929534D01*
X61444454Y-50102604D01*
X61481000Y-50286333D01*
X61481000Y-50473667D01*
X61444454Y-50657396D01*
X61372766Y-50830466D01*
X61268688Y-50986230D01*
X61136230Y-51118688D01*
X60980466Y-51222766D01*
X60807396Y-51294454D01*
X60623667Y-51331000D01*
X60436333Y-51331000D01*
X60252604Y-51294454D01*
X60079534Y-51222766D01*
X59923770Y-51118688D01*
X59791312Y-50986230D01*
X59687234Y-50830466D01*
X59615546Y-50657396D01*
X59579000Y-50473667D01*
X59579000Y-50286333D01*
X59615546Y-50102604D01*
X59687234Y-49929534D01*
X59791312Y-49773770D01*
X59923770Y-49641312D01*
X60079534Y-49537234D01*
X60252604Y-49465546D01*
X60436333Y-49429000D01*
X60623667Y-49429000D01*
X60807396Y-49465546D01*
X60807396Y-49465546D01*
G37*
G36*
X91085734Y-48843232D02*
X91295202Y-48929996D01*
X91483723Y-49055962D01*
X91644038Y-49216277D01*
X91770004Y-49404798D01*
X91856768Y-49614266D01*
X91901000Y-49836635D01*
X91901000Y-50063365D01*
X91856768Y-50285734D01*
X91770004Y-50495202D01*
X91644038Y-50683723D01*
X91483723Y-50844038D01*
X91295202Y-50970004D01*
X91085734Y-51056768D01*
X90863365Y-51101000D01*
X90636635Y-51101000D01*
X90414266Y-51056768D01*
X90204798Y-50970004D01*
X90016277Y-50844038D01*
X89855962Y-50683723D01*
X89729996Y-50495202D01*
X89643232Y-50285734D01*
X89599000Y-50063365D01*
X89599000Y-49836635D01*
X89643232Y-49614266D01*
X89729996Y-49404798D01*
X89855962Y-49216277D01*
X90016277Y-49055962D01*
X90204798Y-48929996D01*
X90414266Y-48843232D01*
X90636635Y-48799000D01*
X90863365Y-48799000D01*
X91085734Y-48843232D01*
X91085734Y-48843232D01*
G37*
G36*
X72001000Y-51040126D02*
X70999000Y-51040126D01*
X70999000Y-50138126D01*
X72001000Y-50138126D01*
X72001000Y-51040126D01*
X72001000Y-51040126D01*
G37*
G36*
X104009466Y-48686292D02*
X104048137Y-48698023D01*
X104083779Y-48717075D01*
X104115017Y-48742710D01*
X104140652Y-48773948D01*
X104159704Y-48809590D01*
X104171435Y-48848261D01*
X104176000Y-48894615D01*
X104176000Y-49970839D01*
X104171435Y-50017193D01*
X104159704Y-50055864D01*
X104140652Y-50091506D01*
X104115017Y-50122744D01*
X104083779Y-50148379D01*
X104048137Y-50167431D01*
X104009466Y-50179162D01*
X103963112Y-50183727D01*
X103311888Y-50183727D01*
X103265534Y-50179162D01*
X103226863Y-50167431D01*
X103191221Y-50148379D01*
X103159983Y-50122744D01*
X103134348Y-50091506D01*
X103115296Y-50055864D01*
X103103565Y-50017193D01*
X103099000Y-49970839D01*
X103099000Y-48894615D01*
X103103565Y-48848261D01*
X103115296Y-48809590D01*
X103134348Y-48773948D01*
X103159983Y-48742710D01*
X103191221Y-48717075D01*
X103226863Y-48698023D01*
X103265534Y-48686292D01*
X103311888Y-48681727D01*
X103963112Y-48681727D01*
X104009466Y-48686292D01*
X104009466Y-48686292D01*
G37*
G36*
X102134466Y-48686292D02*
X102173137Y-48698023D01*
X102208779Y-48717075D01*
X102240017Y-48742710D01*
X102265652Y-48773948D01*
X102284704Y-48809590D01*
X102296435Y-48848261D01*
X102301000Y-48894615D01*
X102301000Y-49970839D01*
X102296435Y-50017193D01*
X102284704Y-50055864D01*
X102265652Y-50091506D01*
X102240017Y-50122744D01*
X102208779Y-50148379D01*
X102173137Y-50167431D01*
X102134466Y-50179162D01*
X102088112Y-50183727D01*
X101436888Y-50183727D01*
X101390534Y-50179162D01*
X101351863Y-50167431D01*
X101316221Y-50148379D01*
X101284983Y-50122744D01*
X101259348Y-50091506D01*
X101240296Y-50055864D01*
X101228565Y-50017193D01*
X101224000Y-49970839D01*
X101224000Y-48894615D01*
X101228565Y-48848261D01*
X101240296Y-48809590D01*
X101259348Y-48773948D01*
X101284983Y-48742710D01*
X101316221Y-48717075D01*
X101351863Y-48698023D01*
X101390534Y-48686292D01*
X101436888Y-48681727D01*
X102088112Y-48681727D01*
X102134466Y-48686292D01*
X102134466Y-48686292D01*
G37*
G36*
X74001000Y-50090126D02*
X72999000Y-50090126D01*
X72999000Y-49188126D01*
X74001000Y-49188126D01*
X74001000Y-50090126D01*
X74001000Y-50090126D01*
G37*
G36*
X63347396Y-46925546D02*
X63520466Y-46997234D01*
X63676230Y-47101312D01*
X63808688Y-47233770D01*
X63912766Y-47389534D01*
X63984454Y-47562604D01*
X64021000Y-47746333D01*
X64021000Y-47933667D01*
X63984454Y-48117396D01*
X63912766Y-48290466D01*
X63808688Y-48446230D01*
X63676230Y-48578688D01*
X63520466Y-48682766D01*
X63347396Y-48754454D01*
X63163667Y-48791000D01*
X62976333Y-48791000D01*
X62792604Y-48754454D01*
X62619534Y-48682766D01*
X62463770Y-48578688D01*
X62331312Y-48446230D01*
X62227234Y-48290466D01*
X62155546Y-48117396D01*
X62119000Y-47933667D01*
X62119000Y-47746333D01*
X62155546Y-47562604D01*
X62227234Y-47389534D01*
X62331312Y-47233770D01*
X62463770Y-47101312D01*
X62619534Y-46997234D01*
X62792604Y-46925546D01*
X62976333Y-46889000D01*
X63163667Y-46889000D01*
X63347396Y-46925546D01*
X63347396Y-46925546D01*
G37*
G36*
X60807396Y-46925546D02*
X60980466Y-46997234D01*
X61136230Y-47101312D01*
X61268688Y-47233770D01*
X61372766Y-47389534D01*
X61444454Y-47562604D01*
X61481000Y-47746333D01*
X61481000Y-47933667D01*
X61444454Y-48117396D01*
X61372766Y-48290466D01*
X61268688Y-48446230D01*
X61136230Y-48578688D01*
X60980466Y-48682766D01*
X60807396Y-48754454D01*
X60623667Y-48791000D01*
X60436333Y-48791000D01*
X60252604Y-48754454D01*
X60079534Y-48682766D01*
X59923770Y-48578688D01*
X59791312Y-48446230D01*
X59687234Y-48290466D01*
X59615546Y-48117396D01*
X59579000Y-47933667D01*
X59579000Y-47746333D01*
X59615546Y-47562604D01*
X59687234Y-47389534D01*
X59791312Y-47233770D01*
X59923770Y-47101312D01*
X60079534Y-46997234D01*
X60252604Y-46925546D01*
X60436333Y-46889000D01*
X60623667Y-46889000D01*
X60807396Y-46925546D01*
X60807396Y-46925546D01*
G37*
G36*
X96085734Y-46343232D02*
X96295202Y-46429996D01*
X96483723Y-46555962D01*
X96644038Y-46716277D01*
X96770004Y-46904798D01*
X96856768Y-47114266D01*
X96901000Y-47336635D01*
X96901000Y-47563365D01*
X96856768Y-47785734D01*
X96770004Y-47995202D01*
X96644038Y-48183723D01*
X96483723Y-48344038D01*
X96295202Y-48470004D01*
X96085734Y-48556768D01*
X95863365Y-48601000D01*
X95636635Y-48601000D01*
X95414266Y-48556768D01*
X95204798Y-48470004D01*
X95016277Y-48344038D01*
X94855962Y-48183723D01*
X94729996Y-47995202D01*
X94643232Y-47785734D01*
X94599000Y-47563365D01*
X94599000Y-47336635D01*
X94643232Y-47114266D01*
X94729996Y-46904798D01*
X94855962Y-46716277D01*
X95016277Y-46555962D01*
X95204798Y-46429996D01*
X95414266Y-46343232D01*
X95636635Y-46299000D01*
X95863365Y-46299000D01*
X96085734Y-46343232D01*
X96085734Y-46343232D01*
G37*
G36*
X73789466Y-47053565D02*
X73828137Y-47065296D01*
X73863779Y-47084348D01*
X73895017Y-47109983D01*
X73920652Y-47141221D01*
X73939704Y-47176863D01*
X73951435Y-47215534D01*
X73956000Y-47261888D01*
X73956000Y-48338112D01*
X73951435Y-48384466D01*
X73939704Y-48423137D01*
X73920652Y-48458779D01*
X73895017Y-48490017D01*
X73863779Y-48515652D01*
X73828137Y-48534704D01*
X73789466Y-48546435D01*
X73743112Y-48551000D01*
X73091888Y-48551000D01*
X73045534Y-48546435D01*
X73006863Y-48534704D01*
X72971221Y-48515652D01*
X72939983Y-48490017D01*
X72914348Y-48458779D01*
X72895296Y-48423137D01*
X72883565Y-48384466D01*
X72879000Y-48338112D01*
X72879000Y-47261888D01*
X72883565Y-47215534D01*
X72895296Y-47176863D01*
X72914348Y-47141221D01*
X72939983Y-47109983D01*
X72971221Y-47084348D01*
X73006863Y-47065296D01*
X73045534Y-47053565D01*
X73091888Y-47049000D01*
X73743112Y-47049000D01*
X73789466Y-47053565D01*
X73789466Y-47053565D01*
G37*
G36*
X71914466Y-47053565D02*
X71953137Y-47065296D01*
X71988779Y-47084348D01*
X72020017Y-47109983D01*
X72045652Y-47141221D01*
X72064704Y-47176863D01*
X72076435Y-47215534D01*
X72081000Y-47261888D01*
X72081000Y-48338112D01*
X72076435Y-48384466D01*
X72064704Y-48423137D01*
X72045652Y-48458779D01*
X72020017Y-48490017D01*
X71988779Y-48515652D01*
X71953137Y-48534704D01*
X71914466Y-48546435D01*
X71868112Y-48551000D01*
X71216888Y-48551000D01*
X71170534Y-48546435D01*
X71131863Y-48534704D01*
X71096221Y-48515652D01*
X71064983Y-48490017D01*
X71039348Y-48458779D01*
X71020296Y-48423137D01*
X71008565Y-48384466D01*
X71004000Y-48338112D01*
X71004000Y-47261888D01*
X71008565Y-47215534D01*
X71020296Y-47176863D01*
X71039348Y-47141221D01*
X71064983Y-47109983D01*
X71096221Y-47084348D01*
X71131863Y-47065296D01*
X71170534Y-47053565D01*
X71216888Y-47049000D01*
X71868112Y-47049000D01*
X71914466Y-47053565D01*
X71914466Y-47053565D01*
G37*
G36*
X104009466Y-45913565D02*
X104048137Y-45925296D01*
X104083779Y-45944348D01*
X104115017Y-45969983D01*
X104140652Y-46001221D01*
X104159704Y-46036863D01*
X104171435Y-46075534D01*
X104176000Y-46121888D01*
X104176000Y-47198112D01*
X104171435Y-47244466D01*
X104159704Y-47283137D01*
X104140652Y-47318779D01*
X104115017Y-47350017D01*
X104083779Y-47375652D01*
X104048137Y-47394704D01*
X104009466Y-47406435D01*
X103963112Y-47411000D01*
X103311888Y-47411000D01*
X103265534Y-47406435D01*
X103226863Y-47394704D01*
X103191221Y-47375652D01*
X103159983Y-47350017D01*
X103134348Y-47318779D01*
X103115296Y-47283137D01*
X103103565Y-47244466D01*
X103099000Y-47198112D01*
X103099000Y-46121888D01*
X103103565Y-46075534D01*
X103115296Y-46036863D01*
X103134348Y-46001221D01*
X103159983Y-45969983D01*
X103191221Y-45944348D01*
X103226863Y-45925296D01*
X103265534Y-45913565D01*
X103311888Y-45909000D01*
X103963112Y-45909000D01*
X104009466Y-45913565D01*
X104009466Y-45913565D01*
G37*
G36*
X102134466Y-45913565D02*
X102173137Y-45925296D01*
X102208779Y-45944348D01*
X102240017Y-45969983D01*
X102265652Y-46001221D01*
X102284704Y-46036863D01*
X102296435Y-46075534D01*
X102301000Y-46121888D01*
X102301000Y-47198112D01*
X102296435Y-47244466D01*
X102284704Y-47283137D01*
X102265652Y-47318779D01*
X102240017Y-47350017D01*
X102208779Y-47375652D01*
X102173137Y-47394704D01*
X102134466Y-47406435D01*
X102088112Y-47411000D01*
X101436888Y-47411000D01*
X101390534Y-47406435D01*
X101351863Y-47394704D01*
X101316221Y-47375652D01*
X101284983Y-47350017D01*
X101259348Y-47318779D01*
X101240296Y-47283137D01*
X101228565Y-47244466D01*
X101224000Y-47198112D01*
X101224000Y-46121888D01*
X101228565Y-46075534D01*
X101240296Y-46036863D01*
X101259348Y-46001221D01*
X101284983Y-45969983D01*
X101316221Y-45944348D01*
X101351863Y-45925296D01*
X101390534Y-45913565D01*
X101436888Y-45909000D01*
X102088112Y-45909000D01*
X102134466Y-45913565D01*
X102134466Y-45913565D01*
G37*
G36*
X74001000Y-46377084D02*
X72999000Y-46377084D01*
X72999000Y-45475084D01*
X74001000Y-45475084D01*
X74001000Y-46377084D01*
X74001000Y-46377084D01*
G37*
G36*
X63347396Y-44385546D02*
X63520466Y-44457234D01*
X63676230Y-44561312D01*
X63808688Y-44693770D01*
X63912766Y-44849534D01*
X63984454Y-45022604D01*
X64021000Y-45206333D01*
X64021000Y-45393667D01*
X63984454Y-45577396D01*
X63912766Y-45750466D01*
X63808688Y-45906230D01*
X63676230Y-46038688D01*
X63520466Y-46142766D01*
X63347396Y-46214454D01*
X63163667Y-46251000D01*
X62976333Y-46251000D01*
X62792604Y-46214454D01*
X62619534Y-46142766D01*
X62463770Y-46038688D01*
X62331312Y-45906230D01*
X62227234Y-45750466D01*
X62155546Y-45577396D01*
X62119000Y-45393667D01*
X62119000Y-45206333D01*
X62155546Y-45022604D01*
X62227234Y-44849534D01*
X62331312Y-44693770D01*
X62463770Y-44561312D01*
X62619534Y-44457234D01*
X62792604Y-44385546D01*
X62976333Y-44349000D01*
X63163667Y-44349000D01*
X63347396Y-44385546D01*
X63347396Y-44385546D01*
G37*
G36*
X60807396Y-44385546D02*
X60980466Y-44457234D01*
X61136230Y-44561312D01*
X61268688Y-44693770D01*
X61372766Y-44849534D01*
X61444454Y-45022604D01*
X61481000Y-45206333D01*
X61481000Y-45393667D01*
X61444454Y-45577396D01*
X61372766Y-45750466D01*
X61268688Y-45906230D01*
X61136230Y-46038688D01*
X60980466Y-46142766D01*
X60807396Y-46214454D01*
X60623667Y-46251000D01*
X60436333Y-46251000D01*
X60252604Y-46214454D01*
X60079534Y-46142766D01*
X59923770Y-46038688D01*
X59791312Y-45906230D01*
X59687234Y-45750466D01*
X59615546Y-45577396D01*
X59579000Y-45393667D01*
X59579000Y-45206333D01*
X59615546Y-45022604D01*
X59687234Y-44849534D01*
X59791312Y-44693770D01*
X59923770Y-44561312D01*
X60079534Y-44457234D01*
X60252604Y-44385546D01*
X60436333Y-44349000D01*
X60623667Y-44349000D01*
X60807396Y-44385546D01*
X60807396Y-44385546D01*
G37*
G36*
X72001000Y-45427084D02*
X70999000Y-45427084D01*
X70999000Y-44525084D01*
X72001000Y-44525084D01*
X72001000Y-45427084D01*
X72001000Y-45427084D01*
G37*
G36*
X74001000Y-44477084D02*
X72999000Y-44477084D01*
X72999000Y-43575084D01*
X74001000Y-43575084D01*
X74001000Y-44477084D01*
X74001000Y-44477084D01*
G37*
G36*
X98488252Y-40007818D02*
X98488254Y-40007819D01*
X98488255Y-40007819D01*
X98861513Y-40162427D01*
X98861514Y-40162428D01*
X99197439Y-40386886D01*
X99483114Y-40672561D01*
X99483116Y-40672564D01*
X99707573Y-41008487D01*
X99862181Y-41381745D01*
X99862182Y-41381748D01*
X99908621Y-41615212D01*
X99941000Y-41777994D01*
X99941000Y-42182006D01*
X99862181Y-42578255D01*
X99707573Y-42951513D01*
X99707572Y-42951514D01*
X99483114Y-43287439D01*
X99197439Y-43573114D01*
X99197436Y-43573116D01*
X98861513Y-43797573D01*
X98488255Y-43952181D01*
X98488254Y-43952181D01*
X98488252Y-43952182D01*
X98092007Y-44031000D01*
X97687993Y-44031000D01*
X97291748Y-43952182D01*
X97291746Y-43952181D01*
X97291745Y-43952181D01*
X96918487Y-43797573D01*
X96582564Y-43573116D01*
X96582561Y-43573114D01*
X96296886Y-43287439D01*
X96072428Y-42951514D01*
X96072427Y-42951513D01*
X95917819Y-42578255D01*
X95839000Y-42182006D01*
X95839000Y-41777994D01*
X95871379Y-41615212D01*
X95917818Y-41381748D01*
X95917819Y-41381745D01*
X96072427Y-41008487D01*
X96296884Y-40672564D01*
X96296886Y-40672561D01*
X96582561Y-40386886D01*
X96918486Y-40162428D01*
X96918487Y-40162427D01*
X97291745Y-40007819D01*
X97291746Y-40007819D01*
X97291748Y-40007818D01*
X97687993Y-39929000D01*
X98092007Y-39929000D01*
X98488252Y-40007818D01*
X98488252Y-40007818D01*
G37*
G36*
X73789466Y-41453565D02*
X73828137Y-41465296D01*
X73863779Y-41484348D01*
X73895017Y-41509983D01*
X73920652Y-41541221D01*
X73939704Y-41576863D01*
X73951435Y-41615534D01*
X73956000Y-41661888D01*
X73956000Y-42738112D01*
X73951435Y-42784466D01*
X73939704Y-42823137D01*
X73920652Y-42858779D01*
X73895017Y-42890017D01*
X73863779Y-42915652D01*
X73828137Y-42934704D01*
X73789466Y-42946435D01*
X73743112Y-42951000D01*
X73091888Y-42951000D01*
X73045534Y-42946435D01*
X73006863Y-42934704D01*
X72971221Y-42915652D01*
X72939983Y-42890017D01*
X72914348Y-42858779D01*
X72895296Y-42823137D01*
X72883565Y-42784466D01*
X72879000Y-42738112D01*
X72879000Y-41661888D01*
X72883565Y-41615534D01*
X72895296Y-41576863D01*
X72914348Y-41541221D01*
X72939983Y-41509983D01*
X72971221Y-41484348D01*
X73006863Y-41465296D01*
X73045534Y-41453565D01*
X73091888Y-41449000D01*
X73743112Y-41449000D01*
X73789466Y-41453565D01*
X73789466Y-41453565D01*
G37*
G36*
X71914466Y-41453565D02*
X71953137Y-41465296D01*
X71988779Y-41484348D01*
X72020017Y-41509983D01*
X72045652Y-41541221D01*
X72064704Y-41576863D01*
X72076435Y-41615534D01*
X72081000Y-41661888D01*
X72081000Y-42738112D01*
X72076435Y-42784466D01*
X72064704Y-42823137D01*
X72045652Y-42858779D01*
X72020017Y-42890017D01*
X71988779Y-42915652D01*
X71953137Y-42934704D01*
X71914466Y-42946435D01*
X71868112Y-42951000D01*
X71216888Y-42951000D01*
X71170534Y-42946435D01*
X71131863Y-42934704D01*
X71096221Y-42915652D01*
X71064983Y-42890017D01*
X71039348Y-42858779D01*
X71020296Y-42823137D01*
X71008565Y-42784466D01*
X71004000Y-42738112D01*
X71004000Y-41661888D01*
X71008565Y-41615534D01*
X71020296Y-41576863D01*
X71039348Y-41541221D01*
X71064983Y-41509983D01*
X71096221Y-41484348D01*
X71131863Y-41465296D01*
X71170534Y-41453565D01*
X71216888Y-41449000D01*
X71868112Y-41449000D01*
X71914466Y-41453565D01*
X71914466Y-41453565D01*
G37*
G36*
X74001000Y-40764042D02*
X72999000Y-40764042D01*
X72999000Y-39862042D01*
X74001000Y-39862042D01*
X74001000Y-40764042D01*
X74001000Y-40764042D01*
G37*
G36*
X72001000Y-39814042D02*
X70999000Y-39814042D01*
X70999000Y-38912042D01*
X72001000Y-38912042D01*
X72001000Y-39814042D01*
X72001000Y-39814042D01*
G37*
G36*
X98488252Y-35007818D02*
X98488254Y-35007819D01*
X98488255Y-35007819D01*
X98861513Y-35162427D01*
X99192905Y-35383857D01*
X99197439Y-35386886D01*
X99483114Y-35672561D01*
X99483116Y-35672564D01*
X99707573Y-36008487D01*
X99812649Y-36262164D01*
X99862182Y-36381748D01*
X99941000Y-36777993D01*
X99941000Y-37182007D01*
X99862650Y-37575901D01*
X99862181Y-37578255D01*
X99707573Y-37951513D01*
X99486143Y-38282905D01*
X99483114Y-38287439D01*
X99197439Y-38573114D01*
X99197436Y-38573116D01*
X98861513Y-38797573D01*
X98488255Y-38952181D01*
X98488254Y-38952181D01*
X98488252Y-38952182D01*
X98092007Y-39031000D01*
X97687993Y-39031000D01*
X97291748Y-38952182D01*
X97291746Y-38952181D01*
X97291745Y-38952181D01*
X96918487Y-38797573D01*
X96582564Y-38573116D01*
X96582561Y-38573114D01*
X96296886Y-38287439D01*
X96293857Y-38282905D01*
X96072427Y-37951513D01*
X95917819Y-37578255D01*
X95917351Y-37575901D01*
X95839000Y-37182007D01*
X95839000Y-36777993D01*
X95917818Y-36381748D01*
X95967351Y-36262164D01*
X96072427Y-36008487D01*
X96296884Y-35672564D01*
X96296886Y-35672561D01*
X96582561Y-35386886D01*
X96587095Y-35383857D01*
X96918487Y-35162427D01*
X97291745Y-35007819D01*
X97291746Y-35007819D01*
X97291748Y-35007818D01*
X97687993Y-34929000D01*
X98092007Y-34929000D01*
X98488252Y-35007818D01*
X98488252Y-35007818D01*
G37*
G36*
X74001000Y-38864042D02*
X72999000Y-38864042D01*
X72999000Y-37962042D01*
X74001000Y-37962042D01*
X74001000Y-38864042D01*
X74001000Y-38864042D01*
G37*
G36*
X61798384Y-34929000D02*
X61987826Y-34966682D01*
X62087136Y-35007818D01*
X62260989Y-35079830D01*
X62506835Y-35244099D01*
X62715901Y-35453165D01*
X62880170Y-35699011D01*
X62942297Y-35849000D01*
X62993318Y-35972174D01*
X63051000Y-36262164D01*
X63051000Y-36557836D01*
X63007209Y-36777993D01*
X62993318Y-36847825D01*
X62880170Y-37120989D01*
X62715901Y-37366835D01*
X62506835Y-37575901D01*
X62260989Y-37740170D01*
X62100974Y-37806450D01*
X61987826Y-37853318D01*
X61842831Y-37882159D01*
X61697837Y-37911000D01*
X61402163Y-37911000D01*
X61257169Y-37882159D01*
X61112174Y-37853318D01*
X60999026Y-37806450D01*
X60839011Y-37740170D01*
X60593165Y-37575901D01*
X60384099Y-37366835D01*
X60219830Y-37120989D01*
X60106682Y-36847825D01*
X60092792Y-36777993D01*
X60049000Y-36557836D01*
X60049000Y-36262164D01*
X60106682Y-35972174D01*
X60157703Y-35849000D01*
X60219830Y-35699011D01*
X60384099Y-35453165D01*
X60593165Y-35244099D01*
X60839011Y-35079830D01*
X61012864Y-35007818D01*
X61112174Y-34966682D01*
X61301616Y-34929000D01*
X61402163Y-34909000D01*
X61697837Y-34909000D01*
X61798384Y-34929000D01*
X61798384Y-34929000D01*
G37*
G36*
X71914466Y-35853565D02*
X71953137Y-35865296D01*
X71988779Y-35884348D01*
X72020017Y-35909983D01*
X72045652Y-35941221D01*
X72064704Y-35976863D01*
X72076435Y-36015534D01*
X72081000Y-36061888D01*
X72081000Y-37138112D01*
X72076435Y-37184466D01*
X72064704Y-37223137D01*
X72045652Y-37258779D01*
X72020017Y-37290017D01*
X71988779Y-37315652D01*
X71953137Y-37334704D01*
X71914466Y-37346435D01*
X71868112Y-37351000D01*
X71216888Y-37351000D01*
X71170534Y-37346435D01*
X71131863Y-37334704D01*
X71096221Y-37315652D01*
X71064983Y-37290017D01*
X71039348Y-37258779D01*
X71020296Y-37223137D01*
X71008565Y-37184466D01*
X71004000Y-37138112D01*
X71004000Y-36061888D01*
X71008565Y-36015534D01*
X71020296Y-35976863D01*
X71039348Y-35941221D01*
X71064983Y-35909983D01*
X71096221Y-35884348D01*
X71131863Y-35865296D01*
X71170534Y-35853565D01*
X71216888Y-35849000D01*
X71868112Y-35849000D01*
X71914466Y-35853565D01*
X71914466Y-35853565D01*
G37*
G36*
X73789466Y-35853565D02*
X73828137Y-35865296D01*
X73863779Y-35884348D01*
X73895017Y-35909983D01*
X73920652Y-35941221D01*
X73939704Y-35976863D01*
X73951435Y-36015534D01*
X73956000Y-36061888D01*
X73956000Y-37138112D01*
X73951435Y-37184466D01*
X73939704Y-37223137D01*
X73920652Y-37258779D01*
X73895017Y-37290017D01*
X73863779Y-37315652D01*
X73828137Y-37334704D01*
X73789466Y-37346435D01*
X73743112Y-37351000D01*
X73091888Y-37351000D01*
X73045534Y-37346435D01*
X73006863Y-37334704D01*
X72971221Y-37315652D01*
X72939983Y-37290017D01*
X72914348Y-37258779D01*
X72895296Y-37223137D01*
X72883565Y-37184466D01*
X72879000Y-37138112D01*
X72879000Y-36061888D01*
X72883565Y-36015534D01*
X72895296Y-35976863D01*
X72914348Y-35941221D01*
X72939983Y-35909983D01*
X72971221Y-35884348D01*
X73006863Y-35865296D01*
X73045534Y-35853565D01*
X73091888Y-35849000D01*
X73743112Y-35849000D01*
X73789466Y-35853565D01*
X73789466Y-35853565D01*
G37*
G36*
X74001000Y-35151000D02*
X72999000Y-35151000D01*
X72999000Y-34249000D01*
X74001000Y-34249000D01*
X74001000Y-35151000D01*
X74001000Y-35151000D01*
G37*
G36*
X72001000Y-34201000D02*
X70999000Y-34201000D01*
X70999000Y-33299000D01*
X72001000Y-33299000D01*
X72001000Y-34201000D01*
X72001000Y-34201000D01*
G37*
G36*
X74001000Y-33251000D02*
X72999000Y-33251000D01*
X72999000Y-32349000D01*
X74001000Y-32349000D01*
X74001000Y-33251000D01*
X74001000Y-33251000D01*
G37*
G36*
X56035786Y-23585462D02*
X56035788Y-23585463D01*
X56035789Y-23585463D01*
X56682029Y-23853144D01*
X56682030Y-23853145D01*
X57263634Y-24241760D01*
X57758240Y-24736366D01*
X57758242Y-24736369D01*
X58146856Y-25317971D01*
X58414537Y-25964211D01*
X58551000Y-26650257D01*
X58551000Y-27349743D01*
X58414537Y-28035789D01*
X58146856Y-28682029D01*
X58146855Y-28682030D01*
X57758240Y-29263634D01*
X57263634Y-29758240D01*
X57263631Y-29758242D01*
X56682029Y-30146856D01*
X56035789Y-30414537D01*
X56035788Y-30414537D01*
X56035786Y-30414538D01*
X55349744Y-30551000D01*
X54650256Y-30551000D01*
X53964214Y-30414538D01*
X53964212Y-30414537D01*
X53964211Y-30414537D01*
X53317971Y-30146856D01*
X52736369Y-29758242D01*
X52736366Y-29758240D01*
X52241760Y-29263634D01*
X51853145Y-28682030D01*
X51853144Y-28682029D01*
X51585463Y-28035789D01*
X51449000Y-27349743D01*
X51449000Y-26650257D01*
X51585463Y-25964211D01*
X51853144Y-25317971D01*
X52241758Y-24736369D01*
X52241760Y-24736366D01*
X52736366Y-24241760D01*
X53317970Y-23853145D01*
X53317971Y-23853144D01*
X53964211Y-23585463D01*
X53964212Y-23585463D01*
X53964214Y-23585462D01*
X54650256Y-23449000D01*
X55349744Y-23449000D01*
X56035786Y-23585462D01*
X56035786Y-23585462D01*
G37*
G36*
X105035786Y-23585462D02*
X105035788Y-23585463D01*
X105035789Y-23585463D01*
X105682029Y-23853144D01*
X105682030Y-23853145D01*
X106263634Y-24241760D01*
X106758240Y-24736366D01*
X106758242Y-24736369D01*
X107146856Y-25317971D01*
X107414537Y-25964211D01*
X107551000Y-26650257D01*
X107551000Y-27349743D01*
X107414537Y-28035789D01*
X107146856Y-28682029D01*
X107146855Y-28682030D01*
X106758240Y-29263634D01*
X106263634Y-29758240D01*
X106263631Y-29758242D01*
X105682029Y-30146856D01*
X105035789Y-30414537D01*
X105035788Y-30414537D01*
X105035786Y-30414538D01*
X104349744Y-30551000D01*
X103650256Y-30551000D01*
X102964214Y-30414538D01*
X102964212Y-30414537D01*
X102964211Y-30414537D01*
X102317971Y-30146856D01*
X101736369Y-29758242D01*
X101736366Y-29758240D01*
X101241760Y-29263634D01*
X100853145Y-28682030D01*
X100853144Y-28682029D01*
X100585463Y-28035789D01*
X100449000Y-27349743D01*
X100449000Y-26650257D01*
X100585463Y-25964211D01*
X100853144Y-25317971D01*
X101241758Y-24736369D01*
X101241760Y-24736366D01*
X101736366Y-24241760D01*
X102317970Y-23853145D01*
X102317971Y-23853144D01*
X102964211Y-23585463D01*
X102964212Y-23585463D01*
X102964214Y-23585462D01*
X103650256Y-23449000D01*
X104349744Y-23449000D01*
X105035786Y-23585462D01*
X105035786Y-23585462D01*
G37*
M02*
