G04 #@! TF.GenerationSoftware,KiCad,Pcbnew,5.0.2-bee76a0~70~ubuntu18.04.1*
G04 #@! TF.CreationDate,2019-05-29T18:19:34-05:00*
G04 #@! TF.ProjectId,ADAPTER_BOARD,41444150-5445-4525-9f42-4f4152442e6b,rev?*
G04 #@! TF.SameCoordinates,Original*
G04 #@! TF.FileFunction,Copper,L2,Bot*
G04 #@! TF.FilePolarity,Positive*
%FSLAX46Y46*%
G04 Gerber Fmt 4.6, Leading zero omitted, Abs format (unit mm)*
G04 Created by KiCad (PCBNEW 5.0.2-bee76a0~70~ubuntu18.04.1) date Wed 29 May 2019 06:19:34 PM CDT*
%MOMM*%
%LPD*%
G01*
G04 APERTURE LIST*
G04 #@! TA.AperFunction,ComponentPad*
%ADD10C,1.800000*%
G04 #@! TD*
G04 #@! TA.AperFunction,ComponentPad*
%ADD11C,2.200000*%
G04 #@! TD*
G04 #@! TA.AperFunction,ComponentPad*
%ADD12C,4.000000*%
G04 #@! TD*
G04 #@! TA.AperFunction,ComponentPad*
%ADD13C,7.000000*%
G04 #@! TD*
G04 #@! TA.AperFunction,ViaPad*
%ADD14C,0.800000*%
G04 #@! TD*
G04 #@! TA.AperFunction,ViaPad*
%ADD15C,1.000000*%
G04 #@! TD*
G04 #@! TA.AperFunction,Conductor*
%ADD16C,1.500000*%
G04 #@! TD*
G04 #@! TA.AperFunction,Conductor*
%ADD17C,1.000000*%
G04 #@! TD*
G04 #@! TA.AperFunction,Conductor*
%ADD18C,0.254000*%
G04 #@! TD*
G04 APERTURE END LIST*
D10*
G04 #@! TO.P,BOARD1,2*
G04 #@! TO.N,GND*
X63070000Y-45300000D03*
G04 #@! TO.P,BOARD1,1*
G04 #@! TO.N,/B01*
X60530000Y-45300000D03*
G04 #@! TO.P,BOARD1,4*
G04 #@! TO.N,GND*
X63070000Y-47840000D03*
G04 #@! TO.P,BOARD1,3*
G04 #@! TO.N,/B02*
X60530000Y-47840000D03*
G04 #@! TO.P,BOARD1,6*
G04 #@! TO.N,GND*
X63070000Y-50380000D03*
G04 #@! TO.P,BOARD1,5*
G04 #@! TO.N,/B03*
X60530000Y-50380000D03*
G04 #@! TO.P,BOARD1,8*
G04 #@! TO.N,GND*
X63070000Y-52920000D03*
G04 #@! TO.P,BOARD1,7*
G04 #@! TO.N,/B04*
X60530000Y-52920000D03*
G04 #@! TO.P,BOARD1,10*
G04 #@! TO.N,GND*
X63070000Y-55460000D03*
G04 #@! TO.P,BOARD1,9*
G04 #@! TO.N,/B05*
X60530000Y-55460000D03*
G04 #@! TO.P,BOARD1,12*
G04 #@! TO.N,GND*
X63070000Y-58000000D03*
G04 #@! TO.P,BOARD1,11*
G04 #@! TO.N,/B06*
X60530000Y-58000000D03*
G04 #@! TO.P,BOARD1,14*
G04 #@! TO.N,GND*
X63070000Y-60540000D03*
G04 #@! TO.P,BOARD1,13*
G04 #@! TO.N,/B07*
X60530000Y-60540000D03*
G04 #@! TO.P,BOARD1,16*
G04 #@! TO.N,GND*
X63070000Y-63080000D03*
G04 #@! TO.P,BOARD1,15*
G04 #@! TO.N,/B08*
X60530000Y-63080000D03*
G04 #@! TO.P,BOARD1,18*
G04 #@! TO.N,GND*
X63070000Y-65620000D03*
G04 #@! TO.P,BOARD1,17*
G04 #@! TO.N,/B09*
X60530000Y-65620000D03*
G04 #@! TO.P,BOARD1,20*
G04 #@! TO.N,GND*
X63070000Y-68160000D03*
G04 #@! TO.P,BOARD1,19*
G04 #@! TO.N,/B10*
X60530000Y-68160000D03*
G04 #@! TO.P,BOARD1,22*
G04 #@! TO.N,GND*
X63070000Y-70700000D03*
G04 #@! TO.P,BOARD1,21*
G04 #@! TO.N,/B11*
X60530000Y-70700000D03*
G04 #@! TO.P,BOARD1,24*
G04 #@! TO.N,GND*
X63070000Y-73240000D03*
G04 #@! TO.P,BOARD1,23*
G04 #@! TO.N,/B12*
X60530000Y-73240000D03*
G04 #@! TO.P,BOARD1,26*
G04 #@! TO.N,GND*
X63070000Y-75780000D03*
G04 #@! TO.P,BOARD1,25*
G04 #@! TO.N,/B13*
X60530000Y-75780000D03*
G04 #@! TO.P,BOARD1,28*
G04 #@! TO.N,GND*
X63070000Y-78320000D03*
G04 #@! TO.P,BOARD1,27*
G04 #@! TO.N,/B14*
X60530000Y-78320000D03*
G04 #@! TO.P,BOARD1,30*
G04 #@! TO.N,GND*
X63070000Y-80860000D03*
G04 #@! TO.P,BOARD1,29*
G04 #@! TO.N,/B15*
X60530000Y-80860000D03*
G04 #@! TO.P,BOARD1,32*
G04 #@! TO.N,GND*
X63070000Y-83400000D03*
G04 #@! TO.P,BOARD1,31*
G04 #@! TO.N,/B16*
X60530000Y-83400000D03*
G04 #@! TO.P,BOARD1,34*
G04 #@! TO.N,GND*
X63070000Y-85940000D03*
G04 #@! TO.P,BOARD1,33*
G04 #@! TO.N,/B17*
X60530000Y-85940000D03*
G04 #@! TO.P,BOARD1,36*
G04 #@! TO.N,GND*
X63070000Y-88480000D03*
G04 #@! TO.P,BOARD1,35*
G04 #@! TO.N,/B18*
X60530000Y-88480000D03*
G04 #@! TO.P,BOARD1,38*
G04 #@! TO.N,GND*
X63070000Y-91020000D03*
G04 #@! TO.P,BOARD1,37*
G04 #@! TO.N,/B19*
X60530000Y-91020000D03*
G04 #@! TO.P,BOARD1,40*
G04 #@! TO.N,GND*
X63070000Y-93560000D03*
G04 #@! TO.P,BOARD1,39*
G04 #@! TO.N,/B20*
X60530000Y-93560000D03*
G04 #@! TO.P,BOARD1,42*
G04 #@! TO.N,GND*
X63070000Y-96100000D03*
G04 #@! TO.P,BOARD1,41*
G04 #@! TO.N,/B21*
X60530000Y-96100000D03*
G04 #@! TO.P,BOARD1,44*
G04 #@! TO.N,GND*
X63070000Y-98640000D03*
G04 #@! TO.P,BOARD1,43*
G04 #@! TO.N,/B22*
X60530000Y-98640000D03*
G04 #@! TO.P,BOARD1,46*
G04 #@! TO.N,GND*
X63070000Y-101180000D03*
G04 #@! TO.P,BOARD1,45*
G04 #@! TO.N,/B23*
X60530000Y-101180000D03*
G04 #@! TO.P,BOARD1,48*
G04 #@! TO.N,GND*
X63070000Y-103720000D03*
G04 #@! TO.P,BOARD1,47*
G04 #@! TO.N,/B24*
X60530000Y-103720000D03*
G04 #@! TO.P,BOARD1,50*
G04 #@! TO.N,GND*
X63070000Y-106260000D03*
G04 #@! TO.P,BOARD1,49*
G04 #@! TO.N,Net-(BOARD1-Pad49)*
X60530000Y-106260000D03*
G04 #@! TD*
D11*
G04 #@! TO.P,PLC1-12,1*
G04 #@! TO.N,/P12*
X90750000Y-74950000D03*
G04 #@! TO.P,PLC1-12,3*
G04 #@! TO.N,/P10*
X90750000Y-69950000D03*
G04 #@! TO.P,PLC1-12,5*
G04 #@! TO.N,/P08*
X90750000Y-64950000D03*
G04 #@! TO.P,PLC1-12,7*
G04 #@! TO.N,/P06*
X90750000Y-59950000D03*
G04 #@! TO.P,PLC1-12,9*
G04 #@! TO.N,/P04*
X90750000Y-54950000D03*
G04 #@! TO.P,PLC1-12,11*
G04 #@! TO.N,/P02*
X90750000Y-49950000D03*
G04 #@! TO.P,PLC1-12,2*
G04 #@! TO.N,/P11*
X95750000Y-72450000D03*
G04 #@! TO.P,PLC1-12,4*
G04 #@! TO.N,/P09*
X95750000Y-67450000D03*
G04 #@! TO.P,PLC1-12,6*
G04 #@! TO.N,/P07*
X95750000Y-62450000D03*
G04 #@! TO.P,PLC1-12,8*
G04 #@! TO.N,/P05*
X95750000Y-57450000D03*
G04 #@! TO.P,PLC1-12,10*
G04 #@! TO.N,/P03*
X95750000Y-52450000D03*
G04 #@! TO.P,PLC1-12,12*
G04 #@! TO.N,/P01*
X95750000Y-47450000D03*
G04 #@! TD*
G04 #@! TO.P,PLC13-14,1*
G04 #@! TO.N,/P24*
X90700000Y-116950000D03*
G04 #@! TO.P,PLC13-14,3*
G04 #@! TO.N,/P22*
X90700000Y-111950000D03*
G04 #@! TO.P,PLC13-14,5*
G04 #@! TO.N,/P20*
X90700000Y-106950000D03*
G04 #@! TO.P,PLC13-14,7*
G04 #@! TO.N,/P18*
X90700000Y-101950000D03*
G04 #@! TO.P,PLC13-14,9*
G04 #@! TO.N,/P16*
X90700000Y-96950000D03*
G04 #@! TO.P,PLC13-14,11*
G04 #@! TO.N,/P14*
X90700000Y-91950000D03*
G04 #@! TO.P,PLC13-14,2*
G04 #@! TO.N,/P23*
X95700000Y-114450000D03*
G04 #@! TO.P,PLC13-14,4*
G04 #@! TO.N,/P21*
X95700000Y-109450000D03*
G04 #@! TO.P,PLC13-14,6*
G04 #@! TO.N,/P19*
X95700000Y-104450000D03*
G04 #@! TO.P,PLC13-14,8*
G04 #@! TO.N,/P17*
X95700000Y-99450000D03*
G04 #@! TO.P,PLC13-14,10*
G04 #@! TO.N,/P15*
X95700000Y-94450000D03*
G04 #@! TO.P,PLC13-14,12*
G04 #@! TO.N,/P13*
X95700000Y-89450000D03*
G04 #@! TD*
G04 #@! TO.P,PLC24,1*
G04 #@! TO.N,/24V*
X90720000Y-83500000D03*
G04 #@! TO.P,PLC24,2*
X95720000Y-81000000D03*
G04 #@! TD*
D12*
G04 #@! TO.P,VDC24,2*
G04 #@! TO.N,/24V*
X101410000Y-36950000D03*
G04 #@! TO.P,VDC24,1*
X101410000Y-41950000D03*
G04 #@! TD*
D13*
G04 #@! TO.P,REF\002A\002A,1*
G04 #@! TO.N,N/C*
X104000000Y-125000000D03*
G04 #@! TD*
G04 #@! TO.P,REF\002A\002A,1*
G04 #@! TO.N,N/C*
X55000000Y-125000000D03*
G04 #@! TD*
G04 #@! TO.P,REF\002A\002A,1*
G04 #@! TO.N,N/C*
X104000000Y-27000000D03*
G04 #@! TD*
G04 #@! TO.P,REF\002A\002A,1*
G04 #@! TO.N,N/C*
X55000000Y-27000000D03*
G04 #@! TD*
D14*
G04 #@! TO.N,GND*
X82220000Y-65380000D03*
X82200000Y-59720000D03*
X82200000Y-76610000D03*
X82200000Y-82270000D03*
X82170000Y-87810000D03*
X82160000Y-93430000D03*
X82170000Y-99110000D03*
X82170000Y-104770000D03*
X82180000Y-110490000D03*
X82210000Y-116120000D03*
X102650000Y-78650000D03*
X102650000Y-87200000D03*
X72700000Y-33700000D03*
X72700000Y-39300000D03*
X72600000Y-45000000D03*
X72600000Y-50600000D03*
X72700000Y-56300000D03*
X72681634Y-61976387D03*
X72700000Y-67500000D03*
X72700000Y-73100000D03*
X72600000Y-84500000D03*
X72700000Y-90100000D03*
X72600000Y-95600000D03*
X101500000Y-78700000D03*
X101500000Y-79800000D03*
X101500000Y-80900002D03*
X101500000Y-82199998D03*
X101500000Y-84800000D03*
X101500000Y-85900000D03*
X101500000Y-87000000D03*
X103800000Y-87100000D03*
X103800000Y-85900000D03*
X103800000Y-84800000D03*
X102700000Y-84800000D03*
X102700000Y-85900000D03*
X102700000Y-79800000D03*
X102700000Y-81000000D03*
X102700000Y-82200000D03*
X103800000Y-78700000D03*
X103800000Y-79800000D03*
X103800000Y-81000000D03*
X103800000Y-82200000D03*
X88400000Y-87300000D03*
X89490909Y-87300000D03*
X90581818Y-87300000D03*
X91672727Y-87300000D03*
X92763636Y-87300000D03*
X93854545Y-87300000D03*
X94945454Y-87300000D03*
X96036363Y-87300000D03*
X97127272Y-87300000D03*
X98218181Y-87300000D03*
X99309090Y-87300000D03*
X100400000Y-87300000D03*
X92763636Y-78700000D03*
X89490909Y-78700000D03*
X90581818Y-78700000D03*
X97127272Y-78700000D03*
X94945454Y-78700000D03*
X88400000Y-78700000D03*
X91672727Y-78700000D03*
X96036363Y-78700000D03*
X93854545Y-78700000D03*
X96036363Y-45300000D03*
X93854545Y-45300000D03*
X97127272Y-45300000D03*
X90581818Y-45300000D03*
X88400000Y-45300000D03*
X89490909Y-45300000D03*
X91672727Y-45300000D03*
X94945454Y-45300000D03*
X92763636Y-45300000D03*
X106200000Y-44600000D03*
X106200000Y-46100000D03*
X106200000Y-47600000D03*
X106200000Y-49100000D03*
X106200000Y-50600000D03*
X106200000Y-52100000D03*
X106200000Y-53600000D03*
X106200000Y-55100000D03*
X106200000Y-56600000D03*
X106200000Y-58100000D03*
X106200000Y-59600000D03*
X106200000Y-61100000D03*
X106200000Y-62600000D03*
X106200000Y-64100000D03*
X106200000Y-65600000D03*
X106200000Y-67100000D03*
X106200000Y-68600000D03*
X106200000Y-70100000D03*
X106200000Y-71600000D03*
X106200000Y-73100000D03*
X106200000Y-74600000D03*
X106200000Y-76100000D03*
X106200000Y-77600000D03*
X106200000Y-79100000D03*
X106200000Y-80600000D03*
X106200000Y-82100000D03*
X106200000Y-83600000D03*
X106200000Y-85100000D03*
X106200000Y-86600000D03*
X106200000Y-88100000D03*
X106200000Y-89600000D03*
X106200000Y-91100000D03*
X106200000Y-92600000D03*
X106200000Y-94100000D03*
X106200000Y-95600000D03*
X106200000Y-97100000D03*
X106200000Y-98600000D03*
X106200000Y-100100000D03*
X106200000Y-101600000D03*
X106200000Y-103100000D03*
X106200000Y-104600000D03*
X106200000Y-106100000D03*
X106200000Y-107600000D03*
X106200000Y-109100000D03*
X106200000Y-110600000D03*
X106200000Y-112100000D03*
X106200000Y-113600000D03*
X106200000Y-115100000D03*
X106200000Y-116600000D03*
X106200000Y-118100000D03*
X106200000Y-119600000D03*
X101500000Y-45200000D03*
X102600000Y-45200000D03*
X103800000Y-45200000D03*
X105200000Y-89600000D03*
X105200000Y-91100000D03*
X105200000Y-113600000D03*
X105200000Y-115100000D03*
X105200000Y-67100000D03*
X105200000Y-116600000D03*
X105200000Y-118100000D03*
X105200000Y-50600000D03*
X105200000Y-85100000D03*
X105200000Y-79100000D03*
X105200000Y-82100000D03*
X105200000Y-101600000D03*
X105200000Y-103100000D03*
X105200000Y-70100000D03*
X105200000Y-53600000D03*
X105200000Y-77600000D03*
X105200000Y-62600000D03*
X105200000Y-49100000D03*
X105200000Y-83600000D03*
X105200000Y-74600000D03*
X105200000Y-104600000D03*
X105200000Y-76100000D03*
X105200000Y-73100000D03*
X105200000Y-95600000D03*
X105200000Y-97100000D03*
X105200000Y-80600000D03*
X105200000Y-64100000D03*
X105200000Y-55100000D03*
X105200000Y-58100000D03*
X105200000Y-92600000D03*
X105200000Y-94100000D03*
X105200000Y-106100000D03*
X105200000Y-71600000D03*
X105200000Y-119600000D03*
X105200000Y-61100000D03*
X105200000Y-56600000D03*
X105200000Y-52100000D03*
X105200000Y-44600000D03*
X105200000Y-65600000D03*
X105200000Y-86600000D03*
X105200000Y-88100000D03*
X105200000Y-68600000D03*
X105200000Y-46100000D03*
X105200000Y-110600000D03*
X105200000Y-112100000D03*
X105200000Y-47600000D03*
X105200000Y-59600000D03*
X105200000Y-98600000D03*
X105200000Y-100100000D03*
X105200000Y-107600000D03*
X105200000Y-109100000D03*
X103800000Y-83400000D03*
X102700000Y-83400000D03*
X101500000Y-83399998D03*
X98300000Y-78700000D03*
X82200000Y-54070000D03*
X80810000Y-58580000D03*
X81860000Y-53100000D03*
X80880000Y-64260000D03*
X80890000Y-69900000D03*
X80850000Y-75490000D03*
X80920000Y-86680000D03*
X80810000Y-92250000D03*
X80800000Y-97990000D03*
X80830000Y-103570000D03*
X80900000Y-109310000D03*
X80810000Y-114950000D03*
D15*
X62500000Y-123750000D03*
X64500000Y-123750000D03*
X66500000Y-123750000D03*
X68500000Y-123750000D03*
X70500000Y-123750000D03*
X72500000Y-123750000D03*
X74500000Y-123750000D03*
X76500000Y-123750000D03*
X78500000Y-123750000D03*
X80500000Y-123750000D03*
X82500000Y-123750000D03*
X84500000Y-123750000D03*
X86500000Y-123750000D03*
X88500000Y-123750000D03*
X90500000Y-123750000D03*
X92500000Y-123750000D03*
X94500000Y-123750000D03*
X96500000Y-123750000D03*
X98500000Y-123750000D03*
X60500000Y-125750000D03*
X62500000Y-125750000D03*
X64500000Y-125750000D03*
X66500000Y-125750000D03*
X68500000Y-125750000D03*
X70500000Y-125750000D03*
X72500000Y-125750000D03*
X74500000Y-125750000D03*
X76500000Y-125750000D03*
X78500000Y-125750000D03*
X80500000Y-125750000D03*
X82500000Y-125750000D03*
X84500000Y-125750000D03*
X86500000Y-125750000D03*
X88500000Y-125750000D03*
X90500000Y-125750000D03*
X92500000Y-125750000D03*
X94500000Y-125750000D03*
X96500000Y-125750000D03*
X98500000Y-125750000D03*
X60500000Y-127750000D03*
X62500000Y-127750000D03*
X64500000Y-127750000D03*
X66500000Y-127750000D03*
X68500000Y-127750000D03*
X70500000Y-127750000D03*
X72500000Y-127750000D03*
X74500000Y-127750000D03*
X76500000Y-127750000D03*
X78500000Y-127750000D03*
X80500000Y-127750000D03*
X82500000Y-127750000D03*
X84500000Y-127750000D03*
X86500000Y-127750000D03*
X88500000Y-127750000D03*
X90500000Y-127750000D03*
X92500000Y-127750000D03*
X94500000Y-127750000D03*
X96500000Y-127750000D03*
X98500000Y-127750000D03*
X60500000Y-123750000D03*
X60500000Y-24250000D03*
X72500000Y-24250000D03*
X94500000Y-24250000D03*
X76500000Y-24250000D03*
X78500000Y-26250000D03*
X62500000Y-26250000D03*
X64500000Y-24250000D03*
X86500000Y-26250000D03*
X80500000Y-24250000D03*
X90500000Y-24250000D03*
X82500000Y-26250000D03*
X88500000Y-24250000D03*
X68500000Y-24250000D03*
X80500000Y-26250000D03*
X64500000Y-28250000D03*
X66500000Y-28250000D03*
X76500000Y-28250000D03*
X78500000Y-28250000D03*
X80500000Y-28250000D03*
X86500000Y-24250000D03*
X92500000Y-26250000D03*
X94500000Y-26250000D03*
X70500000Y-24250000D03*
X68500000Y-28250000D03*
X70500000Y-28250000D03*
X88500000Y-28250000D03*
X90500000Y-28250000D03*
X92500000Y-28250000D03*
X64500000Y-26250000D03*
X68500000Y-26250000D03*
X66500000Y-26250000D03*
X74500000Y-24250000D03*
X62500000Y-24250000D03*
X82500000Y-28250000D03*
X84500000Y-28250000D03*
X86500000Y-28250000D03*
X92500000Y-24250000D03*
X98500000Y-24250000D03*
X60500000Y-28250000D03*
X62500000Y-28250000D03*
X96500000Y-26250000D03*
X98500000Y-26250000D03*
X96500000Y-24250000D03*
X70500000Y-26250000D03*
X82500000Y-24250000D03*
X84500000Y-24250000D03*
X74500000Y-26250000D03*
X76500000Y-26250000D03*
X72500000Y-28250000D03*
X74500000Y-28250000D03*
X88500000Y-26250000D03*
X90500000Y-26250000D03*
X60500000Y-26250000D03*
X72500000Y-26250000D03*
X94500000Y-28250000D03*
X96500000Y-28250000D03*
X98500000Y-28250000D03*
X84500000Y-26250000D03*
X78500000Y-24250000D03*
X66500000Y-24250000D03*
X60500000Y-121750000D03*
X72500000Y-121750000D03*
X94500000Y-121750000D03*
X76500000Y-121750000D03*
X64500000Y-121750000D03*
X80500000Y-121750000D03*
X90500000Y-121750000D03*
X88500000Y-121750000D03*
X68500000Y-121750000D03*
X86500000Y-121750000D03*
X70500000Y-121750000D03*
X74500000Y-121750000D03*
X62500000Y-121750000D03*
X92500000Y-121750000D03*
X98500000Y-121750000D03*
X96500000Y-121750000D03*
X82500000Y-121750000D03*
X84500000Y-121750000D03*
X78500000Y-121750000D03*
X66500000Y-121750000D03*
X72500000Y-30250000D03*
X88500000Y-30250000D03*
X76500000Y-30250000D03*
X80500000Y-30250000D03*
X84500000Y-30250000D03*
X82500000Y-30250000D03*
X90500000Y-30250000D03*
X62500000Y-30250000D03*
X74500000Y-30250000D03*
X92500000Y-30250000D03*
X78500000Y-30250000D03*
X68500000Y-30250000D03*
X96500000Y-30250000D03*
X98500000Y-30250000D03*
X70500000Y-30250000D03*
X64500000Y-30250000D03*
X60500000Y-30250000D03*
X66500000Y-30250000D03*
X86500000Y-30250000D03*
X94500000Y-30250000D03*
D14*
X106200000Y-40100000D03*
X106200000Y-41600000D03*
X106200000Y-43100000D03*
X105200000Y-40100000D03*
X105200000Y-41600000D03*
X105200000Y-43100000D03*
X105200000Y-38600000D03*
X105200000Y-37100000D03*
X106200000Y-35600000D03*
X105200000Y-35600000D03*
X106200000Y-37100000D03*
X106200000Y-38600000D03*
X105200000Y-34350000D03*
X105200000Y-32850000D03*
X106200000Y-32850000D03*
X106200000Y-34350000D03*
D15*
X71750000Y-107000000D03*
X71750000Y-109000000D03*
X75750000Y-107000000D03*
X75750000Y-109000000D03*
X77750000Y-111000000D03*
X75750000Y-113000000D03*
X77750000Y-113000000D03*
X73750000Y-107000000D03*
X77750000Y-107000000D03*
X73750000Y-109000000D03*
X73750000Y-111000000D03*
X75750000Y-111000000D03*
X71750000Y-113000000D03*
X73750000Y-113000000D03*
X71750000Y-111000000D03*
X77750000Y-109000000D03*
X73750000Y-116500000D03*
X71750000Y-114500000D03*
X73750000Y-114500000D03*
X77750000Y-114500000D03*
X75750000Y-116500000D03*
X73750000Y-118500000D03*
X77750000Y-118500000D03*
X71750000Y-118500000D03*
X71750000Y-116500000D03*
X77750000Y-116500000D03*
X75750000Y-118500000D03*
X75750000Y-114500000D03*
X77750000Y-120250000D03*
X73750000Y-120250000D03*
X71750000Y-120250000D03*
X75750000Y-120250000D03*
X80500000Y-41750000D03*
X78500000Y-36250000D03*
X78500000Y-41750000D03*
X76500000Y-45500000D03*
X76500000Y-34250000D03*
X78500000Y-34250000D03*
X82500000Y-43750000D03*
X76500000Y-41750000D03*
X82500000Y-34250000D03*
X80500000Y-36250000D03*
X78500000Y-43750000D03*
X78500000Y-38250000D03*
X80500000Y-45500000D03*
X82500000Y-38250000D03*
X78500000Y-45500000D03*
X76500000Y-43750000D03*
X82500000Y-41750000D03*
X82500000Y-32250000D03*
X76500000Y-38250000D03*
X82500000Y-40000000D03*
X76500000Y-36250000D03*
X78500000Y-32250000D03*
X82500000Y-36250000D03*
X80500000Y-38250000D03*
X76500000Y-40000000D03*
X80500000Y-40000000D03*
X78500000Y-40000000D03*
X82500000Y-45500000D03*
X80500000Y-32250000D03*
X80500000Y-34250000D03*
X80500000Y-43750000D03*
X76500000Y-32250000D03*
X84500000Y-32250000D03*
X86500000Y-43750000D03*
X86500000Y-36250000D03*
X84500000Y-43750000D03*
X86500000Y-45500000D03*
X84500000Y-41750000D03*
X86500000Y-41750000D03*
X84500000Y-40000000D03*
X86500000Y-34250000D03*
X86500000Y-32250000D03*
X84500000Y-45500000D03*
X84500000Y-38250000D03*
X86500000Y-40000000D03*
X84500000Y-34250000D03*
X86500000Y-38250000D03*
X84500000Y-36250000D03*
X88500000Y-43750000D03*
X88500000Y-40000000D03*
X88500000Y-38250000D03*
X88500000Y-32250000D03*
X88500000Y-41750000D03*
X88500000Y-34250000D03*
X88500000Y-36250000D03*
X90500000Y-32250000D03*
X90500000Y-41750000D03*
X90500000Y-38250000D03*
X90500000Y-43750000D03*
X90500000Y-36250000D03*
X90500000Y-40000000D03*
X90500000Y-34250000D03*
X92250000Y-38250000D03*
X92250000Y-41750000D03*
X92250000Y-43750000D03*
X92250000Y-40000000D03*
X92250000Y-32250000D03*
X92250000Y-34250000D03*
X92250000Y-36250000D03*
X98250000Y-32250000D03*
X94500000Y-32250000D03*
X96500000Y-32250000D03*
D14*
X104200000Y-32850000D03*
X103200000Y-32850000D03*
X102200000Y-32850000D03*
X100200000Y-32850000D03*
X101200000Y-32850000D03*
X71500000Y-32500000D03*
X71500000Y-35000000D03*
X71500000Y-38250000D03*
X71500000Y-40500000D03*
X71500000Y-43750000D03*
X71500000Y-46250000D03*
X71500000Y-49500000D03*
X71500000Y-51750000D03*
X71300000Y-55100000D03*
X71300000Y-57500000D03*
X72300000Y-55200000D03*
X72400000Y-49600000D03*
X72400000Y-43900000D03*
X72400000Y-38400000D03*
X72400000Y-40300000D03*
X72400000Y-32700000D03*
X71400000Y-60700000D03*
X71400000Y-63100000D03*
X72400000Y-60800000D03*
X71400000Y-66300000D03*
X72400000Y-66400000D03*
X71400000Y-68700000D03*
X71400000Y-71900000D03*
X72300000Y-72000000D03*
X72300000Y-74100000D03*
X71300000Y-74200000D03*
X71300000Y-77600000D03*
X72300000Y-77600000D03*
X72300000Y-79800000D03*
X71300000Y-79900000D03*
X71300000Y-83300000D03*
X72300000Y-83300000D03*
X72300000Y-85500000D03*
X71300000Y-85600000D03*
X71300000Y-88900000D03*
X72400000Y-89000000D03*
X71300000Y-91300000D03*
X71300000Y-94500000D03*
X72300000Y-94600000D03*
X71300000Y-96900000D03*
X72300000Y-68500000D03*
X72300000Y-62900000D03*
X72300000Y-57300000D03*
X72400000Y-51500000D03*
X72400000Y-45900000D03*
X72400000Y-34600000D03*
X72300000Y-91000000D03*
X72300000Y-96600000D03*
X80900000Y-53000000D03*
X81900000Y-55100000D03*
X80900000Y-55300000D03*
X81900000Y-58700000D03*
X80900000Y-61000000D03*
X81900000Y-64400000D03*
X81900000Y-60700000D03*
X81900000Y-66400000D03*
X80900000Y-66700000D03*
X81900000Y-70000000D03*
X81900000Y-72000000D03*
X80900000Y-72300000D03*
X81900000Y-75600000D03*
X81900000Y-77600000D03*
X80800000Y-77800000D03*
X80900000Y-81100000D03*
X81900000Y-81300000D03*
X80900000Y-83500000D03*
X81900000Y-86700000D03*
X80900000Y-89100000D03*
X81900000Y-92400000D03*
X81900000Y-94500000D03*
X80900000Y-94700000D03*
X81900000Y-98100000D03*
X80900000Y-100400000D03*
X81900000Y-88800000D03*
X81900000Y-100100000D03*
X81900000Y-103700000D03*
X81900000Y-105800000D03*
X80900000Y-106000000D03*
X81900000Y-109500000D03*
X80900000Y-111600000D03*
X81800000Y-115100000D03*
X81900000Y-117100000D03*
X80800000Y-117400000D03*
X81883590Y-83283590D03*
X81900000Y-111400000D03*
X82180000Y-71040000D03*
X72600000Y-78700000D03*
X98300000Y-45300000D03*
X100900010Y-45300000D03*
G04 #@! TD*
D16*
G04 #@! TO.N,/24V*
X101410000Y-39778427D02*
X101410000Y-41950000D01*
X101410000Y-36950000D02*
X101410000Y-39778427D01*
D17*
X95720000Y-81000000D02*
X98100000Y-81000000D01*
X98100000Y-81000000D02*
X99400000Y-79700000D01*
X99800000Y-43560000D02*
X101410000Y-41950000D01*
X99800000Y-79200000D02*
X99800000Y-43560000D01*
X99400000Y-79600000D02*
X99800000Y-79200000D01*
G04 #@! TD*
D18*
G04 #@! TO.N,GND*
G36*
X99873000Y-31000000D02*
X99882667Y-31048601D01*
X99910197Y-31089803D01*
X99951399Y-31117333D01*
X100000000Y-31127000D01*
X107873000Y-31127000D01*
X107873000Y-120873000D01*
X100000000Y-120873000D01*
X99951399Y-120882667D01*
X99910197Y-120910197D01*
X99882667Y-120951399D01*
X99873000Y-121000000D01*
X99873000Y-128873000D01*
X59127000Y-128873000D01*
X59127000Y-121000000D01*
X59117333Y-120951399D01*
X59089803Y-120910197D01*
X59048601Y-120882667D01*
X59000000Y-120873000D01*
X51127000Y-120873000D01*
X51127000Y-114746587D01*
X59723000Y-114746587D01*
X59723000Y-115473413D01*
X60001144Y-116144912D01*
X60515088Y-116658856D01*
X61186587Y-116937000D01*
X61913413Y-116937000D01*
X62584912Y-116658856D01*
X62587562Y-116656206D01*
X89223000Y-116656206D01*
X89223000Y-117243794D01*
X89447860Y-117786653D01*
X89863347Y-118202140D01*
X90406206Y-118427000D01*
X90993794Y-118427000D01*
X91536653Y-118202140D01*
X91952140Y-117786653D01*
X92177000Y-117243794D01*
X92177000Y-116656206D01*
X91952140Y-116113347D01*
X91536653Y-115697860D01*
X90993794Y-115473000D01*
X90406206Y-115473000D01*
X89863347Y-115697860D01*
X89447860Y-116113347D01*
X89223000Y-116656206D01*
X62587562Y-116656206D01*
X63098856Y-116144912D01*
X63377000Y-115473413D01*
X63377000Y-114746587D01*
X63132457Y-114156206D01*
X94223000Y-114156206D01*
X94223000Y-114743794D01*
X94447860Y-115286653D01*
X94863347Y-115702140D01*
X95406206Y-115927000D01*
X95993794Y-115927000D01*
X96536653Y-115702140D01*
X96952140Y-115286653D01*
X97177000Y-114743794D01*
X97177000Y-114156206D01*
X96952140Y-113613347D01*
X96536653Y-113197860D01*
X95993794Y-112973000D01*
X95406206Y-112973000D01*
X94863347Y-113197860D01*
X94447860Y-113613347D01*
X94223000Y-114156206D01*
X63132457Y-114156206D01*
X63098856Y-114075088D01*
X62584912Y-113561144D01*
X61913413Y-113283000D01*
X61186587Y-113283000D01*
X60515088Y-113561144D01*
X60001144Y-114075088D01*
X59723000Y-114746587D01*
X51127000Y-114746587D01*
X51127000Y-111656206D01*
X89223000Y-111656206D01*
X89223000Y-112243794D01*
X89447860Y-112786653D01*
X89863347Y-113202140D01*
X90406206Y-113427000D01*
X90993794Y-113427000D01*
X91536653Y-113202140D01*
X91952140Y-112786653D01*
X92177000Y-112243794D01*
X92177000Y-111656206D01*
X91952140Y-111113347D01*
X91536653Y-110697860D01*
X90993794Y-110473000D01*
X90406206Y-110473000D01*
X89863347Y-110697860D01*
X89447860Y-111113347D01*
X89223000Y-111656206D01*
X51127000Y-111656206D01*
X51127000Y-109156206D01*
X94223000Y-109156206D01*
X94223000Y-109743794D01*
X94447860Y-110286653D01*
X94863347Y-110702140D01*
X95406206Y-110927000D01*
X95993794Y-110927000D01*
X96536653Y-110702140D01*
X96952140Y-110286653D01*
X97177000Y-109743794D01*
X97177000Y-109156206D01*
X96952140Y-108613347D01*
X96536653Y-108197860D01*
X95993794Y-107973000D01*
X95406206Y-107973000D01*
X94863347Y-108197860D01*
X94447860Y-108613347D01*
X94223000Y-109156206D01*
X51127000Y-109156206D01*
X51127000Y-45045989D01*
X59253000Y-45045989D01*
X59253000Y-45554011D01*
X59447412Y-46023362D01*
X59806638Y-46382588D01*
X60259090Y-46570000D01*
X59806638Y-46757412D01*
X59447412Y-47116638D01*
X59253000Y-47585989D01*
X59253000Y-48094011D01*
X59447412Y-48563362D01*
X59806638Y-48922588D01*
X60259090Y-49110000D01*
X59806638Y-49297412D01*
X59447412Y-49656638D01*
X59253000Y-50125989D01*
X59253000Y-50634011D01*
X59447412Y-51103362D01*
X59806638Y-51462588D01*
X60259090Y-51650000D01*
X59806638Y-51837412D01*
X59447412Y-52196638D01*
X59253000Y-52665989D01*
X59253000Y-53174011D01*
X59447412Y-53643362D01*
X59806638Y-54002588D01*
X60259090Y-54190000D01*
X59806638Y-54377412D01*
X59447412Y-54736638D01*
X59253000Y-55205989D01*
X59253000Y-55714011D01*
X59447412Y-56183362D01*
X59806638Y-56542588D01*
X60259090Y-56730000D01*
X59806638Y-56917412D01*
X59447412Y-57276638D01*
X59253000Y-57745989D01*
X59253000Y-58254011D01*
X59447412Y-58723362D01*
X59806638Y-59082588D01*
X60259090Y-59270000D01*
X59806638Y-59457412D01*
X59447412Y-59816638D01*
X59253000Y-60285989D01*
X59253000Y-60794011D01*
X59447412Y-61263362D01*
X59806638Y-61622588D01*
X60259090Y-61810000D01*
X59806638Y-61997412D01*
X59447412Y-62356638D01*
X59253000Y-62825989D01*
X59253000Y-63334011D01*
X59447412Y-63803362D01*
X59806638Y-64162588D01*
X60259090Y-64350000D01*
X59806638Y-64537412D01*
X59447412Y-64896638D01*
X59253000Y-65365989D01*
X59253000Y-65874011D01*
X59447412Y-66343362D01*
X59806638Y-66702588D01*
X60259090Y-66890000D01*
X59806638Y-67077412D01*
X59447412Y-67436638D01*
X59253000Y-67905989D01*
X59253000Y-68414011D01*
X59447412Y-68883362D01*
X59806638Y-69242588D01*
X60259090Y-69430000D01*
X59806638Y-69617412D01*
X59447412Y-69976638D01*
X59253000Y-70445989D01*
X59253000Y-70954011D01*
X59447412Y-71423362D01*
X59806638Y-71782588D01*
X60259090Y-71970000D01*
X59806638Y-72157412D01*
X59447412Y-72516638D01*
X59253000Y-72985989D01*
X59253000Y-73494011D01*
X59447412Y-73963362D01*
X59806638Y-74322588D01*
X60259090Y-74510000D01*
X59806638Y-74697412D01*
X59447412Y-75056638D01*
X59253000Y-75525989D01*
X59253000Y-76034011D01*
X59447412Y-76503362D01*
X59806638Y-76862588D01*
X60259090Y-77050000D01*
X59806638Y-77237412D01*
X59447412Y-77596638D01*
X59253000Y-78065989D01*
X59253000Y-78574011D01*
X59447412Y-79043362D01*
X59806638Y-79402588D01*
X60259090Y-79590000D01*
X59806638Y-79777412D01*
X59447412Y-80136638D01*
X59253000Y-80605989D01*
X59253000Y-81114011D01*
X59447412Y-81583362D01*
X59806638Y-81942588D01*
X60259090Y-82130000D01*
X59806638Y-82317412D01*
X59447412Y-82676638D01*
X59253000Y-83145989D01*
X59253000Y-83654011D01*
X59447412Y-84123362D01*
X59806638Y-84482588D01*
X60259090Y-84670000D01*
X59806638Y-84857412D01*
X59447412Y-85216638D01*
X59253000Y-85685989D01*
X59253000Y-86194011D01*
X59447412Y-86663362D01*
X59806638Y-87022588D01*
X60259090Y-87210000D01*
X59806638Y-87397412D01*
X59447412Y-87756638D01*
X59253000Y-88225989D01*
X59253000Y-88734011D01*
X59447412Y-89203362D01*
X59806638Y-89562588D01*
X60259090Y-89750000D01*
X59806638Y-89937412D01*
X59447412Y-90296638D01*
X59253000Y-90765989D01*
X59253000Y-91274011D01*
X59447412Y-91743362D01*
X59806638Y-92102588D01*
X60259090Y-92290000D01*
X59806638Y-92477412D01*
X59447412Y-92836638D01*
X59253000Y-93305989D01*
X59253000Y-93814011D01*
X59447412Y-94283362D01*
X59806638Y-94642588D01*
X60259090Y-94830000D01*
X59806638Y-95017412D01*
X59447412Y-95376638D01*
X59253000Y-95845989D01*
X59253000Y-96354011D01*
X59447412Y-96823362D01*
X59806638Y-97182588D01*
X60259090Y-97370000D01*
X59806638Y-97557412D01*
X59447412Y-97916638D01*
X59253000Y-98385989D01*
X59253000Y-98894011D01*
X59447412Y-99363362D01*
X59806638Y-99722588D01*
X60259090Y-99910000D01*
X59806638Y-100097412D01*
X59447412Y-100456638D01*
X59253000Y-100925989D01*
X59253000Y-101434011D01*
X59447412Y-101903362D01*
X59806638Y-102262588D01*
X60259090Y-102450000D01*
X59806638Y-102637412D01*
X59447412Y-102996638D01*
X59253000Y-103465989D01*
X59253000Y-103974011D01*
X59447412Y-104443362D01*
X59806638Y-104802588D01*
X60259090Y-104990000D01*
X59806638Y-105177412D01*
X59447412Y-105536638D01*
X59253000Y-106005989D01*
X59253000Y-106514011D01*
X59447412Y-106983362D01*
X59806638Y-107342588D01*
X60275989Y-107537000D01*
X60784011Y-107537000D01*
X61253362Y-107342588D01*
X61255791Y-107340159D01*
X62169446Y-107340159D01*
X62255852Y-107596643D01*
X62829336Y-107806458D01*
X63439460Y-107780839D01*
X63884148Y-107596643D01*
X63970554Y-107340159D01*
X63070000Y-106439605D01*
X62169446Y-107340159D01*
X61255791Y-107340159D01*
X61612588Y-106983362D01*
X61654170Y-106882974D01*
X61733357Y-107074148D01*
X61989841Y-107160554D01*
X62890395Y-106260000D01*
X63249605Y-106260000D01*
X64150159Y-107160554D01*
X64406643Y-107074148D01*
X64559551Y-106656206D01*
X89223000Y-106656206D01*
X89223000Y-107243794D01*
X89447860Y-107786653D01*
X89863347Y-108202140D01*
X90406206Y-108427000D01*
X90993794Y-108427000D01*
X91536653Y-108202140D01*
X91952140Y-107786653D01*
X92177000Y-107243794D01*
X92177000Y-106656206D01*
X91952140Y-106113347D01*
X91536653Y-105697860D01*
X90993794Y-105473000D01*
X90406206Y-105473000D01*
X89863347Y-105697860D01*
X89447860Y-106113347D01*
X89223000Y-106656206D01*
X64559551Y-106656206D01*
X64616458Y-106500664D01*
X64590839Y-105890540D01*
X64406643Y-105445852D01*
X64150159Y-105359446D01*
X63249605Y-106260000D01*
X62890395Y-106260000D01*
X61989841Y-105359446D01*
X61733357Y-105445852D01*
X61659079Y-105648876D01*
X61612588Y-105536638D01*
X61253362Y-105177412D01*
X60800910Y-104990000D01*
X61253362Y-104802588D01*
X61255791Y-104800159D01*
X62169446Y-104800159D01*
X62233401Y-104990000D01*
X62169446Y-105179841D01*
X63070000Y-106080395D01*
X63970554Y-105179841D01*
X63906599Y-104990000D01*
X63970554Y-104800159D01*
X63070000Y-103899605D01*
X62169446Y-104800159D01*
X61255791Y-104800159D01*
X61612588Y-104443362D01*
X61654170Y-104342974D01*
X61733357Y-104534148D01*
X61989841Y-104620554D01*
X62890395Y-103720000D01*
X63249605Y-103720000D01*
X64150159Y-104620554D01*
X64406643Y-104534148D01*
X64544916Y-104156206D01*
X94223000Y-104156206D01*
X94223000Y-104743794D01*
X94447860Y-105286653D01*
X94863347Y-105702140D01*
X95406206Y-105927000D01*
X95993794Y-105927000D01*
X96536653Y-105702140D01*
X96952140Y-105286653D01*
X97177000Y-104743794D01*
X97177000Y-104156206D01*
X96952140Y-103613347D01*
X96536653Y-103197860D01*
X95993794Y-102973000D01*
X95406206Y-102973000D01*
X94863347Y-103197860D01*
X94447860Y-103613347D01*
X94223000Y-104156206D01*
X64544916Y-104156206D01*
X64616458Y-103960664D01*
X64590839Y-103350540D01*
X64406643Y-102905852D01*
X64150159Y-102819446D01*
X63249605Y-103720000D01*
X62890395Y-103720000D01*
X61989841Y-102819446D01*
X61733357Y-102905852D01*
X61659079Y-103108876D01*
X61612588Y-102996638D01*
X61253362Y-102637412D01*
X60800910Y-102450000D01*
X61253362Y-102262588D01*
X61255791Y-102260159D01*
X62169446Y-102260159D01*
X62233401Y-102450000D01*
X62169446Y-102639841D01*
X63070000Y-103540395D01*
X63970554Y-102639841D01*
X63906599Y-102450000D01*
X63970554Y-102260159D01*
X63070000Y-101359605D01*
X62169446Y-102260159D01*
X61255791Y-102260159D01*
X61612588Y-101903362D01*
X61654170Y-101802974D01*
X61733357Y-101994148D01*
X61989841Y-102080554D01*
X62890395Y-101180000D01*
X63249605Y-101180000D01*
X64150159Y-102080554D01*
X64406643Y-101994148D01*
X64530282Y-101656206D01*
X89223000Y-101656206D01*
X89223000Y-102243794D01*
X89447860Y-102786653D01*
X89863347Y-103202140D01*
X90406206Y-103427000D01*
X90993794Y-103427000D01*
X91536653Y-103202140D01*
X91952140Y-102786653D01*
X92177000Y-102243794D01*
X92177000Y-101656206D01*
X91952140Y-101113347D01*
X91536653Y-100697860D01*
X90993794Y-100473000D01*
X90406206Y-100473000D01*
X89863347Y-100697860D01*
X89447860Y-101113347D01*
X89223000Y-101656206D01*
X64530282Y-101656206D01*
X64616458Y-101420664D01*
X64590839Y-100810540D01*
X64406643Y-100365852D01*
X64150159Y-100279446D01*
X63249605Y-101180000D01*
X62890395Y-101180000D01*
X61989841Y-100279446D01*
X61733357Y-100365852D01*
X61659079Y-100568876D01*
X61612588Y-100456638D01*
X61253362Y-100097412D01*
X60800910Y-99910000D01*
X61253362Y-99722588D01*
X61255791Y-99720159D01*
X62169446Y-99720159D01*
X62233401Y-99910000D01*
X62169446Y-100099841D01*
X63070000Y-101000395D01*
X63970554Y-100099841D01*
X63906599Y-99910000D01*
X63970554Y-99720159D01*
X63070000Y-98819605D01*
X62169446Y-99720159D01*
X61255791Y-99720159D01*
X61612588Y-99363362D01*
X61654170Y-99262974D01*
X61733357Y-99454148D01*
X61989841Y-99540554D01*
X62890395Y-98640000D01*
X63249605Y-98640000D01*
X64150159Y-99540554D01*
X64406643Y-99454148D01*
X64515648Y-99156206D01*
X94223000Y-99156206D01*
X94223000Y-99743794D01*
X94447860Y-100286653D01*
X94863347Y-100702140D01*
X95406206Y-100927000D01*
X95993794Y-100927000D01*
X96536653Y-100702140D01*
X96952140Y-100286653D01*
X97177000Y-99743794D01*
X97177000Y-99156206D01*
X96952140Y-98613347D01*
X96536653Y-98197860D01*
X95993794Y-97973000D01*
X95406206Y-97973000D01*
X94863347Y-98197860D01*
X94447860Y-98613347D01*
X94223000Y-99156206D01*
X64515648Y-99156206D01*
X64616458Y-98880664D01*
X64590839Y-98270540D01*
X64406643Y-97825852D01*
X64150159Y-97739446D01*
X63249605Y-98640000D01*
X62890395Y-98640000D01*
X61989841Y-97739446D01*
X61733357Y-97825852D01*
X61659079Y-98028876D01*
X61612588Y-97916638D01*
X61253362Y-97557412D01*
X60800910Y-97370000D01*
X61253362Y-97182588D01*
X61255791Y-97180159D01*
X62169446Y-97180159D01*
X62233401Y-97370000D01*
X62169446Y-97559841D01*
X63070000Y-98460395D01*
X63970554Y-97559841D01*
X63906599Y-97370000D01*
X63970554Y-97180159D01*
X63070000Y-96279605D01*
X62169446Y-97180159D01*
X61255791Y-97180159D01*
X61612588Y-96823362D01*
X61654170Y-96722974D01*
X61733357Y-96914148D01*
X61989841Y-97000554D01*
X62890395Y-96100000D01*
X63249605Y-96100000D01*
X64150159Y-97000554D01*
X64406643Y-96914148D01*
X64501013Y-96656206D01*
X89223000Y-96656206D01*
X89223000Y-97243794D01*
X89447860Y-97786653D01*
X89863347Y-98202140D01*
X90406206Y-98427000D01*
X90993794Y-98427000D01*
X91536653Y-98202140D01*
X91952140Y-97786653D01*
X92177000Y-97243794D01*
X92177000Y-96656206D01*
X91952140Y-96113347D01*
X91536653Y-95697860D01*
X90993794Y-95473000D01*
X90406206Y-95473000D01*
X89863347Y-95697860D01*
X89447860Y-96113347D01*
X89223000Y-96656206D01*
X64501013Y-96656206D01*
X64616458Y-96340664D01*
X64590839Y-95730540D01*
X64406643Y-95285852D01*
X64150159Y-95199446D01*
X63249605Y-96100000D01*
X62890395Y-96100000D01*
X61989841Y-95199446D01*
X61733357Y-95285852D01*
X61659079Y-95488876D01*
X61612588Y-95376638D01*
X61253362Y-95017412D01*
X60800910Y-94830000D01*
X61253362Y-94642588D01*
X61255791Y-94640159D01*
X62169446Y-94640159D01*
X62233401Y-94830000D01*
X62169446Y-95019841D01*
X63070000Y-95920395D01*
X63970554Y-95019841D01*
X63906599Y-94830000D01*
X63970554Y-94640159D01*
X63070000Y-93739605D01*
X62169446Y-94640159D01*
X61255791Y-94640159D01*
X61612588Y-94283362D01*
X61654170Y-94182974D01*
X61733357Y-94374148D01*
X61989841Y-94460554D01*
X62890395Y-93560000D01*
X63249605Y-93560000D01*
X64150159Y-94460554D01*
X64406643Y-94374148D01*
X64486379Y-94156206D01*
X94223000Y-94156206D01*
X94223000Y-94743794D01*
X94447860Y-95286653D01*
X94863347Y-95702140D01*
X95406206Y-95927000D01*
X95993794Y-95927000D01*
X96536653Y-95702140D01*
X96952140Y-95286653D01*
X97177000Y-94743794D01*
X97177000Y-94156206D01*
X96952140Y-93613347D01*
X96536653Y-93197860D01*
X95993794Y-92973000D01*
X95406206Y-92973000D01*
X94863347Y-93197860D01*
X94447860Y-93613347D01*
X94223000Y-94156206D01*
X64486379Y-94156206D01*
X64616458Y-93800664D01*
X64590839Y-93190540D01*
X64406643Y-92745852D01*
X64150159Y-92659446D01*
X63249605Y-93560000D01*
X62890395Y-93560000D01*
X61989841Y-92659446D01*
X61733357Y-92745852D01*
X61659079Y-92948876D01*
X61612588Y-92836638D01*
X61253362Y-92477412D01*
X60800910Y-92290000D01*
X61253362Y-92102588D01*
X61255791Y-92100159D01*
X62169446Y-92100159D01*
X62233401Y-92290000D01*
X62169446Y-92479841D01*
X63070000Y-93380395D01*
X63970554Y-92479841D01*
X63906599Y-92290000D01*
X63970554Y-92100159D01*
X63070000Y-91199605D01*
X62169446Y-92100159D01*
X61255791Y-92100159D01*
X61612588Y-91743362D01*
X61654170Y-91642974D01*
X61733357Y-91834148D01*
X61989841Y-91920554D01*
X62890395Y-91020000D01*
X63249605Y-91020000D01*
X64150159Y-91920554D01*
X64406643Y-91834148D01*
X64471744Y-91656206D01*
X89223000Y-91656206D01*
X89223000Y-92243794D01*
X89447860Y-92786653D01*
X89863347Y-93202140D01*
X90406206Y-93427000D01*
X90993794Y-93427000D01*
X91536653Y-93202140D01*
X91952140Y-92786653D01*
X92177000Y-92243794D01*
X92177000Y-91656206D01*
X91952140Y-91113347D01*
X91536653Y-90697860D01*
X90993794Y-90473000D01*
X90406206Y-90473000D01*
X89863347Y-90697860D01*
X89447860Y-91113347D01*
X89223000Y-91656206D01*
X64471744Y-91656206D01*
X64616458Y-91260664D01*
X64590839Y-90650540D01*
X64406643Y-90205852D01*
X64150159Y-90119446D01*
X63249605Y-91020000D01*
X62890395Y-91020000D01*
X61989841Y-90119446D01*
X61733357Y-90205852D01*
X61659079Y-90408876D01*
X61612588Y-90296638D01*
X61253362Y-89937412D01*
X60800910Y-89750000D01*
X61253362Y-89562588D01*
X61255791Y-89560159D01*
X62169446Y-89560159D01*
X62233401Y-89750000D01*
X62169446Y-89939841D01*
X63070000Y-90840395D01*
X63970554Y-89939841D01*
X63906599Y-89750000D01*
X63970554Y-89560159D01*
X63070000Y-88659605D01*
X62169446Y-89560159D01*
X61255791Y-89560159D01*
X61612588Y-89203362D01*
X61654170Y-89102974D01*
X61733357Y-89294148D01*
X61989841Y-89380554D01*
X62890395Y-88480000D01*
X63249605Y-88480000D01*
X64150159Y-89380554D01*
X64406643Y-89294148D01*
X64457110Y-89156206D01*
X94223000Y-89156206D01*
X94223000Y-89743794D01*
X94447860Y-90286653D01*
X94863347Y-90702140D01*
X95406206Y-90927000D01*
X95993794Y-90927000D01*
X96536653Y-90702140D01*
X96952140Y-90286653D01*
X97177000Y-89743794D01*
X97177000Y-89156206D01*
X96952140Y-88613347D01*
X96536653Y-88197860D01*
X95993794Y-87973000D01*
X95406206Y-87973000D01*
X94863347Y-88197860D01*
X94447860Y-88613347D01*
X94223000Y-89156206D01*
X64457110Y-89156206D01*
X64616458Y-88720664D01*
X64590839Y-88110540D01*
X64406643Y-87665852D01*
X64150159Y-87579446D01*
X63249605Y-88480000D01*
X62890395Y-88480000D01*
X61989841Y-87579446D01*
X61733357Y-87665852D01*
X61659079Y-87868876D01*
X61612588Y-87756638D01*
X61253362Y-87397412D01*
X60800910Y-87210000D01*
X61253362Y-87022588D01*
X61255791Y-87020159D01*
X62169446Y-87020159D01*
X62233401Y-87210000D01*
X62169446Y-87399841D01*
X63070000Y-88300395D01*
X63970554Y-87399841D01*
X63906599Y-87210000D01*
X63970554Y-87020159D01*
X63070000Y-86119605D01*
X62169446Y-87020159D01*
X61255791Y-87020159D01*
X61612588Y-86663362D01*
X61654170Y-86562974D01*
X61733357Y-86754148D01*
X61989841Y-86840554D01*
X62890395Y-85940000D01*
X63249605Y-85940000D01*
X64150159Y-86840554D01*
X64406643Y-86754148D01*
X64616458Y-86180664D01*
X64590839Y-85570540D01*
X64406643Y-85125852D01*
X64150159Y-85039446D01*
X63249605Y-85940000D01*
X62890395Y-85940000D01*
X61989841Y-85039446D01*
X61733357Y-85125852D01*
X61659079Y-85328876D01*
X61612588Y-85216638D01*
X61253362Y-84857412D01*
X60800910Y-84670000D01*
X61253362Y-84482588D01*
X61255791Y-84480159D01*
X62169446Y-84480159D01*
X62233401Y-84670000D01*
X62169446Y-84859841D01*
X63070000Y-85760395D01*
X63970554Y-84859841D01*
X63906599Y-84670000D01*
X63970554Y-84480159D01*
X63070000Y-83579605D01*
X62169446Y-84480159D01*
X61255791Y-84480159D01*
X61612588Y-84123362D01*
X61654170Y-84022974D01*
X61733357Y-84214148D01*
X61989841Y-84300554D01*
X62890395Y-83400000D01*
X63249605Y-83400000D01*
X64150159Y-84300554D01*
X64406643Y-84214148D01*
X64616458Y-83640664D01*
X64598216Y-83206206D01*
X89243000Y-83206206D01*
X89243000Y-83793794D01*
X89467860Y-84336653D01*
X89883347Y-84752140D01*
X90426206Y-84977000D01*
X91013794Y-84977000D01*
X91556653Y-84752140D01*
X91972140Y-84336653D01*
X92197000Y-83793794D01*
X92197000Y-83206206D01*
X91972140Y-82663347D01*
X91556653Y-82247860D01*
X91013794Y-82023000D01*
X90426206Y-82023000D01*
X89883347Y-82247860D01*
X89467860Y-82663347D01*
X89243000Y-83206206D01*
X64598216Y-83206206D01*
X64590839Y-83030540D01*
X64406643Y-82585852D01*
X64150159Y-82499446D01*
X63249605Y-83400000D01*
X62890395Y-83400000D01*
X61989841Y-82499446D01*
X61733357Y-82585852D01*
X61659079Y-82788876D01*
X61612588Y-82676638D01*
X61253362Y-82317412D01*
X60800910Y-82130000D01*
X61253362Y-81942588D01*
X61255791Y-81940159D01*
X62169446Y-81940159D01*
X62233401Y-82130000D01*
X62169446Y-82319841D01*
X63070000Y-83220395D01*
X63970554Y-82319841D01*
X63906599Y-82130000D01*
X63970554Y-81940159D01*
X63070000Y-81039605D01*
X62169446Y-81940159D01*
X61255791Y-81940159D01*
X61612588Y-81583362D01*
X61654170Y-81482974D01*
X61733357Y-81674148D01*
X61989841Y-81760554D01*
X62890395Y-80860000D01*
X63249605Y-80860000D01*
X64150159Y-81760554D01*
X64406643Y-81674148D01*
X64616458Y-81100664D01*
X64599895Y-80706206D01*
X94243000Y-80706206D01*
X94243000Y-81293794D01*
X94467860Y-81836653D01*
X94883347Y-82252140D01*
X95426206Y-82477000D01*
X96013794Y-82477000D01*
X96556653Y-82252140D01*
X96931793Y-81877000D01*
X98013630Y-81877000D01*
X98100000Y-81894180D01*
X98186370Y-81877000D01*
X98186375Y-81877000D01*
X98442188Y-81826116D01*
X98732281Y-81632281D01*
X98781210Y-81559055D01*
X100081209Y-80259057D01*
X100226115Y-80042189D01*
X100233077Y-80007187D01*
X100359055Y-79881209D01*
X100432281Y-79832281D01*
X100626116Y-79542188D01*
X100677000Y-79286375D01*
X100677000Y-79286371D01*
X100694180Y-79200001D01*
X100677000Y-79113631D01*
X100677000Y-44219228D01*
X100937185Y-44327000D01*
X101882815Y-44327000D01*
X102756462Y-43965123D01*
X103425123Y-43296462D01*
X103787000Y-42422815D01*
X103787000Y-41477185D01*
X103425123Y-40603538D01*
X102756462Y-39934877D01*
X102537000Y-39843973D01*
X102537000Y-39056027D01*
X102756462Y-38965123D01*
X103425123Y-38296462D01*
X103787000Y-37422815D01*
X103787000Y-36477185D01*
X103425123Y-35603538D01*
X102756462Y-34934877D01*
X101882815Y-34573000D01*
X100937185Y-34573000D01*
X100063538Y-34934877D01*
X99394877Y-35603538D01*
X99033000Y-36477185D01*
X99033000Y-37422815D01*
X99394877Y-38296462D01*
X100063538Y-38965123D01*
X100283001Y-39056028D01*
X100283001Y-39667424D01*
X100283000Y-39667429D01*
X100283000Y-39843973D01*
X100063538Y-39934877D01*
X99394877Y-40603538D01*
X99033000Y-41477185D01*
X99033000Y-42422815D01*
X99226006Y-42888773D01*
X99167720Y-42927719D01*
X99118793Y-43000943D01*
X99118792Y-43000944D01*
X98973885Y-43217812D01*
X98905820Y-43560000D01*
X98923001Y-43646375D01*
X98923000Y-78836736D01*
X98718792Y-79040944D01*
X98573885Y-79257812D01*
X98566923Y-79292811D01*
X97736736Y-80123000D01*
X96931793Y-80123000D01*
X96556653Y-79747860D01*
X96013794Y-79523000D01*
X95426206Y-79523000D01*
X94883347Y-79747860D01*
X94467860Y-80163347D01*
X94243000Y-80706206D01*
X64599895Y-80706206D01*
X64590839Y-80490540D01*
X64406643Y-80045852D01*
X64150159Y-79959446D01*
X63249605Y-80860000D01*
X62890395Y-80860000D01*
X61989841Y-79959446D01*
X61733357Y-80045852D01*
X61659079Y-80248876D01*
X61612588Y-80136638D01*
X61253362Y-79777412D01*
X60800910Y-79590000D01*
X61253362Y-79402588D01*
X61255791Y-79400159D01*
X62169446Y-79400159D01*
X62233401Y-79590000D01*
X62169446Y-79779841D01*
X63070000Y-80680395D01*
X63970554Y-79779841D01*
X63906599Y-79590000D01*
X63970554Y-79400159D01*
X63070000Y-78499605D01*
X62169446Y-79400159D01*
X61255791Y-79400159D01*
X61612588Y-79043362D01*
X61654170Y-78942974D01*
X61733357Y-79134148D01*
X61989841Y-79220554D01*
X62890395Y-78320000D01*
X63249605Y-78320000D01*
X64150159Y-79220554D01*
X64406643Y-79134148D01*
X64616458Y-78560664D01*
X64590839Y-77950540D01*
X64406643Y-77505852D01*
X64150159Y-77419446D01*
X63249605Y-78320000D01*
X62890395Y-78320000D01*
X61989841Y-77419446D01*
X61733357Y-77505852D01*
X61659079Y-77708876D01*
X61612588Y-77596638D01*
X61253362Y-77237412D01*
X60800910Y-77050000D01*
X61253362Y-76862588D01*
X61255791Y-76860159D01*
X62169446Y-76860159D01*
X62233401Y-77050000D01*
X62169446Y-77239841D01*
X63070000Y-78140395D01*
X63970554Y-77239841D01*
X63906599Y-77050000D01*
X63970554Y-76860159D01*
X63070000Y-75959605D01*
X62169446Y-76860159D01*
X61255791Y-76860159D01*
X61612588Y-76503362D01*
X61654170Y-76402974D01*
X61733357Y-76594148D01*
X61989841Y-76680554D01*
X62890395Y-75780000D01*
X63249605Y-75780000D01*
X64150159Y-76680554D01*
X64406643Y-76594148D01*
X64616458Y-76020664D01*
X64590839Y-75410540D01*
X64406643Y-74965852D01*
X64150159Y-74879446D01*
X63249605Y-75780000D01*
X62890395Y-75780000D01*
X61989841Y-74879446D01*
X61733357Y-74965852D01*
X61659079Y-75168876D01*
X61612588Y-75056638D01*
X61253362Y-74697412D01*
X60800910Y-74510000D01*
X61253362Y-74322588D01*
X61255791Y-74320159D01*
X62169446Y-74320159D01*
X62233401Y-74510000D01*
X62169446Y-74699841D01*
X63070000Y-75600395D01*
X63970554Y-74699841D01*
X63955854Y-74656206D01*
X89273000Y-74656206D01*
X89273000Y-75243794D01*
X89497860Y-75786653D01*
X89913347Y-76202140D01*
X90456206Y-76427000D01*
X91043794Y-76427000D01*
X91586653Y-76202140D01*
X92002140Y-75786653D01*
X92227000Y-75243794D01*
X92227000Y-74656206D01*
X92002140Y-74113347D01*
X91586653Y-73697860D01*
X91043794Y-73473000D01*
X90456206Y-73473000D01*
X89913347Y-73697860D01*
X89497860Y-74113347D01*
X89273000Y-74656206D01*
X63955854Y-74656206D01*
X63906599Y-74510000D01*
X63970554Y-74320159D01*
X63070000Y-73419605D01*
X62169446Y-74320159D01*
X61255791Y-74320159D01*
X61612588Y-73963362D01*
X61654170Y-73862974D01*
X61733357Y-74054148D01*
X61989841Y-74140554D01*
X62890395Y-73240000D01*
X63249605Y-73240000D01*
X64150159Y-74140554D01*
X64406643Y-74054148D01*
X64616458Y-73480664D01*
X64590839Y-72870540D01*
X64406643Y-72425852D01*
X64150159Y-72339446D01*
X63249605Y-73240000D01*
X62890395Y-73240000D01*
X61989841Y-72339446D01*
X61733357Y-72425852D01*
X61659079Y-72628876D01*
X61612588Y-72516638D01*
X61253362Y-72157412D01*
X60800910Y-71970000D01*
X61253362Y-71782588D01*
X61255791Y-71780159D01*
X62169446Y-71780159D01*
X62233401Y-71970000D01*
X62169446Y-72159841D01*
X63070000Y-73060395D01*
X63970554Y-72159841D01*
X63969330Y-72156206D01*
X94273000Y-72156206D01*
X94273000Y-72743794D01*
X94497860Y-73286653D01*
X94913347Y-73702140D01*
X95456206Y-73927000D01*
X96043794Y-73927000D01*
X96586653Y-73702140D01*
X97002140Y-73286653D01*
X97227000Y-72743794D01*
X97227000Y-72156206D01*
X97002140Y-71613347D01*
X96586653Y-71197860D01*
X96043794Y-70973000D01*
X95456206Y-70973000D01*
X94913347Y-71197860D01*
X94497860Y-71613347D01*
X94273000Y-72156206D01*
X63969330Y-72156206D01*
X63906599Y-71970000D01*
X63970554Y-71780159D01*
X63070000Y-70879605D01*
X62169446Y-71780159D01*
X61255791Y-71780159D01*
X61612588Y-71423362D01*
X61654170Y-71322974D01*
X61733357Y-71514148D01*
X61989841Y-71600554D01*
X62890395Y-70700000D01*
X63249605Y-70700000D01*
X64150159Y-71600554D01*
X64406643Y-71514148D01*
X64616458Y-70940664D01*
X64590839Y-70330540D01*
X64406643Y-69885852D01*
X64150159Y-69799446D01*
X63249605Y-70700000D01*
X62890395Y-70700000D01*
X61989841Y-69799446D01*
X61733357Y-69885852D01*
X61659079Y-70088876D01*
X61612588Y-69976638D01*
X61253362Y-69617412D01*
X60800910Y-69430000D01*
X61253362Y-69242588D01*
X61255791Y-69240159D01*
X62169446Y-69240159D01*
X62233401Y-69430000D01*
X62169446Y-69619841D01*
X63070000Y-70520395D01*
X63934189Y-69656206D01*
X89273000Y-69656206D01*
X89273000Y-70243794D01*
X89497860Y-70786653D01*
X89913347Y-71202140D01*
X90456206Y-71427000D01*
X91043794Y-71427000D01*
X91586653Y-71202140D01*
X92002140Y-70786653D01*
X92227000Y-70243794D01*
X92227000Y-69656206D01*
X92002140Y-69113347D01*
X91586653Y-68697860D01*
X91043794Y-68473000D01*
X90456206Y-68473000D01*
X89913347Y-68697860D01*
X89497860Y-69113347D01*
X89273000Y-69656206D01*
X63934189Y-69656206D01*
X63970554Y-69619841D01*
X63906599Y-69430000D01*
X63970554Y-69240159D01*
X63070000Y-68339605D01*
X62169446Y-69240159D01*
X61255791Y-69240159D01*
X61612588Y-68883362D01*
X61654170Y-68782974D01*
X61733357Y-68974148D01*
X61989841Y-69060554D01*
X62890395Y-68160000D01*
X63249605Y-68160000D01*
X64150159Y-69060554D01*
X64406643Y-68974148D01*
X64616458Y-68400664D01*
X64590839Y-67790540D01*
X64406643Y-67345852D01*
X64150159Y-67259446D01*
X63249605Y-68160000D01*
X62890395Y-68160000D01*
X61989841Y-67259446D01*
X61733357Y-67345852D01*
X61659079Y-67548876D01*
X61612588Y-67436638D01*
X61253362Y-67077412D01*
X60800910Y-66890000D01*
X61253362Y-66702588D01*
X61255791Y-66700159D01*
X62169446Y-66700159D01*
X62233401Y-66890000D01*
X62169446Y-67079841D01*
X63070000Y-67980395D01*
X63894189Y-67156206D01*
X94273000Y-67156206D01*
X94273000Y-67743794D01*
X94497860Y-68286653D01*
X94913347Y-68702140D01*
X95456206Y-68927000D01*
X96043794Y-68927000D01*
X96586653Y-68702140D01*
X97002140Y-68286653D01*
X97227000Y-67743794D01*
X97227000Y-67156206D01*
X97002140Y-66613347D01*
X96586653Y-66197860D01*
X96043794Y-65973000D01*
X95456206Y-65973000D01*
X94913347Y-66197860D01*
X94497860Y-66613347D01*
X94273000Y-67156206D01*
X63894189Y-67156206D01*
X63970554Y-67079841D01*
X63906599Y-66890000D01*
X63970554Y-66700159D01*
X63070000Y-65799605D01*
X62169446Y-66700159D01*
X61255791Y-66700159D01*
X61612588Y-66343362D01*
X61654170Y-66242974D01*
X61733357Y-66434148D01*
X61989841Y-66520554D01*
X62890395Y-65620000D01*
X63249605Y-65620000D01*
X64150159Y-66520554D01*
X64406643Y-66434148D01*
X64616458Y-65860664D01*
X64590839Y-65250540D01*
X64406643Y-64805852D01*
X64150159Y-64719446D01*
X63249605Y-65620000D01*
X62890395Y-65620000D01*
X61989841Y-64719446D01*
X61733357Y-64805852D01*
X61659079Y-65008876D01*
X61612588Y-64896638D01*
X61253362Y-64537412D01*
X60800910Y-64350000D01*
X61253362Y-64162588D01*
X61255791Y-64160159D01*
X62169446Y-64160159D01*
X62233401Y-64350000D01*
X62169446Y-64539841D01*
X63070000Y-65440395D01*
X63854189Y-64656206D01*
X89273000Y-64656206D01*
X89273000Y-65243794D01*
X89497860Y-65786653D01*
X89913347Y-66202140D01*
X90456206Y-66427000D01*
X91043794Y-66427000D01*
X91586653Y-66202140D01*
X92002140Y-65786653D01*
X92227000Y-65243794D01*
X92227000Y-64656206D01*
X92002140Y-64113347D01*
X91586653Y-63697860D01*
X91043794Y-63473000D01*
X90456206Y-63473000D01*
X89913347Y-63697860D01*
X89497860Y-64113347D01*
X89273000Y-64656206D01*
X63854189Y-64656206D01*
X63970554Y-64539841D01*
X63906599Y-64350000D01*
X63970554Y-64160159D01*
X63070000Y-63259605D01*
X62169446Y-64160159D01*
X61255791Y-64160159D01*
X61612588Y-63803362D01*
X61654170Y-63702974D01*
X61733357Y-63894148D01*
X61989841Y-63980554D01*
X62890395Y-63080000D01*
X63249605Y-63080000D01*
X64150159Y-63980554D01*
X64406643Y-63894148D01*
X64616458Y-63320664D01*
X64590839Y-62710540D01*
X64406643Y-62265852D01*
X64150159Y-62179446D01*
X63249605Y-63080000D01*
X62890395Y-63080000D01*
X61989841Y-62179446D01*
X61733357Y-62265852D01*
X61659079Y-62468876D01*
X61612588Y-62356638D01*
X61253362Y-61997412D01*
X60800910Y-61810000D01*
X61253362Y-61622588D01*
X61255791Y-61620159D01*
X62169446Y-61620159D01*
X62233401Y-61810000D01*
X62169446Y-61999841D01*
X63070000Y-62900395D01*
X63814189Y-62156206D01*
X94273000Y-62156206D01*
X94273000Y-62743794D01*
X94497860Y-63286653D01*
X94913347Y-63702140D01*
X95456206Y-63927000D01*
X96043794Y-63927000D01*
X96586653Y-63702140D01*
X97002140Y-63286653D01*
X97227000Y-62743794D01*
X97227000Y-62156206D01*
X97002140Y-61613347D01*
X96586653Y-61197860D01*
X96043794Y-60973000D01*
X95456206Y-60973000D01*
X94913347Y-61197860D01*
X94497860Y-61613347D01*
X94273000Y-62156206D01*
X63814189Y-62156206D01*
X63970554Y-61999841D01*
X63906599Y-61810000D01*
X63970554Y-61620159D01*
X63070000Y-60719605D01*
X62169446Y-61620159D01*
X61255791Y-61620159D01*
X61612588Y-61263362D01*
X61654170Y-61162974D01*
X61733357Y-61354148D01*
X61989841Y-61440554D01*
X62890395Y-60540000D01*
X63249605Y-60540000D01*
X64150159Y-61440554D01*
X64406643Y-61354148D01*
X64616458Y-60780664D01*
X64590839Y-60170540D01*
X64406643Y-59725852D01*
X64199909Y-59656206D01*
X89273000Y-59656206D01*
X89273000Y-60243794D01*
X89497860Y-60786653D01*
X89913347Y-61202140D01*
X90456206Y-61427000D01*
X91043794Y-61427000D01*
X91586653Y-61202140D01*
X92002140Y-60786653D01*
X92227000Y-60243794D01*
X92227000Y-59656206D01*
X92002140Y-59113347D01*
X91586653Y-58697860D01*
X91043794Y-58473000D01*
X90456206Y-58473000D01*
X89913347Y-58697860D01*
X89497860Y-59113347D01*
X89273000Y-59656206D01*
X64199909Y-59656206D01*
X64150159Y-59639446D01*
X63249605Y-60540000D01*
X62890395Y-60540000D01*
X61989841Y-59639446D01*
X61733357Y-59725852D01*
X61659079Y-59928876D01*
X61612588Y-59816638D01*
X61253362Y-59457412D01*
X60800910Y-59270000D01*
X61253362Y-59082588D01*
X61255791Y-59080159D01*
X62169446Y-59080159D01*
X62233401Y-59270000D01*
X62169446Y-59459841D01*
X63070000Y-60360395D01*
X63970554Y-59459841D01*
X63906599Y-59270000D01*
X63970554Y-59080159D01*
X63070000Y-58179605D01*
X62169446Y-59080159D01*
X61255791Y-59080159D01*
X61612588Y-58723362D01*
X61654170Y-58622974D01*
X61733357Y-58814148D01*
X61989841Y-58900554D01*
X62890395Y-58000000D01*
X63249605Y-58000000D01*
X64150159Y-58900554D01*
X64406643Y-58814148D01*
X64616458Y-58240664D01*
X64590839Y-57630540D01*
X64406643Y-57185852D01*
X64318644Y-57156206D01*
X94273000Y-57156206D01*
X94273000Y-57743794D01*
X94497860Y-58286653D01*
X94913347Y-58702140D01*
X95456206Y-58927000D01*
X96043794Y-58927000D01*
X96586653Y-58702140D01*
X97002140Y-58286653D01*
X97227000Y-57743794D01*
X97227000Y-57156206D01*
X97002140Y-56613347D01*
X96586653Y-56197860D01*
X96043794Y-55973000D01*
X95456206Y-55973000D01*
X94913347Y-56197860D01*
X94497860Y-56613347D01*
X94273000Y-57156206D01*
X64318644Y-57156206D01*
X64150159Y-57099446D01*
X63249605Y-58000000D01*
X62890395Y-58000000D01*
X61989841Y-57099446D01*
X61733357Y-57185852D01*
X61659079Y-57388876D01*
X61612588Y-57276638D01*
X61253362Y-56917412D01*
X60800910Y-56730000D01*
X61253362Y-56542588D01*
X61255791Y-56540159D01*
X62169446Y-56540159D01*
X62233401Y-56730000D01*
X62169446Y-56919841D01*
X63070000Y-57820395D01*
X63970554Y-56919841D01*
X63906599Y-56730000D01*
X63970554Y-56540159D01*
X63070000Y-55639605D01*
X62169446Y-56540159D01*
X61255791Y-56540159D01*
X61612588Y-56183362D01*
X61654170Y-56082974D01*
X61733357Y-56274148D01*
X61989841Y-56360554D01*
X62890395Y-55460000D01*
X63249605Y-55460000D01*
X64150159Y-56360554D01*
X64406643Y-56274148D01*
X64616458Y-55700664D01*
X64590839Y-55090540D01*
X64410932Y-54656206D01*
X89273000Y-54656206D01*
X89273000Y-55243794D01*
X89497860Y-55786653D01*
X89913347Y-56202140D01*
X90456206Y-56427000D01*
X91043794Y-56427000D01*
X91586653Y-56202140D01*
X92002140Y-55786653D01*
X92227000Y-55243794D01*
X92227000Y-54656206D01*
X92002140Y-54113347D01*
X91586653Y-53697860D01*
X91043794Y-53473000D01*
X90456206Y-53473000D01*
X89913347Y-53697860D01*
X89497860Y-54113347D01*
X89273000Y-54656206D01*
X64410932Y-54656206D01*
X64406643Y-54645852D01*
X64150159Y-54559446D01*
X63249605Y-55460000D01*
X62890395Y-55460000D01*
X61989841Y-54559446D01*
X61733357Y-54645852D01*
X61659079Y-54848876D01*
X61612588Y-54736638D01*
X61253362Y-54377412D01*
X60800910Y-54190000D01*
X61253362Y-54002588D01*
X61255791Y-54000159D01*
X62169446Y-54000159D01*
X62233401Y-54190000D01*
X62169446Y-54379841D01*
X63070000Y-55280395D01*
X63970554Y-54379841D01*
X63906599Y-54190000D01*
X63970554Y-54000159D01*
X63070000Y-53099605D01*
X62169446Y-54000159D01*
X61255791Y-54000159D01*
X61612588Y-53643362D01*
X61654170Y-53542974D01*
X61733357Y-53734148D01*
X61989841Y-53820554D01*
X62890395Y-52920000D01*
X63249605Y-52920000D01*
X64150159Y-53820554D01*
X64406643Y-53734148D01*
X64616458Y-53160664D01*
X64590839Y-52550540D01*
X64427501Y-52156206D01*
X94273000Y-52156206D01*
X94273000Y-52743794D01*
X94497860Y-53286653D01*
X94913347Y-53702140D01*
X95456206Y-53927000D01*
X96043794Y-53927000D01*
X96586653Y-53702140D01*
X97002140Y-53286653D01*
X97227000Y-52743794D01*
X97227000Y-52156206D01*
X97002140Y-51613347D01*
X96586653Y-51197860D01*
X96043794Y-50973000D01*
X95456206Y-50973000D01*
X94913347Y-51197860D01*
X94497860Y-51613347D01*
X94273000Y-52156206D01*
X64427501Y-52156206D01*
X64406643Y-52105852D01*
X64150159Y-52019446D01*
X63249605Y-52920000D01*
X62890395Y-52920000D01*
X61989841Y-52019446D01*
X61733357Y-52105852D01*
X61659079Y-52308876D01*
X61612588Y-52196638D01*
X61253362Y-51837412D01*
X60800910Y-51650000D01*
X61253362Y-51462588D01*
X61255791Y-51460159D01*
X62169446Y-51460159D01*
X62233401Y-51650000D01*
X62169446Y-51839841D01*
X63070000Y-52740395D01*
X63970554Y-51839841D01*
X63906599Y-51650000D01*
X63970554Y-51460159D01*
X63070000Y-50559605D01*
X62169446Y-51460159D01*
X61255791Y-51460159D01*
X61612588Y-51103362D01*
X61654170Y-51002974D01*
X61733357Y-51194148D01*
X61989841Y-51280554D01*
X62890395Y-50380000D01*
X63249605Y-50380000D01*
X64150159Y-51280554D01*
X64406643Y-51194148D01*
X64616458Y-50620664D01*
X64590839Y-50010540D01*
X64444069Y-49656206D01*
X89273000Y-49656206D01*
X89273000Y-50243794D01*
X89497860Y-50786653D01*
X89913347Y-51202140D01*
X90456206Y-51427000D01*
X91043794Y-51427000D01*
X91586653Y-51202140D01*
X92002140Y-50786653D01*
X92227000Y-50243794D01*
X92227000Y-49656206D01*
X92002140Y-49113347D01*
X91586653Y-48697860D01*
X91043794Y-48473000D01*
X90456206Y-48473000D01*
X89913347Y-48697860D01*
X89497860Y-49113347D01*
X89273000Y-49656206D01*
X64444069Y-49656206D01*
X64406643Y-49565852D01*
X64150159Y-49479446D01*
X63249605Y-50380000D01*
X62890395Y-50380000D01*
X61989841Y-49479446D01*
X61733357Y-49565852D01*
X61659079Y-49768876D01*
X61612588Y-49656638D01*
X61253362Y-49297412D01*
X60800910Y-49110000D01*
X61253362Y-48922588D01*
X61255791Y-48920159D01*
X62169446Y-48920159D01*
X62233401Y-49110000D01*
X62169446Y-49299841D01*
X63070000Y-50200395D01*
X63970554Y-49299841D01*
X63906599Y-49110000D01*
X63970554Y-48920159D01*
X63070000Y-48019605D01*
X62169446Y-48920159D01*
X61255791Y-48920159D01*
X61612588Y-48563362D01*
X61654170Y-48462974D01*
X61733357Y-48654148D01*
X61989841Y-48740554D01*
X62890395Y-47840000D01*
X63249605Y-47840000D01*
X64150159Y-48740554D01*
X64406643Y-48654148D01*
X64616458Y-48080664D01*
X64590839Y-47470540D01*
X64460638Y-47156206D01*
X94273000Y-47156206D01*
X94273000Y-47743794D01*
X94497860Y-48286653D01*
X94913347Y-48702140D01*
X95456206Y-48927000D01*
X96043794Y-48927000D01*
X96586653Y-48702140D01*
X97002140Y-48286653D01*
X97227000Y-47743794D01*
X97227000Y-47156206D01*
X97002140Y-46613347D01*
X96586653Y-46197860D01*
X96043794Y-45973000D01*
X95456206Y-45973000D01*
X94913347Y-46197860D01*
X94497860Y-46613347D01*
X94273000Y-47156206D01*
X64460638Y-47156206D01*
X64406643Y-47025852D01*
X64150159Y-46939446D01*
X63249605Y-47840000D01*
X62890395Y-47840000D01*
X61989841Y-46939446D01*
X61733357Y-47025852D01*
X61659079Y-47228876D01*
X61612588Y-47116638D01*
X61253362Y-46757412D01*
X60800910Y-46570000D01*
X61253362Y-46382588D01*
X61255791Y-46380159D01*
X62169446Y-46380159D01*
X62233401Y-46570000D01*
X62169446Y-46759841D01*
X63070000Y-47660395D01*
X63970554Y-46759841D01*
X63906599Y-46570000D01*
X63970554Y-46380159D01*
X63070000Y-45479605D01*
X62169446Y-46380159D01*
X61255791Y-46380159D01*
X61612588Y-46023362D01*
X61654170Y-45922974D01*
X61733357Y-46114148D01*
X61989841Y-46200554D01*
X62890395Y-45300000D01*
X63249605Y-45300000D01*
X64150159Y-46200554D01*
X64406643Y-46114148D01*
X64616458Y-45540664D01*
X64590839Y-44930540D01*
X64406643Y-44485852D01*
X64150159Y-44399446D01*
X63249605Y-45300000D01*
X62890395Y-45300000D01*
X61989841Y-44399446D01*
X61733357Y-44485852D01*
X61659079Y-44688876D01*
X61612588Y-44576638D01*
X61255791Y-44219841D01*
X62169446Y-44219841D01*
X63070000Y-45120395D01*
X63970554Y-44219841D01*
X63884148Y-43963357D01*
X63310664Y-43753542D01*
X62700540Y-43779161D01*
X62255852Y-43963357D01*
X62169446Y-44219841D01*
X61255791Y-44219841D01*
X61253362Y-44217412D01*
X60784011Y-44023000D01*
X60275989Y-44023000D01*
X59806638Y-44217412D01*
X59447412Y-44576638D01*
X59253000Y-45045989D01*
X51127000Y-45045989D01*
X51127000Y-36046587D01*
X59723000Y-36046587D01*
X59723000Y-36773413D01*
X60001144Y-37444912D01*
X60515088Y-37958856D01*
X61186587Y-38237000D01*
X61913413Y-38237000D01*
X62584912Y-37958856D01*
X63098856Y-37444912D01*
X63377000Y-36773413D01*
X63377000Y-36046587D01*
X63098856Y-35375088D01*
X62584912Y-34861144D01*
X61913413Y-34583000D01*
X61186587Y-34583000D01*
X60515088Y-34861144D01*
X60001144Y-35375088D01*
X59723000Y-36046587D01*
X51127000Y-36046587D01*
X51127000Y-31127000D01*
X59000000Y-31127000D01*
X59048601Y-31117333D01*
X59089803Y-31089803D01*
X59117333Y-31048601D01*
X59127000Y-31000000D01*
X59127000Y-23127000D01*
X99873000Y-23127000D01*
X99873000Y-31000000D01*
X99873000Y-31000000D01*
G37*
X99873000Y-31000000D02*
X99882667Y-31048601D01*
X99910197Y-31089803D01*
X99951399Y-31117333D01*
X100000000Y-31127000D01*
X107873000Y-31127000D01*
X107873000Y-120873000D01*
X100000000Y-120873000D01*
X99951399Y-120882667D01*
X99910197Y-120910197D01*
X99882667Y-120951399D01*
X99873000Y-121000000D01*
X99873000Y-128873000D01*
X59127000Y-128873000D01*
X59127000Y-121000000D01*
X59117333Y-120951399D01*
X59089803Y-120910197D01*
X59048601Y-120882667D01*
X59000000Y-120873000D01*
X51127000Y-120873000D01*
X51127000Y-114746587D01*
X59723000Y-114746587D01*
X59723000Y-115473413D01*
X60001144Y-116144912D01*
X60515088Y-116658856D01*
X61186587Y-116937000D01*
X61913413Y-116937000D01*
X62584912Y-116658856D01*
X62587562Y-116656206D01*
X89223000Y-116656206D01*
X89223000Y-117243794D01*
X89447860Y-117786653D01*
X89863347Y-118202140D01*
X90406206Y-118427000D01*
X90993794Y-118427000D01*
X91536653Y-118202140D01*
X91952140Y-117786653D01*
X92177000Y-117243794D01*
X92177000Y-116656206D01*
X91952140Y-116113347D01*
X91536653Y-115697860D01*
X90993794Y-115473000D01*
X90406206Y-115473000D01*
X89863347Y-115697860D01*
X89447860Y-116113347D01*
X89223000Y-116656206D01*
X62587562Y-116656206D01*
X63098856Y-116144912D01*
X63377000Y-115473413D01*
X63377000Y-114746587D01*
X63132457Y-114156206D01*
X94223000Y-114156206D01*
X94223000Y-114743794D01*
X94447860Y-115286653D01*
X94863347Y-115702140D01*
X95406206Y-115927000D01*
X95993794Y-115927000D01*
X96536653Y-115702140D01*
X96952140Y-115286653D01*
X97177000Y-114743794D01*
X97177000Y-114156206D01*
X96952140Y-113613347D01*
X96536653Y-113197860D01*
X95993794Y-112973000D01*
X95406206Y-112973000D01*
X94863347Y-113197860D01*
X94447860Y-113613347D01*
X94223000Y-114156206D01*
X63132457Y-114156206D01*
X63098856Y-114075088D01*
X62584912Y-113561144D01*
X61913413Y-113283000D01*
X61186587Y-113283000D01*
X60515088Y-113561144D01*
X60001144Y-114075088D01*
X59723000Y-114746587D01*
X51127000Y-114746587D01*
X51127000Y-111656206D01*
X89223000Y-111656206D01*
X89223000Y-112243794D01*
X89447860Y-112786653D01*
X89863347Y-113202140D01*
X90406206Y-113427000D01*
X90993794Y-113427000D01*
X91536653Y-113202140D01*
X91952140Y-112786653D01*
X92177000Y-112243794D01*
X92177000Y-111656206D01*
X91952140Y-111113347D01*
X91536653Y-110697860D01*
X90993794Y-110473000D01*
X90406206Y-110473000D01*
X89863347Y-110697860D01*
X89447860Y-111113347D01*
X89223000Y-111656206D01*
X51127000Y-111656206D01*
X51127000Y-109156206D01*
X94223000Y-109156206D01*
X94223000Y-109743794D01*
X94447860Y-110286653D01*
X94863347Y-110702140D01*
X95406206Y-110927000D01*
X95993794Y-110927000D01*
X96536653Y-110702140D01*
X96952140Y-110286653D01*
X97177000Y-109743794D01*
X97177000Y-109156206D01*
X96952140Y-108613347D01*
X96536653Y-108197860D01*
X95993794Y-107973000D01*
X95406206Y-107973000D01*
X94863347Y-108197860D01*
X94447860Y-108613347D01*
X94223000Y-109156206D01*
X51127000Y-109156206D01*
X51127000Y-45045989D01*
X59253000Y-45045989D01*
X59253000Y-45554011D01*
X59447412Y-46023362D01*
X59806638Y-46382588D01*
X60259090Y-46570000D01*
X59806638Y-46757412D01*
X59447412Y-47116638D01*
X59253000Y-47585989D01*
X59253000Y-48094011D01*
X59447412Y-48563362D01*
X59806638Y-48922588D01*
X60259090Y-49110000D01*
X59806638Y-49297412D01*
X59447412Y-49656638D01*
X59253000Y-50125989D01*
X59253000Y-50634011D01*
X59447412Y-51103362D01*
X59806638Y-51462588D01*
X60259090Y-51650000D01*
X59806638Y-51837412D01*
X59447412Y-52196638D01*
X59253000Y-52665989D01*
X59253000Y-53174011D01*
X59447412Y-53643362D01*
X59806638Y-54002588D01*
X60259090Y-54190000D01*
X59806638Y-54377412D01*
X59447412Y-54736638D01*
X59253000Y-55205989D01*
X59253000Y-55714011D01*
X59447412Y-56183362D01*
X59806638Y-56542588D01*
X60259090Y-56730000D01*
X59806638Y-56917412D01*
X59447412Y-57276638D01*
X59253000Y-57745989D01*
X59253000Y-58254011D01*
X59447412Y-58723362D01*
X59806638Y-59082588D01*
X60259090Y-59270000D01*
X59806638Y-59457412D01*
X59447412Y-59816638D01*
X59253000Y-60285989D01*
X59253000Y-60794011D01*
X59447412Y-61263362D01*
X59806638Y-61622588D01*
X60259090Y-61810000D01*
X59806638Y-61997412D01*
X59447412Y-62356638D01*
X59253000Y-62825989D01*
X59253000Y-63334011D01*
X59447412Y-63803362D01*
X59806638Y-64162588D01*
X60259090Y-64350000D01*
X59806638Y-64537412D01*
X59447412Y-64896638D01*
X59253000Y-65365989D01*
X59253000Y-65874011D01*
X59447412Y-66343362D01*
X59806638Y-66702588D01*
X60259090Y-66890000D01*
X59806638Y-67077412D01*
X59447412Y-67436638D01*
X59253000Y-67905989D01*
X59253000Y-68414011D01*
X59447412Y-68883362D01*
X59806638Y-69242588D01*
X60259090Y-69430000D01*
X59806638Y-69617412D01*
X59447412Y-69976638D01*
X59253000Y-70445989D01*
X59253000Y-70954011D01*
X59447412Y-71423362D01*
X59806638Y-71782588D01*
X60259090Y-71970000D01*
X59806638Y-72157412D01*
X59447412Y-72516638D01*
X59253000Y-72985989D01*
X59253000Y-73494011D01*
X59447412Y-73963362D01*
X59806638Y-74322588D01*
X60259090Y-74510000D01*
X59806638Y-74697412D01*
X59447412Y-75056638D01*
X59253000Y-75525989D01*
X59253000Y-76034011D01*
X59447412Y-76503362D01*
X59806638Y-76862588D01*
X60259090Y-77050000D01*
X59806638Y-77237412D01*
X59447412Y-77596638D01*
X59253000Y-78065989D01*
X59253000Y-78574011D01*
X59447412Y-79043362D01*
X59806638Y-79402588D01*
X60259090Y-79590000D01*
X59806638Y-79777412D01*
X59447412Y-80136638D01*
X59253000Y-80605989D01*
X59253000Y-81114011D01*
X59447412Y-81583362D01*
X59806638Y-81942588D01*
X60259090Y-82130000D01*
X59806638Y-82317412D01*
X59447412Y-82676638D01*
X59253000Y-83145989D01*
X59253000Y-83654011D01*
X59447412Y-84123362D01*
X59806638Y-84482588D01*
X60259090Y-84670000D01*
X59806638Y-84857412D01*
X59447412Y-85216638D01*
X59253000Y-85685989D01*
X59253000Y-86194011D01*
X59447412Y-86663362D01*
X59806638Y-87022588D01*
X60259090Y-87210000D01*
X59806638Y-87397412D01*
X59447412Y-87756638D01*
X59253000Y-88225989D01*
X59253000Y-88734011D01*
X59447412Y-89203362D01*
X59806638Y-89562588D01*
X60259090Y-89750000D01*
X59806638Y-89937412D01*
X59447412Y-90296638D01*
X59253000Y-90765989D01*
X59253000Y-91274011D01*
X59447412Y-91743362D01*
X59806638Y-92102588D01*
X60259090Y-92290000D01*
X59806638Y-92477412D01*
X59447412Y-92836638D01*
X59253000Y-93305989D01*
X59253000Y-93814011D01*
X59447412Y-94283362D01*
X59806638Y-94642588D01*
X60259090Y-94830000D01*
X59806638Y-95017412D01*
X59447412Y-95376638D01*
X59253000Y-95845989D01*
X59253000Y-96354011D01*
X59447412Y-96823362D01*
X59806638Y-97182588D01*
X60259090Y-97370000D01*
X59806638Y-97557412D01*
X59447412Y-97916638D01*
X59253000Y-98385989D01*
X59253000Y-98894011D01*
X59447412Y-99363362D01*
X59806638Y-99722588D01*
X60259090Y-99910000D01*
X59806638Y-100097412D01*
X59447412Y-100456638D01*
X59253000Y-100925989D01*
X59253000Y-101434011D01*
X59447412Y-101903362D01*
X59806638Y-102262588D01*
X60259090Y-102450000D01*
X59806638Y-102637412D01*
X59447412Y-102996638D01*
X59253000Y-103465989D01*
X59253000Y-103974011D01*
X59447412Y-104443362D01*
X59806638Y-104802588D01*
X60259090Y-104990000D01*
X59806638Y-105177412D01*
X59447412Y-105536638D01*
X59253000Y-106005989D01*
X59253000Y-106514011D01*
X59447412Y-106983362D01*
X59806638Y-107342588D01*
X60275989Y-107537000D01*
X60784011Y-107537000D01*
X61253362Y-107342588D01*
X61255791Y-107340159D01*
X62169446Y-107340159D01*
X62255852Y-107596643D01*
X62829336Y-107806458D01*
X63439460Y-107780839D01*
X63884148Y-107596643D01*
X63970554Y-107340159D01*
X63070000Y-106439605D01*
X62169446Y-107340159D01*
X61255791Y-107340159D01*
X61612588Y-106983362D01*
X61654170Y-106882974D01*
X61733357Y-107074148D01*
X61989841Y-107160554D01*
X62890395Y-106260000D01*
X63249605Y-106260000D01*
X64150159Y-107160554D01*
X64406643Y-107074148D01*
X64559551Y-106656206D01*
X89223000Y-106656206D01*
X89223000Y-107243794D01*
X89447860Y-107786653D01*
X89863347Y-108202140D01*
X90406206Y-108427000D01*
X90993794Y-108427000D01*
X91536653Y-108202140D01*
X91952140Y-107786653D01*
X92177000Y-107243794D01*
X92177000Y-106656206D01*
X91952140Y-106113347D01*
X91536653Y-105697860D01*
X90993794Y-105473000D01*
X90406206Y-105473000D01*
X89863347Y-105697860D01*
X89447860Y-106113347D01*
X89223000Y-106656206D01*
X64559551Y-106656206D01*
X64616458Y-106500664D01*
X64590839Y-105890540D01*
X64406643Y-105445852D01*
X64150159Y-105359446D01*
X63249605Y-106260000D01*
X62890395Y-106260000D01*
X61989841Y-105359446D01*
X61733357Y-105445852D01*
X61659079Y-105648876D01*
X61612588Y-105536638D01*
X61253362Y-105177412D01*
X60800910Y-104990000D01*
X61253362Y-104802588D01*
X61255791Y-104800159D01*
X62169446Y-104800159D01*
X62233401Y-104990000D01*
X62169446Y-105179841D01*
X63070000Y-106080395D01*
X63970554Y-105179841D01*
X63906599Y-104990000D01*
X63970554Y-104800159D01*
X63070000Y-103899605D01*
X62169446Y-104800159D01*
X61255791Y-104800159D01*
X61612588Y-104443362D01*
X61654170Y-104342974D01*
X61733357Y-104534148D01*
X61989841Y-104620554D01*
X62890395Y-103720000D01*
X63249605Y-103720000D01*
X64150159Y-104620554D01*
X64406643Y-104534148D01*
X64544916Y-104156206D01*
X94223000Y-104156206D01*
X94223000Y-104743794D01*
X94447860Y-105286653D01*
X94863347Y-105702140D01*
X95406206Y-105927000D01*
X95993794Y-105927000D01*
X96536653Y-105702140D01*
X96952140Y-105286653D01*
X97177000Y-104743794D01*
X97177000Y-104156206D01*
X96952140Y-103613347D01*
X96536653Y-103197860D01*
X95993794Y-102973000D01*
X95406206Y-102973000D01*
X94863347Y-103197860D01*
X94447860Y-103613347D01*
X94223000Y-104156206D01*
X64544916Y-104156206D01*
X64616458Y-103960664D01*
X64590839Y-103350540D01*
X64406643Y-102905852D01*
X64150159Y-102819446D01*
X63249605Y-103720000D01*
X62890395Y-103720000D01*
X61989841Y-102819446D01*
X61733357Y-102905852D01*
X61659079Y-103108876D01*
X61612588Y-102996638D01*
X61253362Y-102637412D01*
X60800910Y-102450000D01*
X61253362Y-102262588D01*
X61255791Y-102260159D01*
X62169446Y-102260159D01*
X62233401Y-102450000D01*
X62169446Y-102639841D01*
X63070000Y-103540395D01*
X63970554Y-102639841D01*
X63906599Y-102450000D01*
X63970554Y-102260159D01*
X63070000Y-101359605D01*
X62169446Y-102260159D01*
X61255791Y-102260159D01*
X61612588Y-101903362D01*
X61654170Y-101802974D01*
X61733357Y-101994148D01*
X61989841Y-102080554D01*
X62890395Y-101180000D01*
X63249605Y-101180000D01*
X64150159Y-102080554D01*
X64406643Y-101994148D01*
X64530282Y-101656206D01*
X89223000Y-101656206D01*
X89223000Y-102243794D01*
X89447860Y-102786653D01*
X89863347Y-103202140D01*
X90406206Y-103427000D01*
X90993794Y-103427000D01*
X91536653Y-103202140D01*
X91952140Y-102786653D01*
X92177000Y-102243794D01*
X92177000Y-101656206D01*
X91952140Y-101113347D01*
X91536653Y-100697860D01*
X90993794Y-100473000D01*
X90406206Y-100473000D01*
X89863347Y-100697860D01*
X89447860Y-101113347D01*
X89223000Y-101656206D01*
X64530282Y-101656206D01*
X64616458Y-101420664D01*
X64590839Y-100810540D01*
X64406643Y-100365852D01*
X64150159Y-100279446D01*
X63249605Y-101180000D01*
X62890395Y-101180000D01*
X61989841Y-100279446D01*
X61733357Y-100365852D01*
X61659079Y-100568876D01*
X61612588Y-100456638D01*
X61253362Y-100097412D01*
X60800910Y-99910000D01*
X61253362Y-99722588D01*
X61255791Y-99720159D01*
X62169446Y-99720159D01*
X62233401Y-99910000D01*
X62169446Y-100099841D01*
X63070000Y-101000395D01*
X63970554Y-100099841D01*
X63906599Y-99910000D01*
X63970554Y-99720159D01*
X63070000Y-98819605D01*
X62169446Y-99720159D01*
X61255791Y-99720159D01*
X61612588Y-99363362D01*
X61654170Y-99262974D01*
X61733357Y-99454148D01*
X61989841Y-99540554D01*
X62890395Y-98640000D01*
X63249605Y-98640000D01*
X64150159Y-99540554D01*
X64406643Y-99454148D01*
X64515648Y-99156206D01*
X94223000Y-99156206D01*
X94223000Y-99743794D01*
X94447860Y-100286653D01*
X94863347Y-100702140D01*
X95406206Y-100927000D01*
X95993794Y-100927000D01*
X96536653Y-100702140D01*
X96952140Y-100286653D01*
X97177000Y-99743794D01*
X97177000Y-99156206D01*
X96952140Y-98613347D01*
X96536653Y-98197860D01*
X95993794Y-97973000D01*
X95406206Y-97973000D01*
X94863347Y-98197860D01*
X94447860Y-98613347D01*
X94223000Y-99156206D01*
X64515648Y-99156206D01*
X64616458Y-98880664D01*
X64590839Y-98270540D01*
X64406643Y-97825852D01*
X64150159Y-97739446D01*
X63249605Y-98640000D01*
X62890395Y-98640000D01*
X61989841Y-97739446D01*
X61733357Y-97825852D01*
X61659079Y-98028876D01*
X61612588Y-97916638D01*
X61253362Y-97557412D01*
X60800910Y-97370000D01*
X61253362Y-97182588D01*
X61255791Y-97180159D01*
X62169446Y-97180159D01*
X62233401Y-97370000D01*
X62169446Y-97559841D01*
X63070000Y-98460395D01*
X63970554Y-97559841D01*
X63906599Y-97370000D01*
X63970554Y-97180159D01*
X63070000Y-96279605D01*
X62169446Y-97180159D01*
X61255791Y-97180159D01*
X61612588Y-96823362D01*
X61654170Y-96722974D01*
X61733357Y-96914148D01*
X61989841Y-97000554D01*
X62890395Y-96100000D01*
X63249605Y-96100000D01*
X64150159Y-97000554D01*
X64406643Y-96914148D01*
X64501013Y-96656206D01*
X89223000Y-96656206D01*
X89223000Y-97243794D01*
X89447860Y-97786653D01*
X89863347Y-98202140D01*
X90406206Y-98427000D01*
X90993794Y-98427000D01*
X91536653Y-98202140D01*
X91952140Y-97786653D01*
X92177000Y-97243794D01*
X92177000Y-96656206D01*
X91952140Y-96113347D01*
X91536653Y-95697860D01*
X90993794Y-95473000D01*
X90406206Y-95473000D01*
X89863347Y-95697860D01*
X89447860Y-96113347D01*
X89223000Y-96656206D01*
X64501013Y-96656206D01*
X64616458Y-96340664D01*
X64590839Y-95730540D01*
X64406643Y-95285852D01*
X64150159Y-95199446D01*
X63249605Y-96100000D01*
X62890395Y-96100000D01*
X61989841Y-95199446D01*
X61733357Y-95285852D01*
X61659079Y-95488876D01*
X61612588Y-95376638D01*
X61253362Y-95017412D01*
X60800910Y-94830000D01*
X61253362Y-94642588D01*
X61255791Y-94640159D01*
X62169446Y-94640159D01*
X62233401Y-94830000D01*
X62169446Y-95019841D01*
X63070000Y-95920395D01*
X63970554Y-95019841D01*
X63906599Y-94830000D01*
X63970554Y-94640159D01*
X63070000Y-93739605D01*
X62169446Y-94640159D01*
X61255791Y-94640159D01*
X61612588Y-94283362D01*
X61654170Y-94182974D01*
X61733357Y-94374148D01*
X61989841Y-94460554D01*
X62890395Y-93560000D01*
X63249605Y-93560000D01*
X64150159Y-94460554D01*
X64406643Y-94374148D01*
X64486379Y-94156206D01*
X94223000Y-94156206D01*
X94223000Y-94743794D01*
X94447860Y-95286653D01*
X94863347Y-95702140D01*
X95406206Y-95927000D01*
X95993794Y-95927000D01*
X96536653Y-95702140D01*
X96952140Y-95286653D01*
X97177000Y-94743794D01*
X97177000Y-94156206D01*
X96952140Y-93613347D01*
X96536653Y-93197860D01*
X95993794Y-92973000D01*
X95406206Y-92973000D01*
X94863347Y-93197860D01*
X94447860Y-93613347D01*
X94223000Y-94156206D01*
X64486379Y-94156206D01*
X64616458Y-93800664D01*
X64590839Y-93190540D01*
X64406643Y-92745852D01*
X64150159Y-92659446D01*
X63249605Y-93560000D01*
X62890395Y-93560000D01*
X61989841Y-92659446D01*
X61733357Y-92745852D01*
X61659079Y-92948876D01*
X61612588Y-92836638D01*
X61253362Y-92477412D01*
X60800910Y-92290000D01*
X61253362Y-92102588D01*
X61255791Y-92100159D01*
X62169446Y-92100159D01*
X62233401Y-92290000D01*
X62169446Y-92479841D01*
X63070000Y-93380395D01*
X63970554Y-92479841D01*
X63906599Y-92290000D01*
X63970554Y-92100159D01*
X63070000Y-91199605D01*
X62169446Y-92100159D01*
X61255791Y-92100159D01*
X61612588Y-91743362D01*
X61654170Y-91642974D01*
X61733357Y-91834148D01*
X61989841Y-91920554D01*
X62890395Y-91020000D01*
X63249605Y-91020000D01*
X64150159Y-91920554D01*
X64406643Y-91834148D01*
X64471744Y-91656206D01*
X89223000Y-91656206D01*
X89223000Y-92243794D01*
X89447860Y-92786653D01*
X89863347Y-93202140D01*
X90406206Y-93427000D01*
X90993794Y-93427000D01*
X91536653Y-93202140D01*
X91952140Y-92786653D01*
X92177000Y-92243794D01*
X92177000Y-91656206D01*
X91952140Y-91113347D01*
X91536653Y-90697860D01*
X90993794Y-90473000D01*
X90406206Y-90473000D01*
X89863347Y-90697860D01*
X89447860Y-91113347D01*
X89223000Y-91656206D01*
X64471744Y-91656206D01*
X64616458Y-91260664D01*
X64590839Y-90650540D01*
X64406643Y-90205852D01*
X64150159Y-90119446D01*
X63249605Y-91020000D01*
X62890395Y-91020000D01*
X61989841Y-90119446D01*
X61733357Y-90205852D01*
X61659079Y-90408876D01*
X61612588Y-90296638D01*
X61253362Y-89937412D01*
X60800910Y-89750000D01*
X61253362Y-89562588D01*
X61255791Y-89560159D01*
X62169446Y-89560159D01*
X62233401Y-89750000D01*
X62169446Y-89939841D01*
X63070000Y-90840395D01*
X63970554Y-89939841D01*
X63906599Y-89750000D01*
X63970554Y-89560159D01*
X63070000Y-88659605D01*
X62169446Y-89560159D01*
X61255791Y-89560159D01*
X61612588Y-89203362D01*
X61654170Y-89102974D01*
X61733357Y-89294148D01*
X61989841Y-89380554D01*
X62890395Y-88480000D01*
X63249605Y-88480000D01*
X64150159Y-89380554D01*
X64406643Y-89294148D01*
X64457110Y-89156206D01*
X94223000Y-89156206D01*
X94223000Y-89743794D01*
X94447860Y-90286653D01*
X94863347Y-90702140D01*
X95406206Y-90927000D01*
X95993794Y-90927000D01*
X96536653Y-90702140D01*
X96952140Y-90286653D01*
X97177000Y-89743794D01*
X97177000Y-89156206D01*
X96952140Y-88613347D01*
X96536653Y-88197860D01*
X95993794Y-87973000D01*
X95406206Y-87973000D01*
X94863347Y-88197860D01*
X94447860Y-88613347D01*
X94223000Y-89156206D01*
X64457110Y-89156206D01*
X64616458Y-88720664D01*
X64590839Y-88110540D01*
X64406643Y-87665852D01*
X64150159Y-87579446D01*
X63249605Y-88480000D01*
X62890395Y-88480000D01*
X61989841Y-87579446D01*
X61733357Y-87665852D01*
X61659079Y-87868876D01*
X61612588Y-87756638D01*
X61253362Y-87397412D01*
X60800910Y-87210000D01*
X61253362Y-87022588D01*
X61255791Y-87020159D01*
X62169446Y-87020159D01*
X62233401Y-87210000D01*
X62169446Y-87399841D01*
X63070000Y-88300395D01*
X63970554Y-87399841D01*
X63906599Y-87210000D01*
X63970554Y-87020159D01*
X63070000Y-86119605D01*
X62169446Y-87020159D01*
X61255791Y-87020159D01*
X61612588Y-86663362D01*
X61654170Y-86562974D01*
X61733357Y-86754148D01*
X61989841Y-86840554D01*
X62890395Y-85940000D01*
X63249605Y-85940000D01*
X64150159Y-86840554D01*
X64406643Y-86754148D01*
X64616458Y-86180664D01*
X64590839Y-85570540D01*
X64406643Y-85125852D01*
X64150159Y-85039446D01*
X63249605Y-85940000D01*
X62890395Y-85940000D01*
X61989841Y-85039446D01*
X61733357Y-85125852D01*
X61659079Y-85328876D01*
X61612588Y-85216638D01*
X61253362Y-84857412D01*
X60800910Y-84670000D01*
X61253362Y-84482588D01*
X61255791Y-84480159D01*
X62169446Y-84480159D01*
X62233401Y-84670000D01*
X62169446Y-84859841D01*
X63070000Y-85760395D01*
X63970554Y-84859841D01*
X63906599Y-84670000D01*
X63970554Y-84480159D01*
X63070000Y-83579605D01*
X62169446Y-84480159D01*
X61255791Y-84480159D01*
X61612588Y-84123362D01*
X61654170Y-84022974D01*
X61733357Y-84214148D01*
X61989841Y-84300554D01*
X62890395Y-83400000D01*
X63249605Y-83400000D01*
X64150159Y-84300554D01*
X64406643Y-84214148D01*
X64616458Y-83640664D01*
X64598216Y-83206206D01*
X89243000Y-83206206D01*
X89243000Y-83793794D01*
X89467860Y-84336653D01*
X89883347Y-84752140D01*
X90426206Y-84977000D01*
X91013794Y-84977000D01*
X91556653Y-84752140D01*
X91972140Y-84336653D01*
X92197000Y-83793794D01*
X92197000Y-83206206D01*
X91972140Y-82663347D01*
X91556653Y-82247860D01*
X91013794Y-82023000D01*
X90426206Y-82023000D01*
X89883347Y-82247860D01*
X89467860Y-82663347D01*
X89243000Y-83206206D01*
X64598216Y-83206206D01*
X64590839Y-83030540D01*
X64406643Y-82585852D01*
X64150159Y-82499446D01*
X63249605Y-83400000D01*
X62890395Y-83400000D01*
X61989841Y-82499446D01*
X61733357Y-82585852D01*
X61659079Y-82788876D01*
X61612588Y-82676638D01*
X61253362Y-82317412D01*
X60800910Y-82130000D01*
X61253362Y-81942588D01*
X61255791Y-81940159D01*
X62169446Y-81940159D01*
X62233401Y-82130000D01*
X62169446Y-82319841D01*
X63070000Y-83220395D01*
X63970554Y-82319841D01*
X63906599Y-82130000D01*
X63970554Y-81940159D01*
X63070000Y-81039605D01*
X62169446Y-81940159D01*
X61255791Y-81940159D01*
X61612588Y-81583362D01*
X61654170Y-81482974D01*
X61733357Y-81674148D01*
X61989841Y-81760554D01*
X62890395Y-80860000D01*
X63249605Y-80860000D01*
X64150159Y-81760554D01*
X64406643Y-81674148D01*
X64616458Y-81100664D01*
X64599895Y-80706206D01*
X94243000Y-80706206D01*
X94243000Y-81293794D01*
X94467860Y-81836653D01*
X94883347Y-82252140D01*
X95426206Y-82477000D01*
X96013794Y-82477000D01*
X96556653Y-82252140D01*
X96931793Y-81877000D01*
X98013630Y-81877000D01*
X98100000Y-81894180D01*
X98186370Y-81877000D01*
X98186375Y-81877000D01*
X98442188Y-81826116D01*
X98732281Y-81632281D01*
X98781210Y-81559055D01*
X100081209Y-80259057D01*
X100226115Y-80042189D01*
X100233077Y-80007187D01*
X100359055Y-79881209D01*
X100432281Y-79832281D01*
X100626116Y-79542188D01*
X100677000Y-79286375D01*
X100677000Y-79286371D01*
X100694180Y-79200001D01*
X100677000Y-79113631D01*
X100677000Y-44219228D01*
X100937185Y-44327000D01*
X101882815Y-44327000D01*
X102756462Y-43965123D01*
X103425123Y-43296462D01*
X103787000Y-42422815D01*
X103787000Y-41477185D01*
X103425123Y-40603538D01*
X102756462Y-39934877D01*
X102537000Y-39843973D01*
X102537000Y-39056027D01*
X102756462Y-38965123D01*
X103425123Y-38296462D01*
X103787000Y-37422815D01*
X103787000Y-36477185D01*
X103425123Y-35603538D01*
X102756462Y-34934877D01*
X101882815Y-34573000D01*
X100937185Y-34573000D01*
X100063538Y-34934877D01*
X99394877Y-35603538D01*
X99033000Y-36477185D01*
X99033000Y-37422815D01*
X99394877Y-38296462D01*
X100063538Y-38965123D01*
X100283001Y-39056028D01*
X100283001Y-39667424D01*
X100283000Y-39667429D01*
X100283000Y-39843973D01*
X100063538Y-39934877D01*
X99394877Y-40603538D01*
X99033000Y-41477185D01*
X99033000Y-42422815D01*
X99226006Y-42888773D01*
X99167720Y-42927719D01*
X99118793Y-43000943D01*
X99118792Y-43000944D01*
X98973885Y-43217812D01*
X98905820Y-43560000D01*
X98923001Y-43646375D01*
X98923000Y-78836736D01*
X98718792Y-79040944D01*
X98573885Y-79257812D01*
X98566923Y-79292811D01*
X97736736Y-80123000D01*
X96931793Y-80123000D01*
X96556653Y-79747860D01*
X96013794Y-79523000D01*
X95426206Y-79523000D01*
X94883347Y-79747860D01*
X94467860Y-80163347D01*
X94243000Y-80706206D01*
X64599895Y-80706206D01*
X64590839Y-80490540D01*
X64406643Y-80045852D01*
X64150159Y-79959446D01*
X63249605Y-80860000D01*
X62890395Y-80860000D01*
X61989841Y-79959446D01*
X61733357Y-80045852D01*
X61659079Y-80248876D01*
X61612588Y-80136638D01*
X61253362Y-79777412D01*
X60800910Y-79590000D01*
X61253362Y-79402588D01*
X61255791Y-79400159D01*
X62169446Y-79400159D01*
X62233401Y-79590000D01*
X62169446Y-79779841D01*
X63070000Y-80680395D01*
X63970554Y-79779841D01*
X63906599Y-79590000D01*
X63970554Y-79400159D01*
X63070000Y-78499605D01*
X62169446Y-79400159D01*
X61255791Y-79400159D01*
X61612588Y-79043362D01*
X61654170Y-78942974D01*
X61733357Y-79134148D01*
X61989841Y-79220554D01*
X62890395Y-78320000D01*
X63249605Y-78320000D01*
X64150159Y-79220554D01*
X64406643Y-79134148D01*
X64616458Y-78560664D01*
X64590839Y-77950540D01*
X64406643Y-77505852D01*
X64150159Y-77419446D01*
X63249605Y-78320000D01*
X62890395Y-78320000D01*
X61989841Y-77419446D01*
X61733357Y-77505852D01*
X61659079Y-77708876D01*
X61612588Y-77596638D01*
X61253362Y-77237412D01*
X60800910Y-77050000D01*
X61253362Y-76862588D01*
X61255791Y-76860159D01*
X62169446Y-76860159D01*
X62233401Y-77050000D01*
X62169446Y-77239841D01*
X63070000Y-78140395D01*
X63970554Y-77239841D01*
X63906599Y-77050000D01*
X63970554Y-76860159D01*
X63070000Y-75959605D01*
X62169446Y-76860159D01*
X61255791Y-76860159D01*
X61612588Y-76503362D01*
X61654170Y-76402974D01*
X61733357Y-76594148D01*
X61989841Y-76680554D01*
X62890395Y-75780000D01*
X63249605Y-75780000D01*
X64150159Y-76680554D01*
X64406643Y-76594148D01*
X64616458Y-76020664D01*
X64590839Y-75410540D01*
X64406643Y-74965852D01*
X64150159Y-74879446D01*
X63249605Y-75780000D01*
X62890395Y-75780000D01*
X61989841Y-74879446D01*
X61733357Y-74965852D01*
X61659079Y-75168876D01*
X61612588Y-75056638D01*
X61253362Y-74697412D01*
X60800910Y-74510000D01*
X61253362Y-74322588D01*
X61255791Y-74320159D01*
X62169446Y-74320159D01*
X62233401Y-74510000D01*
X62169446Y-74699841D01*
X63070000Y-75600395D01*
X63970554Y-74699841D01*
X63955854Y-74656206D01*
X89273000Y-74656206D01*
X89273000Y-75243794D01*
X89497860Y-75786653D01*
X89913347Y-76202140D01*
X90456206Y-76427000D01*
X91043794Y-76427000D01*
X91586653Y-76202140D01*
X92002140Y-75786653D01*
X92227000Y-75243794D01*
X92227000Y-74656206D01*
X92002140Y-74113347D01*
X91586653Y-73697860D01*
X91043794Y-73473000D01*
X90456206Y-73473000D01*
X89913347Y-73697860D01*
X89497860Y-74113347D01*
X89273000Y-74656206D01*
X63955854Y-74656206D01*
X63906599Y-74510000D01*
X63970554Y-74320159D01*
X63070000Y-73419605D01*
X62169446Y-74320159D01*
X61255791Y-74320159D01*
X61612588Y-73963362D01*
X61654170Y-73862974D01*
X61733357Y-74054148D01*
X61989841Y-74140554D01*
X62890395Y-73240000D01*
X63249605Y-73240000D01*
X64150159Y-74140554D01*
X64406643Y-74054148D01*
X64616458Y-73480664D01*
X64590839Y-72870540D01*
X64406643Y-72425852D01*
X64150159Y-72339446D01*
X63249605Y-73240000D01*
X62890395Y-73240000D01*
X61989841Y-72339446D01*
X61733357Y-72425852D01*
X61659079Y-72628876D01*
X61612588Y-72516638D01*
X61253362Y-72157412D01*
X60800910Y-71970000D01*
X61253362Y-71782588D01*
X61255791Y-71780159D01*
X62169446Y-71780159D01*
X62233401Y-71970000D01*
X62169446Y-72159841D01*
X63070000Y-73060395D01*
X63970554Y-72159841D01*
X63969330Y-72156206D01*
X94273000Y-72156206D01*
X94273000Y-72743794D01*
X94497860Y-73286653D01*
X94913347Y-73702140D01*
X95456206Y-73927000D01*
X96043794Y-73927000D01*
X96586653Y-73702140D01*
X97002140Y-73286653D01*
X97227000Y-72743794D01*
X97227000Y-72156206D01*
X97002140Y-71613347D01*
X96586653Y-71197860D01*
X96043794Y-70973000D01*
X95456206Y-70973000D01*
X94913347Y-71197860D01*
X94497860Y-71613347D01*
X94273000Y-72156206D01*
X63969330Y-72156206D01*
X63906599Y-71970000D01*
X63970554Y-71780159D01*
X63070000Y-70879605D01*
X62169446Y-71780159D01*
X61255791Y-71780159D01*
X61612588Y-71423362D01*
X61654170Y-71322974D01*
X61733357Y-71514148D01*
X61989841Y-71600554D01*
X62890395Y-70700000D01*
X63249605Y-70700000D01*
X64150159Y-71600554D01*
X64406643Y-71514148D01*
X64616458Y-70940664D01*
X64590839Y-70330540D01*
X64406643Y-69885852D01*
X64150159Y-69799446D01*
X63249605Y-70700000D01*
X62890395Y-70700000D01*
X61989841Y-69799446D01*
X61733357Y-69885852D01*
X61659079Y-70088876D01*
X61612588Y-69976638D01*
X61253362Y-69617412D01*
X60800910Y-69430000D01*
X61253362Y-69242588D01*
X61255791Y-69240159D01*
X62169446Y-69240159D01*
X62233401Y-69430000D01*
X62169446Y-69619841D01*
X63070000Y-70520395D01*
X63934189Y-69656206D01*
X89273000Y-69656206D01*
X89273000Y-70243794D01*
X89497860Y-70786653D01*
X89913347Y-71202140D01*
X90456206Y-71427000D01*
X91043794Y-71427000D01*
X91586653Y-71202140D01*
X92002140Y-70786653D01*
X92227000Y-70243794D01*
X92227000Y-69656206D01*
X92002140Y-69113347D01*
X91586653Y-68697860D01*
X91043794Y-68473000D01*
X90456206Y-68473000D01*
X89913347Y-68697860D01*
X89497860Y-69113347D01*
X89273000Y-69656206D01*
X63934189Y-69656206D01*
X63970554Y-69619841D01*
X63906599Y-69430000D01*
X63970554Y-69240159D01*
X63070000Y-68339605D01*
X62169446Y-69240159D01*
X61255791Y-69240159D01*
X61612588Y-68883362D01*
X61654170Y-68782974D01*
X61733357Y-68974148D01*
X61989841Y-69060554D01*
X62890395Y-68160000D01*
X63249605Y-68160000D01*
X64150159Y-69060554D01*
X64406643Y-68974148D01*
X64616458Y-68400664D01*
X64590839Y-67790540D01*
X64406643Y-67345852D01*
X64150159Y-67259446D01*
X63249605Y-68160000D01*
X62890395Y-68160000D01*
X61989841Y-67259446D01*
X61733357Y-67345852D01*
X61659079Y-67548876D01*
X61612588Y-67436638D01*
X61253362Y-67077412D01*
X60800910Y-66890000D01*
X61253362Y-66702588D01*
X61255791Y-66700159D01*
X62169446Y-66700159D01*
X62233401Y-66890000D01*
X62169446Y-67079841D01*
X63070000Y-67980395D01*
X63894189Y-67156206D01*
X94273000Y-67156206D01*
X94273000Y-67743794D01*
X94497860Y-68286653D01*
X94913347Y-68702140D01*
X95456206Y-68927000D01*
X96043794Y-68927000D01*
X96586653Y-68702140D01*
X97002140Y-68286653D01*
X97227000Y-67743794D01*
X97227000Y-67156206D01*
X97002140Y-66613347D01*
X96586653Y-66197860D01*
X96043794Y-65973000D01*
X95456206Y-65973000D01*
X94913347Y-66197860D01*
X94497860Y-66613347D01*
X94273000Y-67156206D01*
X63894189Y-67156206D01*
X63970554Y-67079841D01*
X63906599Y-66890000D01*
X63970554Y-66700159D01*
X63070000Y-65799605D01*
X62169446Y-66700159D01*
X61255791Y-66700159D01*
X61612588Y-66343362D01*
X61654170Y-66242974D01*
X61733357Y-66434148D01*
X61989841Y-66520554D01*
X62890395Y-65620000D01*
X63249605Y-65620000D01*
X64150159Y-66520554D01*
X64406643Y-66434148D01*
X64616458Y-65860664D01*
X64590839Y-65250540D01*
X64406643Y-64805852D01*
X64150159Y-64719446D01*
X63249605Y-65620000D01*
X62890395Y-65620000D01*
X61989841Y-64719446D01*
X61733357Y-64805852D01*
X61659079Y-65008876D01*
X61612588Y-64896638D01*
X61253362Y-64537412D01*
X60800910Y-64350000D01*
X61253362Y-64162588D01*
X61255791Y-64160159D01*
X62169446Y-64160159D01*
X62233401Y-64350000D01*
X62169446Y-64539841D01*
X63070000Y-65440395D01*
X63854189Y-64656206D01*
X89273000Y-64656206D01*
X89273000Y-65243794D01*
X89497860Y-65786653D01*
X89913347Y-66202140D01*
X90456206Y-66427000D01*
X91043794Y-66427000D01*
X91586653Y-66202140D01*
X92002140Y-65786653D01*
X92227000Y-65243794D01*
X92227000Y-64656206D01*
X92002140Y-64113347D01*
X91586653Y-63697860D01*
X91043794Y-63473000D01*
X90456206Y-63473000D01*
X89913347Y-63697860D01*
X89497860Y-64113347D01*
X89273000Y-64656206D01*
X63854189Y-64656206D01*
X63970554Y-64539841D01*
X63906599Y-64350000D01*
X63970554Y-64160159D01*
X63070000Y-63259605D01*
X62169446Y-64160159D01*
X61255791Y-64160159D01*
X61612588Y-63803362D01*
X61654170Y-63702974D01*
X61733357Y-63894148D01*
X61989841Y-63980554D01*
X62890395Y-63080000D01*
X63249605Y-63080000D01*
X64150159Y-63980554D01*
X64406643Y-63894148D01*
X64616458Y-63320664D01*
X64590839Y-62710540D01*
X64406643Y-62265852D01*
X64150159Y-62179446D01*
X63249605Y-63080000D01*
X62890395Y-63080000D01*
X61989841Y-62179446D01*
X61733357Y-62265852D01*
X61659079Y-62468876D01*
X61612588Y-62356638D01*
X61253362Y-61997412D01*
X60800910Y-61810000D01*
X61253362Y-61622588D01*
X61255791Y-61620159D01*
X62169446Y-61620159D01*
X62233401Y-61810000D01*
X62169446Y-61999841D01*
X63070000Y-62900395D01*
X63814189Y-62156206D01*
X94273000Y-62156206D01*
X94273000Y-62743794D01*
X94497860Y-63286653D01*
X94913347Y-63702140D01*
X95456206Y-63927000D01*
X96043794Y-63927000D01*
X96586653Y-63702140D01*
X97002140Y-63286653D01*
X97227000Y-62743794D01*
X97227000Y-62156206D01*
X97002140Y-61613347D01*
X96586653Y-61197860D01*
X96043794Y-60973000D01*
X95456206Y-60973000D01*
X94913347Y-61197860D01*
X94497860Y-61613347D01*
X94273000Y-62156206D01*
X63814189Y-62156206D01*
X63970554Y-61999841D01*
X63906599Y-61810000D01*
X63970554Y-61620159D01*
X63070000Y-60719605D01*
X62169446Y-61620159D01*
X61255791Y-61620159D01*
X61612588Y-61263362D01*
X61654170Y-61162974D01*
X61733357Y-61354148D01*
X61989841Y-61440554D01*
X62890395Y-60540000D01*
X63249605Y-60540000D01*
X64150159Y-61440554D01*
X64406643Y-61354148D01*
X64616458Y-60780664D01*
X64590839Y-60170540D01*
X64406643Y-59725852D01*
X64199909Y-59656206D01*
X89273000Y-59656206D01*
X89273000Y-60243794D01*
X89497860Y-60786653D01*
X89913347Y-61202140D01*
X90456206Y-61427000D01*
X91043794Y-61427000D01*
X91586653Y-61202140D01*
X92002140Y-60786653D01*
X92227000Y-60243794D01*
X92227000Y-59656206D01*
X92002140Y-59113347D01*
X91586653Y-58697860D01*
X91043794Y-58473000D01*
X90456206Y-58473000D01*
X89913347Y-58697860D01*
X89497860Y-59113347D01*
X89273000Y-59656206D01*
X64199909Y-59656206D01*
X64150159Y-59639446D01*
X63249605Y-60540000D01*
X62890395Y-60540000D01*
X61989841Y-59639446D01*
X61733357Y-59725852D01*
X61659079Y-59928876D01*
X61612588Y-59816638D01*
X61253362Y-59457412D01*
X60800910Y-59270000D01*
X61253362Y-59082588D01*
X61255791Y-59080159D01*
X62169446Y-59080159D01*
X62233401Y-59270000D01*
X62169446Y-59459841D01*
X63070000Y-60360395D01*
X63970554Y-59459841D01*
X63906599Y-59270000D01*
X63970554Y-59080159D01*
X63070000Y-58179605D01*
X62169446Y-59080159D01*
X61255791Y-59080159D01*
X61612588Y-58723362D01*
X61654170Y-58622974D01*
X61733357Y-58814148D01*
X61989841Y-58900554D01*
X62890395Y-58000000D01*
X63249605Y-58000000D01*
X64150159Y-58900554D01*
X64406643Y-58814148D01*
X64616458Y-58240664D01*
X64590839Y-57630540D01*
X64406643Y-57185852D01*
X64318644Y-57156206D01*
X94273000Y-57156206D01*
X94273000Y-57743794D01*
X94497860Y-58286653D01*
X94913347Y-58702140D01*
X95456206Y-58927000D01*
X96043794Y-58927000D01*
X96586653Y-58702140D01*
X97002140Y-58286653D01*
X97227000Y-57743794D01*
X97227000Y-57156206D01*
X97002140Y-56613347D01*
X96586653Y-56197860D01*
X96043794Y-55973000D01*
X95456206Y-55973000D01*
X94913347Y-56197860D01*
X94497860Y-56613347D01*
X94273000Y-57156206D01*
X64318644Y-57156206D01*
X64150159Y-57099446D01*
X63249605Y-58000000D01*
X62890395Y-58000000D01*
X61989841Y-57099446D01*
X61733357Y-57185852D01*
X61659079Y-57388876D01*
X61612588Y-57276638D01*
X61253362Y-56917412D01*
X60800910Y-56730000D01*
X61253362Y-56542588D01*
X61255791Y-56540159D01*
X62169446Y-56540159D01*
X62233401Y-56730000D01*
X62169446Y-56919841D01*
X63070000Y-57820395D01*
X63970554Y-56919841D01*
X63906599Y-56730000D01*
X63970554Y-56540159D01*
X63070000Y-55639605D01*
X62169446Y-56540159D01*
X61255791Y-56540159D01*
X61612588Y-56183362D01*
X61654170Y-56082974D01*
X61733357Y-56274148D01*
X61989841Y-56360554D01*
X62890395Y-55460000D01*
X63249605Y-55460000D01*
X64150159Y-56360554D01*
X64406643Y-56274148D01*
X64616458Y-55700664D01*
X64590839Y-55090540D01*
X64410932Y-54656206D01*
X89273000Y-54656206D01*
X89273000Y-55243794D01*
X89497860Y-55786653D01*
X89913347Y-56202140D01*
X90456206Y-56427000D01*
X91043794Y-56427000D01*
X91586653Y-56202140D01*
X92002140Y-55786653D01*
X92227000Y-55243794D01*
X92227000Y-54656206D01*
X92002140Y-54113347D01*
X91586653Y-53697860D01*
X91043794Y-53473000D01*
X90456206Y-53473000D01*
X89913347Y-53697860D01*
X89497860Y-54113347D01*
X89273000Y-54656206D01*
X64410932Y-54656206D01*
X64406643Y-54645852D01*
X64150159Y-54559446D01*
X63249605Y-55460000D01*
X62890395Y-55460000D01*
X61989841Y-54559446D01*
X61733357Y-54645852D01*
X61659079Y-54848876D01*
X61612588Y-54736638D01*
X61253362Y-54377412D01*
X60800910Y-54190000D01*
X61253362Y-54002588D01*
X61255791Y-54000159D01*
X62169446Y-54000159D01*
X62233401Y-54190000D01*
X62169446Y-54379841D01*
X63070000Y-55280395D01*
X63970554Y-54379841D01*
X63906599Y-54190000D01*
X63970554Y-54000159D01*
X63070000Y-53099605D01*
X62169446Y-54000159D01*
X61255791Y-54000159D01*
X61612588Y-53643362D01*
X61654170Y-53542974D01*
X61733357Y-53734148D01*
X61989841Y-53820554D01*
X62890395Y-52920000D01*
X63249605Y-52920000D01*
X64150159Y-53820554D01*
X64406643Y-53734148D01*
X64616458Y-53160664D01*
X64590839Y-52550540D01*
X64427501Y-52156206D01*
X94273000Y-52156206D01*
X94273000Y-52743794D01*
X94497860Y-53286653D01*
X94913347Y-53702140D01*
X95456206Y-53927000D01*
X96043794Y-53927000D01*
X96586653Y-53702140D01*
X97002140Y-53286653D01*
X97227000Y-52743794D01*
X97227000Y-52156206D01*
X97002140Y-51613347D01*
X96586653Y-51197860D01*
X96043794Y-50973000D01*
X95456206Y-50973000D01*
X94913347Y-51197860D01*
X94497860Y-51613347D01*
X94273000Y-52156206D01*
X64427501Y-52156206D01*
X64406643Y-52105852D01*
X64150159Y-52019446D01*
X63249605Y-52920000D01*
X62890395Y-52920000D01*
X61989841Y-52019446D01*
X61733357Y-52105852D01*
X61659079Y-52308876D01*
X61612588Y-52196638D01*
X61253362Y-51837412D01*
X60800910Y-51650000D01*
X61253362Y-51462588D01*
X61255791Y-51460159D01*
X62169446Y-51460159D01*
X62233401Y-51650000D01*
X62169446Y-51839841D01*
X63070000Y-52740395D01*
X63970554Y-51839841D01*
X63906599Y-51650000D01*
X63970554Y-51460159D01*
X63070000Y-50559605D01*
X62169446Y-51460159D01*
X61255791Y-51460159D01*
X61612588Y-51103362D01*
X61654170Y-51002974D01*
X61733357Y-51194148D01*
X61989841Y-51280554D01*
X62890395Y-50380000D01*
X63249605Y-50380000D01*
X64150159Y-51280554D01*
X64406643Y-51194148D01*
X64616458Y-50620664D01*
X64590839Y-50010540D01*
X64444069Y-49656206D01*
X89273000Y-49656206D01*
X89273000Y-50243794D01*
X89497860Y-50786653D01*
X89913347Y-51202140D01*
X90456206Y-51427000D01*
X91043794Y-51427000D01*
X91586653Y-51202140D01*
X92002140Y-50786653D01*
X92227000Y-50243794D01*
X92227000Y-49656206D01*
X92002140Y-49113347D01*
X91586653Y-48697860D01*
X91043794Y-48473000D01*
X90456206Y-48473000D01*
X89913347Y-48697860D01*
X89497860Y-49113347D01*
X89273000Y-49656206D01*
X64444069Y-49656206D01*
X64406643Y-49565852D01*
X64150159Y-49479446D01*
X63249605Y-50380000D01*
X62890395Y-50380000D01*
X61989841Y-49479446D01*
X61733357Y-49565852D01*
X61659079Y-49768876D01*
X61612588Y-49656638D01*
X61253362Y-49297412D01*
X60800910Y-49110000D01*
X61253362Y-48922588D01*
X61255791Y-48920159D01*
X62169446Y-48920159D01*
X62233401Y-49110000D01*
X62169446Y-49299841D01*
X63070000Y-50200395D01*
X63970554Y-49299841D01*
X63906599Y-49110000D01*
X63970554Y-48920159D01*
X63070000Y-48019605D01*
X62169446Y-48920159D01*
X61255791Y-48920159D01*
X61612588Y-48563362D01*
X61654170Y-48462974D01*
X61733357Y-48654148D01*
X61989841Y-48740554D01*
X62890395Y-47840000D01*
X63249605Y-47840000D01*
X64150159Y-48740554D01*
X64406643Y-48654148D01*
X64616458Y-48080664D01*
X64590839Y-47470540D01*
X64460638Y-47156206D01*
X94273000Y-47156206D01*
X94273000Y-47743794D01*
X94497860Y-48286653D01*
X94913347Y-48702140D01*
X95456206Y-48927000D01*
X96043794Y-48927000D01*
X96586653Y-48702140D01*
X97002140Y-48286653D01*
X97227000Y-47743794D01*
X97227000Y-47156206D01*
X97002140Y-46613347D01*
X96586653Y-46197860D01*
X96043794Y-45973000D01*
X95456206Y-45973000D01*
X94913347Y-46197860D01*
X94497860Y-46613347D01*
X94273000Y-47156206D01*
X64460638Y-47156206D01*
X64406643Y-47025852D01*
X64150159Y-46939446D01*
X63249605Y-47840000D01*
X62890395Y-47840000D01*
X61989841Y-46939446D01*
X61733357Y-47025852D01*
X61659079Y-47228876D01*
X61612588Y-47116638D01*
X61253362Y-46757412D01*
X60800910Y-46570000D01*
X61253362Y-46382588D01*
X61255791Y-46380159D01*
X62169446Y-46380159D01*
X62233401Y-46570000D01*
X62169446Y-46759841D01*
X63070000Y-47660395D01*
X63970554Y-46759841D01*
X63906599Y-46570000D01*
X63970554Y-46380159D01*
X63070000Y-45479605D01*
X62169446Y-46380159D01*
X61255791Y-46380159D01*
X61612588Y-46023362D01*
X61654170Y-45922974D01*
X61733357Y-46114148D01*
X61989841Y-46200554D01*
X62890395Y-45300000D01*
X63249605Y-45300000D01*
X64150159Y-46200554D01*
X64406643Y-46114148D01*
X64616458Y-45540664D01*
X64590839Y-44930540D01*
X64406643Y-44485852D01*
X64150159Y-44399446D01*
X63249605Y-45300000D01*
X62890395Y-45300000D01*
X61989841Y-44399446D01*
X61733357Y-44485852D01*
X61659079Y-44688876D01*
X61612588Y-44576638D01*
X61255791Y-44219841D01*
X62169446Y-44219841D01*
X63070000Y-45120395D01*
X63970554Y-44219841D01*
X63884148Y-43963357D01*
X63310664Y-43753542D01*
X62700540Y-43779161D01*
X62255852Y-43963357D01*
X62169446Y-44219841D01*
X61255791Y-44219841D01*
X61253362Y-44217412D01*
X60784011Y-44023000D01*
X60275989Y-44023000D01*
X59806638Y-44217412D01*
X59447412Y-44576638D01*
X59253000Y-45045989D01*
X51127000Y-45045989D01*
X51127000Y-36046587D01*
X59723000Y-36046587D01*
X59723000Y-36773413D01*
X60001144Y-37444912D01*
X60515088Y-37958856D01*
X61186587Y-38237000D01*
X61913413Y-38237000D01*
X62584912Y-37958856D01*
X63098856Y-37444912D01*
X63377000Y-36773413D01*
X63377000Y-36046587D01*
X63098856Y-35375088D01*
X62584912Y-34861144D01*
X61913413Y-34583000D01*
X61186587Y-34583000D01*
X60515088Y-34861144D01*
X60001144Y-35375088D01*
X59723000Y-36046587D01*
X51127000Y-36046587D01*
X51127000Y-31127000D01*
X59000000Y-31127000D01*
X59048601Y-31117333D01*
X59089803Y-31089803D01*
X59117333Y-31048601D01*
X59127000Y-31000000D01*
X59127000Y-23127000D01*
X99873000Y-23127000D01*
X99873000Y-31000000D01*
G04 #@! TD*
M02*
